<svg width="16" height="13" viewBox="0 0 16 13" xmlns="http://www.w3.org/2000/svg">
<path d="M6.2611 13C5.19545 13 3.92548 12.3045 2.37435 10.2996C2.05914 9.8925 2.05914 9.23181 2.37435 8.82444C2.68956 8.41681 3.20079 8.41655 3.51601 8.82444C6.04764 12.0965 7.03383 10.9425 8.52597 9.19723C10.053 7.41084 12.1439 4.96429 15.7635 9.64232C16.0789 10.0497 16.0789 10.7101 15.7635 11.1175C15.4483 11.5251 14.9373 11.5251 14.622 11.1175C12.0886 7.84362 11.1024 8.99708 9.60925 10.7434C8.73739 11.7643 7.68108 13 6.2611 13Z"/>
<path d="M4.171 6.03799C3.09279 6.03799 1.807 5.33486 0.23641 3.3051C-0.0788032 2.89747 -0.0788032 2.2373 0.23641 1.82968C0.551825 1.42231 1.06286 1.42231 1.37827 1.82968C3.947 5.14964 4.94798 3.98911 6.46323 2.23338C7.98558 0.468996 10.0704 -1.94717 13.6256 2.64755C13.941 3.05518 13.941 3.71535 13.6256 4.12324C13.3101 4.53034 12.7995 4.53034 12.4841 4.12324C10.01 0.925613 9.02751 2.06336 7.54104 3.78687C6.6625 4.80489 5.59888 6.03799 4.171 6.03799Z"/>
</svg>
