<svg width="48" height="54" viewBox="0 0 48 54" fill="none" xmlns="http://www.w3.org/2000/svg">
<path fill-rule="evenodd" clip-rule="evenodd" d="M26.1918 22.9568C25.9895 22.9655 25.7925 23.0242 25.6184 23.1276C25.4443 23.231 25.2984 23.3758 25.1939 23.5492C25.0893 23.7226 25.0293 23.9192 25.0192 24.1215C25.009 24.3237 25.0491 24.5253 25.1358 24.7083C26.8225 28.4033 27.007 31.2204 26.2729 33.4381C25.5388 35.6558 23.8386 37.4091 21.3144 38.821C21.1715 38.8984 21.0454 39.0035 20.9434 39.1301C20.8414 39.2567 20.7656 39.4023 20.7204 39.5584C20.6751 39.7145 20.6614 39.878 20.6798 40.0395C20.6983 40.201 20.7487 40.3573 20.828 40.4991C20.9074 40.641 21.0141 40.7657 21.1421 40.866C21.27 40.9662 21.4166 41.0401 21.5733 41.0833C21.73 41.1264 21.8937 41.138 22.0549 41.1173C22.2162 41.0967 22.3717 41.0443 22.5125 40.963C25.3911 39.3529 27.6323 37.1417 28.603 34.2093C29.5737 31.2769 29.2262 27.7585 27.3685 23.6891C27.269 23.4627 27.1034 23.2717 26.8934 23.141C26.6834 23.0103 26.4389 22.9461 26.1918 22.9568Z" fill="#2B4CB9"/>
<path fill-rule="evenodd" clip-rule="evenodd" d="M13.1652 0C12.963 0.00182114 12.7644 0.053602 12.587 0.150675C12.4096 0.247749 12.259 0.387127 12.1485 0.556447C12.038 0.725767 11.971 0.919769 11.9535 1.12121C11.9361 1.32265 11.9686 1.52528 12.0484 1.7111C12.6149 3.03113 12.4208 4.84518 11.5831 7.05935C10.7455 9.27351 9.30682 11.7986 7.74829 14.3888C4.63122 19.5694 0.925781 24.8941 0.925781 29.7191C0.925781 38.6416 8.19761 45.899 17.1325 45.899C21.5534 45.899 25.8011 44.3716 28.8726 41.5493C31.9441 38.727 33.7903 34.5616 33.3343 29.6065C33.3342 29.6065 33.3342 29.6065 33.3341 29.6065C32.8579 24.4813 29.0895 17.3908 24.9294 11.319C22.8493 8.28305 20.6653 5.53919 18.6847 3.51348C17.6944 2.50062 16.7582 1.6667 15.8719 1.05473C14.9856 0.442759 14.1645 -0.00782578 13.1652 0.000973791V0ZM14.8347 3.33475C15.4498 3.80279 16.1649 4.44625 16.9296 5.2284C18.7644 7.10498 20.8887 9.76262 22.9048 12.7052C26.937 18.5904 30.5123 25.7648 30.8903 29.8326C31.2806 34.0775 29.7735 37.3883 27.2119 39.7421C24.6501 42.0961 20.9846 43.4446 17.1325 43.4446C9.5217 43.4446 3.38014 37.3128 3.38014 29.7191C3.38014 26.286 6.70005 20.8915 9.85134 15.6541C11.427 13.0354 12.9333 10.4267 13.8787 7.92763C14.4686 6.36835 14.8563 4.81709 14.8347 3.33475Z" fill="#2B4CB9"/>
<path fill-rule="evenodd" clip-rule="evenodd" d="M41.4722 44.0957C41.2699 44.1042 41.0729 44.1627 40.8987 44.2658C40.7245 44.3689 40.5785 44.5136 40.4737 44.6869C40.369 44.8601 40.3087 45.0566 40.2983 45.2588C40.2879 45.461 40.3277 45.6626 40.4141 45.8457C40.681 46.4325 40.653 46.715 40.6006 46.8739C40.5483 47.0327 40.4247 47.2003 40.0652 47.4036C39.9225 47.4816 39.7968 47.5872 39.6952 47.7143C39.5937 47.8414 39.5185 47.9873 39.4738 48.1437C39.4292 48.3001 39.4161 48.4638 39.4353 48.6253C39.4546 48.7868 39.5057 48.9429 39.5857 49.0845C39.6658 49.2261 39.7732 49.3503 39.9017 49.45C40.0302 49.5497 40.1772 49.6229 40.3343 49.6652C40.4913 49.7076 40.6552 49.7184 40.8164 49.6969C40.9776 49.6753 41.1329 49.622 41.2733 49.5399C41.9854 49.1373 42.6448 48.512 42.9315 47.6423C43.2182 46.7727 43.0853 45.7911 42.6479 44.8295C42.5487 44.603 42.3833 44.4117 42.1735 44.2808C41.9638 44.1498 41.7193 44.0853 41.4722 44.0957Z" fill="#2B4CB9"/>
<path fill-rule="evenodd" clip-rule="evenodd" d="M37.1732 31.7763C36.9731 31.782 36.7774 31.8365 36.6032 31.9352C36.429 32.0338 36.2815 32.1736 36.1737 32.3423C36.0659 32.5111 36.0011 32.7036 35.9848 32.9032C35.9685 33.1027 36.0012 33.3032 36.0802 33.4872C36.2342 33.8457 36.2095 34.4896 35.8574 35.4194C35.5053 36.3493 34.8683 37.4756 34.1632 38.6466C32.7528 40.9884 30.96 43.3913 30.96 45.966C30.96 50.3917 34.5762 54 39.0063 54C41.1718 54 43.2631 53.2561 44.7994 51.8436C46.3352 50.4316 47.2671 48.303 47.04 45.8544C47.0399 45.8544 47.0398 45.8544 47.0398 45.8544C46.8017 43.2576 45.1086 40.2441 43.2241 37.5467C42.2816 36.1975 41.2817 34.957 40.3438 33.9697C39.406 32.9824 38.6266 32.2411 37.6536 31.8617C37.5007 31.8021 37.3373 31.7738 37.1732 31.7784L37.1732 31.7763ZM38.4124 35.5009C38.4629 35.5518 38.5135 35.6044 38.5643 35.6578C39.3932 36.5305 40.3328 37.6915 41.2121 38.9501C42.9708 41.4675 44.451 44.4936 44.5958 46.0777C44.5958 46.0777 44.5959 46.0777 44.596 46.0777C44.7578 47.8171 44.1647 49.0911 43.1382 50.0349C42.1117 50.9787 40.6025 51.5439 39.0063 51.5439C35.8978 51.5439 33.4141 49.0635 33.4141 45.964C33.4141 44.7836 34.8209 42.3096 36.2656 39.9109C36.988 38.7115 37.6925 37.5016 38.1526 36.2867C38.2505 36.028 38.3385 35.7648 38.4124 35.499L38.4124 35.5009Z" fill="#2B4CB9"/>
</svg>
