<svg width="58" height="57" viewBox="0 0 58 57" fill="none" xmlns="http://www.w3.org/2000/svg">
<path d="M26.2442 34.6064L45.3193 44.4928C46.2382 44.9724 47.2858 45.1448 48.3092 44.9849C49.3326 44.825 50.2784 44.3412 51.0086 43.604L56.9083 37.6823C57.6074 36.9786 58 36.0254 58 35.0316C58 34.0379 57.6074 33.0846 56.9083 32.381L53.3914 28.851L55.4875 26.7471C56.3364 25.8934 56.8132 24.7366 56.8132 23.5305C56.8132 22.3243 56.3364 21.1675 55.4875 20.3138L36.559 1.32746C35.7088 0.477327 34.5576 0 33.3576 0C32.1575 0 31.0063 0.477327 30.1561 1.32746L23.7085 7.79267C22.8596 8.64632 22.3828 9.80317 22.3828 11.0093C22.3828 12.2154 22.8596 13.3723 23.7085 14.2259L42.6307 33.2187C43.4811 34.0708 44.6337 34.5493 45.8353 34.5493C47.037 34.5493 48.1895 34.0708 49.04 33.2187L51.1361 31.1148L54.6529 34.6447C54.7548 34.7488 54.812 34.8889 54.812 35.0348C54.812 35.1808 54.7548 35.3209 54.6529 35.4249L48.7469 41.3466C48.4931 41.6021 48.1647 41.7697 47.8095 41.8249C47.4543 41.8801 47.0908 41.8201 46.7719 41.6535L27.7223 31.767C26.8034 31.2875 25.7558 31.1151 24.7324 31.275C23.709 31.4349 22.7632 31.9187 22.0329 32.6559L18.4779 36.2243L16.1397 33.8774C15.9917 33.7285 15.816 33.6104 15.6225 33.5298C15.429 33.4492 15.2215 33.4077 15.012 33.4077C14.8025 33.4077 14.5951 33.4492 14.4016 33.5298C14.208 33.6104 14.0323 33.7285 13.8843 33.8774L1.85572 45.9317C1.2674 46.522 0.800703 47.2228 0.482294 47.9942C0.163885 48.7656 0 49.5923 0 50.4273C0 51.2622 0.163885 52.089 0.482294 52.8604C0.800703 53.6318 1.2674 54.3326 1.85572 54.9229L2.08508 55.1531C3.2777 56.3364 4.88701 57 6.56395 57C8.24088 57 9.8502 56.3364 11.0428 55.1531L23.0587 43.0924C23.207 42.9439 23.3247 42.7674 23.405 42.5732C23.4853 42.379 23.5266 42.1708 23.5266 41.9605C23.5266 41.7502 23.4853 41.542 23.405 41.3477C23.3247 41.1535 23.207 40.9771 23.0587 40.8286L20.7141 38.4817L24.2756 34.9005C24.5303 34.6485 24.8583 34.4842 25.2121 34.4313C25.566 34.3784 25.9274 34.4397 26.2442 34.6064ZM46.7846 30.9613C46.6596 31.0881 46.5108 31.1888 46.3467 31.2575C46.1827 31.3263 46.0067 31.3616 45.8289 31.3616C45.6512 31.3616 45.4752 31.3263 45.3112 31.2575C45.1471 31.1888 44.9983 31.0881 44.8733 30.9613L25.9575 11.9621C25.8312 11.8367 25.7309 11.6873 25.6624 11.5226C25.5939 11.358 25.5587 11.1813 25.5587 11.0029C25.5587 10.8245 25.5939 10.6478 25.6624 10.4832C25.7309 10.3185 25.8312 10.1691 25.9575 10.0437L32.4051 3.56566C32.5301 3.43883 32.6789 3.33814 32.843 3.26942C33.007 3.2007 33.183 3.16531 33.3607 3.16531C33.5385 3.16531 33.7145 3.2007 33.8785 3.26942C34.0426 3.33814 34.1914 3.43883 34.3164 3.56566L53.2067 22.584C53.333 22.7095 53.4333 22.8589 53.5018 23.0235C53.5703 23.1882 53.6055 23.3648 53.6055 23.5432C53.6055 23.7217 53.5703 23.8983 53.5018 24.063C53.4333 24.2276 53.333 24.377 53.2067 24.5025L46.7846 30.9613ZM8.78746 52.8957C8.49504 53.1904 8.14754 53.4242 7.76488 53.5837C7.38222 53.7433 6.97194 53.8254 6.55758 53.8254C6.14322 53.8254 5.73294 53.7433 5.35028 53.5837C4.96762 53.4242 4.62011 53.1904 4.3277 52.8957L4.09834 52.6655C3.80477 52.372 3.57182 52.0232 3.41288 51.6391C3.25393 51.255 3.17211 50.8432 3.17211 50.4273C3.17211 50.0114 3.25393 49.5996 3.41288 49.2155C3.57182 48.8314 3.80477 48.4826 4.09834 48.1891L14.9802 37.2666L19.682 41.9349L8.78746 52.8957Z" fill="#2B4CB9"/>
</svg>
