<svg width="50" height="48" viewBox="0 0 50 48" fill="none" xmlns="http://www.w3.org/2000/svg">
<path d="M5.55198 25.3216C5.02024 25.2635 4.53684 25.6412 4.47884 26.1739L4.2178 28.4208C4.15979 28.9534 4.53684 29.4377 5.06858 29.4958C5.10725 29.4958 5.14592 29.5055 5.1846 29.5055C5.66799 29.5055 6.08372 29.1471 6.14172 28.6532L6.40276 26.4063C6.46077 25.864 6.08372 25.3797 5.55198 25.3216Z" fill="#2B4CB9"/>
<path d="M15.2491 23.3169L13.2188 21.8448C12.7837 21.5349 12.1843 21.6317 11.8653 22.0675C11.5559 22.5034 11.6526 23.1038 12.0877 23.4234L14.1179 24.8955C14.2919 25.0214 14.4853 25.0795 14.6787 25.0795C14.9784 25.0795 15.2781 24.9439 15.4618 24.6728C15.7711 24.2369 15.6745 23.6365 15.2491 23.3169Z" fill="#2B4CB9"/>
<path d="M18.1401 18.4455L16.7285 18.0775L14.3792 17.4673C13.8668 17.3317 13.3351 17.6416 13.1997 18.1646C13.0644 18.6779 13.3738 19.2106 13.8958 19.3462L17.6663 20.334C17.7437 20.3534 17.8307 20.3631 17.908 20.3631C18.3334 20.3631 18.7298 20.0725 18.8458 19.6367C18.9715 19.1137 18.6621 18.5811 18.1401 18.4455Z" fill="#2B4CB9"/>
<path d="M21.1656 19.2395L21.0883 19.2202C20.5758 19.0846 20.0441 19.3945 19.9088 19.9078C19.7734 20.4211 20.0828 20.9537 20.5952 21.0893L20.6725 21.1087C20.7595 21.1281 20.8369 21.1377 20.9142 21.1377C21.3396 21.1377 21.736 20.8472 21.852 20.4114C21.997 19.9078 21.6877 19.3751 21.1656 19.2395Z" fill="#2B4CB9"/>
<path d="M13.5573 30.0575L11.759 27.2005L10.4345 25.0892C10.1542 24.634 9.55474 24.4984 9.10034 24.789C8.87798 24.9342 8.72329 25.1473 8.67495 25.3894C8.67495 25.3991 8.67495 25.4088 8.66529 25.4185C8.66529 25.4378 8.65562 25.4572 8.65562 25.4863C8.62661 25.6993 8.67495 25.9318 8.80064 26.1255L11.9234 31.0938C12.1071 31.3843 12.4261 31.5489 12.7452 31.5489C12.9192 31.5489 13.1029 31.5005 13.2576 31.4037C13.7023 31.1034 13.8376 30.5127 13.5573 30.0575Z" fill="#2B4CB9"/>
<path d="M15.2208 32.7112L15.1724 32.6434C14.8921 32.1882 14.2927 32.0526 13.8383 32.3432C13.3839 32.624 13.2485 33.2245 13.5386 33.6797L13.5869 33.7475C13.7706 34.038 14.08 34.2026 14.4087 34.2026C14.5827 34.2026 14.7664 34.1542 14.9211 34.0574C15.3658 33.7571 15.5012 33.1567 15.2208 32.7112Z" fill="#2B4CB9"/>
<path d="M48.9228 33.3116H48.0623V5.55495C48.0623 2.63983 45.6937 0.276733 42.7933 0.276733H5.65869C2.7583 0.276733 0.389648 2.64951 0.389648 5.55495V44.4782C0.389648 45.0109 0.824707 45.4467 1.35644 45.4467H29.9929C30.167 46.8219 31.3464 47.8872 32.758 47.8872H43.6731C43.7601 47.8872 43.8471 47.8969 43.9341 47.8969C46.8248 47.8969 47.0569 45.9309 47.0569 45.3305V44.6331H48.9228C49.4545 44.6331 49.8896 44.1973 49.8896 43.6647V34.2801C49.8896 33.7474 49.4545 33.3116 48.9228 33.3116ZM39.9509 13.9711V11.2109H46.1288V13.9711H39.9509ZM46.1288 15.908V31.055C46.0611 30.9388 45.9934 30.8226 45.9161 30.7064C45.0073 29.3312 43.7601 28.5661 42.4066 28.5661L39.9413 28.5757V15.908H46.1288ZM39.9509 9.27392V6.85272H46.1288V9.27392H39.9509ZM5.65869 2.21369H42.7933C44.4175 2.21369 45.771 3.37587 46.0707 4.91576H2.38125C2.68095 3.37587 4.04414 2.21369 5.65869 2.21369ZM38.0173 6.85272V31.3262H37.0989L37.0699 6.85272H38.0173ZM2.32324 6.85272H35.1363V9.27392H2.32324V6.85272ZM2.32324 11.2109H35.146V13.9711H8.75243H2.32324V11.2109ZM2.32324 15.908H8.17235C8.96513 17.7965 8.07568 19.443 6.99286 20.334C5.89072 21.2443 4.04414 21.7964 2.32324 20.5567V15.908ZM2.32324 43.5097V38.8901H29.0455C29.1615 39.1516 29.3162 39.3937 29.4999 39.6067C29.0745 40.1007 28.8231 40.7399 28.8231 41.4372C28.8231 42.2604 29.1808 42.9964 29.7512 43.5097H2.32324ZM29.3935 34.1251C29.3935 34.6772 29.5579 35.1905 29.8286 35.6263C29.4129 35.9652 29.1035 36.4301 28.9391 36.9531H2.32324V22.7649C3.029 23.0748 3.7541 23.2104 4.45986 23.2104C5.87138 23.2104 7.21523 22.6583 8.22069 21.8351C9.80624 20.5373 10.8697 18.3195 10.222 15.908H35.1556L35.175 31.3359H32.1876C30.6407 31.3359 29.3935 32.5853 29.3935 34.1251ZM47.956 42.6865H46.0901C45.5583 42.6865 45.1233 43.1223 45.1233 43.655V45.3208C45.1233 45.5435 45.1233 45.9503 43.9341 45.9503C43.8665 45.9503 43.7988 45.9503 43.7311 45.9503C43.7214 45.9503 43.7021 45.9503 43.6924 45.9503H32.758C32.2842 45.9503 31.8975 45.5629 31.8975 45.0883C31.8975 44.6138 32.2842 44.2264 32.758 44.2264H36.8378C37.3696 44.2264 37.8046 43.7906 37.8046 43.2579C37.8046 42.7252 37.3696 42.2894 36.8378 42.2894H31.6075C31.1338 42.2894 30.747 41.902 30.747 41.4275C30.747 40.9529 31.1338 40.5655 31.6075 40.5655H36.8378C37.3696 40.5655 37.8046 40.1297 37.8046 39.597C37.8046 39.0644 37.3696 38.6286 36.8378 38.6286H31.6075C31.1338 38.6286 30.747 38.2412 30.747 37.7666C30.747 37.2921 31.1338 36.9047 31.6075 36.9047H32.1876C32.2262 36.9047 32.2746 36.9047 32.3132 36.895C32.3519 36.9047 32.4003 36.9047 32.4389 36.9047H36.8378C37.3696 36.9047 37.8046 36.4689 37.8046 35.9362C37.8046 35.4035 37.3696 34.9677 36.8378 34.9677H32.4389C32.4003 34.9677 32.3519 34.9677 32.3132 34.9774C32.2746 34.9677 32.2262 34.9677 32.1876 34.9677C31.7138 34.9677 31.3271 34.5803 31.3271 34.1058C31.3271 33.6312 31.7138 33.2438 32.1876 33.2438H38.9938C39.5255 33.2438 39.9606 32.808 39.9606 32.2753V30.4836L42.4259 30.474C44.0791 30.474 45.1426 32.9533 45.1426 34.251C45.1426 34.7837 45.5777 35.2195 46.1094 35.2195H47.956V42.6865Z" fill="#2B4CB9"/>
</svg>
