<svg width="19" height="19" viewBox="0 0 19 19" fill="none" xmlns="http://www.w3.org/2000/svg">
<circle cx="9.5" cy="9.5" r="9.5" fill="#2B4CB9"/>
<path d="M6.53247 5.13753C6.70247 4.98753 6.88747 4.84503 7.08747 4.71003C7.29247 4.57503 7.51247 4.45753 7.74747 4.35753C7.98247 4.25753 8.23747 4.18003 8.51247 4.12503C8.78747 4.06503 9.08497 4.03503 9.40497 4.03503C9.83997 4.03503 10.235 4.09503 10.59 4.21503C10.95 4.33503 11.2575 4.50753 11.5125 4.73253C11.7675 4.95253 11.965 5.22003 12.105 5.53503C12.245 5.85003 12.315 6.20253 12.315 6.59253C12.315 6.97253 12.26 7.30253 12.15 7.58253C12.04 7.85753 11.9025 8.09753 11.7375 8.30253C11.5725 8.50753 11.39 8.68503 11.19 8.83503C10.995 8.98503 10.81 9.12753 10.635 9.26253C10.46 9.39253 10.3075 9.52253 10.1775 9.65253C10.0525 9.77753 9.97747 9.92003 9.95247 10.08L9.77997 11.175H8.51247L8.38497 9.95253C8.35497 9.71753 8.38747 9.51253 8.48247 9.33753C8.58247 9.15753 8.71247 8.99503 8.87247 8.85003C9.03747 8.70003 9.21997 8.55753 9.41997 8.42253C9.61997 8.28253 9.80747 8.13253 9.98247 7.97253C10.1575 7.80753 10.3025 7.62503 10.4175 7.42503C10.5375 7.22003 10.5975 6.97753 10.5975 6.69753C10.5975 6.51753 10.5625 6.35753 10.4925 6.21753C10.4275 6.07253 10.335 5.95003 10.215 5.85003C10.095 5.74503 9.94997 5.66503 9.77997 5.61003C9.61497 5.55503 9.43497 5.52753 9.23997 5.52753C8.95497 5.52753 8.71247 5.56003 8.51247 5.62503C8.31747 5.68503 8.14997 5.75503 8.00997 5.83503C7.87497 5.91003 7.75997 5.98003 7.66497 6.04503C7.56997 6.10503 7.48497 6.13503 7.40997 6.13503C7.22997 6.13503 7.09997 6.06003 7.01997 5.91003L6.53247 5.13753ZM7.94997 13.98C7.94997 13.825 7.97747 13.6775 8.03247 13.5375C8.09247 13.3975 8.17247 13.2775 8.27247 13.1775C8.37247 13.0775 8.49247 12.9975 8.63247 12.9375C8.77247 12.8775 8.92247 12.8475 9.08247 12.8475C9.24247 12.8475 9.38997 12.8775 9.52497 12.9375C9.66497 12.9975 9.78497 13.0775 9.88497 13.1775C9.98997 13.2775 10.0725 13.3975 10.1325 13.5375C10.1925 13.6775 10.2225 13.825 10.2225 13.98C10.2225 14.14 10.1925 14.29 10.1325 14.43C10.0725 14.565 9.98997 14.6825 9.88497 14.7825C9.78497 14.8825 9.66497 14.96 9.52497 15.015C9.38997 15.075 9.24247 15.105 9.08247 15.105C8.92247 15.105 8.77247 15.075 8.63247 15.015C8.49247 14.96 8.37247 14.8825 8.27247 14.7825C8.17247 14.6825 8.09247 14.565 8.03247 14.43C7.97747 14.29 7.94997 14.14 7.94997 13.98Z" fill="white"/>
</svg>
