<svg width="50" height="50" viewBox="0 0 50 50" fill="none" xmlns="http://www.w3.org/2000/svg">
<path d="M42.1466 7.86197C37.5646 3.27049 31.4648 0.74707 24.976 0.74707C18.4872 0.74707 12.3873 3.27049 7.80533 7.86197C3.21385 12.444 0.69043 18.5438 0.69043 25.0326C0.69043 31.5214 3.21385 37.6212 7.80533 42.2032C12.3968 46.7947 18.4872 49.3181 24.976 49.3181C31.4648 49.3181 37.5646 46.7947 42.1466 42.2032C46.7381 37.6118 49.2615 31.5214 49.2615 25.0326C49.2615 18.5438 46.7381 12.444 42.1466 7.86197ZM24.976 47.4208C12.634 47.4208 2.58774 37.3746 2.58774 25.0326C2.58774 12.6906 12.634 2.64438 24.976 2.64438C37.318 2.64438 47.3642 12.6906 47.3642 25.0326C47.3642 37.3746 37.318 47.4208 24.976 47.4208Z" fill="#2B4CB9"/>
<path d="M30.2693 5.23419C29.7666 5.10138 29.2448 5.40495 29.112 5.90774C28.9792 6.41052 29.2827 6.93228 29.7855 7.06509C37.8965 9.23751 43.56 16.618 43.56 25.0326C43.56 35.2781 35.2213 43.6167 24.9759 43.6167C14.7304 43.6167 6.39173 35.2781 6.39173 25.0326C6.39173 16.5706 12.1026 9.17111 20.28 7.04612C20.7828 6.91331 21.0864 6.39155 20.9631 5.88876C20.8302 5.38598 20.3085 5.08241 19.8057 5.20573C10.7935 7.55839 4.50391 15.7073 4.50391 25.0326C4.50391 30.5063 6.63838 35.648 10.4994 39.5185C14.3604 43.3891 19.5116 45.514 24.9853 45.514C30.4591 45.514 35.6008 43.3796 39.4713 39.5185C43.3418 35.6575 45.4668 30.5063 45.4668 25.0326C45.4573 15.7643 39.2151 7.6248 30.2693 5.23419Z" fill="#2B4CB9"/>
<path d="M24.9756 4.55115H24.9281C24.4064 4.55115 23.9795 4.97804 23.9795 5.4998C23.9795 6.02156 24.4064 6.44846 24.9281 6.44846H24.9661C25.4879 6.44846 25.9147 6.02156 25.9147 5.4998C25.9147 4.97804 25.4973 4.55115 24.9756 4.55115Z" fill="#2B4CB9"/>
<path d="M36.3124 13.3547C36.1037 13.146 35.8191 13.0511 35.525 13.0796L21.8644 14.7113C21.8359 14.7113 21.8169 14.7208 21.7885 14.7208C19.0848 14.9959 16.5424 16.2101 14.6167 18.1359C12.3683 20.3842 11.1351 23.3725 11.1446 26.5505C11.1446 29.7285 12.3873 32.7167 14.6451 34.965C14.7305 35.0504 14.8254 35.1358 14.9107 35.2212C14.6261 36.1888 14.4838 37.2038 14.4838 38.2474C14.4838 38.7691 14.9107 39.196 15.4325 39.196C15.9543 39.196 16.3812 38.7691 16.3812 38.2474C16.3812 37.6592 16.4381 37.0805 16.5519 36.5113C18.4682 37.773 20.7165 38.4561 23.0692 38.4561C23.0787 38.4561 23.0787 38.4561 23.0881 38.4561C26.2566 38.4561 29.2449 37.2228 31.4837 34.984C33.4095 33.0582 34.6143 30.5158 34.8989 27.8217V27.8122L36.597 14.1326C36.6159 13.8575 36.5211 13.5634 36.3124 13.3547ZM33.0016 27.556C33.0016 27.575 32.9921 27.594 32.9921 27.613C32.7644 29.8897 31.7399 32.0432 30.1271 33.6559C28.2393 35.5437 25.7444 36.5777 23.0692 36.5777H23.0597C20.9062 36.5777 18.8477 35.8947 17.1401 34.633C17.5765 33.6559 18.1931 32.7642 18.971 31.9863L19.2651 31.6922H26.9681C27.4899 31.6922 27.9168 31.2653 27.9168 30.7435C27.9168 30.2218 27.4899 29.7949 26.9681 29.7949H21.1624L24.2455 26.7117H29.4346C29.9564 26.7117 30.3833 26.2848 30.3833 25.7631C30.3833 25.2413 29.9564 24.8144 29.4346 24.8144H26.1428L31.5691 19.3881C31.9391 19.0182 31.9391 18.4205 31.5691 18.0505C31.1991 17.6806 30.6015 17.6806 30.2315 18.0505L24.8052 23.4768V20.185C24.8052 19.6632 24.3783 19.2363 23.8565 19.2363C23.3348 19.2363 22.9079 19.6632 22.9079 20.185V25.3741L19.8248 28.4573V24.9947C19.8248 24.4729 19.3979 24.046 18.8761 24.046C18.3544 24.046 17.9275 24.4729 17.9275 24.9947V30.3546L17.6334 30.6487C16.8365 31.4455 16.1819 32.3467 15.6792 33.3239C13.9811 31.474 13.0514 29.0929 13.0419 26.5694C13.0419 23.8942 14.0759 21.3898 15.9637 19.502C17.6049 17.8608 19.7773 16.8457 22.0731 16.6276C22.111 16.6276 22.149 16.6181 22.1964 16.6086L34.5574 15.1287L33.0016 27.556Z" fill="#2B4CB9"/>
<path d="M19.5402 20.7542C19.3599 20.5739 19.1228 20.4791 18.8666 20.4791C18.62 20.4791 18.3733 20.5834 18.1931 20.7542C18.0128 20.9344 17.918 21.1716 17.918 21.4277C17.918 21.6839 18.0223 21.921 18.1931 22.1013C18.3733 22.2815 18.6105 22.3764 18.8666 22.3764C19.1133 22.3764 19.3599 22.272 19.5402 22.1013C19.7204 21.921 19.8153 21.6839 19.8153 21.4277C19.8153 21.1716 19.7204 20.9344 19.5402 20.7542Z" fill="#2B4CB9"/>
</svg>
