<svg width="40" height="40" viewBox="0 0 40 40" fill="none" xmlns="http://www.w3.org/2000/svg">
<path d="M26.0859 23.4934C25.9375 23.345 25.7422 23.2668 25.5312 23.2668C25.3203 23.2668 25.125 23.3528 24.9766 23.4934C24.8281 23.6418 24.75 23.8371 24.75 24.048C24.75 24.2512 24.8359 24.4543 24.9766 24.6027C25.125 24.7511 25.3203 24.8292 25.5312 24.8292C25.7422 24.8292 25.9375 24.7433 26.0859 24.6027C26.2344 24.4543 26.3125 24.259 26.3125 24.048C26.3125 23.8449 26.2266 23.6418 26.0859 23.4934Z" fill="#2B4CB9"/>
<path d="M36.0938 11.252H35.25L24.2344 0.229317C23.9219 -0.0753495 23.4297 -0.0753495 23.125 0.229317L20.3047 3.04943L9.00781 0.0262059C8.59375 -0.0831615 8.16406 0.159009 8.05469 0.580855L5.19531 11.252H3.28125C1.46875 11.252 0 12.7206 0 14.533C0 14.5799 0 14.6189 0 14.6658C0 14.6893 0 14.7127 0 14.7283V36.094C0 38.2501 1.75 40 3.90625 40H31.875C31.8906 40 31.8984 40 31.9141 40H36.0938C38.25 40 40 38.2501 40 36.094V15.158C40 13.0019 38.25 11.252 36.0938 11.252ZM35.3984 12.8144H36.0938C37.3828 12.8144 38.4375 13.869 38.4375 15.158V21.4153C38.4375 22.4387 37.6094 23.2668 36.5859 23.2668H35.7812V20.1576C35.7812 18.0328 34.0703 16.2985 31.9531 16.2516L35.3984 12.8144ZM21.0859 4.47902L23.6719 1.89326L33.8906 12.1113L29.7656 16.236H28.3359L30.2031 14.369C30.5078 14.0643 30.5078 13.5721 30.2031 13.2675C29.5703 12.6347 29.5703 11.6035 30.2031 10.9708C30.5078 10.6661 30.5078 10.1739 30.2031 9.86928L25.9219 5.58832C25.6172 5.28365 25.125 5.28365 24.8203 5.58832C24.1875 6.22109 23.1562 6.22109 22.5234 5.58832C22.2187 5.28365 21.7266 5.28365 21.4219 5.58832L10.7734 16.2282H9.34375L21.0859 4.47902ZM18.7891 13.2909C17.0078 13.2909 15.5078 14.5486 15.1484 16.2282H12.9844L22.0469 7.15852C23.0469 7.75223 24.3047 7.75223 25.3047 7.15852L28.6172 10.4708C28.0234 11.4707 28.0234 12.7285 28.6172 13.7284L26.125 16.2204H22.4219C22.0703 14.5486 20.5703 13.2909 18.7891 13.2909ZM20.8047 16.2282H16.7734C17.0938 15.4236 17.875 14.8533 18.7891 14.8533C19.7031 14.8533 20.4844 15.4236 20.8047 16.2282ZM8.51562 14.8377L10.5859 7.11946C11.1562 7.12728 11.7188 6.98666 12.2266 6.68981C12.7344 6.40076 13.1406 5.98673 13.4141 5.48677L16.9297 6.43201L11.8281 11.5332L8.51562 14.8377ZM9.35938 1.73703L19.0234 4.32278L18.2031 5.15866L13.1562 3.80719C12.9531 3.75251 12.7422 3.78376 12.5625 3.88531C12.3828 3.98687 12.25 4.15873 12.1953 4.36184C12.0859 4.78369 11.8125 5.12742 11.4375 5.34615C11.0625 5.56489 10.625 5.61957 10.2031 5.5102C9.78906 5.40083 9.35938 5.643 9.25 6.06485L6.52344 16.2516H5.47656L9.35938 1.73703ZM3.28125 12.8144H4.77344L3.85156 16.2516H3.28125C2.33594 16.2516 1.5625 15.4783 1.5625 14.533C1.5625 13.5878 2.33594 12.8144 3.28125 12.8144ZM38.4375 36.094C38.4375 37.383 37.3828 38.4376 36.0938 38.4376H35C35.4922 37.7814 35.7812 36.9768 35.7812 36.094V32.9536H36.25C37.0625 32.9536 37.8203 32.688 38.4375 32.2505V36.094ZM38.4375 29.2039C38.4375 30.4069 37.4531 31.3912 36.25 31.3912H19.8438C18.0312 31.3912 16.5625 29.9226 16.5625 28.1102C16.5625 26.2978 18.0312 24.8292 19.8438 24.8292H22.2109C22.6406 24.8292 22.9922 24.4776 22.9922 24.048C22.9922 23.6183 22.6406 23.2668 22.2109 23.2668H19.8438C17.1719 23.2668 15 25.4385 15 28.1102C15 30.7819 17.1719 32.9536 19.8438 32.9536H34.2188V36.094C34.2188 37.3752 33.1875 38.422 31.9141 38.4376H5.3125V29.6413C5.3125 29.2117 4.96094 28.8601 4.53125 28.8601C4.10156 28.8601 3.75 29.2117 3.75 29.6413V38.4298C2.53125 38.3517 1.5625 37.3283 1.5625 36.094V17.3219C2.0625 17.6344 2.64844 17.8062 3.28125 17.8062H31.875C33.1641 17.8062 34.2188 18.8608 34.2188 20.1498V23.259H28.5703C28.1406 23.259 27.7891 23.6105 27.7891 24.0402C27.7891 24.4698 28.1406 24.8214 28.5703 24.8214H36.5859C37.2656 24.8214 37.9062 24.6183 38.4375 24.2745V29.2039Z" fill="#2B4CB9"/>
<path d="M5.08594 26.04C4.9375 25.8916 4.74219 25.8135 4.53125 25.8135C4.32031 25.8135 4.125 25.8994 3.97656 26.04C3.82813 26.1806 3.75 26.3837 3.75 26.5947C3.75 26.8056 3.83594 27.0009 3.97656 27.1493C4.125 27.2977 4.32031 27.3759 4.53125 27.3759C4.74219 27.3759 4.9375 27.2899 5.08594 27.1493C5.23437 27.0009 5.3125 26.8056 5.3125 26.5947C5.3125 26.3916 5.22656 26.1885 5.08594 26.04Z" fill="#2B4CB9"/>
</svg>
