<svg width="59" height="60" viewBox="0 0 59 60" fill="none" xmlns="http://www.w3.org/2000/svg">
<path d="M55.2528 29.9774L52.6179 29.648C51.8116 27.6832 50.6645 25.866 49.2335 24.2988L51.1756 16.0761C51.2551 15.7354 51.1756 15.3833 50.9598 15.1108C50.744 14.8382 50.4146 14.6792 50.0739 14.6792H49.8241C46.5986 14.6792 43.7025 16.7008 42.5555 19.6764C41.7491 19.3584 40.92 19.0858 40.0682 18.8927C39.4549 18.7451 38.8416 19.1312 38.7054 19.7332C38.5577 20.3464 38.9439 20.9597 39.5458 21.096C42.4419 21.7775 45.02 23.2425 47.0529 25.2755C47.1324 25.389 47.2233 25.4799 47.3255 25.5594C48.8019 27.1153 49.9831 28.9779 50.7326 31.0676C50.8803 31.4651 51.2324 31.7491 51.6639 31.8059L54.9802 32.2261C55.5027 32.2942 55.8888 32.7372 55.8888 33.2596V38.9836C55.8888 39.506 55.5027 39.949 54.9802 40.0171L51.9138 40.4033C51.4709 40.4601 51.1074 40.7667 50.9711 41.1869C50.0626 44.0944 48.3363 46.6724 45.9626 48.6259C45.7014 48.8417 45.5538 49.1597 45.5538 49.5004V55.7809C45.5538 56.3488 45.0995 56.8031 44.5316 56.8031H37.9444C37.3766 56.8031 36.9223 56.3488 36.9223 55.7809V53.3846C36.9223 52.7599 36.4112 52.2488 35.7866 52.2488H26.2465C25.6219 52.2488 25.1108 52.7599 25.1108 53.3846V55.7809C25.1108 56.3488 24.6565 56.8031 24.0886 56.8031H17.5015C16.9336 56.8031 16.4793 56.3488 16.4793 55.7809V51.3516C16.4793 50.9314 16.2522 50.5566 15.8887 50.3522C10.778 47.581 7.60933 42.2658 7.60933 36.4737C7.60933 27.7741 14.6849 20.6872 23.3958 20.6872H24.8155C25.4401 20.6872 25.9512 20.1761 25.9512 19.5514C25.9512 18.9268 25.4401 18.4157 24.8155 18.4157H23.3958C14.9688 18.4157 7.87054 24.2193 5.89439 32.0444H5.06531C3.52073 32.0444 2.27144 30.8064 2.27144 29.2618C2.27144 27.7173 3.52073 26.4793 5.05396 26.4793C5.6786 26.4793 6.18968 25.9683 6.18968 25.3436C6.18968 24.719 5.6786 24.2079 5.05396 24.2079C2.27144 24.2079 0 26.4793 0 29.2618C0 32.0444 2.27144 34.3158 5.05396 34.3158H5.46282C5.38332 35.02 5.33789 35.7355 5.33789 36.4623C5.33789 42.8564 8.71098 48.7508 14.1965 51.999V55.7809C14.1965 57.5981 15.6729 59.0745 17.4901 59.0745H24.0773C25.8944 59.0745 27.3709 57.5981 27.3709 55.7809V54.5203H34.6395V55.7809C34.6395 57.5981 36.1159 59.0745 37.9331 59.0745H44.5202C46.3374 59.0745 47.8138 57.5981 47.8138 55.7809V50.0228C50.1194 47.9899 51.857 45.4345 52.8905 42.5611L55.2528 42.2658C56.8996 42.0614 58.1489 40.6531 58.1489 38.9836V33.2596C58.1489 31.6014 56.8996 30.1818 55.2528 29.9774ZM47.3141 22.493C46.4623 21.8002 45.5538 21.1869 44.5998 20.6644C45.2244 18.8587 46.7576 17.5185 48.5861 17.0983L47.3141 22.493Z" fill="#2B4CB9"/>
<path d="M45.2131 29.7615C44.9973 29.5457 44.7134 29.4321 44.4067 29.4321C44.1001 29.4321 43.8161 29.5571 43.6004 29.7615C43.3846 29.9773 43.271 30.2612 43.271 30.5678C43.271 30.8745 43.3959 31.1584 43.6004 31.3742C43.8161 31.59 44.1001 31.7036 44.4067 31.7036C44.7134 31.7036 44.9973 31.5786 45.2131 31.3742C45.4289 31.1584 45.5424 30.8745 45.5424 30.5678C45.5424 30.2612 45.4175 29.9773 45.2131 29.7615Z" fill="#2B4CB9"/>
<path d="M33.2993 7.54681C32.6746 7.54681 32.1636 8.05789 32.1636 8.68254V13.1913C32.1636 13.816 32.6746 14.3271 33.2993 14.3271C33.9239 14.3271 34.435 13.816 34.435 13.1913V8.68254C34.435 8.05789 33.9353 7.54681 33.2993 7.54681Z" fill="#2B4CB9"/>
<path d="M34.1057 3.76484C33.8899 3.54906 33.6059 3.43549 33.2993 3.43549C33.004 3.43549 32.7087 3.56042 32.4929 3.76484C32.2771 3.98063 32.1636 4.26456 32.1636 4.57121C32.1636 4.86649 32.2885 5.16178 32.4929 5.37757C32.7087 5.59335 32.9927 5.70693 33.2993 5.70693C33.5946 5.70693 33.8899 5.582 34.1057 5.37757C34.3214 5.16178 34.435 4.87785 34.435 4.57121C34.435 4.26456 34.3214 3.98063 34.1057 3.76484Z" fill="#2B4CB9"/>
<path d="M24.0776 0.925537C23.453 0.925537 22.9419 1.43661 22.9419 2.06126V3.99198C22.9419 4.61663 23.453 5.1277 24.0776 5.1277C24.7023 5.1277 25.2133 4.61663 25.2133 3.99198V2.06126C25.2133 1.43661 24.7023 0.925537 24.0776 0.925537Z" fill="#2B4CB9"/>
<path d="M12.936 36.4736C12.936 35.849 12.4249 35.3379 11.8003 35.3379C11.1756 35.3379 10.6646 35.849 10.6646 36.4736V36.5304C10.6646 37.155 11.1756 37.6548 11.8003 37.6548C11.8003 37.6548 11.8003 37.6548 11.8116 37.6548C12.4363 37.6548 12.9473 37.1437 12.936 36.5077V36.4736Z" fill="#2B4CB9"/>
<path d="M17.9668 45.4118C15.9907 44.2079 14.4461 42.368 13.6284 40.2102C13.4012 39.6196 12.7425 39.3357 12.1633 39.5515C11.5727 39.7786 11.2888 40.4373 11.5046 41.0165C12.504 43.6287 14.378 45.8774 16.7857 47.3425C16.9674 47.4561 17.1718 47.5129 17.3763 47.5129C17.7624 47.5129 18.1372 47.3198 18.353 46.9677C18.671 46.4339 18.5006 45.7298 17.9668 45.4118Z" fill="#2B4CB9"/>
<path d="M24.0772 6.38837C21.4423 6.38837 19.3071 8.52352 19.3071 11.1584C19.3071 13.7933 21.4423 15.9284 24.0772 15.9284C26.712 15.9284 28.8472 13.7933 28.8472 11.1584C28.8472 8.52352 26.712 6.38837 24.0772 6.38837ZM24.0772 13.657C22.7029 13.657 21.5786 12.5326 21.5786 11.1584C21.5786 9.78417 22.7029 8.65981 24.0772 8.65981C25.4514 8.65981 26.5757 9.78417 26.5757 11.1584C26.5757 12.5326 25.4514 13.657 24.0772 13.657Z" fill="#2B4CB9"/>
<path d="M38.3874 25.0028H37.3652C37.8195 24.2759 38.0694 23.4242 38.0694 22.5042C38.0694 19.8693 35.9342 17.7342 33.2994 17.7342C30.6645 17.7342 28.5293 19.8693 28.5293 22.5042C28.5293 23.4242 28.7906 24.2759 29.2335 25.0028H23.623C22.9984 25.0028 22.4873 25.5139 22.4873 26.1385C22.4873 26.7632 22.9984 27.2742 23.623 27.2742H38.3874C39.012 27.2742 39.5231 26.7632 39.5231 26.1385C39.5231 25.5139 39.012 25.0028 38.3874 25.0028ZM33.2994 25.0028C31.9251 25.0028 30.8008 23.8784 30.8008 22.5042C30.8008 21.13 31.9251 20.0056 33.2994 20.0056C34.6736 20.0056 35.798 21.13 35.798 22.5042C35.798 23.8784 34.6849 25.0028 33.2994 25.0028Z" fill="#2B4CB9"/>
</svg>
