<svg width="65" height="49" viewBox="0 0 65 49" fill="none" xmlns="http://www.w3.org/2000/svg">
<path d="M63.856 11.0476C63.856 11.0476 63.2282 6.31247 61.2983 4.22764C58.8492 1.49484 56.1064 1.47874 54.8486 1.32378C45.8392 0.625489 32.3261 0.625488 32.3261 0.625488H32.2959C32.2959 0.625488 18.7828 0.625489 9.77539 1.32378C8.51765 1.47874 5.77679 1.49484 3.32572 4.22764C1.39786 6.31247 0.767984 11.0476 0.767984 11.0476C0.767984 11.0476 0.124023 16.6038 0.124023 22.1599V27.368C0.124023 32.9282 0.767984 38.4823 0.767984 38.4823C0.767984 38.4823 1.39585 43.2154 3.32572 45.2962C5.77679 48.0291 8.99056 47.9465 10.4234 48.2323C15.573 48.7595 32.312 48.9225 32.312 48.9225C32.312 48.9225 45.8392 48.8984 54.8486 48.2082C56.1064 48.0472 58.8492 48.0311 61.2983 45.2983C63.2262 43.2175 63.856 38.4843 63.856 38.4843C63.856 38.4843 64.5 32.9282 64.5 27.37V22.162C64.5 16.6038 63.856 11.0476 63.856 11.0476Z" fill="#E02F2F"/>
<path d="M24.2726 12.6997V36.8482L44.3964 24.774L24.2726 12.6997Z" fill="white"/>
</svg>
