<svg width="42" height="42" viewBox="0 0 42 42" fill="none" xmlns="http://www.w3.org/2000/svg">
<path d="M31.5001 23.625V4.37497C31.4973 1.95997 29.5401 0.00287109 27.1251 0H7.87503C7.64296 8.20313e-05 7.42049 0.0922852 7.25643 0.256348L0.256349 7.2564C0.0922855 7.42046 0 7.64302 0 7.875V37.625C0.00287111 40.04 1.95998 41.9971 4.37499 42H27.1251C29.5401 41.9971 31.4972 40.04 31.5 37.625V35.8751H29.7501V37.625C29.7501 39.0748 28.5748 40.25 27.1251 40.25H4.37499C2.92525 40.25 1.74998 39.0748 1.74998 37.625V8.23725L8.23728 1.74997H27.1251C28.5749 1.74997 29.7501 2.92523 29.7501 4.37497V23.625H31.5001Z" fill="#2B4CB9"/>
<path d="M7.00001 0.875061V6.12506C7.00001 6.60831 6.60823 7.00009 6.12498 7.00009H4.375V8.75006H6.12498C7.57472 8.75006 8.74999 7.5748 8.74999 6.12506V0.875061H7.00001Z" fill="#2B4CB9"/>
<path d="M41.7438 21.0542L39.3209 18.6314C38.9792 18.2898 38.4253 18.2898 38.0836 18.6314L24.7564 31.9585C24.4148 32.3002 24.4148 32.854 24.7564 33.1958L27.1793 35.6186C27.3434 35.7828 27.5659 35.875 27.7979 35.875C28.03 35.8749 28.2525 35.7827 28.4165 35.6186L41.7437 22.2915C42.0854 21.9499 42.0854 21.396 41.7438 21.0542ZM27.7979 33.7628L26.6123 32.5772L38.7022 20.4873L39.8878 21.6729L27.7979 33.7628Z" fill="#2B4CB9"/>
<path d="M26.25 34.125V32.3751H24.5V35.0001C24.5 35.4833 24.8918 35.8751 25.375 35.8751H28V34.125H26.25Z" fill="#2B4CB9"/>
<path d="M25.375 3.50006H23.625V5.25003H25.375C25.8582 5.25003 26.25 5.64181 26.25 6.12506V7.87503H28V6.12506C28.0001 4.67532 26.8248 3.50006 25.375 3.50006Z" fill="#2B4CB9"/>
<path d="M22.75 12.2499H8.75003C8.26678 12.2499 7.875 12.6417 7.875 13.125V25.3749C7.87435 25.7095 8.06449 26.0152 8.36498 26.1624L14.4507 29.1375C14.8505 29.3658 15.3027 29.4865 15.7632 29.4875C16.1974 29.4903 16.6248 29.3796 17.0031 29.1663L23.1351 26.1624C23.4356 26.0152 23.6258 25.7095 23.6251 25.3749V13.125C23.6251 12.6417 23.2333 12.2499 22.75 12.2499ZM21.8751 24.8289L16.1841 27.6193C15.8961 27.7766 15.5456 27.7665 15.267 27.5931L9.62498 24.8289V14H21.875V24.8289H21.8751Z" fill="#2B4CB9"/>
<path d="M19.5065 17.0143L14.875 21.6457L12.8686 19.6393L11.6313 20.8766L14.2564 23.5016C14.4204 23.6657 14.643 23.758 14.875 23.758C15.107 23.7579 15.3295 23.6657 15.4936 23.5016L20.7436 18.2516L19.5065 17.0143Z" fill="#2B4CB9"/>
<path d="M17.5003 34.125C17.017 34.125 16.6252 33.7332 16.6252 33.25V31.5H14.8752V33.25C14.8752 34.6997 16.0505 35.875 17.5003 35.875H22.7503V34.125H17.5003Z" fill="#2B4CB9"/>
<path d="M21.8752 3.50006H20.1252V5.25003H21.8752V3.50006Z" fill="#2B4CB9"/>
</svg>
