<svg width="44" height="49" viewBox="0 0 44 49" fill="none" xmlns="http://www.w3.org/2000/svg">
<path d="M16.873 29.4651C16.5546 29.4637 16.2497 29.3361 16.0252 29.1103L7.27039 20.3675C7.04474 20.1419 6.91797 19.8358 6.91797 19.5167C6.91797 19.1976 7.04474 18.8916 7.27039 18.6659C7.49604 18.4402 7.8021 18.3135 8.12122 18.3135C8.44034 18.3135 8.74639 18.4402 8.97204 18.6659L17.7208 27.4147C17.888 27.5828 18.0017 27.7967 18.0477 28.0293C18.0937 28.2619 18.0699 28.5029 17.9793 28.722C17.8887 28.9411 17.7353 29.1286 17.5385 29.2608C17.3416 29.393 17.1101 29.4641 16.873 29.4651Z" fill="#2B4CB9"/>
<path d="M36.8909 48.123C36.3022 48.1267 35.7186 48.0139 35.1737 47.7909C34.6288 47.568 34.1335 47.2395 33.7161 46.8243L23.4942 36.6925C23.267 36.4685 23.138 36.1633 23.1358 35.8442C23.1335 35.5251 23.2581 35.2181 23.4822 34.9909C23.7062 34.7636 24.0114 34.6347 24.3305 34.6324C24.6496 34.6302 24.9566 34.7548 25.1838 34.9788L35.4118 45.0986C35.8084 45.4803 36.3374 45.6936 36.8879 45.6936C37.4384 45.6936 37.9675 45.4803 38.3641 45.0986C38.754 44.7074 38.973 44.1777 38.973 43.6254C38.973 43.0731 38.754 42.5433 38.3641 42.1522L29.0321 32.8262C28.8064 32.6006 28.6797 32.2945 28.6797 31.9754C28.6797 31.6563 28.8064 31.3502 29.0321 31.1246C29.2577 30.8989 29.5638 30.7722 29.8829 30.7722C30.202 30.7722 30.5081 30.8989 30.7337 31.1246L40.0657 40.4566C40.6934 41.0848 41.1208 41.8849 41.2939 42.7558C41.467 43.6268 41.3781 44.5295 41.0383 45.3499C40.6985 46.1704 40.1232 46.8717 39.385 47.3653C38.6469 47.8588 37.7789 48.1225 36.8909 48.123Z" fill="#2B4CB9"/>
<path d="M19.5014 22.5923C19.1897 22.5926 18.8901 22.4719 18.6656 22.2556L18.2207 21.8227L15.6472 19.2371L11.9492 15.7376C11.8343 15.629 11.742 15.4989 11.6774 15.3546C11.6128 15.2103 11.5772 15.0548 11.5727 14.8967C11.5683 14.7387 11.595 14.5814 11.6513 14.4337C11.7077 14.286 11.7925 14.1508 11.9011 14.036C12.0097 13.9211 12.1398 13.8287 12.2841 13.7641C12.4284 13.6995 12.584 13.6639 12.742 13.6595C12.9 13.655 13.0573 13.6817 13.205 13.7381C13.3527 13.7944 13.4879 13.8793 13.6028 13.9878L17.3248 17.5054L20.3312 20.5118C20.5039 20.6783 20.6229 20.8926 20.6728 21.1271C20.7228 21.3617 20.7015 21.6059 20.6116 21.8282C20.5218 22.0506 20.3675 22.241 20.1686 22.375C19.9697 22.5091 19.7352 22.5805 19.4954 22.5803L19.5014 22.5923Z" fill="#2B4CB9"/>
<path d="M17.421 13.7534C17.1026 13.752 16.7977 13.6244 16.5732 13.3986L14.8114 11.6368C14.6997 11.5251 14.611 11.3924 14.5506 11.2465C14.4901 11.1005 14.459 10.944 14.459 10.786C14.459 10.628 14.4901 10.4715 14.5506 10.3255C14.611 10.1796 14.6997 10.0469 14.8114 9.93518C15.0371 9.70952 15.3431 9.58275 15.6622 9.58275C15.8202 9.58275 15.9767 9.61388 16.1227 9.67435C16.2687 9.73481 16.4013 9.82344 16.5131 9.93518L17.427 10.8491L19.2309 9.04527L13.3563 3.17067L11.5524 4.97454L14.3785 7.92086C14.5993 8.15129 14.7196 8.46003 14.7129 8.77915C14.7061 9.09827 14.5728 9.40164 14.3424 9.62251C14.112 9.84337 13.8032 9.96366 13.4841 9.95689C13.165 9.95012 12.8616 9.81686 12.6407 9.58643L9.00295 5.78628C8.7826 5.56148 8.65918 5.25925 8.65918 4.94447C8.65918 4.62969 8.7826 4.32746 9.00295 4.10267L12.4904 0.615186C12.7204 0.397834 13.0248 0.276733 13.3412 0.276733C13.6577 0.276733 13.9621 0.397834 14.1921 0.615186L21.7683 8.19144C21.8801 8.30312 21.9688 8.43575 22.0294 8.58174C22.0899 8.72774 22.121 8.88422 22.121 9.04226C22.121 9.2003 22.0899 9.35679 22.0294 9.50278C21.9688 9.64877 21.8801 9.7814 21.7683 9.89309L18.2808 13.3806C18.1698 13.4971 18.0364 13.5901 17.8887 13.6542C17.741 13.7182 17.582 13.7519 17.421 13.7534Z" fill="#2B4CB9"/>
<path d="M3.70492 15.8398C3.4682 15.8412 3.23632 15.7728 3.03835 15.643C2.84037 15.5132 2.68511 15.3278 2.59202 15.1102C2.49892 14.8925 2.47213 14.6522 2.51501 14.4194C2.55789 14.1866 2.66852 13.9716 2.83305 13.8014L10.2169 6.12297C10.3241 6.00087 10.455 5.90178 10.6016 5.83167C10.7482 5.76156 10.9075 5.72189 11.0698 5.71505C11.2322 5.70822 11.3943 5.73436 11.5462 5.7919C11.6982 5.84943 11.8369 5.93718 11.9541 6.04982C12.0712 6.16247 12.1643 6.29769 12.2277 6.44731C12.2911 6.59693 12.3235 6.75785 12.323 6.92035C12.3225 7.08285 12.2891 7.24356 12.2247 7.39278C12.1604 7.542 12.0664 7.67663 11.9486 7.78854L4.57078 15.467C4.459 15.5843 4.32469 15.6777 4.1759 15.7418C4.02711 15.8058 3.86692 15.8392 3.70492 15.8398Z" fill="#2B4CB9"/>
<path d="M12.773 16.0684C12.5532 16.0677 12.3377 16.0067 12.1501 15.8921C11.9624 15.7776 11.8098 15.6137 11.7087 15.4185C11.6077 15.2232 11.5621 15.004 11.577 14.7846C11.5918 14.5653 11.6665 14.3542 11.7929 14.1743L14.6791 10.0855C14.8625 9.82241 15.1429 9.64291 15.4586 9.58653C15.7744 9.53014 16.0996 9.6015 16.3627 9.78489C16.6258 9.96828 16.8053 10.2487 16.8617 10.5644C16.9181 10.8802 16.8467 11.2054 16.6634 11.4685L13.7531 15.5573C13.6425 15.7146 13.4958 15.8432 13.3253 15.9321C13.1547 16.021 12.9653 16.0678 12.773 16.0684Z" fill="#2B4CB9"/>
<path d="M4.8659 26.2963C4.55459 26.2918 4.25714 26.1668 4.03612 25.9475C-2.57807 19.3334 2.83354 13.8436 2.87563 13.7834C3.10402 13.5758 3.40353 13.4638 3.71216 13.4709C4.02078 13.4779 4.31488 13.6034 4.53355 13.8213C4.75222 14.0392 4.87873 14.3329 4.88687 14.6415C4.89501 14.95 4.78416 15.25 4.57728 15.4791C4.18644 15.8819 0.969539 19.4716 5.73777 24.2459C5.90493 24.414 6.01866 24.6279 6.06465 24.8605C6.11063 25.0931 6.08683 25.3341 5.99622 25.5532C5.90562 25.7724 5.75226 25.9598 5.55542 26.092C5.35859 26.2242 5.12706 26.2953 4.88995 26.2963H4.8659Z" fill="#2B4CB9"/>
<path d="M11.0589 48.2734C10.0891 48.2739 9.12599 48.1134 8.20879 47.7984L7.04229 47.4256C6.84902 47.3592 6.67586 47.2446 6.53915 47.0927C6.40245 46.9408 6.30671 46.7566 6.26098 46.5574C6.21524 46.3582 6.22102 46.1507 6.27777 45.9543C6.33452 45.758 6.44036 45.5794 6.58531 45.4353L11.9608 40.0598L10.157 38.2559L4.78144 43.6315C4.6365 43.7666 4.46041 43.8638 4.26883 43.9145C4.07725 43.9651 3.87612 43.9677 3.68332 43.9219C3.49053 43.876 3.31204 43.7833 3.16374 43.6519C3.01543 43.5204 2.90191 43.3544 2.83326 43.1685L2.42438 42.014C1.97551 40.7077 1.84013 39.3141 2.02919 37.9458C2.21824 36.5774 2.72643 35.2728 3.51272 34.1371L4.11401 33.2352C4.87777 32.1434 5.87891 31.2389 7.04229 30.5895L7.16255 30.5233C8.8084 29.6054 10.7043 29.2368 12.5742 29.4711L14.1916 29.6815L24.8224 19.0568L24.612 17.3972C24.3716 15.5578 24.7233 13.6898 25.6161 12.0638C26.2615 10.8705 27.173 9.84175 28.2798 9.05731L29.29 8.38386C30.4258 7.59071 31.7326 7.07662 33.1044 6.88334C34.4762 6.69006 35.8742 6.82304 37.1849 7.27147L38.3394 7.66833C38.5327 7.73473 38.7059 7.8493 38.8426 8.0012C38.9793 8.15311 39.075 8.33735 39.1207 8.53653C39.1665 8.73571 39.1607 8.94326 39.1039 9.13958C39.0472 9.33591 38.9413 9.51453 38.7964 9.6586L33.4209 15.0341L35.2247 16.838L40.6003 11.4625C40.7444 11.3189 40.9226 11.2143 41.1182 11.1584C41.3138 11.1025 41.5204 11.0971 41.7186 11.1428C41.9169 11.1884 42.1003 11.2836 42.2517 11.4195C42.4032 11.5553 42.5177 11.7273 42.5845 11.9194L42.9453 12.9717C43.3979 14.3139 43.5298 15.7434 43.3303 17.1458C43.1309 18.5481 42.6057 19.8842 41.7968 21.047L41.2797 21.7926C40.3379 23.1536 39.0397 24.2292 37.5273 24.9016C36.015 25.574 34.3467 25.8173 32.7053 25.6048L31.172 25.4064L24.3775 32.207L20.9862 35.4419L20.5593 35.953L20.7818 37.6787C21.0221 39.518 20.6704 41.3861 19.7776 43.0121C19.1324 44.2056 18.2209 45.2343 17.1139 46.0186L16.1158 46.7161C14.6297 47.7415 12.8643 48.2852 11.0589 48.2734ZM9.69398 45.7179C10.5567 45.907 11.4493 45.9154 12.3155 45.7426C13.1816 45.5698 14.0026 45.2195 14.7268 44.7138L15.7249 44.0163C16.5273 43.4522 17.1896 42.7117 17.6611 41.8517C18.3088 40.671 18.5637 39.3146 18.3886 37.9793L18.1 35.7305C18.0779 35.5649 18.0905 35.3965 18.1371 35.236C18.1837 35.0755 18.2632 34.9265 18.3706 34.7985L19.1763 33.8304L19.2725 33.7282L22.6758 30.4873L29.8913 23.2718C30.0213 23.1417 30.1794 23.0431 30.3535 22.9837C30.5276 22.9243 30.713 22.9056 30.8955 22.9291L33.018 23.1996C34.222 23.3557 35.4457 23.1774 36.5551 22.6842C37.6645 22.191 38.6167 21.402 39.3075 20.4036L39.8246 19.658C40.3358 18.919 40.692 18.084 40.8718 17.2036C41.0516 16.3231 41.0513 15.4154 40.8708 14.5351L36.0605 19.3454C35.9488 19.4572 35.8162 19.5459 35.6702 19.6064C35.5242 19.6669 35.3677 19.6981 35.2097 19.6981C35.0517 19.6981 34.8952 19.6669 34.7492 19.6064C34.6032 19.5459 34.4706 19.4572 34.3589 19.3454L30.8714 15.8579C30.7596 15.7462 30.6709 15.6136 30.6104 15.4676C30.5498 15.3216 30.5187 15.1651 30.5187 15.0071C30.5187 14.849 30.5498 14.6925 30.6104 14.5466C30.6709 14.4006 30.7596 14.2679 30.8714 14.1562L35.6817 9.34592C34.819 9.15647 33.9263 9.14788 33.0601 9.32071C32.1939 9.49354 31.3729 9.84404 30.6489 10.3501L29.6508 11.0476C28.8484 11.6116 28.1861 12.3522 27.7146 13.2122C27.0672 14.393 26.8124 15.7492 26.9871 17.0845L27.2757 19.3333C27.3048 19.5201 27.2894 19.711 27.2309 19.8907C27.1724 20.0704 27.0724 20.2338 26.939 20.3676L15.5145 31.7921C15.3844 31.9222 15.2263 32.0208 15.0522 32.0802C14.8781 32.1396 14.6927 32.1583 14.5103 32.1348L12.3036 31.8522C10.9449 31.6814 9.56714 31.9489 8.37114 32.6158L8.25088 32.682C7.40701 33.1547 6.6813 33.8125 6.12833 34.6061L5.52704 35.508C5.02626 36.2332 4.6807 37.0541 4.51205 37.9191C4.34339 38.7841 4.35527 39.6746 4.54694 40.5348L9.35725 35.7245C9.46894 35.6127 9.60157 35.524 9.74756 35.4635C9.89355 35.403 10.05 35.3718 10.2081 35.3718C10.3661 35.3718 10.5226 35.403 10.6686 35.4635C10.8146 35.524 10.9472 35.6127 11.0589 35.7245L14.5464 39.212C14.6582 39.3237 14.7469 39.4563 14.8074 39.6023C14.8679 39.7483 14.8991 39.9048 14.8991 40.0628C14.8991 40.2208 14.8679 40.3773 14.8074 40.5233C14.7469 40.6693 14.6582 40.8019 14.5464 40.9136L9.69398 45.7179Z" fill="#2B4CB9"/>
</svg>
