<svg width="50" height="50" viewBox="0 0 50 50" fill="none" xmlns="http://www.w3.org/2000/svg">
<path d="M49.2737 23.1321L41.6216 15.69V6.48012C41.6216 5.94296 41.1829 5.50347 40.6468 5.50347H36.5819C36.0458 5.50347 35.6071 5.94296 35.6071 6.48012V9.84959L25.752 0.278347C25.3718 -0.0927825 24.7772 -0.0927825 24.397 0.278347L0.875299 23.1321C0.660845 23.347 0.553618 23.64 0.582861 23.9428C0.612105 24.2455 0.787568 24.5092 1.05076 24.6655L4.26757 26.6188C4.64774 26.8532 5.13514 26.7946 5.45682 26.4821L6.92875 25.0464V49.0233C6.92875 49.5605 7.36741 50 7.90354 50H42.2552C42.7913 50 43.23 49.5605 43.23 49.0233V25.0366L44.7019 26.4723C44.8871 26.6579 45.1308 26.7458 45.3843 26.7458C45.5597 26.7458 45.7352 26.6969 45.8912 26.609L49.108 24.6557C49.3712 24.4995 49.5369 24.2358 49.5759 23.933C49.5954 23.64 49.4881 23.3372 49.2737 23.1321ZM37.5567 7.45678H39.672V13.7953L39.516 13.639L37.5567 11.7345V7.45678ZM41.2706 48.0467H8.87833V23.1321L16.2283 15.9342H25.6545C26.1906 15.9342 26.6293 15.4947 26.6293 14.9575C26.6293 14.4204 26.1906 13.9809 25.6545 13.9809H18.2266L25.0794 7.28098L36.309 18.2782H20.0592C19.5231 18.2782 19.0844 18.7176 19.0844 19.2548C19.0844 19.792 19.5231 20.2315 20.0592 20.2315H38.3073L41.2804 23.1321L41.2706 48.0467ZM45.5207 24.5483L25.7617 5.21047C25.713 5.16164 25.6642 5.12257 25.6058 5.09327C25.4498 4.98584 25.2646 4.93701 25.0794 4.93701C24.8942 4.93701 24.7089 4.98584 24.553 5.09327C24.5042 5.13234 24.4457 5.1714 24.397 5.21047L4.63799 24.5483L3.14656 23.6498L25.0794 2.32933L47.0122 23.6498L45.5207 24.5483Z" fill="#2B4CB9"/>
<path d="M30.0317 14.7719C30.0219 14.7133 30.0024 14.645 29.9732 14.5864C29.9439 14.5278 29.9147 14.4692 29.8854 14.4203C29.8464 14.3617 29.8074 14.3129 29.7685 14.2738C29.7295 14.2348 29.671 14.1859 29.6222 14.1566C29.5735 14.1176 29.515 14.0883 29.4565 14.0687C29.398 14.0394 29.3395 14.0297 29.2713 14.0101C29.1446 13.9808 29.0179 13.9808 28.8911 14.0101C28.8327 14.0199 28.7644 14.0394 28.7059 14.0687C28.6474 14.098 28.589 14.1273 28.5402 14.1566C28.4915 14.1957 28.433 14.2348 28.394 14.2738C28.355 14.3129 28.3063 14.3715 28.2673 14.4203C28.2283 14.4692 28.199 14.5278 28.1795 14.5864C28.1503 14.645 28.1406 14.7036 28.1211 14.7719C28.1016 14.8403 28.1016 14.8989 28.1016 14.9575C28.1016 15.0259 28.1113 15.0845 28.1211 15.1528C28.1308 15.2114 28.1503 15.2798 28.1795 15.3384C28.2088 15.397 28.238 15.4556 28.2673 15.5044C28.3063 15.563 28.3453 15.6119 28.394 15.6509C28.4427 15.6998 28.4915 15.7388 28.5402 15.7779C28.589 15.817 28.6474 15.8463 28.7059 15.8658C28.7644 15.8951 28.8229 15.9049 28.8911 15.9244C28.9496 15.9342 29.0179 15.9439 29.0861 15.9439C29.1543 15.9439 29.2128 15.9342 29.2811 15.9244C29.3493 15.9146 29.4078 15.8951 29.4663 15.8658C29.5248 15.8365 29.5832 15.8072 29.632 15.7779C29.6807 15.7388 29.7392 15.6998 29.7782 15.6509C29.8269 15.6021 29.8659 15.5533 29.8952 15.5044C29.9342 15.4556 29.9634 15.397 29.9829 15.3384C30.0122 15.2798 30.0219 15.2212 30.0414 15.1528C30.0511 15.0942 30.0609 15.0259 30.0609 14.9575C30.0511 14.8989 30.0511 14.8305 30.0317 14.7719Z" fill="#2B4CB9"/>
<path d="M17.5834 19.0595C17.5737 19.0009 17.5542 18.9325 17.5249 18.8739C17.4957 18.8153 17.4664 18.7567 17.4372 18.7079C17.3982 18.6493 17.3592 18.6004 17.3202 18.5614C17.135 18.3758 16.8913 18.2781 16.6281 18.2781C16.3747 18.2781 16.1212 18.3856 15.936 18.5614C15.8873 18.6102 15.8483 18.659 15.819 18.7079C15.78 18.7567 15.7508 18.8153 15.7313 18.8739C15.7021 18.9325 15.6923 18.9911 15.6728 19.0595C15.6533 19.1278 15.6533 19.1864 15.6533 19.245C15.6533 19.3036 15.6631 19.372 15.6728 19.4404C15.6826 19.499 15.7021 19.5673 15.7313 19.6259C15.7605 19.6845 15.7898 19.7431 15.819 19.792C15.858 19.8506 15.897 19.8994 15.936 19.9385C15.975 19.9775 16.0335 20.0264 16.0822 20.0654C16.1407 20.1045 16.1895 20.1338 16.2479 20.1533C16.3064 20.1826 16.3649 20.1924 16.4332 20.2119C16.4916 20.2217 16.5599 20.2315 16.6281 20.2315C16.8816 20.2315 17.135 20.124 17.3202 19.9482C17.369 19.8994 17.4079 19.8506 17.4372 19.8017C17.4762 19.7529 17.5054 19.6943 17.5249 19.6357C17.5542 19.5771 17.5639 19.5185 17.5834 19.4501C17.5932 19.3915 17.6029 19.3232 17.6029 19.2548C17.6029 19.1864 17.6029 19.1181 17.5834 19.0595Z" fill="#2B4CB9"/>
<path d="M34.9438 24.8023C34.6611 24.6265 34.3102 24.5972 34.008 24.7339C33.2672 25.0757 32.4776 25.2515 31.6588 25.2515C29.7189 25.2515 27.9351 24.2749 26.892 22.6243C26.7166 22.3411 26.4046 22.175 26.0732 22.175H24.0846C23.7532 22.175 23.4413 22.3411 23.2658 22.6243C22.2228 24.2651 20.4389 25.2515 18.4991 25.2515C17.6803 25.2515 16.8907 25.0757 16.1498 24.7339C15.8476 24.5972 15.4967 24.6167 15.214 24.8023C14.9313 24.9781 14.7656 25.2906 14.7656 25.6226V36.3366C14.7656 38.8173 16.4715 41.3273 19.8345 43.7983C22.2228 45.5465 24.5818 46.6306 24.6793 46.6794C24.806 46.738 24.9424 46.7673 25.0789 46.7673C25.2154 46.7673 25.3519 46.738 25.4786 46.6794C25.5761 46.6306 27.9351 45.5562 30.3233 43.7983C33.6863 41.3273 35.3922 38.8173 35.3922 36.3366V25.6226C35.3922 25.2906 35.2265 24.9781 34.9438 24.8023ZM33.4426 36.3366C33.4426 39.8819 27.7401 43.4076 25.0789 44.7065C22.408 43.4076 16.7152 39.8916 16.7152 36.3366V26.99C17.2903 27.1267 17.8947 27.2048 18.4991 27.2048C20.9263 27.2048 23.1683 26.0621 24.6013 24.1284H25.5663C26.9993 26.0621 29.2413 27.2048 31.6685 27.2048C32.2729 27.2048 32.8772 27.1365 33.4524 26.99L33.4426 36.3366Z" fill="#2B4CB9"/>
<path d="M30.616 29.1093C28.8029 28.914 27.1068 28.2108 25.6933 27.0681C25.3326 26.7849 24.8258 26.7849 24.4748 27.0681C23.0614 28.2011 21.3555 28.914 19.5521 29.1093C19.055 29.1582 18.6846 29.5781 18.6846 30.0762V36.3269C18.6846 37.4109 19.9421 38.9931 22.0573 40.5558C22.8177 41.1222 23.6755 41.6789 24.6016 42.2063C24.7478 42.2942 24.9135 42.3333 25.0792 42.3333C25.2449 42.3333 25.4106 42.2942 25.5568 42.2063C26.4439 41.6985 27.2725 41.1711 28.0133 40.6241C30.1871 39.0322 31.4836 37.4207 31.4836 36.3269V30.0762C31.4836 29.5781 31.1034 29.1582 30.616 29.1093ZM29.534 36.2878C29.456 36.571 28.8321 37.616 26.8631 39.0615C26.3172 39.4619 25.7226 39.8526 25.0792 40.2432C24.4066 39.8428 23.773 39.4229 23.2076 39.0029C21.3068 37.5965 20.7024 36.571 20.6244 36.2976V30.9357C22.2328 30.6329 23.7437 29.9981 25.0792 29.0605C26.4147 29.9981 27.9353 30.6329 29.534 30.9357V36.2878Z" fill="#2B4CB9"/>
</svg>
