<svg width="47" height="37" viewBox="0 0 47 37" fill="none" xmlns="http://www.w3.org/2000/svg">
<path d="M12.9412 14.3114C16.3214 14.3114 19.0718 12.2688 19.0718 9.75828C19.0718 7.24777 16.3214 5.2052 12.9412 5.2052C9.561 5.2052 6.81055 7.24777 6.81055 9.75828C6.81055 12.2688 9.561 14.3114 12.9412 14.3114ZM12.9412 6.87442C15.346 6.87442 17.3775 8.19478 17.3775 9.75828C17.3775 11.3218 15.3454 12.6421 12.9412 12.6421C10.5369 12.6421 8.50487 11.3218 8.50487 9.75828C8.50487 8.19478 10.5364 6.87442 12.9412 6.87442Z" fill="#2B4CB9"/>
<path d="M25.8656 17.8473V9.75828C25.8656 4.37726 20.0676 0 12.9413 0C5.81492 0 0.0169431 4.37726 0.0169431 9.75828C0.0169431 9.86789 0.0248503 9.97583 0.0299333 10.0843H0V14.8138H0.0169431V28.729C0.0169431 33.2893 3.78286 37 8.41176 37H47V17.8473H25.8656ZM25.625 17.8473H25.5402C25.5702 17.824 25.5979 17.8301 25.625 17.8473ZM24.4971 17.8473H24.4124C24.4389 17.8301 24.4666 17.824 24.4971 17.8473ZM12.9413 1.66922C19.1334 1.66922 24.1712 5.29756 24.1712 9.75828C24.1712 14.219 19.1334 17.8473 12.9413 17.8473C6.74906 17.8473 1.71127 14.219 1.71127 9.75828C1.71127 5.29756 6.74906 1.66922 12.9413 1.66922ZM24.1712 14.5795V17.8479H20.163C21.8088 17.0072 23.1829 15.8866 24.1712 14.5795ZM37.0035 35.3308H31.149V30.8706H29.4547V35.3308H23.6008V26.5017H21.9065V35.3308H16.0532V30.8706H14.3588V35.3308H8.50494V26.5017H6.81062V35.1321C3.88848 34.4222 1.71183 31.8249 1.71183 28.729V14.5795C3.93874 17.5252 8.13671 19.5171 12.9418 19.5171H37.0035V35.3308ZM45.3062 35.3308H38.6978V19.5166H45.3062V35.3308Z" fill="#2B4CB9"/>
</svg>
