<svg width="51" height="52" viewBox="0 0 51 52" fill="none" xmlns="http://www.w3.org/2000/svg">
<path d="M1.5 51.8558H49.5C50.3286 51.8558 51 51.1844 51 50.3558V2.35583C51 1.52723 50.3286 0.855835 49.5 0.855835H1.5C0.6714 0.855835 0 1.52723 0 2.35583V50.3558C0 51.1844 0.6714 51.8558 1.5 51.8558ZM27 3.85583H48V48.8558H27V3.85583ZM3 3.85583H24V48.8558H3V3.85583Z" fill="#2B4CB9"/>
<path d="M38.5608 20.7951C37.9746 20.2089 37.0254 20.2089 36.4398 20.7951C35.8536 21.3807 35.8536 22.3305 36.4398 22.9161L38.379 24.8553H33C32.1714 24.8553 31.5 25.5267 31.5 26.3553C31.5 27.1839 32.1714 27.8553 33 27.8553H38.379L36.4398 29.7945C35.8536 30.3801 35.8536 31.3299 36.4398 31.9155C36.7326 32.2095 37.116 32.3559 37.5 32.3559C37.884 32.3559 38.2674 32.2095 38.5608 31.9167L43.0608 27.4167C43.647 26.8311 43.647 25.8813 43.0608 25.2957L38.5608 20.7951Z" fill="#2B4CB9"/>
<path d="M18.0004 24.8558H12.6214L14.5606 22.9166C15.1468 22.331 15.1468 21.3812 14.5606 20.7956C13.9744 20.2094 13.0252 20.2094 12.4396 20.7956L7.93965 25.2956C7.35345 25.8812 7.35345 26.831 7.93965 27.4166L12.4396 31.9166C12.733 32.2094 13.1164 32.3558 13.5004 32.3558C13.8844 32.3558 14.2678 32.2094 14.5612 31.9166C15.1474 31.331 15.1474 30.3812 14.5612 29.7956L12.6214 27.8558H18.0004C18.829 27.8558 19.5004 27.1844 19.5004 26.3558C19.5004 25.5272 18.829 24.8558 18.0004 24.8558Z" fill="#2B4CB9"/>
</svg>
