<svg width="45" height="51" viewBox="0 0 45 51" fill="none" xmlns="http://www.w3.org/2000/svg">
<path d="M42.7594 31.2263L41.0973 28.3466L35.6342 31.4997L25.7068 25.7704L35.6342 20.0411L41.0914 23.1903L42.7522 20.3112L38.963 18.125L44.7469 14.7825L43.0861 11.9067L37.2884 15.2493V10.8553H33.9662V17.1667L24.0224 22.9051V11.4308L29.4987 8.27187L27.8379 5.39413L24.0224 7.59341V0.911011H20.6956V7.58489L16.9031 5.39544L15.241 8.2745L20.6956 11.4243V22.8802L10.7689 17.1503V10.8553H7.44207V15.2342L1.66079 11.8969L0 14.7747L5.78784 18.1152L1.98481 20.3099L3.6456 23.1876L9.1127 20.0346L19.0532 25.7704L9.1127 31.5095L3.64298 28.3505L1.9776 31.2309L5.78784 33.4276L0.00262349 36.7661L1.66801 39.6419L7.44207 36.3079V40.6862H10.7689V34.3905L20.6956 28.6606V40.1198L15.2449 43.263L16.909 46.1421L20.6956 43.9559V50.6298H24.0224V43.9487L27.8307 46.1467L29.4928 43.2663L24.0224 40.1113V28.6383L33.9662 34.3741V40.6862H37.2884V36.2935L43.0789 39.634L44.7443 36.7563L38.963 33.419L42.7594 31.2263Z" fill="#2B4CB9"/>
</svg>
