<svg width="50" height="50" viewBox="0 0 50 50" fill="none" xmlns="http://www.w3.org/2000/svg">
<path d="M49.0116 39.4597H10.5589V1.00696C10.5589 0.470186 10.1197 0.0310059 9.58293 0.0310059H0.994512C0.457735 0.0310059 0.0185547 0.470186 0.0185547 1.00696V49.024C0.0185547 49.5608 0.457735 50 0.994512 50H30.3708C30.9076 50 31.3468 49.5608 31.3468 49.024C31.3468 48.4873 30.9076 48.0481 30.3708 48.0481H10.5589V41.4116H14.7262V44.437C14.7262 44.9738 15.1654 45.413 15.7022 45.413C16.239 45.413 16.6781 44.9738 16.6781 44.437V41.4116H19.3815V42.7974C19.3815 43.3342 19.8207 43.7734 20.3575 43.7734C20.8943 43.7734 21.3335 43.3342 21.3335 42.7974V41.4116H24.0271V44.437C24.0271 44.9738 24.4663 45.413 25.003 45.413C25.5398 45.413 25.979 44.9738 25.979 44.437V41.4116H28.6824V42.7974C28.6824 43.3342 29.1216 43.7734 29.6584 43.7734C30.1951 43.7734 30.6343 43.3342 30.6343 42.7974V41.4116H33.3377V44.437C33.3377 44.9738 33.7769 45.413 34.3137 45.413C34.8505 45.413 35.2896 44.9738 35.2896 44.437V41.4116H37.9833V42.7974C37.9833 43.3342 38.4225 43.7734 38.9592 43.7734C39.496 43.7734 39.9352 43.3342 39.9352 42.7974V41.4116H42.6386V44.437C42.6386 44.9738 43.0778 45.413 43.6145 45.413C44.1513 45.413 44.5905 44.9738 44.5905 44.437V41.4116H48.0356V48.0481H38.2761C37.7393 48.0481 37.3001 48.4873 37.3001 49.024C37.3001 49.5608 37.7393 50 38.2761 50H49.0116C49.5484 50 49.9875 49.5608 49.9875 49.024V40.4356C49.9875 39.8988 49.5484 39.4597 49.0116 39.4597ZM8.60697 5.42805H5.58151C5.04473 5.42805 4.60555 5.86723 4.60555 6.404C4.60555 6.94078 5.04473 7.37996 5.58151 7.37996H8.60697V10.0834H7.22112C6.68434 10.0834 6.24516 10.5225 6.24516 11.0593C6.24516 11.5961 6.68434 12.0353 7.22112 12.0353H8.60697V14.7387H5.58151C5.04473 14.7387 4.60555 15.1779 4.60555 15.7146C4.60555 16.2514 5.04473 16.6906 5.58151 16.6906H8.60697V19.394H7.22112C6.68434 19.394 6.24516 19.8332 6.24516 20.3699C6.24516 20.9067 6.68434 21.3459 7.22112 21.3459H8.60697V24.0395H5.58151C5.04473 24.0395 4.60555 24.4787 4.60555 25.0155C4.60555 25.5523 5.04473 25.9915 5.58151 25.9915H8.60697V28.6949H7.22112C6.68434 28.6949 6.24516 29.134 6.24516 29.6708C6.24516 30.2076 6.68434 30.6468 7.22112 30.6468H8.60697V33.3502H5.58151C5.04473 33.3502 4.60555 33.7894 4.60555 34.3261C4.60555 34.8629 5.04473 35.3021 5.58151 35.3021H8.60697V37.9957H7.22112C6.68434 37.9957 6.24516 38.4349 6.24516 38.9717C6.24516 39.5085 6.68434 39.9476 7.22112 39.9476H8.60697V42.651H5.58151C5.04473 42.651 4.60555 43.0902 4.60555 43.627C4.60555 44.1638 5.04473 44.603 5.58151 44.603H8.60697V48.0481H1.97047V1.98292H8.60697V5.42805Z" fill="#2B4CB9"/>
<path d="M34.9965 48.3311C34.8111 48.1457 34.5671 48.0481 34.3036 48.0481C34.0401 48.0481 33.7961 48.1555 33.6107 48.3311C33.4252 48.5068 33.3276 48.7605 33.3276 49.0241C33.3276 49.2876 33.435 49.5316 33.6107 49.717C33.7961 49.9024 34.0401 50 34.3036 50C34.5671 50 34.8111 49.8927 34.9965 49.717C35.182 49.5316 35.2796 49.2876 35.2796 49.0241C35.2796 48.7605 35.182 48.5166 34.9965 48.3311Z" fill="#2B4CB9"/>
<path d="M32.0302 10.0248C31.4934 10.0248 31.0542 10.464 31.0542 11.0008V12.5331C31.0542 13.0698 31.4934 13.509 32.0302 13.509C32.5669 13.509 33.0061 13.0698 33.0061 12.5331V11.0008C33.0061 10.464 32.5669 10.0248 32.0302 10.0248Z" fill="#2B4CB9"/>
<path d="M44.2292 11.2057L32.5177 4.4423C32.2152 4.26663 31.8443 4.26663 31.5417 4.4423L19.8303 11.2057C19.5277 11.3814 19.3423 11.7034 19.3423 12.0548V25.5815C19.3423 25.9329 19.5277 26.2549 19.8303 26.4306L31.5417 33.194C31.6881 33.2818 31.8638 33.3209 32.0297 33.3209C32.1956 33.3209 32.3713 33.2818 32.5177 33.194L44.2292 26.4306C44.5317 26.2549 44.7172 25.9329 44.7172 25.5815V12.045C44.7172 11.7034 44.5317 11.3814 44.2292 11.2057ZM31.0538 6.97979V7.30185C31.0538 7.83863 31.4929 8.27781 32.0297 8.27781C32.5665 8.27781 33.0057 7.83863 33.0057 7.30185V6.97979L41.7893 12.0548L33.0057 17.1297V16.2319C33.0057 15.6951 32.5665 15.2559 32.0297 15.2559C31.4929 15.2559 31.0538 15.6951 31.0538 16.2319V17.1297L22.2702 12.0548L31.0538 6.97979ZM42.7652 23.8834L42.5115 23.737C42.043 23.4637 41.4477 23.6296 41.1744 24.0981C40.9012 24.5665 41.0671 25.1619 41.5355 25.4351L41.7893 25.5815L32.0297 31.2128L22.2702 25.5815L22.5239 25.4351C22.9924 25.1619 23.1485 24.5665 22.885 24.0981C22.6117 23.6296 22.0164 23.4735 21.5479 23.737L21.2942 23.8834V13.7432L30.0681 18.8181L29.2775 19.2768C28.8091 19.5501 28.6529 20.1454 28.9164 20.6139C29.1019 20.9262 29.4239 21.1019 29.7655 21.1019C29.9314 21.1019 30.0973 21.0628 30.2535 20.975L31.0538 20.5163V23.8443C31.0538 24.3811 31.4929 24.8203 32.0297 24.8203C32.5665 24.8203 33.0057 24.3811 33.0057 23.8443V20.4968L33.806 20.9555C33.9621 21.0433 34.128 21.0824 34.2939 21.0824C34.6355 21.0824 34.9576 20.9067 35.143 20.5944C35.4163 20.1259 35.2504 19.5306 34.7819 19.2573L33.9914 18.7986L42.7652 13.7237V23.8834Z" fill="#2B4CB9"/>
<path d="M32.7231 26.8503C32.5377 26.6649 32.2937 26.5673 32.0302 26.5673C31.7666 26.5673 31.5227 26.6747 31.3372 26.8503C31.1518 27.0358 31.0542 27.2798 31.0542 27.5433C31.0542 27.8068 31.1616 28.0508 31.3372 28.2362C31.5129 28.4216 31.7666 28.5192 32.0302 28.5192C32.2937 28.5192 32.5377 28.4119 32.7231 28.2362C32.9085 28.0605 33.0061 27.8068 33.0061 27.5433C33.0061 27.2798 32.8988 27.026 32.7231 26.8503Z" fill="#2B4CB9"/>
<path d="M39.3105 21.8827L37.9832 21.1214C37.5147 20.8481 36.9194 21.0141 36.6461 21.4825C36.3729 21.951 36.5388 22.5463 37.0072 22.8196L38.3345 23.5808C38.4907 23.6687 38.6566 23.7077 38.8225 23.7077C39.1641 23.7077 39.4862 23.532 39.6716 23.2197C39.9351 22.7513 39.779 22.1559 39.3105 21.8827Z" fill="#2B4CB9"/>
<path d="M27.4041 21.4826C27.1308 21.0141 26.5355 20.858 26.067 21.1215L24.7397 21.8827C24.2713 22.156 24.1151 22.7513 24.3786 23.2198C24.564 23.5321 24.8861 23.7078 25.2277 23.7078C25.3936 23.7078 25.5595 23.6687 25.7157 23.5809L27.043 22.8196C27.5212 22.5464 27.6773 21.9413 27.4041 21.4826Z" fill="#2B4CB9"/>
</svg>
