<svg width="48" height="63" viewBox="0 0 48 63" fill="none" xmlns="http://www.w3.org/2000/svg">
<path d="M21.6231 15.3128L20.7967 13.881L18.0803 15.4488L13.1442 12.6001L18.0803 9.75136L20.7937 11.3172L21.6195 9.88564L19.7354 8.79864L22.6113 7.13668L21.7855 5.70679L18.9028 7.36875V5.18398H17.2509V8.32212L12.3067 11.1754V5.47016L15.0296 3.89946L14.2038 2.46859L12.3067 3.56212V0.239502H10.6525V3.55788L8.76683 2.46924L7.9404 3.90077L10.6525 5.4669V11.163L5.7168 8.31397V5.18398H4.06264V7.36125L1.18808 5.7019L0.362305 7.13277L3.24013 8.79375L1.34919 9.88499L2.17497 11.3159L4.89331 9.7481L9.8359 12.6001L4.89331 15.4536L2.17366 13.8829L1.3456 15.3151L3.24013 16.4073L0.363609 18.0673L1.19167 19.4972L4.06264 17.8395V20.0165H5.7168V16.8861L10.6525 14.0371V19.7348L7.94236 21.2977L8.76976 22.7292L10.6525 21.6422V24.9606H12.3067V21.6387L14.2003 22.7315L15.0267 21.2993L12.3067 19.7306V14.026L17.2509 16.878V20.0165H18.9028V17.8323L21.7819 19.4933L22.61 18.0625L19.7354 16.4031L21.6231 15.3128Z" fill="#2B4CB9"/>
<path d="M40.5907 51.041V36.5599C40.5907 35.9688 40.0424 35.4517 39.4157 35.4517C38.789 35.4517 38.2406 35.9688 38.2406 36.5599V51.041C36.6739 51.4843 35.5771 52.888 35.5771 54.5135C35.5771 56.5083 37.3006 58.2076 39.494 58.2076C41.6874 58.2076 43.4109 56.5822 43.4109 54.5135C43.3325 52.888 42.1575 51.5581 40.5907 51.041Z" fill="#2B4CB9"/>
<path d="M45.1351 48.6768V26.1425C45.1351 23.1872 42.5499 20.749 39.4165 20.749C36.283 20.749 33.6979 23.1872 33.6979 26.1425V48.6768C32.0528 50.1544 30.9561 52.2232 30.9561 54.5135C30.9561 58.9465 34.7162 62.4929 39.4165 62.4929C44.1167 62.4929 47.8769 58.9465 47.8769 54.5135C47.8769 52.2232 46.8585 50.1544 45.1351 48.6768ZM39.4165 60.2764C36.048 60.2764 33.3062 57.6905 33.3062 54.5135C33.3062 52.8881 34.0112 51.4104 35.2646 50.3022L36.048 49.6373V48.6768V26.1425C36.048 24.3693 37.5364 22.9655 39.4165 22.9655C41.2965 22.9655 42.785 24.3693 42.785 26.1425V48.6768V49.6373L43.5683 50.3022C44.8217 51.4104 45.5268 52.8881 45.5268 54.5135C45.5268 57.7644 42.785 60.2764 39.4165 60.2764Z" fill="#2B4CB9"/>
<path d="M31.0338 24.9606H24.8452V27.1771H31.0338V24.9606Z" fill="#2B4CB9"/>
<path d="M31.0339 29.541H27.9004V31.7575H31.0339V29.541Z" fill="#2B4CB9"/>
<path d="M31.0338 34.1959H24.8452V36.4123H31.0338V34.1959Z" fill="#2B4CB9"/>
<path d="M31.0339 38.7764H27.9004V40.9929H31.0339V38.7764Z" fill="#2B4CB9"/>
</svg>
