<svg width="50" height="40" viewBox="0 0 50 40" fill="none" xmlns="http://www.w3.org/2000/svg">
<path fill-rule="evenodd" clip-rule="evenodd" d="M18.3534 0.685242C16.3822 0.685242 14.5951 1.84351 13.7894 3.64282L1.04526 32.1202C-0.434725 35.428 1.9852 39.1627 5.60922 39.1627H44.8861C47.6473 39.1627 49.8861 36.9241 49.8861 34.1627V22.084C49.8861 19.4712 48.6102 17.0231 46.4681 15.5264L30.1898 4.15131C28.8641 3.22491 27.0443 4.1734 27.0443 5.79071V17.4359C27.0443 18.5404 27.9398 19.4359 29.0443 19.4359H43.9232C44.4754 19.4359 44.9232 18.9881 44.9232 18.4359C44.9232 17.8835 44.4754 17.4359 43.9232 17.4359H29.0443V5.79071L45.3226 17.1658C46.929 18.2883 47.8861 20.1245 47.8861 22.084V34.1627C47.8861 35.8195 46.5428 37.1627 44.8861 37.1627H5.60922C3.4349 37.1627 1.98276 34.9219 2.87094 32.9373L15.6151 4.45978C16.0985 3.38019 17.1707 2.68524 18.3534 2.68524H44.8861C46.5428 2.68524 47.8861 4.02838 47.8861 5.68524V9.4635C47.8861 10.0158 48.3338 10.4635 48.8861 10.4635C49.4383 10.4635 49.8861 10.0158 49.8861 9.4635V5.68524C49.8861 2.92383 47.6473 0.685242 44.8861 0.685242H18.3534ZM49.0013 14.0042C49.5467 14.0042 49.9886 13.5621 49.9886 13.0169C49.9886 12.4716 49.5467 12.0296 49.0013 12.0296C48.4559 12.0296 48.014 12.4716 48.014 13.0169C48.014 13.5621 48.4559 14.0042 49.0013 14.0042ZM13.8905 20.4766C14.1956 20.1714 14.6908 20.1714 14.9959 20.4766L25.4266 30.9072C25.7318 31.2123 25.7318 31.7072 25.4266 32.0123C25.1214 32.3176 24.6263 32.3176 24.3211 32.0123L13.8905 21.5818C13.5853 21.2766 13.5853 20.7817 13.8905 20.4766ZM13.8905 25.7665C13.5853 25.4614 13.0902 25.4614 12.785 25.7665C12.4798 26.0717 12.4798 26.5665 12.785 26.8718L17.9256 32.0123C18.2308 32.3175 18.7259 32.3175 19.0311 32.0123C19.3363 31.7072 19.3363 31.2123 19.0311 30.9071L13.8905 25.7665Z" fill="#2B4CB9"/>
</svg>
