<svg width="30" height="55" viewBox="0 0 30 55" fill="none" xmlns="http://www.w3.org/2000/svg">
<path d="M20.5095 39.9114V20.8318C20.5095 20.053 19.7952 19.3716 18.9789 19.3716C18.1626 19.3716 17.4483 20.053 17.4483 20.8318V39.9114C15.4075 40.4955 13.979 42.345 13.979 44.4866C13.979 47.115 16.2238 49.3539 19.0809 49.3539C21.938 49.3539 24.1828 47.2123 24.1828 44.4866C24.0808 42.345 22.5502 40.5928 20.5095 39.9114Z" fill="#2B4CB9"/>
<path d="M26.4284 36.7965V7.10619C26.4284 3.21239 23.0612 0 18.9796 0C14.8981 0 11.5308 3.21239 11.5308 7.10619V36.7965C9.38801 38.7434 7.95947 41.469 7.95947 44.4867C7.95947 50.3274 12.8573 55 18.9796 55C25.1019 55 29.9998 50.3274 29.9998 44.4867C29.9998 41.469 28.6733 38.7434 26.4284 36.7965ZM18.9796 52.0796C14.592 52.0796 11.0206 48.6726 11.0206 44.4867C11.0206 42.3451 11.939 40.3982 13.5716 38.9381L14.592 38.0619V36.7965V7.10619C14.592 4.76991 16.5307 2.92035 18.9796 2.92035C21.4285 2.92035 23.3673 4.76991 23.3673 7.10619V36.7965V38.0619L24.3877 38.9381C26.0203 40.3982 26.9386 42.3451 26.9386 44.4867C26.9386 48.7699 23.3673 52.0796 18.9796 52.0796Z" fill="#2B4CB9"/>
<path d="M8.06103 5.54883H0V8.46918H8.06103V5.54883Z" fill="#2B4CB9"/>
<path d="M8.06103 11.5839H3.97949V14.5042H8.06103V11.5839Z" fill="#2B4CB9"/>
<path d="M8.06103 17.717H0V20.6374H8.06103V17.717Z" fill="#2B4CB9"/>
<path d="M8.06103 23.7522H3.97949V26.6726H8.06103V23.7522Z" fill="#2B4CB9"/>
</svg>
