<svg width="94" height="48" viewBox="0 0 94 48" fill="none" xmlns="http://www.w3.org/2000/svg">
<mask id="mask0" mask-type="alpha" maskUnits="userSpaceOnUse" x="3" y="5" width="30" height="37">
<path d="M32.3915 34.2977L3.51318 41.8952V5.72L32.5132 10.6948L32.3915 34.2977Z" fill="white"/>
</mask>
<g mask="url(#mask0)">
<path fill-rule="evenodd" clip-rule="evenodd" d="M32.3915 34.2977L3.51318 41.8952V5.72L32.5132 10.6948L32.3915 34.2977Z" fill="url(#paint0_linear)"/>
</g>
<path fill-rule="evenodd" clip-rule="evenodd" d="M17.3884 44.624H20.6705V0H17.3884V44.624Z" fill="#FFFFFE"/>
<path fill-rule="evenodd" clip-rule="evenodd" d="M0.55369 19.0055C0.547421 17.1624 2.52556 15.6017 4.2916 16.0566C4.79496 14.6621 5.41794 13.2147 6.61768 12.3591C7.81716 11.5037 9.75455 11.5476 10.5147 12.8174C11.624 12.0344 12.9766 11.4567 14.3093 11.6931C15.6417 11.9295 16.8391 13.2248 16.5925 14.5699C17.5976 13.8028 19.0575 13.7048 20.1541 14.3311C21.2504 14.9574 21.9212 16.2722 21.7906 17.5389C22.5455 17.1934 23.4942 17.3349 24.1185 17.8863C24.7425 18.4379 25.009 19.3696 24.7718 20.1726C17.0919 21.3849 9.25329 21.5643 1.52722 20.7047C1.07193 20.654 0.582423 20.584 0.251731 20.2633C-0.0786997 19.9426 -0.107172 19.2813 0.306585 19.0829" fill="#FFFFFE"/>
<path fill-rule="evenodd" clip-rule="evenodd" d="M18.8544 29.3044C18.8487 27.6414 20.6335 26.2337 22.2269 26.6439C22.6809 25.3857 23.243 24.0799 24.3252 23.308C25.4074 22.5361 27.1554 22.576 27.8414 23.7214C28.8421 23.015 30.0624 22.4938 31.2648 22.707C32.4669 22.9202 33.5472 24.0889 33.3247 25.3027C34.2316 24.6104 35.5486 24.5221 36.5378 25.0869C37.527 25.652 38.1323 26.8384 38.0142 27.9811C38.6954 27.6694 39.5514 27.7973 40.1146 28.2947C40.6777 28.7921 40.9178 29.6327 40.7039 30.3573C33.7753 31.451 26.7033 31.6129 19.7326 30.8373C19.322 30.7916 18.8803 30.7282 18.582 30.439C18.2839 30.1497 18.2583 29.5532 18.6316 29.3741" fill="#FFFFFE"/>
<path fill-rule="evenodd" clip-rule="evenodd" d="M37.0258 47.9897H33.9684L30.6079 39.0508H33.6654L37.0258 47.9897Z" fill="#193F7E"/>
<path fill-rule="evenodd" clip-rule="evenodd" d="M33.3776 47.9897H30.3193L27.6746 40.8402H30.7312L33.3776 47.9897Z" fill="#193F7E"/>
<path fill-rule="evenodd" clip-rule="evenodd" d="M27.0315 42.4158C27.417 43.3982 28.5405 46.7753 28.781 47.3882H25.3704C25.6136 46.7743 26.6428 43.3971 27.0315 42.4158ZM24.4766 48H29.6723L27.0359 40.9039L24.4766 48Z" fill="#193F7E"/>
<path fill-rule="evenodd" clip-rule="evenodd" d="M42.407 47.97C40.177 47.97 38.8389 46.5451 38.8389 44.3002C38.8389 41.9937 40.5216 40.6813 42.6604 40.6813C43.4004 40.6813 44.1605 40.8557 44.8396 41.1529C44.7383 41.4094 44.6774 41.6757 44.6268 41.9422L44.556 41.9525C44.4139 41.7681 43.6639 41.071 42.6199 41.071C40.7548 41.071 39.8322 42.5984 39.8322 44.3411C39.8322 46.3092 40.9474 47.5703 42.5488 47.5703C43.6436 47.5703 44.4951 46.9141 44.6978 46.7398L44.6471 47.3857C44.0085 47.8162 43.1773 47.97 42.407 47.97Z" fill="#193F7E"/>
<path fill-rule="evenodd" clip-rule="evenodd" d="M47.2643 44.6486H49.4942L48.3692 42.0244L47.2643 44.6486ZM51.2477 47.8162C51.0552 47.8162 50.8828 47.8369 50.7107 47.8469C50.4166 46.9963 50.0516 46.012 49.6463 45.0792H47.0718C46.7168 45.9813 46.3519 46.8832 46.0682 47.8469C45.9264 47.8369 45.8148 47.8162 45.6931 47.8162C45.5615 47.8162 45.4499 47.8369 45.3384 47.8469L48.5008 40.6813H48.7341L51.7749 47.8469C51.5823 47.8369 51.4201 47.8162 51.2477 47.8162Z" fill="#193F7E"/>
<path fill-rule="evenodd" clip-rule="evenodd" d="M54.7743 43.9515C55.5851 44.8945 56.4568 45.7967 57.2376 46.7707L58.0585 47.7956V47.8469C57.8558 47.8369 57.6732 47.8162 57.5009 47.8162C57.3083 47.8162 57.1158 47.8369 56.9332 47.8469C56.7104 47.5188 56.4874 47.2113 56.234 46.9141L54.0241 44.3002C53.9735 44.259 53.8517 44.2283 53.8517 44.2693V47.8469C53.6898 47.8369 53.5477 47.8162 53.4059 47.8162C53.2538 47.8162 53.1018 47.8369 52.9597 47.8469V40.8351C53.1018 40.8454 53.2538 40.866 53.4059 40.866C53.5477 40.866 53.6898 40.8454 53.8517 40.8351V44.0027C53.8619 44.0643 54.004 44.0233 54.1054 43.9412C54.2877 43.7977 54.5006 43.5824 54.6424 43.439L57.1359 40.8351C57.2679 40.8454 57.3995 40.866 57.5416 40.866C57.6633 40.866 57.795 40.8454 57.9368 40.8351L55.6358 43.0699L54.7743 43.9515Z" fill="#193F7E"/>
<path fill-rule="evenodd" clip-rule="evenodd" d="M62.0728 47.97C59.8426 47.97 58.5046 46.5451 58.5046 44.3002C58.5046 41.9937 60.1874 40.6813 62.3261 40.6813C63.0662 40.6813 63.8263 40.8557 64.5054 41.1529C64.4041 41.4094 64.3432 41.6757 64.2925 41.9422L64.2217 41.9525C64.0796 41.7681 63.3297 41.071 62.2857 41.071C60.4206 41.071 59.498 42.5984 59.498 44.3411C59.498 46.3092 60.6131 47.5703 62.2146 47.5703C63.3093 47.5703 64.1609 46.9141 64.3636 46.7398L64.3129 47.3857C63.6742 47.8162 62.8431 47.97 62.0728 47.97Z" fill="#193F7E"/>
<path fill-rule="evenodd" clip-rule="evenodd" d="M67.7293 41.0709C66.6852 41.0709 65.9351 41.7681 65.7932 41.9525L65.7222 41.9424C65.6715 41.6759 65.6109 41.4093 65.5093 41.1531C66.1884 40.8556 66.9488 40.6813 67.6888 40.6813C69.8273 40.6813 71.5101 41.9937 71.5101 44.3001C71.5101 46.545 70.1721 47.9699 67.9419 47.9699C67.1716 47.9699 66.3404 47.8162 65.7021 47.3856L65.6511 46.74C65.8541 46.9141 66.7054 47.5702 67.8001 47.5702C69.4018 47.5702 70.5167 46.3094 70.5167 44.3411H67.6888C67.3845 44.3411 67.0906 44.3923 66.7866 44.3923C66.7866 44.2795 66.8169 44.1873 66.8169 44.1054C66.8169 44.013 66.7866 43.9208 66.7866 43.8389C67.0906 43.8389 67.3845 43.8901 67.6888 43.8901H70.4966C70.3647 42.3421 69.4321 41.0709 67.7293 41.0709Z" fill="#193F7E"/>
<path fill-rule="evenodd" clip-rule="evenodd" d="M75.8484 47.97C73.6185 47.97 72.2803 46.5451 72.2803 44.3002C72.2803 41.9937 73.963 40.6813 76.1018 40.6813C76.8418 40.6813 77.6022 40.8557 78.2813 41.1529C78.1797 41.4094 78.1188 41.6757 78.0684 41.9422L77.9974 41.9525C77.8555 41.7681 77.1053 41.071 76.0613 41.071C74.1963 41.071 73.2739 42.5984 73.2739 44.3411C73.2739 46.3092 74.3888 47.5703 75.9905 47.5703C77.085 47.5703 77.9365 46.9141 78.1392 46.7398L78.0885 47.3857C77.4501 47.8162 76.6187 47.97 75.8484 47.97Z" fill="#193F7E"/>
<path fill-rule="evenodd" clip-rule="evenodd" d="M38.9156 15.5976C38.9156 16.3647 39.159 17.0008 39.6462 17.5067C40.1328 18.0123 40.73 18.2651 41.4368 18.2651C42.1434 18.2651 42.7426 18.0123 43.2339 17.5067C43.7253 17.0008 43.971 16.3647 43.971 15.5976C43.971 14.8566 43.7253 14.2355 43.2339 13.7341C42.7426 13.233 42.1434 12.9826 41.4368 12.9826C40.73 12.9826 40.1328 13.233 39.6462 13.7341C39.159 14.2355 38.9156 14.8566 38.9156 15.5976ZM38.0105 15.5976C38.0105 14.6299 38.3425 13.8192 39.0062 13.1654C39.6697 12.5116 40.48 12.1848 41.4368 12.1848C42.3933 12.1848 43.206 12.5116 43.8739 13.1654C44.5418 13.8192 44.8759 14.6299 44.8759 15.5976C44.8759 16.5827 44.5418 17.4084 43.8739 18.0752C43.206 18.7422 42.3933 19.0756 41.4368 19.0756C40.48 19.0756 39.6697 18.7422 39.0062 18.0752C38.3425 17.4084 38.0105 16.5827 38.0105 15.5976Z" fill="#193F7E"/>
<path fill-rule="evenodd" clip-rule="evenodd" d="M46.5176 18.9188V12.3418H47.3968V15.1269H48.4312L50.3835 12.3418H51.4179L49.1553 15.4669V15.4928L51.6765 18.9188H50.6034L48.444 15.9112H47.3968V18.9188H46.5176Z" fill="#193F7E"/>
<path fill-rule="evenodd" clip-rule="evenodd" d="M53.1114 15.5976C53.1114 16.3647 53.3548 17.0008 53.842 17.5067C54.3286 18.0123 54.9258 18.2651 55.6326 18.2651C56.3392 18.2651 56.9384 18.0123 57.4297 17.5067C57.9211 17.0008 58.1668 16.3647 58.1668 15.5976C58.1668 14.8566 57.9211 14.2355 57.4297 13.7341C56.9384 13.233 56.3392 12.9826 55.6326 12.9826C54.9258 12.9826 54.3286 13.233 53.842 13.7341C53.3548 14.2355 53.1114 14.8566 53.1114 15.5976ZM52.2063 15.5976C52.2063 14.6299 52.5383 13.8192 53.202 13.1654C53.8655 12.5116 54.6758 12.1848 55.6326 12.1848C56.5891 12.1848 57.4018 12.5116 58.0697 13.1654C58.7376 13.8192 59.0717 14.6299 59.0717 15.5976C59.0717 16.5827 58.7376 17.4084 58.0697 18.0752C57.4018 18.7422 56.5891 19.0756 55.6326 19.0756C54.6758 19.0756 53.8655 18.7422 53.202 18.0752C52.5383 17.4084 52.2063 16.5827 52.2063 15.5976Z" fill="#193F7E"/>
<path fill-rule="evenodd" clip-rule="evenodd" d="M60.7139 18.9188V12.3418H61.5931V15.1528H65.3942V12.3418H66.2735V18.9188H65.3942V15.9377H61.5931V18.9188H60.7139Z" fill="#193F7E"/>
<path fill-rule="evenodd" clip-rule="evenodd" d="M68.3677 18.9188V12.3418H69.2469V15.1528H73.048V12.3418H73.9273V18.9188H73.048V15.9377H69.2469V18.9188H68.3677Z" fill="#193F7E"/>
<path fill-rule="evenodd" clip-rule="evenodd" d="M81.6715 18.9187H82.5504V12.3417H81.6715V18.9187ZM76.9007 18.2126H78.1934C79.1761 18.2126 79.6675 17.7725 79.6675 16.892C79.6675 16.4738 79.5468 16.1465 79.3054 15.9114C79.0641 15.676 78.6978 15.5585 78.2065 15.5585H76.9007V18.2126ZM76.0215 18.9187V12.3417H76.9007V14.8521H78.2969C78.9517 14.8521 79.4948 15.0135 79.9261 15.336C80.3568 15.6586 80.5723 16.1816 80.5723 16.9049C80.5723 17.5242 80.3785 18.0144 79.9908 18.3761C79.6029 18.7377 79.0293 18.9187 78.2713 18.9187H76.0215Z" fill="#193F7E"/>
<path fill-rule="evenodd" clip-rule="evenodd" d="M88.6144 11.0603C88.2782 11.3395 87.8775 11.4787 87.4118 11.4787C86.9463 11.4787 86.5456 11.3395 86.2094 11.0603C85.8732 10.7813 85.7053 10.4064 85.7053 9.93596V9.71353H86.468V9.90981C86.468 10.1888 86.5607 10.4086 86.7462 10.5702C86.9314 10.7314 87.1532 10.8119 87.4118 10.8119C87.6706 10.8119 87.8945 10.7314 88.0844 10.5702C88.2735 10.4086 88.3688 10.1843 88.3688 9.8966V9.71353H89.1185V9.93596C89.1185 10.4064 88.9503 10.7813 88.6144 11.0603ZM84.645 18.9187V12.3417H85.4984V16.6567C85.4984 17.2579 85.4853 17.5849 85.4597 17.637H85.4853C85.5198 17.5762 85.7442 17.2497 86.158 16.6567L89.3512 12.3417H90.1916V18.9187H89.3254V14.5906C89.3254 14.4775 89.3272 14.3468 89.3319 14.1983C89.3361 14.0501 89.3426 13.9217 89.3512 13.8126C89.3599 13.7038 89.364 13.6449 89.364 13.6362H89.3382C89.3382 13.6536 89.3016 13.7146 89.2285 13.819C89.1551 13.9238 89.0603 14.0546 88.944 14.2115C88.8275 14.3684 88.7392 14.495 88.6789 14.5906L85.4853 18.9187H84.645Z" fill="#193F7E"/>
<path fill-rule="evenodd" clip-rule="evenodd" d="M37.7598 33.0474L38.8942 31.6378C39.2074 31.9767 39.5966 32.2607 40.0613 32.4902C40.5257 32.7198 41.0014 32.8342 41.4875 32.8342C42.1139 32.8342 42.6112 32.6762 42.9785 32.3592C43.3457 32.0422 43.5296 31.605 43.5296 31.0479C43.5296 30.5452 43.3648 30.1489 43.0354 29.8594C42.7055 29.5701 42.2599 29.4251 41.6983 29.4251H40.288V27.7204H41.4227C41.9412 27.7204 42.368 27.5675 42.7032 27.2616C43.0378 26.9554 43.2055 26.5729 43.2055 26.114C43.2055 25.6443 43.0542 25.2592 42.7518 24.9585C42.449 24.6579 42.0115 24.5076 41.4389 24.5076C40.5636 24.5076 39.7314 24.8354 38.9428 25.4911L38.1001 23.9502C39.1154 23.098 40.3473 22.6719 41.7955 22.6719C42.7784 22.6719 43.6132 22.9561 44.2994 23.5241C44.9856 24.0926 45.3288 24.8682 45.3288 25.8517C45.3288 26.999 44.7991 27.8625 43.7404 28.4413V28.4741C44.3344 28.6603 44.8046 28.9882 45.1504 29.4579C45.496 29.9275 45.6689 30.5013 45.6689 31.1789C45.6689 32.2498 45.2881 33.105 44.5264 33.7442C43.7647 34.3835 42.8165 34.7032 41.6821 34.7032C40.9471 34.7032 40.2313 34.5581 39.5344 34.2686C38.8375 33.9791 38.2459 33.572 37.7598 33.0474Z" fill="#193F7E"/>
<path fill-rule="evenodd" clip-rule="evenodd" d="M50.6933 29.802H53.6917L52.6706 26.6877L52.2169 24.8848H52.1843C52.0114 25.6495 51.8604 26.2508 51.7306 26.6877L50.6933 29.802ZM47.063 34.5063L51.0984 22.8687H53.3028L57.3385 34.5063H55.1992L54.2105 31.5231H50.1748L49.2023 34.5063H47.063Z" fill="#193F7E"/>
<path fill-rule="evenodd" clip-rule="evenodd" d="M61.601 32.687H63.8377C64.3562 32.687 64.764 32.5311 65.0615 32.2196C65.3585 31.9084 65.5071 31.5014 65.5071 30.9984C65.5071 30.5068 65.3585 30.1052 65.0615 29.7938C64.764 29.4823 64.3562 29.3265 63.8377 29.3265H61.601V32.687ZM61.601 27.6218H63.6269C64.0699 27.6218 64.4184 27.4826 64.6723 27.2039C64.9259 26.9252 65.0531 26.5675 65.0531 26.1306C65.0531 25.7042 64.9259 25.3573 64.6723 25.0895C64.4184 24.8219 64.059 24.6879 63.5945 24.6879H61.601V27.6218ZM59.5103 34.5063V22.8686H63.6107C64.6804 22.8686 65.5419 23.1336 66.1959 23.6635C66.8495 24.1937 67.1765 24.9283 67.1765 25.8682C67.1765 26.4148 67.0522 26.9064 66.8035 27.3431C66.5548 27.7806 66.2147 28.1192 65.7827 28.3596V28.3924C66.3877 28.5673 66.8495 28.9115 67.1681 29.425C67.4868 29.9388 67.6464 30.5068 67.6464 31.1297C67.6464 32.2334 67.2682 33.0721 66.512 33.6459C65.7555 34.2194 64.8102 34.5063 63.6755 34.5063H59.5103Z" fill="#193F7E"/>
<path fill-rule="evenodd" clip-rule="evenodd" d="M71.8928 28.6055C71.8928 29.7856 72.2601 30.7749 72.9949 31.5721C73.7296 32.3702 74.6264 32.7688 75.6856 32.7688C76.7443 32.7688 77.641 32.3702 78.3758 31.5721C79.1106 30.7749 79.4781 29.7856 79.4781 28.6055C79.4781 27.4799 79.1106 26.5318 78.3758 25.7615C77.641 24.9912 76.7443 24.606 75.6856 24.606C74.6264 24.606 73.7296 24.9912 72.9949 25.7615C72.2601 26.5318 71.8928 27.4799 71.8928 28.6055ZM69.7373 28.6055C69.7373 26.9336 70.307 25.5269 71.4472 24.3846C72.5871 23.2429 73.9997 22.6718 75.6856 22.6718C77.3712 22.6718 78.7835 23.2429 79.9237 24.3846C81.0636 25.5269 81.6336 26.9336 81.6336 28.6055C81.6336 30.321 81.0636 31.7666 79.9237 32.9408C78.7835 34.1155 77.3712 34.703 75.6856 34.703C73.9997 34.703 72.5871 34.1155 71.4472 32.9408C70.307 31.7666 69.7373 30.321 69.7373 28.6055Z" fill="#193F7E"/>
<path fill-rule="evenodd" clip-rule="evenodd" d="M86.0582 32.687H90.6288V24.6879H87.5492V25.5568C87.5492 28.6822 87.0521 31.0589 86.0582 32.687ZM82.7356 32.687H83.9027C85.0152 30.9823 85.5721 28.5562 85.5721 25.4091V22.8686H92.7196V32.687H94V36.8011H92.136V34.5063H84.6644V36.8011H82.7356V32.687Z" fill="#193F7E"/>
<path fill-rule="evenodd" clip-rule="evenodd" d="M79.6881 39.219H79.2623V40.2818H79.1033V39.219H78.6775V39.0767H79.6881V39.219Z" fill="#193F7E"/>
<path fill-rule="evenodd" clip-rule="evenodd" d="M80.992 40.2821H80.8337V39.2434L80.5017 39.9503H80.4071L80.0783 39.2434V40.2821H79.9302V39.0762H80.1467L80.4646 39.748L80.7715 39.0762H80.992V40.2821Z" fill="#193F7E"/>
<defs>
<linearGradient id="paint0_linear" x1="3.51327" y1="23.8077" x2="32.5131" y2="23.8077" gradientUnits="userSpaceOnUse">
<stop stop-color="#183F7D"/>
<stop offset="1" stop-color="#02A3D9"/>
</linearGradient>
</defs>
</svg>
