<?xml version="1.0" encoding="utf-8"?><svg xmlns="http://www.w3.org/2000/svg" xmlns:xlink="http://www.w3.org/1999/xlink"><symbol viewBox="0 0 43 43" id="clim" xmlns="http://www.w3.org/2000/svg"><path d="M42.773 18.06l-6.924-6.035V2.603a.661.661 0 0 0-.66-.66H29.83a.661.661 0 0 0-.66.66v3.59L22.272.164a.658.658 0 0 0-.872 0L.891 18.061a.658.658 0 0 0-.186.728.67.67 0 0 0 .618.432h5.222v12.452L1.043 36.16A2.747 2.747 0 0 0 .02 37.963a2.66 2.66 0 0 0 .567 1.99l1.634 2.023A2.705 2.705 0 0 0 4.362 43c.592 0 1.185-.186 1.692-.576l.568-.457c.11.22.33.381.592.381h29.244c.364 0 .66-.296.66-.66V19.22h5.223a.662.662 0 1 0 .432-1.16zM30.49 7.345v-4.08h4.038v7.601l-.872-.761-3.166-2.76zM5.233 41.392a1.42 1.42 0 0 1-1.98-.238l-1.634-2.023a1.337 1.337 0 0 1 .254-1.922l9.556-7.796c.068.16.127.313.203.466.339.745.78 1.473 1.312 2.15.254.33.525.635.813.931.093.093.203.178.305.27.186.179.372.357.575.517l-9.404 7.645zm11.14-8.034a6.246 6.246 0 0 1-.305-.203c-.186-.119-.356-.254-.534-.39a9.351 9.351 0 0 1-1.549-1.566 9.264 9.264 0 0 1-1.15-1.88 10.622 10.622 0 0 1-.466-1.218l-.102-.373c-.025-.11-.059-.228-.084-.372-.017-.102-.043-.203-.06-.33a9.402 9.402 0 0 1 3.454-9.134 9.44 9.44 0 0 1 5.849-2.024 9.493 9.493 0 0 1 7.465 3.615c3.225 4.114 2.506 10.09-1.608 13.316a9.466 9.466 0 0 1-10.36.872c-.119-.06-.229-.127-.356-.203a1.202 1.202 0 0 1-.195-.11zM36.457 17.9a.661.661 0 0 0-.66.66v22.46H7.874v-.077l7.88-6.417c.043.025.094.06.136.085.144.093.296.178.432.245a10.726 10.726 0 0 0 5.12 1.295c2.37 0 4.724-.778 6.662-2.302 4.69-3.674 5.51-10.48 1.829-15.17-3.674-4.681-10.48-5.503-15.169-1.82a10.7 10.7 0 0 0-3.944 10.395c.017.136.042.263.076.39.025.144.06.288.093.423l-3.115 2.54V18.56a.661.661 0 0 0-.66-.66H3.092l18.74-16.355 11.47 10.006 1.455 1.27 5.815 5.08h-4.114z"/><path d="M20.242 29.77c-.771 0-1.69-.443-2.813-1.718a.729.729 0 0 1 0-.939.536.536 0 0 1 .826 0c1.832 2.082 2.546 1.348 3.625.237 1.105-1.136 2.618-2.692 5.237.284.228.259.228.679 0 .938a.536.536 0 0 1-.826 0c-1.833-2.083-2.547-1.349-3.627-.238-.63.65-1.395 1.435-2.422 1.435zM18.73 25.34c-.78 0-1.711-.447-2.848-1.738a.73.73 0 0 1 0-.938.536.536 0 0 1 .827 0c1.858 2.112 2.582 1.373 3.679.257 1.101-1.123 2.61-2.66 5.182.263a.73.73 0 0 1 0 .939.536.536 0 0 1-.826 0c-1.79-2.034-2.5-1.31-3.576-.214-.636.647-1.405 1.432-2.439 1.432zM22.264 3.873a.658.658 0 0 0-.872 0L9.6 14.166a.659.659 0 0 0 .432 1.16c.152 0 .313-.05.431-.16l11.368-9.922 7.559 6.603c.279.237.694.212.93-.068a.658.658 0 0 0-.067-.93l-7.99-6.976zM32.54 12.838a.658.658 0 0 0-.932.067.658.658 0 0 0 .068.931l1.523 1.33a.66.66 0 0 0 .931-.068.658.658 0 0 0-.067-.931l-1.524-1.33z"/></symbol><symbol viewBox="0 0 16 13" id="clim_sm" xmlns="http://www.w3.org/2000/svg"><path d="M6.261 13c-1.066 0-2.336-.695-3.887-2.7-.315-.408-.315-1.068 0-1.476.316-.407.827-.407 1.142 0 2.532 3.273 3.518 2.119 5.01.373 1.527-1.786 3.618-4.233 7.238.445.315.408.315 1.068 0 1.476-.316.407-.827.407-1.142 0-2.533-3.274-3.52-2.12-5.013-.375C8.737 11.764 7.681 13 6.261 13zM4.171 6.038c-1.078 0-2.364-.703-3.935-2.733-.315-.408-.315-1.068 0-1.475.316-.408.827-.408 1.142 0 2.569 3.32 3.57 2.16 5.085.403 1.523-1.764 3.607-4.18 7.163.415.315.407.315 1.067 0 1.475-.316.407-.826.407-1.142 0-2.474-3.197-3.456-2.06-4.943-.336-.879 1.018-1.942 2.251-3.37 2.251z"/></symbol><symbol fill="none" viewBox="0 0 15 18" id="dog" xmlns="http://www.w3.org/2000/svg"><path d="M3 1.5h9A1.5 1.5 0 0 1 13.5 3v12a1.5 1.5 0 0 1-1.5 1.5H3A1.5 1.5 0 0 1 1.5 15V3A1.5 1.5 0 0 1 3 1.5zM0 3a3 3 0 0 1 3-3h9a3 3 0 0 1 3 3v12a3 3 0 0 1-3 3H3a3 3 0 0 1-3-3zm11.25 1.5h-7.5V6h7.5zm-7.5 3.75h7.5v1.5h-7.5zm7.5 3.75h-7.5v1.5h7.5z" clip-rule="evenodd" fill="#2a4bb6" fill-rule="evenodd"/></symbol><symbol fill="none" viewBox="0 0 58 57" id="finishing" xmlns="http://www.w3.org/2000/svg"><path d="M26.244 34.606l19.075 9.887a4.845 4.845 0 0 0 5.69-.889l5.9-5.922a3.761 3.761 0 0 0 0-5.301l-3.518-3.53 2.096-2.104a4.562 4.562 0 0 0 0-6.433L36.56 1.327a4.528 4.528 0 0 0-6.403 0L23.71 7.793a4.562 4.562 0 0 0 0 6.433L42.63 33.219a4.527 4.527 0 0 0 6.409 0l2.096-2.104 3.517 3.53a.558.558 0 0 1 0 .78l-5.906 5.922a1.686 1.686 0 0 1-1.975.306l-19.05-9.886a4.845 4.845 0 0 0-5.69.889l-3.554 3.568-2.338-2.347a1.593 1.593 0 0 0-1.738-.347c-.194.08-.37.198-.518.347L1.856 45.932A6.358 6.358 0 0 0 0 50.427a6.377 6.377 0 0 0 1.856 4.496l.23.23A6.359 6.359 0 0 0 6.563 57a6.359 6.359 0 0 0 4.479-1.847l12.016-12.06a1.6 1.6 0 0 0 0-2.264l-2.345-2.347 3.562-3.581a1.686 1.686 0 0 1 1.968-.295zm20.54-3.645a1.343 1.343 0 0 1-1.91 0L25.956 11.962a1.35 1.35 0 0 1 0-1.918l6.448-6.478a1.343 1.343 0 0 1 1.911 0l18.89 19.018a1.352 1.352 0 0 1 0 1.919l-6.421 6.458zM8.788 52.896a3.145 3.145 0 0 1-2.23.93 3.136 3.136 0 0 1-2.23-.93l-.229-.23a3.16 3.16 0 0 1-.926-2.239 3.17 3.17 0 0 1 .926-2.238L14.98 37.267l4.702 4.668-10.895 10.96z" fill="#2B4CB9"/></symbol><symbol viewBox="0 0 31 42" id="geo" xmlns="http://www.w3.org/2000/svg"><path fill="#2057AC" d="M15.175 42C25.292 29.805 30.35 20.897 30.35 15.273 30.35 6.838 23.556 0 15.175 0 6.795 0 0 6.838 0 15.273 0 20.897 5.058 29.805 15.175 42z"/><path fill="#FFF" d="M23.846 19.183H19.78L15.304 7.2h4.067l4.475 11.983zm-4.85 0h-4.068L11.4 9.597h4.067l3.528 9.586zm-4.933.017h-6.91l3.398-9.52 3.512 9.52zm-3.512-7.49c.272.706.831 2.339 1.341 3.828l.006.018c.438 1.277.838 2.445.989 2.828h-4.54c.123-.33.414-1.247.753-2.313l.002-.005c.513-1.612 1.135-3.565 1.45-4.356z"/></symbol><symbol fill="none" viewBox="0 0 36 36" id="gost" xmlns="http://www.w3.org/2000/svg"><path d="M18.492.204A.71.71 0 0 0 18 0a.74.74 0 0 0-.5.204.708.708 0 0 0-.203.5.74.74 0 0 0 .204.498c.133.134.31.204.499.204a.74.74 0 0 0 .5-.204.703.703 0 0 0-.007-.998zM13.795 9.668a.696.696 0 0 0-.499-.204.74.74 0 0 0-.5.204.696.696 0 0 0-.203.499.696.696 0 0 0 .703.703.74.74 0 0 0 .5-.204.696.696 0 0 0 .203-.499.68.68 0 0 0-.204-.5zM11.854 11.608a.7.7 0 0 0-.99 0l-6.266 6.265a.7.7 0 0 0 .5 1.196.72.72 0 0 0 .499-.204L11.86 12.6a.707.707 0 0 0-.007-.992z" fill="#2B4CB9"/><path d="M33.188 33.18h2.109a.705.705 0 0 0 .703-.703V4.641.703A.705.705 0 0 0 35.297 0H21.586a.705.705 0 0 0-.703.703c0 .387.316.703.703.703h13.008v2.532H1.406V1.405h13.261a.705.705 0 0 0 .703-.703.705.705 0 0 0-.703-.703H.703A.705.705 0 0 0 0 .703V32.477c0 .387.316.704.703.704H24.47v1.286c0 .042 0 .085.007.127H10.167a.705.705 0 0 0-.703.703c0 .387.316.703.703.703h25.13a.705.705 0 0 0 .703-.703.705.705 0 0 0-.703-.703H33.18c0-.042.007-.085.007-.127v-1.286zm-15.891-1.406H1.407V30.01L14.504 16.91a.7.7 0 1 0-.99-.991L1.405 28.027V5.344h15.89v26.43zm14.484 2.693c0 .07-.056.127-.126.127h-5.66a.126.126 0 0 1-.127-.127v-6.904h5.906v6.904h.007zm-4.226-8.31h-.625c-.19-.922-.45-1.815-.774-2.666a4.508 4.508 0 0 1 1.4 2.665zm-.83-6.821a5.188 5.188 0 0 1 2.166 4.134c-.112.408-.196.83-.267 1.252a5.768 5.768 0 0 0-.703-1.336 19.713 19.713 0 0 0-1.195-4.05zm3.34 1.315c-.084.147-.168.295-.245.45a6.807 6.807 0 0 0-.345-.724c0-.014.007-.036.007-.05 0-.063.063-1.237.85-2.144a10.267 10.267 0 0 0-.273 2.355c0 .043 0 .078.007.113zm1.569.14c-.507 1.73-.837 3.643-.907 5.365h-.823c.056-1.933.675-3.79 1.73-5.365zm.85 5.365h-.344c.12-2.756.984-6.124 2.11-8.086.006-.014.02-.035.027-.056a.707.707 0 0 0-1.055-.872c-.548.401-1.054.844-1.518 1.33.133-.578.33-1.147.577-1.681a.71.71 0 0 0-.148-.802.696.696 0 0 0-.802-.127l-.752.38c-1.294.647-1.92 1.751-2.222 2.637a6.7 6.7 0 0 0-1.8-1.28l-1.104-.513a.7.7 0 0 0-.816.155.703.703 0 0 0-.105.822l.07.134a17.689 17.689 0 0 1 1.47 3.523c-.091-.05-.183-.099-.274-.141l-.921-.443a.7.7 0 0 0-.816.155.703.703 0 0 0-.105.822l.063.113c.647 1.174 1.146 2.524 1.462 3.937h-.31a.705.705 0 0 0-.702.703v4.915h-5.766V5.344h15.89v26.43h-1.406V26.86a.705.705 0 0 0-.703-.703z" fill="#2B4CB9"/><path d="M7.397 34.798a.696.696 0 0 0-.5-.204.74.74 0 0 0-.499.204.696.696 0 0 0-.203.499c0 .19.077.366.203.5.134.133.31.203.5.203s.365-.077.499-.204a.696.696 0 0 0 .204-.5c0-.189-.07-.365-.204-.498z" fill="#2B4CB9"/></symbol><symbol fill="none" viewBox="0 0 19 19" id="help" xmlns="http://www.w3.org/2000/svg"><circle cx="9.5" cy="9.5" r="9.5" fill="#2B4CB9"/><path d="M6.532 5.138c.17-.15.355-.293.555-.428.205-.135.425-.252.66-.352.235-.1.49-.178.765-.233.275-.06.573-.09.893-.09.435 0 .83.06 1.185.18.36.12.668.293.922.518.255.22.453.487.593.802.14.315.21.668.21 1.058 0 .38-.055.71-.165.99-.11.275-.248.515-.412.72a3.058 3.058 0 0 1-.548.532 509 509 0 0 0-.555.428c-.175.13-.328.26-.457.39a.762.762 0 0 0-.226.427l-.172 1.095H8.512l-.127-1.222a.996.996 0 0 1 .097-.615c.1-.18.23-.343.39-.488.165-.15.348-.292.548-.427.2-.14.387-.29.562-.45.176-.165.32-.348.436-.548.12-.205.18-.447.18-.727 0-.18-.036-.34-.106-.48a1.009 1.009 0 0 0-.277-.368 1.223 1.223 0 0 0-.435-.24 1.698 1.698 0 0 0-.54-.082c-.285 0-.528.032-.728.097-.195.06-.362.13-.502.21-.135.075-.25.145-.345.21a.492.492 0 0 1-.255.09.41.41 0 0 1-.39-.225l-.488-.772zM7.95 13.98a1.2 1.2 0 0 1 .082-.443c.06-.14.14-.26.24-.36a1.135 1.135 0 0 1 .81-.33 1.135 1.135 0 0 1 1.05 1.582c-.06.136-.142.254-.247.354-.1.1-.22.177-.36.232-.135.06-.283.09-.443.09-.16 0-.31-.03-.45-.09a1.04 1.04 0 0 1-.36-.232c-.1-.1-.18-.218-.24-.353a1.22 1.22 0 0 1-.082-.45z" fill="#fff"/></symbol><symbol fill="none" viewBox="0 0 36 36" id="lamination" xmlns="http://www.w3.org/2000/svg"><path d="M35.4 0H5.7A5.707 5.707 0 0 0 0 5.7v29.7a.6.6 0 0 0 .6.6h10.2a.6.6 0 0 0 .6-.6v-8.428l1.214 2.103 3 5.197a.601.601 0 0 0 .82.22l8.833-5.1a.601.601 0 0 0 .22-.82l-3-5.197-1.213-2.1 2.1 1.214 5.196 3a.6.6 0 0 0 .82-.22l5.1-8.834a.6.6 0 0 0-.22-.82l-5.196-3-2.102-1.215H35.4a.6.6 0 0 0 .6-.6V.6a.6.6 0 0 0-.6-.6zM18 1.2h4.8v9H18v-9zm4.156 10.2l-3.896 6.748-4.157-2.4 2.51-4.348h5.543zM12 1.2h4.8v9H12v-9zm3.227 10.2l-2.163 3.748-.464-.268-3.694-2.132.78-1.348h5.541zM6.3 12.63l1.487.857L11.1 15.4l-3.745 2.16-.269-.46-2.131-3.692 1.345-.779zm-1.946-.263l-.746-1.293 1.492.862-.746.431zm2.218-.967h1.727l-.432.748-1.267-.732-.028-.016zM5.7 1.2h5.1v9H5.7a4.5 4.5 0 0 1 0-9zM1.2 9.305l.863 1.495H1.2V9.305zM1.2 12h1.556l.858 1.487.709 1.227L5.527 16.8H1.2V12zm0 6h5.02l.394.683L8.992 22.8H1.2V18zm9 16.8h-9V30h9v4.8zm0-6h-9V24h8.484l.516.893V28.8zm.168-6.049L7.958 18.6l4.342-2.507.683.394 4.117 2.378-6.732 3.886zm.955 1.688l-.36-.644 3.934-2.271L18.3 19.56l.895.516 1.952 3.382-3.9 2.25-3.896 2.25-2.028-3.52zm10.425.057l2.4 4.156-7.794 4.5-2.4-4.156 3.897-2.25 3.897-2.25zm11.404-8.142l-4.5 7.794-4.157-2.4 2.25-3.9 2.25-3.9 4.157 2.406zm-5.196-3l-2.25 3.9-2.25 3.9-3.52-2.033-.636-.366 4.242-7.355h1.03l3.384 1.954zM28.8 10.2H24v-9h4.8v9zm6 0H30v-9h4.8v9z" fill="#2B4CB9"/><path d="M4.95 7.5a1.95 1.95 0 1 0 0-3.899 1.95 1.95 0 0 0 0 3.899zm0-2.7a.75.75 0 1 1 0 1.499.75.75 0 0 1 0-1.5z" fill="#2B4CB9"/></symbol><symbol fill="none" viewBox="0 0 40 40" id="money" xmlns="http://www.w3.org/2000/svg"><path d="M26.086 23.493a.773.773 0 0 0-.555-.226.773.773 0 0 0-.781.781c0 .203.086.406.227.555a.773.773 0 0 0 .554.226.773.773 0 0 0 .781-.781.821.821 0 0 0-.226-.555z" fill="#2B4CB9"/><path d="M36.094 11.252h-.844L24.234.229a.788.788 0 0 0-1.109 0l-2.82 2.82L9.008.026a.777.777 0 0 0-.953.555l-2.86 10.671H3.281A3.28 3.28 0 0 0 0 14.533v21.561A3.908 3.908 0 0 0 3.906 40h32.188A3.908 3.908 0 0 0 40 36.094V15.158a3.908 3.908 0 0 0-3.906-3.906zm-.696 1.562h.696a2.35 2.35 0 0 1 2.343 2.344v6.257a1.85 1.85 0 0 1-1.851 1.852h-.805v-3.11c0-2.124-1.71-3.858-3.828-3.905l3.445-3.438zM21.086 4.48l2.586-2.586L33.89 12.111l-4.125 4.125h-1.43l1.867-1.867a.778.778 0 0 0 0-1.101 1.627 1.627 0 0 1 0-2.297.778.778 0 0 0 0-1.102l-4.281-4.28a.778.778 0 0 0-1.102 0 1.627 1.627 0 0 1-2.297 0 .778.778 0 0 0-1.101 0l-10.649 10.64h-1.43l11.743-11.75zm-2.297 8.812a3.728 3.728 0 0 0-3.64 2.937h-2.165l9.063-9.07c1 .594 2.258.594 3.258 0l3.312 3.313a3.201 3.201 0 0 0 0 3.257l-2.492 2.492h-3.703a3.714 3.714 0 0 0-3.633-2.93zm2.016 2.937h-4.032a2.173 2.173 0 0 1 2.016-1.375c.914 0 1.695.57 2.016 1.375zm-12.29-1.39l2.07-7.719a3.145 3.145 0 0 0 1.642-.43 3.084 3.084 0 0 0 1.187-1.202l3.516.945-5.102 5.101-3.312 3.305zM9.36 1.737l9.664 2.586-.82.836-5.047-1.352a.786.786 0 0 0-.96.555c-.11.422-.383.765-.758.984a1.622 1.622 0 0 1-1.235.164.777.777 0 0 0-.953.555L6.523 16.252H5.477L9.359 1.737zM3.281 12.814h1.492l-.921 3.438h-.57a1.724 1.724 0 0 1-1.72-1.719c0-.945.774-1.719 1.72-1.719zm35.157 23.28a2.35 2.35 0 0 1-2.344 2.344H35c.492-.657.781-1.461.781-2.344v-3.14h.469c.813 0 1.57-.266 2.188-.703v3.843zm0-6.89a2.194 2.194 0 0 1-2.188 2.187H19.844a3.28 3.28 0 1 1 0-6.562h2.367c.43 0 .781-.351.781-.781a.784.784 0 0 0-.781-.781h-2.367A4.848 4.848 0 0 0 15 28.11a4.848 4.848 0 0 0 4.844 4.844h14.375v3.14a2.343 2.343 0 0 1-2.305 2.344H5.312V29.64a.784.784 0 0 0-.78-.78.784.784 0 0 0-.782.78v8.789a2.347 2.347 0 0 1-2.188-2.336V17.322c.5.312 1.086.484 1.72.484h28.593a2.35 2.35 0 0 1 2.344 2.344v3.109H28.57a.783.783 0 0 0-.78.781c0 .43.35.781.78.781h8.016c.68 0 1.32-.203 1.852-.547v4.93z" fill="#2B4CB9"/><path d="M5.086 26.04a.773.773 0 0 0-.555-.226.807.807 0 0 0-.554.226.76.76 0 0 0-.227.555.773.773 0 0 0 .781.781.773.773 0 0 0 .781-.781.822.822 0 0 0-.226-.555z" fill="#2B4CB9"/></symbol><symbol fill="none" viewBox="0 0 31 39" id="pdf" xmlns="http://www.w3.org/2000/svg"><path d="M24.857 25.392c-.47.14-1.158.155-1.896.047a9.02 9.02 0 0 1-2.396-.717c1.417-.207 2.516-.143 3.456.192.223.079.589.29.836.478zm-7.904-1.305c-.058.016-.115.03-.171.047-.382.104-.753.205-1.11.296l-.482.123c-.97.246-1.96.498-2.94.797.373-.9.718-1.812 1.057-2.702.25-.66.506-1.333.77-1.998.135.223.275.445.421.669a13.002 13.002 0 0 0 2.455 2.768zm-2.467-10.16c.063 1.11-.176 2.18-.526 3.207-.432-1.27-.633-2.67-.093-3.802.138-.29.252-.445.325-.525.114.176.263.57.294 1.12zM9.426 28.01c-.243.435-.49.843-.745 1.228-.612.927-1.613 1.92-2.128 1.92-.05 0-.112-.009-.201-.104-.058-.06-.067-.104-.064-.163.017-.341.467-.948 1.118-1.51.59-.511 1.259-.965 2.02-1.371zm17.07-2.57c-.08-1.136-1.982-1.864-2-1.87-.736-.262-1.535-.39-2.442-.39-.973 0-2.02.142-3.366.458a11.74 11.74 0 0 1-3.005-3.101 18.987 18.987 0 0 1-.915-1.553c.653-1.567 1.24-3.253 1.134-5.14-.086-1.514-.766-2.531-1.69-2.531-.634 0-1.18.471-1.624 1.403-.792 1.66-.584 3.783.618 6.318a88.065 88.065 0 0 0-1.224 3.105c-.485 1.274-.984 2.59-1.547 3.84-1.578.627-2.874 1.387-3.954 2.32-.708.611-1.56 1.544-1.61 2.518-.023.459.133.88.452 1.217.338.358.763.546 1.23.547 1.543 0 3.028-2.13 3.31-2.556a23.17 23.17 0 0 0 1.617-2.92c1.31-.475 2.705-.83 4.058-1.173l.484-.123c.364-.093.743-.196 1.131-.303.411-.111.834-.227 1.263-.337 1.39.887 2.883 1.466 4.34 1.678 1.227.18 2.317.075 3.054-.31.664-.348.7-.884.685-1.098zm2.987 9.757c0 2.079-1.824 2.207-2.192 2.211H3.758c-2.062 0-2.186-1.844-2.19-2.21V3.801c0-2.08 1.827-2.207 2.19-2.211h15.898l.008.008v6.23c0 1.25.753 3.618 3.603 3.618h6.163l.053.053v23.698zm-1.46-25.172h-4.755c-2.062 0-2.187-1.834-2.19-2.197V3.025l6.944 7.001zm2.874 25.172V10.913L21.08 1.012V.966h-.047L20.243.17H3.758C2.512.17.154.93.154 3.802v31.397c0 1.255.754 3.63 3.604 3.63h23.536c1.246 0 3.603-.759 3.603-3.63z" fill="#2B4CB9"/></symbol><symbol fill="none" viewBox="0 0 14 14" id="phone" xmlns="http://www.w3.org/2000/svg"><path d="M12.739 10.17a.653.653 0 0 0-.554-.675 8.865 8.865 0 0 1-1.94-.482.65.65 0 0 0-.683.143l-1.153 1.152-.418-.237a10.87 10.87 0 0 1-4.08-4.073l-.237-.417.34-.339.81-.81a.649.649 0 0 0 .147-.686 8.809 8.809 0 0 1-.482-1.929.652.652 0 0 0-.657-.558H1.91a.651.651 0 0 0-.648.698c.2 1.878.84 3.683 1.871 5.272a11.856 11.856 0 0 0 3.654 3.646 12.05 12.05 0 0 0 5.242 1.864.651.651 0 0 0 .709-.652V10.17zm1.26 1.915a1.907 1.907 0 0 1-2.094 1.907 13.315 13.315 0 0 1-5.798-2.058A13.103 13.103 0 0 1 2.073 7.91 13.277 13.277 0 0 1 .008 2.08 1.906 1.906 0 0 1 1.91 0h1.916c.96-.01 1.777.693 1.912 1.647.075.568.214 1.125.413 1.657A1.907 1.907 0 0 1 5.72 5.32l-.465.464a9.61 9.61 0 0 0 2.951 2.947l.468-.467a1.914 1.914 0 0 1 2.015-.43c.535.2 1.092.338 1.667.414A1.91 1.91 0 0 1 14 10.176v1.909z" fill="#2A4BB6"/></symbol><symbol fill="none" viewBox="0 0 59 60" id="pig" xmlns="http://www.w3.org/2000/svg"><path d="M55.253 29.977l-2.635-.329a18.175 18.175 0 0 0-3.385-5.35l1.943-8.222a1.136 1.136 0 0 0-1.102-1.397h-.25c-3.225 0-6.121 2.022-7.268 4.997a17.1 17.1 0 0 0-2.488-.783 1.128 1.128 0 0 0-1.363.84 1.128 1.128 0 0 0 .84 1.363 15.672 15.672 0 0 1 7.508 4.18c.08.113.17.204.273.283a15.721 15.721 0 0 1 3.407 5.509c.147.397.5.681.93.738l3.317.42c.523.068.909.511.909 1.034v5.724c0 .522-.386.965-.909 1.033l-3.066.386a1.143 1.143 0 0 0-.943.784 15.662 15.662 0 0 1-5.008 7.439 1.127 1.127 0 0 0-.41.874v6.28c0 .569-.453 1.023-1.021 1.023h-6.588a1.018 1.018 0 0 1-1.022-1.022v-2.396a1.14 1.14 0 0 0-1.135-1.136h-9.54a1.14 1.14 0 0 0-1.136 1.136v2.396c0 .568-.454 1.022-1.022 1.022h-6.587a1.018 1.018 0 0 1-1.023-1.022v-4.43c0-.42-.227-.794-.59-.999a15.777 15.777 0 0 1-8.28-13.878c0-8.7 7.076-15.787 15.787-15.787h1.42a1.14 1.14 0 0 0 1.135-1.136 1.14 1.14 0 0 0-1.136-1.135h-1.42c-8.426 0-15.524 5.803-17.5 13.628h-.83a2.782 2.782 0 1 1-.011-5.565c.625 0 1.136-.51 1.136-1.135a1.14 1.14 0 0 0-1.136-1.136A5.065 5.065 0 0 0 0 29.262a5.065 5.065 0 0 0 5.054 5.054h.409c-.08.704-.125 1.42-.125 2.146A18.047 18.047 0 0 0 14.196 52v3.782a3.296 3.296 0 0 0 3.294 3.294h6.587a3.296 3.296 0 0 0 3.294-3.294v-1.26h7.268v1.26a3.296 3.296 0 0 0 3.294 3.294h6.587a3.296 3.296 0 0 0 3.294-3.294v-5.758a18.094 18.094 0 0 0 5.077-7.462l2.362-.295a3.31 3.31 0 0 0 2.896-3.282V33.26a3.32 3.32 0 0 0-2.896-3.283zm-7.939-7.484a18.038 18.038 0 0 0-2.714-1.829 5.54 5.54 0 0 1 3.986-3.566l-1.272 5.395z" fill="#2B4CB9"/><path d="M45.213 29.762c-.216-.216-.5-.33-.806-.33-.307 0-.59.125-.807.33-.215.215-.329.5-.329.806 0 .306.125.59.33.806.215.216.5.33.806.33.306 0 .59-.125.806-.33.216-.216.33-.5.33-.806 0-.307-.126-.59-.33-.806zM33.3 7.547c-.625 0-1.136.51-1.136 1.136v4.508c0 .625.51 1.136 1.135 1.136a1.14 1.14 0 0 0 1.136-1.136V8.683c0-.625-.5-1.136-1.136-1.136zM34.106 3.765c-.216-.216-.5-.33-.807-.33-.295 0-.59.125-.806.33-.216.216-.33.5-.33.806 0 .295.126.59.33.807.216.215.5.329.806.329.296 0 .59-.125.807-.33.215-.215.329-.5.329-.806 0-.306-.114-.59-.33-.806zM24.078.926a1.14 1.14 0 0 0-1.136 1.135v1.931a1.14 1.14 0 0 0 1.136 1.136c.624 0 1.135-.511 1.135-1.136v-1.93c0-.625-.51-1.136-1.135-1.136zM12.936 36.474a1.14 1.14 0 0 0-1.136-1.136c-.624 0-1.135.511-1.135 1.136v.056a1.13 1.13 0 0 0 1.135 1.125h.012c.624 0 1.135-.511 1.124-1.147v-.034zM17.967 45.412a10.473 10.473 0 0 1-4.339-5.202 1.143 1.143 0 0 0-1.465-.659c-.59.228-.874.886-.658 1.465.999 2.613 2.873 4.861 5.28 6.327a1.141 1.141 0 0 0 1.567-.375 1.14 1.14 0 0 0-.385-1.556zM24.077 6.388a4.77 4.77 0 1 0 0 9.54 4.77 4.77 0 1 0 0-9.54zm0 7.269a2.506 2.506 0 0 1-2.498-2.499 2.506 2.506 0 0 1 2.498-2.498 2.506 2.506 0 0 1 2.499 2.498 2.506 2.506 0 0 1-2.499 2.499zM38.387 25.003h-1.022a4.678 4.678 0 0 0 .704-2.499 4.77 4.77 0 1 0-9.54 0c0 .92.262 1.772.704 2.499h-5.61a1.14 1.14 0 0 0-1.136 1.136c0 .624.511 1.135 1.136 1.135h14.764c.625 0 1.136-.51 1.136-1.136a1.14 1.14 0 0 0-1.136-1.135zm-5.088 0a2.506 2.506 0 0 1-2.498-2.499 2.506 2.506 0 0 1 2.498-2.498 2.506 2.506 0 0 1 2.499 2.498 2.499 2.499 0 0 1-2.499 2.499z" fill="#2B4CB9"/></symbol><symbol fill="none" viewBox="0 0 65 49" id="play" xmlns="http://www.w3.org/2000/svg"><path d="M63.856 11.048s-.628-4.736-2.558-6.82c-2.449-2.733-5.192-2.75-6.45-2.904C45.84.625 32.327.625 32.327.625h-.03s-13.513 0-22.52.699c-1.258.155-4 .17-6.45 2.904-1.928 2.084-2.558 6.82-2.558 6.82S.124 16.604.124 22.16v5.208c0 5.56.644 11.114.644 11.114s.628 4.733 2.558 6.814c2.45 2.733 5.665 2.65 7.097 2.936 5.15.528 21.889.69 21.889.69s13.527-.024 22.537-.714c1.257-.16 4-.177 6.45-2.91 1.927-2.08 2.557-6.814 2.557-6.814s.644-5.556.644-11.114v-5.208c0-5.558-.644-11.114-.644-11.114z" fill="#E02F2F"/><path d="M24.273 12.7v24.148l20.123-12.074L24.273 12.7z" fill="#fff"/></symbol><symbol fill="none" viewBox="0 0 42 42" id="policy" xmlns="http://www.w3.org/2000/svg"><path d="M31.5 23.625V4.375A4.38 4.38 0 0 0 27.125 0H7.875a.875.875 0 0 0-.619.256l-7 7A.875.875 0 0 0 0 7.875v29.75A4.38 4.38 0 0 0 4.375 42h22.75a4.38 4.38 0 0 0 4.375-4.375v-1.75h-1.75v1.75a2.625 2.625 0 0 1-2.625 2.625H4.375a2.625 2.625 0 0 1-2.625-2.625V8.237L8.237 1.75h18.888a2.625 2.625 0 0 1 2.625 2.625v19.25h1.75z" fill="#2B4CB9"/><path d="M7 .875v5.25A.875.875 0 0 1 6.125 7h-1.75v1.75h1.75A2.625 2.625 0 0 0 8.75 6.125V.875H7zM41.744 21.054l-2.423-2.423a.875.875 0 0 0-1.237 0L24.756 31.96a.875.875 0 0 0 0 1.237l2.423 2.423a.875.875 0 0 0 1.238 0L41.743 22.29a.875.875 0 0 0 0-1.237zM27.798 33.763l-1.186-1.186 12.09-12.09 1.186 1.186-12.09 12.09z" fill="#2B4CB9"/><path d="M26.25 34.125v-1.75H24.5V35c0 .483.392.875.875.875H28v-1.75h-1.75zM25.375 3.5h-1.75v1.75h1.75c.483 0 .875.392.875.875v1.75H28v-1.75A2.625 2.625 0 0 0 25.375 3.5zM22.75 12.25h-14a.875.875 0 0 0-.875.875v12.25c0 .334.19.64.49.787l6.086 2.976c.4.228.852.348 1.312.35.434.002.862-.108 1.24-.322l6.132-3.004c.3-.147.49-.453.49-.787v-12.25a.875.875 0 0 0-.875-.875zm-.875 12.579l-5.69 2.79a.91.91 0 0 1-.918-.026L9.625 24.83V14h12.25v10.829z" fill="#2B4CB9"/><path d="M19.506 17.014l-4.631 4.632-2.006-2.007-1.238 1.238 2.625 2.625a.875.875 0 0 0 1.238 0l5.25-5.25-1.238-1.238zM17.5 34.125a.875.875 0 0 1-.875-.875V31.5h-1.75v1.75a2.625 2.625 0 0 0 2.625 2.625h5.25v-1.75H17.5zM21.875 3.5h-1.75v1.75h1.75V3.5z" fill="#2B4CB9"/></symbol><symbol fill="none" viewBox="0 0 40 40" id="price" xmlns="http://www.w3.org/2000/svg"><path d="M38.008 19.984l-1.813-.226a12.504 12.504 0 0 0-2.328-3.68l1.336-5.656a.78.78 0 0 0-.758-.961h-.172a5.384 5.384 0 0 0-5 3.437 11.76 11.76 0 0 0-1.71-.539.776.776 0 0 0-.938.579.776.776 0 0 0 .578.937 10.78 10.78 0 0 1 5.164 2.875c.055.078.117.14.188.195a10.815 10.815 0 0 1 2.343 3.79.787.787 0 0 0 .641.507l2.281.29c.36.046.625.35.625.71v3.938c0 .359-.265.664-.625.71l-2.11.266a.786.786 0 0 0-.648.54c-.624 2-1.812 3.773-3.445 5.116a.775.775 0 0 0-.281.602v4.32a.7.7 0 0 1-.703.703h-4.531a.7.7 0 0 1-.704-.703v-1.648a.783.783 0 0 0-.78-.781h-6.563a.784.784 0 0 0-.782.78v1.65a.7.7 0 0 1-.703.702h-4.53a.7.7 0 0 1-.704-.703v-3.047A.785.785 0 0 0 10.93 34a10.853 10.853 0 0 1-5.696-9.547c0-5.984 4.868-10.86 10.86-10.86h.976c.43 0 .782-.35.782-.78a.784.784 0 0 0-.782-.782h-.976c-5.797 0-10.68 3.992-12.04 9.375h-.57a1.914 1.914 0 1 1-.007-3.828c.43 0 .78-.351.78-.781a.784.784 0 0 0-.78-.781A3.484 3.484 0 0 0 0 19.492a3.484 3.484 0 0 0 3.477 3.477h.28c-.054.484-.085.976-.085 1.476 0 4.399 2.32 8.453 6.094 10.688v2.601A2.267 2.267 0 0 0 12.03 40h4.531a2.267 2.267 0 0 0 2.266-2.266v-.867h5v.867A2.267 2.267 0 0 0 26.094 40h4.531a2.267 2.267 0 0 0 2.266-2.266v-3.96a12.446 12.446 0 0 0 3.492-5.134l1.625-.203A2.278 2.278 0 0 0 40 26.18v-3.938c0-1.14-.86-2.117-1.992-2.258zm-5.461-5.148a12.417 12.417 0 0 0-1.867-1.258 3.811 3.811 0 0 1 2.742-2.453l-.875 3.71z" fill="#2B4CB9"/><path d="M31.102 19.836a.774.774 0 0 0-.555-.227.807.807 0 0 0-.555.227.773.773 0 0 0-.226.555c0 .21.086.406.226.554a.773.773 0 0 0 .555.227c.21 0 .406-.086.555-.227a.773.773 0 0 0 .226-.554.807.807 0 0 0-.226-.555zM22.907 4.555a.784.784 0 0 0-.782.78v3.102c0 .43.352.782.782.782.43 0 .78-.352.78-.782V5.336a.778.778 0 0 0-.78-.781zM23.461 1.953a.773.773 0 0 0-.554-.226.822.822 0 0 0-.555.226.773.773 0 0 0-.227.555c0 .203.086.406.227.554a.773.773 0 0 0 .555.227.822.822 0 0 0 .554-.227.773.773 0 0 0 .227-.554.773.773 0 0 0-.227-.555zM16.563 0a.784.784 0 0 0-.782.781V2.11c0 .43.352.782.781.782.43 0 .782-.352.782-.782V.781A.784.784 0 0 0 16.562 0zM8.898 24.453a.783.783 0 0 0-.78-.781.783.783 0 0 0-.782.781v.04c0 .429.351.773.781.773h.008c.43 0 .781-.352.773-.79v-.023zM12.36 30.602a7.203 7.203 0 0 1-2.985-3.578.786.786 0 0 0-1.007-.454.786.786 0 0 0-.454 1.008 8.807 8.807 0 0 0 3.633 4.352.785.785 0 0 0 1.078-.258.784.784 0 0 0-.265-1.07zM16.563 3.758a3.28 3.28 0 1 0-.001 6.562 3.28 3.28 0 0 0 0-6.562zm0 5a1.724 1.724 0 0 1-1.72-1.719c0-.945.774-1.719 1.72-1.719.945 0 1.718.774 1.718 1.719 0 .945-.773 1.719-1.718 1.719zM26.406 16.563h-.703c.313-.5.485-1.086.485-1.72a3.28 3.28 0 1 0-6.563 0c0 .633.18 1.22.484 1.72H16.25a.783.783 0 0 0-.781.78c0 .43.351.782.781.782h10.156c.43 0 .782-.352.782-.781a.784.784 0 0 0-.782-.782zm-3.5 0a1.724 1.724 0 0 1-1.718-1.72c0-.945.773-1.718 1.718-1.718a1.719 1.719 0 1 1 0 3.438z" fill="#2B4CB9"/></symbol><symbol fill="none" viewBox="0 0 38 38" id="prod" xmlns="http://www.w3.org/2000/svg"><path d="M27.906 32.062a.744.744 0 0 0-.742.742c0 .408.334.742.742.742a.744.744 0 0 0 .742-.742.744.744 0 0 0-.742-.742zM10.094 32.062a.745.745 0 0 0-.742.742c0 .408.334.742.742.742a.744.744 0 0 0 .742-.742.744.744 0 0 0-.742-.742zM5.195 30.577a2.233 2.233 0 0 0-2.226 2.227 2.233 2.233 0 0 0 2.226 2.227 2.233 2.233 0 0 0 2.227-2.227 2.233 2.233 0 0 0-2.227-2.227zm0 2.969a.744.744 0 0 1-.742-.742c0-.409.334-.743.742-.743.409 0 .742.334.742.743a.744.744 0 0 1-.742.742zM32.805 30.577a2.233 2.233 0 0 0-2.227 2.227 2.233 2.233 0 0 0 2.227 2.227 2.233 2.233 0 0 0 2.226-2.227 2.233 2.233 0 0 0-2.226-2.227zm0 2.969a.744.744 0 0 1-.742-.742c0-.409.334-.743.742-.743s.742.334.742.743a.744.744 0 0 1-.742.742zM19 8.604a2.968 2.968 0 0 0-2.969 2.969 2.968 2.968 0 1 0 5.938 0c0-1.64-1.329-2.97-2.969-2.97zm0 4.454a1.489 1.489 0 0 1-1.484-1.485c0-.817.668-1.485 1.484-1.485s1.484.668 1.484 1.485c0 .816-.668 1.484-1.484 1.484z" fill="#2B4CB9"/><path d="M36.39 16.153a2.906 2.906 0 0 0-1.544-.816l-.668-2.005c.52-.408.86-1.039.86-1.752a2.233 2.233 0 0 0-2.226-2.227c-.965 0-1.796.624-2.1 1.485h-3.548v-.742a.744.744 0 0 0-.742-.743h-1.945a5.762 5.762 0 0 0-.809-1.41l.965-1.678a.747.747 0 0 0 .074-.564.761.761 0 0 0-.348-.453l-2.182-1.262.52-3.125V.84c0-.015 0-.03.006-.037V.765.742.727.683v-.03c0-.015-.007-.03-.007-.044 0-.008 0-.023-.007-.03 0-.015-.008-.022-.008-.037s-.007-.022-.007-.037a.056.056 0 0 0-.015-.03c-.007-.015-.007-.022-.015-.037-.007-.007-.007-.022-.015-.03-.007-.015-.015-.022-.015-.037-.007-.007-.007-.022-.014-.03-.008-.007-.015-.022-.023-.03-.007-.007-.015-.021-.022-.029-.007-.007-.015-.022-.022-.03-.008-.007-.015-.022-.023-.03L22.489.2c-.007-.007-.022-.014-.03-.03l-.022-.022c-.007-.007-.022-.014-.03-.022-.007-.007-.014-.015-.022-.015-.007-.007-.022-.014-.037-.022-.007-.007-.022-.007-.03-.015-.007-.007-.022-.007-.03-.015-.014-.007-.021-.007-.036-.014-.008-.008-.023-.008-.03-.008-.015-.007-.03-.007-.037-.015-.007 0-.022-.007-.03-.007-.014 0-.03-.008-.044-.008h-.037c-.015 0-.03 0-.038-.007h-6.063c-.015 0-.03 0-.037.007h-.037c-.015 0-.03.008-.045.008-.007 0-.022.007-.03.007-.014.008-.03.008-.037.015a.057.057 0 0 0-.03.015c-.014.007-.022.007-.037.015-.007.007-.022.007-.03.015-.007.007-.021.007-.029.015-.015.007-.022.014-.037.022-.007.007-.015.015-.022.015a.101.101 0 0 0-.03.022l-.022.022c-.008.008-.022.015-.03.03l-.022.022c-.008.008-.015.015-.022.03a.104.104 0 0 0-.023.03c-.007.007-.014.014-.022.03-.007.007-.015.021-.022.029-.008.007-.015.015-.015.03-.008.014-.015.022-.015.037-.007.007-.007.022-.015.03-.007.014-.007.022-.015.037-.007.007-.007.022-.014.03-.008.014-.008.021-.008.036 0 .015-.007.023-.007.037 0 .008-.008.023-.008.03 0 .015-.007.03-.007.045v.148c0 .015 0 .03.007.037V.87l.52 3.125-2.182 1.262a.74.74 0 0 0-.275 1.017l.965 1.677a5.9 5.9 0 0 0-.809 1.41h-1.952a.744.744 0 0 0-.742.743v.742h-3.54a2.23 2.23 0 0 0-2.1-1.499 2.233 2.233 0 0 0-2.227 2.227c0 .713.334 1.351.86 1.752l-.667 2.004a2.979 2.979 0 0 0-1.551 5.026.739.739 0 1 0 1.046-1.047 1.472 1.472 0 0 1 0-2.093c.282-.282.653-.43 1.047-.438.393 0 .764.156 1.046.438a1.472 1.472 0 0 1 0 2.093.74.74 0 0 0 .527 1.262.76.76 0 0 0 .527-.215 2.949 2.949 0 0 0 .876-2.101 2.973 2.973 0 0 0-1.99-2.806l.55-1.648a2.217 2.217 0 0 0 2.056-1.485h3.54v.743c0 .408.334.742.742.742h1.945c.207.512.475.987.809 1.41l-.965 1.678a.747.747 0 0 0-.074.564.761.761 0 0 0 .348.453l2.568 1.485a.743.743 0 0 0 1.017-.275l.965-1.67a5.072 5.072 0 0 0 1.64 0l.965 1.67a.747.747 0 0 0 1.017.275l2.568-1.485a.74.74 0 0 0 .274-1.017l-.98-1.678c.335-.43.602-.898.81-1.41h1.937a.744.744 0 0 0 .742-.742v-.743h3.54A2.224 2.224 0 0 0 32.76 13.8l.55 1.648a3.018 3.018 0 0 0-1.121.705 2.942 2.942 0 0 0-.869 2.101c0 .794.312 1.537.869 2.1a.74.74 0 1 0 1.046-1.046 1.472 1.472 0 0 1 0-2.093c.282-.282.653-.43 1.047-.438.393 0 .764.156 1.046.438a1.472 1.472 0 0 1 0 2.093.74.74 0 0 0 .527 1.262.76.76 0 0 0 .527-.215 2.942 2.942 0 0 0 .868-2.101c0-.794-.304-1.537-.86-2.1zM5.194 12.315a.744.744 0 0 1-.742-.742c0-.408.334-.742.742-.742.409 0 .742.334.742.742a.744.744 0 0 1-.742.742zM21.093 1.477l-.468 2.829-.809 1.395a5.067 5.067 0 0 0-1.64 0l-.809-1.395-.46-2.829h4.186zm4.587 10.838h-1.73a.748.748 0 0 0-.712.527 4.397 4.397 0 0 1-1.017 1.775.75.75 0 0 0-.104.883l.861 1.485-1.284.742-.853-1.485a.745.745 0 0 0-.817-.349c-.37.09-.712.134-1.024.134-.312 0-.653-.045-1.024-.134a.748.748 0 0 0-.817.35l-.853 1.484-1.284-.742.86-1.485a.753.753 0 0 0-.103-.883 4.447 4.447 0 0 1-1.017-1.775.748.748 0 0 0-.712-.527h-1.73v-1.484h1.73a.748.748 0 0 0 .712-.527 4.397 4.397 0 0 1 1.017-1.775.75.75 0 0 0 .104-.883l-.861-1.485 1.284-.742.853 1.485c.164.282.498.43.817.349.37-.09.712-.134 1.024-.134.312 0 .653.045 1.024.134a.749.749 0 0 0 .817-.35l.853-1.484 1.284.742-.86 1.485a.752.752 0 0 0 .103.883 4.447 4.447 0 0 1 1.017 1.775.748.748 0 0 0 .712.527h1.73v1.484zm7.125 0a.744.744 0 0 1-.742-.742c0-.408.334-.742.742-.742s.742.334.742.742a.744.744 0 0 1-.742.742zM33.547 27.66v-4.21a.744.744 0 0 0-.742-.742h-6.383a.744.744 0 0 0-.742.742v4.157h-2.97V23.45a.744.744 0 0 0-.741-.742H16.03a.744.744 0 0 0-.742.742v4.157H12.32V23.45a.744.744 0 0 0-.742-.742H5.195a.744.744 0 0 0-.742.742v4.21a5.157 5.157 0 0 0-2.932 1.47A5.167 5.167 0 0 0 0 32.803 5.202 5.202 0 0 0 5.195 38h27.61a5.164 5.164 0 0 0 3.673-1.522A5.167 5.167 0 0 0 38 32.804a5.206 5.206 0 0 0-4.453-5.145zm-6.383-3.467h4.898v3.414h-4.898v-3.414zm-10.39 0h4.453v3.414h-4.454v-3.414zm-10.837 0h4.899v3.414H5.937v-3.414zm29.495 11.239a3.706 3.706 0 0 1-2.627 1.083H5.195a3.713 3.713 0 0 1-3.71-3.711c0-.995.385-1.923 1.083-2.628a3.706 3.706 0 0 1 2.627-1.084h27.61a3.713 3.713 0 0 1 3.71 3.712c0 .994-.385 1.922-1.083 2.628z" fill="#2B4CB9"/><path d="M24.938 32.062H13.063a.745.745 0 0 0-.743.742c0 .408.334.742.742.742h11.876a.744.744 0 0 0 .742-.742.745.745 0 0 0-.742-.742z" fill="#2B4CB9"/></symbol><symbol fill="none" viewBox="0 0 47 37" id="size" xmlns="http://www.w3.org/2000/svg"><path d="M12.941 14.311c3.38 0 6.13-2.042 6.13-4.553 0-2.51-2.75-4.553-6.13-4.553s-6.13 2.043-6.13 4.553 2.75 4.553 6.13 4.553zm0-7.437c2.405 0 4.437 1.32 4.437 2.884 0 1.564-2.033 2.884-4.437 2.884-2.404 0-4.436-1.32-4.436-2.884 0-1.563 2.031-2.884 4.436-2.884z" fill="#2B4CB9"/><path d="M25.866 17.847V9.758C25.866 4.378 20.068 0 12.94 0 5.815 0 .017 4.377.017 9.758c0 .11.008.218.013.326H0v4.73h.017v13.915C.017 33.289 3.783 37 8.412 37H47V17.847H25.866zm-.241 0h-.085c.03-.023.058-.017.085 0zm-1.128 0h-.085c.027-.017.055-.023.085 0zM12.941 1.67c6.192 0 11.23 3.629 11.23 8.09 0 4.46-5.038 8.088-11.23 8.088S1.711 14.22 1.711 9.758c0-4.46 5.038-8.089 11.23-8.089zm11.23 12.91v3.269h-4.008c1.646-.84 3.02-1.961 4.008-3.268zm12.833 20.752h-5.855v-4.46h-1.694v4.46H23.6V26.5h-1.694v8.83h-5.854v-4.46H14.36v4.46H8.505V26.5H6.81v8.631c-2.923-.71-5.1-3.307-5.1-6.403v-14.15c2.228 2.946 6.426 4.938 11.23 4.938h24.063v15.814zm8.302 0h-6.608V19.517h6.608V35.33z" fill="#2B4CB9"/></symbol><symbol fill="none" viewBox="0 0 51 52" id="sliding" xmlns="http://www.w3.org/2000/svg"><path d="M1.5 51.856h48a1.5 1.5 0 0 0 1.5-1.5v-48a1.5 1.5 0 0 0-1.5-1.5h-48a1.5 1.5 0 0 0-1.5 1.5v48a1.5 1.5 0 0 0 1.5 1.5zm25.5-48h21v45H27v-45zm-24 0h21v45H3v-45z" fill="#2B4CB9"/><path d="M38.56 20.795a1.499 1.499 0 1 0-2.12 2.121l1.939 1.94H33a1.5 1.5 0 1 0 0 3h5.379l-1.94 1.938a1.499 1.499 0 0 0 1.061 2.562c.384 0 .767-.147 1.06-.44l4.5-4.5a1.499 1.499 0 0 0 0-2.12l-4.5-4.5zM18 24.856h-5.379l1.94-1.94a1.499 1.499 0 1 0-2.121-2.12l-4.5 4.5a1.499 1.499 0 0 0 0 2.12l4.5 4.5a1.497 1.497 0 0 0 2.121 0 1.499 1.499 0 0 0 0-2.12l-1.94-1.94h5.38a1.5 1.5 0 1 0 0-3z" fill="#2B4CB9"/></symbol><symbol fill="none" viewBox="0 0 45 51" id="snow" xmlns="http://www.w3.org/2000/svg"><path d="M42.76 31.226l-1.663-2.88-5.463 3.154-9.927-5.73 9.927-5.729 5.457 3.15 1.661-2.88-3.789-2.186 5.784-3.342-1.66-2.876-5.799 3.342v-4.394h-3.322v6.312l-9.944 5.738V11.431L29.5 8.27l-1.661-2.877-3.816 2.2V.91h-3.326v6.674l-3.793-2.19-1.662 2.88 5.455 3.15V22.88l-9.927-5.73v-6.295H7.442v4.38l-5.781-3.338L0 14.775l5.788 3.34-3.803 2.195 1.66 2.878 5.468-3.153 9.94 5.735-9.94 5.74-5.47-3.16-1.665 2.88 3.81 2.198-5.785 3.338 1.665 2.876 5.774-3.334v4.378h3.327v-6.295l9.927-5.73V40.12l-5.451 3.143 1.664 2.88 3.787-2.187v6.674h3.326v-6.681l3.809 2.198 1.662-2.88-5.47-3.156V28.638l9.943 5.736v6.312h3.322v-4.392l5.79 3.34 1.666-2.878-5.781-3.337 3.796-2.193z" fill="#2B4CB9"/></symbol><symbol fill="none" viewBox="0 0 38 37" id="specialist" xmlns="http://www.w3.org/2000/svg"><path d="M37.5 16.72h-.501c0-3.611-2.504-6.763-6.006-7.656v-.258c0-.818-.674-1.484-1.502-1.484H28.49c-.828 0-1.502.666-1.502 1.484v.258c-3.502.893-6.006 4.045-6.006 7.656h-.5c-.277 0-.5.222-.5.495s.223.494.5.494h1.024c.164 2.768 1.676 5.156 3.858 6.43h-.378c-2.483 0-4.504 1.998-4.504 4.452v7.914c0 .273.224.495.5.495H37c.276 0 .5-.222.5-.495v-7.914c0-2.454-2.02-4.451-4.504-4.451h-.378c2.182-1.275 3.694-3.663 3.858-6.43h1.024c.277 0 .5-.222.5-.495a.498.498 0 0 0-.5-.495zm-1.502 0h-5.005v-6.637c2.934.863 5.005 3.563 5.005 6.637zM27.99 8.806c0-.272.224-.494.5-.494h1.001c.276 0 .5.222.5.494v7.914H27.99V8.806zm-1.002 1.277v6.637h-5.005c0-3.074 2.071-5.774 5.005-6.637zM21.483 28.59c0-1.74 1.308-3.181 3.003-3.423v2.928c-.276 0-.5.222-.5.495v7.42h-2.503v-7.42zm3.503 7.42v-6.925h8.009v6.925h-8.009zm11.512-7.42v7.42h-2.502v-7.42a.498.498 0 0 0-.5-.495v-2.928c1.694.242 3.002 1.683 3.002 3.423zm-4.004-3.462v2.967h-7.007V25.13h7.007zm-3.503-.99c-3.432 0-6.251-2.842-6.49-6.43h12.98c-.24 3.588-3.059 6.43-6.49 6.43z" fill="#fff"/><path d="M30.993 30.075h-4.004c-.277 0-.5.222-.5.495v1.978c0 1.364 1.122 2.473 2.502 2.473 1.38 0 2.503-1.109 2.503-2.473V30.57a.498.498 0 0 0-.501-.495zm-.5 2.473c0 .818-.674 1.484-1.502 1.484a1.495 1.495 0 0 1-1.502-1.484v-1.484h3.003v1.484zM.876 0h14.542c.484 0 .876.38.876.848v10.345c0 .469-.392.848-.876.848h-1.69l1.063 3.346-4.984-3.212a.895.895 0 0 0-.48-.139H.877c-.484 0-.877-.38-.877-.848V.848C0 .38.393 0 .876 0zm.142 11.074h8.308c.375 0 .738.105 1.055.307l2.608 1.68-.236-.743-.393-1.238H15.276V.962H1.018v10.112zm12.123-8.258H2.98v.962h10.162v-.962zm0 2.74H2.98v.961h10.162v-.961zm0 2.696H2.98v.962h10.162v-.962z" fill="#fff"/></symbol><symbol fill="none" viewBox="0 0 50 50" id="square" xmlns="http://www.w3.org/2000/svg"><path d="M49.012 39.46H10.559V1.007a.979.979 0 0 0-.976-.976H.995a.979.979 0 0 0-.976.976v48.017c0 .537.439.976.976.976H30.37c.537 0 .976-.44.976-.976a.979.979 0 0 0-.976-.976H10.559v-6.636h4.167v3.025c0 .537.44.976.976.976.537 0 .976-.44.976-.976v-3.025h2.703v1.385c0 .537.44.976.977.976.536 0 .976-.439.976-.976v-1.385h2.693v3.025c0 .537.44.976.976.976.537 0 .976-.44.976-.976v-3.025h2.703v1.385c0 .537.44.976.976.976.537 0 .976-.439.976-.976v-1.385h2.704v3.025c0 .537.439.976.976.976.536 0 .976-.44.976-.976v-3.025h2.693v1.385c0 .537.44.976.976.976.537 0 .976-.439.976-.976v-1.385h2.704v3.025c0 .537.439.976.975.976.537 0 .977-.44.977-.976v-3.025h3.445v6.636h-9.76a.979.979 0 0 0-.976.976c0 .537.44.976.976.976h10.736c.536 0 .975-.44.975-.976v-8.588a.979.979 0 0 0-.975-.976zM8.607 5.428H5.582a.979.979 0 0 0-.976.976c0 .537.439.976.976.976h3.025v2.703H7.221a.979.979 0 0 0-.976.976c0 .537.44.976.976.976h1.386v2.704H5.582a.979.979 0 0 0-.976.976c0 .536.439.976.976.976h3.025v2.703H7.221a.979.979 0 0 0-.976.976c0 .537.44.976.976.976h1.386v2.694H5.582a.979.979 0 0 0-.976.976c0 .536.439.976.976.976h3.025v2.703H7.221a.979.979 0 0 0-.976.976c0 .537.44.976.976.976h1.386v2.703H5.582a.979.979 0 0 0-.976.976c0 .537.439.976.976.976h3.025v2.694H7.221a.979.979 0 0 0-.976.976c0 .536.44.976.976.976h1.386v2.703H5.582a.979.979 0 0 0-.976.976c0 .537.439.976.976.976h3.025v3.445H1.97V1.983h6.637v3.445z" fill="#2B4CB9"/><path d="M34.996 48.331a.966.966 0 0 0-.692-.283c-.264 0-.508.108-.693.283a.95.95 0 0 0-.283.693c0 .264.107.508.283.693.185.185.43.283.693.283.263 0 .507-.107.692-.283a.966.966 0 0 0 .284-.693.966.966 0 0 0-.284-.693zM32.03 10.025a.979.979 0 0 0-.976.976v1.532c0 .537.44.976.976.976.537 0 .976-.44.976-.976v-1.532a.979.979 0 0 0-.976-.976z" fill="#2B4CB9"/><path d="M44.23 11.206L32.517 4.442a.97.97 0 0 0-.976 0L19.83 11.206a.98.98 0 0 0-.488.849V25.58a.98.98 0 0 0 .488.85l11.712 6.763a.96.96 0 0 0 .488.127.96.96 0 0 0 .488-.127l11.711-6.763a.98.98 0 0 0 .488-.85V12.045a.976.976 0 0 0-.488-.84zM31.053 6.98v.322c0 .537.439.976.976.976.536 0 .976-.44.976-.976V6.98l8.783 5.075-8.783 5.075v-.898a.979.979 0 0 0-.976-.976.979.979 0 0 0-.976.976v.898l-8.784-5.075 8.784-5.075zm11.711 16.903l-.254-.146a.977.977 0 0 0-1.337.361.977.977 0 0 0 .361 1.337l.254.146-9.76 5.632-9.759-5.632.254-.146a.986.986 0 0 0 .361-1.337.986.986 0 0 0-1.337-.361l-.254.146v-10.14l8.774 5.075-.79.459a.986.986 0 0 0-.362 1.337.986.986 0 0 0 1.337.361l.8-.459v3.328c0 .537.44.976.977.976.536 0 .976-.439.976-.976v-3.347l.8.459a.985.985 0 0 0 .488.126.977.977 0 0 0 .488-1.825l-.79-.458 8.773-5.075v10.16z" fill="#2B4CB9"/><path d="M32.723 26.85a.966.966 0 0 0-.693-.283c-.263 0-.507.108-.693.283a.966.966 0 0 0-.283.693c0 .264.108.508.283.693a.95.95 0 0 0 .693.283c.264 0 .508-.107.693-.283a.95.95 0 0 0 .283-.693.99.99 0 0 0-.283-.693zM39.31 21.883l-1.327-.762a.978.978 0 0 0-1.337.362.978.978 0 0 0 .361 1.337l1.328.76a.985.985 0 0 0 .487.128.982.982 0 0 0 .85-.488.986.986 0 0 0-.361-1.337zM27.404 21.483a.986.986 0 0 0-1.337-.361l-1.327.76a.986.986 0 0 0-.361 1.338.986.986 0 0 0 1.337.361l1.327-.761a.971.971 0 0 0 .361-1.337z" fill="#2B4CB9"/></symbol><symbol fill="none" viewBox="0 0 32 36" id="tech" xmlns="http://www.w3.org/2000/svg"><path d="M31.301 5.977h-2.683a.681.681 0 0 0-.111-.148L22.916.204a.673.673 0 0 0-.49-.204H3.984a.703.703 0 0 0-.7.703v5.274H.7A.703.703 0 0 0 0 6.68v22.008c0 .386.314.703.699.703h11.808v2.39H9.782a.703.703 0 0 0-.699.703v2.813c0 .387.314.703.699.703h12.436a.703.703 0 0 0 .699-.703v-2.813a.703.703 0 0 0-.699-.703h-2.724v-2.39H31.3a.703.703 0 0 0 .699-.703V6.68a.703.703 0 0 0-.699-.703zm-8.174-3.58l3.207 3.228h-3.207V2.398zM1.397 7.384h1.887v16.523H1.397V7.383zM21.52 33.188v1.406H10.48v-1.407h11.04zm-7.616-1.407v-2.39h4.192v2.39h-4.192zm16.699-3.797H1.397v-2.672h29.206v2.672zm0-4.078h-1.887v-6.222a.703.703 0 0 0-.699-.704.703.703 0 0 0-.698.704v6.222H4.68V22.36h4.22a.703.703 0 0 0 0-1.406h-4.22V1.406H21.73v4.922c0 .387.315.703.699.703h4.89v5.063c0 .386.315.703.7.703a.703.703 0 0 0 .698-.703V7.383h1.887v16.523z" fill="#2B4CB9"/><path d="M28.513 14.435a.69.69 0 0 0-.496-.204.732.732 0 0 0-.496.204.698.698 0 0 0-.203.5c0 .189.077.365.203.498a.69.69 0 0 0 .496.204.732.732 0 0 0 .496-.204.698.698 0 0 0 .203-.499.728.728 0 0 0-.203-.5zM16.426 26.15a.69.69 0 0 0-.496-.205.72.72 0 0 0-.496.204.698.698 0 0 0-.203.5c0 .182.077.365.203.499a.69.69 0 0 0 .496.204.72.72 0 0 0 .496-.204.699.699 0 0 0 .203-.5.682.682 0 0 0-.203-.499zM22.777 8.522L16.35 4.788a.69.69 0 0 0-.698 0L9.223 8.522a.706.706 0 0 0-.35.612V16.6c0 .253.133.485.35.611l6.428 3.734c.105.063.23.091.35.091a.683.683 0 0 0 .348-.09l6.428-3.735a.706.706 0 0 0 .35-.611V9.134a.706.706 0 0 0-.35-.612zm-7.476 10.596l-4.331-2.517 1.362-.795a.713.713 0 0 0 .259-.963.704.704 0 0 0-.958-.26l-1.362.801V10.35l4.332 2.517-.81.471a.713.713 0 0 0-.26.964.702.702 0 0 0 .958.26l.81-.471v5.027zm.7-9.098a.703.703 0 0 0-.7.703v.928L10.97 9.134l4.332-2.518V7.98c0 .387.314.704.698.704a.703.703 0 0 0 .699-.704V6.616l4.332 2.518-4.332 2.517v-.928a.703.703 0 0 0-.699-.704zm5.728 5.364l-.999-.583a.697.697 0 0 0-.957.26.707.707 0 0 0 .259.963l.999.584-4.332 2.517v-5.034l1.125.654a.702.702 0 0 0 .957-.26.707.707 0 0 0-.259-.964l-1.124-.654 4.331-2.517v5.034zM11.787 21.157a.69.69 0 0 0-.496-.204.733.733 0 0 0-.496.204.698.698 0 0 0-.203.5c0 .19.077.365.203.498a.69.69 0 0 0 .496.204.732.732 0 0 0 .496-.204.687.687 0 0 0 .203-.499.728.728 0 0 0-.203-.499z" fill="#2B4CB9"/></symbol><symbol fill="none" viewBox="0 0 48 63" id="temp" xmlns="http://www.w3.org/2000/svg"><path d="M21.623 15.313l-.826-1.432-2.717 1.568-4.936-2.849 4.936-2.849 2.714 1.566.825-1.431-1.884-1.087 2.876-1.662-.826-1.43-2.882 1.662V5.184H17.25v3.138l-4.944 2.853V5.47L15.03 3.9l-.826-1.431-1.897 1.093V.24h-1.655v3.318L8.768 2.469 7.94 3.901l2.712 1.566v5.696L5.718 8.314v-3.13H4.063v2.177l-2.875-1.66-.826 1.432 2.878 1.66-1.89 1.092.825 1.43 2.718-1.567L9.836 12.6l-4.943 2.854-2.72-1.571-.827 1.432 1.894 1.092-2.876 1.66.828 1.43 2.87-1.657v2.177h1.655v-3.13l4.936-2.85v5.698l-2.71 1.563.827 1.431 1.883-1.087v3.319h1.654v-3.322l1.893 1.093.827-1.433-2.72-1.568v-5.705l4.944 2.852v3.139h1.652v-2.185l2.879 1.661.828-1.43-2.875-1.66 1.888-1.09zM40.59 51.041V36.56c0-.591-.548-1.108-1.174-1.108-.627 0-1.175.517-1.175 1.108V51.04c-1.567.443-2.664 1.847-2.664 3.473 0 1.994 1.724 3.694 3.917 3.694 2.193 0 3.917-1.626 3.917-3.694-.078-1.626-1.254-2.956-2.82-3.473z" fill="#2B4CB9"/><path d="M45.135 48.677V26.142c0-2.955-2.585-5.393-5.718-5.393-3.134 0-5.72 2.438-5.72 5.393v22.535c-1.644 1.477-2.74 3.546-2.74 5.837 0 4.432 3.76 7.979 8.46 7.979 4.7 0 8.46-3.547 8.46-7.98 0-2.29-1.019-4.359-2.742-5.836zm-5.718 11.6c-3.369 0-6.11-2.587-6.11-5.764 0-1.625.704-3.103 1.958-4.21l.783-.666V26.142c0-1.773 1.488-3.177 3.368-3.177s3.369 1.404 3.369 3.177v23.495l.783.665c1.254 1.108 1.959 2.586 1.959 4.212 0 3.25-2.742 5.762-6.11 5.762zM31.034 24.96h-6.189v2.217h6.189v-2.216zM31.034 29.541H27.9v2.216h3.134v-2.216zM31.034 34.196h-6.189v2.216h6.189v-2.216zM31.034 38.776H27.9v2.217h3.134v-2.217z" fill="#2B4CB9"/></symbol><symbol fill="none" viewBox="0 0 30 55" id="warm" xmlns="http://www.w3.org/2000/svg"><path d="M20.51 39.911v-19.08c0-.778-.715-1.46-1.531-1.46s-1.53.682-1.53 1.46v19.08a4.762 4.762 0 0 0-3.47 4.576c0 2.628 2.245 4.867 5.102 4.867s5.102-2.142 5.102-4.867c-.102-2.142-1.633-3.894-3.674-4.576z" fill="#2B4CB9"/><path d="M26.428 36.797V7.107C26.428 3.211 23.061 0 18.98 0c-4.082 0-7.45 3.212-7.45 7.106v29.69c-2.142 1.947-3.57 4.673-3.57 7.69C7.96 50.328 12.856 55 18.98 55 25.102 55 30 50.327 30 44.487c0-3.018-1.327-5.744-3.572-7.69zM18.98 52.08c-4.388 0-7.96-3.407-7.96-7.593 0-2.142.919-4.089 2.552-5.549l1.02-.876V7.107c0-2.337 1.939-4.187 4.388-4.187 2.448 0 4.387 1.85 4.387 4.186V38.062l1.02.876c1.633 1.46 2.552 3.407 2.552 5.549 0 4.283-3.572 7.593-7.96 7.593zM8.061 5.549H0v2.92h8.061V5.55zM8.061 11.584H3.979v2.92h4.082v-2.92zM8.061 17.717H0v2.92h8.061v-2.92zM8.061 23.752H3.979v2.92h4.082v-2.92z" fill="#2B4CB9"/></symbol><symbol fill="none" viewBox="0 0 38 38" id="warranty" xmlns="http://www.w3.org/2000/svg"><path d="M4.09 10.977a.734.734 0 0 0-.528-.215.734.734 0 0 0-.742.742.78.78 0 0 0 .216.527.735.735 0 0 0 .526.215c.2 0 .386-.082.527-.215a.753.753 0 0 0 0-1.054z" fill="#2B4CB9"/><path d="M37.903 22.926l-4.194-7.459a5.646 5.646 0 0 0-4.475-7.741V4.75c0-2.62-2.13-4.75-4.75-4.75H4.75C2.13 0 0 2.13 0 4.75c0 .408.334.742.742.742H2.82V8.09c0 .408.334.742.742.742a.744.744 0 0 0 .743-.742V5.492h16.179a.744.744 0 0 0 .742-.742 3.266 3.266 0 0 1 6.531 0v2.976a5.646 5.646 0 0 0-4.898 5.589c0 .809.17 1.58.482 2.27l-4.23 7.326a.742.742 0 0 0 .846 1.084l2.783-.787.713 2.806a.738.738 0 0 0 .72.556.75.75 0 0 0 .638-.363l2.946-5.032V33.25c0 1.262.497 2.412 1.306 3.266H7.57a3.266 3.266 0 0 1-3.265-3.266V14.621a.744.744 0 0 0-.743-.742.744.744 0 0 0-.742.742V33.25c0 2.62 2.13 4.75 4.75 4.75h24.937c2.62 0 4.75-2.13 4.75-4.75a.744.744 0 0 0-.742-.742H29.24V21.1l2.954 5.114c.134.23.379.371.646.371.037 0 .067 0 .104-.007a.748.748 0 0 0 .616-.55l.712-2.805 2.783.787a.754.754 0 0 0 .787-.253.754.754 0 0 0 .06-.83zM19.8 4.008H1.566A3.265 3.265 0 0 1 4.75 1.484h16.298A4.707 4.707 0 0 0 19.8 4.008zm15.883 29.984a3.265 3.265 0 0 1-3.184 2.524 3.277 3.277 0 0 1-3.184-2.524h6.368zM24.447 23.906l-.453-1.789a.776.776 0 0 0-.349-.46.733.733 0 0 0-.571-.074l-1.766.497 2.931-5.076a5.663 5.663 0 0 0 3.17 1.848l-2.962 5.054zm4.052-6.427a4.159 4.159 0 0 1-4.156-4.157A4.159 4.159 0 0 1 28.5 9.166a4.159 4.159 0 0 1 4.156 4.156A4.159 4.159 0 0 1 28.5 17.48zm5.44 4.104a.733.733 0 0 0-.571.074.777.777 0 0 0-.349.46l-.453 1.774-2.916-5.054a5.639 5.639 0 0 0 3.176-1.915l2.902 5.165-1.789-.504z" fill="#2B4CB9"/><path d="M14.598 20.262H8.164a.744.744 0 0 0-.742.742c0 .408.334.742.742.742h6.442a.744.744 0 0 0 .742-.742.746.746 0 0 0-.75-.742zM14.598 23.898H8.164a.744.744 0 0 0-.742.743c0 .408.334.742.742.742h6.442a.744.744 0 0 0 .742-.742.746.746 0 0 0-.75-.743zM11.979 8.654H8.164a.744.744 0 0 0-.742.742c0 .408.334.742.742.742h3.815a.744.744 0 0 0 .742-.742.744.744 0 0 0-.742-.742zM19.007 16.254H8.164a.744.744 0 0 0-.742.742c0 .408.334.742.742.742h10.843a.744.744 0 0 0 .742-.742.744.744 0 0 0-.742-.742zM23.282 30.303h-3.533a.744.744 0 0 0-.742.743c0 .408.334.742.742.742h3.533a.744.744 0 0 0 .742-.742.744.744 0 0 0-.742-.742zM16.157 30.303h-.015a.744.744 0 0 0-.742.743c0 .408.334.742.742.742h.015a.744.744 0 0 0 .742-.742.744.744 0 0 0-.742-.742z" fill="#2B4CB9"/></symbol><symbol fill="none" viewBox="0 0 47 44" id="win-ark" xmlns="http://www.w3.org/2000/svg"><path d="M2.834 41.013h21.02c.308 0 .515-.202.515-.506V13.165c0-5.975-4.946-10.836-11.026-10.836-6.079 0-11.025 4.861-11.025 10.836v27.342c0 .253.258.506.516.506zm11.025-18.228h9.48v8.102h-9.48v-8.102zm-1.03 8.102h-9.48v-8.102h9.48v8.102zm10.51-9.114h-9.48V13.67h9.48v8.102zm-9.48-18.431c2.266.101 4.379.962 5.976 2.38l-5.976 6.177V3.342zm-1.03 8.557L6.8 5.722a10.411 10.411 0 0 1 5.976-2.38v8.557h.051zm0 9.874h-9.48V13.67h9.48v8.102zm-9.48 10.126h9.48v8.102h-9.48v-8.102zm19.99 8.102h-9.48v-8.102h9.48v8.102zm-.052-27.343h-8.759l6.028-6.228c1.597 1.62 2.627 3.798 2.73 6.228zM6.079 6.43l6.028 6.228H3.349c.154-2.43 1.133-4.607 2.73-6.228z" fill="#2B4CB9"/><path d="M.515 43.241h25.502c.31 0 .515-.202.515-.506V12.051c-.154-3.089-1.545-6.127-3.864-8.355C20.195 1.316 16.898 0 13.292 0 6.028 0 .36 5.165 0 12.05v30.634c0 .304.258.557.515.557zM13.292 1.013c5.719 0 11.9 4.152 12.261 11.088V42.23H1.03V12.102c.31-6.33 5.564-11.09 12.262-11.09zM46.394 9.251l-.507-.879-1.666.963-3.027-1.749 3.027-1.748 1.664.96.507-.878-1.156-.667L47 4.233l-.506-.877-1.768 1.02V3.035h-1.013V4.96L40.68 6.71v-3.5l1.67-.965-.506-.878-1.164.671V0h-1.014v2.037l-1.157-.669-.506.88 1.663.96v3.496l-3.027-1.748V3.035h-1.015V4.37l-1.763-1.018-.506.878 1.765 1.02-1.16.669.507.878 1.667-.962 3.031 1.75-3.031 1.752-1.668-.964-.508.879 1.162.67-1.764 1.019.508.877 1.76-1.017v1.336h1.015v-1.921l3.027-1.749v3.497l-1.662.96.507.878 1.155-.667v2.036h1.014v-2.038l1.162.67.507-.879-1.669-.963v-3.5l3.033 1.75v1.926h1.013v-1.34l1.766 1.019.507-.878-1.763-1.019 1.158-.669zM40.889 37.965v-7.632c0-.312-.29-.584-.62-.584s-.618.272-.618.584v7.632a1.908 1.908 0 0 0-1.403 1.83c0 1.05.908 1.947 2.063 1.947 1.155 0 2.063-.857 2.063-1.947-.041-.857-.66-1.558-1.485-1.83z" fill="#2B4CB9"/><path d="M43.282 36.719V24.842c0-1.557-1.361-2.842-3.011-2.842-1.65 0-3.012 1.285-3.012 2.843v11.876c-.867.778-1.444 1.869-1.444 3.076 0 2.336 1.98 4.205 4.456 4.205 2.475 0 4.455-1.869 4.455-4.205 0-1.207-.536-2.298-1.444-3.076zm-3.011 6.113c-1.775 0-3.218-1.363-3.218-3.037 0-.857.37-1.636 1.031-2.22l.412-.35V24.842c0-.934.784-1.674 1.774-1.674s1.774.74 1.774 1.675v12.382l.413.35c.66.584 1.031 1.363 1.031 2.22 0 1.713-1.444 3.037-3.218 3.037zM35.856 24.22h-3.26v1.167h3.26V24.22zM35.856 26.634h-1.65v1.168h1.65v-1.168zM35.856 29.087h-3.26v1.168h3.26v-1.168zM35.856 31.501h-1.65v1.168h1.65v-1.168z" fill="#2B4CB9"/></symbol></svg>