<svg width="120" height="35" viewBox="0 0 120 35" fill="none" xmlns="http://www.w3.org/2000/svg">
<path fill-rule="evenodd" clip-rule="evenodd" d="M115.91 0.331057H115.008V2.73113H114.673V0.331057H113.772V0H115.935V0.331057H115.91ZM26.3185 19.9733H19.9063L12.8502 0.110393H19.2625L26.3185 19.9733ZM18.6702 19.9733H12.2579L6.69554 4.08296H13.1078L18.6702 19.9733ZM10.893 20.0007H0L5.35636 4.22083L10.893 20.0007ZM5.35636 7.58648C5.78513 8.75686 6.66686 11.4627 7.47117 13.9311L7.4808 13.9604C8.17052 16.0769 8.80163 18.0133 9.03895 18.649H1.87989C2.07454 18.1001 2.53428 16.5817 3.06916 14.8149L3.07167 14.8065C3.88068 12.1343 4.86072 8.89728 5.35636 7.58648ZM30.104 11.7522C30.104 16.7454 32.9109 19.918 37.5978 19.918C39.2201 19.918 40.9713 19.587 42.2847 18.6214L42.3877 17.1869C41.9757 17.573 40.173 19.0352 37.8811 19.0352C34.5334 19.0352 32.1899 16.2489 32.1899 11.8625C32.1899 8.00034 34.1213 4.60709 38.0356 4.60709C40.2245 4.60709 41.7953 6.15198 42.1044 6.56583L42.2589 6.53823C42.3619 5.93132 42.4907 5.352 42.6967 4.77267C41.2546 4.11056 39.658 3.72431 38.1129 3.72431C33.6319 3.72431 30.104 6.6209 30.104 11.7522ZM55.5647 19.6155L55.5605 19.6159L55.5576 19.6161L55.5552 19.6164L55.5531 19.6165C55.3756 19.6296 55.2038 19.6422 55.0319 19.6422C54.4138 17.7386 53.6413 15.5592 52.7914 13.4902H47.3836C47.287 13.7507 47.1899 14.0107 47.0929 14.2707C46.4399 16.0207 45.7876 17.7688 45.2719 19.6422L45.0994 19.6263C44.8717 19.6049 44.681 19.587 44.4736 19.587C44.3273 19.587 44.1948 19.6017 44.069 19.6159L44.0668 19.6161L44.0644 19.6164L44.0625 19.6166C43.9469 19.6297 43.8369 19.6422 43.7268 19.6422L50.3708 3.72431H50.86L57.2465 19.6422C57.0501 19.6422 56.8669 19.6279 56.6869 19.6138C56.513 19.6003 56.3421 19.587 56.165 19.587C55.9538 19.587 55.7559 19.6015 55.5647 19.6155ZM65.6427 13.504L65.6415 13.5025L65.6327 13.4923L65.6314 13.4908L65.6302 13.4893L65.629 13.4879L65.6276 13.4864L65.6264 13.4849L65.6251 13.4836L65.6239 13.4821L65.6226 13.4806L65.6213 13.4792L65.6201 13.4777L65.6188 13.4763L65.6176 13.4748L65.6163 13.4733L65.6151 13.472L65.6137 13.4705L65.6125 13.469L65.6113 13.4676L65.61 13.4661L65.6088 13.4646L65.6074 13.4632L65.6062 13.4617L65.6049 13.4603L65.6037 13.4589L65.6025 13.4574C64.9138 12.6445 64.2259 11.8324 63.5559 11.0073L65.4099 9.04871L70.2256 4.08296C70.0806 4.08296 69.9356 4.09736 69.7941 4.11153L69.7916 4.11177L69.7895 4.11201L69.7874 4.11225L69.7854 4.1125L69.7833 4.11274L69.7817 4.11286C69.6511 4.12568 69.5234 4.13816 69.4016 4.13816C69.1148 4.13816 68.8723 4.11443 68.6125 4.0889L68.5517 4.08296L63.3241 9.87628C63.2347 9.96408 63.1345 10.0656 63.028 10.1738C62.7661 10.4396 62.4656 10.7444 62.191 10.9798C61.9593 11.1729 61.676 11.2556 61.6502 11.1177V4.08296C61.481 4.08296 61.3247 4.09713 61.1719 4.11104L61.17 4.11117L61.1679 4.11141C61.0197 4.12496 60.8746 4.13816 60.7231 4.13816C60.4141 4.13816 60.1051 4.11056 59.7961 4.08296V19.6697C59.9346 19.6697 60.0856 19.6566 60.2397 19.643L60.2412 19.6429C60.4017 19.6289 60.5658 19.6146 60.7231 19.6146C60.9845 19.6146 61.2678 19.638 61.5731 19.6634L61.6502 19.6697V11.7247C61.6502 11.6142 61.9078 11.697 62.0108 11.7798L66.6461 17.6008C67.1868 18.2628 67.6505 18.9524 68.114 19.6697C68.304 19.6697 68.494 19.6565 68.6871 19.6429C68.8866 19.6289 69.0893 19.6146 69.2985 19.6146C69.6036 19.6146 69.9087 19.6343 70.2608 19.6572L70.4574 19.6697V19.5594L68.732 17.2697C67.7448 15.9808 66.6929 14.7413 65.6427 13.504ZM78.8524 19.918C74.1656 19.918 71.3586 16.7454 71.3586 11.7522C71.3586 6.6209 74.8866 3.72431 79.3675 3.72431C80.9126 3.72431 82.5092 4.11056 83.9514 4.77267C83.7453 5.352 83.6166 5.93132 83.5135 6.53823L83.359 6.56583C83.0501 6.15198 81.4791 4.60709 79.2902 4.60709C75.376 4.60709 73.4446 8.00034 73.4446 11.8625C73.4446 16.2489 75.788 19.0352 79.1357 19.0352C81.4277 19.0352 83.2304 17.573 83.6423 17.1869L83.5394 18.6214C82.226 19.587 80.4748 19.918 78.8524 19.918ZM86.6553 6.56583C86.9643 6.15198 88.5352 4.60709 90.7241 4.60709C94.3034 4.60709 96.2607 7.42102 96.5444 10.8694H90.6469C90.341 10.8694 90.0351 10.8424 89.7261 10.8151L89.7238 10.8149L89.7218 10.8148C89.4079 10.787 89.0906 10.759 88.7669 10.759C88.7669 10.8386 88.7788 10.931 88.7912 11.0268L88.7913 11.0279C88.8046 11.1312 88.8185 11.2385 88.8185 11.3383C88.8185 11.4127 88.8079 11.4983 88.7965 11.5925C88.7825 11.7078 88.7669 11.8362 88.7669 11.9729C89.0728 11.9729 89.3786 11.9459 89.6876 11.9185L89.6906 11.9183L89.6933 11.918L89.6955 11.9178L89.6982 11.9176L89.7012 11.9173L89.7045 11.9171C90.0145 11.8899 90.3275 11.8625 90.6469 11.8625H96.5698C96.5698 16.2214 94.2263 19.0352 90.8787 19.0352C88.5867 19.0352 86.8098 17.573 86.372 17.1869L86.475 18.6214C87.8141 19.587 89.5395 19.918 91.1618 19.918C95.8491 19.918 98.6559 16.7454 98.6559 11.7522C98.6559 6.6485 95.1274 3.72431 90.6469 3.72431C89.0759 3.72431 87.4793 4.11056 86.063 4.77267C86.269 5.352 86.3978 5.95891 86.5008 6.53823L86.6553 6.56583ZM107.771 19.918C103.085 19.918 100.278 16.7454 100.278 11.7522C100.278 6.6209 103.806 3.72431 108.287 3.72431C109.832 3.72431 111.429 4.11056 112.871 4.77267C112.665 5.352 112.536 5.93132 112.433 6.53823L112.278 6.56583C111.97 6.15198 110.399 4.60709 108.209 4.60709C104.296 4.60709 102.364 8.00034 102.364 11.8625C102.364 16.2489 104.707 19.0352 108.055 19.0352C110.347 19.0352 112.149 17.573 112.562 17.1869L112.459 18.6214C111.12 19.587 109.369 19.918 107.771 19.918ZM52.4824 12.5523H47.7955L50.1133 6.7313L52.4824 12.5523ZM118.356 2.73113H118.69V0H118.227L117.583 1.51729L116.913 0H116.45V2.73113H116.759V0.386254L117.455 1.98622H117.66L118.356 0.386254V2.73113ZM0.103005 23.7802H119.674V24.0958H0.103005V23.7802Z" fill="#2057AC"/>
<path d="M4.18296 29.4113V33.9129H3.52447V31.8847H1.20894V33.9129H0.547363V29.4113H1.20894V31.3988H3.52447V29.4113H4.18296Z" fill="#2057AC"/>
<path d="M9.04046 29.4113V33.9129H8.38197V30.8157C8.38197 30.7217 8.38403 30.6235 8.38816 30.521C8.39228 30.4166 8.40258 30.3079 8.41907 30.195C8.37991 30.2953 8.33972 30.3883 8.2985 30.474C8.25728 30.5597 8.21606 30.636 8.17484 30.7029L6.1901 33.7029C6.15919 33.7551 6.11797 33.8032 6.06645 33.8471C6.01698 33.891 5.9603 33.9129 5.89641 33.9129H5.40487V29.4113H6.06645V32.5085C6.06645 32.6026 6.06335 32.7018 6.05717 32.8063C6.05305 32.9087 6.04377 33.0174 6.02935 33.1323C6.06645 33.032 6.1056 32.939 6.14682 32.8534C6.18804 32.7656 6.22926 32.6883 6.27048 32.6214L8.25831 29.6214C8.28923 29.5691 8.32942 29.521 8.37888 29.4772C8.42834 29.4333 8.48502 29.4113 8.54891 29.4113H9.04046Z" fill="#2057AC"/>
<path d="M16.1393 33.9129H15.7034C15.6065 33.9129 15.5231 33.892 15.453 33.8502C15.385 33.8063 15.3304 33.7478 15.2891 33.6747L14.2195 32.1198C14.1618 32.032 14.0979 31.9693 14.0278 31.9317C13.9577 31.892 13.8691 31.8722 13.7619 31.8722H13.258V33.9129H12.6366V31.8722H12.1358C12.0286 31.8722 11.939 31.892 11.8669 31.9317C11.7968 31.9693 11.7339 32.032 11.6783 32.1198L10.6086 33.6747C10.5674 33.7478 10.5118 33.8063 10.4417 33.8502C10.3737 33.892 10.2923 33.9129 10.1974 33.9129H9.75846L11.0352 31.9756C11.1012 31.8607 11.1733 31.7697 11.2516 31.7029C11.332 31.6339 11.4248 31.5827 11.5299 31.5493C11.4413 31.5179 11.366 31.473 11.3042 31.4145C11.2424 31.356 11.1816 31.2828 11.1218 31.195L9.86666 29.4113H10.3798C10.4479 29.4113 10.5107 29.4291 10.5684 29.4646C10.6282 29.4981 10.6756 29.5451 10.7106 29.6057L11.771 31.1323C11.8349 31.2243 11.9009 31.2849 11.9689 31.3142C12.0389 31.3434 12.1193 31.358 12.21 31.358H12.6366V29.4113H13.258V31.358H13.6877C13.7784 31.358 13.8578 31.3434 13.9258 31.3142C13.9959 31.2849 14.0628 31.2243 14.1267 31.1323L15.1871 29.6057C15.2222 29.5451 15.2685 29.4981 15.3262 29.4646C15.386 29.4291 15.4489 29.4113 15.5148 29.4113H16.0311L14.7759 31.195C14.7162 31.2828 14.6554 31.356 14.5935 31.4145C14.5317 31.473 14.4565 31.5179 14.3679 31.5493C14.4709 31.5848 14.5626 31.636 14.643 31.7029C14.7234 31.7697 14.7966 31.8607 14.8625 31.9756L16.1393 33.9129Z" fill="#2057AC"/>
<path d="M19.6073 33.3706L19.6042 33.9129H16.8528V29.4113H19.6042V29.9536H17.5144V31.38H19.1961V31.9035H17.5144V33.3706H19.6073Z" fill="#2057AC"/>
<path d="M23.2346 29.9348H21.2065V33.9129H20.545V29.4113H23.2346V29.9348Z" fill="#2057AC"/>
<path d="M27.9267 31.6621C27.9267 31.9986 27.8731 32.3079 27.766 32.59C27.6608 32.8701 27.5114 33.1125 27.3177 33.3173C27.124 33.52 26.8921 33.6778 26.6221 33.7907C26.3521 33.9035 26.0522 33.9599 25.7225 33.9599C25.3948 33.9599 25.0949 33.9035 24.8229 33.7907C24.5529 33.6778 24.321 33.52 24.1273 33.3173C23.9356 33.1125 23.7862 32.8701 23.679 32.59C23.5718 32.3079 23.5182 31.9986 23.5182 31.6621C23.5182 31.3277 23.5718 31.0195 23.679 30.7374C23.7862 30.4552 23.9356 30.2128 24.1273 30.0101C24.321 29.8053 24.5529 29.6464 24.8229 29.5336C25.0949 29.4186 25.3948 29.3612 25.7225 29.3612C26.0522 29.3612 26.3521 29.4186 26.6221 29.5336C26.8921 29.6464 27.124 29.8053 27.3177 30.0101C27.5114 30.2128 27.6608 30.4552 27.766 30.7374C27.8731 31.0195 27.9267 31.3277 27.9267 31.6621ZM27.2528 31.6621C27.2528 31.3946 27.2167 31.1543 27.1446 30.9411C27.0724 30.7279 26.9694 30.5472 26.8354 30.3988C26.7035 30.2504 26.5428 30.1365 26.3531 30.0571C26.1656 29.9777 25.9554 29.938 25.7225 29.938C25.4896 29.938 25.2783 29.9777 25.0887 30.0571C24.9012 30.1365 24.7404 30.2504 24.6064 30.3988C24.4725 30.5472 24.3694 30.7279 24.2973 30.9411C24.2252 31.1543 24.1891 31.3946 24.1891 31.6621C24.1891 31.9317 24.2252 32.1731 24.2973 32.3863C24.3694 32.5973 24.4725 32.7771 24.6064 32.9255C24.7404 33.0738 24.9012 33.1877 25.0887 33.2671C25.2783 33.3445 25.4896 33.3831 25.7225 33.3831C25.9554 33.3831 26.1656 33.3445 26.3531 33.2671C26.5428 33.1877 26.7035 33.0738 26.8354 32.9255C26.9694 32.7771 27.0724 32.5973 27.1446 32.3863C27.2167 32.1731 27.2528 31.9317 27.2528 31.6621Z" fill="#2057AC"/>
<path d="M30.222 31.728C30.389 31.728 30.5353 31.706 30.661 31.6621C30.7888 31.6182 30.895 31.5566 30.9795 31.4772C31.066 31.3957 31.1309 31.2995 31.1742 31.1888C31.2175 31.0759 31.2391 30.9516 31.2391 30.8157C31.2391 30.5419 31.1546 30.3267 30.9856 30.17C30.8187 30.0132 30.5642 29.9348 30.222 29.9348H29.5357V31.728H30.222ZM30.222 29.4113C30.5065 29.4113 30.7538 29.4448 30.964 29.5116C31.1742 29.5785 31.3484 29.6736 31.4865 29.7969C31.6245 29.9181 31.7266 30.0655 31.7925 30.2389C31.8605 30.4124 31.8945 30.6046 31.8945 30.8157C31.8945 31.0268 31.8585 31.2212 31.7863 31.3988C31.7142 31.5743 31.6081 31.7259 31.4679 31.8533C31.3278 31.9808 31.1526 32.0801 30.9424 32.1512C30.7342 32.2201 30.4941 32.2546 30.222 32.2546H29.5357V33.9129H28.8772V29.4113H30.222Z" fill="#2057AC"/>
<path d="M36.8809 31.6621C36.8809 31.9986 36.8273 32.3079 36.7202 32.59C36.615 32.8701 36.4656 33.1125 36.2719 33.3173C36.0782 33.52 35.8463 33.6778 35.5763 33.7907C35.3063 33.9035 35.0064 33.9599 34.6767 33.9599C34.349 33.9599 34.0491 33.9035 33.7771 33.7907C33.5071 33.6778 33.2752 33.52 33.0815 33.3173C32.8898 33.1125 32.7404 32.8701 32.6332 32.59C32.526 32.3079 32.4725 31.9986 32.4725 31.6621C32.4725 31.3277 32.526 31.0195 32.6332 30.7374C32.7404 30.4552 32.8898 30.2128 33.0815 30.0101C33.2752 29.8053 33.5071 29.6464 33.7771 29.5336C34.0491 29.4186 34.349 29.3612 34.6767 29.3612C35.0064 29.3612 35.3063 29.4186 35.5763 29.5336C35.8463 29.6464 36.0782 29.8053 36.2719 30.0101C36.4656 30.2128 36.615 30.4552 36.7202 30.7374C36.8273 31.0195 36.8809 31.3277 36.8809 31.6621ZM36.207 31.6621C36.207 31.3946 36.1709 31.1543 36.0988 30.9411C36.0266 30.7279 35.9236 30.5472 35.7896 30.3988C35.6577 30.2504 35.497 30.1365 35.3074 30.0571C35.1198 29.9777 34.9096 29.938 34.6767 29.938C34.4438 29.938 34.2325 29.9777 34.0429 30.0571C33.8554 30.1365 33.6946 30.2504 33.5607 30.3988C33.4267 30.5472 33.3236 30.7279 33.2515 30.9411C33.1794 31.1543 33.1433 31.3946 33.1433 31.6621C33.1433 31.9317 33.1794 32.1731 33.2515 32.3863C33.3236 32.5973 33.4267 32.7771 33.5607 32.9255C33.6946 33.0738 33.8554 33.1877 34.0429 33.2671C34.2325 33.3445 34.4438 33.3831 34.6767 33.3831C34.9096 33.3831 35.1198 33.3445 35.3074 33.2671C35.497 33.1877 35.6577 33.0738 35.7896 32.9255C35.9236 32.7771 36.0266 32.5973 36.0988 32.3863C36.1709 32.1731 36.207 31.9317 36.207 31.6621Z" fill="#2057AC"/>
<path d="M40.4728 33.3894V29.9348H39.0693C39.0446 30.428 39.0095 30.8627 38.9642 31.2389C38.9209 31.613 38.8684 31.939 38.8065 32.217C38.7468 32.4949 38.6798 32.729 38.6056 32.9192C38.5314 33.1094 38.452 33.2661 38.3675 33.3894H40.4728ZM41.8517 33.3894V34.8063C41.8517 34.8649 41.8321 34.9119 41.7929 34.9474C41.7537 34.9829 41.7033 35.0007 41.6414 35.0007H41.2488V33.9129H37.7492V34.8063C37.7492 34.8649 37.7297 34.9119 37.6905 34.9474C37.6513 34.9829 37.6008 35.0007 37.539 35.0007H37.1464V33.3894H37.6101C37.672 33.3581 37.7338 33.3079 37.7956 33.2389C37.8574 33.1679 37.9172 33.0686 37.9749 32.9411C38.0326 32.8116 38.0862 32.6485 38.1357 32.4521C38.1872 32.2556 38.2336 32.0153 38.2748 31.7311C38.316 31.4448 38.3511 31.1114 38.3799 30.7311C38.4108 30.3486 38.4345 29.9087 38.451 29.4113H41.1344V33.3894H41.8517Z" fill="#2057AC"/>
<path d="M45.6508 32.9474C45.6879 32.9474 45.7199 32.962 45.7467 32.9913L46.0064 33.2797C45.825 33.497 45.6034 33.6653 45.3417 33.7844C45.082 33.9035 44.7687 33.9631 44.4019 33.9631C44.0804 33.9631 43.7887 33.9066 43.527 33.7938C43.2673 33.6809 43.0447 33.5232 42.8592 33.3204C42.6758 33.1177 42.5336 32.8753 42.4326 32.5932C42.3316 32.311 42.2811 32.0007 42.2811 31.6621C42.2811 31.3236 42.3337 31.0132 42.4388 30.7311C42.546 30.4489 42.6954 30.2065 42.8871 30.0038C43.0787 29.8011 43.3075 29.6433 43.5734 29.5304C43.8413 29.4176 44.137 29.3612 44.4606 29.3612C44.776 29.3612 45.0563 29.4134 45.3015 29.5179C45.5468 29.6224 45.7601 29.7614 45.9414 29.9348L45.725 30.2452C45.7106 30.2682 45.6921 30.287 45.6694 30.3016C45.6488 30.3162 45.621 30.3236 45.5859 30.3236C45.5468 30.3236 45.5004 30.3037 45.4468 30.264C45.3953 30.2243 45.3262 30.1804 45.2397 30.1323C45.1552 30.0822 45.0501 30.0372 44.9243 29.9975C44.7986 29.9578 44.642 29.938 44.4544 29.938C44.2339 29.938 44.0319 29.9777 43.8485 30.0571C43.6651 30.1344 43.5064 30.2473 43.3724 30.3957C43.2405 30.5419 43.1375 30.7227 43.0633 30.938C42.9911 31.1511 42.9551 31.3925 42.9551 31.6621C42.9551 31.9359 42.9932 32.1794 43.0695 32.3925C43.1457 32.6057 43.2508 32.7865 43.3848 32.9349C43.5187 33.0832 43.6764 33.1961 43.8578 33.2734C44.0392 33.3507 44.2349 33.3894 44.4452 33.3894C44.5729 33.3894 44.6873 33.3821 44.7883 33.3675C44.8914 33.3507 44.9851 33.3267 45.0696 33.2954C45.1562 33.264 45.2376 33.2243 45.3139 33.1762C45.3901 33.1261 45.4654 33.0665 45.5396 32.9976C45.556 32.9829 45.5736 32.9714 45.5921 32.9631C45.6107 32.9526 45.6302 32.9474 45.6508 32.9474Z" fill="#2057AC"/>
<path d="M50.3933 33.9129H49.8028C49.7369 33.9129 49.6812 33.8952 49.6359 33.8596C49.5926 33.8241 49.5514 33.7729 49.5122 33.706L48.3962 32.0947C48.3694 32.0529 48.3416 32.0184 48.3127 31.9913C48.2859 31.962 48.256 31.939 48.2231 31.9223C48.1901 31.9035 48.153 31.891 48.1118 31.8847C48.0726 31.8763 48.0262 31.8722 47.9727 31.8722H47.4502V33.9129H46.7917V29.4113H47.4502V31.358H47.8985C47.9891 31.358 48.0664 31.3445 48.1303 31.3173C48.1963 31.288 48.2591 31.2306 48.3189 31.1449L49.4349 29.5963C49.4679 29.5419 49.5071 29.4981 49.5524 29.4646C49.5998 29.4291 49.6565 29.4113 49.7224 29.4113H50.2789L48.9712 31.2483C48.9197 31.3236 48.8609 31.3863 48.795 31.4364C48.729 31.4845 48.6569 31.5231 48.5786 31.5524C48.6899 31.5817 48.7837 31.6308 48.8599 31.6997C48.9382 31.7666 49.0135 31.8596 49.0856 31.9787L50.3933 33.9129Z" fill="#2057AC"/>
<path d="M54.7353 29.4113V33.9129H54.0768V30.8157C54.0768 30.7217 54.0789 30.6235 54.083 30.521C54.0872 30.4166 54.0975 30.3079 54.1139 30.195C54.0748 30.2953 54.0346 30.3883 53.9934 30.474C53.9522 30.5597 53.9109 30.636 53.8697 30.7029L51.885 33.7029C51.8541 33.7551 51.8128 33.8032 51.7613 33.8471C51.7119 33.891 51.6552 33.9129 51.5913 33.9129H51.0997V29.4113H51.7613V32.5085C51.7613 32.6026 51.7582 32.7018 51.752 32.8063C51.7479 32.9087 51.7387 33.0174 51.7242 33.1323C51.7613 33.032 51.8005 32.939 51.8417 32.8534C51.8829 32.7656 51.9241 32.6883 51.9654 32.6214L53.9532 29.6214C53.9841 29.5691 54.0243 29.521 54.0738 29.4772C54.1232 29.4333 54.1799 29.4113 54.2438 29.4113H54.7353Z" fill="#2057AC"/>
<path d="M59.5928 29.4113V33.9129H58.9344V30.8157C58.9344 30.7217 58.9364 30.6235 58.9405 30.521C58.9447 30.4166 58.955 30.3079 58.9714 30.195C58.9323 30.2953 58.8921 30.3883 58.8509 30.474C58.8097 30.5597 58.7684 30.636 58.7272 30.7029L56.7425 33.7029C56.7116 33.7551 56.6703 33.8032 56.6188 33.8471C56.5694 33.891 56.5127 33.9129 56.4488 33.9129H55.9572V29.4113H56.6188V32.5085C56.6188 32.6026 56.6157 32.7018 56.6096 32.8063C56.6054 32.9087 56.5961 33.0174 56.5817 33.1323C56.6188 33.032 56.658 32.939 56.6992 32.8534C56.7404 32.7656 56.7816 32.6883 56.8229 32.6214L58.8107 29.6214C58.8416 29.5691 58.8818 29.521 58.9313 29.4772C58.9807 29.4333 59.0374 29.4113 59.1013 29.4113H59.5928ZM57.7967 28.8094C57.8791 28.8094 57.9482 28.8011 58.0038 28.7844C58.0615 28.7656 58.1069 28.7363 58.1398 28.6966C58.1749 28.6548 58.1996 28.6015 58.214 28.5367C58.2305 28.4698 58.2388 28.3873 58.2388 28.2891H58.5943C58.6355 28.2891 58.6675 28.3079 58.6901 28.3455C58.7128 28.3831 58.7241 28.4249 58.7241 28.4709C58.7241 28.5754 58.7025 28.6684 58.6592 28.7499C58.618 28.8293 58.5572 28.8972 58.4768 28.9536C58.3964 29.008 58.2985 29.0498 58.1831 29.079C58.0698 29.1083 57.941 29.1229 57.7967 29.1229C57.6524 29.1229 57.5226 29.1083 57.4072 29.079C57.2938 29.0498 57.1969 29.008 57.1166 28.9536C57.0362 28.8972 56.9743 28.8293 56.9311 28.7499C56.8898 28.6684 56.8692 28.5754 56.8692 28.4709C56.8692 28.4249 56.8806 28.3831 56.9032 28.3455C56.9259 28.3079 56.9579 28.2891 56.9991 28.2891H57.3546C57.3546 28.3873 57.3618 28.4698 57.3762 28.5367C57.3927 28.6015 57.4175 28.6548 57.4504 28.6966C57.4855 28.7363 57.5308 28.7656 57.5865 28.7844C57.6442 28.8011 57.7142 28.8094 57.7967 28.8094Z" fill="#2057AC"/>
<path d="M66.6387 31.6621C66.6387 31.9986 66.5851 32.3079 66.4779 32.59C66.3728 32.8701 66.2234 33.1125 66.0297 33.3173C65.8359 33.52 65.6041 33.6778 65.3341 33.7907C65.0641 33.9035 64.7642 33.9599 64.4344 33.9599C64.1068 33.9599 63.8069 33.9035 63.5348 33.7907C63.2648 33.6778 63.033 33.52 62.8392 33.3173C62.6476 33.1125 62.4981 32.8701 62.391 32.59C62.2838 32.3079 62.2302 31.9986 62.2302 31.6621C62.2302 31.3277 62.2838 31.0195 62.391 30.7374C62.4981 30.4552 62.6476 30.2128 62.8392 30.0101C63.033 29.8053 63.2648 29.6464 63.5348 29.5336C63.8069 29.4186 64.1068 29.3612 64.4344 29.3612C64.7642 29.3612 65.0641 29.4186 65.3341 29.5336C65.6041 29.6464 65.8359 29.8053 66.0297 30.0101C66.2234 30.2128 66.3728 30.4552 66.4779 30.7374C66.5851 31.0195 66.6387 31.3277 66.6387 31.6621ZM65.9647 31.6621C65.9647 31.3946 65.9287 31.1543 65.8565 30.9411C65.7844 30.7279 65.6814 30.5472 65.5474 30.3988C65.4155 30.2504 65.2547 30.1365 65.0651 30.0571C64.8776 29.9777 64.6673 29.938 64.4344 29.938C64.2016 29.938 63.9903 29.9777 63.8007 30.0571C63.6131 30.1365 63.4524 30.2504 63.3184 30.3988C63.1845 30.5472 63.0814 30.7279 63.0093 30.9411C62.9371 31.1543 62.9011 31.3946 62.9011 31.6621C62.9011 31.9317 62.9371 32.1731 63.0093 32.3863C63.0814 32.5973 63.1845 32.7771 63.3184 32.9255C63.4524 33.0738 63.6131 33.1877 63.8007 33.2671C63.9903 33.3445 64.2016 33.3831 64.4344 33.3831C64.6673 33.3831 64.8776 33.3445 65.0651 33.2671C65.2547 33.1877 65.4155 33.0738 65.5474 32.9255C65.6814 32.7771 65.7844 32.5973 65.8565 32.3863C65.9287 32.1731 65.9647 31.9317 65.9647 31.6621Z" fill="#2057AC"/>
<path d="M71.1908 33.9129H70.6003C70.5344 33.9129 70.4787 33.8952 70.4334 33.8596C70.3901 33.8241 70.3489 33.7729 70.3097 33.706L69.1937 32.0947C69.1669 32.0529 69.1391 32.0184 69.1102 31.9913C69.0834 31.962 69.0536 31.939 69.0206 31.9223C68.9876 31.9035 68.9505 31.891 68.9093 31.8847C68.8701 31.8763 68.8238 31.8722 68.7702 31.8722H68.2477V33.9129H67.5892V29.4113H68.2477V31.358H68.696C68.7867 31.358 68.8639 31.3445 68.9278 31.3173C68.9938 31.288 69.0566 31.2306 69.1164 31.1449L70.2324 29.5963C70.2654 29.5419 70.3046 29.4981 70.3499 29.4646C70.3973 29.4291 70.454 29.4113 70.52 29.4113H71.0764L69.7687 31.2483C69.7172 31.3236 69.6585 31.3863 69.5925 31.4364C69.5266 31.4845 69.4544 31.5231 69.3761 31.5524C69.4874 31.5817 69.5812 31.6308 69.6574 31.6997C69.7357 31.7666 69.811 31.8596 69.8831 31.9787L71.1908 33.9129Z" fill="#2057AC"/>
<path d="M75.8344 31.6621C75.8344 31.9986 75.7808 32.3079 75.6737 32.59C75.5686 32.8701 75.4191 33.1125 75.2254 33.3173C75.0317 33.52 74.7998 33.6778 74.5298 33.7907C74.2598 33.9035 73.9599 33.9599 73.6302 33.9599C73.3025 33.9599 73.0026 33.9035 72.7306 33.7907C72.4606 33.6778 72.2287 33.52 72.035 33.3173C71.8433 33.1125 71.6939 32.8701 71.5867 32.59C71.4795 32.3079 71.426 31.9986 71.426 31.6621C71.426 31.3277 71.4795 31.0195 71.5867 30.7374C71.6939 30.4552 71.8433 30.2128 72.035 30.0101C72.2287 29.8053 72.4606 29.6464 72.7306 29.5336C73.0026 29.4186 73.3025 29.3612 73.6302 29.3612C73.9599 29.3612 74.2598 29.4186 74.5298 29.5336C74.7998 29.6464 75.0317 29.8053 75.2254 30.0101C75.4191 30.2128 75.5686 30.4552 75.6737 30.7374C75.7808 31.0195 75.8344 31.3277 75.8344 31.6621ZM75.1605 31.6621C75.1605 31.3946 75.1244 31.1543 75.0523 30.9411C74.9801 30.7279 74.8771 30.5472 74.7431 30.3988C74.6112 30.2504 74.4505 30.1365 74.2608 30.0571C74.0733 29.9777 73.8631 29.938 73.6302 29.938C73.3973 29.938 73.186 29.9777 72.9964 30.0571C72.8089 30.1365 72.6481 30.2504 72.5142 30.3988C72.3802 30.5472 72.2771 30.7279 72.205 30.9411C72.1329 31.1543 72.0968 31.3946 72.0968 31.6621C72.0968 31.9317 72.1329 32.1731 72.205 32.3863C72.2771 32.5973 72.3802 32.7771 72.5142 32.9255C72.6481 33.0738 72.8089 33.1877 72.9964 33.2671C73.186 33.3445 73.3973 33.3831 73.6302 33.3831C73.8631 33.3831 74.0733 33.3445 74.2608 33.2671C74.4505 33.1877 74.6112 33.0738 74.7431 32.9255C74.8771 32.7771 74.9801 32.5973 75.0523 32.3863C75.1244 32.1731 75.1605 31.9317 75.1605 31.6621Z" fill="#2057AC"/>
<path d="M80.4205 29.4113V33.9129H79.7621V31.8847H77.4465V33.9129H76.785V29.4113H77.4465V31.3988H79.7621V29.4113H80.4205Z" fill="#2057AC"/>
<path d="M85.2781 29.4113V33.9129H84.6196V31.8847H82.304V33.9129H81.6425V29.4113H82.304V31.3988H84.6196V29.4113H85.2781Z" fill="#2057AC"/>
<path d="M87.9839 33.3831C88.1508 33.3831 88.293 33.3643 88.4105 33.3267C88.528 33.2891 88.6238 33.2368 88.698 33.17C88.7722 33.101 88.8258 33.0195 88.8588 32.9255C88.8938 32.8314 88.9113 32.728 88.9113 32.6151C88.9113 32.496 88.8938 32.3894 88.8588 32.2954C88.8258 32.2013 88.7722 32.1219 88.698 32.0571C88.6259 31.9923 88.5311 31.9432 88.4136 31.9098C88.2961 31.8742 88.1539 31.8565 87.987 31.8565H87.1584V33.3831H87.9839ZM87.987 31.3267C88.2611 31.3267 88.4971 31.358 88.6949 31.4207C88.8928 31.4813 89.0556 31.566 89.1834 31.6747C89.3132 31.7833 89.408 31.9129 89.4678 32.0634C89.5296 32.2118 89.5605 32.3737 89.5605 32.5493C89.5605 32.7562 89.5255 32.9443 89.4554 33.1135C89.3854 33.2807 89.2823 33.4239 89.1463 33.543C89.0123 33.6621 88.8474 33.7541 88.6516 33.8189C88.4558 33.8816 88.2333 33.9129 87.9839 33.9129H86.5V29.4113H87.1584V31.3267H87.987ZM90.995 33.9129H90.3334V29.4113H90.995V33.9129Z" fill="#2057AC"/>
<path d="M95.8505 29.4113V33.9129H95.192V30.8157C95.192 30.7217 95.194 30.6235 95.1982 30.521C95.2023 30.4166 95.2126 30.3079 95.2291 30.195C95.1899 30.2953 95.1497 30.3883 95.1085 30.474C95.0673 30.5597 95.0261 30.636 94.9848 30.7029L93.0001 33.7029C92.9692 33.7551 92.928 33.8032 92.8764 33.8471C92.827 33.891 92.7703 33.9129 92.7064 33.9129H92.2149V29.4113H92.8764V32.5085C92.8764 32.6026 92.8734 32.7018 92.8672 32.8063C92.8631 32.9087 92.8538 33.0174 92.8394 33.1323C92.8764 33.032 92.9156 32.939 92.9568 32.8534C92.9981 32.7656 93.0393 32.6883 93.0805 32.6214L95.0683 29.6214C95.0992 29.5691 95.1394 29.521 95.1889 29.4772C95.2384 29.4333 95.295 29.4113 95.3589 29.4113H95.8505ZM94.0543 28.8094C94.1367 28.8094 94.2058 28.8011 94.2614 28.7844C94.3191 28.7656 94.3645 28.7363 94.3975 28.6966C94.4325 28.6548 94.4572 28.6015 94.4717 28.5367C94.4882 28.4698 94.4964 28.3873 94.4964 28.2891H94.8519C94.8931 28.2891 94.9251 28.3079 94.9477 28.3455C94.9704 28.3831 94.9818 28.4249 94.9818 28.4709C94.9818 28.5754 94.9601 28.6684 94.9168 28.7499C94.8756 28.8293 94.8148 28.8972 94.7344 28.9536C94.6541 29.008 94.5562 29.0498 94.4407 29.079C94.3274 29.1083 94.1986 29.1229 94.0543 29.1229C93.91 29.1229 93.7802 29.1083 93.6648 29.079C93.5514 29.0498 93.4546 29.008 93.3742 28.9536C93.2938 28.8972 93.232 28.8293 93.1887 28.7499C93.1475 28.6684 93.1269 28.5754 93.1269 28.4709C93.1269 28.4249 93.1382 28.3831 93.1609 28.3455C93.1835 28.3079 93.2155 28.2891 93.2567 28.2891H93.6122C93.6122 28.3873 93.6194 28.4698 93.6339 28.5367C93.6504 28.6015 93.6751 28.6548 93.7081 28.6966C93.7431 28.7363 93.7884 28.7656 93.8441 28.7844C93.9018 28.8011 93.9719 28.8094 94.0543 28.8094Z" fill="#2057AC"/>
<path d="M98.5033 29.8314C98.6723 29.6809 98.8691 29.566 99.0938 29.4866C99.3205 29.4051 99.575 29.3643 99.8574 29.3643C100.088 29.3643 100.296 29.3936 100.482 29.4521C100.667 29.5085 100.825 29.5879 100.955 29.6903C101.085 29.7927 101.185 29.915 101.255 30.0571C101.325 30.1992 101.36 30.3549 101.36 30.5242C101.36 30.7457 101.306 30.9422 101.199 31.1135C101.094 31.2828 100.942 31.4176 100.745 31.5179C100.856 31.5681 100.957 31.6276 101.048 31.6966C101.138 31.7656 101.216 31.8439 101.279 31.9317C101.345 32.0174 101.396 32.1114 101.431 32.2138C101.468 32.3142 101.487 32.4207 101.487 32.5336C101.487 32.7321 101.451 32.9181 101.378 33.0916C101.306 33.263 101.2 33.4134 101.06 33.543C100.922 33.6705 100.752 33.7719 100.55 33.8471C100.348 33.9202 100.117 33.9568 99.8574 33.9568C99.54 33.9568 99.2514 33.9035 98.9918 33.7969C98.7321 33.6903 98.5115 33.5472 98.3302 33.3675L98.5188 33.0477C98.5352 33.0226 98.5569 33.0017 98.5837 32.985C98.6105 32.9683 98.6393 32.9599 98.6702 32.9599C98.7156 32.9599 98.7692 32.9829 98.831 33.0289C98.8928 33.0749 98.9701 33.1261 99.0629 33.1825C99.1556 33.2368 99.2669 33.287 99.3967 33.333C99.5286 33.379 99.6884 33.4019 99.8759 33.4019C100.191 33.4019 100.435 33.3298 100.609 33.1856C100.782 33.0393 100.868 32.8325 100.868 32.5649C100.868 32.4521 100.846 32.3486 100.8 32.2546C100.757 32.1606 100.694 32.0801 100.612 32.0132C100.529 31.9463 100.429 31.8951 100.312 31.8596C100.194 31.822 100.061 31.8042 99.913 31.8063H99.3009V31.2577H99.879C100.007 31.2577 100.123 31.2431 100.228 31.2138C100.336 31.1825 100.427 31.1386 100.503 31.0822C100.58 31.0237 100.638 30.9526 100.68 30.869C100.723 30.7833 100.745 30.6861 100.745 30.5775C100.745 30.4793 100.724 30.3894 100.683 30.3079C100.644 30.2264 100.586 30.1574 100.51 30.101C100.435 30.0425 100.343 29.9975 100.231 29.9662C100.122 29.9327 99.9975 29.916 99.8574 29.916C99.6945 29.916 99.5554 29.9338 99.44 29.9693C99.3267 30.0028 99.2298 30.0414 99.1494 30.0853C99.069 30.1271 99.0021 30.1658 98.9485 30.2013C98.8969 30.2347 98.8526 30.2515 98.8155 30.2515C98.7805 30.2515 98.7516 30.2431 98.729 30.2264C98.7063 30.2097 98.6847 30.1835 98.6641 30.148L98.5033 29.8314Z" fill="#2057AC"/>
<path d="M104.783 32.2358L104.125 30.4897C104.102 30.4312 104.079 30.3643 104.054 30.2891C104.031 30.2117 104.009 30.1292 103.986 30.0414C103.963 30.1313 103.939 30.2149 103.915 30.2922C103.892 30.3674 103.869 30.4354 103.847 30.496L103.191 32.2358H104.783ZM106.088 33.9129H105.578C105.52 33.9129 105.473 33.8983 105.436 33.869C105.401 33.8398 105.374 33.8022 105.355 33.7562L104.963 32.7123H103.009L102.616 33.7562C102.6 33.7959 102.572 33.8325 102.533 33.8659C102.496 33.8972 102.449 33.9129 102.394 33.9129H101.884L103.652 29.4113H104.32L106.088 33.9129Z" fill="#2057AC"/>
<path d="M108.34 33.3831C108.507 33.3831 108.649 33.3633 108.767 33.3236C108.886 33.2839 108.983 33.2295 109.057 33.1606C109.133 33.0916 109.189 33.0101 109.224 32.916C109.259 32.8199 109.277 32.7154 109.277 32.6026C109.277 32.3789 109.2 32.2034 109.048 32.0759C108.895 31.9463 108.659 31.8816 108.34 31.8816H107.413V33.3831H108.34ZM107.413 29.9348V31.4082H108.17C108.494 31.4082 108.734 31.3424 108.89 31.2107C109.049 31.077 109.128 30.8972 109.128 30.6715C109.128 30.4145 109.053 30.2274 108.903 30.1104C108.752 29.9934 108.518 29.9348 108.201 29.9348H107.413ZM108.201 29.4113C108.479 29.4113 108.717 29.4385 108.915 29.4928C109.115 29.5472 109.279 29.6255 109.407 29.7279C109.534 29.8303 109.628 29.9547 109.688 30.101C109.75 30.2452 109.781 30.4092 109.781 30.5931C109.781 30.7018 109.764 30.8063 109.731 30.9066C109.698 31.0069 109.648 31.101 109.58 31.1888C109.512 31.2744 109.426 31.3518 109.323 31.4207C109.22 31.4897 109.098 31.5472 108.958 31.5932C109.603 31.7227 109.926 32.0644 109.926 32.6182C109.926 32.8105 109.891 32.9861 109.821 33.1449C109.751 33.3016 109.649 33.4375 109.515 33.5524C109.381 33.6674 109.216 33.7562 109.02 33.8189C108.824 33.8816 108.602 33.9129 108.352 33.9129H106.754V29.4113H108.201Z" fill="#2057AC"/>
<path d="M115.029 31.6621C115.029 31.9986 114.976 32.3079 114.869 32.59C114.764 32.8701 114.614 33.1125 114.42 33.3173C114.227 33.52 113.995 33.6778 113.725 33.7907C113.455 33.9035 113.155 33.9599 112.825 33.9599C112.498 33.9599 112.198 33.9035 111.926 33.7907C111.656 33.6778 111.424 33.52 111.23 33.3173C111.038 33.1125 110.889 32.8701 110.782 32.59C110.675 32.3079 110.621 31.9986 110.621 31.6621C110.621 31.3277 110.675 31.0195 110.782 30.7374C110.889 30.4552 111.038 30.2128 111.23 30.0101C111.424 29.8053 111.656 29.6464 111.926 29.5336C112.198 29.4186 112.498 29.3612 112.825 29.3612C113.155 29.3612 113.455 29.4186 113.725 29.5336C113.995 29.6464 114.227 29.8053 114.42 30.0101C114.614 30.2128 114.764 30.4552 114.869 30.7374C114.976 31.0195 115.029 31.3277 115.029 31.6621ZM114.355 31.6621C114.355 31.3946 114.319 31.1543 114.247 30.9411C114.175 30.7279 114.072 30.5472 113.938 30.3988C113.806 30.2504 113.645 30.1365 113.456 30.0571C113.268 29.9777 113.058 29.938 112.825 29.938C112.592 29.938 112.381 29.9777 112.191 30.0571C112.004 30.1365 111.843 30.2504 111.709 30.3988C111.575 30.5472 111.472 30.7279 111.4 30.9411C111.328 31.1543 111.292 31.3946 111.292 31.6621C111.292 31.9317 111.328 32.1731 111.4 32.3863C111.472 32.5973 111.575 32.7771 111.709 32.9255C111.843 33.0738 112.004 33.1877 112.191 33.2671C112.381 33.3445 112.592 33.3831 112.825 33.3831C113.058 33.3831 113.268 33.3445 113.456 33.2671C113.645 33.1877 113.806 33.0738 113.938 32.9255C114.072 32.7771 114.175 32.5973 114.247 32.3863C114.319 32.1731 114.355 31.9317 114.355 31.6621Z" fill="#2057AC"/>
<path d="M118.621 33.3894V29.9348H117.218C117.193 30.428 117.158 30.8627 117.113 31.2389C117.069 31.613 117.017 31.939 116.955 32.217C116.895 32.4949 116.828 32.729 116.754 32.9192C116.68 33.1094 116.601 33.2661 116.516 33.3894H118.621ZM120 33.3894V34.8063C120 34.8649 119.981 34.9119 119.941 34.9474C119.902 34.9829 119.852 35.0007 119.79 35.0007H119.397V33.9129H115.898V34.8063C115.898 34.8649 115.878 34.9119 115.839 34.9474C115.8 34.9829 115.749 35.0007 115.688 35.0007H115.295V33.3894H115.759C115.82 33.3581 115.882 33.3079 115.944 33.2389C116.006 33.1679 116.066 33.0686 116.123 32.9411C116.181 32.8116 116.235 32.6485 116.284 32.4521C116.336 32.2556 116.382 32.0153 116.423 31.7311C116.465 31.4448 116.5 31.1114 116.528 30.7311C116.559 30.3486 116.583 29.9087 116.6 29.4113H119.283V33.3894H120Z" fill="#2057AC"/>
</svg>
