<svg width="98" height="115" viewBox="0 0 98 115" fill="none" xmlns="http://www.w3.org/2000/svg">
<mask id="path-1-inside-1" fill="white">
<rect x="0.714478" width="62.2033" height="99.3524" rx="0.863934"/>
</mask>
<rect x="0.714478" width="62.2033" height="99.3524" rx="0.863934" stroke="#2B4CB9" stroke-width="3.45574" mask="url(#path-1-inside-1)"/>
<path d="M23.0473 106.34C24.1842 106.34 25.0591 106.707 25.6719 107.441C26.2928 108.174 26.6033 109.215 26.6033 110.561C26.6033 111.505 26.4339 112.311 26.0953 112.98C25.7647 113.641 25.297 114.145 24.6922 114.492C24.0955 114.831 23.3981 115 22.5998 115C22.1885 115 21.8015 114.96 21.4387 114.879C21.0758 114.79 20.7613 114.665 20.4952 114.504L20.9549 113.561C21.3661 113.827 21.9104 113.96 22.5877 113.96C23.4666 113.96 24.152 113.69 24.6438 113.149C25.1438 112.601 25.3937 111.807 25.3937 110.767V110.464C25.1518 110.827 24.8172 111.105 24.3899 111.299C23.9625 111.484 23.4827 111.577 22.9505 111.577C22.3942 111.577 21.8942 111.472 21.4507 111.263C21.0153 111.053 20.6726 110.755 20.4227 110.368C20.1808 109.973 20.0598 109.521 20.0598 109.013C20.0598 108.481 20.1888 108.013 20.4469 107.61C20.7129 107.207 21.0718 106.896 21.5233 106.679C21.9749 106.453 22.4829 106.34 23.0473 106.34ZM23.1562 110.597C23.5351 110.597 23.8738 110.525 24.1721 110.38C24.4705 110.235 24.7003 110.037 24.8616 109.787C25.0309 109.537 25.1156 109.259 25.1156 108.953C25.1156 108.654 25.0349 108.384 24.8737 108.142C24.7205 107.892 24.4906 107.695 24.1842 107.549C23.8859 107.396 23.523 107.32 23.0957 107.32C22.5393 107.32 22.0878 107.469 21.741 107.767C21.4024 108.066 21.233 108.465 21.233 108.965C21.233 109.465 21.4064 109.864 21.7531 110.162C22.0999 110.452 22.5675 110.597 23.1562 110.597Z" fill="#2B4CB9"/>
<path d="M31.2258 115C30.5566 115 29.9599 114.831 29.4358 114.492C28.9197 114.145 28.5125 113.645 28.2142 112.992C27.9158 112.339 27.7666 111.565 27.7666 110.67C27.7666 109.775 27.9158 109.001 28.2142 108.348C28.5125 107.695 28.9197 107.199 29.4358 106.86C29.9599 106.513 30.5566 106.34 31.2258 106.34C31.887 106.34 32.4757 106.513 32.9917 106.86C33.5158 107.199 33.9271 107.695 34.2254 108.348C34.5238 109.001 34.6729 109.775 34.6729 110.67C34.6729 111.565 34.5238 112.339 34.2254 112.992C33.9271 113.645 33.5158 114.145 32.9917 114.492C32.4757 114.831 31.887 115 31.2258 115ZM31.2258 113.924C31.9032 113.924 32.4434 113.645 32.8466 113.089C33.2578 112.533 33.4634 111.726 33.4634 110.67C33.4634 109.614 33.2578 108.807 32.8466 108.251C32.4434 107.695 31.9032 107.416 31.2258 107.416C30.5405 107.416 29.9921 107.695 29.5809 108.251C29.1777 108.807 28.9762 109.614 28.9762 110.67C28.9762 111.726 29.1777 112.533 29.5809 113.089C29.9921 113.645 30.5405 113.924 31.2258 113.924Z" fill="#2B4CB9"/>
<path d="M39.2932 115C38.6239 115 38.0272 114.831 37.5031 114.492C36.987 114.145 36.5798 113.645 36.2815 112.992C35.9831 112.339 35.834 111.565 35.834 110.67C35.834 109.775 35.9831 109.001 36.2815 108.348C36.5798 107.695 36.987 107.199 37.5031 106.86C38.0272 106.513 38.6239 106.34 39.2932 106.34C39.9544 106.34 40.543 106.513 41.059 106.86C41.5832 107.199 41.9944 107.695 42.2927 108.348C42.5911 109.001 42.7403 109.775 42.7403 110.67C42.7403 111.565 42.5911 112.339 42.2927 112.992C41.9944 113.645 41.5832 114.145 41.059 114.492C40.543 114.831 39.9544 115 39.2932 115ZM39.2932 113.924C39.9705 113.924 40.5107 113.645 40.9139 113.089C41.3251 112.533 41.5308 111.726 41.5308 110.67C41.5308 109.614 41.3251 108.807 40.9139 108.251C40.5107 107.695 39.9705 107.416 39.2932 107.416C38.6078 107.416 38.0595 107.695 37.6482 108.251C37.2451 108.807 37.0435 109.614 37.0435 110.67C37.0435 111.726 37.2451 112.533 37.6482 113.089C38.0595 113.645 38.6078 113.924 39.2932 113.924Z" fill="#2B4CB9"/>
<path d="M72.1706 45.9613V54.4278H70.9732V47.0135H69.0621V45.9613H72.1706Z" fill="#2B4CB9"/>
<path d="M81.3884 52.3475H79.7798V54.4278H78.6066V52.3475H73.9016V51.5008L78.2316 45.9613H79.5379L75.3893 51.3073H78.6429V49.4688H79.7798V51.3073H81.3884V52.3475Z" fill="#2B4CB9"/>
<path d="M85.5727 54.5246C84.9034 54.5246 84.3067 54.3552 83.7826 54.0166C83.2665 53.6699 82.8593 53.1699 82.561 52.5168C82.2627 51.8637 82.1135 51.0896 82.1135 50.1945C82.1135 49.2995 82.2627 48.5254 82.561 47.8723C82.8593 47.2192 83.2665 46.7233 83.7826 46.3846C84.3067 46.0379 84.9034 45.8645 85.5727 45.8645C86.2339 45.8645 86.8225 46.0379 87.3386 46.3846C87.8627 46.7233 88.2739 47.2192 88.5723 47.8723C88.8706 48.5254 89.0198 49.2995 89.0198 50.1945C89.0198 51.0896 88.8706 51.8637 88.5723 52.5168C88.2739 53.1699 87.8627 53.6699 87.3386 54.0166C86.8225 54.3552 86.2339 54.5246 85.5727 54.5246ZM85.5727 53.4481C86.25 53.4481 86.7902 53.1699 87.1934 52.6136C87.6046 52.0572 87.8103 51.2508 87.8103 50.1945C87.8103 49.1382 87.6046 48.3319 87.1934 47.7755C86.7902 47.2192 86.25 46.941 85.5727 46.941C84.8873 46.941 84.339 47.2192 83.9277 47.7755C83.5246 48.3319 83.323 49.1382 83.323 50.1945C83.323 51.2508 83.5246 52.0572 83.9277 52.6136C84.339 53.1699 84.8873 53.4481 85.5727 53.4481Z" fill="#2B4CB9"/>
<path d="M93.64 54.5246C92.9707 54.5246 92.374 54.3552 91.8499 54.0166C91.3339 53.6699 90.9267 53.1699 90.6283 52.5168C90.33 51.8637 90.1808 51.0896 90.1808 50.1945C90.1808 49.2995 90.33 48.5254 90.6283 47.8723C90.9267 47.2192 91.3339 46.7233 91.8499 46.3846C92.374 46.0379 92.9707 45.8645 93.64 45.8645C94.3012 45.8645 94.8898 46.0379 95.4059 46.3846C95.93 46.7233 96.3412 47.2192 96.6396 47.8723C96.9379 48.5254 97.0871 49.2995 97.0871 50.1945C97.0871 51.0896 96.9379 51.8637 96.6396 52.5168C96.3412 53.1699 95.93 53.6699 95.4059 54.0166C94.8898 54.3552 94.3012 54.5246 93.64 54.5246ZM93.64 53.4481C94.3173 53.4481 94.8576 53.1699 95.2607 52.6136C95.672 52.0572 95.8776 51.2508 95.8776 50.1945C95.8776 49.1382 95.672 48.3319 95.2607 47.7755C94.8576 47.2192 94.3173 46.941 93.64 46.941C92.9546 46.941 92.4063 47.2192 91.9951 47.7755C91.5919 48.3319 91.3903 49.1382 91.3903 50.1945C91.3903 51.2508 91.5919 52.0572 91.9951 52.6136C92.4063 53.1699 92.9546 53.4481 93.64 53.4481Z" fill="#2B4CB9"/>
<mask id="path-4-inside-2" fill="white">
<rect x="6.76196" y="6.04749" width="50.1082" height="87.2573" rx="0.863934"/>
</mask>
<rect x="6.76196" y="6.04749" width="50.1082" height="87.2573" rx="0.863934" stroke="#2B4CB9" stroke-width="3.45574" mask="url(#path-4-inside-2)"/>
<mask id="path-5-inside-3" fill="white">
<rect x="11.9457" y="11.2312" width="39.741" height="76.8901" rx="0.863934"/>
</mask>
<rect x="11.9457" y="11.2312" width="39.741" height="76.8901" rx="0.863934" stroke="#2B4CB9" stroke-width="3.45574" mask="url(#path-5-inside-3)"/>
<path d="M13.6735 86.3934L32.248 12.959L49.9587 86.3934" stroke="#2B4CB9" stroke-width="0.863934"/>
<path d="M49.9587 12.959L13.6735 49.6762L49.9587 86.3934" stroke="#2B4CB9" stroke-width="0.863934"/>
<rect x="9.35376" y="45.7885" width="1.72787" height="8.63934" rx="0.863934" fill="#2B4CB9"/>
</svg>
