<svg width="147" height="115" viewBox="0 0 147 115" fill="none" xmlns="http://www.w3.org/2000/svg">
<mask id="path-1-inside-1" fill="white">
<rect x="0.717529" width="111.448" height="99.3524" rx="0.863934"/>
</mask>
<rect x="0.717529" width="111.448" height="99.3524" rx="0.863934" stroke="#2B4CB9" stroke-width="3.45574" mask="url(#path-1-inside-1)"/>
<path d="M49.7113 106.437V114.903H48.5139V107.489H46.6029V106.437H49.7113Z" fill="#2B4CB9"/>
<path d="M54.8048 109.993C55.6353 110.073 56.2683 110.331 56.7037 110.767C57.1391 111.194 57.3568 111.742 57.3568 112.412C57.3568 112.895 57.2359 113.335 56.994 113.73C56.7521 114.117 56.3892 114.428 55.9054 114.661C55.4297 114.887 54.8451 115 54.1517 115C53.5469 115 52.9663 114.911 52.41 114.734C51.8536 114.548 51.398 114.294 51.0432 113.972L51.5996 113.016C51.8899 113.291 52.2608 113.512 52.7123 113.682C53.1639 113.843 53.6437 113.924 54.1517 113.924C54.7806 113.924 55.2684 113.791 55.6152 113.524C55.9699 113.258 56.1473 112.891 56.1473 112.424C56.1473 111.956 55.974 111.593 55.6273 111.335C55.2805 111.077 54.7564 110.948 54.0549 110.948H53.3776V110.102L55.5063 107.489H51.4303V106.437H57.0182V107.259L54.8048 109.993Z" fill="#2B4CB9"/>
<path d="M61.9441 115C61.2748 115 60.6781 114.831 60.154 114.492C59.638 114.145 59.2308 113.645 58.9324 112.992C58.6341 112.339 58.4849 111.565 58.4849 110.67C58.4849 109.775 58.6341 109.001 58.9324 108.348C59.2308 107.695 59.638 107.199 60.154 106.86C60.6781 106.513 61.2748 106.34 61.9441 106.34C62.6053 106.34 63.1939 106.513 63.71 106.86C64.2341 107.199 64.6453 107.695 64.9437 108.348C65.242 109.001 65.3912 109.775 65.3912 110.67C65.3912 111.565 65.242 112.339 64.9437 112.992C64.6453 113.645 64.2341 114.145 63.71 114.492C63.1939 114.831 62.6053 115 61.9441 115ZM61.9441 113.924C62.6214 113.924 63.1617 113.645 63.5648 113.089C63.9761 112.533 64.1817 111.726 64.1817 110.67C64.1817 109.614 63.9761 108.807 63.5648 108.251C63.1617 107.695 62.6214 107.416 61.9441 107.416C61.2587 107.416 60.7104 107.695 60.2992 108.251C59.896 108.807 59.6944 109.614 59.6944 110.67C59.6944 111.726 59.896 112.533 60.2992 113.089C60.7104 113.645 61.2587 113.924 61.9441 113.924Z" fill="#2B4CB9"/>
<path d="M70.0114 115C69.3422 115 68.7455 114.831 68.2213 114.492C67.7053 114.145 67.2981 113.645 66.9997 112.992C66.7014 112.339 66.5522 111.565 66.5522 110.67C66.5522 109.775 66.7014 109.001 66.9997 108.348C67.2981 107.695 67.7053 107.199 68.2213 106.86C68.7455 106.513 69.3422 106.34 70.0114 106.34C70.6726 106.34 71.2612 106.513 71.7773 106.86C72.3014 107.199 72.7127 107.695 73.011 108.348C73.3093 109.001 73.4585 109.775 73.4585 110.67C73.4585 111.565 73.3093 112.339 73.011 112.992C72.7127 113.645 72.3014 114.145 71.7773 114.492C71.2612 114.831 70.6726 115 70.0114 115ZM70.0114 113.924C70.6887 113.924 71.229 113.645 71.6322 113.089C72.0434 112.533 72.249 111.726 72.249 110.67C72.249 109.614 72.0434 108.807 71.6322 108.251C71.229 107.695 70.6887 107.416 70.0114 107.416C69.326 107.416 68.7777 107.695 68.3665 108.251C67.9633 108.807 67.7617 109.614 67.7617 110.67C67.7617 111.726 67.9633 112.533 68.3665 113.089C68.7777 113.645 69.326 113.924 70.0114 113.924Z" fill="#2B4CB9"/>
<path d="M121.418 45.9613V54.4278H120.22V47.0135H118.309V45.9613H121.418Z" fill="#2B4CB9"/>
<path d="M130.636 52.3475H129.027V54.4278H127.854V52.3475H123.149V51.5008L127.479 45.9613H128.785L124.636 51.3073H127.89V49.4688H129.027V51.3073H130.636V52.3475Z" fill="#2B4CB9"/>
<path d="M134.82 54.5246C134.151 54.5246 133.554 54.3552 133.03 54.0166C132.514 53.6699 132.107 53.1699 131.808 52.5168C131.51 51.8637 131.361 51.0896 131.361 50.1945C131.361 49.2995 131.51 48.5254 131.808 47.8723C132.107 47.2192 132.514 46.7233 133.03 46.3846C133.554 46.0379 134.151 45.8645 134.82 45.8645C135.481 45.8645 136.07 46.0379 136.586 46.3846C137.11 46.7233 137.521 47.2192 137.819 47.8723C138.118 48.5254 138.267 49.2995 138.267 50.1945C138.267 51.0896 138.118 51.8637 137.819 52.5168C137.521 53.1699 137.11 53.6699 136.586 54.0166C136.07 54.3552 135.481 54.5246 134.82 54.5246ZM134.82 53.4481C135.497 53.4481 136.037 53.1699 136.441 52.6136C136.852 52.0572 137.057 51.2508 137.057 50.1945C137.057 49.1382 136.852 48.3319 136.441 47.7755C136.037 47.2192 135.497 46.941 134.82 46.941C134.134 46.941 133.586 47.2192 133.175 47.7755C132.772 48.3319 132.57 49.1382 132.57 50.1945C132.57 51.2508 132.772 52.0572 133.175 52.6136C133.586 53.1699 134.134 53.4481 134.82 53.4481Z" fill="#2B4CB9"/>
<path d="M142.887 54.5246C142.218 54.5246 141.621 54.3552 141.097 54.0166C140.581 53.6699 140.174 53.1699 139.876 52.5168C139.577 51.8637 139.428 51.0896 139.428 50.1945C139.428 49.2995 139.577 48.5254 139.876 47.8723C140.174 47.2192 140.581 46.7233 141.097 46.3846C141.621 46.0379 142.218 45.8645 142.887 45.8645C143.548 45.8645 144.137 46.0379 144.653 46.3846C145.177 46.7233 145.588 47.2192 145.887 47.8723C146.185 48.5254 146.334 49.2995 146.334 50.1945C146.334 51.0896 146.185 51.8637 145.887 52.5168C145.588 53.1699 145.177 53.6699 144.653 54.0166C144.137 54.3552 143.548 54.5246 142.887 54.5246ZM142.887 53.4481C143.565 53.4481 144.105 53.1699 144.508 52.6136C144.919 52.0572 145.125 51.2508 145.125 50.1945C145.125 49.1382 144.919 48.3319 144.508 47.7755C144.105 47.2192 143.565 46.941 142.887 46.941C142.202 46.941 141.653 47.2192 141.242 47.7755C140.839 48.3319 140.638 49.1382 140.638 50.1945C140.638 51.2508 140.839 52.0572 141.242 52.6136C141.653 53.1699 142.202 53.4481 142.887 53.4481Z" fill="#2B4CB9"/>
<mask id="path-4-inside-2" fill="white">
<rect x="6.76501" y="6.04749" width="48.3803" height="87.2573" rx="0.863934"/>
</mask>
<rect x="6.76501" y="6.04749" width="48.3803" height="87.2573" rx="0.863934" stroke="#2B4CB9" stroke-width="3.45574" mask="url(#path-4-inside-2)"/>
<mask id="path-5-inside-3" fill="white">
<rect x="11.9487" y="11.2312" width="38.0131" height="76.8901" rx="0.863934"/>
</mask>
<rect x="11.9487" y="11.2312" width="38.0131" height="76.8901" rx="0.863934" stroke="#2B4CB9" stroke-width="3.45574" mask="url(#path-5-inside-3)"/>
<mask id="path-6-inside-4" fill="white">
<rect x="57.7372" y="6.04749" width="48.3803" height="87.2573" rx="0.863934"/>
</mask>
<rect x="57.7372" y="6.04749" width="48.3803" height="87.2573" rx="0.863934" stroke="#2B4CB9" stroke-width="3.45574" mask="url(#path-6-inside-4)"/>
<mask id="path-7-inside-5" fill="white">
<rect x="62.9208" y="11.2312" width="38.0131" height="76.8901" rx="0.863934"/>
</mask>
<rect x="62.9208" y="11.2312" width="38.0131" height="76.8901" rx="0.863934" stroke="#2B4CB9" stroke-width="3.45574" mask="url(#path-7-inside-5)"/>
<path d="M64.6487 86.3934L82.3388 12.959L99.206 86.3934" stroke="#2B4CB9" stroke-width="0.863934"/>
<path d="M99.206 12.959L64.6487 49.6762L99.206 86.3934" stroke="#2B4CB9" stroke-width="0.863934"/>
<rect x="60.329" y="45.7885" width="1.72787" height="8.63934" rx="0.863934" fill="#2B4CB9"/>
</svg>
