<svg width="191" height="116" viewBox="0 0 191 116" fill="none" xmlns="http://www.w3.org/2000/svg">
<mask id="path-1-inside-1" fill="white">
<rect x="0.825928" width="154.153" height="99.5935" rx="0.866031"/>
</mask>
<rect x="0.825928" width="154.153" height="99.5935" rx="0.866031" stroke="#2B4CB9" stroke-width="3.46412" mask="url(#path-1-inside-1)"/>
<path d="M71.4595 114.127V115.182H65.3609V114.358L68.8164 111.023C69.2367 110.619 69.5196 110.272 69.6651 109.981C69.8106 109.682 69.8833 109.383 69.8833 109.084C69.8833 108.639 69.7257 108.295 69.4105 108.053C69.1033 107.802 68.6587 107.677 68.0768 107.677C67.1391 107.677 66.4157 107.984 65.9065 108.599L65.082 107.883C65.4134 107.479 65.8459 107.164 66.3793 106.938C66.9209 106.711 67.5231 106.598 68.1859 106.598C69.075 106.598 69.7823 106.812 70.3077 107.241C70.8331 107.661 71.0957 108.235 71.0957 108.962C71.0957 109.415 70.9988 109.843 70.8048 110.247C70.6108 110.652 70.243 111.112 69.7014 111.63L67.1068 114.127H71.4595Z" fill="#2B4CB9"/>
<path d="M75.0873 106.695V115.182H73.887V107.75H71.9714V106.695H75.0873Z" fill="#2B4CB9"/>
<path d="M80.4114 115.279C79.7405 115.279 79.1424 115.109 78.617 114.77C78.0997 114.422 77.6915 113.921 77.3924 113.266C77.0933 112.612 76.9438 111.836 76.9438 110.939C76.9438 110.041 77.0933 109.265 77.3924 108.611C77.6915 107.956 78.0997 107.459 78.617 107.119C79.1424 106.772 79.7405 106.598 80.4114 106.598C81.0742 106.598 81.6642 106.772 82.1816 107.119C82.7069 107.459 83.1192 107.956 83.4182 108.611C83.7173 109.265 83.8668 110.041 83.8668 110.939C83.8668 111.836 83.7173 112.612 83.4182 113.266C83.1192 113.921 82.7069 114.422 82.1816 114.77C81.6642 115.109 81.0742 115.279 80.4114 115.279ZM80.4114 114.2C81.0904 114.2 81.6319 113.921 82.0361 113.363C82.4483 112.806 82.6544 111.997 82.6544 110.939C82.6544 109.88 82.4483 109.071 82.0361 108.514C81.6319 107.956 81.0904 107.677 80.4114 107.677C79.7243 107.677 79.1747 107.956 78.7625 108.514C78.3583 109.071 78.1562 109.88 78.1562 110.939C78.1562 111.997 78.3583 112.806 78.7625 113.363C79.1747 113.921 79.7243 114.2 80.4114 114.2Z" fill="#2B4CB9"/>
<path d="M88.4983 115.279C87.8274 115.279 87.2293 115.109 86.7039 114.77C86.1866 114.422 85.7784 113.921 85.4793 113.266C85.1802 112.612 85.0307 111.836 85.0307 110.939C85.0307 110.041 85.1802 109.265 85.4793 108.611C85.7784 107.956 86.1866 107.459 86.7039 107.119C87.2293 106.772 87.8274 106.598 88.4983 106.598C89.1611 106.598 89.7511 106.772 90.2685 107.119C90.7938 107.459 91.2061 107.956 91.5051 108.611C91.8042 109.265 91.9538 110.041 91.9538 110.939C91.9538 111.836 91.8042 112.612 91.5051 113.266C91.2061 113.921 90.7938 114.422 90.2685 114.77C89.7511 115.109 89.1611 115.279 88.4983 115.279ZM88.4983 114.2C89.1773 114.2 89.7188 113.921 90.123 113.363C90.5352 112.806 90.7413 111.997 90.7413 110.939C90.7413 109.88 90.5352 109.071 90.123 108.514C89.7188 107.956 89.1773 107.677 88.4983 107.677C87.8112 107.677 87.2616 107.956 86.8494 108.514C86.4452 109.071 86.2431 109.88 86.2431 110.939C86.2431 111.997 86.4452 112.806 86.8494 113.363C87.2616 113.921 87.8112 114.2 88.4983 114.2Z" fill="#2B4CB9"/>
<path d="M165.121 46.0728V54.5599H163.92V47.1277H162.005V46.0728H165.121Z" fill="#2B4CB9"/>
<path d="M174.361 52.4745H172.748V54.5599H171.572V52.4745H166.856V51.6258L171.196 46.0728H172.506L168.347 51.4318H171.609V49.5889H172.748V51.4318H174.361V52.4745Z" fill="#2B4CB9"/>
<path d="M178.555 54.6569C177.884 54.6569 177.286 54.4872 176.761 54.1477C176.244 53.8001 175.835 53.299 175.536 52.6443C175.237 51.9895 175.088 51.2136 175.088 50.3164C175.088 49.4192 175.237 48.6432 175.536 47.9885C175.835 47.3338 176.244 46.8367 176.761 46.4972C177.286 46.1496 177.884 45.9758 178.555 45.9758C179.218 45.9758 179.808 46.1496 180.325 46.4972C180.851 46.8367 181.263 47.3338 181.562 47.9885C181.861 48.6432 182.011 49.4192 182.011 50.3164C182.011 51.2136 181.861 51.9895 181.562 52.6443C181.263 53.299 180.851 53.8001 180.325 54.1477C179.808 54.4872 179.218 54.6569 178.555 54.6569ZM178.555 53.5778C179.234 53.5778 179.776 53.299 180.18 52.7413C180.592 52.1835 180.798 51.3752 180.798 50.3164C180.798 49.2575 180.592 48.4492 180.18 47.8915C179.776 47.3338 179.234 47.0549 178.555 47.0549C177.868 47.0549 177.319 47.3338 176.906 47.8915C176.502 48.4492 176.3 49.2575 176.3 50.3164C176.3 51.3752 176.502 52.1835 176.906 52.7413C177.319 53.299 177.868 53.5778 178.555 53.5778Z" fill="#2B4CB9"/>
<path d="M186.642 54.6569C185.971 54.6569 185.373 54.4872 184.848 54.1477C184.33 53.8001 183.922 53.299 183.623 52.6443C183.324 51.9895 183.175 51.2136 183.175 50.3164C183.175 49.4192 183.324 48.6432 183.623 47.9885C183.922 47.3338 184.33 46.8367 184.848 46.4972C185.373 46.1496 185.971 45.9758 186.642 45.9758C187.305 45.9758 187.895 46.1496 188.412 46.4972C188.938 46.8367 189.35 47.3338 189.649 47.9885C189.948 48.6432 190.098 49.4192 190.098 50.3164C190.098 51.2136 189.948 51.9895 189.649 52.6443C189.35 53.299 188.938 53.8001 188.412 54.1477C187.895 54.4872 187.305 54.6569 186.642 54.6569ZM186.642 53.5778C187.321 53.5778 187.863 53.299 188.267 52.7413C188.679 52.1835 188.885 51.3752 188.885 50.3164C188.885 49.2575 188.679 48.4492 188.267 47.8915C187.863 47.3338 187.321 47.0549 186.642 47.0549C185.955 47.0549 185.406 47.3338 184.993 47.8915C184.589 48.4492 184.387 49.2575 184.387 50.3164C184.387 51.3752 184.589 52.1835 184.993 52.7413C185.406 53.299 185.955 53.5778 186.642 53.5778Z" fill="#2B4CB9"/>
<mask id="path-4-inside-2" fill="white">
<rect x="6.88818" y="6.06226" width="48.4977" height="87.4691" rx="0.866031"/>
</mask>
<rect x="6.88818" y="6.06226" width="48.4977" height="87.4691" rx="0.866031" stroke="#2B4CB9" stroke-width="3.46412" mask="url(#path-4-inside-2)"/>
<mask id="path-5-inside-3" fill="white">
<rect x="53.6538" y="6.06226" width="48.4977" height="87.4691" rx="0.866031"/>
</mask>
<rect x="53.6538" y="6.06226" width="48.4977" height="87.4691" rx="0.866031" stroke="#2B4CB9" stroke-width="3.46412" mask="url(#path-5-inside-3)"/>
<mask id="path-6-inside-4" fill="white">
<rect x="12.0844" y="11.2584" width="38.1054" height="77.0767" rx="0.866031"/>
</mask>
<rect x="12.0844" y="11.2584" width="38.1054" height="77.0767" rx="0.866031" stroke="#2B4CB9" stroke-width="3.46412" mask="url(#path-6-inside-4)"/>
<mask id="path-7-inside-5" fill="white">
<rect x="58.85" y="11.2584" width="38.1054" height="77.0767" rx="0.866031"/>
</mask>
<rect x="58.85" y="11.2584" width="38.1054" height="77.0767" rx="0.866031" stroke="#2B4CB9" stroke-width="3.46412" mask="url(#path-7-inside-5)"/>
<path d="M60.582 86.6031L78.315 12.9905L95.2233 86.6031" stroke="#2B4CB9" stroke-width="0.866031"/>
<path d="M95.2233 12.9905L60.582 49.7968L95.2233 86.6031" stroke="#2B4CB9" stroke-width="0.866031"/>
<rect x="97.8214" y="45.8997" width="1.73206" height="8.66031" rx="0.866031" fill="#2B4CB9"/>
<mask id="path-11-inside-6" fill="white">
<rect x="100.419" y="6.06226" width="48.4977" height="87.4691" rx="0.866031"/>
</mask>
<rect x="100.419" y="6.06226" width="48.4977" height="87.4691" rx="0.866031" stroke="#2B4CB9" stroke-width="3.46412" mask="url(#path-11-inside-6)"/>
<mask id="path-12-inside-7" fill="white">
<rect x="105.616" y="11.2584" width="38.1054" height="77.0767" rx="0.866031"/>
</mask>
<rect x="105.616" y="11.2584" width="38.1054" height="77.0767" rx="0.866031" stroke="#2B4CB9" stroke-width="3.46412" mask="url(#path-12-inside-7)"/>
</svg>
