<svg width="154" height="151" viewBox="0 0 154 151" fill="none" xmlns="http://www.w3.org/2000/svg">
<path d="M55.7622 98.9704V98.0624H54.8542H1.73709V0.907982L117.051 0.907985V133.83H55.7622V98.9704Z" stroke="#2B4CB9" stroke-width="1.81597"/>
<path d="M132.087 56.0971V57.2031H125.693V56.3387L129.316 52.8429C129.757 52.4192 130.054 52.0548 130.206 51.7497C130.359 51.4362 130.435 51.1226 130.435 50.809C130.435 50.3429 130.27 49.9828 129.939 49.7285C129.617 49.4658 129.151 49.3345 128.541 49.3345C127.558 49.3345 126.799 49.6565 126.265 50.3006L125.401 49.5506C125.749 49.1268 126.202 48.7963 126.761 48.5591C127.329 48.3218 127.96 48.2031 128.655 48.2031C129.587 48.2031 130.329 48.4277 130.88 48.8768C131.431 49.3175 131.706 49.9192 131.706 50.6819C131.706 51.1565 131.604 51.6056 131.401 52.0294C131.198 52.4531 130.812 52.9361 130.244 53.4785L127.524 56.0971H132.087Z" fill="#2B4CB9"/>
<path d="M135.891 48.3048V57.2031H134.633V49.4107H132.624V48.3048H135.891Z" fill="#2B4CB9"/>
<path d="M141.473 57.3048C140.77 57.3048 140.143 57.1268 139.592 56.7709C139.049 56.4065 138.621 55.881 138.308 55.1946C137.994 54.5082 137.837 53.6946 137.837 52.7539C137.837 51.8133 137.994 50.9997 138.308 50.3133C138.621 49.6268 139.049 49.1057 139.592 48.7497C140.143 48.3853 140.77 48.2031 141.473 48.2031C142.168 48.2031 142.787 48.3853 143.329 48.7497C143.88 49.1057 144.312 49.6268 144.626 50.3133C144.939 50.9997 145.096 51.8133 145.096 52.7539C145.096 53.6946 144.939 54.5082 144.626 55.1946C144.312 55.881 143.88 56.4065 143.329 56.7709C142.787 57.1268 142.168 57.3048 141.473 57.3048ZM141.473 56.1734C142.185 56.1734 142.753 55.881 143.176 55.2963C143.609 54.7116 143.825 53.8641 143.825 52.7539C143.825 51.6438 143.609 50.7963 143.176 50.2116C142.753 49.6268 142.185 49.3345 141.473 49.3345C140.753 49.3345 140.176 49.6268 139.744 50.2116C139.321 50.7963 139.109 51.6438 139.109 52.7539C139.109 53.8641 139.321 54.7116 139.744 55.2963C140.176 55.881 140.753 56.1734 141.473 56.1734Z" fill="#2B4CB9"/>
<path d="M149.952 57.3048C149.248 57.3048 148.621 57.1268 148.07 56.7709C147.528 56.4065 147.1 55.881 146.786 55.1946C146.473 54.5082 146.316 53.6946 146.316 52.7539C146.316 51.8133 146.473 50.9997 146.786 50.3133C147.1 49.6268 147.528 49.1057 148.07 48.7497C148.621 48.3853 149.248 48.2031 149.952 48.2031C150.647 48.2031 151.265 48.3853 151.808 48.7497C152.358 49.1057 152.791 49.6268 153.104 50.3133C153.418 50.9997 153.575 51.8133 153.575 52.7539C153.575 53.6946 153.418 54.5082 153.104 55.1946C152.791 55.881 152.358 56.4065 151.808 56.7709C151.265 57.1268 150.647 57.3048 149.952 57.3048ZM149.952 56.1734C150.664 56.1734 151.231 55.881 151.655 55.2963C152.087 54.7116 152.303 53.8641 152.303 52.7539C152.303 51.6438 152.087 50.7963 151.655 50.2116C151.231 49.6268 150.664 49.3345 149.952 49.3345C149.231 49.3345 148.655 49.6268 148.223 50.2116C147.799 50.7963 147.587 51.6438 147.587 52.7539C147.587 53.8641 147.799 54.7116 148.223 55.2963C148.655 55.881 149.231 56.1734 149.952 56.1734Z" fill="#2B4CB9"/>
<path d="M52.3558 149.172V150.278H45.9617V149.413L49.5846 145.918C50.0253 145.494 50.3219 145.129 50.4744 144.824C50.627 144.511 50.7032 144.197 50.7032 143.884C50.7032 143.418 50.538 143.057 50.2075 142.803C49.8854 142.54 49.4194 142.409 48.8092 142.409C47.8261 142.409 47.0677 142.731 46.5338 143.375L45.6694 142.625C46.0168 142.201 46.4702 141.871 47.0295 141.634C47.5973 141.396 48.2287 141.278 48.9236 141.278C49.8558 141.278 50.5973 141.502 51.1482 141.951C51.699 142.392 51.9744 142.994 51.9744 143.757C51.9744 144.231 51.8727 144.68 51.6693 145.104C51.4659 145.528 51.0804 146.011 50.5126 146.553L47.7922 149.172H52.3558Z" fill="#2B4CB9"/>
<path d="M56.1594 141.379V150.278H54.9009V142.485H52.8924V141.379H56.1594Z" fill="#2B4CB9"/>
<path d="M61.7413 150.379C61.038 150.379 60.4108 150.201 59.86 149.845C59.3176 149.481 58.8897 148.956 58.5761 148.269C58.2626 147.583 58.1058 146.769 58.1058 145.829C58.1058 144.888 58.2626 144.074 58.5761 143.388C58.8897 142.701 59.3176 142.18 59.86 141.824C60.4108 141.46 61.038 141.278 61.7413 141.278C62.4363 141.278 63.0549 141.46 63.5973 141.824C64.1481 142.18 64.5803 142.701 64.8939 143.388C65.2074 144.074 65.3642 144.888 65.3642 145.829C65.3642 146.769 65.2074 147.583 64.8939 148.269C64.5803 148.956 64.1481 149.481 63.5973 149.845C63.0549 150.201 62.4363 150.379 61.7413 150.379ZM61.7413 149.248C62.4532 149.248 63.021 148.956 63.4447 148.371C63.8769 147.786 64.093 146.939 64.093 145.829C64.093 144.718 63.8769 143.871 63.4447 143.286C63.021 142.701 62.4532 142.409 61.7413 142.409C61.021 142.409 60.4447 142.701 60.0125 143.286C59.5888 143.871 59.377 144.718 59.377 145.829C59.377 146.939 59.5888 147.786 60.0125 148.371C60.4447 148.956 61.021 149.248 61.7413 149.248Z" fill="#2B4CB9"/>
<path d="M70.22 150.379C69.5166 150.379 68.8895 150.201 68.3387 149.845C67.7963 149.481 67.3683 148.956 67.0548 148.269C66.7412 147.583 66.5844 146.769 66.5844 145.829C66.5844 144.888 66.7412 144.074 67.0548 143.388C67.3683 142.701 67.7963 142.18 68.3387 141.824C68.8895 141.46 69.5166 141.278 70.22 141.278C70.9149 141.278 71.5336 141.46 72.0759 141.824C72.6268 142.18 73.059 142.701 73.3725 143.388C73.6861 144.074 73.8429 144.888 73.8429 145.829C73.8429 146.769 73.6861 147.583 73.3725 148.269C73.059 148.956 72.6268 149.481 72.0759 149.845C71.5336 150.201 70.9149 150.379 70.22 150.379ZM70.22 149.248C70.9319 149.248 71.4997 148.956 71.9234 148.371C72.3556 147.786 72.5717 146.939 72.5717 145.829C72.5717 144.718 72.3556 143.871 71.9234 143.286C71.4997 142.701 70.9319 142.409 70.22 142.409C69.4997 142.409 68.9234 142.701 68.4912 143.286C68.0675 143.871 67.8556 144.718 67.8556 145.829C67.8556 146.939 68.0675 147.786 68.4912 148.371C68.9234 148.956 69.4997 149.248 70.22 149.248Z" fill="#2B4CB9"/>
<mask id="path-4-inside-1" fill="white">
<rect x="7.185" y="6.35583" width="50.8472" height="86.2586" rx="0.907985"/>
</mask>
<rect x="7.185" y="6.35583" width="50.8472" height="86.2586" rx="0.907985" stroke="#2B4CB9" stroke-width="3.63194" mask="url(#path-4-inside-1)"/>
<mask id="path-5-inside-2" fill="white">
<rect x="12.6329" y="11.8038" width="39.9513" height="75.3627" rx="0.907985"/>
</mask>
<rect x="12.6329" y="11.8038" width="39.9513" height="75.3627" rx="0.907985" stroke="#2B4CB9" stroke-width="3.63194" mask="url(#path-5-inside-2)"/>
<path d="M61.6641 7.26382L110.695 7.26382V127.474H61.6641L61.6641 7.26382Z" stroke="#2B4CB9" stroke-width="1.81597"/>
<path d="M109.787 8.17188L67.6263 67.3762L109.787 126.581" stroke="#2B4CB9" stroke-width="0.907985"/>
<mask id="path-8-inside-3" fill="white">
<rect x="66.204" y="11.8038" width="39.9513" height="80.8107" rx="0.907985"/>
</mask>
<rect x="66.204" y="11.8038" width="39.9513" height="80.8107" rx="0.907985" stroke="#2B4CB9" stroke-width="3.63194" mask="url(#path-8-inside-3)"/>
<path d="M67.112 98.0624V98.0624H105.247V122.026H67.112L67.112 98.0624Z" stroke="#2B4CB9" stroke-width="1.81597"/>
<rect x="63.48" y="62.8363" width="1.81597" height="9.07985" rx="0.907985" fill="#2B4CB9"/>
</svg>
