<svg width="86" height="151" viewBox="0 0 86 151" fill="none" xmlns="http://www.w3.org/2000/svg">
<g clip-path="url(#clip0)">
<path d="M27.9033 117.441L40.189 110.26V119.976L33.9421 129.059L27.9033 132.65V117.441Z" fill="white"/>
<path d="M44.3538 107.724L51.8501 103.288L44.3538 114.061V107.724Z" fill="white"/>
<path d="M20.8232 46.8915V144.266L22.2809 145.111L64.5521 118.497L66.0097 21.967L64.5521 21.1221L20.8232 46.8915ZM23.9467 48.7925L61.4286 26.8251V116.807L23.9467 138.774V48.7925Z" fill="#7B7F8B"/>
<path d="M23.947 48.7923L61.4289 26.6138V116.595L23.947 138.563V48.7923Z" fill="#F4F5FA"/>
<path d="M27.2783 50.9051L58.305 32.7397V71.8163L27.2783 89.9816V50.9051Z" fill="#62A6BD"/>
<path d="M39.3558 45.4131V60.6212L30.4018 66.1131L27.2783 67.8029V52.5947L39.3558 45.4131Z" fill="#71B9D1"/>
<path d="M55.8062 35.9077V51.1159L43.5205 58.2975V43.0893L48.3099 40.3434L55.8062 35.9077Z" fill="#71B9D1"/>
<path d="M30.4021 66.1135L39.3561 53.0176V60.6217L30.4021 66.1135Z" fill="#89C8DE"/>
<path d="M55.8062 35.9077V51.1159L43.5205 58.2975V47.1026L48.3099 40.3434L55.8062 35.9077Z" fill="#89C8DE"/>
<path d="M39.3558 66.1128V81.321L36.0241 83.4332L27.2783 88.5026V73.2944L39.3558 66.1128Z" fill="#71B9D1"/>
<path d="M55.8062 56.397V71.6051L50.8087 74.5623L43.5205 78.7868V63.5786L53.9321 57.6643L55.8062 56.397Z" fill="#71B9D1"/>
<path d="M27.2783 73.2944L39.3558 66.1128V78.3638L36.0241 83.4332L27.2783 88.5026V73.2944Z" fill="#89C8DE"/>
<path d="M43.5205 63.5779L53.9321 57.6636L43.5205 72.4493V63.5779Z" fill="#89C8DE"/>
<path d="M55.8064 71.6051L50.8088 74.5622L55.8064 67.5918V71.6051Z" fill="#89C8DE"/>
<path d="M41.8549 42.2446V81.3212L40.6055 80.6875V43.0895L41.8549 42.2446Z" fill="#7B7F8B"/>
<path d="M27.9033 95.6853L58.93 77.52V115.752L27.9033 133.917V95.6853Z" fill="#62A6BD"/>
<path d="M40.189 110.26V125.468L33.9421 129.059L27.9033 132.65V117.441L40.189 110.26Z" fill="#89C8DE"/>
<path d="M56.6395 100.543V115.751L44.3538 122.933V107.725L51.8501 103.289L56.6395 100.543Z" fill="#89C8DE"/>
<path d="M40.189 90.1929V105.401L27.9033 112.583V97.3745L39.9808 90.1929H40.189Z" fill="#71B9D1"/>
<path d="M39.9808 90.1929H40.189V105.401L27.9033 112.583V107.513L39.9808 90.1929Z" fill="#89C8DE"/>
<path d="M56.6395 80.4761V95.6842L44.3538 102.866V87.6577L56.6395 80.4761Z" fill="#FFFFFC"/>
<path d="M56.6395 80.4761V95.6842L44.3538 102.866V87.6577L56.6395 80.4761Z" fill="#89C8DE"/>
<path d="M42.4796 87.2349V125.467L41.2302 124.833V87.8685L42.4796 87.2349Z" fill="#7B7F8B"/>
<path d="M58.93 95.6838L27.9033 113.849V112.371L57.6806 94.8389L58.93 95.6838Z" fill="#7D7160"/>
<path d="M58.305 51.1156L27.2783 69.2809V67.8023L57.0556 50.4819L58.305 51.1156Z" fill="#7B7F8B"/>
<path d="M58.93 77.52V115.752L27.9033 133.917V132.65L57.6806 115.118V78.1537L58.93 77.52Z" fill="#7B7F8B"/>
<path d="M58.305 32.7397V71.8163L27.2783 89.9816V88.503L57.0556 70.9714V33.3734L58.305 32.7397Z" fill="#7B7F8B"/>
<path d="M42.4797 87.2361L44.3538 85.9688V124.412L42.4797 125.468V87.2361Z" fill="#F4F5FA"/>
<path d="M58.93 95.6841V97.7963L27.9033 115.962V113.849L58.93 95.6841Z" fill="#F4F5FA"/>
<path d="M41.8547 42.2451L43.5206 41.189V80.2655L41.8547 81.3216V42.2451Z" fill="#F4F5FA"/>
<path d="M58.305 51.1162V53.2285L27.2783 71.3938V69.2815L58.305 51.1162Z" fill="#F4F5FA"/>
<path d="M22.2808 47.7362V145.111L66.0096 119.553V21.9668L22.2808 47.7362ZM25.4043 49.6372L62.8861 27.6699V117.652L25.4043 139.408V49.6372Z" fill="#F4F5FA"/>
<path d="M77.2543 0L0 45.4133V202.987L6.87168 207L82.4601 161.164L84.126 4.01327L77.2543 0ZM66.0098 119.342L22.2809 145.111V49.2153L66.218 23.4459V119.342H66.0098Z" fill="#665D47"/>
<path d="M6.87168 49.2151V206.789L0 202.987V45.4131L6.87168 49.2151Z" fill="#474536"/>
<path d="M6.87158 49.2147V206.788L84.1259 161.375V4.0127L6.87158 49.2147ZM22.2808 49.2147L66.2179 23.4454V119.13L22.2808 145.111V49.2147Z" fill="#827C5A"/>
<path d="M72.2567 19.8545V122.932L66.0098 119.341V23.6565L72.2567 19.8545Z" fill="#474536"/>
<path d="M22.2808 148.49L39.5641 141.097L27.0701 151.447V155.249L22.2808 152.503V148.49Z" fill="#9497A1"/>
<path d="M27.0706 151.448L71.4241 122.51L73.9229 123.989V128.002L27.0706 155.25V151.448Z" fill="#C5C7CF"/>
<path d="M66.0096 119.342L73.9225 123.989L27.0701 151.448L22.0725 148.491L22.2807 145.111L66.0096 119.342Z" fill="#DBDCE0"/>
<path d="M72.2566 19.8545L66.2179 28.5147L22.2808 54.0729V49.2147L72.2566 19.8545Z" fill="#89836E"/>
<path d="M41.8547 67.5913L35.8159 71.8158C35.8159 71.8158 33.9419 73.7168 33.3172 73.928C32.9007 74.1392 30.8184 83.0107 30.8184 83.4331C30.8184 83.8556 31.8595 100.331 31.8595 100.331C31.8595 100.331 41.8547 110.047 42.4794 110.892C43.3123 111.737 46.2276 117.863 46.2276 117.863L43.5206 132.648L46.644 140.041L45.3947 144.688L41.6465 146.8C41.6465 146.8 41.23 161.586 41.8547 163.487C42.4794 165.388 43.1041 185.666 43.1041 185.666L58.0968 176.794L57.4722 147.857L56.2228 130.959C56.2228 130.959 65.385 106.879 65.385 106.245C65.385 105.823 65.385 90.826 65.385 90.826L57.2639 73.928L55.8063 67.5913L58.9298 66.1127L59.3462 62.9443L51.8499 66.3239L49.7675 67.5913L51.0169 71.6045L53.3075 75.829L57.0557 82.1658C57.0557 82.1658 57.2639 92.9382 57.4722 92.9382C57.4722 92.9382 53.5157 88.5025 53.5157 88.0801C53.3075 87.6576 47.2687 85.9678 47.2687 85.9678L43.937 92.3045L40.1888 90.4035L38.1065 77.5188L50.8087 70.5484L49.7675 67.5913H41.8547Z" fill="#89836E"/>
<path d="M71.8407 102.021L74.7559 102.655C74.7559 102.655 74.3395 100.542 73.2983 99.0637C72.2571 97.3739 71.4242 95.0504 71.4242 95.0504C71.4242 95.0504 68.7172 94.2055 67.676 95.2617C66.8431 96.1066 66.4266 99.9086 66.6349 100.753C66.8431 101.598 70.5913 103.922 70.5913 103.922C70.7995 103.499 71.8407 102.021 71.8407 102.021Z" fill="#21367C"/>
<path d="M58.3053 60.1987L32.9009 74.1395V77.5191L34.3585 78.1528L59.7629 64.212V60.6212L58.3053 60.1987Z" fill="#FF971A"/>
<path d="M50.1839 68.0137L47.8933 69.281V70.3371L50.1839 69.0698V68.0137Z" fill="#1C130B"/>
<path d="M49.9759 68.436L48.3101 69.2809V70.1258L49.9759 69.0697V68.436Z" fill="#54AE0B"/>
<path d="M59.7629 61.2549L34.9832 74.9844L34.3585 78.1528L32.9009 77.5191V74.1395L58.3053 60.1987L59.7629 60.6212V61.2549Z" fill="#1C130B"/>
<path d="M76.6296 185.454C76.6296 185.454 76.2132 187.144 74.3391 186.933C73.5061 186.933 72.6732 186.51 72.0485 185.877C71.0073 185.032 70.1744 183.976 70.1744 183.342C70.1744 182.286 68.925 173.203 67.8839 170.035C66.8427 166.866 64.5521 158.84 63.7192 155.46C63.3027 153.137 62.4698 149.124 63.0945 145.955C63.3027 144.688 63.9274 143.421 64.7604 142.576C67.6756 139.83 72.2567 137.929 72.2567 137.929C72.2567 137.929 73.2979 138.985 73.7144 142.998C74.1308 147.011 73.2979 149.546 73.2979 150.391C73.2979 151.236 74.1308 162.431 74.7555 163.909C75.172 165.388 76.0049 167.5 76.0049 172.992C76.0049 178.061 76.6296 185.454 76.6296 185.454Z" fill="#2B4396"/>
<path d="M71.8403 185.878C70.7991 185.033 69.9662 183.977 69.9662 183.343C69.9662 182.287 68.7168 173.205 67.6756 170.036C66.6344 166.868 64.3439 158.841 63.5109 155.462C63.0945 153.138 62.2616 149.125 62.8863 145.957C64.7603 147.224 65.385 148.702 65.385 148.702C65.385 148.702 65.1768 157.363 66.218 160.742C67.2591 164.122 68.5085 166.868 69.3415 169.614C70.3826 172.571 71.0073 181.231 71.2156 183.132C71.632 184.188 71.8403 185.033 71.8403 185.878Z" fill="#445EB6"/>
<path d="M67.8836 146.167C67.4671 149.335 64.3436 151.236 64.3436 151.236C64.3436 151.236 64.1354 158.418 64.1354 161.375C63.9272 164.121 65.1766 172.147 65.593 176.161C66.2177 180.174 65.593 192.847 65.593 192.847C65.593 192.847 63.3025 194.326 61.8449 194.326C60.5955 194.115 59.5543 193.059 58.9296 192.636C58.7214 192.425 58.7214 192.425 58.7214 192.425C58.7214 192.425 57.8884 189.045 57.0555 184.187C56.2226 179.329 56.2226 175.316 55.8061 172.992C55.3896 170.669 50.8085 155.672 50.1838 151.87C49.9756 151.025 49.9756 149.758 49.9756 148.49C49.9756 147.223 49.9756 145.744 50.1838 144.477C50.1838 143.421 50.3921 142.576 50.3921 141.942C50.3921 141.097 50.6003 140.675 50.6003 140.675L51.6414 140.464L52.2661 140.253L65.8013 137.295C65.8013 137.295 67.4671 140.886 67.8836 144.055C67.8836 144.266 67.8836 144.477 67.8836 144.477C68.0918 144.899 68.0918 145.533 67.8836 146.167Z" fill="#2B4396"/>
<path d="M75.0514 105.166C75.0514 106.856 75.0514 108.968 74.4267 110.235C74.0103 111.08 73.5938 111.925 73.1773 112.77C72.7609 114.037 72.1362 115.516 71.7197 118.473C71.095 121.641 71.3032 123.754 71.5115 125.232C71.7197 126.288 71.7197 126.922 71.9279 127.345C72.1362 128.612 72.1362 132.836 72.1362 133.048C72.1362 133.048 72.5526 134.737 72.9691 136.427C73.1773 137.483 73.3856 138.751 73.3856 139.384C73.3856 139.807 73.1773 140.229 72.9691 140.652C72.1362 141.708 70.6785 142.975 68.388 143.82C66.7221 144.454 64.6398 145.087 62.3492 145.087C58.1846 145.299 54.6446 144.031 52.5623 142.764C52.5623 142.764 52.5623 142.764 52.3541 142.764C51.7294 142.341 51.3129 142.13 51.1047 141.708C50.6882 141.285 50.48 141.074 50.48 140.863C50.48 140.018 51.1047 137.272 50.8964 131.147C50.8964 130.09 50.8964 129.246 50.8964 128.401C50.6882 125.866 50.6882 123.331 50.6882 121.008C50.6882 119.529 50.6882 118.051 50.6882 116.783C50.6882 116.572 50.6882 116.361 50.6882 115.938C51.1047 112.348 51.3129 110.658 51.3129 110.658L53.6035 106.222L55.4776 103.054L57.7681 101.998C57.7681 101.998 58.6011 101.998 59.6422 101.575C60.2669 101.364 61.0998 101.153 61.7245 100.941C63.1822 100.308 65.8892 98.4067 69.0127 98.8292C72.1362 99.2516 74.635 101.364 75.2597 102.209C75.0514 103.054 75.0514 104.11 75.0514 105.166Z" fill="#172B6F"/>
<path fill-rule="evenodd" clip-rule="evenodd" d="M71.0811 115.249L68.3419 115.419L64.773 106.443L67.5122 106.272L71.0811 115.249ZM67.8139 115.452L65.0747 115.623L62.2548 108.439L64.994 108.269L67.8139 115.452ZM64.4924 115.672L59.8392 115.962L61.6866 108.539L64.4924 115.672ZM61.7806 110.091C61.9964 110.62 62.4487 111.845 62.8612 112.962L62.8661 112.976C63.2199 113.934 63.5435 114.81 63.6627 115.097L60.6045 115.288C60.6723 115.03 60.8263 114.317 61.0054 113.487L61.0063 113.483C61.2772 112.229 61.6055 110.709 61.7806 110.091Z" fill="#D0D8F3"/>
<path fill-rule="evenodd" clip-rule="evenodd" d="M71.3552 116.626L71.2313 116.633L71.2492 116.965L71.2032 116.967L71.1853 116.635L71.0615 116.642L71.0591 116.596L71.3562 116.58L71.3587 116.626L71.3552 116.626ZM59.6531 118.86C59.6903 119.551 60.0995 119.969 60.7434 119.933C60.9662 119.921 61.2043 119.862 61.3776 119.718L61.381 119.519C61.3273 119.576 61.0906 119.792 60.7757 119.809C60.3158 119.835 59.9731 119.467 59.9404 118.86C59.9116 118.325 60.1516 117.841 60.6894 117.811C60.9901 117.794 61.2174 117.996 61.2629 118.051L61.2839 118.046C61.2936 117.961 61.3069 117.88 61.3309 117.798C61.1279 117.717 60.9056 117.676 60.6934 117.688C60.0778 117.722 59.6148 118.15 59.6531 118.86ZM63.2093 119.755L63.2087 119.755L63.208 119.755C63.1837 119.758 63.1599 119.761 63.1363 119.763C63.0372 119.504 62.9148 119.208 62.7826 118.928L62.0397 118.969C62.0284 119.006 62.017 119.043 62.0056 119.079C61.929 119.327 61.8524 119.574 61.7955 119.837L61.7717 119.836C61.7403 119.835 61.7139 119.834 61.6855 119.835C61.6654 119.836 61.6473 119.839 61.6301 119.842L61.6295 119.842C61.6137 119.845 61.5984 119.848 61.5833 119.849L62.3773 117.595L62.4445 117.591L63.4405 119.746C63.4135 119.747 63.3882 119.747 63.3634 119.746C63.3394 119.745 63.3159 119.745 63.2915 119.746C63.2625 119.748 63.2354 119.751 63.2093 119.755ZM64.5481 118.832L64.5467 118.83L64.5463 118.83L64.5459 118.83L64.5456 118.829L64.5452 118.829L64.5448 118.829L64.5445 118.828L64.5441 118.828L64.5437 118.827L64.5434 118.827L64.543 118.827L64.5426 118.826L64.5423 118.826C64.4416 118.719 64.341 118.611 64.2428 118.502L64.4829 118.217L65.1074 117.493C65.0875 117.494 65.0677 117.497 65.0484 117.5L65.0478 117.5L65.0472 117.5C65.0293 117.503 65.0114 117.506 64.9947 117.507C64.9553 117.509 64.9218 117.508 64.8859 117.506L64.8775 117.506L64.2026 118.348C64.1909 118.36 64.1779 118.375 64.1641 118.391C64.1301 118.43 64.0911 118.474 64.0551 118.509C64.0248 118.537 63.9865 118.551 63.9819 118.532L63.9294 117.558C63.9062 117.56 63.8848 117.563 63.8639 117.566L63.8634 117.566C63.8431 117.569 63.8233 117.572 63.8025 117.573C63.76 117.575 63.7174 117.574 63.6747 117.572L63.791 119.73C63.81 119.729 63.8306 119.726 63.8517 119.723C63.8736 119.72 63.8963 119.717 63.9179 119.715C63.9538 119.713 63.9929 119.714 64.035 119.716L64.0456 119.716L63.9864 118.616C63.9856 118.601 64.0216 118.61 64.0364 118.621L64.7165 119.391C64.7957 119.479 64.8646 119.571 64.9336 119.667C64.9597 119.665 64.9857 119.662 65.0121 119.659C65.0394 119.655 65.0672 119.652 65.0959 119.65C65.1378 119.648 65.1799 119.648 65.2284 119.649L65.2555 119.649L65.2547 119.634L65.0006 119.33C64.8554 119.159 64.7016 118.995 64.5481 118.832ZM66.4106 119.619C65.7668 119.655 65.3575 119.237 65.3203 118.546C65.282 117.836 65.7451 117.408 66.3606 117.374C66.5729 117.362 66.7951 117.403 66.9981 117.484C66.9741 117.566 66.9608 117.647 66.9511 117.732L66.9301 117.737C66.8846 117.682 66.6573 117.48 66.3566 117.497C65.8189 117.526 65.5789 118.011 65.6077 118.545C65.6404 119.153 65.9831 119.52 66.4429 119.495C66.7578 119.477 66.9945 119.261 67.0482 119.205L67.0448 119.404C66.8716 119.548 66.6335 119.607 66.4106 119.619ZM67.3829 117.712C67.4223 117.652 67.6266 117.426 67.9273 117.41C68.419 117.382 68.7088 117.757 68.7735 118.232L67.9633 118.277C67.9213 118.279 67.8791 118.278 67.8365 118.276L67.8359 118.276C67.7925 118.275 67.7487 118.274 67.7043 118.276C67.7049 118.287 67.7072 118.3 67.7096 118.313C67.7122 118.327 67.7149 118.342 67.7157 118.356C67.7162 118.366 67.7154 118.378 67.7146 118.391C67.7135 118.407 67.7123 118.425 67.7133 118.444C67.7554 118.442 67.7972 118.436 67.8394 118.429L67.8402 118.429L67.8408 118.429L67.8417 118.429C67.8841 118.423 67.9269 118.417 67.9708 118.414L68.7844 118.369C68.8169 118.973 68.516 119.38 68.0561 119.406C67.7412 119.423 67.4862 119.234 67.4232 119.184L67.4481 119.382C67.6392 119.505 67.8787 119.538 68.1016 119.526C68.7455 119.49 69.1074 119.029 69.0701 118.338C69.0321 117.632 68.5256 117.254 67.9101 117.288C67.6943 117.3 67.4778 117.365 67.2882 117.468C67.3208 117.547 67.343 117.63 67.3615 117.709L67.3829 117.712ZM70.3833 119.399C69.7395 119.435 69.3302 119.017 69.2929 118.326C69.2547 117.616 69.7178 117.188 70.3334 117.154C70.5456 117.142 70.7678 117.183 70.9709 117.264C70.9469 117.346 70.9334 117.427 70.9239 117.512L70.9028 117.517C70.8574 117.462 70.63 117.26 70.3293 117.276C69.7916 117.306 69.5515 117.791 69.5803 118.325C69.613 118.932 69.9557 119.3 70.4157 119.275C70.7305 119.257 70.9672 119.041 71.021 118.985L71.0175 119.184C70.8407 119.328 70.6027 119.387 70.3833 119.399ZM62.7332 118.801L62.0893 118.836L62.3643 118.013L62.7332 118.801ZM71.7091 116.939L71.7551 116.937L71.7347 116.559L71.6711 116.562L71.5939 116.777L71.4906 116.572L71.427 116.576L71.4473 116.954L71.4898 116.952L71.4723 116.627L71.5798 116.843L71.608 116.842L71.6916 116.615L71.7091 116.939Z" fill="#D0D8F3"/>
<path d="M56.0146 123.989C56.0146 123.989 61.6369 130.537 62.6781 131.17C63.7193 131.804 61.4287 129.058 61.4287 129.058L56.0146 123.989Z" fill="#243981"/>
<path d="M53.7241 124.411C53.7241 124.411 56.8476 131.804 58.097 133.493C59.3464 134.972 63.3028 139.619 63.3028 139.619L58.097 131.592L53.7241 124.411Z" fill="#243981"/>
<path d="M71.424 118.285C70.3828 123.566 71.424 125.889 71.6322 127.368C71.8405 128.635 71.8405 132.86 71.8405 133.071C71.8405 133.071 72.2569 134.761 72.6734 136.451V140.675C72.2569 138.563 71.6322 133.705 71.6322 133.705L70.7993 136.239L68.3005 140.041C68.3005 139.83 70.1746 132.649 70.3828 131.804C70.3828 130.959 70.1746 127.157 70.1746 127.157L68.9252 128.213C68.9252 128.213 65.8017 130.114 66.2182 129.691C66.8429 129.269 68.9252 126.523 68.9252 126.523L69.9664 122.299L68.0923 123.355L69.9664 121.454L71.2158 115.751L72.6734 112.793C72.4652 113.85 71.8404 115.539 71.424 118.285Z" fill="#243981"/>
<path d="M72.8812 136.873C72.8812 137.507 73.0894 140.041 73.0894 140.041C73.0894 140.041 73.0894 140.041 72.2565 141.309C71.84 141.942 70.1742 143.21 67.8836 144.266C66.0095 145.111 63.5107 145.744 61.2202 145.956C57.472 145.956 53.5156 145.111 51.6415 144.477C50.8085 144.266 50.3921 144.054 50.3921 144.054C50.3921 144.054 50.1838 143.632 49.9756 141.942C49.7674 140.252 49.9756 137.718 49.9756 137.507C49.9756 137.295 50.1838 128.213 50.1838 128.213C50.1838 128.213 50.1838 128.213 50.1838 128.424C50.3921 129.269 51.8497 132.86 52.2662 132.648C52.8909 132.437 57.0555 131.803 57.0555 131.803L61.0119 127.579C61.0119 127.579 60.3872 113.849 61.0119 109.202C61.4284 104.556 57.2637 102.232 57.2637 102.232L58.5131 101.598L58.9296 101.81L60.5955 102.654C60.5955 102.654 62.6778 104.133 62.886 105.823C63.0943 107.513 62.886 107.935 62.4696 112.371C62.0531 116.807 63.0943 123.988 63.0943 123.988L67.0507 122.721C67.0507 122.721 69.133 112.371 69.7577 110.47C70.3824 108.358 71.6318 104.133 71.4236 102.866C71.2153 101.598 67.6754 100.542 67.6754 100.542V99.2749C67.6754 99.2749 72.2565 100.965 72.8812 102.021C73.5059 103.077 73.0894 105.189 71.6318 109.625C69.9659 114.061 68.9248 122.721 68.9248 122.721L70.3824 123.566C70.3824 123.566 70.5906 124.199 71.0071 125.044C71.2153 125.678 71.4236 126.523 71.6318 126.945C71.84 127.79 71.84 132.226 71.84 132.226C71.84 132.226 72.8812 136.239 72.8812 136.873Z" fill="#2B4396"/>
<path d="M56.6391 172.992C56.0144 163.698 52.4744 158.206 51.6415 151.659C51.4332 149.546 51.225 147.434 51.225 145.322C51.225 145.111 51.225 144.899 51.4332 144.688C51.6415 144.054 51.6415 143.421 51.6415 142.787C51.8497 141.942 51.8497 141.097 51.8497 140.252C51.8497 139.83 51.8497 139.196 52.0579 138.774C52.0579 136.873 52.4744 134.761 52.0579 132.86C51.6415 133.071 50.1838 129.269 49.9756 128.635V128.424V137.506C49.9756 137.718 49.7674 140.252 49.9756 141.942C50.1838 143.632 50.3921 144.054 50.3921 144.054C50.1838 146.378 50.1838 149.335 50.3921 151.236C50.8085 155.038 55.3897 169.824 56.0144 172.359C56.4308 174.682 56.4308 178.695 57.2637 183.553C58.0967 188.412 58.9296 191.791 58.9296 191.791C58.9296 191.791 58.9296 191.791 59.1378 192.002C58.3049 187.355 57.0555 179.118 56.6391 172.992Z" fill="#445EB6"/>
<path d="M52.058 104.344C52.058 104.344 49.7675 107.301 47.8934 107.935C47.4769 108.146 47.0605 108.146 46.8522 107.935C44.9781 107.09 41.6464 104.133 39.3558 101.809C37.0653 99.4858 33.7336 95.4725 33.3171 95.0501C32.9006 94.6276 33.1089 90.4031 33.5253 86.8123C33.7336 83.2215 35.1912 74.7725 35.3994 74.5613C35.3994 74.3501 35.6077 72.2378 35.8159 71.8154C35.8159 71.6041 36.0241 71.3929 36.4406 70.9705C36.6488 70.548 37.0653 70.3368 37.4817 69.9143C38.1064 69.2807 40.1888 68.647 40.1888 68.4358C40.397 68.2246 41.8546 67.1684 41.8546 67.1684V66.5348C41.8546 66.5348 42.2711 66.1123 42.4793 66.1123C42.6876 66.1123 43.104 66.3235 43.3123 66.5348L43.5205 66.746C43.5205 66.746 43.5205 66.5348 43.7287 66.3235C43.937 66.1123 44.5617 66.3235 44.7699 66.5348C44.9781 66.746 44.7699 68.0133 45.1864 67.8021C45.3946 67.5909 46.0193 68.0133 46.0193 68.0133C46.2275 68.2246 46.0193 69.0695 46.0193 69.0695C46.0193 69.0695 46.0193 69.0694 46.2275 69.2807C46.4358 69.4919 46.2275 70.548 46.2275 70.7592C46.2275 70.9705 44.9781 73.0827 44.5617 73.2939C44.1452 73.7164 42.8958 73.9276 42.0629 73.9276C41.2299 74.1388 40.1888 74.7725 40.1888 74.9837C40.1888 75.195 39.7723 80.2644 39.7723 83.0103C39.7723 85.7562 41.2299 92.7266 41.2299 92.9378C41.2299 93.149 43.7287 95.2613 44.5617 95.6837C45.3946 96.1062 48.3098 98.6409 48.3098 98.6409L49.5592 100.119L52.058 104.344Z" fill="#FAC5A8"/>
<path d="M63.5109 82.5889C63.5109 82.5889 60.8039 84.0674 60.1792 84.7011C59.5545 85.3348 58.5133 86.8134 58.5133 86.8134C58.5133 86.8134 57.4721 86.8134 57.2639 87.0246C57.0557 87.2358 57.2639 89.1368 57.2639 89.1368C57.2639 89.1368 56.431 90.8266 56.0145 92.094C55.598 93.1501 55.598 93.7838 56.0145 94.4174C56.431 94.8399 57.2639 96.1072 57.6804 96.3185C58.0968 96.5297 59.5545 96.7409 60.1792 96.3185C61.0121 95.6848 62.2615 94.8399 62.6779 94.4174C63.0944 93.995 68.9249 92.5164 69.1332 90.4042C69.5496 88.5032 67.8838 83.0113 63.5109 82.5889Z" fill="#FAC5A8"/>
<path d="M69.3414 102.654C69.3414 102.866 68.092 104.344 66.6344 104.344C65.385 104.344 61.6368 102.654 60.8039 102.654C59.9709 102.654 58.5133 102.021 58.5133 102.021C58.5133 102.021 58.9298 101.176 58.9298 100.331C58.9298 99.486 58.5133 97.3737 58.5133 97.3737L57.2639 95.8952C57.0557 95.6839 57.0557 95.4727 57.0557 95.2615C57.4721 93.7829 60.8039 90.4033 60.8039 90.4033L65.5932 90.8258C65.8014 90.8258 67.8838 98.2186 67.6755 99.486C67.6755 100.753 68.5085 100.965 68.5085 100.965C68.5085 100.965 69.1332 102.021 69.3414 102.654Z" fill="#FAC5A8"/>
<path d="M64.9685 88.9249C64.552 89.1361 63.9273 88.5024 63.0944 87.8688C62.0533 87.0239 61.0121 85.9678 61.0121 85.9678C61.0121 85.9678 57.6804 77.3075 56.8474 76.0402C56.2227 74.7729 54.7651 73.0831 54.7651 72.8718C54.5569 72.6606 53.9322 72.0269 53.9322 72.0269C53.9322 72.0269 52.6828 70.3371 52.4746 69.9147C52.2663 69.4922 52.4746 67.38 52.4746 67.38C52.4746 67.38 51.8499 65.479 51.8499 65.0565C51.8499 64.6341 52.4746 64.6341 52.6828 64.6341C52.891 64.6341 54.5569 68.0137 54.5569 68.0137L55.8063 69.4922L55.1816 67.38C55.1816 67.38 53.5157 65.9014 53.5157 65.479C53.5157 65.0565 53.7239 65.0565 53.9322 65.0565H54.5569C54.5569 65.0565 54.9733 64.4229 55.1816 64.4229C55.3898 64.4229 56.0145 64.4229 56.0145 64.4229C56.0145 64.4229 57.6804 65.6902 57.8886 65.6902C58.0968 65.6902 58.7215 67.1688 58.5133 68.2249C58.5133 68.4361 58.5133 68.6473 58.5133 68.8586C58.5133 69.7035 58.3051 70.7596 58.3051 70.7596C58.3051 70.9708 63.7191 78.1524 65.8014 81.3208C66.2179 81.9545 66.4261 82.5882 66.6344 82.7994C67.0508 84.9116 65.8014 88.7137 64.9685 88.9249Z" fill="#FAC5A8"/>
<path d="M60.1792 81.9544C60.8039 83.0105 62.0533 85.7564 63.0945 87.8687C62.0533 87.0238 61.0122 85.9676 61.0122 85.9676C61.0122 85.9676 57.6804 77.3074 56.8475 76.0401C56.2228 74.7727 54.7652 73.0829 54.7652 72.8717C54.557 72.6605 53.9323 72.0268 53.9323 72.0268C53.9323 72.0268 52.6829 70.337 52.4746 69.9146C52.2664 69.4921 52.4746 67.3799 52.4746 67.3799C52.4746 67.3799 52.6829 68.8585 52.6829 69.7034C52.6829 70.337 53.9323 71.3931 53.9323 71.3931L54.557 71.8156L55.8063 72.0268C55.8063 72.0268 56.431 71.6044 56.431 71.3931C56.431 71.3931 56.8475 71.1819 57.0557 71.1819C57.264 71.1819 57.6804 70.7595 57.6804 70.7595C57.6804 70.7595 58.0969 70.1258 58.0969 69.9146C58.0969 69.7033 58.5134 69.0697 58.5134 69.0697C58.5134 69.9146 58.3051 70.9707 58.3051 70.9707C58.3051 71.1819 63.7192 78.3636 65.8015 81.5319L61.6369 75.6176L58.3051 71.8156L57.4722 72.4493L56.431 72.8717C56.2228 72.8717 55.1817 73.0829 55.1817 73.0829L55.8063 73.5054C55.8063 73.5054 59.3463 80.4758 60.1792 81.9544Z" fill="#F8D1BC"/>
<path d="M57.6804 69.2813L56.8474 67.1691L54.5569 65.4793L54.7651 65.2681C54.7651 65.2681 57.4721 66.9579 57.4721 67.1691C57.4721 67.3803 57.6804 69.2813 57.6804 69.2813Z" fill="#F8D1BC"/>
<path d="M57.8887 68.2253L57.6805 66.5355L55.8064 64.8457L56.0146 65.0569L58.097 66.3243L57.8887 68.2253Z" fill="#FAC5A8"/>
<path d="M52.4749 67.5913L53.7242 69.9148L53.9325 70.7597H53.7242L52.8913 69.4923L52.4749 67.5913Z" fill="#F8D1BC"/>
<path d="M49.1429 100.331C48.31 99.2748 41.2301 93.9941 41.2301 93.7829C41.2301 93.5717 40.6054 93.3605 39.7725 89.9809C38.9395 86.6013 39.356 77.7299 39.356 77.7299C39.356 77.7299 38.9395 74.3503 39.356 74.3503C39.7725 74.3503 41.0219 74.139 41.0219 74.139L44.3536 73.2941L44.5618 72.6605L44.3536 72.0268L43.7289 71.8156L45.3947 70.1258L45.8112 69.0697C45.8112 69.0697 45.8112 68.0135 45.603 68.0135C45.3947 68.0135 44.9783 67.8023 44.9783 67.8023L44.7701 68.6472L43.3124 70.337L43.1042 70.5482L44.5618 68.436L44.7701 66.9574C44.7701 66.9574 44.5618 66.3237 44.1454 66.3237C43.7289 66.3237 43.5207 66.535 43.5207 66.535L43.3124 67.8023L41.4383 70.1258V69.9145L42.896 68.0135L43.1042 66.7462L43.3124 66.9574C43.3124 66.9574 43.3124 66.7462 43.5207 66.535C43.7289 66.3237 44.3536 66.535 44.5618 66.7462C44.7701 66.9574 44.5618 68.2248 44.9783 68.0135C45.1865 67.8023 45.8112 68.2248 45.8112 68.2248C46.0194 68.436 45.8112 69.2809 45.8112 69.2809C45.8112 69.2809 45.8112 69.2809 46.0194 69.4921C46.2277 69.7033 46.0194 70.7594 46.0194 70.9707C46.0194 71.1819 44.77 73.2941 44.3536 73.5054C43.9371 73.9278 42.6877 74.139 41.8548 74.139C41.0219 74.3503 39.9807 74.9839 39.9807 75.1952C39.9807 75.4064 39.5642 80.4758 39.5642 83.2217C39.5642 85.9676 41.0219 92.938 41.0219 93.1492C41.0219 93.3605 43.5207 95.4727 44.3536 95.8952C45.1865 96.3176 48.1018 98.8523 48.1018 98.8523L49.1429 100.331Z" fill="#F8D1BC"/>
<path d="M47.8934 107.935C47.4769 108.147 47.0605 108.147 46.8522 107.935C44.9781 107.091 41.6464 104.133 39.3558 101.81C37.0653 99.4865 33.7336 95.4732 33.3171 95.0508C32.9006 94.6283 33.1089 90.4038 33.5253 86.813C33.7336 83.2222 35.1912 74.7732 35.3994 74.562C35.3994 74.3508 35.6077 72.2385 35.8159 71.8161C35.8159 71.6049 36.0241 71.3936 36.4406 70.9712C36.0241 71.8161 35.8159 73.0834 35.8159 73.0834C35.8159 73.0834 35.1912 74.9845 34.5665 78.9977C33.9418 83.2222 33.5253 93.1498 33.5253 93.9947C33.5253 95.262 35.3994 96.7406 39.1476 100.754C42.0629 104.133 46.4358 106.879 47.8934 107.935Z" fill="#F8D1BC"/>
<path d="M69.3414 102.655C69.3414 102.866 68.092 104.345 66.6344 104.345C65.385 104.345 61.6368 102.655 60.8039 102.655C59.9709 102.655 58.5133 102.021 58.5133 102.021C58.5133 102.021 58.9298 101.176 58.9298 100.332C58.9298 99.4867 58.5133 97.3745 58.5133 97.3745L57.2639 95.8959C57.0557 95.6847 57.0557 95.4734 57.0557 95.2622C57.2639 95.4734 57.6804 95.8959 57.8886 96.5296L58.9298 97.7969L59.9709 101.177C59.9709 101.177 61.845 103.078 62.4697 103.078C63.0944 103.078 64.7603 103.922 66.2179 103.711C67.6755 103.922 68.7167 103.078 69.3414 102.655Z" fill="#F8D1BC"/>
<path d="M53.0995 110.893C53.0995 110.893 52.0584 115.751 52.2666 119.342C52.4748 122.933 51.77 130.521 52.1864 132.844C51.77 133.056 50.3123 129.254 50.1041 128.62C49.8959 126.085 50.1843 123.355 50.1843 121.032C50.3925 119.553 50.1843 118.286 50.1843 116.807C50.1843 116.596 50.1843 116.385 50.1843 115.962C50.6007 112.371 50.809 110.682 50.809 110.682L53.0995 106.246C54.9736 106.035 56.4313 106.035 56.6395 106.035C57.056 106.457 53.0995 110.893 53.0995 110.893Z" fill="#344991"/>
<path d="M70.1743 83.4333C70.1743 83.4333 68.092 82.5884 66.0096 81.9547C63.9273 81.5323 62.8861 82.166 62.4697 82.5884C62.0532 83.0109 61.6368 85.7568 61.6368 85.7568C61.6368 85.7568 59.7627 88.5027 59.7627 88.9251C59.7627 89.1364 59.5544 91.0374 59.5544 91.0374L59.3462 92.7272L59.7627 93.1496C59.7627 93.1496 60.5956 92.0935 61.6368 92.516C62.8861 92.9384 63.3026 97.3741 63.3026 97.5854C63.3026 97.7966 64.552 99.9088 64.552 99.9088C64.7602 99.9088 67.4673 100.331 68.3002 99.6976C69.1331 99.0639 73.7142 95.2619 74.5472 92.3047C75.1719 89.5588 72.8813 85.1231 70.1743 83.4333Z" fill="#4A2727"/>
<path d="M39.5642 74.3507C39.5642 74.3507 38.9395 73.9282 38.3148 73.9282C37.6901 73.9282 37.0654 73.9282 37.0654 73.9282L36.8572 76.0405C36.8572 76.0405 37.2736 76.8854 37.8983 77.0966C38.9395 77.519 39.5642 77.0966 39.5642 77.3078C39.7724 77.3078 39.7724 77.3078 39.7724 77.3078L40.1889 75.4068C39.9807 75.4068 39.7724 74.5619 39.5642 74.3507Z" fill="#3E362F"/>
<path d="M37.6899 74.1389C37.6899 74.1389 37.2734 74.3501 37.2734 75.195C37.2734 76.0399 37.8981 76.8848 38.5228 76.8848C39.1475 77.096 39.7722 76.8848 39.9805 76.2511C40.1887 75.6175 40.1887 74.5613 39.3558 74.1389C38.5228 73.9277 38.1064 73.9277 37.6899 74.1389Z" fill="#AEABA8"/>
<path d="M37.0657 73.9282C37.0657 73.9282 35.608 73.9282 35.3998 73.9282C35.1916 73.9282 34.5669 74.1394 34.3586 74.3507C34.1504 74.5619 34.1504 75.618 34.1504 75.618C34.1504 75.8292 34.7751 76.0405 34.7751 76.0405L34.9833 75.4068C34.9833 75.4068 35.608 75.4068 36.0245 75.618C36.2327 75.8292 36.8574 76.0405 36.8574 76.0405L37.2739 74.5619L37.0657 73.9282Z" fill="#3E362F"/>
<path d="M57.2639 102.232C57.2639 102.232 55.3898 101.387 52.891 100.754C50.3922 100.12 47.2688 98.0078 47.2688 98.0078C47.2688 98.0078 45.3947 100.12 45.1864 102.655C44.9782 105.189 45.1864 108.358 45.6029 108.78C46.0194 109.203 49.9758 111.737 50.6005 112.371C51.2252 113.005 56.2228 113.216 57.4722 109.625C58.7215 106.246 58.9298 103.711 57.2639 102.232Z" fill="#21367C"/>
<path d="M61.4287 93.9945C61.4287 93.9945 61.637 94.8394 61.0123 95.2618C60.5958 95.6843 59.1382 95.6843 59.1382 95.2618C59.1382 94.8394 59.5547 93.7833 59.7629 93.572C59.9711 93.1496 60.3876 92.7271 60.804 93.1496C61.4287 93.572 61.4287 93.9945 61.4287 93.9945Z" fill="#FFD4BD"/>
</g>
<defs>
<clipPath id="clip0">
<rect width="86" height="151" fill="white"/>
</clipPath>
</defs>
</svg>
