<svg width="576" height="570" viewBox="0 0 576 570" fill="none" xmlns="http://www.w3.org/2000/svg">
<path d="M3.6 569.788L31.0235 553.923L58.4471 569.788H60.6706L32.0824 553.289L61.3059 536.366L90.7412 553.395L62.4706 569.788H64.6941L91.9059 554.029L119.118 569.788H121.341L92.9647 553.395L122.188 536.472L151.624 553.5L123.459 569.788H125.682L152.788 554.135L179.894 569.788H182.118L153.953 553.5L183.176 536.578L212.612 553.606L184.659 569.788H186.882L213.776 554.347L240.671 569.788H242.894L214.941 553.712L244.165 536.789L273.6 553.818L245.859 569.788H248.082L274.765 554.452L301.447 569.788H303.671L275.824 553.818L305.047 536.895L334.482 553.923L306.847 569.788H309.071L335.541 554.558L362.012 569.788H364.235L336.6 553.923L365.824 537.001L395.259 554.029L367.835 569.788H370.059L396.318 554.664L422.577 569.788H424.8L397.376 554.029L426.6 537.107L456.035 554.135L428.824 569.788H431.047L457.2 554.77L483.353 569.788H485.577L458.365 554.135L487.588 537.212L517.024 554.241L490.024 569.788H492.247L518.188 554.875L544.129 569.788H546.353L519.353 554.241L548.576 537.318L575.682 552.972V551.702L549.635 536.684L575.682 521.665V520.395L548.576 536.049L519.141 519.02L548.365 502.098L575.682 517.857V516.588L549.424 501.463L575.682 486.339V485.069L548.576 500.934L519.141 483.906L548.365 466.983L575.894 482.848V481.579L549.424 466.349L575.894 451.118V449.849L548.365 465.714L518.929 448.686L548.153 431.763L575.894 447.734V446.465L549.318 431.128L575.894 415.792V414.523L548.153 430.494L518.824 413.677L548.047 396.754L576 412.831V411.562L549.212 396.12L576 380.678V379.408L548.047 395.485L518.612 378.457L547.835 361.534L575.894 377.716V376.447L548.894 360.899L576 345.457V344.188L547.941 360.37L518.506 343.342L547.729 326.419L576 342.707V341.438L548.788 325.785L576 310.131V308.862L547.729 325.15L518.294 308.122L547.518 291.199L576 307.593V306.324L548.576 290.564L576 274.911V273.642L547.518 290.036L518.082 273.007L547.306 256.085L576 272.796V271.526L548.471 255.661L576 239.796V238.527L547.306 255.027L517.871 237.998L547.094 221.076L576 237.787V236.518L548.259 220.547L576 204.47V203.201L547.094 219.807L517.659 202.778L546.882 185.855L576 202.672V201.403L548.047 185.327L571.129 172H568.906L546.882 184.692L524.859 172H522.635L545.718 185.327L516.494 202.249L487.059 185.221L510.035 172H507.812L486 184.586L464.188 172H461.965L484.835 185.221L455.612 202.144L426.176 185.115L448.835 172H446.612L425.012 184.48L403.412 172H401.188L423.953 185.115L394.729 202.038L365.294 185.009L387.741 172H385.518L364.129 184.375L342.741 172H340.518L363.071 185.009L333.847 201.932L304.412 184.904L326.647 172H324.424L303.141 184.269L281.965 172H279.741L302.082 184.904L272.859 201.826L243.424 184.798L265.553 172H263.329L242.259 184.163L221.188 172H218.965L241.094 184.798L211.871 201.72L182.435 184.692L204.353 172H202.129L181.271 184.057L160.518 172H158.294L180.212 184.692L150.988 201.615L121.553 184.586L143.259 172H141.035L120.388 183.952L99.7412 172H97.5177L119.329 184.586L90 201.403L60.5647 184.48L82.1647 172H79.9412L59.5059 183.846L38.9647 172H36.7412L58.3412 184.48L29.1176 201.403L0 184.586V185.855L27.9529 202.038L0 218.114V219.383L29.1176 202.567L58.5529 219.595L29.3294 236.518L0 219.595V220.864L28.1647 237.152L0 253.335V255.873L28.3765 272.267L0 288.555V290.882L28.5882 307.381L0 323.881V325.996L28.8 342.602L0 359.101V361.005L28.9059 377.716L0 394.322V396.014L29.1176 412.831L0 429.648V431.023L29.3294 447.945L0.105882 464.868H0V466.243H0.105882L29.5412 483.271L0.317647 500.194L0 499.771V501.357L0.211765 501.252L29.6471 518.28L0.423529 535.203L0 534.885V536.684L0.423529 536.472L29.8588 553.5L1.27059 570H3.6V569.788ZM31.8706 518.174L61.0941 501.252L90.5294 518.28L61.3059 535.203L31.8706 518.174ZM212.824 378.668L242.259 395.697L213.035 412.619L183.6 395.591L212.824 378.668ZM182.435 394.85L153 377.822L182.224 360.899L211.659 377.928L182.435 394.85ZM213.988 378.033L243.212 361.111L272.647 378.139L243.424 395.062L213.988 378.033ZM273.812 378.774L303.247 395.802L274.024 412.725L244.588 395.697L273.812 378.774ZM274.871 378.139L304.094 361.217L333.529 378.245L304.306 395.168L274.871 378.139ZM334.694 378.88L364.129 395.908L334.906 412.831L305.471 395.802L334.694 378.88ZM335.753 378.245L364.977 361.322L394.412 378.351L365.294 395.168L335.753 378.245ZM395.682 378.985L425.118 396.014L395.894 412.936L366.353 395.802L395.682 378.985ZM366.141 360.688L395.365 343.765L424.8 360.794L395.577 377.716L366.141 360.688ZM365.082 360.053L335.647 343.025L364.871 326.102L394.306 343.13L365.082 360.053ZM363.918 360.688L334.694 377.61L305.259 360.582L334.482 343.659L363.918 360.688ZM304.094 359.947L274.659 342.919L303.882 325.996L333.318 343.025L304.094 359.947ZM303.035 360.582L273.812 377.505L244.376 360.476L273.6 343.554L303.035 360.582ZM243.212 359.842L213.776 342.813L243 325.891L272.435 342.919L243.212 359.842ZM242.153 360.476L212.929 377.399L183.494 360.37L212.718 343.448L242.153 360.476ZM182.329 359.736L152.894 342.707L182.118 325.785L211.553 342.813L182.329 359.736ZM181.165 360.37L151.941 377.293L122.506 360.265L151.729 343.342L181.165 360.37ZM181.376 395.485L152.153 412.408L122.718 395.379L151.941 378.457L181.376 395.485ZM181.588 430.6L152.365 447.522L122.824 430.494L152.047 413.571L181.588 430.6ZM153.212 413.042L182.435 396.12L211.871 413.148L182.647 430.071L153.212 413.042ZM213.035 413.783L242.471 430.811L213.247 447.734L183.812 430.705L213.035 413.783ZM214.094 413.148L243.318 396.225L272.753 413.254L243.529 430.176L214.094 413.148ZM273.918 413.888L303.353 430.917L274.129 447.839L244.694 430.811L273.918 413.888ZM275.082 413.254L304.306 396.331L333.741 413.36L304.518 430.282L275.082 413.254ZM334.906 413.994L364.341 431.023L335.118 447.945L305.682 430.917L334.906 413.994ZM335.965 413.36L365.188 396.437L394.624 413.465L365.4 430.388L335.965 413.36ZM395.788 414.1L425.224 431.128L396 448.051L366.565 431.023L395.788 414.1ZM396.953 413.465L426.176 396.543L455.612 413.571L426.388 430.494L396.953 413.465ZM396.741 378.351L425.965 361.428L455.4 378.457L426.176 395.379L396.741 378.351ZM396.529 343.13L425.753 326.208L455.188 343.236L425.965 360.159L396.529 343.13ZM425.859 325.044L396.424 308.016L425.647 291.093L455.082 308.122L425.859 325.044ZM424.694 325.679L395.471 342.602L366.035 325.573L395.259 308.651L424.694 325.679ZM364.871 324.939L335.435 307.91L364.659 290.988L394.094 308.016L364.871 324.939ZM363.812 325.573L334.588 342.496L305.153 325.467L334.376 308.545L363.812 325.573ZM303.988 324.833L274.553 307.804L303.776 290.882L333.212 307.91L303.988 324.833ZM302.824 325.467L273.6 342.39L244.165 325.362L273.388 308.439L302.824 325.467ZM243 324.727L213.565 307.699L242.788 290.776L272.224 307.804L243 324.727ZM241.941 325.362L212.718 342.284L183.176 325.256L212.4 308.333L241.941 325.362ZM182.118 324.621L152.682 307.593L181.906 290.67L211.341 307.699L182.118 324.621ZM180.953 325.256L151.729 342.179L122.294 325.15L151.518 308.227L180.953 325.256ZM121.129 324.516L91.6941 307.487L120.918 290.564L150.353 307.593L121.129 324.516ZM121.129 325.785L150.565 342.813L121.341 359.736L91.9059 342.707L121.129 325.785ZM121.341 360.899L150.776 377.928L121.553 394.85L92.1177 377.716L121.341 360.899ZM150.988 413.042L121.765 429.965L92.3294 412.936L121.553 396.014L150.988 413.042ZM151.2 448.157L121.976 465.079L92.4353 448.051L121.659 431.128L151.2 448.157ZM152.259 448.791L181.694 465.82L152.471 482.742L123.035 465.714L152.259 448.791ZM153.424 448.157L182.647 431.234L212.082 448.263L182.859 465.185L153.424 448.157ZM213.247 448.897L242.682 465.926L213.459 482.848L184.024 465.82L213.247 448.897ZM214.306 448.263L243.529 431.34L272.965 448.368L243.741 465.291L214.306 448.263ZM274.129 449.003L303.565 466.031L274.341 482.954L244.906 465.926L274.129 449.003ZM275.294 448.368L304.518 431.446L333.953 448.474L304.729 465.397L275.294 448.368ZM335.118 449.109L364.553 466.137L335.329 483.06L305.788 466.031L335.118 449.109ZM336.176 448.474L365.4 431.551L394.835 448.58L365.612 465.503L336.176 448.474ZM396 449.214L425.435 466.243L396.212 483.166L366.776 466.137L396 449.214ZM397.165 448.58L426.388 431.657L455.824 448.686L426.6 465.608L397.165 448.58ZM456.988 449.32L486.424 466.349L457.2 483.271L427.765 466.243L456.988 449.32ZM427.447 431.128L456.671 414.206L486.106 431.234L456.882 448.157L427.447 431.128ZM427.341 395.908L456.565 378.985L486 396.014L456.776 412.936L427.341 395.908ZM427.129 360.794L456.353 343.871L485.788 360.899L456.565 377.822L427.129 360.794ZM456.353 342.602L426.918 325.573L456.141 308.651L485.577 325.679L456.353 342.602ZM456.141 307.487L426.706 290.564L455.929 273.642L485.365 290.67L456.141 307.487ZM425.647 289.93L396.212 272.901L425.435 255.979L454.871 273.007L425.647 289.93ZM424.482 290.564L395.259 307.487L365.824 290.459L395.047 273.536L424.482 290.564ZM364.659 289.824L335.224 272.796L364.447 255.873L393.882 272.901L364.659 289.824ZM363.6 290.459L334.376 307.381L304.941 290.353L334.165 273.43L363.6 290.459ZM303.776 289.718L274.341 272.69L303.565 255.767L333 272.796L303.776 289.718ZM302.612 290.353L273.388 307.276L243.953 290.247L273.176 273.324L302.612 290.353ZM242.788 289.507L213.353 272.478L242.576 255.556L272.118 272.69L242.788 289.507ZM241.729 290.141L212.506 307.064L183.071 290.036L212.294 273.113L241.729 290.141ZM181.906 289.401L152.471 272.478L181.694 255.556L211.129 272.584L181.906 289.401ZM180.847 290.036L151.624 306.958L122.188 289.93L151.412 273.007L180.847 290.036ZM120.918 289.295L91.4824 272.373L120.706 255.45L150.247 272.478L120.918 289.295ZM119.859 289.93L90.6353 306.853L61.2 289.824L90.4235 272.901L119.859 289.93ZM90.6353 308.122L120.071 325.15L90.8471 342.073L61.4118 325.044L90.6353 308.122ZM120.282 360.265L91.0588 377.187L61.6235 360.159L90.8471 343.236L120.282 360.265ZM120.388 395.379L91.1647 412.302L61.7294 395.273L90.9529 378.351L120.388 395.379ZM120.6 430.494L91.3765 447.416L61.9412 430.388L91.1647 413.465L120.6 430.494ZM120.812 465.714L91.5882 482.637L62.1529 465.608L91.3765 448.686L120.812 465.714ZM121.024 500.829L91.8 517.751L62.3647 500.723L91.5882 483.8L121.024 500.829ZM92.6471 483.166L121.871 466.243L151.306 483.271L122.082 500.194L92.6471 483.166ZM152.471 483.906L181.906 500.934L152.682 517.857L123.247 500.829L152.471 483.906ZM153.635 483.271L182.859 466.349L212.294 483.377L183.071 500.3L153.635 483.271ZM213.459 484.012L242.894 501.04L213.671 517.963L184.129 500.934L213.459 484.012ZM214.518 483.377L243.741 466.454L273.176 483.483L243.953 500.406L214.518 483.377ZM274.341 484.117L303.776 501.146L274.553 518.069L245.118 501.04L274.341 484.117ZM275.4 483.483L304.624 466.56L334.059 483.589L304.835 500.511L275.4 483.483ZM335.224 484.223L364.659 501.252L335.435 518.174L306 501.146L335.224 484.223ZM336.388 483.589L365.612 466.666L395.047 483.694L365.824 500.617L336.388 483.589ZM396.212 484.329L425.647 501.357L396.424 518.28L366.988 501.252L396.212 484.329ZM397.271 483.694L426.494 466.772L455.929 483.8L426.706 500.723L397.271 483.694ZM457.094 484.435L486.529 501.463L457.306 518.386L427.871 501.357L457.094 484.435ZM458.259 483.8L487.482 466.877L516.918 483.906L487.694 500.829L458.259 483.8ZM458.047 448.686L487.271 431.763L516.706 448.791L487.482 465.714L458.047 448.686ZM457.835 413.571L487.059 396.648L516.494 413.677L487.271 430.6L457.835 413.571ZM457.624 378.457L486.847 361.534L516.282 378.562L487.059 395.485L457.624 378.457ZM457.518 343.236L486.741 326.314L516.177 343.342L486.953 360.265L457.518 343.236ZM486.741 325.15L457.306 308.122L486.529 291.199L515.965 308.227L486.741 325.15ZM486.529 290.036L457.094 273.007L486.318 256.085L515.753 273.113L486.529 290.036ZM456.882 237.893L486.106 220.97L515.647 237.998L486.424 254.921L456.882 237.893ZM485.259 255.45L456.035 272.373L426.6 255.344L455.824 238.421L485.259 255.45ZM425.435 254.71L396 237.787L425.224 220.864L454.659 237.893L425.435 254.71ZM424.376 255.344L395.153 272.267L365.718 255.238L394.941 238.316L424.376 255.344ZM364.447 254.604L335.012 237.575L364.235 220.653L393.671 237.681L364.447 254.604ZM363.388 255.238L334.165 272.161L304.729 255.133L333.953 238.21L363.388 255.238ZM303.565 254.498L274.129 237.575L303.353 220.653L332.788 237.681L303.565 254.498ZM302.506 255.133L273.282 272.055L243.847 255.027L273.071 238.104L302.506 255.133ZM242.682 254.392L213.247 237.364L242.471 220.441L271.906 237.575L242.682 254.392ZM241.518 255.027L212.294 271.95L182.859 254.921L212.082 237.998L241.518 255.027ZM181.694 254.286L152.259 237.258L181.482 220.335L210.918 237.364L181.694 254.286ZM180.635 254.921L151.412 271.844L121.976 254.815L151.2 237.893L180.635 254.921ZM120.812 254.181L91.2706 237.258L120.494 220.335L149.929 237.364L120.812 254.181ZM119.647 254.815L90.4235 271.738L60.9882 254.71L90.2118 237.787L119.647 254.815ZM89.2588 272.373L60.0353 289.295L30.6 272.267L59.8235 255.344L89.2588 272.373ZM60.0353 290.459L89.4706 307.487L60.2471 324.41L30.8118 307.381L60.0353 290.459ZM60.2471 325.679L89.6824 342.707L60.4588 359.63L31.0235 342.602L60.2471 325.679ZM60.4588 360.794L89.8941 377.822L60.6706 394.745L31.2353 377.716L60.4588 360.794ZM90.1059 412.936L60.8824 429.859L31.4471 412.831L60.6706 395.908L90.1059 412.936ZM90.2118 448.051L60.9882 464.974L31.5529 447.945L60.7765 431.023L90.2118 448.051ZM90.4235 483.166L61.2 500.088L31.7647 483.06L60.9882 466.137L90.4235 483.166ZM91.9059 552.866L62.4706 535.837L91.6941 518.915L121.129 535.943L91.9059 552.866ZM92.8588 518.28L122.082 501.357L151.518 518.386L122.294 535.309L92.8588 518.28ZM152.894 552.972L123.459 535.943L152.682 519.02L182.118 536.049L152.894 552.972ZM153.741 518.386L182.965 501.463L212.4 518.492L183.176 535.414L153.741 518.386ZM213.776 553.077L184.341 536.049L213.565 519.126L243 536.155L213.776 553.077ZM214.729 518.492L243.953 501.569L273.388 518.597L244.165 535.52L214.729 518.492ZM274.765 553.183L245.329 536.155L274.553 519.232L303.988 536.26L274.765 553.183ZM275.612 518.703L304.835 501.78L334.271 518.809L305.047 535.732L275.612 518.703ZM335.647 553.289L306.212 536.26L335.435 519.338L364.871 536.366L335.647 553.289ZM336.6 518.809L365.824 501.886L395.259 518.915L366.035 535.837L336.6 518.809ZM396.635 553.395L367.2 536.366L396.424 519.444L425.859 536.472L396.635 553.395ZM426.918 535.837L397.482 518.915L426.706 501.992L456.141 519.02L426.918 535.837ZM457.518 553.5L428.082 536.472L457.306 519.549L486.741 536.578L457.518 553.5ZM487.906 535.943L458.471 519.02L487.694 502.098L517.129 519.126L487.906 535.943ZM547.729 536.684L518.506 553.606L489.071 536.578L518.294 519.655L547.729 536.684ZM547.518 501.569L518.294 518.492L488.859 501.463L518.082 484.541L547.518 501.569ZM547.306 466.454L518.082 483.377L488.647 466.349L517.871 449.426L547.306 466.454ZM547.094 431.34L517.871 448.263L488.435 431.234L517.659 414.311L547.094 431.34ZM546.988 396.12L517.765 413.042L488.329 396.014L517.553 379.091L546.988 396.12ZM546.777 361.005L517.553 377.928L488.118 360.899L517.341 343.977L546.777 361.005ZM546.565 325.891L517.341 342.813L487.906 325.785L517.129 308.862L546.565 325.891ZM546.353 290.776L517.129 307.699L487.694 290.67L516.918 273.748L546.353 290.776ZM546.141 255.556L516.918 272.478L487.482 255.45L516.706 238.633L546.141 255.556ZM546.035 220.441L516.812 237.364L487.376 220.335L516.6 203.413L546.035 220.441ZM486 185.855L515.435 202.884L486.212 219.807L456.776 202.778L486 185.855ZM485.047 220.335L455.824 237.258L426.388 220.23L455.612 203.307L485.047 220.335ZM425.012 185.75L454.447 202.778L425.224 219.701L395.788 202.672L425.012 185.75ZM424.165 220.23L394.941 237.152L365.506 220.124L394.729 203.201L424.165 220.23ZM364.129 185.644L393.565 202.672L364.341 219.595L334.906 202.567L364.129 185.644ZM333.741 203.095L363.176 220.124L333.953 237.047L304.518 220.018L333.741 203.095ZM303.141 185.538L332.577 202.567L303.353 219.489L273.918 202.461L303.141 185.538ZM272.859 202.99L302.294 220.018L273.071 236.941L243.529 219.912L272.859 202.99ZM242.259 185.432L271.694 202.461L242.471 219.383L213.035 202.355L242.259 185.432ZM211.871 202.884L241.306 219.912L212.082 236.835L182.647 219.807L211.871 202.884ZM181.376 185.327L210.812 202.355L181.588 219.278L152.153 202.249L181.376 185.327ZM150.988 202.778L180.424 219.807L151.2 236.729L121.765 219.701L150.988 202.778ZM120.388 185.221L149.824 202.249L120.6 219.172L91.1647 202.038L120.388 185.221ZM90 202.672L119.435 219.701L90.2118 236.623L60.7765 219.595L90 202.672ZM30.1765 201.932L59.4 185.009L88.9412 202.038L59.7177 218.96L30.1765 201.932ZM59.6118 220.23L89.0471 237.258L59.8235 254.181L30.3882 237.047L59.6118 220.23ZM0 254.604L29.2235 237.681L58.6588 254.71L29.4353 271.632L0 254.604ZM0.211765 289.718L29.4353 272.796L58.8706 289.824L29.6471 306.747L0.211765 289.718ZM0.423529 324.939L29.6471 308.016L59.0824 325.044L29.8588 341.967L0.423529 324.939ZM0.635294 360.053L29.8588 343.13L59.2941 360.159L30.0706 377.082L0.635294 360.053ZM0.741176 395.168L29.9647 378.245L59.4 395.273L30.1765 412.196L0.741176 395.168ZM0.952941 430.282L30.1765 413.36L59.6118 430.388L30.3882 447.311L0.952941 430.282ZM1.16471 465.503L30.3882 448.58L59.8235 465.608L30.6 482.531L1.16471 465.503ZM1.37647 500.617L30.6 483.694L60.0353 500.723L30.8118 517.645L1.37647 500.617ZM1.58824 535.732L30.8118 518.809L60.2471 535.837L31.0235 552.76L1.58824 535.732Z" fill="#F2F2F3"/>
<path d="M378.38 296.156L409.809 278.046V302.548L393.828 325.452L378.38 334.507V296.156Z" fill="white"/>
<path d="M420.463 271.653L439.64 260.467L420.463 287.632V271.653Z" fill="white"/>
<path d="M360.269 118.249V363.802L363.998 365.932L472.133 298.818L475.862 55.3957L472.133 53.2651L360.269 118.249ZM368.259 123.043L464.143 67.6468V294.557L368.259 349.953V123.043Z" fill="#7B7F8B"/>
<path d="M368.259 123.043L464.143 67.1147V294.025L368.259 349.421V123.043Z" fill="#F4F5FA"/>
<path d="M376.782 128.369L456.152 82.561V181.102L376.782 226.91V128.369Z" fill="#62A6BD"/>
<path d="M407.678 114.521V152.872L384.772 166.721L376.782 170.982V132.631L407.678 114.521Z" fill="#71B9D1"/>
<path d="M449.76 90.5508V128.902L418.332 147.012V108.661L430.584 101.736L449.76 90.5508Z" fill="#71B9D1"/>
<path d="M384.772 166.721L407.678 133.696V152.872L384.772 166.721Z" fill="#89C8DE"/>
<path d="M449.76 90.5508V128.902L418.332 147.012V118.781L430.584 101.736L449.76 90.5508Z" fill="#89C8DE"/>
<path d="M407.678 166.719V205.07L399.155 210.397L376.782 223.18V184.829L407.678 166.719Z" fill="#71B9D1"/>
<path d="M449.76 142.219V180.57L436.976 188.027L418.332 198.68V160.329L444.966 145.415L449.76 142.219Z" fill="#71B9D1"/>
<path d="M376.782 184.829L407.678 166.719V197.613L399.155 210.397L376.782 223.18V184.829Z" fill="#89C8DE"/>
<path d="M418.332 160.327L444.966 145.413L418.332 182.699V160.327Z" fill="#89C8DE"/>
<path d="M449.76 180.57L436.976 188.027L449.76 170.449V180.57Z" fill="#89C8DE"/>
<path d="M414.07 106.531V205.072L410.874 203.474V108.661L414.07 106.531Z" fill="#7B7F8B"/>
<path d="M378.38 241.293L457.751 195.485V291.895L378.38 337.703V241.293Z" fill="#62A6BD"/>
<path d="M409.809 278.046V316.397L393.828 325.452L378.38 334.507V296.156L409.809 278.046Z" fill="#89C8DE"/>
<path d="M451.891 253.543V291.894L420.463 310.005V271.654L439.64 260.468L451.891 253.543Z" fill="#89C8DE"/>
<path d="M409.809 227.444V265.795L378.38 283.905V245.554L409.276 227.444H409.809Z" fill="#71B9D1"/>
<path d="M409.276 227.444H409.809V265.795L378.38 283.905V271.121L409.276 227.444Z" fill="#89C8DE"/>
<path d="M451.891 202.941V241.292L420.463 259.403V221.052L451.891 202.941Z" fill="#FFFFFC"/>
<path d="M451.891 202.941V241.292L420.463 259.403V221.052L451.891 202.941Z" fill="#89C8DE"/>
<path d="M415.669 219.985V316.395L412.472 314.797V221.583L415.669 219.985Z" fill="#7B7F8B"/>
<path d="M457.751 241.291L378.38 287.099V283.371L454.555 239.161L457.751 241.291Z" fill="#7D7160"/>
<path d="M456.152 128.902L376.782 174.71V170.981L452.956 127.304L456.152 128.902Z" fill="#7B7F8B"/>
<path d="M457.751 195.485V291.895L378.38 337.703V334.507L454.555 290.297V197.083L457.751 195.485Z" fill="#7B7F8B"/>
<path d="M456.152 82.561V181.102L376.782 226.91V223.181L452.956 178.971V84.159L456.152 82.561Z" fill="#7B7F8B"/>
<path d="M415.668 219.987L420.463 216.791V313.734L415.668 316.397V219.987Z" fill="#F4F5FA"/>
<path d="M457.751 241.291V246.618L378.38 292.426V287.099L457.751 241.291Z" fill="#F4F5FA"/>
<path d="M414.07 106.53L418.332 103.867V202.408L414.07 205.071V106.53Z" fill="#F4F5FA"/>
<path d="M456.152 128.903V134.23L376.782 180.038V174.711L456.152 128.903Z" fill="#F4F5FA"/>
<path d="M363.997 120.379V365.932L475.862 301.481V55.3955L363.997 120.379ZM371.988 125.173L467.871 69.7771V296.687L371.988 351.551V125.173Z" fill="#F4F5FA"/>
<path d="M504.627 0L307 114.52V511.88L324.579 522L517.944 406.414L522.206 10.1204L504.627 0ZM475.862 300.949L363.998 365.933V124.108L476.395 59.1245V300.949H475.862Z" fill="#665D47"/>
<path d="M324.579 124.108V521.467L307 511.88V114.521L324.579 124.108Z" fill="#474536"/>
<path d="M324.579 124.108V521.467L522.206 406.947V10.1201L324.579 124.108ZM363.998 124.108L476.395 59.1242V300.416L363.998 365.932V124.108Z" fill="#827C5A"/>
<path d="M491.842 50.0688V310.004L475.862 300.948V59.6566L491.842 50.0688Z" fill="#474536"/>
<path d="M363.997 374.454L408.21 355.811L376.249 381.911V391.499L363.997 384.574V374.454Z" fill="#9497A1"/>
<path d="M376.249 381.912L489.712 308.939L496.104 312.668V322.788L376.249 391.5V381.912Z" fill="#C5C7CF"/>
<path d="M475.862 300.949L496.104 312.668L376.249 381.912L363.465 374.455L363.997 365.933L475.862 300.949Z" fill="#DBDCE0"/>
<path d="M491.842 50.0688L476.394 71.9076L363.997 136.359V124.108L491.842 50.0688Z" fill="#89836E"/>
<path d="M512.617 509.748C493.441 520.934 463.078 520.401 443.901 509.748C424.724 498.562 424.724 480.985 443.901 469.799C463.078 458.613 493.441 459.146 512.617 469.799C531.794 481.518 531.794 499.095 512.617 509.748Z" fill="#ACB5B4"/>
<path d="M414.07 170.448L398.623 181.101C398.623 181.101 393.828 185.895 392.23 186.427C391.165 186.96 385.838 209.332 385.838 210.397C385.838 211.462 388.501 253.009 388.501 253.009C388.501 253.009 414.07 277.511 415.669 279.642C417.799 281.772 425.257 297.219 425.257 297.219L418.332 334.505L426.322 353.148L423.126 364.866L413.538 370.193C413.538 370.193 412.472 407.478 414.07 412.272C415.669 417.066 417.267 468.201 417.267 468.201L455.62 445.829L454.022 372.856L450.826 330.244C450.826 330.244 474.264 269.521 474.264 267.923C474.264 266.858 474.264 229.04 474.264 229.04L453.489 186.427L449.761 170.448L457.751 166.719L458.816 158.729L439.639 167.252L434.313 170.448L437.509 180.568L443.368 191.221L452.957 207.201C452.957 207.201 453.489 234.366 454.022 234.366C454.022 234.366 443.901 223.181 443.901 222.115C443.368 221.05 427.92 216.789 427.92 216.789L419.397 232.768L409.809 227.974L404.482 195.483L436.976 177.905L434.313 170.448H414.07Z" fill="#89836E"/>
<path d="M490.778 257.272L498.235 258.87C498.235 258.87 497.17 253.544 494.507 249.815C491.843 245.554 489.712 239.695 489.712 239.695C489.712 239.695 482.787 237.564 480.124 240.227C477.993 242.358 476.928 251.946 477.461 254.076C477.993 256.207 487.582 262.066 487.582 262.066C488.114 261.001 490.778 257.272 490.778 257.272Z" fill="#21367C"/>
<path d="M456.153 151.806L391.165 186.961V195.484L394.894 197.082L459.882 161.927V152.871L456.153 151.806Z" fill="#FF971A"/>
<path d="M435.378 171.515L429.518 174.711V177.374L435.378 174.178V171.515Z" fill="#1C130B"/>
<path d="M434.845 172.579L430.584 174.71V176.84L434.845 174.177V172.579Z" fill="#54AE0B"/>
<path d="M459.882 154.469L396.492 189.092L394.894 197.082L391.165 195.484V186.961L456.153 151.806L459.882 152.871V154.469Z" fill="#1C130B"/>
<path d="M476.928 462.342C476.928 462.342 475.862 462.874 475.862 464.472C475.862 465.538 475.33 466.603 475.862 467.136C476.395 467.668 479.059 472.462 481.189 472.995C483.32 473.528 487.582 475.125 487.582 475.125L490.778 478.321L491.31 480.985C491.31 480.985 493.441 484.181 496.637 484.713C499.833 485.779 505.16 483.648 505.693 482.583C506.226 481.517 506.226 477.789 505.693 476.191C505.16 474.06 480.124 466.07 476.928 462.342Z" fill="#3E362F"/>
<path d="M505.16 470.332C505.16 470.332 506.225 476.191 505.693 477.789C504.627 478.855 502.496 481.518 498.768 481.518C495.039 481.518 493.441 479.92 490.777 477.789C488.114 475.659 489.712 473.528 484.385 471.93C479.058 470.332 476.395 465.538 476.927 463.94C476.927 462.343 478.525 461.81 479.058 461.277C480.124 460.745 485.983 460.212 486.516 460.212C487.049 460.212 502.496 466.604 502.496 466.604L505.16 470.332Z" fill="#524B45"/>
<path d="M503.029 467.668C503.029 467.668 501.964 471.929 497.17 471.397C495.039 471.397 492.908 470.331 491.31 468.734C488.647 466.603 486.516 463.94 486.516 462.342C486.516 459.678 483.32 436.774 480.656 428.785C477.993 420.795 472.133 400.554 470.003 392.031C468.937 386.172 466.806 376.052 468.404 368.062C468.937 364.866 470.535 361.67 472.666 359.54C480.124 352.615 491.843 347.821 491.843 347.821C491.843 347.821 494.506 350.485 495.572 360.605C496.637 370.725 494.506 377.117 494.506 379.248C494.506 381.378 496.637 409.609 498.235 413.338C499.3 417.066 501.431 422.393 501.431 436.242C501.431 449.025 503.029 467.668 503.029 467.668Z" fill="#2B4396"/>
<path d="M490.777 468.735C488.114 466.605 485.983 463.942 485.983 462.344C485.983 459.68 482.787 436.776 480.124 428.786C477.46 420.797 471.601 400.556 469.47 392.033C468.405 386.174 466.274 376.054 467.872 368.064C472.666 371.26 474.264 374.988 474.264 374.988C474.264 374.988 473.731 396.827 476.395 405.35C479.058 413.872 482.254 420.797 484.385 427.721C487.049 435.178 488.647 457.017 489.179 461.811C490.245 464.474 490.777 466.605 490.777 468.735Z" fill="#445EB6"/>
<path d="M439.107 487.911L438.042 489.509V493.237C438.042 493.237 440.172 498.564 446.032 499.629C452.424 500.694 458.284 500.694 459.349 501.227C460.947 501.76 463.078 504.423 467.34 504.956C471.601 505.488 474.264 504.956 475.33 503.358C476.395 501.76 477.993 500.162 477.993 499.096C477.993 498.031 477.993 495.9 476.395 494.835C475.33 493.77 459.882 494.303 459.882 494.303L439.107 487.911Z" fill="#3E362F"/>
<path d="M458.284 482.051C458.284 482.051 450.293 482.051 449.761 482.051C449.228 482.051 440.705 483.116 439.64 484.181C438.574 485.247 436.443 487.91 437.509 490.573C439.107 493.236 441.77 496.432 446.032 497.498C450.293 498.563 457.751 498.563 458.284 499.096C458.816 499.096 467.339 502.824 471.068 501.226C474.797 500.161 475.862 496.432 475.862 495.9C475.862 495.367 473.199 484.714 473.199 484.714L458.284 482.051Z" fill="#524B45"/>
<path d="M480.656 368.596C479.591 376.586 471.6 381.38 471.6 381.38C471.6 381.38 471.068 399.49 471.068 406.947C470.535 413.872 473.731 434.112 474.797 444.233C476.395 454.353 474.797 486.312 474.797 486.312C474.797 486.312 468.937 490.041 465.208 490.041C462.012 489.508 459.349 486.845 457.751 485.78C457.218 485.247 457.218 485.247 457.218 485.247C457.218 485.247 455.087 476.725 452.956 464.474C450.826 452.223 450.826 442.102 449.76 436.243C448.695 430.384 436.976 392.565 435.378 382.978C434.845 380.847 434.845 377.651 434.845 374.455C434.845 371.259 434.845 367.531 435.378 364.335C435.378 361.672 435.91 359.541 435.91 357.943C435.91 355.812 436.443 354.747 436.443 354.747L439.107 354.214L440.705 353.682L475.329 346.225C475.329 346.225 479.591 355.28 480.656 363.269C480.656 363.802 480.656 364.335 480.656 364.335C481.189 365.4 481.189 366.998 480.656 368.596Z" fill="#2B4396"/>
<path d="M498.992 265.202C498.992 269.464 498.992 274.79 497.394 277.986C496.329 280.117 495.263 282.247 494.198 284.378C493.133 287.574 491.534 291.302 490.469 298.759C488.871 306.749 489.404 312.076 489.936 315.804C490.469 318.468 490.469 320.066 491.002 321.131C491.534 324.327 491.534 334.98 491.534 335.513C491.534 335.513 492.6 339.774 493.665 344.035C494.198 346.698 494.731 349.894 494.731 351.492C494.731 352.557 494.198 353.623 493.665 354.688C491.534 357.351 487.806 360.547 481.946 362.678C477.685 364.276 472.358 365.874 466.498 365.874C455.844 366.406 446.789 363.21 441.462 360.015C441.462 360.015 441.462 360.015 440.929 360.015C439.331 358.949 438.266 358.417 437.733 357.351C436.668 356.286 436.135 355.753 436.135 355.221C436.135 353.09 437.733 346.166 437.2 330.719C437.2 328.055 437.2 325.925 437.2 323.794C436.668 317.402 436.668 311.01 436.668 305.151C436.668 301.423 436.668 297.694 436.668 294.498C436.668 293.966 436.668 293.433 436.668 292.368C437.733 283.313 438.266 279.051 438.266 279.051L444.125 267.866L448.919 259.876L454.779 257.213C454.779 257.213 456.91 257.213 459.573 256.147C461.171 255.615 463.302 255.082 464.9 254.549C468.629 252.951 475.554 248.157 483.544 249.223C491.534 250.288 497.927 255.615 499.525 257.745C498.992 259.876 498.992 262.539 498.992 265.202Z" fill="#172B6F"/>
<path fill-rule="evenodd" clip-rule="evenodd" d="M488.835 290.628L481.828 291.058L472.698 268.421L479.705 267.991L488.835 290.628ZM480.477 291.141L473.47 291.571L466.256 273.456L473.263 273.026L480.477 291.141ZM471.98 291.695L460.077 292.426L464.803 273.707L471.98 291.695ZM465.043 277.622C465.595 278.955 466.752 282.044 467.807 284.862L467.82 284.896C468.725 287.312 469.553 289.523 469.858 290.246L462.034 290.727C462.208 290.075 462.602 288.278 463.06 286.186L463.062 286.176C463.755 283.013 464.595 279.181 465.043 277.622Z" fill="#D0D8F3"/>
<path fill-rule="evenodd" clip-rule="evenodd" d="M489.537 294.101L489.22 294.118L489.265 294.956L489.148 294.963L489.102 294.125L488.785 294.142L488.779 294.027L489.539 293.985L489.546 294.101L489.537 294.101ZM459.601 299.736C459.696 301.479 460.743 302.532 462.39 302.442C462.96 302.411 463.569 302.262 464.013 301.9L464.021 301.397C463.884 301.539 463.278 302.085 462.473 302.129C461.296 302.193 460.42 301.265 460.336 299.734C460.262 298.386 460.876 297.164 462.252 297.089C463.021 297.047 463.603 297.556 463.719 297.695L463.773 297.682C463.798 297.468 463.832 297.264 463.893 297.057C463.374 296.854 462.805 296.75 462.262 296.78C460.688 296.866 459.503 297.944 459.601 299.736ZM468.698 301.991L468.697 301.992L468.695 301.992C468.633 302 468.572 302.008 468.512 302.011C468.258 301.358 467.945 300.613 467.607 299.907L465.706 300.01C465.677 300.103 465.648 300.196 465.619 300.288C465.423 300.912 465.227 301.535 465.082 302.198L465.021 302.196C464.94 302.193 464.873 302.191 464.8 302.195C464.749 302.197 464.702 302.205 464.659 302.212L464.657 302.213C464.617 302.219 464.577 302.226 464.539 302.228L466.57 296.544L466.742 296.535L469.29 301.969C469.221 301.972 469.156 301.971 469.093 301.969C469.031 301.968 468.971 301.967 468.909 301.97C468.834 301.974 468.765 301.983 468.698 301.991ZM472.123 299.665L472.12 299.661L472.119 299.66L472.118 299.659L472.117 299.658L472.116 299.657L472.115 299.656L472.114 299.655L472.113 299.654L472.112 299.653L472.111 299.652L472.11 299.651L472.109 299.65L472.108 299.649C471.851 299.379 471.593 299.108 471.342 298.833L471.956 298.114L473.554 296.288C473.503 296.291 473.452 296.299 473.403 296.306L473.401 296.307L473.4 296.307C473.354 296.314 473.308 296.321 473.266 296.323C473.165 296.329 473.079 296.325 472.987 296.321L472.966 296.32L471.239 298.443C471.21 298.475 471.176 298.513 471.141 298.552C471.054 298.65 470.954 298.762 470.862 298.85C470.784 298.922 470.686 298.956 470.675 298.908L470.541 296.453C470.481 296.456 470.426 296.464 470.373 296.472L470.372 296.472C470.32 296.48 470.269 296.487 470.216 296.49C470.107 296.496 469.998 296.492 469.889 296.488L470.186 301.929C470.235 301.927 470.288 301.919 470.342 301.911C470.398 301.903 470.456 301.895 470.511 301.892C470.603 301.887 470.703 301.89 470.811 301.893L470.838 301.894L470.686 299.12C470.684 299.082 470.776 299.106 470.814 299.133L472.554 301.075C472.757 301.296 472.933 301.528 473.109 301.769C473.176 301.766 473.243 301.758 473.31 301.749C473.38 301.74 473.451 301.731 473.525 301.727C473.632 301.722 473.739 301.723 473.864 301.724L473.933 301.724L473.931 301.686L473.281 300.92C472.909 300.489 472.516 300.076 472.123 299.665ZM476.888 301.65C475.241 301.74 474.194 300.686 474.099 298.943C474.001 297.152 475.185 296.073 476.76 295.987C477.303 295.958 477.871 296.062 478.391 296.265C478.329 296.471 478.295 296.676 478.27 296.89L478.217 296.903C478.1 296.764 477.519 296.255 476.75 296.297C475.374 296.372 474.76 297.594 474.834 298.942C474.917 300.473 475.794 301.401 476.97 301.336C477.776 301.292 478.381 300.747 478.519 300.605L478.51 301.107C478.067 301.47 477.458 301.619 476.888 301.65ZM479.375 296.839C479.476 296.689 479.998 296.119 480.768 296.077C482.025 296.009 482.767 296.953 482.932 298.152L480.86 298.265C480.752 298.271 480.644 298.267 480.535 298.264L480.534 298.264C480.423 298.26 480.311 298.256 480.197 298.262C480.199 298.29 480.205 298.322 480.211 298.355C480.217 298.391 480.224 298.429 480.226 298.464C480.228 298.49 480.226 298.52 480.223 298.553C480.221 298.593 480.218 298.638 480.22 298.686C480.328 298.68 480.435 298.665 480.543 298.649L480.545 298.649L480.546 298.649L480.549 298.649C480.657 298.633 480.767 298.618 480.879 298.612L482.96 298.498C483.043 300.019 482.273 301.047 481.097 301.111C480.292 301.155 479.639 300.679 479.478 300.552L479.542 301.051C480.031 301.362 480.643 301.445 481.213 301.414C482.861 301.324 483.786 300.162 483.691 298.419C483.594 296.638 482.298 295.685 480.724 295.771C480.172 295.801 479.618 295.966 479.133 296.225C479.216 296.423 479.273 296.632 479.32 296.833L479.375 296.839ZM487.05 301.095C485.404 301.185 484.356 300.131 484.261 298.388C484.163 296.597 485.348 295.518 486.923 295.432C487.466 295.402 488.034 295.507 488.553 295.71C488.492 295.916 488.458 296.121 488.433 296.335L488.379 296.347C488.263 296.209 487.682 295.7 486.912 295.742C485.537 295.817 484.923 297.038 484.996 298.387C485.08 299.918 485.957 300.845 487.133 300.781C487.939 300.737 488.544 300.192 488.682 300.049L488.673 300.552C488.221 300.915 487.612 301.064 487.05 301.095ZM467.48 299.585L465.833 299.675L466.537 297.599L467.48 299.585ZM490.442 294.892L490.56 294.886L490.507 293.932L490.345 293.941L490.147 294.483L489.883 293.966L489.72 293.975L489.772 294.929L489.881 294.923L489.836 294.104L490.111 294.649L490.183 294.645L490.397 294.073L490.442 294.892Z" fill="#D0D8F3"/>
<path d="M450.293 312.668C450.293 312.668 464.676 329.181 467.339 330.779C470.003 332.377 464.143 325.452 464.143 325.452L450.293 312.668Z" fill="#243981"/>
<path d="M444.434 313.732C444.434 313.732 452.424 332.375 455.62 336.636C458.816 340.365 468.937 352.083 468.937 352.083L455.62 331.842L444.434 313.732Z" fill="#243981"/>
<path d="M489.712 298.285C487.049 311.601 489.712 317.461 490.245 321.189C490.778 324.385 490.778 335.038 490.778 335.571C490.778 335.571 491.843 339.832 492.909 344.093V354.746C491.843 349.42 490.245 337.169 490.245 337.169L488.114 343.561L481.722 353.148C481.722 352.616 486.516 334.505 487.049 332.375C487.049 330.244 486.516 320.656 486.516 320.656L483.32 323.32C483.32 323.32 475.33 328.114 476.395 327.048C477.993 325.983 483.32 319.058 483.32 319.058L485.984 308.405L481.189 311.069L485.984 306.275L489.18 291.893L492.909 284.436C492.376 287.099 490.778 291.361 489.712 298.285Z" fill="#243981"/>
<path d="M493.441 345.159C493.441 346.757 493.973 353.149 493.973 353.149C493.973 353.149 493.973 353.149 491.843 356.345C490.777 357.943 486.516 361.139 480.656 363.802C475.862 365.933 469.47 367.531 463.61 368.063C454.022 368.063 443.901 365.933 439.107 364.335C436.976 363.802 435.91 363.27 435.91 363.27C435.91 363.27 435.378 362.204 434.845 357.943C434.312 353.682 434.845 347.29 434.845 346.757C434.845 346.225 435.378 323.321 435.378 323.321C435.378 323.321 435.378 323.321 435.378 323.853C435.91 325.984 439.639 335.039 440.705 334.506C442.303 333.974 452.956 332.376 452.956 332.376L463.078 321.723C463.078 321.723 461.479 287.1 463.078 275.382C464.143 263.663 453.489 257.804 453.489 257.804L456.685 256.206L457.751 256.739L462.012 258.87C462.012 258.87 467.339 262.598 467.872 266.859C468.404 271.121 467.872 272.186 466.806 283.372C465.741 294.557 468.404 312.668 468.404 312.668L478.525 309.472C478.525 309.472 483.852 283.372 485.45 278.578C487.048 273.251 490.245 262.598 489.712 259.402C489.179 256.206 480.124 253.543 480.124 253.543V250.347C480.124 250.347 491.843 254.608 493.441 257.272C495.039 259.935 493.973 265.261 490.245 276.447C485.983 287.633 483.32 309.472 483.32 309.472L487.048 311.602C487.048 311.602 487.581 313.2 488.647 315.331C489.179 316.929 489.712 319.059 490.245 320.125C490.777 322.255 490.777 333.441 490.777 333.441C490.777 333.441 493.441 343.561 493.441 345.159Z" fill="#2B4396"/>
<path d="M451.891 436.242C450.293 412.805 441.237 398.956 439.107 382.444C438.574 377.117 438.041 371.791 438.041 366.464C438.041 365.932 438.041 365.399 438.574 364.866C439.107 363.268 439.107 361.67 439.107 360.072C439.639 357.942 439.639 355.811 439.639 353.681C439.639 352.615 439.639 351.017 440.172 349.952C440.172 345.158 441.237 339.832 440.172 335.038C439.107 335.57 435.378 325.983 434.845 324.385V323.852V346.756C434.845 347.289 434.312 353.681 434.845 357.942C435.378 362.203 435.91 363.268 435.91 363.268C435.378 369.128 435.378 376.585 435.91 381.379C436.976 390.966 448.695 428.252 450.293 434.644C451.358 440.503 451.358 450.623 453.489 462.875C455.62 475.126 457.751 483.648 457.751 483.648C457.751 483.648 457.751 483.648 458.283 484.181C456.153 472.462 452.956 451.689 451.891 436.242Z" fill="#445EB6"/>
<path d="M440.172 263.129C440.172 263.129 434.312 270.587 429.518 272.185C428.453 272.717 427.387 272.717 426.855 272.185C422.061 270.054 413.538 262.597 407.678 256.738C401.818 250.878 393.295 240.758 392.23 239.693C391.165 238.627 391.697 227.974 392.763 218.919C393.295 209.864 397.024 188.558 397.557 188.025C397.557 187.493 398.09 182.166 398.622 181.101C398.622 180.568 399.155 180.036 400.22 178.97C400.753 177.905 401.818 177.372 402.884 176.307C404.482 174.709 409.809 173.111 409.809 172.578C410.341 172.046 414.07 169.383 414.07 169.383V167.785C414.07 167.785 415.136 166.719 415.668 166.719C416.201 166.719 417.266 167.252 417.799 167.785L418.332 168.317C418.332 168.317 418.332 167.785 418.864 167.252C419.397 166.719 420.995 167.252 421.528 167.785C422.061 168.317 421.528 171.513 422.593 170.98C423.126 170.448 424.724 171.513 424.724 171.513C425.257 172.046 424.724 174.176 424.724 174.176C424.724 174.176 424.724 174.176 425.257 174.709C425.789 175.242 425.257 177.905 425.257 178.438C425.257 178.97 422.061 184.297 420.995 184.829C419.93 185.895 416.734 186.427 414.603 186.427C412.472 186.96 409.809 188.558 409.809 189.091C409.809 189.623 408.743 202.407 408.743 209.331C408.743 216.256 412.472 233.834 412.472 234.366C412.472 234.899 418.864 240.225 420.995 241.291C423.126 242.356 430.584 248.748 430.584 248.748L433.78 252.476L440.172 263.129Z" fill="#FAC5A8"/>
<path d="M469.47 208.268C469.47 208.268 462.545 211.997 460.947 213.595C459.349 215.193 456.685 218.921 456.685 218.921C456.685 218.921 454.022 218.921 453.489 219.454C452.956 219.986 453.489 224.78 453.489 224.78C453.489 224.78 451.358 229.042 450.293 232.237C449.228 234.901 449.228 236.499 450.293 238.097C451.358 239.162 453.489 242.358 454.554 242.891C455.62 243.423 459.349 243.956 460.947 242.891C463.077 241.293 466.274 239.162 467.339 238.097C468.404 237.031 483.32 233.303 483.852 227.976C484.918 223.182 480.656 209.333 469.47 208.268Z" fill="#FAC5A8"/>
<path d="M484.385 258.868C484.385 259.401 481.189 263.13 477.46 263.13C474.264 263.13 464.676 258.868 462.545 258.868C460.414 258.868 456.685 257.271 456.685 257.271C456.685 257.271 457.751 255.14 457.751 253.009C457.751 250.879 456.685 245.552 456.685 245.552L453.489 241.824C452.957 241.291 452.957 240.758 452.957 240.226C454.022 236.497 462.545 227.975 462.545 227.975L474.797 229.04C475.329 229.04 480.656 247.683 480.124 250.879C480.124 254.075 482.254 254.607 482.254 254.607C482.254 254.607 483.852 257.271 484.385 258.868Z" fill="#FAC5A8"/>
<path d="M473.199 224.247C472.133 224.779 470.535 223.181 468.404 221.583C465.741 219.453 463.078 216.79 463.078 216.79C463.078 216.79 454.555 194.951 452.424 191.755C450.826 188.559 447.097 184.298 447.097 183.765C446.564 183.232 444.966 181.634 444.966 181.634C444.966 181.634 441.77 177.373 441.237 176.308C440.705 175.243 441.237 169.916 441.237 169.916C441.237 169.916 439.639 165.122 439.639 164.057C439.639 162.992 441.237 162.992 441.77 162.992C442.303 162.992 446.564 171.514 446.564 171.514L449.76 175.243L448.162 169.916C448.162 169.916 443.901 166.188 443.901 165.122C443.901 164.057 444.434 164.057 444.966 164.057H446.564C446.564 164.057 447.63 162.459 448.162 162.459C448.695 162.459 450.293 162.459 450.293 162.459C450.293 162.459 454.555 165.655 455.087 165.655C455.62 165.655 457.218 169.383 456.685 172.047C456.685 172.579 456.685 173.112 456.685 173.645C456.685 175.775 456.153 178.439 456.153 178.439C456.153 178.971 470.003 197.081 475.329 205.071C476.395 206.669 476.927 208.267 477.46 208.8C478.526 214.126 475.329 223.714 473.199 224.247Z" fill="#FAC5A8"/>
<path d="M460.947 206.669C462.545 209.332 465.741 216.257 468.405 221.583C465.741 219.453 463.078 216.789 463.078 216.789C463.078 216.789 454.555 194.951 452.424 191.755C450.826 188.559 447.097 184.298 447.097 183.765C446.565 183.232 444.967 181.634 444.967 181.634C444.967 181.634 441.77 177.373 441.238 176.308C440.705 175.243 441.238 169.916 441.238 169.916C441.238 169.916 441.77 173.645 441.77 175.775C441.77 177.373 444.967 180.036 444.967 180.036L446.565 181.102L449.761 181.634C449.761 181.634 451.359 180.569 451.359 180.036C451.359 180.036 452.424 179.504 452.957 179.504C453.49 179.504 454.555 178.438 454.555 178.438C454.555 178.438 455.62 176.84 455.62 176.308C455.62 175.775 456.686 174.177 456.686 174.177C456.686 176.308 456.153 178.971 456.153 178.971C456.153 179.504 470.003 197.614 475.33 205.604L464.676 190.689L456.153 181.102L454.022 182.7L451.359 183.765C450.826 183.765 448.163 184.298 448.163 184.298L449.761 185.363C449.761 185.363 458.816 202.941 460.947 206.669Z" fill="#F8D1BC"/>
<path d="M454.555 174.71L452.424 169.383L446.565 165.122L447.097 164.589C447.097 164.589 454.022 168.851 454.022 169.383C454.022 169.916 454.555 174.71 454.555 174.71Z" fill="#F8D1BC"/>
<path d="M455.087 172.048L454.555 167.787L449.761 163.525L450.293 164.058L455.62 167.254L455.087 172.048Z" fill="#FAC5A8"/>
<path d="M441.238 170.449L444.434 176.308L444.966 178.439H444.434L442.303 175.243L441.238 170.449Z" fill="#F8D1BC"/>
<path d="M432.715 253.01C430.584 250.346 412.472 237.03 412.472 236.497C412.472 235.965 410.874 235.432 408.744 226.91C406.613 218.387 407.678 196.016 407.678 196.016C407.678 196.016 406.613 187.493 407.678 187.493C408.744 187.493 411.94 186.961 411.94 186.961L420.463 184.83L420.995 183.232L420.463 181.634L418.865 181.101L423.126 176.84L424.192 174.177C424.192 174.177 424.192 171.514 423.659 171.514C423.126 171.514 422.061 170.981 422.061 170.981L421.528 173.112L417.799 177.373L417.267 177.906L420.995 172.579L421.528 168.85C421.528 168.85 420.995 167.252 419.93 167.252C418.865 167.252 418.332 167.785 418.332 167.785L417.799 170.981L413.005 176.84V176.308L416.734 171.514L417.267 168.318L417.799 168.85C417.799 168.85 417.799 168.318 418.332 167.785C418.865 167.252 420.463 167.785 420.995 168.318C421.528 168.85 420.995 172.046 422.061 171.514C422.593 170.981 424.192 172.046 424.192 172.046C424.724 172.579 424.192 174.71 424.192 174.71C424.192 174.71 424.192 174.71 424.724 175.242C425.257 175.775 424.724 178.438 424.724 178.971C424.724 179.503 421.528 184.83 420.463 185.363C419.397 186.428 416.201 186.961 414.07 186.961C411.94 187.493 409.276 189.091 409.276 189.624C409.276 190.157 408.211 202.94 408.211 209.865C408.211 216.789 411.94 234.367 411.94 234.899C411.94 235.432 418.332 240.759 420.463 241.824C422.593 242.889 430.051 249.281 430.051 249.281L432.715 253.01Z" fill="#F8D1BC"/>
<path d="M429.518 272.186C428.453 272.719 427.387 272.719 426.855 272.186C422.061 270.056 413.538 262.599 407.678 256.74C401.818 250.88 393.295 240.76 392.23 239.695C391.165 238.629 391.697 227.976 392.763 218.921C393.295 209.866 397.024 188.56 397.557 188.027C397.557 187.495 398.09 182.168 398.622 181.103C398.622 180.57 399.155 180.037 400.22 178.972C399.155 181.103 398.622 184.299 398.622 184.299C398.622 184.299 397.024 189.093 395.426 199.213C393.828 209.866 392.763 234.901 392.763 237.031C392.763 240.227 397.557 243.956 407.145 254.076C414.603 262.599 425.789 269.523 429.518 272.186Z" fill="#F8D1BC"/>
<path d="M484.385 258.87C484.385 259.403 481.189 263.131 477.46 263.131C474.264 263.131 464.676 258.87 462.545 258.87C460.414 258.87 456.685 257.272 456.685 257.272C456.685 257.272 457.751 255.141 457.751 253.011C457.751 250.88 456.685 245.554 456.685 245.554L453.489 241.825C452.957 241.292 452.957 240.76 452.957 240.227C453.489 240.76 454.555 241.825 455.087 243.423L457.751 246.619L460.414 255.141C460.414 255.141 465.208 259.935 466.806 259.935C468.404 259.935 472.666 262.066 476.395 261.533C480.124 262.066 482.787 259.935 484.385 258.87Z" fill="#F8D1BC"/>
<path d="M442.836 279.644C442.836 279.644 440.172 291.895 440.705 300.95C441.238 310.005 439.435 329.141 440.5 335C439.435 335.533 435.706 325.945 435.173 324.347C434.64 317.955 435.378 311.071 435.378 305.211C435.911 301.483 435.378 298.287 435.378 294.558C435.378 294.026 435.378 293.493 435.378 292.428C436.444 283.373 436.976 279.111 436.976 279.111L442.836 267.926C447.63 267.393 451.359 267.393 451.892 267.393C452.957 268.458 442.836 279.644 442.836 279.644Z" fill="#344991"/>
<path d="M486.516 210.397C486.516 210.397 481.189 208.267 475.862 206.669C470.535 205.603 467.872 207.201 466.806 208.267C465.741 209.332 464.676 216.256 464.676 216.256C464.676 216.256 459.881 223.181 459.881 224.246C459.881 224.779 459.349 229.573 459.349 229.573L458.816 233.834L459.881 234.899C459.881 234.899 462.012 232.236 464.676 233.301C467.872 234.367 468.937 245.552 468.937 246.085C468.937 246.618 472.133 251.944 472.133 251.944C472.666 251.944 479.591 253.01 481.722 251.412C483.852 249.814 495.571 240.226 497.702 232.769C499.3 225.844 493.441 214.659 486.516 210.397Z" fill="#4A2727"/>
<path d="M408.211 187.494C408.211 187.494 406.613 186.429 405.015 186.429C403.417 186.429 401.819 186.429 401.819 186.429L401.286 191.755C401.286 191.755 402.352 193.886 403.95 194.419C406.613 195.484 408.211 194.418 408.211 194.951C408.744 194.951 408.744 194.951 408.744 194.951L409.809 190.157C409.276 190.157 408.744 188.027 408.211 187.494Z" fill="#3E362F"/>
<path d="M403.417 186.961C403.417 186.961 402.351 187.493 402.351 189.624C402.351 191.754 403.949 193.885 405.547 193.885C407.145 194.418 408.744 193.885 409.276 192.287C409.809 190.689 409.809 188.026 407.678 186.961C405.547 186.428 404.482 186.428 403.417 186.961Z" fill="#AEABA8"/>
<path d="M401.819 186.429C401.819 186.429 398.09 186.429 397.557 186.429C397.024 186.429 395.426 186.961 394.894 187.494C394.361 188.027 394.361 190.69 394.361 190.69C394.361 191.223 395.959 191.755 395.959 191.755L396.492 190.157C396.492 190.157 398.09 190.157 399.155 190.69C399.688 191.223 401.286 191.755 401.286 191.755L402.351 188.027L401.819 186.429Z" fill="#3E362F"/>
<path d="M453.489 257.803C453.489 257.803 448.695 255.673 442.303 254.075C435.91 252.477 427.92 247.15 427.92 247.15C427.92 247.15 423.126 252.477 422.593 258.869C422.061 265.261 422.593 273.25 423.659 274.316C424.724 275.381 434.845 281.773 436.443 283.371C438.041 284.969 450.826 285.501 454.022 276.446C457.218 267.924 457.751 261.532 453.489 257.803Z" fill="#21367C"/>
<path d="M464.143 237.03C464.143 237.03 464.676 239.161 463.078 240.226C462.012 241.292 458.283 241.292 458.283 240.226C458.283 239.161 459.349 236.498 459.882 235.965C460.414 234.9 461.48 233.834 462.545 234.9C464.143 235.965 464.143 237.03 464.143 237.03Z" fill="#FFD4BD"/>
</svg>
