<svg width="591" height="500" viewBox="0 0 591 500" fill="none" xmlns="http://www.w3.org/2000/svg">
<path d="M3.6 499.788L31.0235 483.923L58.4471 499.788H60.6706L32.0824 483.289L61.3059 466.366L90.7412 483.395L62.4706 499.788H64.6941L91.9059 484.029L119.118 499.788H121.341L92.9647 483.395L122.188 466.472L151.624 483.5L123.459 499.788H125.682L152.788 484.135L179.894 499.788H182.118L153.953 483.5L183.176 466.578L212.612 483.606L184.659 499.788H186.882L213.776 484.347L240.671 499.788H242.894L214.941 483.712L244.165 466.789L273.6 483.818L245.859 499.788H248.082L274.765 484.452L301.447 499.788H303.671L275.824 483.818L305.047 466.895L334.482 483.923L306.847 499.788H309.071L335.541 484.558L362.012 499.788H364.235L336.6 483.923L365.824 467.001L395.259 484.029L367.835 499.788H370.059L396.318 484.664L422.577 499.788H424.8L397.376 484.029L426.6 467.107L456.035 484.135L428.824 499.788H431.047L457.2 484.77L483.353 499.788H485.577L458.365 484.135L487.588 467.212L517.024 484.241L490.024 499.788H492.247L518.188 484.875L544.129 499.788H546.353L519.353 484.241L548.576 467.318L575.682 482.972V481.702L549.635 466.684L575.682 451.665V450.395L548.576 466.049L519.141 449.02L548.365 432.098L575.682 447.857V446.588L549.424 431.463L575.682 416.339V415.069L548.576 430.934L519.141 413.906L548.365 396.983L575.894 412.848V411.579L549.424 396.349L575.894 381.118V379.849L548.365 395.714L518.929 378.686L548.153 361.763L575.894 377.734V376.465L549.318 361.128L575.894 345.792V344.523L548.153 360.494L518.824 343.677L548.047 326.754L576 342.831V341.562L549.212 326.12L576 310.678V309.408L548.047 325.485L518.612 308.457L547.835 291.534L575.894 307.716V306.447L548.894 290.899L576 275.457V274.188L547.941 290.37L518.506 273.342L547.729 256.419L576 272.707V271.438L548.788 255.785L576 240.131V238.862L547.729 255.15L518.294 238.122L547.518 221.199L576 237.593V236.324L548.576 220.564L576 204.911V203.642L547.518 220.036L518.082 203.007L547.306 186.085L576 202.796V201.526L548.471 185.661L576 169.796V168.527L547.306 185.027L517.871 167.998L547.094 151.076L576 167.787V166.518L548.259 150.547L576 134.47V133.201L547.094 149.807L517.659 132.778L546.882 115.855L576 132.672V131.403L548.047 115.327L571.129 102H568.906L546.882 114.692L524.859 102H522.635L545.718 115.327L516.494 132.249L487.059 115.221L510.035 102H507.812L486 114.586L464.188 102H461.965L484.835 115.221L455.612 132.144L426.176 115.115L448.835 102H446.612L425.012 114.48L403.412 102H401.188L423.953 115.115L394.729 132.038L365.294 115.009L387.741 102H385.518L364.129 114.375L342.741 102H340.518L363.071 115.009L333.847 131.932L304.412 114.904L326.647 102H324.424L303.141 114.269L281.965 102H279.741L302.082 114.904L272.859 131.826L243.424 114.798L265.553 102H263.329L242.259 114.163L221.188 102H218.965L241.094 114.798L211.871 131.72L182.435 114.692L204.353 102H202.129L181.271 114.057L160.518 102H158.294L180.212 114.692L150.988 131.615L121.553 114.586L143.259 102H141.035L120.388 113.952L99.7412 102H97.5177L119.329 114.586L90 131.403L60.5647 114.48L82.1647 102H79.9412L59.5059 113.846L38.9647 102H36.7412L58.3412 114.48L29.1176 131.403L0 114.586V115.855L27.9529 132.038L0 148.114V149.383L29.1176 132.567L58.5529 149.595L29.3294 166.518L0 149.595V150.864L28.1647 167.152L0 183.335V185.873L28.3765 202.267L0 218.555V220.882L28.5882 237.381L0 253.881V255.996L28.8 272.602L0 289.101V291.005L28.9059 307.716L0 324.322V326.014L29.1176 342.831L0 359.648V361.023L29.3294 377.945L0.105882 394.868H0V396.243H0.105882L29.5412 413.271L0.317647 430.194L0 429.771V431.357L0.211765 431.252L29.6471 448.28L0.423529 465.203L0 464.885V466.684L0.423529 466.472L29.8588 483.5L1.27059 500H3.6V499.788ZM31.8706 448.174L61.0941 431.252L90.5294 448.28L61.3059 465.203L31.8706 448.174ZM212.824 308.668L242.259 325.697L213.035 342.619L183.6 325.591L212.824 308.668ZM182.435 324.85L153 307.822L182.224 290.899L211.659 307.928L182.435 324.85ZM213.988 308.033L243.212 291.111L272.647 308.139L243.424 325.062L213.988 308.033ZM273.812 308.774L303.247 325.802L274.024 342.725L244.588 325.697L273.812 308.774ZM274.871 308.139L304.094 291.217L333.529 308.245L304.306 325.168L274.871 308.139ZM334.694 308.88L364.129 325.908L334.906 342.831L305.471 325.802L334.694 308.88ZM335.753 308.245L364.977 291.322L394.412 308.351L365.294 325.168L335.753 308.245ZM395.682 308.985L425.118 326.014L395.894 342.936L366.353 325.802L395.682 308.985ZM366.141 290.688L395.365 273.765L424.8 290.794L395.577 307.716L366.141 290.688ZM365.082 290.053L335.647 273.025L364.871 256.102L394.306 273.13L365.082 290.053ZM363.918 290.688L334.694 307.61L305.259 290.582L334.482 273.659L363.918 290.688ZM304.094 289.947L274.659 272.919L303.882 255.996L333.318 273.025L304.094 289.947ZM303.035 290.582L273.812 307.505L244.376 290.476L273.6 273.554L303.035 290.582ZM243.212 289.842L213.776 272.813L243 255.891L272.435 272.919L243.212 289.842ZM242.153 290.476L212.929 307.399L183.494 290.37L212.718 273.448L242.153 290.476ZM182.329 289.736L152.894 272.707L182.118 255.785L211.553 272.813L182.329 289.736ZM181.165 290.37L151.941 307.293L122.506 290.265L151.729 273.342L181.165 290.37ZM181.376 325.485L152.153 342.408L122.718 325.379L151.941 308.457L181.376 325.485ZM181.588 360.6L152.365 377.522L122.824 360.494L152.047 343.571L181.588 360.6ZM153.212 343.042L182.435 326.12L211.871 343.148L182.647 360.071L153.212 343.042ZM213.035 343.783L242.471 360.811L213.247 377.734L183.812 360.705L213.035 343.783ZM214.094 343.148L243.318 326.225L272.753 343.254L243.529 360.176L214.094 343.148ZM273.918 343.888L303.353 360.917L274.129 377.839L244.694 360.811L273.918 343.888ZM275.082 343.254L304.306 326.331L333.741 343.36L304.518 360.282L275.082 343.254ZM334.906 343.994L364.341 361.023L335.118 377.945L305.682 360.917L334.906 343.994ZM335.965 343.36L365.188 326.437L394.624 343.465L365.4 360.388L335.965 343.36ZM395.788 344.1L425.224 361.128L396 378.051L366.565 361.023L395.788 344.1ZM396.953 343.465L426.176 326.543L455.612 343.571L426.388 360.494L396.953 343.465ZM396.741 308.351L425.965 291.428L455.4 308.457L426.176 325.379L396.741 308.351ZM396.529 273.13L425.753 256.208L455.188 273.236L425.965 290.159L396.529 273.13ZM425.859 255.044L396.424 238.016L425.647 221.093L455.082 238.122L425.859 255.044ZM424.694 255.679L395.471 272.602L366.035 255.573L395.259 238.651L424.694 255.679ZM364.871 254.939L335.435 237.91L364.659 220.988L394.094 238.016L364.871 254.939ZM363.812 255.573L334.588 272.496L305.153 255.467L334.376 238.545L363.812 255.573ZM303.988 254.833L274.553 237.804L303.776 220.882L333.212 237.91L303.988 254.833ZM302.824 255.467L273.6 272.39L244.165 255.362L273.388 238.439L302.824 255.467ZM243 254.727L213.565 237.699L242.788 220.776L272.224 237.804L243 254.727ZM241.941 255.362L212.718 272.284L183.176 255.256L212.4 238.333L241.941 255.362ZM182.118 254.621L152.682 237.593L181.906 220.67L211.341 237.699L182.118 254.621ZM180.953 255.256L151.729 272.179L122.294 255.15L151.518 238.227L180.953 255.256ZM121.129 254.516L91.6941 237.487L120.918 220.564L150.353 237.593L121.129 254.516ZM121.129 255.785L150.565 272.813L121.341 289.736L91.9059 272.707L121.129 255.785ZM121.341 290.899L150.776 307.928L121.553 324.85L92.1177 307.716L121.341 290.899ZM150.988 343.042L121.765 359.965L92.3294 342.936L121.553 326.014L150.988 343.042ZM151.2 378.157L121.976 395.079L92.4353 378.051L121.659 361.128L151.2 378.157ZM152.259 378.791L181.694 395.82L152.471 412.742L123.035 395.714L152.259 378.791ZM153.424 378.157L182.647 361.234L212.082 378.263L182.859 395.185L153.424 378.157ZM213.247 378.897L242.682 395.926L213.459 412.848L184.024 395.82L213.247 378.897ZM214.306 378.263L243.529 361.34L272.965 378.368L243.741 395.291L214.306 378.263ZM274.129 379.003L303.565 396.031L274.341 412.954L244.906 395.926L274.129 379.003ZM275.294 378.368L304.518 361.446L333.953 378.474L304.729 395.397L275.294 378.368ZM335.118 379.109L364.553 396.137L335.329 413.06L305.788 396.031L335.118 379.109ZM336.176 378.474L365.4 361.551L394.835 378.58L365.612 395.503L336.176 378.474ZM396 379.214L425.435 396.243L396.212 413.166L366.776 396.137L396 379.214ZM397.165 378.58L426.388 361.657L455.824 378.686L426.6 395.608L397.165 378.58ZM456.988 379.32L486.424 396.349L457.2 413.271L427.765 396.243L456.988 379.32ZM427.447 361.128L456.671 344.206L486.106 361.234L456.882 378.157L427.447 361.128ZM427.341 325.908L456.565 308.985L486 326.014L456.776 342.936L427.341 325.908ZM427.129 290.794L456.353 273.871L485.788 290.899L456.565 307.822L427.129 290.794ZM456.353 272.602L426.918 255.573L456.141 238.651L485.577 255.679L456.353 272.602ZM456.141 237.487L426.706 220.564L455.929 203.642L485.365 220.67L456.141 237.487ZM425.647 219.93L396.212 202.901L425.435 185.979L454.871 203.007L425.647 219.93ZM424.482 220.564L395.259 237.487L365.824 220.459L395.047 203.536L424.482 220.564ZM364.659 219.824L335.224 202.796L364.447 185.873L393.882 202.901L364.659 219.824ZM363.6 220.459L334.376 237.381L304.941 220.353L334.165 203.43L363.6 220.459ZM303.776 219.718L274.341 202.69L303.565 185.767L333 202.796L303.776 219.718ZM302.612 220.353L273.388 237.276L243.953 220.247L273.176 203.324L302.612 220.353ZM242.788 219.507L213.353 202.478L242.576 185.556L272.118 202.69L242.788 219.507ZM241.729 220.141L212.506 237.064L183.071 220.036L212.294 203.113L241.729 220.141ZM181.906 219.401L152.471 202.478L181.694 185.556L211.129 202.584L181.906 219.401ZM180.847 220.036L151.624 236.958L122.188 219.93L151.412 203.007L180.847 220.036ZM120.918 219.295L91.4824 202.373L120.706 185.45L150.247 202.478L120.918 219.295ZM119.859 219.93L90.6353 236.853L61.2 219.824L90.4235 202.901L119.859 219.93ZM90.6353 238.122L120.071 255.15L90.8471 272.073L61.4118 255.044L90.6353 238.122ZM120.282 290.265L91.0588 307.187L61.6235 290.159L90.8471 273.236L120.282 290.265ZM120.388 325.379L91.1647 342.302L61.7294 325.273L90.9529 308.351L120.388 325.379ZM120.6 360.494L91.3765 377.416L61.9412 360.388L91.1647 343.465L120.6 360.494ZM120.812 395.714L91.5882 412.637L62.1529 395.608L91.3765 378.686L120.812 395.714ZM121.024 430.829L91.8 447.751L62.3647 430.723L91.5882 413.8L121.024 430.829ZM92.6471 413.166L121.871 396.243L151.306 413.271L122.082 430.194L92.6471 413.166ZM152.471 413.906L181.906 430.934L152.682 447.857L123.247 430.829L152.471 413.906ZM153.635 413.271L182.859 396.349L212.294 413.377L183.071 430.3L153.635 413.271ZM213.459 414.012L242.894 431.04L213.671 447.963L184.129 430.934L213.459 414.012ZM214.518 413.377L243.741 396.454L273.176 413.483L243.953 430.406L214.518 413.377ZM274.341 414.117L303.776 431.146L274.553 448.069L245.118 431.04L274.341 414.117ZM275.4 413.483L304.624 396.56L334.059 413.589L304.835 430.511L275.4 413.483ZM335.224 414.223L364.659 431.252L335.435 448.174L306 431.146L335.224 414.223ZM336.388 413.589L365.612 396.666L395.047 413.694L365.824 430.617L336.388 413.589ZM396.212 414.329L425.647 431.357L396.424 448.28L366.988 431.252L396.212 414.329ZM397.271 413.694L426.494 396.772L455.929 413.8L426.706 430.723L397.271 413.694ZM457.094 414.435L486.529 431.463L457.306 448.386L427.871 431.357L457.094 414.435ZM458.259 413.8L487.482 396.877L516.918 413.906L487.694 430.829L458.259 413.8ZM458.047 378.686L487.271 361.763L516.706 378.791L487.482 395.714L458.047 378.686ZM457.835 343.571L487.059 326.648L516.494 343.677L487.271 360.6L457.835 343.571ZM457.624 308.457L486.847 291.534L516.282 308.562L487.059 325.485L457.624 308.457ZM457.518 273.236L486.741 256.314L516.177 273.342L486.953 290.265L457.518 273.236ZM486.741 255.15L457.306 238.122L486.529 221.199L515.965 238.227L486.741 255.15ZM486.529 220.036L457.094 203.007L486.318 186.085L515.753 203.113L486.529 220.036ZM456.882 167.893L486.106 150.97L515.647 167.998L486.424 184.921L456.882 167.893ZM485.259 185.45L456.035 202.373L426.6 185.344L455.824 168.421L485.259 185.45ZM425.435 184.71L396 167.787L425.224 150.864L454.659 167.893L425.435 184.71ZM424.376 185.344L395.153 202.267L365.718 185.238L394.941 168.316L424.376 185.344ZM364.447 184.604L335.012 167.575L364.235 150.653L393.671 167.681L364.447 184.604ZM363.388 185.238L334.165 202.161L304.729 185.133L333.953 168.21L363.388 185.238ZM303.565 184.498L274.129 167.575L303.353 150.653L332.788 167.681L303.565 184.498ZM302.506 185.133L273.282 202.055L243.847 185.027L273.071 168.104L302.506 185.133ZM242.682 184.392L213.247 167.364L242.471 150.441L271.906 167.575L242.682 184.392ZM241.518 185.027L212.294 201.95L182.859 184.921L212.082 167.998L241.518 185.027ZM181.694 184.286L152.259 167.258L181.482 150.335L210.918 167.364L181.694 184.286ZM180.635 184.921L151.412 201.844L121.976 184.815L151.2 167.893L180.635 184.921ZM120.812 184.181L91.2706 167.258L120.494 150.335L149.929 167.364L120.812 184.181ZM119.647 184.815L90.4235 201.738L60.9882 184.71L90.2118 167.787L119.647 184.815ZM89.2588 202.373L60.0353 219.295L30.6 202.267L59.8235 185.344L89.2588 202.373ZM60.0353 220.459L89.4706 237.487L60.2471 254.41L30.8118 237.381L60.0353 220.459ZM60.2471 255.679L89.6824 272.707L60.4588 289.63L31.0235 272.602L60.2471 255.679ZM60.4588 290.794L89.8941 307.822L60.6706 324.745L31.2353 307.716L60.4588 290.794ZM90.1059 342.936L60.8824 359.859L31.4471 342.831L60.6706 325.908L90.1059 342.936ZM90.2118 378.051L60.9882 394.974L31.5529 377.945L60.7765 361.023L90.2118 378.051ZM90.4235 413.166L61.2 430.088L31.7647 413.06L60.9882 396.137L90.4235 413.166ZM91.9059 482.866L62.4706 465.837L91.6941 448.915L121.129 465.943L91.9059 482.866ZM92.8588 448.28L122.082 431.357L151.518 448.386L122.294 465.309L92.8588 448.28ZM152.894 482.972L123.459 465.943L152.682 449.02L182.118 466.049L152.894 482.972ZM153.741 448.386L182.965 431.463L212.4 448.492L183.176 465.414L153.741 448.386ZM213.776 483.077L184.341 466.049L213.565 449.126L243 466.155L213.776 483.077ZM214.729 448.492L243.953 431.569L273.388 448.597L244.165 465.52L214.729 448.492ZM274.765 483.183L245.329 466.155L274.553 449.232L303.988 466.26L274.765 483.183ZM275.612 448.703L304.835 431.78L334.271 448.809L305.047 465.732L275.612 448.703ZM335.647 483.289L306.212 466.26L335.435 449.338L364.871 466.366L335.647 483.289ZM336.6 448.809L365.824 431.886L395.259 448.915L366.035 465.837L336.6 448.809ZM396.635 483.395L367.2 466.366L396.424 449.444L425.859 466.472L396.635 483.395ZM426.918 465.837L397.482 448.915L426.706 431.992L456.141 449.02L426.918 465.837ZM457.518 483.5L428.082 466.472L457.306 449.549L486.741 466.578L457.518 483.5ZM487.906 465.943L458.471 449.02L487.694 432.098L517.129 449.126L487.906 465.943ZM547.729 466.684L518.506 483.606L489.071 466.578L518.294 449.655L547.729 466.684ZM547.518 431.569L518.294 448.492L488.859 431.463L518.082 414.541L547.518 431.569ZM547.306 396.454L518.082 413.377L488.647 396.349L517.871 379.426L547.306 396.454ZM547.094 361.34L517.871 378.263L488.435 361.234L517.659 344.311L547.094 361.34ZM546.988 326.12L517.765 343.042L488.329 326.014L517.553 309.091L546.988 326.12ZM546.777 291.005L517.553 307.928L488.118 290.899L517.341 273.977L546.777 291.005ZM546.565 255.891L517.341 272.813L487.906 255.785L517.129 238.862L546.565 255.891ZM546.353 220.776L517.129 237.699L487.694 220.67L516.918 203.748L546.353 220.776ZM546.141 185.556L516.918 202.478L487.482 185.45L516.706 168.633L546.141 185.556ZM546.035 150.441L516.812 167.364L487.376 150.335L516.6 133.413L546.035 150.441ZM486 115.855L515.435 132.884L486.212 149.807L456.776 132.778L486 115.855ZM485.047 150.335L455.824 167.258L426.388 150.23L455.612 133.307L485.047 150.335ZM425.012 115.75L454.447 132.778L425.224 149.701L395.788 132.672L425.012 115.75ZM424.165 150.23L394.941 167.152L365.506 150.124L394.729 133.201L424.165 150.23ZM364.129 115.644L393.565 132.672L364.341 149.595L334.906 132.567L364.129 115.644ZM333.741 133.095L363.176 150.124L333.953 167.047L304.518 150.018L333.741 133.095ZM303.141 115.538L332.577 132.567L303.353 149.489L273.918 132.461L303.141 115.538ZM272.859 132.99L302.294 150.018L273.071 166.941L243.529 149.912L272.859 132.99ZM242.259 115.432L271.694 132.461L242.471 149.383L213.035 132.355L242.259 115.432ZM211.871 132.884L241.306 149.912L212.082 166.835L182.647 149.807L211.871 132.884ZM181.376 115.327L210.812 132.355L181.588 149.278L152.153 132.249L181.376 115.327ZM150.988 132.778L180.424 149.807L151.2 166.729L121.765 149.701L150.988 132.778ZM120.388 115.221L149.824 132.249L120.6 149.172L91.1647 132.038L120.388 115.221ZM90 132.672L119.435 149.701L90.2118 166.623L60.7765 149.595L90 132.672ZM30.1765 131.932L59.4 115.009L88.9412 132.038L59.7177 148.96L30.1765 131.932ZM59.6118 150.23L89.0471 167.258L59.8235 184.181L30.3882 167.047L59.6118 150.23ZM0 184.604L29.2235 167.681L58.6588 184.71L29.4353 201.632L0 184.604ZM0.211765 219.718L29.4353 202.796L58.8706 219.824L29.6471 236.747L0.211765 219.718ZM0.423529 254.939L29.6471 238.016L59.0824 255.044L29.8588 271.967L0.423529 254.939ZM0.635294 290.053L29.8588 273.13L59.2941 290.159L30.0706 307.082L0.635294 290.053ZM0.741176 325.168L29.9647 308.245L59.4 325.273L30.1765 342.196L0.741176 325.168ZM0.952941 360.282L30.1765 343.36L59.6118 360.388L30.3882 377.311L0.952941 360.282ZM1.16471 395.503L30.3882 378.58L59.8235 395.608L30.6 412.531L1.16471 395.503ZM1.37647 430.617L30.6 413.694L60.0353 430.723L30.8118 447.645L1.37647 430.617ZM1.58824 465.732L30.8118 448.809L60.2471 465.837L31.0235 482.76L1.58824 465.732Z" fill="#F2F2F3"/>
<path d="M240.084 493L31.1773 367.642L62.0641 352.464L25 331.665L59.8178 312.552L63.1872 318.736L39.0394 331.665L77.2267 353.027L45.7784 368.204L240.084 485.13L456.853 358.648L460.222 364.832L240.084 493Z" fill="#352C23"/>
<path d="M497.286 348.528C518.626 360.895 553.444 360.895 574.784 348.528C596.124 336.161 596.685 315.924 574.784 303.557C553.444 291.189 518.626 291.189 497.286 303.557C475.946 315.924 475.946 336.161 497.286 348.528Z" fill="#ACB5B4"/>
<path d="M474.823 175.389C475.385 175.951 475.385 175.951 475.385 175.951V177.075C475.946 177.637 477.631 176.513 477.631 176.513C477.631 176.513 477.631 176.513 478.754 177.075C479.877 177.075 481 175.951 481 174.827C481 173.702 483.247 172.578 483.247 172.578C483.247 172.578 484.37 172.578 485.493 172.578C486.055 172.578 487.739 173.14 487.739 173.14C487.739 173.14 485.493 175.951 484.931 177.075V177.637C484.931 178.2 485.493 178.2 486.055 178.2C486.616 178.2 491.109 173.702 491.109 173.702L496.163 174.265C496.163 174.265 497.848 175.951 498.409 176.513C498.971 177.075 500.094 179.886 500.094 180.448C500.094 181.01 500.656 181.572 501.217 182.135C501.779 182.697 502.34 183.259 502.902 183.821C503.463 183.821 504.025 183.821 504.587 183.259C504.587 183.259 504.587 183.259 504.587 182.697C505.148 182.135 504.025 177.075 504.025 175.951C504.025 174.827 504.587 173.14 504.587 170.33C504.587 168.081 506.271 164.146 506.271 164.146C506.271 163.584 505.71 163.022 505.71 163.022C502.34 158.525 497.286 161.335 496.725 161.335C496.163 161.335 495.04 162.46 494.478 164.708C493.917 166.395 492.793 166.957 492.232 166.957C491.67 166.957 487.178 168.081 487.178 168.081L481 169.767C481 170.33 481 170.33 481 170.33C481 170.33 474.823 174.827 474.823 175.389Z" fill="#FAC5A8"/>
<path d="M485.493 178.2C485.493 178.762 486.054 178.762 486.616 178.762C487.178 178.762 491.67 174.265 491.67 174.265L496.724 174.827C496.724 174.827 498.409 176.514 498.971 177.076C499.532 177.638 500.655 180.449 500.655 181.011C500.655 181.573 501.217 182.135 501.779 182.697C501.217 181.573 501.217 181.011 501.217 181.011C501.217 181.011 499.532 175.389 498.971 174.265C498.971 173.141 497.286 172.017 496.724 172.017C496.163 172.017 493.917 172.579 492.232 173.703C490.547 174.827 487.739 177.638 486.616 178.2C486.054 178.2 485.493 178.2 485.493 178.2Z" fill="#FAC5A8"/>
<path d="M474.823 175.952L475.385 176.514C475.385 175.39 477.631 173.703 478.192 173.141C477.631 173.141 475.385 174.828 474.823 175.952Z" fill="#FAC5A8"/>
<path d="M475.385 175.95V177.075C475.946 177.637 477.631 176.512 477.631 176.512C477.631 176.512 477.631 176.512 478.754 177.075C479.877 177.075 481 175.95 481 174.826C481 173.702 483.247 172.577 483.247 172.577C483.247 172.577 484.37 172.577 485.493 172.577C486.055 172.577 487.739 173.14 487.739 173.14L489.986 169.767C489.986 169.767 487.739 169.767 487.178 169.767C486.616 169.767 483.247 171.453 482.685 172.015C482.123 172.577 481 174.264 480.439 174.826C480.439 175.95 479.877 175.95 479.316 176.512C478.754 176.512 477.631 176.512 477.631 176.512L478.192 174.264L482.685 169.205L478.754 172.577L476.508 175.388V177.075C476.508 177.075 475.385 177.637 475.385 175.95Z" fill="#FAC5A8"/>
<path d="M500.094 121.422C500.656 124.795 504.025 127.606 506.271 129.854C506.833 130.416 507.395 130.416 507.395 130.979C508.518 132.103 511.326 133.227 513.01 133.789C514.695 134.351 516.38 134.351 516.38 133.789C516.941 133.227 518.626 126.481 520.311 118.611C523.119 107.369 525.927 93.8772 525.927 93.315C525.927 92.1907 520.872 74.2021 515.257 75.3264C509.641 77.0129 505.71 100.061 504.587 103.996C503.463 108.493 500.094 121.422 500.094 121.422Z" fill="#203581"/>
<path d="M493.355 163.023C493.355 163.023 499.532 159.65 502.34 161.336C503.463 161.898 504.587 162.461 505.148 163.585C506.271 164.709 506.833 165.833 506.833 166.958C506.833 169.206 515.256 147.283 515.256 147.283L513.572 134.353C513.572 134.353 512.449 130.98 509.641 127.608C509.079 127.045 508.518 126.483 507.956 125.921C506.271 124.235 503.463 123.11 500.094 122.548C498.409 133.791 497.286 148.969 496.724 151.218C496.163 152.904 493.355 163.023 493.355 163.023Z" fill="#203581"/>
<path d="M506.271 320.422C506.271 320.422 504.025 320.985 504.025 322.109C504.025 323.233 505.148 326.044 506.833 327.168C508.518 327.73 511.326 328.855 515.818 327.73C520.311 326.606 524.803 323.795 527.05 320.422C529.296 317.05 533.789 316.487 534.35 316.487C534.912 316.487 543.336 312.553 544.459 311.428C545.582 310.304 542.774 305.245 542.774 305.245L525.365 311.99L506.271 320.422Z" fill="#3E362F"/>
<path d="M504.587 319.86C504.587 319.86 503.464 327.73 511.326 327.168C519.188 326.606 526.488 318.736 529.296 317.049C531.542 315.363 541.651 311.99 542.774 309.741C543.897 307.493 542.774 305.244 540.528 304.12C538.281 302.996 530.981 301.309 530.981 301.309C530.981 301.309 514.695 309.179 514.695 309.741C514.695 308.617 504.587 317.049 504.587 319.86Z" fill="#524B45"/>
<path d="M529.857 305.246C532.665 305.808 537.72 304.684 540.527 303.559C541.089 302.997 542.212 302.997 542.212 302.435C543.335 300.749 544.458 261.399 545.582 259.15C546.705 256.901 545.02 220.362 545.02 220.362L536.035 203.498L530.419 192.255C530.419 192.255 514.133 175.391 514.695 191.693C514.695 207.995 516.38 214.741 518.064 220.924C519.188 227.108 521.434 246.221 521.995 247.907C522.557 250.156 527.611 297.938 527.611 299.062C527.611 300.749 526.488 304.121 529.857 305.246Z" fill="#2B4396"/>
<path d="M541.089 303.558C541.651 302.995 542.774 302.995 542.774 302.433C543.897 300.747 545.02 261.397 546.143 259.148C547.267 256.9 545.582 220.36 545.582 220.36L536.597 203.496C535.473 203.496 534.912 203.496 534.912 203.496L537.72 231.603C537.72 231.603 538.281 246.781 541.089 257.462C543.336 268.143 539.404 283.32 539.966 288.942C539.404 291.753 540.528 299.06 541.089 303.558Z" fill="#445EB6"/>
<path d="M538.843 335.598C538.843 335.598 537.158 336.722 537.158 338.409C537.158 340.095 538.281 341.782 538.281 341.782C538.281 341.782 542.212 345.155 548.39 343.468C555.129 342.344 559.06 337.847 559.621 335.036C560.183 332.225 564.114 321.545 564.114 321.545C564.114 321.545 565.799 319.296 565.799 318.734C565.799 318.172 564.675 314.799 564.114 314.799C563.552 314.799 547.828 320.982 547.828 320.982L538.843 335.598Z" fill="#3E362F"/>
<path d="M537.72 338.411C537.72 338.411 538.281 342.908 546.143 342.346C554.567 341.784 559.06 336.724 560.183 332.227C561.306 327.73 562.429 321.546 563.552 319.86C564.675 318.174 564.675 315.925 563.552 314.239C562.991 312.552 560.744 306.931 560.744 306.931C560.744 306.931 548.951 306.931 546.705 314.801C544.459 322.671 537.72 332.789 537.72 334.476C537.158 336.162 537.72 338.411 537.72 338.411Z" fill="#524B45"/>
<path d="M545.02 256.338C547.267 269.267 546.705 308.055 546.705 308.055C546.705 308.055 550.074 312.552 554.567 311.99C556.813 311.428 559.621 310.303 561.306 309.179C562.429 308.055 563.552 307.493 563.552 306.368C563.552 304.682 568.606 282.758 569.73 273.202C570.853 263.645 568.607 255.213 568.607 251.84C568.607 248.468 574.222 215.301 575.345 209.118C575.907 202.934 574.784 189.443 574.784 189.443C574.784 189.443 574.222 189.443 572.538 189.443C562.429 188.318 524.242 184.945 523.68 191.691C523.119 199.561 526.488 207.431 529.858 209.68C533.227 211.928 538.281 212.49 538.281 212.49C538.281 212.49 542.774 243.408 545.02 256.338Z" fill="#2B4396"/>
<path d="M561.867 308.616C562.991 307.492 564.114 306.93 564.114 305.806C564.114 304.119 569.168 282.196 570.291 272.639C571.414 263.083 569.168 254.651 569.168 251.278C569.168 247.905 574.784 214.738 575.907 208.555C576.468 202.371 575.345 188.88 575.345 188.88C575.345 188.88 574.784 188.88 573.099 188.88C573.661 193.939 574.222 203.496 573.661 207.431C572.537 213.614 564.675 241.721 567.483 256.899C570.291 272.077 566.922 274.888 565.237 286.131C562.991 294.563 561.867 304.119 561.867 308.616Z" fill="#445EB6"/>
<path d="M514.133 190.568C515.256 192.816 519.188 199.562 522.557 199.562C525.926 199.562 532.665 202.373 534.35 202.373C536.035 202.373 552.882 204.059 562.429 200.686C571.976 197.875 577.592 189.443 577.592 188.319C577.592 187.195 575.907 165.271 575.907 165.271C575.907 164.709 572.537 147.845 572.537 142.223C573.099 136.04 580.399 93.3169 578.715 90.5061C576.468 87.6954 567.483 79.2633 561.867 74.204C556.252 69.1447 547.828 66.334 547.828 66.334C547.828 66.334 532.665 66.8961 525.365 70.8311C518.064 74.7661 515.256 73.6418 511.325 79.8254C507.956 86.5711 507.394 106.808 509.079 115.803C509.641 119.738 510.764 127.045 511.325 134.353C511.887 142.223 512.449 150.093 512.449 154.59C511.887 160.774 513.01 174.265 513.572 182.698C513.572 187.195 514.133 190.005 514.133 190.568Z" fill="#172B6F"/>
<path fill-rule="evenodd" clip-rule="evenodd" d="M538.919 115.022L534.029 114.094L531.709 96.9453L536.599 97.8733L538.919 115.022ZM533.086 113.916L528.196 112.987L526.403 99.2801L531.293 100.208L533.086 113.916ZM527.151 112.812L518.844 111.236L525.36 99.1982L527.151 112.812ZM524.842 101.931C524.988 102.943 525.244 105.268 525.477 107.389L525.48 107.414C525.679 109.232 525.862 110.896 525.945 111.446L520.486 110.41C520.719 109.993 521.303 108.826 521.983 107.469L521.987 107.463C523.015 105.41 524.262 102.924 524.842 101.931Z" fill="#ACB9E8"/>
<path fill-rule="evenodd" clip-rule="evenodd" d="M544.063 119.484L543.752 119.423L543.589 120.246L543.474 120.223L543.636 119.4L543.325 119.339L543.347 119.225L544.094 119.372L544.072 119.486L544.063 119.484ZM513.663 117.555C513.325 119.268 514.079 120.547 515.698 120.866C516.258 120.977 516.885 120.983 517.404 120.741L517.536 120.256C517.368 120.36 516.647 120.739 515.855 120.583C514.699 120.355 514.079 119.239 514.376 117.735C514.637 116.41 515.534 115.378 516.885 115.645C517.641 115.794 518.079 116.431 518.157 116.594L518.213 116.595C518.289 116.394 518.373 116.204 518.483 116.019C518.03 115.694 517.505 115.453 516.972 115.347C515.424 115.042 514.01 115.795 513.663 117.555ZM521.922 121.987L521.92 121.987L521.918 121.986C521.856 121.979 521.795 121.971 521.736 121.96C521.652 121.265 521.532 120.464 521.379 119.697L519.512 119.329C519.461 119.411 519.41 119.494 519.358 119.576C519.015 120.132 518.671 120.687 518.366 121.295L518.308 121.277C518.23 121.255 518.166 121.235 518.094 121.221C518.044 121.211 517.997 121.207 517.953 121.204L517.951 121.203C517.91 121.2 517.871 121.197 517.833 121.189L521.204 116.183L521.373 116.216L522.501 122.11C522.433 122.097 522.371 122.08 522.309 122.063C522.25 122.046 522.192 122.03 522.131 122.018C522.058 122.003 521.989 121.995 521.922 121.987ZM525.815 120.577L525.813 120.573L525.812 120.571L525.811 120.57L525.811 120.569L525.81 120.568L525.809 120.567L525.809 120.566L525.808 120.564L525.807 120.563L525.806 120.562L525.806 120.561L525.805 120.56L525.804 120.559C525.622 120.233 525.439 119.907 525.264 119.579L526.036 119.033L528.035 117.658C527.985 117.648 527.934 117.644 527.884 117.639L527.883 117.639L527.881 117.639C527.835 117.634 527.789 117.629 527.747 117.621C527.648 117.602 527.566 117.577 527.478 117.55L527.457 117.544L525.26 119.175C525.223 119.199 525.182 119.227 525.138 119.257C525.029 119.33 524.905 119.414 524.794 119.476C524.701 119.527 524.598 119.536 524.598 119.487L525.074 117.074C525.016 117.063 524.961 117.057 524.907 117.051L524.906 117.051C524.854 117.046 524.803 117.04 524.75 117.03C524.644 117.009 524.539 116.978 524.434 116.948L523.379 122.294C523.427 122.303 523.48 122.309 523.534 122.315C523.591 122.321 523.649 122.327 523.703 122.338C523.793 122.356 523.89 122.383 523.993 122.413L524.019 122.42L524.557 119.695C524.565 119.657 524.648 119.703 524.678 119.738L525.884 122.051C526.026 122.315 526.14 122.583 526.251 122.86C526.317 122.873 526.383 122.882 526.451 122.89C526.521 122.899 526.592 122.908 526.664 122.922C526.769 122.943 526.873 122.97 526.993 123.002L527.06 123.02L527.068 122.982L526.627 122.079C526.373 121.57 526.094 121.073 525.815 120.577ZM529.942 123.677C528.324 123.358 527.569 122.078 527.907 120.366C528.255 118.606 529.669 117.853 531.216 118.158C531.75 118.263 532.275 118.505 532.728 118.83C532.617 119.015 532.534 119.205 532.457 119.406L532.402 119.405C532.323 119.242 531.885 118.605 531.13 118.456C529.778 118.189 528.882 119.221 528.62 120.546C528.323 122.05 528.944 123.166 530.1 123.394C530.891 123.55 531.613 123.171 531.781 123.067L531.648 123.552C531.129 123.793 530.502 123.788 529.942 123.677ZM533.54 119.629C533.675 119.508 534.322 119.086 535.077 119.235C536.313 119.479 536.799 120.577 536.663 121.779L534.627 121.377C534.521 121.356 534.418 121.326 534.313 121.296L534.311 121.296C534.205 121.265 534.097 121.233 533.985 121.211C533.98 121.239 533.978 121.271 533.976 121.305C533.973 121.341 533.971 121.379 533.964 121.414C533.959 121.439 533.949 121.468 533.939 121.499C533.927 121.538 533.912 121.581 533.903 121.628C534.009 121.649 534.116 121.66 534.225 121.672L534.227 121.672L534.228 121.672L534.231 121.672C534.34 121.684 534.45 121.696 534.56 121.718L536.605 122.121C536.31 123.616 535.31 124.422 534.154 124.194C533.363 124.038 532.848 123.415 532.723 123.253L532.662 123.752C533.059 124.174 533.632 124.405 534.192 124.516C535.811 124.835 536.995 123.938 537.333 122.226C537.678 120.475 536.658 119.232 535.111 118.927C534.568 118.82 533.991 118.843 533.457 118.974C533.489 119.187 533.492 119.404 533.489 119.609L533.54 119.629ZM539.927 125.647C538.309 125.328 537.555 124.049 537.893 122.336C538.24 120.576 539.654 119.823 541.202 120.129C541.735 120.234 542.26 120.475 542.713 120.8C542.603 120.985 542.519 121.175 542.443 121.376L542.387 121.375C542.309 121.212 541.871 120.575 541.115 120.426C539.764 120.159 538.867 121.192 538.605 122.516C538.309 124.021 538.929 125.136 540.085 125.364C540.876 125.52 541.598 125.141 541.766 125.037L541.634 125.522C541.106 125.762 540.479 125.756 539.927 125.647ZM521.336 119.354L519.717 119.035L520.912 117.196L521.336 119.354ZM544.745 120.474L544.861 120.497L545.046 119.56L544.886 119.529L544.561 120.005L544.432 119.439L544.272 119.407L544.087 120.344L544.194 120.365L544.353 119.561L544.484 120.157L544.556 120.171L544.904 119.67L544.745 120.474Z" fill="#D0D8F3"/>
<path d="M564.114 76.4503C564.114 76.4503 553.444 75.8882 545.582 89.9418C537.72 104.557 538.281 143.908 538.281 143.908L517.503 136.038C517.503 136.038 515.818 112.427 517.503 97.2496C519.188 82.6339 533.789 67.4561 533.789 67.4561L523.119 71.3911C523.119 71.3911 511.887 88.2553 511.326 97.8118C510.764 107.368 512.449 135.475 512.449 135.475L511.326 136.6C511.326 136.6 511.326 159.648 511.326 164.145C511.326 168.642 511.887 188.317 514.133 192.814C516.941 197.873 518.064 201.808 536.597 204.057C554.567 206.305 570.291 202.933 575.345 194.5C577.592 188.317 577.592 188.317 577.592 188.317C577.592 188.317 577.592 173.139 576.468 164.145C575.345 155.713 574.222 134.913 574.222 134.913C574.222 134.913 562.429 148.405 559.06 150.091C555.69 151.778 545.582 142.221 545.582 142.221C545.582 142.221 545.582 93.8768 554.567 86.5689C563.552 79.2611 568.045 80.3853 568.045 80.3853L564.114 76.4503Z" fill="#2B4396"/>
<path d="M515.818 139.974C514.133 139.974 512.449 138.288 512.449 136.601C512.449 134.915 513.572 133.229 515.257 133.229C516.941 133.229 518.626 134.915 518.626 136.601C518.626 138.288 517.503 139.974 515.818 139.974Z" fill="#F2AD4A"/>
<path d="M542.212 148.969C540.527 148.969 538.843 147.283 538.843 145.596C538.843 143.91 539.966 142.224 541.651 142.224C543.335 142.224 545.02 143.91 545.02 145.596C545.02 147.283 543.897 148.969 542.212 148.969Z" fill="#F2AD4A"/>
<path d="M529.296 75.3273C529.296 75.3273 528.173 83.1973 532.665 84.8837C537.158 86.5702 547.266 82.6352 551.198 79.2623C555.129 75.8894 557.375 75.3273 556.813 72.5166C556.252 70.268 552.882 69.1437 551.198 65.2087C549.513 60.7116 549.513 54.528 547.828 51.1552C546.143 48.3444 528.734 55.6523 528.173 60.1494C528.173 65.2087 529.296 75.3273 529.296 75.3273Z" fill="#FAC5A8"/>
<path d="M489.986 185.508C489.986 185.508 490.547 185.508 489.986 185.508C490.547 185.508 495.601 180.449 495.601 180.449L500.094 177.638L497.286 179.887L495.04 182.698C495.04 182.698 493.355 186.633 492.794 188.319C492.794 189.443 493.355 190.006 494.478 190.006H495.04C495.601 190.006 497.286 186.071 497.286 186.071C497.286 186.071 498.409 183.822 501.779 181.573C504.587 179.325 505.71 179.325 506.271 179.887L502.902 184.384C502.902 184.384 498.409 190.006 497.848 191.692C497.286 192.816 497.848 193.378 498.971 193.378C499.533 193.378 499.533 193.378 500.094 193.378C501.217 193.378 505.71 186.633 506.271 186.071C506.833 185.508 510.202 182.136 510.764 181.573L510.202 183.822L509.641 184.946C509.641 184.946 506.271 188.881 505.71 191.13C505.148 193.378 506.271 193.941 507.395 193.378L507.956 192.816C508.518 192.254 509.079 191.13 509.079 190.568L514.134 183.822C514.134 183.822 516.941 182.698 518.065 182.136C519.188 181.573 522.557 178.763 522.557 178.763C525.927 177.076 527.05 174.828 527.611 173.703C528.735 169.768 521.996 168.082 521.996 168.082C521.996 168.082 515.818 169.768 514.134 170.331C512.449 170.331 501.779 172.579 501.217 173.141C500.656 173.141 493.917 176.514 493.917 177.076C493.355 177.076 489.424 182.136 489.424 182.136C489.424 182.136 488.863 184.384 488.863 184.946C488.863 184.946 489.424 185.508 489.986 185.508Z" fill="#FAC5A8"/>
<path d="M508.518 191.13C508.518 191.13 508.518 191.692 507.956 192.816C508.518 192.254 509.079 191.13 509.079 190.567L514.133 183.822C514.133 183.822 516.941 182.697 518.064 182.135C519.188 181.573 522.557 178.762 522.557 178.762C525.927 177.076 527.05 174.827 527.611 173.703C525.927 174.827 524.242 176.514 521.434 178.762L517.503 182.135C517.503 182.135 514.133 183.26 513.572 183.822L508.518 191.13Z" fill="#FAC5A8"/>
<path d="M500.655 192.254C500.094 192.254 500.094 192.816 499.532 192.816C500.094 192.816 500.094 192.816 500.655 192.816C501.779 192.816 506.271 186.07 506.833 185.508C507.394 184.946 510.764 181.573 511.325 181.011L510.764 183.26L512.449 181.011C512.449 181.011 511.887 180.449 511.325 181.011C510.764 181.573 506.833 185.508 506.833 186.07C506.833 186.632 501.217 192.254 500.655 192.254Z" fill="#FAC5A8"/>
<path d="M494.478 190.006H495.04C495.601 190.006 497.286 186.071 497.286 186.071C497.286 186.071 498.409 183.823 501.779 181.574C504.587 179.326 505.71 179.326 506.271 179.888C505.71 179.888 504.587 179.326 504.025 179.326C504.025 179.326 499.532 182.136 497.848 184.385C496.163 186.634 495.04 188.882 495.04 189.444C495.04 189.444 495.04 190.006 494.478 190.006Z" fill="#FAC5A8"/>
<path d="M489.986 185.507C489.986 185.507 490.547 185.507 489.986 185.507C490.547 185.507 495.601 180.448 495.601 180.448L500.094 177.637L502.902 175.95L505.71 174.826C505.71 174.826 502.902 175.388 501.779 175.95C500.656 176.513 495.04 179.885 495.04 179.885C493.917 180.448 491.109 184.383 489.986 185.507Z" fill="#FAC5A8"/>
<path d="M504.025 173.704C504.025 173.704 504.025 178.763 504.025 179.887C504.025 180.45 504.587 182.136 504.587 182.698C504.587 182.698 504.587 182.698 504.587 182.136C505.148 181.574 504.025 176.515 504.025 175.39C504.025 174.266 504.587 172.58 504.587 169.769C504.587 167.52 506.271 163.585 506.271 163.585C506.271 163.023 505.71 162.461 505.71 162.461C505.71 164.147 505.148 166.958 504.587 168.082C504.025 169.769 504.025 173.142 504.025 173.704Z" fill="#FAC5A8"/>
<path d="M583.769 144.472C583.769 145.034 583.769 145.034 583.207 145.596C583.207 145.596 583.207 145.034 583.769 144.472C583.207 144.472 583.207 145.034 583.769 144.472Z" fill="#FAC5A8"/>
<path d="M542.774 73.6422C542.774 73.6422 535.473 83.7608 530.981 84.8851C526.488 86.0094 521.996 82.6365 520.872 80.9501C519.188 78.7015 523.119 73.0801 523.119 73.0801C523.119 73.0801 541.651 68.0208 542.774 73.6422Z" fill="#F8D1BC"/>
<path d="M556.813 148.405C556.813 148.405 564.675 156.275 571.414 159.648C571.976 160.21 572.537 160.21 573.099 160.772C574.222 161.334 574.784 161.334 575.907 160.772C575.907 160.772 575.907 160.772 576.468 160.772C576.468 160.772 576.468 160.772 577.03 160.772L577.591 160.21L578.153 159.648L578.715 159.085L581.522 154.026V153.464L582.084 151.215V150.653V150.091C582.084 149.529 582.646 148.967 582.646 148.405V147.843V147.28V146.718V146.156C582.646 145.594 582.646 145.032 583.207 145.032C583.769 142.783 584.33 139.973 584.33 137.724C584.33 137.162 584.33 136.6 584.33 136.6C584.892 134.351 584.892 132.103 584.892 129.854C584.892 129.292 584.892 129.292 584.892 129.292C584.892 128.73 584.892 127.605 584.892 127.043C584.33 113.552 581.522 95.5633 578.153 93.3147C574.784 91.0661 567.483 90.504 561.867 96.6875C556.813 102.871 557.936 118.049 556.813 127.043C556.251 133.227 556.813 148.405 556.813 148.405Z" fill="#203581"/>
<path d="M513.572 169.769C513.572 169.769 515.257 169.207 518.064 173.704C519.749 175.953 520.311 178.201 520.311 179.326C520.311 181.012 520.311 181.574 520.311 181.574C520.311 181.574 566.922 165.272 575.907 160.213C575.907 160.213 576.468 160.213 576.468 159.651C576.468 157.402 575.345 155.154 573.099 153.467C568.606 148.97 560.183 146.159 556.252 147.846C551.197 150.656 532.665 162.461 513.572 169.769Z" fill="#203581"/>
<path d="M526.488 81.5106C526.488 81.5106 530.419 82.0728 531.542 81.5106C532.665 80.9485 542.212 74.2028 543.897 72.5163C545.582 70.8299 545.582 66.8949 545.582 66.3328C545.582 65.7706 546.143 55.6521 543.897 50.5928C541.651 45.5335 540.527 37.1013 536.035 35.4149C530.981 33.1663 513.572 35.4149 513.572 46.6578C514.133 58.4628 515.257 57.9006 516.38 61.8356C516.941 65.2085 517.503 67.4571 518.626 70.2678C520.311 73.0785 523.68 80.3863 526.488 81.5106Z" fill="#FAC5A8"/>
<path d="M536.035 47.7828C536.035 47.7828 538.281 55.0906 538.843 56.2149C539.404 57.3392 541.651 58.4635 541.651 59.0256C541.651 59.5878 542.212 60.712 542.212 60.712L543.897 60.1499C543.897 60.1499 544.459 53.9663 546.705 56.2149C548.951 58.4635 550.636 64.647 550.636 64.647C550.636 64.647 552.882 53.9663 553.444 50.5935C554.005 47.2206 555.129 38.2263 548.951 28.6699C542.774 19.1135 523.119 21.9242 518.064 30.3563C513.572 37.6642 513.572 41.5992 513.572 44.972C513.572 48.3449 514.133 47.7828 514.133 47.7828C514.133 47.7828 515.818 49.4692 523.68 48.907C530.981 48.907 535.473 46.0963 536.035 47.7828Z" fill="#4A2727"/>
<path d="M545.582 60.7133C545.582 60.7133 545.02 63.5241 547.266 62.9619C548.951 62.9619 552.321 58.4648 551.759 53.9676C551.197 50.0326 547.266 52.2812 546.705 53.4055C546.143 54.5298 546.143 57.3405 546.143 57.9026C545.582 59.0269 545.582 60.7133 545.582 60.7133Z" fill="#FFD4BD"/>
<path d="M521.995 62.3976C521.995 62.3976 520.872 68.5811 520.872 69.1433C520.872 69.7054 524.242 69.1433 524.803 68.5811C525.365 68.019 521.995 60.7111 521.995 62.3976Z" fill="#FFD4BD"/>
<path d="M520.872 50.0305C520.872 50.0305 520.311 56.7762 520.872 58.4627C521.434 59.5869 534.912 59.0248 534.912 59.5869C534.912 60.1491 536.597 62.9598 536.035 64.6462C535.473 66.3327 528.173 67.457 528.173 68.0191C528.173 68.5812 532.104 73.0784 533.227 72.5162C534.35 71.9541 540.528 68.0191 540.528 64.6462C540.528 61.2734 539.966 59.0248 539.404 58.4627C538.843 57.9005 537.158 56.7762 536.035 55.0898C534.912 53.4034 534.912 48.9062 533.227 48.9062C531.542 48.3441 526.488 50.0305 520.872 50.0305Z" fill="#FFD4BD"/>
<path d="M473.7 373.261H375.424L326.005 346.278L331.621 310.863L451.237 306.366L473.7 373.261Z" fill="#ACB5B4"/>
<path d="M515.818 349.09L473.7 373.262V246.78L515.818 222.045V349.09Z" fill="#95938F"/>
<path d="M391.148 326.042L473.7 373.262V246.78L391.148 198.998V326.042Z" fill="#7A746E"/>
<path d="M515.818 222.046L473.7 246.78L403.503 206.306L391.148 198.998L402.941 192.252L433.828 174.826L515.818 222.046Z" fill="#F7F7F6"/>
<path d="M379.917 201.249L477.069 256.902V222.049L379.917 165.834V201.249Z" fill="#8C8782"/>
<path d="M527.05 211.365L477.069 222.046L394.518 174.264L379.917 165.832L393.956 157.962L430.458 155.151L527.05 211.365Z" fill="#E1E1DC"/>
<path d="M482.685 188.882L462.468 189.444L446.744 180.45L441.69 177.639L461.907 177.077L482.685 188.882Z" fill="#FF862A"/>
<path d="M450.114 169.769L425.966 171.455L410.242 162.461L433.828 160.212L450.114 169.769Z" fill="#8C8782"/>
<path d="M437.759 150.656C437.759 150.656 431.02 154.591 427.089 158.526C423.72 162.461 423.158 163.585 423.158 163.585H428.774C428.774 163.585 434.389 155.153 437.759 153.466C441.128 151.78 441.128 151.78 441.128 151.78L437.759 150.656Z" fill="#322920"/>
<path d="M447.306 156.84C447.306 156.84 440.567 160.775 436.636 164.71C433.266 168.645 432.705 169.77 432.705 169.77H438.321C438.321 169.77 443.936 161.337 447.306 159.651C450.675 157.965 450.675 157.965 450.675 157.965L447.306 156.84Z" fill="#322920"/>
<path d="M431.582 149.531L448.429 159.65L455.168 160.212L456.291 156.277L435.513 145.034L432.143 146.721L431.582 149.531Z" fill="#CC1F15"/>
<path d="M464.715 186.069C460.784 185.507 456.291 183.259 455.168 181.572C455.168 181.01 455.168 181.01 455.168 181.01L455.73 178.761C456.291 177.637 457.414 179.324 460.784 179.886C464.715 180.448 466.961 180.448 468.084 182.696C468.084 183.259 470.892 183.259 470.892 183.259L470.331 185.507C469.769 186.632 467.523 186.631 464.715 186.069Z" fill="#CC1F15"/>
<path d="M465.276 183.823C461.345 183.261 456.852 181.012 455.729 179.326C454.606 177.64 457.414 176.515 461.345 177.64C465.276 178.202 469.769 180.45 470.892 182.137C472.015 183.823 469.769 184.947 465.276 183.823Z" fill="#FF2C2A"/>
<path d="M481 193.378L489.424 199H496.725V196.189L488.863 191.13H482.124L481 193.378Z" fill="#8C8782"/>
<path d="M482.124 191.13L490.547 196.189H496.725L488.862 191.13H482.124Z" fill="#AAA6A2"/>
<path d="M496.163 201.811L504.586 206.87L511.887 207.432L512.449 204.059L504.025 199.562L497.286 199L496.163 201.811Z" fill="#8C8782"/>
<path d="M497.286 199L505.71 204.059H512.449L504.025 199.562L497.286 199Z" fill="#AAA6A2"/>
<path d="M469.207 193.941L477.631 199L484.931 199.563V196.19L476.508 191.693L470.33 191.13L469.207 193.941Z" fill="#8C8782"/>
<path d="M470.331 191.13L478.754 196.189H484.932L476.508 191.692L470.331 191.13Z" fill="#AAA6A2"/>
<path d="M484.37 202.373L492.794 207.432L500.094 207.994L500.656 204.621L492.232 200.124L485.493 199.562L484.37 202.373Z" fill="#8C8782"/>
<path d="M485.493 199.562L493.917 204.621H500.655L492.232 200.124L485.493 199.562Z" fill="#AAA6A2"/>
<path d="M527.05 228.23L477.069 256.899V222.046L491.109 213.614L527.05 211.366V228.23Z" fill="#ADABA8"/>
<path d="M386.656 381.695L214.813 481.757L38.4778 376.636L207.512 278.261L386.656 381.695Z" fill="#ACB5B4"/>
<path d="M76.6651 374.948L69.9261 378.884V349.09L76.6651 344.593V374.948Z" fill="#827C5A"/>
<path d="M63.7488 375.511L69.9261 378.884V349.091L63.7488 345.156V375.511Z" fill="#474536"/>
<path d="M235.591 466.58L228.291 470.515V440.722L235.591 436.787V466.58Z" fill="#827C5A"/>
<path d="M222.113 467.143L228.291 470.516V440.722L222.113 437.35V467.143Z" fill="#474536"/>
<path d="M375.986 384.506L368.685 389.004V358.648L375.986 354.713V384.506Z" fill="#827C5A"/>
<path d="M362.508 385.069L368.685 389.004V358.649L362.508 355.276V385.069Z" fill="#474536"/>
<path d="M112.606 14.6162V306.931L73.8573 328.854V37.1019L112.606 14.6162Z" fill="#D8CFB6"/>
<path d="M48.5862 314.239L73.8572 328.854V37.102L48.5862 22.4863V314.239Z" fill="#B28B64"/>
<path d="M112.606 14.6157L73.8572 37.1014L59.8177 28.6693L48.5862 22.4857L59.2561 16.3021L87.335 0L112.606 14.6157Z" fill="#F7F7F6"/>
<path d="M116.537 150.093L112.606 152.342L73.8573 175.39V46.097L77.7883 40.4756L112.606 137.726L116.537 150.093Z" fill="#A26F4A"/>
<path d="M133.946 134.914L99.6897 154.589V53.4035L133.946 33.7285V134.914Z" fill="#E8E8E8"/>
<path d="M113.168 100.626C113.729 103.437 112.044 106.809 109.798 107.934C107.552 109.058 105.305 107.934 104.744 105.123C104.182 102.312 105.867 98.9394 108.113 97.8151C110.921 96.6908 113.168 97.8151 113.168 100.626Z" fill="#689B31"/>
<path d="M110.921 101.189C110.921 102.875 110.36 105.124 108.675 105.686C106.99 106.81 105.867 105.686 105.867 103.999C105.867 102.313 106.429 100.064 108.113 99.5023C109.237 98.9402 110.921 99.5023 110.921 101.189Z" fill="#86C95A"/>
<path d="M128.892 48.9091L104.744 62.4005V60.7141L128.892 47.2227V48.9091Z" fill="#8C8782"/>
<path d="M128.892 56.2152L104.744 69.7067V68.5824L128.892 54.5288V56.2152Z" fill="#8C8782"/>
<path d="M128.892 64.0844L104.744 77.5758V75.8894L128.892 62.3979V64.0844Z" fill="#8C8782"/>
<path d="M128.892 71.3944L104.744 85.448V83.7616L128.892 69.708V71.3944Z" fill="#8C8782"/>
<path d="M77.7882 141.661L99.6897 154.591V53.4049L77.7882 40.4756V141.661Z" fill="#8C8782"/>
<path d="M133.946 33.7306L99.6897 53.4056L87.335 46.0977L77.7882 40.4763L86.7734 34.8548L111.483 20.8013L133.946 33.7306Z" fill="#F7F7F6"/>
<path d="M84.5273 239.475L77.2268 243.972V143.348L84.5273 139.413V239.475Z" fill="#E8E8E8"/>
<path d="M70.4878 240.035L77.2267 243.97V143.346L70.4878 139.973V240.035Z" fill="#8C8782"/>
<path d="M84.5272 139.412L77.2267 143.347L73.2957 141.661L70.4878 139.974L73.2957 138.288L78.3499 135.477L84.5272 139.412Z" fill="#F7F7F6"/>
<path d="M197.404 179.887L190.104 184.384V84.3223L197.404 79.8252V179.887Z" fill="#E8E8E8"/>
<path d="M183.365 180.446L190.104 184.381V84.3198L183.365 80.3848V180.446Z" fill="#8C8782"/>
<path d="M197.404 79.8242L190.104 84.3213L186.173 82.0727L183.365 80.3863L186.173 78.6999L191.227 75.8892L197.404 79.8242Z" fill="#F7F7F6"/>
<path d="M228.852 442.969L53.0789 341.221V275.45L228.852 377.198V442.969Z" fill="#2B4CB9"/>
<path d="M228.852 397.997L53.0789 296.249V275.45L228.852 377.198V397.997Z" fill="#4A5FA1"/>
<path d="M386.656 285.008V350.779L228.852 442.97V377.199L386.656 285.008Z" fill="#D9AF6A"/>
<path d="M386.656 285.008V350.779L228.852 442.97V377.199L386.656 285.008Z" fill="#4163D2"/>
<path d="M386.656 285.008V306.369L228.852 397.999V377.199L386.656 285.008Z" fill="#5D73BD"/>
<path d="M386.656 285.008L228.852 377.199L53.0789 275.451L210.32 183.26L386.656 285.008Z" fill="#EFD995"/>
<path d="M231.66 387.316L38.4778 276.012V257.461L231.66 369.327V387.316Z" fill="#5B5450"/>
<path d="M414.173 263.082V281.07L231.66 387.315V369.327L414.173 263.082Z" fill="#95938F"/>
<path d="M414.173 263.082L231.66 369.327L38.4778 257.461L220.429 151.216L414.173 263.082Z" fill="#818181"/>
<path d="M218.744 173.703L207.513 171.454L60.9409 255.776L221.552 347.967H232.222L201.897 323.795L83.404 255.776L218.744 173.703Z" fill="#736D6A"/>
<path d="M77.7882 259.148L232.222 348.529L378.232 264.207V257.462L224.36 170.892L219.306 173.702L77.7882 252.402V259.148ZM224.36 177.637L260.301 198.437L264.232 200.685L266.478 202.372L268.724 203.496L299.05 220.922L296.803 222.047L309.72 229.354L183.365 302.433L170.448 295.125L164.833 298.498L90.1429 255.775L224.36 177.637ZM230.537 327.167L196.843 307.492L194.596 306.368L320.951 233.289L356.892 254.089L230.537 327.167Z" fill="#7B7F8B"/>
<path d="M219.867 183.821L248.508 200.686L128.892 270.954L135.069 280.51L263.67 211.929L299.05 232.166L175.503 302.434L186.173 307.493L313.651 237.787L346.222 257.462L226.045 327.168L231.66 336.162L356.33 256.338L225.483 177.076L219.867 183.821Z" fill="#736D6A"/>
<path d="M232.222 341.22L378.232 256.899L223.798 167.518L77.7882 251.84L232.222 341.22ZM224.36 177.637L260.301 198.436L133.946 271.515L102.498 253.526L100.251 252.402L98.005 250.715L224.36 177.637ZM230.537 327.167L196.843 307.492L194.596 306.367L320.951 233.289L356.892 254.088L230.537 327.167ZM183.365 302.432L170.448 295.125L145.177 280.509L271.532 207.43L296.803 222.046L309.72 229.354L183.365 302.432Z" fill="#C5C7CF"/>
<path d="M155.286 274.888L145.177 280.509L170.448 295.125L183.365 302.433L300.734 234.413L313.089 231.041L320.951 228.792V229.354L183.365 309.178L164.833 298.498L135.069 281.071V280.509L155.286 274.888Z" fill="#9497A1"/>
<path d="M183.365 309.179V308.616L135.069 280.509V281.071L183.365 309.179Z" fill="#DBDCE0"/>
<path d="M165.394 297.935L183.365 308.616L320.39 228.791L318.143 227.667L272.094 200.684L135.069 280.508L165.394 297.935ZM183.365 302.432L170.448 295.124L145.177 280.508L271.532 207.43L296.803 222.046L309.72 229.353L183.365 302.432Z" fill="#E8E9F0"/>
<path d="M183.365 305.805L191.227 303.556L193.473 302.994L207.512 299.059L194.596 306.929L196.842 308.054L230.537 327.166L345.099 260.834L352.961 258.585L369.247 254.088V256.899L231.66 336.161L183.926 308.616H183.365V305.805Z" fill="#9497A1"/>
<path d="M194.596 309.179L196.842 308.054L230.537 327.167L354.646 255.213L356.33 256.337L230.537 329.416L194.596 309.179Z" fill="#FFFEFF"/>
<path d="M86.7734 250.153L110.921 243.407L98.005 250.715L100.251 252.402L101.936 253.526L133.946 271.515L247.946 205.182L255.808 202.933L264.232 200.685L272.094 198.436V200.685L135.069 280.509L90.7045 255.212L86.7734 252.402V250.153Z" fill="#9497A1"/>
<path d="M135.069 280.511V278.262L86.7734 250.155V252.403L135.069 280.511Z" fill="#DBDCE0"/>
<path d="M98.005 253.526L100.251 252.402L101.936 253.526L133.946 271.515L258.054 199.561L259.739 200.685L133.946 273.763L98.005 253.526Z" fill="#FFFEFF"/>
<path d="M194.596 309.179L320.951 236.101L356.331 256.338L354.646 258.024L320.951 238.349L196.843 310.303L194.596 309.179Z" fill="#9497A1"/>
<path d="M145.177 280.51L271.532 207.431L309.158 229.355L307.473 230.479L271.532 209.68L147.424 281.634L145.177 280.51Z" fill="#9497A1"/>
<path d="M307.473 230.479L309.158 229.355L271.532 207.431V209.68L307.473 230.479Z" fill="#DBDCE0"/>
<path d="M98.005 253.525L224.36 180.446L259.739 200.683L258.054 201.808L224.36 182.695L100.251 254.649L98.005 253.525Z" fill="#9497A1"/>
<path d="M185.611 306.929L186.173 307.491L231.66 333.911L368.685 254.087L320.39 225.98L183.365 305.804L185.611 306.929ZM320.951 233.85L356.892 254.649L230.537 327.728L196.843 308.053L194.596 306.929L320.951 233.85Z" fill="#F4F5FA"/>
<path d="M92.9508 254.088L135.069 278.261L272.094 198.436L223.798 170.329L86.7734 250.153L92.9508 254.088ZM259.739 198.436L133.384 271.515L101.936 253.526L99.6897 252.402L98.005 250.716L224.36 177.637L259.739 198.436Z" fill="#F4F5FA"/>
<path d="M98.005 250.714L224.36 177.636L98.005 250.714Z" fill="#62A6BD"/>
<path d="M194.596 306.929L320.951 233.851L356.331 254.088L354.646 255.212L320.951 236.099L196.843 308.053L194.596 306.929Z" fill="#9497A1"/>
<path d="M354.646 255.212L356.331 254.088L320.951 233.851V236.099L354.646 255.212Z" fill="#DBDCE0"/>
<path d="M98.005 250.714L224.36 177.636L259.739 198.435L258.054 199.559L224.36 180.446L100.251 252.401L98.005 250.714Z" fill="#9497A1"/>
<path d="M258.054 199.559L259.739 198.435L224.36 177.636V180.446L258.054 199.559Z" fill="#DBDCE0"/>
<path d="M100.251 252.401L224.36 180.446L258.054 199.559L255.808 200.683L224.36 182.695L101.936 253.525L100.251 252.401Z" fill="#9497A1"/>
<path d="M147.424 281.634L271.532 209.679L307.473 230.478L305.227 231.603L271.532 212.49L149.108 282.758L147.424 281.634Z" fill="#9497A1"/>
<path d="M196.843 308.055L320.951 236.101L354.646 255.213L352.399 256.9L320.951 238.349L198.527 309.179L196.843 308.055Z" fill="#9497A1"/>
<path d="M231.66 336.162V333.913L183.365 305.806V308.617L231.66 336.162Z" fill="#DBDCE0"/>
<path d="M201.897 237.787H203.02L213.128 231.603V231.041L210.882 229.354L209.759 229.917L201.897 237.787Z" fill="#C5C7CF"/>
<path d="M201.897 237.787V237.225L199.089 235.538V236.1L201.897 237.787Z" fill="#C5C7CF"/>
<path d="M212.005 231.04L201.897 237.224L199.089 235.537L209.759 229.354L212.005 231.04Z" fill="#FDFDFE"/>
<path d="M201.897 237.785V237.223L212.005 231.04V231.602L201.897 237.785Z" fill="#9497A1"/>
<path d="M205.828 233.853L207.512 233.291V231.042L205.828 231.604V233.853Z" fill="#9497A1"/>
<path d="M205.828 231.603L207.512 231.041L205.828 229.917L204.143 231.041L205.828 231.603Z" fill="#A21B00"/>
<path d="M205.828 231.604V233.853L204.143 233.291V231.042L205.828 231.604Z" fill="#C5C7CF"/>
<path d="M196.281 224.856L197.966 223.732L207.513 229.353L205.828 229.916L196.281 224.856Z" fill="#FDFDFE"/>
<path d="M205.828 229.916L207.513 229.354V231.04L205.828 232.164V229.916Z" fill="#9497A1"/>
<path d="M205.828 229.916L196.281 224.857V226.543L205.828 232.165V229.916Z" fill="#C5C7CF"/>
<path d="M255.808 268.703H256.931L267.601 262.519V261.957L264.793 260.833H263.67L255.808 268.703Z" fill="#C5C7CF"/>
<path d="M255.808 268.702V268.14L253 266.454V267.578L255.808 268.702Z" fill="#C5C7CF"/>
<path d="M266.478 261.956L255.808 268.139L253 266.453L263.67 260.832L266.478 261.956Z" fill="#FDFDFE"/>
<path d="M255.808 268.703V268.141L266.478 261.958V263.082L255.808 268.703Z" fill="#9497A1"/>
<path d="M259.739 265.33L261.424 264.206V261.957L259.739 263.081V265.33Z" fill="#9497A1"/>
<path d="M259.739 263.081L261.424 261.957L259.739 261.395L258.616 261.957L259.739 263.081Z" fill="#A21B00"/>
<path d="M259.739 263.081V265.33L258.616 264.206V261.957L259.739 263.081Z" fill="#C5C7CF"/>
<path d="M258.054 260.271L259.739 259.147L269.286 264.768L267.601 265.893L258.054 260.271Z" fill="#FDFDFE"/>
<path d="M267.601 265.893L269.286 264.769V266.455L267.601 267.579V265.893Z" fill="#9497A1"/>
<path d="M267.601 265.893L258.054 260.272V262.521L267.601 267.58V265.893Z" fill="#C5C7CF"/>
<path d="M233.345 232.162H230.537C228.852 229.913 226.606 228.227 223.798 225.978C210.882 218.67 190.104 218.67 177.749 225.978C174.941 227.664 172.695 229.351 171.01 231.599H168.202V239.469C168.202 244.529 171.572 249.026 177.749 252.961C190.665 260.269 211.444 260.269 223.798 252.961C229.976 249.026 233.345 244.529 233.345 239.469V232.162Z" fill="#736D6A"/>
<path d="M223.798 245.654C210.882 252.962 190.104 252.962 177.749 245.654C164.833 238.346 164.833 226.541 177.749 218.671C190.665 211.363 211.444 211.363 223.798 218.671C236.715 226.541 236.715 238.346 223.798 245.654Z" fill="#D6D6D6"/>
<path d="M220.429 227.103H218.744C217.621 225.979 216.498 224.855 214.813 223.73C206.951 219.233 194.596 219.233 187.296 223.73C185.611 224.855 184.488 225.979 183.365 227.103H181.68V231.6C181.68 234.411 183.365 237.222 187.296 239.47C195.158 243.967 207.512 243.967 214.813 239.47C218.744 237.222 220.429 234.411 220.429 231.6V227.103Z" fill="#736D6A"/>
<path d="M214.813 234.974C206.951 239.471 194.596 239.471 187.296 234.974C179.434 230.477 179.434 223.169 187.296 219.234C195.158 214.737 207.513 214.737 214.813 219.234C222.114 223.169 222.114 230.477 214.813 234.974Z" fill="#E7E7E7"/>
<path d="M181.68 219.234L173.818 223.731V191.689L181.68 187.192V219.234Z" fill="#E8E8E8"/>
<path d="M167.641 219.794L173.818 223.729V191.687L167.641 187.752V219.794Z" fill="#8C8782"/>
<path d="M181.68 187.19L173.818 191.688L170.448 189.439L167.641 187.753L170.448 186.066L174.941 183.255L181.68 187.19Z" fill="#F7F7F6"/>
<path d="M125.522 235.534L131.7 238.907L278.271 158.521L272.656 155.148L125.522 235.534Z" fill="#FCCC45"/>
<path d="M131.7 238.908V243.405L278.271 163.581V158.521L131.7 238.908Z" fill="#A64900"/>
<path d="M125.522 235.533V240.592L131.7 243.403V238.906L125.522 235.533Z" fill="#CE7400"/>
<path d="M272.094 160.209L261.985 166.393V154.026L272.094 148.404V160.209Z" fill="#E8E8E8"/>
<path d="M164.271 109.617L261.985 166.393V154.026L164.271 97.8115V109.617Z" fill="#8C8782"/>
<path d="M272.094 148.404L261.985 154.025L169.887 100.622L164.271 97.811L169.887 94.4382L174.379 91.6274L272.094 148.404Z" fill="#F7F7F6"/>
<path d="M129.453 198.998L141.246 205.182L248.508 146.719L237.276 139.973L129.453 198.998Z" fill="#F7F7F6"/>
<path d="M141.246 205.183V214.177L248.508 155.715V146.72L141.246 205.183Z" fill="#E8E8E8"/>
<path d="M129.453 198.999V207.993L141.246 214.176V205.182L129.453 198.999Z" fill="#CE7400"/>
<path d="M160.902 219.796L150.793 225.417V213.612L160.902 207.429V219.796Z" fill="#E8E8E8"/>
<path d="M53.0789 169.203L150.793 225.417V213.612L53.0789 156.835V169.203Z" fill="#8C8782"/>
<path d="M160.902 207.429L150.793 213.613L58.1331 160.209L53.0789 156.836L58.1331 154.026L63.1872 151.215L160.902 207.429Z" fill="#F7F7F6"/>
<path d="M209.197 227.105L201.335 231.04V198.998L209.197 194.501V227.105Z" fill="#E8E8E8"/>
<path d="M195.158 227.668L201.335 231.041V198.999L195.158 195.064V227.668Z" fill="#8C8782"/>
<path d="M209.197 194.5L201.335 198.997L197.966 196.749L195.158 195.062L197.404 193.938L202.458 191.127L209.197 194.5Z" fill="#F7F7F6"/>
<path d="M215.936 201.809L200.774 210.804V186.631L215.936 178.199V201.809Z" fill="#E8E8E8"/>
<path d="M165.394 190.005L200.774 210.804V186.632L165.394 166.395V190.005Z" fill="#8C8782"/>
<path d="M215.936 178.198L200.774 186.63L170.448 169.203L165.394 166.393L170.448 163.02L179.995 157.398L215.936 178.198Z" fill="#F7F7F6"/>
<path d="M195.719 172.014L187.857 176.511V164.706L195.719 160.209V172.014Z" fill="#E8E8E8"/>
<path d="M181.68 172.575L187.857 176.51V164.705L181.68 160.77V172.575Z" fill="#8C8782"/>
<path d="M195.719 160.208L187.857 164.706L184.488 162.457L181.68 160.771L183.926 159.084L188.98 156.273L195.719 160.208Z" fill="#F7F7F6"/>
<path d="M125.522 186.63L131.7 190.003L278.271 109.617L272.656 106.244L125.522 186.63Z" fill="#FCCC45"/>
<path d="M131.7 190.004V194.501L278.271 114.114V109.617L131.7 190.004Z" fill="#A64900"/>
<path d="M125.522 186.628V191.126L131.7 194.498V190.001L125.522 186.628Z" fill="#CE7400"/>
<path d="M198.527 165.268L188.419 170.89V159.085L198.527 153.463V165.268Z" fill="#E8E8E8"/>
<path d="M167.641 159.084L188.419 170.889V159.084L167.641 147.279V159.084Z" fill="#8C8782"/>
<path d="M198.527 153.462L188.419 159.084L172.695 150.09L167.641 147.279L172.695 143.906L177.749 141.095L198.527 153.462Z" fill="#F7F7F6"/>
</svg>
