<svg width="381" height="352" viewBox="0 0 381 352" fill="none" xmlns="http://www.w3.org/2000/svg">
<path d="M132.424 139.451L13.6243 207.885L262.2 351.531L381 283.097L132.424 139.451Z" fill="#ACB5B4"/>
<path d="M154.699 224.025L222.169 263.084V288.586L154.699 249.849V224.025Z" fill="#1D1309"/>
<path d="M209.256 290.522L221.201 281.161L257.358 306.662L259.617 278.579L229.595 261.147H218.296L206.351 269.863L209.256 290.522Z" fill="#1D1309"/>
<path d="M165.998 255.66L211.839 282.13V260.825L165.998 234.678V255.66Z" fill="#1D1309"/>
<path d="M48.4897 186.579L60.7571 207.883L62.6941 211.112L75.9299 231.125C75.9299 231.125 83.0321 226.929 88.5201 223.701C89.1658 223.378 89.4886 223.055 90.1343 222.732C93.0397 220.796 94.9767 216.599 94.9767 211.112C94.9767 209.498 94.9767 208.206 94.6538 206.592C93.6854 201.427 91.7484 196.263 88.843 191.421C85.6147 186.256 81.418 181.737 76.5756 179.154C72.056 176.572 67.8593 175.926 64.631 177.217C63.9854 177.54 63.3397 177.863 62.6941 178.509C57.5289 181.414 48.4897 186.579 48.4897 186.579Z" fill="#151B1F"/>
<path d="M58.4971 208.85L62.371 211.11L74.6384 218.211L94.6536 206.591C93.6851 201.426 91.7481 196.261 88.8427 191.419L60.7569 207.559L58.4971 208.85Z" fill="#151B1F"/>
<path d="M93.0396 212.403C93.0396 200.782 84.6461 186.256 74.3157 180.445L93.0396 212.403Z" fill="#151B1F"/>
<path d="M72.7015 181.412C67.2134 178.184 62.3711 178.184 58.82 180.444C58.82 180.444 58.4971 180.767 58.1743 180.767C61.4026 179.153 65.9221 179.475 70.7645 182.381C81.0949 188.191 89.4884 202.717 89.4884 214.338C89.4884 219.826 87.5515 223.699 84.646 225.636C84.9689 225.313 85.6145 224.99 85.9373 224.99C89.1656 223.054 91.4254 218.857 91.4254 213.047C91.4254 201.426 83.0319 187.223 72.7015 181.412Z" fill="#242726"/>
<path d="M69.4735 183.352C63.9854 180.124 59.143 180.124 55.5919 182.383C55.5919 182.383 55.2691 182.706 54.9463 182.706C58.1745 181.092 62.6941 181.415 67.5365 184.32C77.8669 190.13 86.2604 204.657 86.2604 216.277C86.2604 221.765 84.3234 225.639 81.418 227.575C81.7408 227.253 82.3865 226.93 82.7093 226.93C85.9376 224.993 88.1974 220.797 88.1974 214.986C87.8745 203.365 79.4811 189.162 69.4735 183.352Z" fill="#242726"/>
<path d="M65.9222 185.286C60.4341 182.058 55.5918 182.058 52.0407 184.318C52.0407 184.318 51.7178 184.641 51.395 184.641C54.6233 183.027 59.1428 183.349 63.9852 186.255C74.3157 192.065 82.7091 206.591 82.7091 218.212C82.7091 223.7 80.7722 227.573 77.8667 229.51C78.1896 229.187 78.8352 228.864 79.158 228.864C82.3863 226.928 84.6461 222.731 84.6461 216.921C84.6461 205.3 76.2526 191.097 65.9222 185.286Z" fill="#242726"/>
<path d="M43.6475 197.876C43.6475 209.497 52.0409 224.023 62.3714 229.834C72.7018 235.644 81.0953 231.125 81.0953 219.181C81.0953 207.56 72.7018 193.034 62.3714 187.224C52.0409 181.413 43.6475 186.255 43.6475 197.876Z" fill="#585B5D"/>
<path d="M44.293 198.846C44.293 210.466 52.3636 224.347 62.3712 230.157C72.3788 235.968 80.4495 231.449 80.4495 219.828C80.4495 208.207 72.3788 194.326 62.3712 188.516C52.3636 182.383 44.293 187.225 44.293 198.846Z" fill="#3A3E40"/>
<path d="M61.7255 229.19C72.056 235 80.4494 230.481 80.4494 218.538C80.4494 211.113 76.8984 202.397 71.7331 195.619C77.2212 202.397 80.7723 211.436 80.7723 219.183C80.7723 230.804 72.3788 235.646 62.0484 229.836C58.4973 227.576 54.9462 224.671 52.0408 220.797C54.9462 224.348 58.1745 227.253 61.7255 229.19Z" fill="#151B1F"/>
<path d="M47.1987 200.137C47.1987 209.498 53.9781 221.119 62.0487 225.961C70.4422 230.803 76.8987 226.929 76.8987 217.568C76.8987 208.207 70.1194 196.586 62.0487 191.744C53.9781 186.902 47.1987 190.776 47.1987 200.137Z" fill="#575E66"/>
<path d="M50.7493 202.074C50.7493 209.176 55.9145 218.214 62.0482 221.765C68.5047 225.316 73.3471 222.411 73.3471 215.309C73.3471 208.207 68.1819 199.169 62.0482 195.618C55.9145 192.067 50.7493 194.972 50.7493 202.074Z" fill="#6C7277"/>
<path d="M50.7493 202.074C50.7493 209.176 55.9145 218.214 62.0482 221.765C68.5047 225.316 73.3471 222.411 73.3471 215.309C73.3471 208.207 68.1819 199.169 62.0482 195.618C55.9145 192.067 50.7493 194.972 50.7493 202.074ZM52.0406 202.397C52.0406 195.618 56.883 193.036 62.6938 196.264C68.5047 199.492 73.3471 207.884 73.3471 214.663C73.3471 221.442 68.5047 224.025 62.6938 220.797C56.883 217.568 52.0406 209.176 52.0406 202.397Z" fill="#A5A9B2"/>
<path d="M53.9778 203.043C53.9778 208.853 58.1745 216.278 63.3397 219.183C68.1821 222.088 72.056 220.151 72.7017 214.986C72.7017 214.664 72.7017 214.018 72.7017 213.695C72.7017 209.822 70.7647 204.98 67.8593 201.429C66.568 199.815 64.9539 198.201 63.3397 197.232C58.1745 194.65 53.9778 196.909 53.9778 203.043Z" fill="#2C3D4F"/>
<path d="M64.3083 199.812C61.0801 197.876 57.2061 197.876 54.6235 199.49C55.9148 195.939 59.4659 194.97 63.3398 197.553C67.2137 199.812 70.7648 204.654 72.0561 209.496C70.442 205.623 67.5366 201.749 64.3083 199.812Z" fill="#0F2237"/>
<path d="M58.8203 204.334C58.8203 208.854 62.0486 214.341 65.9225 216.601C69.1507 218.215 71.7333 217.569 72.7018 214.987C72.7018 214.664 72.7018 214.018 72.7018 213.696C72.7018 209.822 70.7649 204.98 67.8594 201.429C67.2138 200.784 66.5681 200.461 65.9225 199.815C62.0486 197.878 58.8203 199.815 58.8203 204.334Z" fill="#260E08"/>
<path d="M71.4107 210.467V210.79C71.4107 211.759 71.0879 212.404 70.765 213.05C69.7966 214.987 67.8596 215.31 65.277 214.018C62.0487 212.082 59.1433 207.562 59.1433 203.689C59.1433 201.752 59.789 200.138 61.0803 199.815C62.0487 199.492 63.0172 199.492 63.9857 200.138C64.3085 200.138 64.6313 200.461 64.9542 200.461C67.5368 202.075 69.7966 204.98 70.4422 208.208C70.765 208.853 70.765 209.499 70.765 210.145C71.4107 209.822 71.4107 210.145 71.4107 210.467Z" fill="#3D454B"/>
<path d="M71.0877 210.789V211.112C71.0877 212.08 70.7649 212.726 70.442 213.371C69.4736 215.308 67.5366 215.631 64.954 214.34C61.7257 212.403 58.8203 207.884 58.8203 204.01C58.8203 202.073 59.466 200.459 60.7573 200.136C61.7257 199.814 62.6942 199.814 63.6627 200.459C63.9855 200.459 64.3083 200.782 64.6312 200.782C67.2138 202.396 69.4736 205.301 70.1192 208.529C70.442 209.175 70.442 209.82 70.442 210.466C71.0877 210.143 71.0877 210.466 71.0877 210.789Z" fill="#7E8386"/>
<path d="M67.5368 208.852L69.1509 211.757L67.8596 212.726L62.3716 202.073L63.3401 201.428L67.5368 208.852Z" fill="#3D454B"/>
<path d="M65.2766 207.561L67.8592 212.726L66.5679 213.049L61.0798 203.042L62.3711 202.074L65.2766 207.561Z" fill="#C6C9CA"/>
<path d="M69.151 207.884C69.151 208.53 68.8282 209.176 68.5054 209.498C67.8597 209.821 66.8912 210.467 66.8912 210.467L63.0173 203.688C63.0173 203.688 63.9858 203.365 64.3086 202.72C64.9543 202.397 65.5999 202.397 66.5684 202.72C67.8597 204.011 69.151 206.27 69.151 207.884Z" fill="#6C7277"/>
<path d="M67.5367 208.852C67.5367 210.466 66.2454 211.435 64.6313 210.466C63.0171 209.498 61.7258 207.561 61.7258 205.624C61.7258 203.688 63.0171 203.042 64.6313 204.01C66.2454 204.979 67.5367 207.238 67.5367 208.852Z" fill="#C6C9CA"/>
<path d="M65.9227 207.882C65.9227 208.205 65.9227 208.528 65.5999 208.528C65.277 208.85 64.9542 208.85 64.9542 208.85L63.3401 205.945C63.3401 205.945 63.6629 205.622 63.9857 205.622C64.3086 205.3 64.6314 205.3 64.9542 205.622C65.5999 206.268 65.9227 207.236 65.9227 207.882Z" fill="#6C7277"/>
<path d="M65.2769 208.529C65.2769 209.174 64.6313 209.497 63.9856 209.174C63.34 208.852 62.6943 207.883 62.6943 207.238C62.6943 206.592 63.34 206.269 63.9856 206.592C64.9541 206.592 65.2769 207.56 65.2769 208.529Z" fill="#D6D8D9"/>
<path d="M217.005 283.421L229.272 304.726L231.209 307.954L244.445 327.967C244.445 327.967 251.547 323.771 257.035 320.543C257.681 320.22 258.004 319.897 258.649 319.575C261.555 317.638 263.492 313.441 263.492 307.954C263.492 306.34 263.492 305.049 263.169 303.435C262.2 298.27 260.263 293.105 257.358 288.263C254.13 283.098 249.933 278.579 245.091 275.996C240.571 273.414 236.374 272.768 233.146 274.06C232.5 274.382 231.855 274.705 231.209 275.351C226.044 278.579 217.005 283.421 217.005 283.421Z" fill="#151B1F"/>
<path d="M227.335 306.018L231.209 308.278L243.476 315.379L263.491 303.759C262.523 298.594 260.586 293.429 257.681 288.587L229.595 304.727L227.335 306.018Z" fill="#151B1F"/>
<path d="M261.555 309.568C261.555 297.947 253.161 283.421 242.831 277.611L261.555 309.568Z" fill="#242726"/>
<path d="M241.217 278.255C235.729 275.027 230.886 275.027 227.335 277.287C227.335 277.287 227.013 277.609 226.69 277.609C229.918 275.995 234.438 276.318 239.28 279.223C249.61 285.034 258.004 299.56 258.004 311.181C258.004 316.668 256.067 320.542 253.161 322.479C253.484 322.156 254.13 321.833 254.453 321.833C257.681 319.896 259.941 315.7 259.941 309.889C259.941 298.591 251.547 284.388 241.217 278.255Z" fill="#242726"/>
<path d="M237.989 280.194C232.501 276.966 227.658 276.966 224.107 279.226C224.107 279.226 223.784 279.549 223.461 279.549C226.69 277.935 231.209 278.258 236.052 281.163C246.382 286.973 254.776 301.499 254.776 313.12C254.776 318.608 252.839 322.481 249.933 324.418C250.256 324.095 250.902 323.773 251.224 323.773C254.453 321.836 256.712 317.639 256.712 311.829C256.712 300.531 248.319 286.328 237.989 280.194Z" fill="#242726"/>
<path d="M234.76 282.13C229.272 278.902 224.43 278.902 220.879 281.162C220.879 281.162 220.556 281.484 220.233 281.484C223.461 279.87 227.981 280.193 232.823 283.098C243.154 288.909 251.547 303.435 251.547 315.056C251.547 320.543 249.61 324.417 246.705 326.354C247.028 326.031 247.673 325.708 247.996 325.708C251.224 323.771 253.484 319.575 253.484 313.764C253.161 302.466 244.768 288.263 234.76 282.13Z" fill="#242726"/>
<path d="M212.485 295.043C212.485 306.664 220.878 321.19 231.209 327C241.539 332.81 249.933 328.291 249.933 316.348C249.933 304.404 241.539 290.201 231.209 284.39C220.556 278.58 212.485 283.422 212.485 295.043Z" fill="#585B5D"/>
<path d="M212.808 295.687C212.808 307.308 220.878 321.188 230.886 326.998C240.893 332.809 248.964 328.29 248.964 316.669C248.964 305.048 240.893 291.167 230.886 285.357C220.878 279.547 212.808 284.389 212.808 295.687Z" fill="#3A3E40"/>
<path d="M230.24 326.354C240.571 332.164 248.964 327.645 248.964 315.701C248.964 308.277 245.413 299.561 240.248 292.782C245.736 299.561 249.287 308.599 249.287 316.347C249.287 327.968 240.893 332.81 230.563 326.999C227.012 324.74 223.461 321.834 220.555 317.961C223.784 321.512 227.012 324.417 230.24 326.354Z" fill="#242726"/>
<path d="M216.036 297.301C216.036 306.662 222.815 318.283 230.886 323.125C239.28 327.967 245.736 324.093 245.736 314.732C245.736 305.371 238.957 293.75 230.886 288.908C222.493 283.743 216.036 287.617 216.036 297.301Z" fill="#575E66"/>
<path d="M219.587 299.237C219.587 306.339 224.752 315.377 230.886 318.928C237.342 322.479 242.184 319.573 242.184 312.472C242.184 305.37 237.019 296.332 230.886 292.781C224.752 288.907 219.587 291.813 219.587 299.237Z" fill="#6C7277"/>
<path d="M219.587 299.237C219.587 306.339 224.752 315.377 230.886 318.928C237.342 322.479 242.184 319.573 242.184 312.472C242.184 305.37 237.019 296.332 230.886 292.781C224.752 288.907 219.587 291.813 219.587 299.237ZM220.555 299.56C220.555 292.781 225.398 290.199 231.208 293.427C237.019 296.655 241.862 305.047 241.862 311.826C241.862 318.605 237.019 321.187 231.208 317.959C225.398 314.409 220.555 306.339 220.555 299.56Z" fill="#A5A9B2"/>
<path d="M222.815 299.884C222.815 305.694 227.012 313.119 232.177 316.024C237.02 318.929 240.893 316.992 241.539 311.827C241.539 311.505 241.539 310.859 241.539 310.536C241.539 306.663 239.602 301.821 236.697 298.27C235.405 296.656 233.791 295.042 232.177 294.073C227.012 291.491 222.815 294.073 222.815 299.884Z" fill="#2C3D4F"/>
<path d="M232.823 296.979C229.595 295.042 225.721 295.042 223.138 296.656C224.429 293.105 227.981 292.137 231.854 294.719C235.728 296.979 239.279 301.821 240.571 306.663C239.279 302.466 236.374 298.916 232.823 296.979Z" fill="#0F2237"/>
<path d="M227.658 301.175C227.658 305.694 230.886 311.181 234.76 313.441C237.988 315.055 240.571 314.409 241.539 311.827C241.539 311.504 241.539 310.859 241.539 310.536C241.539 306.662 239.602 301.82 236.697 298.269C236.051 297.624 235.406 297.301 234.76 296.655C230.886 295.041 227.658 296.655 227.658 301.175Z" fill="#260E08"/>
<path d="M240.248 307.631V307.954C240.248 308.922 239.925 309.568 239.602 310.213C238.634 312.15 236.697 312.473 234.114 311.182C230.886 309.245 227.981 304.726 227.981 300.852C227.981 298.915 228.626 297.301 229.918 296.979C230.886 296.656 231.855 296.656 232.823 297.301C233.146 297.301 233.469 297.624 233.792 297.624C236.374 299.238 238.634 302.143 239.28 305.371C239.602 306.017 239.602 306.663 239.602 307.308C239.925 306.985 240.248 307.308 240.248 307.631Z" fill="#3D454B"/>
<path d="M239.602 307.953V308.276C239.602 309.244 239.279 309.89 238.956 310.535C237.988 312.472 236.051 312.795 233.468 311.504C230.24 309.567 227.335 305.048 227.335 301.174C227.335 299.237 227.98 297.623 229.272 297.3C230.24 296.978 231.209 296.978 232.177 297.623C232.5 297.623 232.823 297.946 233.146 297.946C235.728 299.56 237.988 302.465 238.634 305.693C238.956 306.339 238.956 306.984 238.956 307.63C239.602 307.307 239.602 307.63 239.602 307.953Z" fill="#7E8386"/>
<path d="M236.051 306.017L237.665 308.922L236.374 309.568L230.886 299.238L232.177 298.593L236.051 306.017Z" fill="#3D454B"/>
<path d="M234.114 304.727L236.374 309.569L235.405 310.215L229.917 299.885L230.886 299.24L234.114 304.727Z" fill="#C6C9CA"/>
<path d="M237.665 305.048C237.665 305.694 237.342 306.34 237.02 306.662C236.374 306.985 235.405 307.631 235.405 307.631L231.531 300.852C231.531 300.852 232.5 300.529 232.823 300.206C233.468 299.884 234.114 299.884 235.083 300.206C236.374 301.175 237.665 303.112 237.665 305.048Z" fill="#6C7277"/>
<path d="M236.051 306.017C236.051 307.631 234.76 308.599 233.146 307.631C231.532 306.663 230.24 304.726 230.24 302.789C230.24 300.852 231.532 300.206 233.146 301.175C234.76 302.143 236.051 304.08 236.051 306.017Z" fill="#C6C9CA"/>
<path d="M234.76 305.05C234.76 305.372 234.76 305.695 234.437 305.695C234.114 306.018 233.791 306.018 233.791 306.018L231.854 303.436C231.854 303.436 232.177 303.113 232.5 303.113C232.823 302.79 233.146 302.79 233.469 303.113C234.114 303.436 234.76 304.404 234.76 305.05Z" fill="#6C7277"/>
<path d="M234.114 305.372C234.114 306.017 233.468 306.34 232.823 306.017C232.177 305.694 231.531 304.726 231.531 304.08C231.531 303.435 232.177 303.112 232.823 303.435C233.468 303.758 234.114 304.726 234.114 305.372Z" fill="#D6D8D9"/>
<path d="M21.3723 177.217L42.356 165.273V160.108L21.3723 172.052V177.217Z" fill="#150B01"/>
<path d="M102.713 50.8062L13.9653 103.937L37.5789 132.076L102.713 93.9008V50.8062Z" fill="#E0E4EA"/>
<path d="M104.177 50.8457L288.51 157.37V198.361L104.177 91.8368V50.8457Z" fill="#C0C8D4"/>
<path d="M21.3723 172.052L0.388672 160.108L36.868 139.772L57.8517 151.716L21.3723 172.052Z" fill="#787879"/>
<path d="M14.2703 170.118L21.6953 174.314L38.805 170.764V165.599L14.2703 151.396V170.118Z" fill="#2D241B"/>
<path d="M58.1743 166.889L175.683 234.677V250.172L58.1743 182.384V166.889Z" fill="#2D241B"/>
<path d="M105.307 91.998L13.6243 144.937L197.958 251.462L289.64 198.522L105.307 91.998Z" fill="#787879"/>
<path d="M105.307 91.998L282.861 198.522L197.958 246.943L13.6243 144.937L197.958 251.462L289.64 198.522L105.307 91.998Z" fill="#878787"/>
<path d="M102.079 127.184V132.995L230.564 207.562V202.074L102.079 127.184Z" fill="#D24827"/>
<path d="M230.563 202.073V207.561L238.311 203.365V197.554L230.563 202.073Z" fill="#A21B00"/>
<path d="M230.564 202.075L102.079 127.185L109.504 122.989L238.311 197.556L230.564 202.075Z" fill="#F27B5A"/>
<path d="M212.162 65.5287L251.224 178.186L245.413 174.958L207.965 62.9463L207.32 62.6235L212.162 65.2059V65.5287Z" fill="#FF9C1A"/>
<path d="M107.567 4.84218L146.306 117.823L140.818 114.595L103.048 2.25977H102.725L107.244 4.84218H107.567Z" fill="#FF9C1A"/>
<path d="M157.605 33.894L196.344 146.552L190.856 143.324L153.085 31.3116L152.762 30.9888L157.282 33.5712L157.605 33.894Z" fill="#FF9C1A"/>
<path d="M94.6531 2.25961L96.9129 127.184V131.703L214.099 201.105L218.618 198.846V68.7567L99.1726 0L94.6531 2.25961ZM101.432 9.36124L158.895 42.6098V47.7746L168.903 53.585V166.243L158.895 160.432V162.369L135.652 148.811L134.038 147.843L132.424 146.875L129.195 144.938L101.432 129.12V9.36124ZM203.768 188.193L176.328 172.376V59.7182L177.942 60.6866L204.091 75.8583V188.193H203.768Z" fill="#7B7F8B"/>
<path d="M94.6533 2.26074V132.35L214.099 201.106V71.3402L94.6533 2.26074ZM101.433 16.464L103.047 17.4324L104.661 18.4008L129.196 32.6041V145.262L101.433 129.122V16.464ZM203.768 188.194L176.328 172.377V59.7194L177.942 60.6878L204.091 75.8594V188.194H203.768ZM168.903 166.244L158.896 160.433L139.526 149.135V36.8005L158.896 48.0985L168.903 53.9089V166.244Z" fill="#C5C7CF"/>
<path d="M139.526 45.5165V36.8008L158.896 47.7761L168.903 53.5865V158.497L171.486 167.858L172.777 173.991L173.423 173.669V51.3269L158.896 42.9341L135.975 29.6992L135.652 30.022L139.526 45.5165Z" fill="#9497A1"/>
<path d="M173.423 51.3269L172.777 51.6497L135.652 30.022L135.975 29.6992L173.423 51.3269Z" fill="#DBDCE0"/>
<path d="M135.652 30.0215V152.363L171.486 173.022L173.1 173.991V51.6492L159.219 43.5791L135.652 30.0215ZM168.903 166.244L158.896 160.433L139.526 149.135V36.8003L158.896 48.0984L168.903 53.9088V166.244Z" fill="#E8E9F0"/>
<path d="M171.486 52.2945L172.778 58.4278L173.423 60.0418L176.329 71.017V59.719L177.943 60.6874L203.769 75.5362V177.864L205.383 183.675L208.611 196.587L210.225 195.618V72.9538L173.423 51.6489H172.778L171.486 52.2945Z" fill="#9497A1"/>
<path d="M177.943 58.751V60.6878L203.769 75.5366V186.257L205.383 187.226V74.5682L177.943 58.751Z" fill="#FFFEFF"/>
<path d="M96.5903 9.36196L101.433 28.0844V16.4636L103.047 17.432L104.661 18.4004L129.196 32.6036V134.609L130.81 140.742L132.424 146.875L134.038 153.331L135.652 152.363V30.0212L101.433 10.3304L98.2045 8.39355L96.5903 9.36196Z" fill="#9497A1"/>
<path d="M135.652 30.0212L134.038 30.9896L96.5903 9.36196L98.2045 8.39355L135.652 30.0212Z" fill="#DBDCE0"/>
<path d="M103.047 15.4961V17.4329L104.661 18.4013L129.196 32.6046V143.325L130.81 144.294V31.6362L103.047 15.4961Z" fill="#FFFEFF"/>
<path d="M177.942 58.7515V171.409L205.383 187.226V185.29L179.234 170.441V59.7199L177.942 58.7515Z" fill="#9497A1"/>
<path d="M139.526 36.8013V149.136L168.903 166.245V164.308L141.14 148.49V37.7697L139.526 36.8013Z" fill="#9497A1"/>
<path d="M168.903 164.307V166.244L139.526 149.135L141.14 148.49L168.903 164.307Z" fill="#DBDCE0"/>
<path d="M103.047 15.4966V128.154L130.81 143.971V142.357L104.661 127.186V16.465L103.047 15.4966Z" fill="#9497A1"/>
<path d="M171.486 52.2959V174.638L208.934 196.265V73.9236L173.746 53.5871L173.423 53.2643L171.486 52.2959ZM176.328 59.7203L177.942 60.6887L204.091 75.8604V188.518L176.651 172.701V59.7203H176.328Z" fill="#F4F5FA"/>
<path d="M85.937 136.545V142.356L214.422 216.923V211.435L85.937 136.545Z" fill="#D24827"/>
<path d="M214.422 211.435V216.922L222.17 212.726V206.916L214.422 211.435Z" fill="#A21B00"/>
<path d="M214.422 211.436L85.9373 136.547L93.6851 132.35L222.17 206.917L214.422 211.436Z" fill="#F27B5A"/>
<path d="M96.5903 9.36377V131.705L133.715 153.333V30.9915L101.433 12.269L96.5903 9.36377ZM101.433 129.123V16.4654L103.047 17.4338L104.661 18.4022L129.196 32.6055V145.263L101.433 129.123Z" fill="#F4F5FA"/>
<path d="M176.328 59.7212V172.056L203.768 188.196V186.259L177.942 171.41V60.6896L176.328 59.7212Z" fill="#9497A1"/>
<path d="M203.768 186.259V188.196L176.328 172.056L177.942 171.41L203.768 186.259Z" fill="#DBDCE0"/>
<path d="M101.433 16.4663V129.124L129.196 144.941V143.327L103.047 128.156V17.4347L101.433 16.4663Z" fill="#9497A1"/>
<path d="M129.196 143.325V144.939L101.433 129.122L103.047 128.153L129.196 143.325Z" fill="#DBDCE0"/>
<path d="M103.047 17.4321V128.153L129.196 143.325V141.388L104.661 127.185V18.4005L103.047 17.4321Z" fill="#9497A1"/>
<path d="M141.14 37.7686V148.489L168.903 164.307V162.37L142.754 147.521V38.4142L141.14 37.7686Z" fill="#9497A1"/>
<path d="M164.061 229.514L197.312 206.918L198.603 202.076L201.509 194.974L202.155 187.227L203.769 184.322L201.186 182.708L198.603 184.968L197.635 192.069L194.084 199.494L192.793 204.336L159.542 226.932L164.061 229.514Z" fill="#AAADB0"/>
<path d="M109.503 197.878L147.274 177.864L148.565 173.022L151.471 165.92L152.439 158.173L154.053 155.591L151.148 153.977L148.565 156.236L147.597 163.015L144.369 170.439L143.077 175.281L104.984 195.295L109.503 197.878Z" fill="#AAADB0"/>
<path d="M59.1425 168.828L99.1729 150.105L100.464 145.263L103.37 138.161L104.338 130.414L105.952 127.509L103.047 126.218L100.464 128.155L99.4958 135.256L96.2675 142.681L94.9762 147.523L54.9458 166.568L59.1425 168.828Z" fill="#AAADB0"/>
<path d="M177.943 60.6885V171.409L203.769 186.258V184.321L179.234 170.441V61.3341L177.943 60.6885Z" fill="#9497A1"/>
<path d="M210.225 72.9538L208.611 73.9222L171.486 52.2945L172.777 51.6489L210.225 72.9538Z" fill="#DBDCE0"/>
<path d="M133.069 91.0303L133.392 91.6759V101.037L132.747 101.36L131.132 100.392L130.81 99.4231L133.069 91.0303Z" fill="#C5C7CF"/>
<path d="M133.069 91.0295L132.424 91.3523L130.487 90.0611L130.81 89.7383L133.069 91.0295Z" fill="#C5C7CF"/>
<path d="M132.424 100.712V91.3508L130.487 90.0596V99.4208L132.424 100.712Z" fill="#FDFDFE"/>
<path d="M133.069 91.0303L132.424 91.3531V100.714L133.069 100.392V91.0303Z" fill="#9497A1"/>
<path d="M132.101 95.2261V96.5173L130.487 97.4857V96.1945L132.101 95.2261Z" fill="#9497A1"/>
<path d="M130.487 96.1935V97.4847L129.196 96.8391V95.5479L130.487 96.1935Z" fill="#A21B00"/>
<path d="M130.487 96.1941L132.101 95.2257L130.81 94.5801L129.196 95.5485L130.487 96.1941Z" fill="#C5C7CF"/>
<path d="M122.094 92.6411V93.9323L129.196 98.1287V96.8375L122.094 92.6411Z" fill="#FDFDFE"/>
<path d="M129.195 96.8371V98.1283L130.809 97.4827V95.8687L129.195 96.8371Z" fill="#9497A1"/>
<path d="M129.196 96.8386L122.094 92.6422L123.385 91.6738L130.81 95.8702L129.196 96.8386Z" fill="#C5C7CF"/>
<path d="M174.714 115.242L175.037 115.887V125.249L174.391 125.571L172.777 124.603L172.454 123.635L174.714 115.242Z" fill="#C5C7CF"/>
<path d="M174.715 115.24H174.069L172.132 114.272L172.455 113.949L174.715 115.24Z" fill="#C5C7CF"/>
<path d="M174.069 124.601V115.239L172.132 114.271V123.632L174.069 124.601Z" fill="#FDFDFE"/>
<path d="M174.714 115.242H174.069V124.603H174.714V115.242Z" fill="#9497A1"/>
<path d="M173.746 119.437V120.405L172.132 121.373V120.082L173.746 119.437Z" fill="#9497A1"/>
<path d="M172.132 120.083V121.374L171.164 120.729V119.438L172.132 120.083Z" fill="#A21B00"/>
<path d="M172.132 120.081L173.746 119.436L172.455 118.79L171.164 119.436L172.132 120.081Z" fill="#C5C7CF"/>
<path d="M169.872 120.083V121.698L176.974 125.894V124.28L169.872 120.083Z" fill="#FDFDFE"/>
<path d="M176.974 124.278V125.892L178.266 124.924V123.633L176.974 124.278Z" fill="#9497A1"/>
<path d="M176.974 124.28L169.872 120.084L171.163 119.438L178.266 123.634L176.974 124.28Z" fill="#C5C7CF"/>
<path d="M206.997 67.467L164.061 229.513L158.573 226.285L202.8 64.8846L207.32 62.625L212.162 65.2074L206.997 67.467Z" fill="#FF9C1A"/>
<path d="M152.44 35.8318L109.504 197.878L103.693 194.65L148.243 33.2494L152.762 30.9897L157.282 33.5722L152.44 35.8318Z" fill="#FF9C1A"/>
<path d="M102.401 7.10325L59.1428 168.827L53.6548 165.921L97.8819 4.52084L102.724 2.26123L107.244 4.84364L102.401 7.10325Z" fill="#FF9C1A"/>
<path d="M13.6243 144.939L197.958 251.464V258.243L13.6243 151.718V144.939Z" fill="#3D3B36"/>
<path d="M13.6243 104.094L197.958 210.618V251.609L13.6243 145.085V104.094Z" fill="#C0C8D4"/>
<path fill-rule="evenodd" clip-rule="evenodd" d="M81.5565 152.418L81.1301 152.163L81.0904 153.682L80.9319 153.587L80.9717 152.068L80.5457 151.813L80.5512 151.603L81.5742 152.216L81.5687 152.426L81.5565 152.418ZM38.8591 139.478L35.8265 137.662L32.8181 123.091L35.8508 124.907L38.8591 139.478ZM35.2419 137.312L32.2092 135.495L29.8415 123.862L32.8742 125.678L35.2419 137.312ZM31.5632 135.126L26.4113 132.041L29.2058 123.57L31.5632 135.126ZM29.1501 125.7C29.3335 126.563 29.7058 128.525 30.0453 130.315L30.0494 130.337C30.3405 131.872 30.607 133.276 30.7087 133.746L27.3228 131.718C27.424 131.426 27.6665 130.595 27.9487 129.628C28.3769 128.161 28.894 126.39 29.1501 125.7ZM40.7856 135.346C40.7029 138.507 41.978 141.31 44.1946 142.637C44.9619 143.097 45.7956 143.383 46.4328 143.144L46.5052 142.265C46.304 142.393 45.4272 142.808 44.3432 142.159C42.7599 141.21 41.6977 138.783 41.7703 136.007C41.8342 133.562 42.8038 131.961 44.6551 133.07C45.6903 133.69 46.4077 135.112 46.547 135.462L46.6205 135.488C46.6793 135.133 46.7498 134.803 46.8569 134.495C46.1857 133.667 45.437 132.971 44.7063 132.533C42.587 131.264 40.8705 132.098 40.7856 135.346ZM52.6971 147.534C52.6074 147.489 52.5259 147.449 52.4446 147.4C52.1839 146.02 51.8545 144.422 51.4869 142.872L48.9292 141.34C48.8792 141.478 48.829 141.615 48.7788 141.752C48.441 142.674 48.1036 143.596 47.8286 144.636L47.7473 144.577C47.64 144.499 47.5501 144.434 47.452 144.375C47.3828 144.333 47.3199 144.305 47.2602 144.279C47.2022 144.253 47.15 144.23 47.0979 144.198L50.5036 136.005L50.7351 136.143L53.492 148.027C53.3991 147.972 53.3128 147.911 53.2278 147.851C53.1458 147.793 53.0652 147.736 52.9815 147.686C52.8816 147.626 52.7877 147.579 52.6971 147.534ZM57.5646 146.52L57.5521 146.492C57.2341 145.769 56.9222 145.061 56.619 144.349L57.5283 143.634L59.8881 141.855C59.8195 141.814 59.7507 141.782 59.6835 141.751C59.6156 141.719 59.5551 141.691 59.4975 141.656C59.3618 141.575 59.2475 141.491 59.125 141.402L59.0964 141.381L56.5281 143.567C56.4844 143.597 56.4353 143.633 56.3831 143.672C56.2549 143.766 56.1077 143.873 55.974 143.945C55.8612 144.001 55.7258 143.973 55.7158 143.879L55.8323 139.426C55.7523 139.378 55.6782 139.343 55.6056 139.308C55.5335 139.274 55.4646 139.241 55.3929 139.198C55.2468 139.111 55.1011 139.006 54.9554 138.901L54.6974 148.767C54.7629 148.806 54.8346 148.841 54.9077 148.876C54.9845 148.913 55.0624 148.95 55.1367 148.995C55.2604 149.069 55.394 149.164 55.538 149.266L55.5743 149.292L55.7058 144.263C55.7076 144.193 55.8281 144.318 55.8755 144.4L57.9714 149.397C58.2162 149.969 58.424 150.537 58.6314 151.123C58.7212 151.176 58.8113 151.222 58.9029 151.268C58.9974 151.316 59.0935 151.364 59.1925 151.423C59.3368 151.51 59.4808 151.609 59.647 151.723L59.7397 151.786L59.7415 151.716L58.9634 149.778C58.5178 148.683 58.0409 147.601 57.5646 146.52ZM63.706 154.321C61.4894 152.994 60.2144 150.191 60.297 147.03C60.382 143.782 62.0984 142.948 64.2177 144.217C64.9484 144.654 65.6972 145.351 66.3683 146.179C66.2612 146.487 66.1907 146.817 66.132 147.172L66.0584 147.146C65.9192 146.796 65.2018 145.374 64.1665 144.754C62.3153 143.645 61.3456 145.246 61.2817 147.691C61.2091 150.467 62.2713 152.894 63.8546 153.842C64.9386 154.492 65.8154 154.077 66.0166 153.949L65.9442 154.828C65.307 155.067 64.4733 154.781 63.706 154.321ZM67.6174 148.079C67.7704 147.905 68.5389 147.372 69.5742 147.992C71.2672 149.006 72.1463 151.341 72.2234 153.604L69.4341 151.934C69.2894 151.847 69.1452 151.744 68.9994 151.639C68.8493 151.531 68.6997 151.423 68.5467 151.332C68.5453 151.382 68.5493 151.444 68.5535 151.508C68.5585 151.578 68.563 151.65 68.5614 151.713C68.5602 151.76 68.5537 151.811 68.5467 151.867C68.5385 151.937 68.5288 152.013 68.5266 152.1C68.6712 152.187 68.8163 152.256 68.9631 152.326C69.1178 152.401 69.2663 152.472 69.4176 152.563L72.2187 154.24C72.1466 156.999 70.9919 158.116 69.4083 157.168C68.3245 156.519 67.5083 155.09 67.3076 154.722L67.3326 155.659C67.9499 156.65 68.7607 157.348 69.5279 157.807C71.7445 159.135 73.1244 157.921 73.207 154.761C73.2915 151.53 71.6713 148.68 69.5524 147.411C68.8094 146.967 68.0478 146.759 67.367 146.777C67.4548 147.202 67.5057 147.622 67.5448 148.018L67.6174 148.079ZM77.3835 162.512C75.1669 161.184 73.8916 158.381 73.9743 155.22C74.0592 151.972 75.7758 151.138 77.8952 152.407C78.6259 152.845 79.3746 153.542 80.0458 154.369C79.9389 154.678 79.8681 155.008 79.8094 155.363L79.7356 155.336C79.597 154.987 78.8792 153.564 77.8436 152.944C75.993 151.836 75.0229 153.436 74.959 155.881C74.8864 158.657 75.9488 161.085 77.5323 162.033C78.6161 162.682 79.4926 162.267 79.694 162.139L79.6216 163.018C78.9721 163.25 78.139 162.964 77.3835 162.512ZM51.3562 142.19L49.1396 140.863L50.3321 137.835L51.3562 142.19ZM82.6735 154.63L82.832 154.725L82.8772 152.996L82.6579 152.865L82.3284 153.643L82.0366 152.493L81.8177 152.362L81.7725 154.091L81.9184 154.178L81.9573 152.694L82.2599 153.904L82.3572 153.962L82.7123 153.146L82.6735 154.63ZM26.3975 134.463L82.9485 168.327L82.9433 168.527L26.3923 134.662L26.3975 134.463Z" fill="#2057AC"/>
<path d="M26.5004 139.084L26.4261 141.924L26.1136 141.736L26.147 140.457L25.0479 139.799L25.0145 141.078L24.7004 140.89L24.7747 138.051L25.0887 138.239L25.0559 139.493L26.155 140.151L26.1878 138.897L26.5004 139.084ZM28.806 140.465L28.7318 143.304L28.4192 143.117L28.4703 141.164C28.4718 141.104 28.4744 141.043 28.4781 140.98C28.4818 140.915 28.4884 140.849 28.4981 140.783C28.4779 140.835 28.4573 140.882 28.4363 140.925C28.4153 140.967 28.3945 141.003 28.3738 141.034L27.3823 142.362C27.3667 142.386 27.3464 142.404 27.3212 142.417C27.297 142.431 27.2697 142.429 27.2394 142.411L27.0061 142.271L27.0803 139.432L27.3944 139.62L27.3433 141.573C27.3417 141.633 27.3386 141.694 27.334 141.758C27.3303 141.822 27.3241 141.888 27.3154 141.956C27.3346 141.903 27.3548 141.856 27.3757 141.814C27.3968 141.77 27.4176 141.733 27.4383 141.702L28.4313 140.375C28.4468 140.351 28.4667 140.332 28.4909 140.319C28.5151 140.305 28.5424 140.307 28.5727 140.325L28.806 140.465ZM32.1013 145.322L31.8944 145.198C31.8484 145.171 31.8091 145.134 31.7765 145.087C31.745 145.04 31.72 144.988 31.7017 144.93L31.2196 143.645C31.1936 143.574 31.1644 143.516 31.1317 143.472C31.0991 143.427 31.0574 143.39 31.0065 143.359L30.7673 143.216L30.7336 144.503L30.4387 144.326L30.4724 143.039L30.2346 142.897C30.1838 142.867 30.1409 142.854 30.106 142.858C30.0721 142.862 30.0412 142.884 30.0134 142.923L29.48 143.6C29.4593 143.634 29.4319 143.655 29.3979 143.663C29.3649 143.67 29.3259 143.66 29.2809 143.633L29.0725 143.508L29.7105 142.649C29.7437 142.596 29.7795 142.559 29.8178 142.539C29.857 142.518 29.9019 142.512 29.9524 142.521C29.9108 142.476 29.8758 142.426 29.8475 142.372C29.8191 142.318 29.7914 142.254 29.7645 142.182L29.1982 140.7L29.4417 140.846C29.474 140.865 29.5036 140.894 29.5304 140.933C29.5582 140.971 29.5799 141.014 29.5955 141.062L30.0737 142.327C30.1025 142.403 30.1328 142.46 30.1646 142.498C30.1974 142.536 30.2353 142.568 30.2783 142.594L30.4808 142.715L30.5129 141.487L30.8079 141.664L30.7758 142.892L30.9798 143.014C31.0228 143.04 31.0607 143.053 31.0935 143.054C31.1272 143.055 31.16 143.036 31.1918 142.996L31.7204 142.335C31.738 142.307 31.7608 142.29 31.7887 142.285C31.8177 142.28 31.8478 142.287 31.8791 142.305L32.1241 142.452L31.499 143.22C31.4692 143.259 31.4391 143.288 31.4088 143.307C31.3785 143.326 31.342 143.333 31.2995 143.328C31.3478 143.38 31.3905 143.438 31.4275 143.503C31.4646 143.568 31.4978 143.646 31.5272 143.737L32.1013 145.322ZM33.7563 145.966L33.7459 146.307L32.4399 145.525L32.5142 142.686L33.8202 143.468L33.8112 143.81L32.8193 143.216L32.7957 144.115L33.594 144.593L33.5854 144.924L32.7871 144.446L32.7629 145.371L33.7563 145.966ZM35.5347 144.83L34.5721 144.253L34.5065 146.762L34.1925 146.574L34.2667 143.735L35.5434 144.5L35.5347 144.83ZM37.7334 147.253C37.7279 147.465 37.6973 147.645 37.6418 147.792C37.5873 147.939 37.5124 148.05 37.417 148.124C37.3217 148.196 37.2091 148.23 37.0791 148.225C36.949 148.219 36.8058 148.169 36.6493 148.076C36.4937 147.982 36.3523 147.862 36.225 147.713C36.0987 147.565 35.9913 147.4 35.9027 147.217C35.8151 147.033 35.7481 146.838 35.7019 146.631C35.6557 146.422 35.6354 146.212 35.6409 146C35.6464 145.789 35.6769 145.61 35.7325 145.462C35.788 145.315 35.8629 145.204 35.9572 145.131C36.0526 145.057 36.1652 145.023 36.2953 145.028C36.4263 145.033 36.5696 145.082 36.7251 145.175C36.8816 145.269 37.023 145.39 37.1493 145.54C37.2755 145.688 37.383 145.854 37.4716 146.038C37.5602 146.221 37.6271 146.416 37.6724 146.624C37.7186 146.832 37.7389 147.042 37.7334 147.253ZM37.4135 147.061C37.4179 146.893 37.4048 146.731 37.3741 146.576C37.3433 146.421 37.2974 146.278 37.2363 146.146C37.1761 146.015 37.1016 145.897 37.013 145.793C36.9252 145.69 36.8261 145.605 36.7156 145.539C36.605 145.473 36.5041 145.438 36.4128 145.434C36.3225 145.431 36.2443 145.457 36.1783 145.512C36.1122 145.568 36.0603 145.653 36.0226 145.767C35.9848 145.881 35.9637 146.022 35.9593 146.191C35.9549 146.361 35.968 146.523 35.9987 146.678C36.0295 146.832 36.0754 146.974 36.1366 147.106C36.1977 147.238 36.2721 147.355 36.3599 147.459C36.4486 147.561 36.5482 147.646 36.6588 147.712C36.7693 147.778 36.8697 147.813 36.96 147.818C37.0513 147.822 37.1295 147.796 37.1946 147.74C37.2606 147.684 37.3125 147.6 37.3502 147.487C37.388 147.373 37.4091 147.231 37.4135 147.061ZM38.8218 147.947C38.9011 147.994 38.9709 148.022 39.0313 148.03C39.0927 148.039 39.144 148.03 39.1855 148.004C39.2279 147.977 39.2603 147.935 39.2827 147.877C39.3051 147.819 39.3174 147.746 39.3196 147.661C39.3242 147.488 39.2876 147.328 39.21 147.181C39.1333 147.035 39.0138 146.913 38.8514 146.816L38.5256 146.621L38.4961 147.752L38.8218 147.947ZM38.86 146.486C38.995 146.567 39.1119 146.658 39.2105 146.76C39.3092 146.862 39.3903 146.971 39.4538 147.088C39.5174 147.204 39.5634 147.326 39.5918 147.454C39.6212 147.583 39.6342 147.714 39.6307 147.847C39.6272 147.98 39.6069 148.092 39.5697 148.184C39.5326 148.274 39.4797 148.34 39.4111 148.38C39.3425 148.421 39.2577 148.433 39.1567 148.419C39.0568 148.403 38.9423 148.356 38.8131 148.279L38.4874 148.084L38.46 149.13L38.1475 148.943L38.2217 146.104L38.86 146.486ZM41.9836 149.798C41.978 150.01 41.9475 150.19 41.892 150.338C41.8375 150.484 41.7625 150.595 41.6672 150.669C41.5719 150.742 41.4592 150.775 41.3293 150.77C41.1992 150.764 41.056 150.714 40.8994 150.621C40.7439 150.528 40.6025 150.407 40.4752 150.258C40.3489 150.11 40.2415 149.945 40.1529 149.762C40.0653 149.578 39.9983 149.383 39.9521 149.176C39.9058 148.967 39.8855 148.757 39.8911 148.545C39.8966 148.334 39.9271 148.155 39.9826 148.007C40.0382 147.86 40.1131 147.75 40.2074 147.676C40.3027 147.602 40.4154 147.568 40.5454 147.573C40.6765 147.578 40.8197 147.627 40.9753 147.72C41.1318 147.814 41.2732 147.936 41.3995 148.085C41.5257 148.233 41.6332 148.399 41.7218 148.583C41.8104 148.766 41.8773 148.961 41.9225 149.169C41.9687 149.378 41.9891 149.587 41.9836 149.798ZM41.6637 149.606C41.6681 149.438 41.6549 149.276 41.6242 149.121C41.5935 148.966 41.5476 148.823 41.4864 148.691C41.4263 148.56 41.3518 148.442 41.2632 148.339C41.1754 148.235 41.0763 148.15 40.9658 148.084C40.8552 148.018 40.7543 147.983 40.663 147.979C40.5726 147.976 40.4945 148.002 40.4284 148.058C40.3624 148.113 40.3105 148.198 40.2728 148.312C40.235 148.426 40.2139 148.567 40.2095 148.736C40.2051 148.906 40.2182 149.068 40.2489 149.223C40.2797 149.377 40.3256 149.519 40.3868 149.651C40.4479 149.783 40.5223 149.9 40.6101 150.004C40.6988 150.106 40.7984 150.191 40.909 150.257C41.0195 150.323 41.1199 150.358 41.2102 150.363C41.3015 150.367 41.3797 150.341 41.4448 150.285C41.5108 150.229 41.5627 150.145 41.6004 150.032C41.6381 149.918 41.6593 149.777 41.6637 149.606ZM43.66 151.908L43.717 149.73L43.0508 149.331C43.0309 149.635 43.0072 149.899 42.9794 150.123C42.9527 150.347 42.9224 150.538 42.8884 150.695C42.8555 150.854 42.8198 150.982 42.7815 151.081C42.7431 151.18 42.7029 151.256 42.6607 151.31L43.66 151.908ZM44.3145 152.3L44.2911 153.194C44.2901 153.231 44.2801 153.255 44.2609 153.266C44.2417 153.278 44.2175 153.274 44.1881 153.257L44.0018 153.145L44.0197 152.459L42.3586 151.464L42.3439 152.028C42.3429 152.065 42.3329 152.089 42.3137 152.1C42.2945 152.111 42.2702 152.108 42.2409 152.091L42.0545 151.979L42.0811 150.963L42.3012 151.095C42.3311 151.092 42.3612 151.078 42.3917 151.053C42.4223 151.025 42.4523 150.98 42.4818 150.916C42.5113 150.85 42.5394 150.763 42.5661 150.653C42.5938 150.544 42.6198 150.405 42.6441 150.238C42.6684 150.069 42.6905 149.869 42.7104 149.637C42.7314 149.404 42.75 149.134 42.766 148.825L44.0397 149.587L43.974 152.096L44.3145 152.3ZM46.1251 153.101C46.1427 153.112 46.1576 153.13 46.1699 153.156L46.2884 153.412C46.1987 153.498 46.0908 153.541 45.9646 153.541C45.8394 153.543 45.6897 153.491 45.5155 153.387C45.3629 153.296 45.2254 153.177 45.1031 153.032C44.9817 152.887 44.8786 152.724 44.7939 152.543C44.7102 152.363 44.6467 152.17 44.6034 151.963C44.5601 151.757 44.5413 151.547 44.5469 151.333C44.5524 151.119 44.5825 150.939 44.6371 150.791C44.6926 150.643 44.7675 150.533 44.8618 150.459C44.9561 150.386 45.0673 150.351 45.1954 150.356C45.3244 150.361 45.4657 150.409 45.6193 150.501C45.769 150.591 45.9012 150.704 46.0159 150.839C46.1305 150.975 46.2295 151.123 46.3127 151.284L46.2049 151.418C46.1977 151.429 46.1885 151.435 46.1776 151.438C46.1675 151.441 46.1542 151.438 46.1376 151.428C46.119 151.417 46.0973 151.391 46.0725 151.351C46.0487 151.311 46.0167 151.264 45.9764 151.209C45.9371 151.153 45.8879 151.095 45.8289 151.034C45.7699 150.974 45.6959 150.917 45.6069 150.863C45.5022 150.801 45.4056 150.768 45.3173 150.766C45.2289 150.763 45.1517 150.789 45.0857 150.844C45.0207 150.899 44.9688 150.984 44.9301 151.099C44.8923 151.213 44.8712 151.355 44.8667 151.525C44.8622 151.697 44.8763 151.862 44.909 152.018C44.9417 152.174 44.9886 152.318 45.0497 152.449C45.1108 152.581 45.1838 152.697 45.2687 152.797C45.3535 152.898 45.4458 152.978 45.5456 153.037C45.6062 153.074 45.6606 153.102 45.7088 153.121C45.758 153.14 45.8029 153.151 45.8435 153.156C45.8851 153.16 45.9244 153.159 45.9614 153.15C45.9984 153.14 46.0351 153.124 46.0715 153.101C46.0795 153.097 46.088 153.095 46.097 153.095C46.106 153.093 46.1153 153.096 46.1251 153.101ZM48.3602 155.058L48.08 154.89C48.0486 154.872 48.0225 154.845 48.0016 154.809C47.9816 154.775 47.9629 154.731 47.9454 154.677L47.4423 153.344C47.4302 153.31 47.4176 153.28 47.4044 153.255C47.3921 153.229 47.3783 153.206 47.363 153.186C47.3476 153.165 47.3302 153.146 47.3107 153.131C47.2923 153.114 47.2703 153.098 47.2449 153.083L46.9969 152.935L46.9633 154.222L46.6507 154.035L46.725 151.196L47.0375 151.383L47.0054 152.61L47.2182 152.738C47.2612 152.764 47.2981 152.777 47.3289 152.778C47.3607 152.778 47.3915 152.76 47.4213 152.723L47.9765 152.063C47.9931 152.039 48.0124 152.022 48.0345 152.014C48.0575 152.005 48.0847 152.01 48.1161 152.029L48.3802 152.187L47.7292 152.974C47.7035 153.006 47.6745 153.029 47.6424 153.042C47.6103 153.054 47.5754 153.058 47.5378 153.054C47.5901 153.104 47.6338 153.161 47.6689 153.227C47.705 153.291 47.7391 153.371 47.7714 153.467L48.3602 155.058ZM50.4955 153.453L50.4212 156.293L50.1087 156.105L50.1597 154.152C50.1613 154.093 50.1639 154.031 50.1675 153.968C50.1712 153.903 50.1779 153.838 50.1876 153.771C50.1673 153.823 50.1467 153.87 50.1258 153.913C50.1048 153.955 50.0839 153.991 50.0633 154.022L49.0717 155.35C49.0562 155.374 49.0358 155.393 49.0107 155.406C48.9865 155.419 48.9592 155.417 48.9289 155.399L48.6956 155.259L48.7698 152.42L49.0838 152.608L49.0327 154.561C49.0312 154.621 49.0281 154.682 49.0234 154.747C49.0198 154.81 49.0136 154.876 49.0049 154.944C49.0241 154.892 49.0442 154.844 49.0652 154.802C49.0862 154.758 49.1071 154.721 49.1277 154.691L50.1208 153.364C50.1363 153.339 50.1562 153.32 50.1804 153.307C50.2046 153.293 50.2318 153.296 50.2622 153.314L50.4955 153.453ZM52.8011 154.834L52.7269 157.673L52.4143 157.486L52.4654 155.533C52.467 155.473 52.4695 155.412 52.4732 155.349C52.4769 155.284 52.4836 155.218 52.4933 155.152C52.473 155.204 52.4524 155.251 52.4314 155.293C52.4104 155.336 52.3896 155.372 52.369 155.403L51.3774 156.731C51.3619 156.755 51.3415 156.773 51.3163 156.786C51.2921 156.8 51.2649 156.798 51.2345 156.78L51.0012 156.64L51.0755 153.801L51.3895 153.989L51.3384 155.942C51.3369 156.001 51.3338 156.063 51.3291 156.127C51.3254 156.191 51.3192 156.257 51.3105 156.325C51.3298 156.272 51.3499 156.225 51.3709 156.182C51.3919 156.139 51.4127 156.102 51.4334 156.071L52.4264 154.744C52.442 154.72 52.4618 154.701 52.486 154.688C52.5102 154.674 52.5375 154.676 52.5678 154.694L52.8011 154.834ZM51.9585 153.944C51.9976 153.967 52.0305 153.982 52.0572 153.987C52.0849 153.992 52.1069 153.986 52.1232 153.97C52.1405 153.954 52.1532 153.927 52.1611 153.891C52.17 153.853 52.1753 153.803 52.1769 153.741L52.3457 153.842C52.3652 153.854 52.3801 153.875 52.3902 153.905C52.4003 153.935 52.4051 153.965 52.4043 153.994C52.4026 154.06 52.3908 154.112 52.3689 154.152C52.348 154.19 52.318 154.215 52.279 154.228C52.2399 154.24 52.1927 154.238 52.1375 154.224C52.0832 154.21 52.0218 154.183 51.9533 154.142C51.8848 154.101 51.8234 154.055 51.7692 154.003C51.7158 153.953 51.6705 153.899 51.6333 153.842C51.5961 153.783 51.5678 153.723 51.5486 153.66C51.5304 153.597 51.5221 153.533 51.5239 153.467C51.5246 153.438 51.5307 153.415 51.5421 153.397C51.5534 153.38 51.5689 153.377 51.5885 153.389L51.7572 153.49C51.7556 153.552 51.7577 153.606 51.7634 153.652C51.7702 153.698 51.781 153.739 51.796 153.774C51.812 153.809 51.833 153.841 51.8591 153.868C51.8862 153.895 51.9193 153.92 51.9585 153.944ZM56.1083 158.256C56.1028 158.469 56.0723 158.648 56.0167 158.796C55.9622 158.943 55.8873 159.053 55.792 159.127C55.6967 159.2 55.584 159.234 55.454 159.228C55.324 159.222 55.1807 159.173 55.0242 159.079C54.8686 158.986 54.7272 158.865 54.6 158.717C54.4737 158.569 54.3663 158.403 54.2776 158.22C54.19 158.037 54.1231 157.841 54.0768 157.634C54.0306 157.426 54.0103 157.215 54.0158 157.003C54.0213 156.792 54.0519 156.613 54.1074 156.466C54.1629 156.318 54.2378 156.208 54.3322 156.134C54.4275 156.06 54.5402 156.026 54.6702 156.032C54.8012 156.036 54.9445 156.085 55.1 156.179C55.2566 156.272 55.398 156.394 55.5242 156.543C55.6505 156.691 55.7579 156.857 55.8465 157.041C55.9352 157.224 56.0021 157.42 56.0473 157.627C56.0935 157.836 56.1139 158.045 56.1083 158.256ZM55.7885 158.065C55.7929 157.896 55.7797 157.734 55.749 157.579C55.7183 157.424 55.6723 157.281 55.6112 157.149C55.551 157.018 55.4766 156.901 55.3879 156.797C55.3002 156.693 55.2011 156.609 55.0905 156.542C54.98 156.476 54.8791 156.441 54.7877 156.437C54.6974 156.434 54.6192 156.46 54.5532 156.516C54.4872 156.571 54.4353 156.656 54.3975 156.77C54.3598 156.884 54.3387 157.025 54.3343 157.194C54.3298 157.364 54.343 157.526 54.3737 157.681C54.4044 157.835 54.4504 157.978 54.5115 158.109C54.5727 158.241 54.6471 158.359 54.7348 158.462C54.8235 158.565 54.9232 158.649 55.0337 158.715C55.1443 158.781 55.2447 158.817 55.335 158.821C55.4263 158.825 55.5045 158.799 55.5695 158.743C55.6356 158.687 55.6875 158.603 55.7251 158.491C55.7629 158.377 55.784 158.235 55.7885 158.065ZM58.2319 160.97L57.9517 160.802C57.9204 160.783 57.8942 160.756 57.8733 160.721C57.8534 160.686 57.8346 160.642 57.8172 160.589L57.314 159.255C57.3019 159.221 57.2893 159.192 57.2761 159.166C57.2638 159.14 57.25 159.117 57.2347 159.097C57.2193 159.076 57.2019 159.058 57.1825 159.042C57.164 159.026 57.142 159.01 57.1166 158.995L56.8686 158.846L56.835 160.133L56.5224 159.946L56.5967 157.107L56.9092 157.294L56.8771 158.522L57.0899 158.649C57.1329 158.675 57.1698 158.688 57.2006 158.69C57.2324 158.69 57.2632 158.671 57.293 158.634L57.8483 157.975C57.8648 157.95 57.8841 157.933 57.9062 157.925C57.9292 157.916 57.9565 157.921 57.9878 157.94L58.2519 158.098L57.6009 158.885C57.5752 158.918 57.5463 158.941 57.5141 158.954C57.482 158.965 57.4471 158.969 57.4095 158.965C57.4619 159.015 57.5055 159.073 57.5406 159.138C57.5767 159.203 57.6109 159.283 57.6431 159.378L58.2319 160.97ZM60.4732 160.87C60.4676 161.082 60.4371 161.262 60.3816 161.41C60.3271 161.556 60.2521 161.667 60.1568 161.741C60.0615 161.814 59.9489 161.847 59.8188 161.842C59.6888 161.836 59.5455 161.787 59.389 161.693C59.2335 161.6 59.0921 161.479 58.9648 161.33C58.8385 161.182 58.7311 161.017 58.6425 160.834C58.5549 160.65 58.4879 160.455 58.4417 160.248C58.3955 160.04 58.3751 159.829 58.3807 159.617C58.3862 159.406 58.4167 159.227 58.4722 159.08C58.5277 158.932 58.6027 158.822 58.697 158.748C58.7923 158.674 58.905 158.64 59.035 158.645C59.1661 158.65 59.3093 158.699 59.4649 158.792C59.6214 158.886 59.7628 159.008 59.8891 159.157C60.0154 159.305 60.1228 159.471 60.2114 159.655C60.3 159.838 60.3669 160.033 60.4121 160.241C60.4583 160.45 60.4787 160.659 60.4732 160.87ZM60.1533 160.679C60.1577 160.51 60.1446 160.348 60.1138 160.193C60.0831 160.038 60.0372 159.895 59.976 159.763C59.9159 159.632 59.8415 159.515 59.7528 159.411C59.6651 159.307 59.5659 159.222 59.4554 159.156C59.3448 159.09 59.2439 159.055 59.1526 159.051C59.0623 159.048 58.9841 159.074 58.918 159.13C58.852 159.185 58.8001 159.27 58.7624 159.384C58.7246 159.498 58.7035 159.639 58.6991 159.808C58.6947 159.978 58.7078 160.14 58.7385 160.295C58.7693 160.449 58.8152 160.591 58.8764 160.723C58.9375 160.855 59.0119 160.972 59.0996 161.076C59.1884 161.178 59.288 161.263 59.3986 161.329C59.5091 161.395 59.6095 161.431 59.6998 161.435C59.7911 161.439 59.8693 161.413 59.9344 161.357C60.0004 161.301 60.0523 161.217 60.09 161.104C60.1278 160.991 60.1489 160.849 60.1533 160.679ZM62.6871 160.754L62.6129 163.593L62.3003 163.406L62.3338 162.127L61.2347 161.469L61.2013 162.748L60.8872 162.56L60.9615 159.721L61.2755 159.909L61.2427 161.162L62.3418 161.82L62.3746 160.567L62.6871 160.754ZM64.9928 162.135L64.9186 164.974L64.606 164.787L64.6395 163.508L63.5404 162.849L63.5069 164.129L63.1929 163.941L63.2671 161.101L63.5812 161.289L63.5484 162.543L64.6475 163.201L64.6802 161.948L64.9928 162.135ZM66.2117 165.409C66.2909 165.456 66.3587 165.485 66.4151 165.495C66.4715 165.504 66.5176 165.498 66.554 165.477C66.5903 165.455 66.6172 165.419 66.6343 165.369C66.6526 165.32 66.6627 165.259 66.6646 165.188C66.6665 165.113 66.6599 165.041 66.6447 164.971C66.6307 164.903 66.6065 164.837 66.5723 164.775C66.5394 164.714 66.495 164.656 66.4398 164.602C66.3847 164.546 66.3175 164.494 66.2383 164.447L65.845 164.211L65.8199 165.174L66.2117 165.409ZM66.247 164.113C66.3771 164.191 66.4887 164.278 66.5816 164.373C66.6745 164.468 66.7502 164.567 66.8092 164.672C66.8691 164.778 66.9118 164.886 66.9378 164.998C66.9647 165.109 66.9767 165.22 66.9738 165.331C66.9704 165.462 66.9505 165.57 66.9146 165.657C66.8787 165.743 66.8273 165.804 66.7608 165.84C66.6951 165.877 66.6156 165.888 66.5215 165.874C66.4274 165.857 66.3213 165.814 66.2029 165.743L65.4986 165.321L65.5728 162.482L65.8854 162.669L65.8538 163.877L66.247 164.113ZM67.6322 166.599L67.3182 166.411L67.3924 163.572L67.7064 163.76L67.6322 166.599ZM70.0111 165.14L69.9369 167.979L69.6241 167.792L69.6752 165.838C69.6767 165.779 69.6796 165.718 69.683 165.654C69.6868 165.59 69.6936 165.524 69.703 165.457C69.6829 165.51 69.6625 165.557 69.6414 165.599C69.6203 165.641 69.5997 165.678 69.5789 165.708L68.5874 167.036C68.5718 167.06 68.5514 167.079 68.5263 167.092C68.5021 167.106 68.4749 167.104 68.4443 167.085L68.2112 166.946L68.2854 164.107L68.5995 164.295L68.5484 166.248C68.5468 166.307 68.5435 166.369 68.5389 166.433C68.5355 166.497 68.5291 166.562 68.5205 166.631C68.5397 166.578 68.5597 166.531 68.5809 166.488C68.602 166.445 68.6226 166.407 68.6434 166.377L69.6362 165.05C69.6517 165.026 69.6718 165.007 69.696 164.993C69.7202 164.98 69.7474 164.982 69.7776 165L70.0111 165.14ZM69.1683 164.25C69.2077 164.273 69.2405 164.288 69.2672 164.293C69.2948 164.297 69.3171 164.292 69.3332 164.276C69.3507 164.26 69.3633 164.233 69.3711 164.196C69.3801 164.159 69.3853 164.109 69.3869 164.047L69.5554 164.148C69.5751 164.16 69.5899 164.181 69.6002 164.211C69.6105 164.241 69.6148 164.271 69.6141 164.3C69.6123 164.366 69.6008 164.418 69.5789 164.457C69.5579 164.496 69.5278 164.521 69.4887 164.534C69.4497 164.545 69.4029 164.544 69.3475 164.53C69.2933 164.516 69.2319 164.488 69.1631 164.447C69.0948 164.406 69.0334 164.36 68.9789 164.309C68.9257 164.258 68.8803 164.204 68.8431 164.147C68.8058 164.089 68.7776 164.028 68.7584 163.966C68.7404 163.903 68.7319 163.838 68.7336 163.772C68.7344 163.743 68.7405 163.72 68.7521 163.703C68.7636 163.686 68.779 163.683 68.7983 163.695L68.9672 163.796C68.9656 163.858 68.9676 163.912 68.9732 163.958C68.9801 164.004 68.991 164.044 69.0058 164.08C69.0219 164.115 69.0428 164.146 69.0689 164.174C69.0963 164.201 69.1293 164.226 69.1683 164.25ZM71.2632 166.159C71.3462 166.112 71.4416 166.096 71.5494 166.109C71.6585 166.122 71.7799 166.169 71.9136 166.249C72.0235 166.315 72.1215 166.392 72.2086 166.482C72.2957 166.57 72.3695 166.665 72.4294 166.767C72.4893 166.868 72.5347 166.974 72.5655 167.083C72.5967 167.193 72.6105 167.301 72.6077 167.408C72.604 167.547 72.5756 167.656 72.5216 167.734C72.469 167.811 72.395 167.853 72.2995 167.86C72.3515 167.923 72.3983 167.989 72.4403 168.058C72.4824 168.128 72.5176 168.199 72.5463 168.272C72.5763 168.345 72.5987 168.419 72.6138 168.494C72.6297 168.567 72.6368 168.64 72.6349 168.711C72.6316 168.836 72.6114 168.943 72.5741 169.032C72.5373 169.12 72.4845 169.185 72.4157 169.226C72.3482 169.268 72.2657 169.283 72.1684 169.273C72.0716 169.262 71.9612 169.219 71.8379 169.145C71.6874 169.055 71.5512 168.94 71.4297 168.799C71.3082 168.658 71.2061 168.505 71.1227 168.34L71.2177 168.192C71.2261 168.181 71.2365 168.174 71.2494 168.171C71.2626 168.168 71.2762 168.171 71.2909 168.179C71.3127 168.192 71.3374 168.222 71.366 168.269C71.3946 168.315 71.4307 168.369 71.4738 168.431C71.5169 168.492 71.5689 168.555 71.6297 168.621C71.6915 168.688 71.767 168.748 71.8558 168.801C72.0055 168.89 72.1228 168.915 72.2074 168.873C72.292 168.83 72.3365 168.724 72.3409 168.555C72.3428 168.484 72.3336 168.412 72.3137 168.34C72.2947 168.268 72.2663 168.2 72.228 168.134C72.1901 168.069 72.1436 168.008 72.0884 167.952C72.0333 167.895 71.9702 167.846 71.8998 167.805L71.6092 167.631L71.6183 167.285L71.8929 167.449C71.9537 167.486 72.0088 167.51 72.0592 167.521C72.1109 167.532 72.1552 167.53 72.1922 167.516C72.2292 167.501 72.2585 167.473 72.2792 167.432C72.3011 167.39 72.3132 167.335 72.315 167.266C72.3166 167.205 72.3084 167.142 72.2901 167.079C72.273 167.016 72.2464 166.956 72.2113 166.899C72.1771 166.841 72.1338 166.786 72.0815 166.735C72.03 166.683 71.9712 166.637 71.9045 166.597C71.8274 166.551 71.7613 166.523 71.7058 166.512C71.6516 166.501 71.6048 166.498 71.5659 166.503C71.5271 166.506 71.4946 166.511 71.4684 166.519C71.4435 166.525 71.4223 166.523 71.4047 166.513C71.3879 166.503 71.3747 166.489 71.364 166.472C71.3534 166.455 71.3438 166.433 71.3343 166.404L71.2632 166.159ZM74.2045 169.46L73.9209 168.172C73.911 168.129 73.9008 168.08 73.8903 168.025C73.8811 167.97 73.8715 167.911 73.8621 167.85C73.8501 167.9 73.8374 167.946 73.8244 167.988C73.8123 168.029 73.8007 168.065 73.7888 168.097L73.449 169.008L74.2045 169.46ZM74.7961 170.889L74.5541 170.744C74.5269 170.728 74.5045 170.705 74.4874 170.676C74.4711 170.647 74.4591 170.616 74.4511 170.582L74.2817 169.812L73.3543 169.256L73.151 169.803C73.1423 169.824 73.1287 169.839 73.1093 169.849C73.0912 169.858 73.0691 169.855 73.0427 169.839L72.8004 169.694L73.714 167.357L74.0309 167.547L74.7961 170.889ZM75.8739 171.195C75.9531 171.242 76.021 171.27 76.0774 171.279C76.1346 171.287 76.1817 171.281 76.218 171.258C76.2552 171.236 76.283 171.201 76.3013 171.152C76.3196 171.101 76.3293 171.04 76.3312 170.969C76.3349 170.828 76.3017 170.695 76.2313 170.572C76.1613 170.447 76.0504 170.339 75.8987 170.248L75.4584 169.984L75.4337 170.931L75.8739 171.195ZM75.4906 168.756L75.4663 169.686L75.8256 169.901C75.9794 169.993 76.0946 170.02 76.1709 169.981C76.2486 169.942 76.2889 169.851 76.2926 169.709C76.2968 169.547 76.2643 169.407 76.1949 169.291C76.1256 169.174 76.0155 169.071 75.8645 168.98L75.4906 168.756ZM75.8732 168.65C76.0052 168.729 76.118 168.814 76.211 168.905C76.3049 168.996 76.3815 169.092 76.4402 169.193C76.4993 169.294 76.5417 169.399 76.5678 169.508C76.5948 169.617 76.6068 169.729 76.6037 169.845C76.6019 169.913 76.5922 169.974 76.5751 170.028C76.5579 170.082 76.532 170.127 76.4983 170.163C76.4646 170.198 76.4231 170.223 76.3729 170.237C76.3227 170.251 76.2643 170.253 76.1969 170.242C76.5008 170.507 76.6482 170.814 76.6391 171.163C76.6359 171.284 76.6167 171.385 76.5805 171.465C76.5448 171.544 76.4943 171.601 76.4287 171.636C76.3631 171.67 76.2837 171.679 76.1895 171.663C76.0954 171.647 75.9893 171.603 75.871 171.533L75.1122 171.078L75.1864 168.239L75.8732 168.65ZM79.0773 172.011C79.0718 172.223 79.0415 172.403 78.9857 172.55C78.9312 172.697 78.8564 172.807 78.7612 172.882C78.6656 172.954 78.5531 172.988 78.423 172.982C78.2932 172.977 78.1498 172.927 77.9934 172.834C77.8378 172.74 77.6962 172.619 77.5689 172.471C77.4429 172.323 77.3353 172.158 77.2468 171.975C77.1592 171.791 77.0923 171.596 77.0458 171.389C76.9997 171.18 76.9793 170.97 76.9848 170.758C76.9903 170.547 77.021 170.368 77.0764 170.22C77.1322 170.073 77.207 169.962 77.3013 169.889C77.3965 169.815 77.5094 169.781 77.6392 169.786C77.7702 169.791 77.9137 169.84 78.0692 169.933C78.2256 170.027 78.3672 170.148 78.4932 170.297C78.6196 170.445 78.7268 170.611 78.8157 170.796C78.9042 170.979 78.971 171.174 79.0163 171.382C79.0628 171.59 79.0828 171.8 79.0773 172.011ZM78.7574 171.819C78.7618 171.65 78.7486 171.489 78.7182 171.334C78.6873 171.179 78.6412 171.035 78.5804 170.904C78.5199 170.773 78.4455 170.655 78.3571 170.551C78.2691 170.448 78.17 170.363 78.0597 170.297C77.949 170.231 77.8482 170.196 77.7567 170.192C77.6665 170.189 77.5883 170.215 77.5222 170.27C77.4564 170.326 77.4044 170.411 77.3665 170.524C77.329 170.639 77.3079 170.78 77.3034 170.949C77.299 171.119 77.3122 171.281 77.3427 171.436C77.3736 171.59 77.4196 171.732 77.4805 171.864C77.5418 171.996 77.6162 172.113 77.7038 172.216C77.7926 172.319 77.8922 172.403 78.0029 172.47C78.1132 172.536 78.2136 172.571 78.3042 172.576C78.3952 172.58 78.4734 172.553 78.5387 172.497C78.6045 172.442 78.6565 172.358 78.6943 172.245C78.7318 172.131 78.753 171.989 78.7574 171.819ZM80.754 174.121L80.8109 171.942L80.1447 171.544C80.1249 171.848 80.1009 172.112 80.0733 172.336C80.0466 172.56 80.0161 172.75 79.9822 172.908C79.9495 173.066 79.9138 173.195 79.8754 173.294C79.837 173.393 79.7967 173.469 79.7544 173.523L80.754 174.121ZM81.4084 174.513L81.385 175.407C81.3841 175.444 81.3741 175.468 81.3546 175.479C81.3356 175.49 81.3114 175.487 81.2821 175.47L81.0955 175.358L81.1134 174.672L79.4523 173.677L79.4376 174.241C79.4366 174.277 79.4266 174.302 79.4076 174.313C79.3882 174.324 79.364 174.321 79.3346 174.303L79.1485 174.192L79.175 173.176L79.3951 173.308C79.425 173.305 79.4552 173.291 79.4857 173.265C79.5162 173.238 79.5459 173.192 79.5757 173.128C79.6051 173.063 79.6333 172.976 79.6601 172.866C79.6876 172.756 79.7138 172.618 79.7378 172.45C79.7622 172.282 79.7845 172.081 79.8042 171.85C79.8251 171.617 79.8437 171.346 79.8599 171.038L81.1336 171.8L81.068 174.309L81.4084 174.513Z" fill="#2057AC"/>
<path fill-rule="evenodd" clip-rule="evenodd" d="M133.607 200.885C132.761 199.684 132.188 198.371 131.887 196.946C131.586 195.521 131.6 194.121 131.927 192.748C132.255 191.375 132.832 190.301 133.657 189.526C134.483 188.751 135.468 188.338 136.613 188.286C137.758 188.234 138.951 188.566 140.191 189.282C141.431 189.998 142.471 190.955 143.311 192.153C144.152 193.351 144.725 194.665 145.031 196.093C145.338 197.521 145.327 198.922 144.999 200.295C144.672 201.669 144.092 202.741 143.261 203.513C142.43 204.284 141.444 204.698 140.305 204.753C139.166 204.808 137.976 204.477 136.736 203.762C135.496 203.046 134.453 202.087 133.607 200.885ZM139.442 201.535C140.101 201.484 140.674 201.211 141.161 200.719C141.647 200.226 141.994 199.546 142.201 198.68C142.407 197.813 142.43 196.946 142.268 196.079C142.106 195.212 141.786 194.424 141.308 193.716C140.829 193.007 140.238 192.449 139.532 192.042C138.827 191.635 138.144 191.457 137.485 191.508C136.825 191.56 136.252 191.832 135.766 192.325C135.279 192.818 134.933 193.497 134.726 194.364C134.519 195.231 134.497 196.098 134.659 196.965C134.821 197.832 135.141 198.62 135.619 199.328C136.097 200.037 136.689 200.594 137.395 201.002C138.1 201.409 138.782 201.587 139.442 201.535ZM151.433 205.557L149.522 204.454L148.176 210.093L145.428 208.507L148.769 194.508L151.516 196.094L150.166 201.754L152.145 202.897L156.636 199.05L159.554 200.735L154.033 205.238L156.333 214.803L153.193 212.99L151.433 205.557ZM172.302 208.095L168.962 222.094L166.197 220.498L167.567 214.758L162.14 211.625L160.77 217.365L158.006 215.769L161.346 201.769L164.111 203.365L162.794 208.885L168.22 212.018L169.537 206.499L172.302 208.095ZM180.753 225.489L175.207 222.287L173.433 224.676L170.6 223.04L179.265 212.115L181.995 213.691L183.997 230.774L181.095 229.099L180.753 225.489ZM180.47 222.526L179.854 216.073L176.681 220.339L180.47 222.526Z" fill="#2057AC"/>
<path d="M21.3724 177.217L0.388672 165.273V160.108L21.3724 172.052V177.217Z" fill="#322920"/>
<path d="M286.06 161.643L197.981 210.459V251.52L286.06 200.461V161.643Z" fill="#E0E4EA"/>
<path d="M211.839 192.391L206.351 245.33V288.909L209.256 290.523L212.807 275.674C214.098 272.446 218.618 271.8 222.815 272.768C224.106 273.091 225.72 273.737 227.011 274.382L235.405 279.224C239.279 281.484 243.153 286.003 245.413 290.845L247.349 294.719C247.349 295.042 247.672 295.365 247.672 295.687C248.964 298.27 250.255 301.498 250.255 303.757L250.901 314.41L253.806 316.024L273.498 326.353L278.018 324.739L279.309 314.41L279.632 312.796L280.278 294.073L281.246 292.137L278.018 275.996L265.105 219.183L261.877 213.696L215.39 186.903L213.13 189.486L211.839 192.391Z" fill="#9AA7BB"/>
<path d="M247.673 295.688C248.964 298.271 250.255 301.499 250.255 303.759L250.901 314.411L253.806 316.025L273.499 326.355L278.018 324.741L279.31 314.411C278.341 313.765 277.373 312.797 276.404 312.151L247.673 295.688Z" fill="#261D14"/>
<path d="M250.901 314.409L273.822 326.353L278.018 325.062L275.113 321.188L250.901 307.308V314.409Z" fill="#8595AD"/>
<path d="M259.617 302.466L254.775 305.694V306.986L252.838 308.277L250.578 303.758C250.255 301.498 248.964 298.27 247.995 295.688C247.995 295.365 247.673 295.042 247.673 294.719L245.736 290.846C243.476 285.681 239.602 281.484 235.728 279.225L227.012 274.383C225.72 273.737 224.106 273.092 222.492 272.446H222.169H221.847C219.91 272.123 218.295 272.123 216.681 272.446L212.162 266.958L202.8 255.66L206.674 251.464L230.886 264.376C230.886 264.376 245.736 274.706 251.224 282.13C254.775 286.972 257.68 294.719 258.971 299.561C259.294 301.821 259.617 302.466 259.617 302.466Z" fill="#D5DAE2"/>
<path d="M280.278 294.073L271.239 287.295L206.351 245.008L211.839 192.391L213.13 189.486L215.39 186.903L261.877 213.696L265.105 219.183L277.695 275.996L281.246 292.137L280.278 294.073Z" fill="#C0C8D4"/>
<path d="M213.13 189.486L265.105 219.183L261.877 213.696L215.39 186.903L213.13 189.486Z" fill="#F7F6F5"/>
<path d="M215.067 200.462L212.807 223.704C212.807 224.672 213.13 225.641 214.099 225.963L218.295 228.546C219.264 229.191 220.555 228.546 220.555 227.255L222.815 204.013C222.815 203.044 222.492 202.076 221.524 201.753L217.327 199.494C216.358 198.525 215.067 199.171 215.067 200.462Z" fill="#322920"/>
<path d="M218.941 227.899H218.618L214.422 225.316C213.776 224.993 213.453 224.348 213.453 223.702L215.713 200.461C215.713 199.815 216.036 199.815 216.359 199.815H216.681H217.004L221.201 202.075C221.847 202.397 222.169 203.043 222.169 203.689L219.91 226.93C219.587 227.576 219.264 227.899 218.941 227.899Z" fill="#4D5258"/>
<path d="M214.099 190.131L263.168 220.474L274.467 273.414L276.727 279.87L278.664 293.104L280.278 294.073L281.246 292.136L277.695 275.996L276.081 273.414L265.105 219.183L214.099 190.131Z" fill="#E0E4EA"/>
<path d="M231.854 208.208C230.24 207.24 228.626 208.208 228.303 210.145C227.657 215.955 225.398 230.804 226.689 233.064C227.98 235.001 243.799 249.204 249.61 257.919C250.578 259.211 264.46 267.281 264.46 267.281L263.491 255.014C263.491 255.014 258.003 226.608 256.712 223.057C255.42 220.474 239.602 212.404 231.854 208.208Z" fill="#322920"/>
<path d="M262.845 264.698C257.034 261.47 251.223 257.919 250.578 256.95C246.704 250.817 237.988 242.424 232.5 236.937C230.24 235 228.303 232.74 227.98 232.095C227.012 230.158 228.626 216.923 229.271 212.404C229.271 211.435 229.594 210.79 229.594 210.144C229.594 209.499 229.917 208.853 230.563 208.853C230.885 208.853 230.885 208.853 231.208 209.176C232.822 210.144 235.082 211.435 237.665 212.727C243.798 215.955 254.775 222.088 255.743 223.702C257.034 226.284 260.908 247.266 262.522 255.336L262.845 264.698Z" fill="#4D5258"/>
<path d="M270.593 303.756L259.617 296.977L257.358 291.167C257.358 291.167 256.066 274.704 224.429 255.981L220.555 253.399V253.076L225.075 200.137L226.043 200.46L259.295 218.859L262.523 229.834L264.137 235.968L271.239 271.799L272.53 289.553L270.593 303.756ZM260.586 296.009L269.948 301.819L271.239 289.23L269.948 271.799L262.846 235.968L261.231 229.834L258.003 219.505L226.043 201.751L221.524 252.431L225.075 254.69C256.389 273.413 258.326 289.23 258.649 290.844L260.586 296.009Z" fill="#ABABAB"/>
<path d="M273.176 315.377L276.404 317.314L279.31 319.897L281.246 326.998L278.987 329.258L273.821 326.353L271.885 324.416L273.176 315.377Z" fill="#8595AD"/>
<path d="M254.129 316.347L251.224 314.733V312.796L250.578 304.08C250.255 301.821 248.964 298.593 247.995 296.01C247.995 295.688 247.673 295.365 247.673 295.042L245.736 291.168C243.476 286.004 239.602 281.807 235.728 279.548L227.012 274.383C226.366 274.06 225.72 273.737 225.075 273.414C224.106 273.092 223.461 272.769 222.492 272.446H222.169H221.846C219.91 272.123 218.295 272.123 216.681 272.446C215.067 272.769 213.776 273.737 212.807 275.351L209.256 290.523L207.319 289.232C207.319 289.232 208.933 272.123 209.902 268.572C210.225 267.604 210.87 267.281 212.162 266.958C215.713 265.99 222.492 267.281 222.815 267.281C222.815 267.281 231.531 272.446 240.248 281.162C249.287 290.2 252.515 306.986 252.515 306.986L254.129 316.347Z" fill="#261D14"/>
<path d="M215.391 186.903L214.1 190.131L213.131 193.037L208.289 246.299L207.966 252.432L204.415 256.628V263.084L202.478 262.116V255.983L206.352 251.464V245.008L211.84 192.391L213.131 189.486L215.391 186.903Z" fill="#C1C9D5"/>
<path d="M222.815 267.605V272.77H222.492H222.169H221.847C219.91 272.447 218.296 272.447 216.681 272.77C215.067 273.093 213.776 274.061 212.807 275.675L209.256 290.524L202.477 286.65V255.984L222.815 267.605Z" fill="#261D14"/>
<path d="M254.129 316.346L251.224 314.732V312.795L250.578 304.079C250.255 301.82 248.964 298.592 247.995 296.009C247.995 295.687 247.673 295.364 247.673 295.041L245.736 291.167C243.476 286.002 239.602 281.806 235.728 279.546L227.012 274.382C226.366 274.059 225.721 273.736 225.075 273.413L222.815 272.122L212.162 266.957L202.477 262.115V255.659L222.492 267.28C222.492 267.28 231.209 272.445 239.925 281.16C248.964 290.199 252.192 306.985 252.192 306.985L254.129 316.346Z" fill="#6E819E"/>
<path d="M253.806 235.324L250.901 235.647C248.641 235.97 246.704 238.875 246.704 242.103V259.857C246.704 263.085 248.641 265.022 250.901 264.699L254.775 264.053C257.035 263.731 258.003 261.148 258.003 257.92V240.166C258.003 236.938 256.066 235.001 253.806 235.324Z" fill="#484038"/>
<path d="M252.192 268.248L269.947 260.824L269.302 259.21L253.806 265.02V233.386L264.459 228.221L263.491 226.607L252.192 232.417V268.248Z" fill="#3E362E"/>
<path d="M362.276 172.378L359.371 175.606C357.111 178.511 355.174 183.353 355.174 186.581L357.111 204.013C357.111 207.241 359.048 207.241 361.308 204.335L364.213 200.785C366.473 197.879 367.441 194.329 367.441 191.423L366.473 172.378C366.473 169.473 364.859 169.473 362.276 172.378Z" fill="#484038"/>
<path d="M355.497 216.279L363.568 207.241L360.017 168.828L345.49 180.126L346.135 181.74L358.08 171.733L361.631 206.273L354.529 214.988L355.497 216.279Z" fill="#3E362E"/>
<path d="M278.019 325.06L279.633 313.116L371.315 260.177L369.701 272.12L278.019 325.06Z" fill="#8595AD"/>
<path d="M371.961 241.455L371.315 260.178L340.97 280.837C335.159 285.033 328.702 288.584 322.246 291.812L279.633 313.117L280.278 294.394L286.735 290.521L365.182 245.329L371.961 241.455Z" fill="#261D14"/>
<path d="M299.002 236.29L300.939 237.581L304.49 222.732C306.427 218.213 313.207 218.536 318.372 221.764L326.765 226.606C330.639 228.866 334.513 233.385 336.773 238.227L338.71 242.1C338.71 242.423 339.033 242.746 339.033 243.069C340.324 245.651 341.615 248.879 341.615 251.139L342.584 261.469L345.489 263.083L343.875 253.721C343.875 253.721 340.97 236.936 331.608 227.897C322.569 219.182 314.175 214.017 314.175 214.017C314.175 214.017 302.231 211.757 301.262 215.308C300.617 219.182 299.002 236.29 299.002 236.29Z" fill="#322920"/>
<path d="M298.034 204.979V235.645L300.939 237.259L304.49 222.41C305.782 219.182 309.978 218.537 314.498 219.505V214.34L298.034 204.979Z" fill="#322920"/>
<path d="M365.504 250.493L343.552 266.311C335.804 271.798 327.411 276.963 318.695 280.837L286.735 296.008V290.521L365.182 245.329L365.504 250.493Z" fill="#A5A9B2"/>
<path d="M372.606 239.196L371.638 241.133L344.198 260.823C336.45 266.311 328.056 271.476 319.34 275.35L279.955 293.749H279.633L280.601 291.812L277.373 275.672L369.378 225.961L372.606 239.196Z" fill="#E0E4EA"/>
<path d="M372.607 239.198L371.638 241.135L344.198 260.825C336.45 266.313 328.057 271.478 319.34 275.352L279.956 293.751L280.601 291.814C280.601 291.814 319.34 275.029 333.545 265.667C348.072 256.952 372.284 239.521 372.607 239.198Z" fill="#9AA7BB"/>
<path d="M370.993 262.761L341.615 282.452C336.127 286.003 330.639 289.231 324.828 292.459L280.278 315.055L276.727 312.472L273.176 315.377L276.405 316.991L279.633 319.897L281.247 326.998L278.987 328.935L322.246 306.662C330.316 302.465 338.387 297.623 346.135 292.459L371.961 274.704L374.221 272.768V265.02L370.993 262.115V262.761Z" fill="#E9E5E2"/>
<path d="M296.42 140.097L215.39 186.903L261.877 213.695L265.106 219.183L276.082 214.664C301.585 204.657 324.828 190.454 345.489 172.7L345.812 172.377L342.584 166.889L296.42 140.097Z" fill="#E9E5E2"/>
<path d="M227.981 178.832L274.145 203.688V204.011L272.531 205.302L227.658 179.8L227.981 178.832Z" fill="#C0C8D4"/>
<path d="M229.595 178.187L274.145 203.688L272.854 204.333L227.981 178.832L229.595 178.187Z" fill="#F7F6F5"/>
<path d="M238.957 172.698L284.798 197.554V197.877L283.184 199.168L238.312 173.667L238.957 172.698Z" fill="#C0C8D4"/>
<path d="M240.249 172.053L284.799 197.554L283.508 198.2L238.958 172.698L240.249 172.053Z" fill="#F7F6F5"/>
<path d="M249.61 166.567L295.451 191.423L295.774 191.745L293.837 193.037L248.964 167.535L249.61 166.567Z" fill="#C0C8D4"/>
<path d="M250.902 165.921L295.452 191.423L294.161 192.068L249.611 166.567L250.902 165.921Z" fill="#F7F6F5"/>
<path d="M260.263 160.433L306.105 185.289L306.428 185.612L304.491 186.903L259.941 161.402L260.263 160.433Z" fill="#C0C8D4"/>
<path d="M261.555 159.788L306.105 185.289L304.814 185.934L260.264 160.433L261.555 159.788Z" fill="#F7F6F5"/>
<path d="M270.917 154.301L316.758 179.156L317.081 179.479L315.144 180.77L270.594 155.269L270.917 154.301Z" fill="#C0C8D4"/>
<path d="M272.208 153.655L316.758 179.157L315.467 179.802L270.917 154.301L272.208 153.655Z" fill="#F7F6F5"/>
<path d="M281.57 148.167L327.411 173.023L327.734 173.345L325.797 174.637L281.247 149.135L281.57 148.167Z" fill="#C0C8D4"/>
<path d="M282.861 147.521L327.411 173.023L326.12 173.668L281.57 148.167L282.861 147.521Z" fill="#F7F6F5"/>
<path d="M296.42 140.097L340.002 166.889C340.002 166.889 324.829 181.415 306.428 191.099C288.027 200.783 262.846 211.436 262.846 211.436L215.714 186.58L261.878 213.695L266.397 214.987L312.239 193.682L341.616 171.408L342.907 167.212L296.42 140.097Z" fill="#F7F6F5"/>
<path d="M342.907 166.888L342.584 167.21C321.923 184.965 298.357 199.168 273.176 209.175L261.877 213.694L265.106 219.181L276.082 214.662C301.585 204.655 324.828 190.452 345.489 172.698L345.812 172.375L342.907 166.888Z" fill="#F7F6F5"/>
<path d="M346.135 172.377L345.812 172.7C325.151 190.454 301.585 204.658 276.404 214.664L265.105 219.184L276.082 273.414L277.696 276.319L328.702 255.66L369.701 226.608L367.441 224.348L346.135 172.377Z" fill="#C2CAD6"/>
<path d="M276.082 273.413L327.734 248.881L367.764 224.025L370.024 226.285L349.686 240.811C336.127 250.495 321.277 258.565 305.459 265.021L277.696 276.319L276.082 273.413Z" fill="#322920"/>
<path d="M346.135 172.377L367.764 224.026L350.331 235.969C336.127 245.653 320.954 253.723 305.136 260.825L276.082 273.414L265.105 219.184L276.082 214.664C301.585 204.658 324.828 190.454 345.489 172.7L346.135 172.377Z" fill="#322920"/>
<path d="M368.087 223.703L346.134 172.377L345.166 173.669L367.441 224.348L369.378 226.608L370.024 226.285L368.087 223.703Z" fill="#E0E4EA"/>
<path d="M366.15 223.38L349.363 234.678C335.159 244.362 319.986 252.432 304.49 259.211L276.727 271.155L274.79 261.148L268.334 228.545L266.72 219.829L276.727 215.956C294.483 208.854 311.27 199.816 327.088 188.84C332.253 185.29 337.419 181.416 342.261 177.22C343.229 176.251 344.521 175.283 345.489 174.637L349.686 184.644L366.15 223.38Z" fill="#4D5258"/>
<path d="M356.465 215.956L349.363 211.76L342.907 204.335L335.159 196.265L326.443 188.518C331.608 184.967 336.773 181.093 341.615 176.897L344.521 179.802L355.174 204.335L355.82 207.886L356.465 215.956Z" fill="#9FB8B9"/>
<path d="M285.766 292.46V296.656L280.278 298.916V295.042L285.766 292.46Z" fill="#FFB639"/>
<path d="M371.961 242.101L371.638 246.943L366.15 250.171V245.975L371.961 242.101Z" fill="#FFB639"/>
<path d="M290.609 299.561V303.435C290.609 304.403 289.963 305.049 289.318 305.371L285.121 307.308C284.152 307.631 282.861 306.986 282.861 306.017V302.143C282.861 301.175 283.507 300.529 284.152 300.207L288.349 298.27H288.672C289.64 297.624 290.932 298.27 290.609 299.561Z" fill="#8595AD"/>
<path d="M299.971 295.364V299.237C299.971 300.206 299.325 300.852 298.679 301.174L294.16 303.434C293.191 304.08 291.9 303.111 291.9 302.143V298.269C291.9 297.301 292.546 296.655 293.191 296.332L297.388 294.395H297.711C298.679 293.427 299.971 294.073 299.971 295.364Z" fill="#8595AD"/>
<path d="M361.308 259.533V263.084C361.308 263.729 360.985 264.698 360.339 265.021L356.465 267.603C355.497 268.249 353.883 267.603 353.883 266.312V262.761C353.883 262.115 354.206 261.147 354.851 260.824L358.725 258.242C359.694 257.596 361.308 258.565 361.308 259.533Z" fill="#8595AD"/>
<path d="M369.378 254.046V257.597C369.378 258.243 369.056 259.211 368.41 259.534L364.536 262.116C363.568 262.762 361.953 262.116 361.953 260.825V257.274C361.953 256.629 362.276 255.66 362.922 255.338L366.796 252.755C368.087 251.787 369.378 252.755 369.378 254.046Z" fill="#8595AD"/>
<path d="M288.349 298.27V302.143C288.349 303.112 287.703 303.757 287.058 304.08L282.861 306.017V302.143C282.861 301.175 283.507 300.529 284.152 300.206L288.349 298.27Z" fill="#E0E4EA"/>
<path d="M297.388 294.074V297.948C297.388 298.916 296.743 299.562 296.097 299.885L291.9 301.821V297.948C291.9 296.979 292.546 296.334 293.191 296.011L297.388 294.074Z" fill="#E0E4EA"/>
<path d="M358.725 258.24V261.791C358.725 262.437 358.402 263.405 357.757 263.728L353.883 266.31V262.759C353.883 262.114 354.206 261.145 354.851 260.823L358.725 258.24Z" fill="#E0E4EA"/>
<path d="M367.119 252.431V255.982C367.119 256.628 366.796 257.596 366.15 257.919L362.276 260.501V256.95C362.276 256.305 362.599 255.336 363.245 255.014L367.119 252.431Z" fill="#E0E4EA"/>
<path d="M279.31 319.896L321.6 297.622C332.576 291.812 343.229 285.679 353.56 278.577L373.898 264.697V272.444L334.836 298.591L281.247 326.997L279.31 319.896Z" fill="#AAB5C6"/>
<path d="M333.222 293.105C346.458 285.357 373.898 266.635 373.898 266.635V265.021L353.56 278.901C343.229 285.68 332.576 292.136 321.6 297.947L279.31 320.22L280.924 327.322L280.278 320.866C280.601 320.866 319.986 300.529 333.222 293.105Z" fill="#F7F6F5"/>
<path d="M281.247 326.998L278.987 328.935L322.245 306.661C330.316 302.465 338.387 297.623 346.135 292.458L371.961 274.704L374.22 272.767L335.158 298.914L281.247 326.998Z" fill="#607594"/>
<path d="M371.315 257.595L370.024 258.241V250.171L371.638 248.557L371.315 257.595Z" fill="#AAB5C6"/>
<path d="M301.584 290.846V295.688L319.017 287.295C327.733 283.099 336.127 277.934 343.875 272.124L352.591 265.668L352.914 260.826L344.197 267.282C335.804 273.738 326.442 279.225 317.08 283.422L301.584 290.846Z" fill="#655E57"/>
<path d="M322.891 281.161V284.067L332.576 278.579V275.674L322.891 281.161Z" fill="#DCDB48"/>
<path d="M301.262 297.947V299.561L318.695 291.168C327.411 286.972 335.805 281.807 343.552 275.996L352.269 269.54L352.592 267.604L343.875 274.06C335.482 280.516 326.12 286.003 316.758 290.2L301.262 297.947Z" fill="#A5A9B2"/>
<path d="M349.686 184.642L336.773 194.649C322.569 204.333 307.396 212.403 291.9 219.182L268.334 228.866L266.72 220.15L276.727 216.277C294.483 209.175 311.27 200.136 327.088 189.161C332.253 185.61 337.419 181.737 342.261 177.54C343.229 176.572 344.521 175.604 345.489 174.958L349.686 184.642Z" fill="#322920"/>
<path d="M280.278 294.074V294.719V298.916L279.633 313.119L277.05 311.505C276.081 310.859 275.436 309.568 275.436 308.277L276.404 293.428C276.404 292.782 277.05 292.46 277.696 292.782L280.278 294.074Z" fill="#322920"/>
<path d="M280.278 295.043V299.239L278.019 297.625C277.373 297.302 277.05 296.657 277.05 295.688V294.397C277.05 293.751 278.019 293.106 278.664 293.751L280.278 295.043Z" fill="#FF4800"/>
<path d="M280.924 300.528L279.956 300.85L278.342 300.205C278.019 299.882 277.373 300.205 277.373 300.85C277.05 303.433 276.727 308.92 277.05 309.566C277.373 310.212 279.633 311.503 279.956 311.503C279.956 311.503 281.893 310.857 281.893 310.212C281.893 309.566 282.215 304.401 282.215 301.819C281.893 300.85 281.247 300.528 280.924 300.528Z" fill="#AAB5C6"/>
<path d="M366.15 223.379L349.363 234.677C335.159 244.361 319.986 252.431 304.49 259.21L276.727 271.154L274.791 261.147L324.506 237.582L352.592 219.183L366.15 223.379Z" fill="#737F82"/>
<path d="M318.695 208.209L319.986 209.5L323.86 207.563H325.474L326.766 209.823L326.443 211.437L321.6 214.987L312.884 219.184L311.593 218.861L310.624 215.956L311.916 214.019L317.081 211.114L315.467 209.823L317.081 208.209H318.695Z" fill="#737F82"/>
</svg>
