<svg width="576" height="561" viewBox="0 0 576 561" fill="none" xmlns="http://www.w3.org/2000/svg">
<path d="M3.6 560.788L31.0235 544.923L58.4471 560.788H60.6706L32.0824 544.289L61.3059 527.366L90.7412 544.395L62.4706 560.788H64.6941L91.9059 545.029L119.118 560.788H121.341L92.9647 544.395L122.188 527.472L151.624 544.5L123.459 560.788H125.682L152.788 545.135L179.894 560.788H182.118L153.953 544.5L183.176 527.578L212.612 544.606L184.659 560.788H186.882L213.776 545.347L240.671 560.788H242.894L214.941 544.712L244.165 527.789L273.6 544.818L245.859 560.788H248.082L274.765 545.452L301.447 560.788H303.671L275.824 544.818L305.047 527.895L334.482 544.923L306.847 560.788H309.071L335.541 545.558L362.012 560.788H364.235L336.6 544.923L365.824 528.001L395.259 545.029L367.835 560.788H370.059L396.318 545.664L422.577 560.788H424.8L397.376 545.029L426.6 528.107L456.035 545.135L428.824 560.788H431.047L457.2 545.77L483.353 560.788H485.577L458.365 545.135L487.588 528.212L517.024 545.241L490.024 560.788H492.247L518.188 545.875L544.129 560.788H546.353L519.353 545.241L548.576 528.318L575.682 543.972V542.702L549.635 527.684L575.682 512.665V511.395L548.576 527.049L519.141 510.02L548.365 493.098L575.682 508.857V507.588L549.424 492.463L575.682 477.339V476.069L548.576 491.934L519.141 474.906L548.365 457.983L575.894 473.848V472.579L549.424 457.349L575.894 442.118V440.849L548.365 456.714L518.929 439.686L548.153 422.763L575.894 438.734V437.465L549.318 422.128L575.894 406.792V405.523L548.153 421.494L518.824 404.677L548.047 387.754L576 403.831V402.562L549.212 387.12L576 371.678V370.408L548.047 386.485L518.612 369.457L547.835 352.534L575.894 368.716V367.447L548.894 351.899L576 336.457V335.188L547.941 351.37L518.506 334.342L547.729 317.419L576 333.707V332.438L548.788 316.785L576 301.131V299.862L547.729 316.15L518.294 299.122L547.518 282.199L576 298.593V297.324L548.576 281.564L576 265.911V264.642L547.518 281.036L518.082 264.007L547.306 247.085L576 263.796V262.526L548.471 246.661L576 230.796V229.527L547.306 246.027L517.871 228.998L547.094 212.076L576 228.787V227.518L548.259 211.547L576 195.47V194.201L547.094 210.807L517.659 193.778L546.882 176.855L576 193.672V192.403L548.047 176.327L571.129 163H568.906L546.882 175.692L524.859 163H522.635L545.718 176.327L516.494 193.249L487.059 176.221L510.035 163H507.812L486 175.586L464.188 163H461.965L484.835 176.221L455.612 193.144L426.176 176.115L448.835 163H446.612L425.012 175.48L403.412 163H401.188L423.953 176.115L394.729 193.038L365.294 176.009L387.741 163H385.518L364.129 175.375L342.741 163H340.518L363.071 176.009L333.847 192.932L304.412 175.904L326.647 163H324.424L303.141 175.269L281.965 163H279.741L302.082 175.904L272.859 192.826L243.424 175.798L265.553 163H263.329L242.259 175.163L221.188 163H218.965L241.094 175.798L211.871 192.72L182.435 175.692L204.353 163H202.129L181.271 175.057L160.518 163H158.294L180.212 175.692L150.988 192.615L121.553 175.586L143.259 163H141.035L120.388 174.952L99.7412 163H97.5177L119.329 175.586L90 192.403L60.5647 175.48L82.1647 163H79.9412L59.5059 174.846L38.9647 163H36.7412L58.3412 175.48L29.1176 192.403L0 175.586V176.855L27.9529 193.038L0 209.114V210.383L29.1176 193.567L58.5529 210.595L29.3294 227.518L0 210.595V211.864L28.1647 228.152L0 244.335V246.873L28.3765 263.267L0 279.555V281.882L28.5882 298.381L0 314.881V316.996L28.8 333.602L0 350.101V352.005L28.9059 368.716L0 385.322V387.014L29.1176 403.831L0 420.648V422.023L29.3294 438.945L0.105882 455.868H0V457.243H0.105882L29.5412 474.271L0.317647 491.194L0 490.771V492.357L0.211765 492.252L29.6471 509.28L0.423529 526.203L0 525.885V527.684L0.423529 527.472L29.8588 544.5L1.27059 561H3.6V560.788ZM31.8706 509.174L61.0941 492.252L90.5294 509.28L61.3059 526.203L31.8706 509.174ZM212.824 369.668L242.259 386.697L213.035 403.619L183.6 386.591L212.824 369.668ZM182.435 385.85L153 368.822L182.224 351.899L211.659 368.928L182.435 385.85ZM213.988 369.033L243.212 352.111L272.647 369.139L243.424 386.062L213.988 369.033ZM273.812 369.774L303.247 386.802L274.024 403.725L244.588 386.697L273.812 369.774ZM274.871 369.139L304.094 352.217L333.529 369.245L304.306 386.168L274.871 369.139ZM334.694 369.88L364.129 386.908L334.906 403.831L305.471 386.802L334.694 369.88ZM335.753 369.245L364.977 352.322L394.412 369.351L365.294 386.168L335.753 369.245ZM395.682 369.985L425.118 387.014L395.894 403.936L366.353 386.802L395.682 369.985ZM366.141 351.688L395.365 334.765L424.8 351.794L395.577 368.716L366.141 351.688ZM365.082 351.053L335.647 334.025L364.871 317.102L394.306 334.13L365.082 351.053ZM363.918 351.688L334.694 368.61L305.259 351.582L334.482 334.659L363.918 351.688ZM304.094 350.947L274.659 333.919L303.882 316.996L333.318 334.025L304.094 350.947ZM303.035 351.582L273.812 368.505L244.376 351.476L273.6 334.554L303.035 351.582ZM243.212 350.842L213.776 333.813L243 316.891L272.435 333.919L243.212 350.842ZM242.153 351.476L212.929 368.399L183.494 351.37L212.718 334.448L242.153 351.476ZM182.329 350.736L152.894 333.707L182.118 316.785L211.553 333.813L182.329 350.736ZM181.165 351.37L151.941 368.293L122.506 351.265L151.729 334.342L181.165 351.37ZM181.376 386.485L152.153 403.408L122.718 386.379L151.941 369.457L181.376 386.485ZM181.588 421.6L152.365 438.522L122.824 421.494L152.047 404.571L181.588 421.6ZM153.212 404.042L182.435 387.12L211.871 404.148L182.647 421.071L153.212 404.042ZM213.035 404.783L242.471 421.811L213.247 438.734L183.812 421.705L213.035 404.783ZM214.094 404.148L243.318 387.225L272.753 404.254L243.529 421.176L214.094 404.148ZM273.918 404.888L303.353 421.917L274.129 438.839L244.694 421.811L273.918 404.888ZM275.082 404.254L304.306 387.331L333.741 404.36L304.518 421.282L275.082 404.254ZM334.906 404.994L364.341 422.023L335.118 438.945L305.682 421.917L334.906 404.994ZM335.965 404.36L365.188 387.437L394.624 404.465L365.4 421.388L335.965 404.36ZM395.788 405.1L425.224 422.128L396 439.051L366.565 422.023L395.788 405.1ZM396.953 404.465L426.176 387.543L455.612 404.571L426.388 421.494L396.953 404.465ZM396.741 369.351L425.965 352.428L455.4 369.457L426.176 386.379L396.741 369.351ZM396.529 334.13L425.753 317.208L455.188 334.236L425.965 351.159L396.529 334.13ZM425.859 316.044L396.424 299.016L425.647 282.093L455.082 299.122L425.859 316.044ZM424.694 316.679L395.471 333.602L366.035 316.573L395.259 299.651L424.694 316.679ZM364.871 315.939L335.435 298.91L364.659 281.988L394.094 299.016L364.871 315.939ZM363.812 316.573L334.588 333.496L305.153 316.467L334.376 299.545L363.812 316.573ZM303.988 315.833L274.553 298.804L303.776 281.882L333.212 298.91L303.988 315.833ZM302.824 316.467L273.6 333.39L244.165 316.362L273.388 299.439L302.824 316.467ZM243 315.727L213.565 298.699L242.788 281.776L272.224 298.804L243 315.727ZM241.941 316.362L212.718 333.284L183.176 316.256L212.4 299.333L241.941 316.362ZM182.118 315.621L152.682 298.593L181.906 281.67L211.341 298.699L182.118 315.621ZM180.953 316.256L151.729 333.179L122.294 316.15L151.518 299.227L180.953 316.256ZM121.129 315.516L91.6941 298.487L120.918 281.564L150.353 298.593L121.129 315.516ZM121.129 316.785L150.565 333.813L121.341 350.736L91.9059 333.707L121.129 316.785ZM121.341 351.899L150.776 368.928L121.553 385.85L92.1177 368.716L121.341 351.899ZM150.988 404.042L121.765 420.965L92.3294 403.936L121.553 387.014L150.988 404.042ZM151.2 439.157L121.976 456.079L92.4353 439.051L121.659 422.128L151.2 439.157ZM152.259 439.791L181.694 456.82L152.471 473.742L123.035 456.714L152.259 439.791ZM153.424 439.157L182.647 422.234L212.082 439.263L182.859 456.185L153.424 439.157ZM213.247 439.897L242.682 456.926L213.459 473.848L184.024 456.82L213.247 439.897ZM214.306 439.263L243.529 422.34L272.965 439.368L243.741 456.291L214.306 439.263ZM274.129 440.003L303.565 457.031L274.341 473.954L244.906 456.926L274.129 440.003ZM275.294 439.368L304.518 422.446L333.953 439.474L304.729 456.397L275.294 439.368ZM335.118 440.109L364.553 457.137L335.329 474.06L305.788 457.031L335.118 440.109ZM336.176 439.474L365.4 422.551L394.835 439.58L365.612 456.503L336.176 439.474ZM396 440.214L425.435 457.243L396.212 474.166L366.776 457.137L396 440.214ZM397.165 439.58L426.388 422.657L455.824 439.686L426.6 456.608L397.165 439.58ZM456.988 440.32L486.424 457.349L457.2 474.271L427.765 457.243L456.988 440.32ZM427.447 422.128L456.671 405.206L486.106 422.234L456.882 439.157L427.447 422.128ZM427.341 386.908L456.565 369.985L486 387.014L456.776 403.936L427.341 386.908ZM427.129 351.794L456.353 334.871L485.788 351.899L456.565 368.822L427.129 351.794ZM456.353 333.602L426.918 316.573L456.141 299.651L485.577 316.679L456.353 333.602ZM456.141 298.487L426.706 281.564L455.929 264.642L485.365 281.67L456.141 298.487ZM425.647 280.93L396.212 263.901L425.435 246.979L454.871 264.007L425.647 280.93ZM424.482 281.564L395.259 298.487L365.824 281.459L395.047 264.536L424.482 281.564ZM364.659 280.824L335.224 263.796L364.447 246.873L393.882 263.901L364.659 280.824ZM363.6 281.459L334.376 298.381L304.941 281.353L334.165 264.43L363.6 281.459ZM303.776 280.718L274.341 263.69L303.565 246.767L333 263.796L303.776 280.718ZM302.612 281.353L273.388 298.276L243.953 281.247L273.176 264.324L302.612 281.353ZM242.788 280.507L213.353 263.478L242.576 246.556L272.118 263.69L242.788 280.507ZM241.729 281.141L212.506 298.064L183.071 281.036L212.294 264.113L241.729 281.141ZM181.906 280.401L152.471 263.478L181.694 246.556L211.129 263.584L181.906 280.401ZM180.847 281.036L151.624 297.958L122.188 280.93L151.412 264.007L180.847 281.036ZM120.918 280.295L91.4824 263.373L120.706 246.45L150.247 263.478L120.918 280.295ZM119.859 280.93L90.6353 297.853L61.2 280.824L90.4235 263.901L119.859 280.93ZM90.6353 299.122L120.071 316.15L90.8471 333.073L61.4118 316.044L90.6353 299.122ZM120.282 351.265L91.0588 368.187L61.6235 351.159L90.8471 334.236L120.282 351.265ZM120.388 386.379L91.1647 403.302L61.7294 386.273L90.9529 369.351L120.388 386.379ZM120.6 421.494L91.3765 438.416L61.9412 421.388L91.1647 404.465L120.6 421.494ZM120.812 456.714L91.5882 473.637L62.1529 456.608L91.3765 439.686L120.812 456.714ZM121.024 491.829L91.8 508.751L62.3647 491.723L91.5882 474.8L121.024 491.829ZM92.6471 474.166L121.871 457.243L151.306 474.271L122.082 491.194L92.6471 474.166ZM152.471 474.906L181.906 491.934L152.682 508.857L123.247 491.829L152.471 474.906ZM153.635 474.271L182.859 457.349L212.294 474.377L183.071 491.3L153.635 474.271ZM213.459 475.012L242.894 492.04L213.671 508.963L184.129 491.934L213.459 475.012ZM214.518 474.377L243.741 457.454L273.176 474.483L243.953 491.406L214.518 474.377ZM274.341 475.117L303.776 492.146L274.553 509.069L245.118 492.04L274.341 475.117ZM275.4 474.483L304.624 457.56L334.059 474.589L304.835 491.511L275.4 474.483ZM335.224 475.223L364.659 492.252L335.435 509.174L306 492.146L335.224 475.223ZM336.388 474.589L365.612 457.666L395.047 474.694L365.824 491.617L336.388 474.589ZM396.212 475.329L425.647 492.357L396.424 509.28L366.988 492.252L396.212 475.329ZM397.271 474.694L426.494 457.772L455.929 474.8L426.706 491.723L397.271 474.694ZM457.094 475.435L486.529 492.463L457.306 509.386L427.871 492.357L457.094 475.435ZM458.259 474.8L487.482 457.877L516.918 474.906L487.694 491.829L458.259 474.8ZM458.047 439.686L487.271 422.763L516.706 439.791L487.482 456.714L458.047 439.686ZM457.835 404.571L487.059 387.648L516.494 404.677L487.271 421.6L457.835 404.571ZM457.624 369.457L486.847 352.534L516.282 369.562L487.059 386.485L457.624 369.457ZM457.518 334.236L486.741 317.314L516.177 334.342L486.953 351.265L457.518 334.236ZM486.741 316.15L457.306 299.122L486.529 282.199L515.965 299.227L486.741 316.15ZM486.529 281.036L457.094 264.007L486.318 247.085L515.753 264.113L486.529 281.036ZM456.882 228.893L486.106 211.97L515.647 228.998L486.424 245.921L456.882 228.893ZM485.259 246.45L456.035 263.373L426.6 246.344L455.824 229.421L485.259 246.45ZM425.435 245.71L396 228.787L425.224 211.864L454.659 228.893L425.435 245.71ZM424.376 246.344L395.153 263.267L365.718 246.238L394.941 229.316L424.376 246.344ZM364.447 245.604L335.012 228.575L364.235 211.653L393.671 228.681L364.447 245.604ZM363.388 246.238L334.165 263.161L304.729 246.133L333.953 229.21L363.388 246.238ZM303.565 245.498L274.129 228.575L303.353 211.653L332.788 228.681L303.565 245.498ZM302.506 246.133L273.282 263.055L243.847 246.027L273.071 229.104L302.506 246.133ZM242.682 245.392L213.247 228.364L242.471 211.441L271.906 228.575L242.682 245.392ZM241.518 246.027L212.294 262.95L182.859 245.921L212.082 228.998L241.518 246.027ZM181.694 245.286L152.259 228.258L181.482 211.335L210.918 228.364L181.694 245.286ZM180.635 245.921L151.412 262.844L121.976 245.815L151.2 228.893L180.635 245.921ZM120.812 245.181L91.2706 228.258L120.494 211.335L149.929 228.364L120.812 245.181ZM119.647 245.815L90.4235 262.738L60.9882 245.71L90.2118 228.787L119.647 245.815ZM89.2588 263.373L60.0353 280.295L30.6 263.267L59.8235 246.344L89.2588 263.373ZM60.0353 281.459L89.4706 298.487L60.2471 315.41L30.8118 298.381L60.0353 281.459ZM60.2471 316.679L89.6824 333.707L60.4588 350.63L31.0235 333.602L60.2471 316.679ZM60.4588 351.794L89.8941 368.822L60.6706 385.745L31.2353 368.716L60.4588 351.794ZM90.1059 403.936L60.8824 420.859L31.4471 403.831L60.6706 386.908L90.1059 403.936ZM90.2118 439.051L60.9882 455.974L31.5529 438.945L60.7765 422.023L90.2118 439.051ZM90.4235 474.166L61.2 491.088L31.7647 474.06L60.9882 457.137L90.4235 474.166ZM91.9059 543.866L62.4706 526.837L91.6941 509.915L121.129 526.943L91.9059 543.866ZM92.8588 509.28L122.082 492.357L151.518 509.386L122.294 526.309L92.8588 509.28ZM152.894 543.972L123.459 526.943L152.682 510.02L182.118 527.049L152.894 543.972ZM153.741 509.386L182.965 492.463L212.4 509.492L183.176 526.414L153.741 509.386ZM213.776 544.077L184.341 527.049L213.565 510.126L243 527.155L213.776 544.077ZM214.729 509.492L243.953 492.569L273.388 509.597L244.165 526.52L214.729 509.492ZM274.765 544.183L245.329 527.155L274.553 510.232L303.988 527.26L274.765 544.183ZM275.612 509.703L304.835 492.78L334.271 509.809L305.047 526.732L275.612 509.703ZM335.647 544.289L306.212 527.26L335.435 510.338L364.871 527.366L335.647 544.289ZM336.6 509.809L365.824 492.886L395.259 509.915L366.035 526.837L336.6 509.809ZM396.635 544.395L367.2 527.366L396.424 510.444L425.859 527.472L396.635 544.395ZM426.918 526.837L397.482 509.915L426.706 492.992L456.141 510.02L426.918 526.837ZM457.518 544.5L428.082 527.472L457.306 510.549L486.741 527.578L457.518 544.5ZM487.906 526.943L458.471 510.02L487.694 493.098L517.129 510.126L487.906 526.943ZM547.729 527.684L518.506 544.606L489.071 527.578L518.294 510.655L547.729 527.684ZM547.518 492.569L518.294 509.492L488.859 492.463L518.082 475.541L547.518 492.569ZM547.306 457.454L518.082 474.377L488.647 457.349L517.871 440.426L547.306 457.454ZM547.094 422.34L517.871 439.263L488.435 422.234L517.659 405.311L547.094 422.34ZM546.988 387.12L517.765 404.042L488.329 387.014L517.553 370.091L546.988 387.12ZM546.777 352.005L517.553 368.928L488.118 351.899L517.341 334.977L546.777 352.005ZM546.565 316.891L517.341 333.813L487.906 316.785L517.129 299.862L546.565 316.891ZM546.353 281.776L517.129 298.699L487.694 281.67L516.918 264.748L546.353 281.776ZM546.141 246.556L516.918 263.478L487.482 246.45L516.706 229.633L546.141 246.556ZM546.035 211.441L516.812 228.364L487.376 211.335L516.6 194.413L546.035 211.441ZM486 176.855L515.435 193.884L486.212 210.807L456.776 193.778L486 176.855ZM485.047 211.335L455.824 228.258L426.388 211.23L455.612 194.307L485.047 211.335ZM425.012 176.75L454.447 193.778L425.224 210.701L395.788 193.672L425.012 176.75ZM424.165 211.23L394.941 228.152L365.506 211.124L394.729 194.201L424.165 211.23ZM364.129 176.644L393.565 193.672L364.341 210.595L334.906 193.567L364.129 176.644ZM333.741 194.095L363.176 211.124L333.953 228.047L304.518 211.018L333.741 194.095ZM303.141 176.538L332.577 193.567L303.353 210.489L273.918 193.461L303.141 176.538ZM272.859 193.99L302.294 211.018L273.071 227.941L243.529 210.912L272.859 193.99ZM242.259 176.432L271.694 193.461L242.471 210.383L213.035 193.355L242.259 176.432ZM211.871 193.884L241.306 210.912L212.082 227.835L182.647 210.807L211.871 193.884ZM181.376 176.327L210.812 193.355L181.588 210.278L152.153 193.249L181.376 176.327ZM150.988 193.778L180.424 210.807L151.2 227.729L121.765 210.701L150.988 193.778ZM120.388 176.221L149.824 193.249L120.6 210.172L91.1647 193.038L120.388 176.221ZM90 193.672L119.435 210.701L90.2118 227.623L60.7765 210.595L90 193.672ZM30.1765 192.932L59.4 176.009L88.9412 193.038L59.7177 209.96L30.1765 192.932ZM59.6118 211.23L89.0471 228.258L59.8235 245.181L30.3882 228.047L59.6118 211.23ZM0 245.604L29.2235 228.681L58.6588 245.71L29.4353 262.632L0 245.604ZM0.211765 280.718L29.4353 263.796L58.8706 280.824L29.6471 297.747L0.211765 280.718ZM0.423529 315.939L29.6471 299.016L59.0824 316.044L29.8588 332.967L0.423529 315.939ZM0.635294 351.053L29.8588 334.13L59.2941 351.159L30.0706 368.082L0.635294 351.053ZM0.741176 386.168L29.9647 369.245L59.4 386.273L30.1765 403.196L0.741176 386.168ZM0.952941 421.282L30.1765 404.36L59.6118 421.388L30.3882 438.311L0.952941 421.282ZM1.16471 456.503L30.3882 439.58L59.8235 456.608L30.6 473.531L1.16471 456.503ZM1.37647 491.617L30.6 474.694L60.0353 491.723L30.8118 508.645L1.37647 491.617ZM1.58824 526.732L30.8118 509.809L60.2471 526.837L31.0235 543.76L1.58824 526.732Z" fill="#F2F2F3"/>
<path d="M277.991 -0.000488281L262.235 8.99008L266.287 346.137L551.244 514.26L567 505.27V167.224L277.991 -0.000488281ZM484.169 360.521L340.565 277.808V95.2996L484.169 178.462V360.521Z" fill="#665D47"/>
<path d="M262.235 8.99023V347.485L551.244 514.71V175.765L262.235 8.99023ZM340.565 95.2997L484.169 178.463V360.522L340.565 277.808V95.2997Z" fill="#827C5A"/>
<path d="M326.159 86.7573V285.899L340.565 277.807V95.2984L326.159 86.7573Z" fill="#474536"/>
<path d="M551.244 175.767V514.711L567 505.721V167.226L551.244 175.767Z" fill="#474536"/>
<path d="M484.169 368.164L444.104 351.532L472.464 374.907V383.898L484.169 377.155V368.164Z" fill="#B57745"/>
<path d="M472.464 374.903L327.96 284.998L322.558 288.144V297.135L472.464 383.894V374.903Z" fill="#CDA483"/>
<path d="M340.565 277.807L322.558 288.146L472.464 374.905L484.169 368.162V360.52L340.565 277.807Z" fill="#FFCB9E"/>
<path d="M309.053 441.438C291.946 451.327 264.486 451.327 247.83 441.438C230.723 431.548 230.723 415.815 247.83 405.925C264.936 396.035 292.397 396.035 309.053 405.925C325.709 415.815 325.709 431.548 309.053 441.438Z" fill="#ACB5B4"/>
<path d="M526.034 542.583C508.928 552.472 481.468 552.472 464.811 542.583C447.705 532.693 447.705 516.96 464.811 507.07C481.918 497.18 509.378 497.18 526.034 507.07C542.691 516.96 542.691 532.693 526.034 542.583Z" fill="#ACB5B4"/>
<path d="M333.362 220.716C332.912 222.065 325.709 230.157 325.709 231.056C325.259 231.505 322.108 242.294 319.857 247.239C317.606 252.183 312.654 264.321 307.702 264.77C302.75 265.22 298.249 262.523 294.197 260.725C290.146 258.926 285.644 253.532 285.644 253.532C283.843 249.936 284.744 248.138 286.995 246.789C288.795 245.89 290.596 245.441 292.397 244.991C294.197 244.541 295.998 244.541 295.998 244.991C296.448 245.441 302.75 249.486 302.75 249.486C302.75 249.486 312.204 239.147 314.005 234.202C315.355 230.606 317.156 227.459 318.056 225.212C318.506 224.313 318.506 223.863 318.506 223.414C318.957 221.616 322.558 218.019 323.008 217.57C323.008 217.12 327.06 218.469 329.761 219.368C332.462 219.817 333.812 220.267 333.362 220.716Z" fill="#FAC5A8"/>
<path d="M325.709 211.28C325.709 211.28 326.61 212.179 325.709 213.527C324.809 215.325 323.909 216.224 323.909 216.224L323.008 217.573V220.72C323.008 220.72 322.558 224.316 321.658 225.215C321.208 226.114 319.407 226.114 318.957 225.665C318.507 225.215 319.407 216.674 319.857 216.224C320.307 215.775 321.658 214.876 322.558 213.527C323.909 212.628 323.909 210.381 325.709 211.28Z" fill="#FAC5A8"/>
<path d="M296.448 245.889C295.548 245.439 294.647 245.439 292.847 244.99C294.647 244.54 296.448 244.54 296.448 244.99C296.898 245.439 303.2 249.485 303.2 249.485C303.2 249.485 312.654 239.146 314.455 234.201C315.805 230.605 317.606 227.458 318.506 225.21C317.606 227.908 315.805 232.852 314.905 235.999C313.104 240.045 305.001 249.485 305.001 249.485L304.551 251.733L304.101 255.329L303.2 250.384C303.2 250.384 300.95 247.237 296.448 245.889Z" fill="#F8D1BC"/>
<path d="M333.362 220.718C332.912 222.067 325.709 230.158 325.709 231.057C325.259 231.507 322.108 242.295 319.857 247.24C317.606 252.185 312.654 264.322 307.702 264.772C302.75 265.221 298.249 262.524 294.197 260.726C290.146 258.928 285.644 253.534 285.644 253.534C283.843 249.937 284.744 248.139 286.995 246.791C286.995 247.69 286.995 249.038 286.995 250.836C286.995 250.836 288.345 254.882 294.647 258.928C300.95 262.974 304.101 262.974 305.452 263.423C308.153 263.873 309.953 261.625 313.104 256.68C316.256 251.736 320.307 242.745 321.207 239.149C322.108 235.552 323.458 227.011 323.458 227.011C323.458 227.011 328.41 223.415 330.211 218.92C332.462 219.819 333.812 220.268 333.362 220.718Z" fill="#F8D1BC"/>
<path d="M297.349 244.543C297.349 244.543 298.249 247.69 294.648 249.488C291.046 251.286 287.895 255.332 286.094 255.332C283.844 254.882 274.39 231.956 275.741 231.057C277.091 230.158 276.641 227.911 277.541 227.911C278.442 227.911 288.795 236.002 290.146 237.351C291.046 239.149 297.349 244.543 297.349 244.543Z" fill="#203581"/>
<path d="M458.509 357.373C458.509 357.373 458.509 357.823 458.509 358.722C458.059 361.869 456.258 370.41 454.458 370.859H454.007C451.306 369.061 449.956 365.465 449.055 361.869C448.155 357.823 448.155 347.484 448.155 347.484L443.653 344.337C443.653 344.337 442.753 343.438 441.403 342.089C440.052 340.741 438.702 338.943 439.152 338.493C439.152 337.145 449.506 336.246 449.506 336.246L458.509 342.539L459.409 342.989C459.409 342.989 458.959 344.787 458.509 345.686C458.059 346.585 458.509 347.484 458.509 347.933C458.509 348.383 458.959 351.08 458.959 353.777C458.509 355.575 458.509 357.373 458.509 357.373Z" fill="#FAC5A8"/>
<path d="M471.564 360.969C470.213 362.318 464.811 369.96 463.011 370.859C461.21 371.758 458.509 373.106 456.708 373.106C455.808 373.106 454.908 372.207 453.557 370.859C450.856 369.061 449.506 365.464 448.605 361.868C447.705 357.822 447.705 347.483 447.705 347.483L443.203 344.337C443.203 344.337 442.303 343.437 440.952 342.089C440.952 342.089 445.454 345.236 445.904 345.685C446.354 346.135 449.055 347.034 449.055 347.034C449.055 347.034 449.055 351.529 449.055 352.878C449.055 354.226 449.055 359.171 448.605 360.52C448.605 361.868 450.406 365.464 450.406 365.464C450.406 365.464 450.406 365.914 450.856 366.363C451.756 367.712 453.557 370.409 454.007 371.308C454.908 372.657 457.609 372.657 458.959 372.207C460.31 371.758 463.911 368.162 464.811 366.363C465.712 365.015 467.512 361.868 467.512 361.868L469.763 357.822C471.114 359.171 472.014 360.52 471.564 360.969Z" fill="#F8D1BC"/>
<path d="M438.701 338.046C438.701 338.046 441.852 341.193 443.203 341.642C444.553 342.092 446.804 340.743 446.804 340.743H450.856L457.158 341.642L449.055 335.798C449.055 335.798 442.753 336.697 440.502 337.147C438.251 337.147 438.701 338.046 438.701 338.046Z" fill="#F8D1BC"/>
<path d="M365.324 282.753L333.362 264.322L324.809 143.399L323.458 121.821L321.658 120.473L322.558 135.307L332.012 265.221L366.224 285L365.324 282.753ZM320.757 120.922L322.558 122.271L320.757 120.922ZM463.911 184.306L316.706 98.8955L311.304 102.941L325.259 264.772L325.709 269.716L470.664 355.576L476.066 351.98L463.911 184.306ZM369.376 287.698L365.324 285.45V283.202L333.362 264.772L324.809 143.848L323.458 122.271L321.658 120.922L322.558 135.757L332.012 265.671L321.658 120.922L320.307 112.831V111.932L363.073 136.656L373.427 289.945L369.376 287.698ZM377.929 290.395L367.575 145.646L403.588 166.325L413.942 311.073L377.929 290.395ZM423.396 318.715L413.942 188.801L413.042 173.967L414.843 174.866L446.805 193.297L456.258 324.559L457.159 335.797V338.045L423.396 318.715ZM320.757 120.922L322.558 122.271L320.757 120.922ZM365.324 282.753L333.362 264.322L324.809 143.399L323.458 121.821L321.658 120.473L322.558 135.307L332.012 265.221L366.224 285L365.324 282.753Z" fill="#7B7F8B"/>
<path d="M458.959 187.901L311.304 102.94L323.458 270.614L471.114 355.575L458.959 187.901ZM320.757 120.921L322.558 122.27L324.359 123.169L354.52 140.7L365.324 282.751V284.999L331.111 265.22L320.757 120.921ZM413.042 173.965L414.843 174.865L446.805 193.295L456.258 324.558L457.159 335.796V338.043L422.946 318.264L413.942 188.8L413.042 173.965ZM404.039 166.323L414.393 311.072L378.379 290.393L368.025 145.645L404.039 166.323Z" fill="#C5C7CF"/>
<path d="M408.991 163.179L408.541 163.628L362.173 137.106L362.624 136.657L408.991 163.179Z" fill="#DBDCE0"/>
<path d="M362.173 137.104L373.428 294.889L417.544 320.512L419.345 321.411L408.091 163.626L362.173 137.104ZM414.393 311.072L378.379 290.393L368.026 145.645L404.039 166.323L414.393 311.072Z" fill="#E8E9F0"/>
<path d="M465.712 347.935L463.911 348.834L458.959 332.651L456.708 325.009L447.255 193.747L414.843 174.867L413.042 173.968L413.942 188.802L406.74 164.977L408.54 163.628L454.457 190.151L465.712 347.935Z" fill="#9497A1"/>
<path d="M459.41 337.146L457.159 336.247L456.708 325.009L447.255 193.746L414.843 174.866V172.619L449.056 192.398L458.959 332.651L459.41 337.146Z" fill="#FFFEFF"/>
<path d="M373.427 294.439L371.626 295.787L369.375 287.696L366.674 279.604L364.424 271.962L354.97 140.25L324.809 123.168L323.008 121.82L324.359 143.397L322.108 135.755V135.306L314.455 111.481L316.256 110.582L320.307 112.829L362.173 137.104L373.427 289.943V294.439Z" fill="#9497A1"/>
<path d="M362.173 137.105L360.372 138.004L314.455 111.481L316.256 110.133L362.173 137.105Z" fill="#DBDCE0"/>
<path d="M367.125 284.099L365.324 282.751L364.424 271.962L354.97 140.25L324.809 123.168L323.008 121.819L322.558 119.572L356.771 139.351L366.675 279.604L367.125 284.099Z" fill="#FFFEFF"/>
<path d="M414.843 172.615L425.197 317.363L459.41 337.143L458.959 334.895L426.997 316.464L416.643 173.964L414.843 172.615Z" fill="#9497A1"/>
<path d="M367.575 145.644L377.929 290.392L414.393 311.07L413.943 308.822L379.73 289.043L369.826 146.543L367.575 145.644Z" fill="#9497A1"/>
<path d="M413.942 308.824L414.392 311.072L377.929 290.393L379.729 289.045L413.942 308.824Z" fill="#DBDCE0"/>
<path d="M322.558 119.572L332.912 264.32L367.125 284.1V281.852L334.713 262.972L324.809 120.471L322.558 119.572Z" fill="#9497A1"/>
<path d="M408.54 165.875L406.74 164.976L417.994 322.761L463.911 349.283L452.657 191.498L408.54 165.875ZM457.609 338.494L423.396 318.715L413.042 173.967L447.255 193.746L457.609 338.494Z" fill="#F4F5FA"/>
<path d="M314.455 111.481L325.709 269.266L371.626 295.788L360.372 138.004L314.455 111.481ZM365.324 285.449L331.111 265.67L320.757 120.922L322.558 122.27L324.359 123.169L354.52 140.701L365.324 285.449Z" fill="#F4F5FA"/>
<path d="M413.042 173.967L423.396 318.715L457.609 338.494L457.159 336.247L425.197 317.366L414.843 174.866L413.042 173.967Z" fill="#9497A1"/>
<path d="M457.158 336.245L457.608 338.493L423.396 318.714L425.196 317.365L457.158 336.245Z" fill="#DBDCE0"/>
<path d="M320.757 120.921L331.111 265.669L365.324 285.448V282.751L332.912 264.321L323.008 121.82L320.757 120.921Z" fill="#9497A1"/>
<path d="M365.324 282.75V285.447L331.111 265.668L332.912 264.319L365.324 282.75Z" fill="#DBDCE0"/>
<path d="M357.221 289.495L358.572 289.046L360.822 287.697L359.022 284.101L353.62 281.853L349.568 279.606L348.218 275.56L351.369 274.661L351.819 272.863L350.018 271.964L338.764 274.661L345.067 283.652L350.018 287.697L357.221 289.495Z" fill="#7B7F8B"/>
<path d="M323.008 121.821L332.912 264.321L365.324 282.752L364.874 280.504L334.713 262.973L324.809 123.169L323.008 121.821Z" fill="#9497A1"/>
<path d="M369.826 146.543L379.729 289.044L413.942 308.823V306.576L381.53 287.695L371.626 147.892L369.826 146.543Z" fill="#9497A1"/>
<path d="M414.843 174.868L425.197 317.368L457.159 336.248V333.551L426.997 316.469L417.094 176.216L414.843 174.868Z" fill="#9497A1"/>
<path d="M454.457 190.152L452.657 191.5L406.74 164.978L408.54 163.629L454.457 190.152Z" fill="#DBDCE0"/>
<path d="M364.874 215.772L365.325 216.671L366.225 228.808H365.325L363.524 227.909L363.074 226.561L364.874 215.772Z" fill="#C5C7CF"/>
<path d="M364.874 215.771H363.974L361.723 214.422L362.173 213.973L364.874 215.771Z" fill="#C5C7CF"/>
<path d="M364.874 227.905L363.974 215.768L361.723 214.419L362.623 226.557L364.874 227.905Z" fill="#E0F7FF"/>
<path d="M364.874 215.772H363.974L364.874 227.909L365.774 227.46L364.874 215.772Z" fill="#9497A1"/>
<path d="M363.974 221.163L364.424 222.512L362.623 223.86L362.173 222.062L363.974 221.163Z" fill="#9497A1"/>
<path d="M362.173 222.06L362.623 223.858L360.823 222.959V221.61L362.173 222.06Z" fill="#A21B00"/>
<path d="M362.173 222.06L363.974 221.161L362.623 220.262L360.823 221.611L362.173 222.06Z" fill="#C5C7CF"/>
<path d="M351.819 218.016L352.27 219.814L361.273 225.208L360.823 222.96L351.819 218.016Z" fill="#E0F7FF"/>
<path d="M360.823 222.963L361.273 225.21L362.624 223.862V222.063L360.823 222.963Z" fill="#9497A1"/>
<path d="M360.823 222.961L351.819 218.017L353.62 216.668L362.623 222.062L360.823 222.961Z" fill="#C5C7CF"/>
<path d="M416.193 245.441L416.643 246.34L417.544 258.477L417.093 258.927L414.842 257.578L414.392 256.23L416.193 245.441Z" fill="#C5C7CF"/>
<path d="M416.193 245.442L415.743 245.892L413.042 244.094H413.942L416.193 245.442Z" fill="#C5C7CF"/>
<path d="M416.643 257.58L415.743 245.892L413.042 244.094L413.942 256.231L416.643 257.58Z" fill="#E0F7FF"/>
<path d="M416.193 245.441L415.743 245.89L416.643 257.578H417.093L416.193 245.441Z" fill="#9497A1"/>
<path d="M415.743 250.836V252.185L413.943 253.534V252.185L415.743 250.836Z" fill="#9497A1"/>
<path d="M413.942 252.183V253.532L412.592 252.633V251.284L413.942 252.183Z" fill="#A21B00"/>
<path d="M413.942 252.184L415.743 250.836L414.392 249.937L412.592 251.285L413.942 252.184Z" fill="#C5C7CF"/>
<path d="M410.791 251.737L411.241 253.984L420.245 258.929V257.131L410.791 251.737Z" fill="#E0F7FF"/>
<path d="M420.244 257.13V258.928L421.595 258.029V256.231L420.244 257.13Z" fill="#9497A1"/>
<path d="M420.245 257.13L410.791 251.735L412.592 250.836L421.595 256.231L420.245 257.13Z" fill="#C5C7CF"/>
<path d="M283.844 408.623C283.844 408.623 282.493 410.421 282.043 410.87C282.043 411.769 281.593 413.567 282.043 414.916C282.493 415.815 286.095 417.613 287.895 417.613C289.246 417.613 291.947 418.512 292.847 418.962C293.747 419.411 296.899 422.558 300.05 424.356C302.751 426.154 307.703 427.503 309.954 427.053C312.204 426.604 313.555 424.806 313.555 423.907C313.555 423.457 314.005 420.76 313.105 419.861C312.204 418.962 298.699 414.916 298.699 414.916L283.844 408.623Z" fill="#3E362F"/>
<path d="M283.844 404.124C283.844 404.124 282.493 409.518 282.493 411.316C282.493 413.114 288.345 414.912 291.496 417.16C294.648 419.407 300.05 423.453 305.001 424.802C309.953 426.15 312.654 424.352 312.654 421.655C312.654 418.508 308.603 415.362 306.802 413.564C305.001 411.765 294.648 406.371 294.648 406.371L291.496 402.775L283.844 404.124Z" fill="#524B45"/>
<path d="M271.239 328.603C271.239 329.952 271.239 331.75 271.689 333.099C271.689 333.998 271.689 334.447 272.139 335.346C272.589 338.942 273.489 342.539 273.489 344.786C273.489 351.08 277.991 364.566 277.991 364.566C277.991 364.566 277.991 371.308 278.441 378.051C278.892 384.345 282.493 404.574 283.393 406.372C283.843 406.821 284.294 407.72 285.644 408.17C286.995 409.069 289.245 409.518 291.946 409.518C296.448 409.518 297.799 405.922 297.799 405.922C297.799 405.922 295.998 368.162 296.448 364.566C296.448 362.318 296.898 351.979 296.898 340.741C296.898 334.897 296.448 329.502 295.548 324.557C295.548 323.658 295.098 322.759 295.098 321.86C295.098 321.411 295.098 320.961 295.098 320.961C294.197 316.016 291.946 314.218 289.245 313.769C284.744 313.319 279.342 317.365 275.29 320.512C272.139 321.86 271.239 325.007 271.239 328.603Z" fill="#2B4396"/>
<path d="M285.194 407.722C284.294 407.272 283.393 406.373 282.943 405.924C282.043 404.575 278.441 384.346 277.991 377.603C277.541 371.31 277.541 364.118 277.541 364.118C277.541 364.118 273.039 350.632 273.039 344.338C273.039 340.293 271.239 333.999 271.239 328.155C275.29 329.504 278.441 331.302 278.441 331.302C278.441 331.302 278.441 342.54 278.441 345.237C278.441 347.935 278.441 356.026 279.792 362.319C281.142 368.613 281.142 374.457 281.142 377.154C281.142 378.952 283.843 397.832 285.194 407.722Z" fill="#6C8FC2"/>
<path d="M247.38 414.465C247.38 414.465 245.579 414.915 246.029 416.713C246.029 418.511 246.029 420.309 246.029 420.309C246.029 420.309 247.38 422.107 248.28 422.557C249.18 423.006 250.081 423.905 250.081 423.905C250.081 423.905 251.431 430.648 254.582 432.896C257.283 435.144 261.335 436.492 265.386 436.043C269.438 435.593 270.788 433.346 270.788 433.346C270.788 433.346 271.239 431.547 270.788 430.199C270.338 428.85 262.235 424.805 262.235 424.805L247.38 414.465Z" fill="#3E362F"/>
<path d="M260.885 411.766C260.885 411.766 264.036 418.509 266.287 421.656C268.988 424.802 270.789 429.298 270.789 431.096C270.789 432.444 268.538 435.142 263.586 434.692C258.634 434.243 255.483 431.995 253.682 429.747C251.882 427.5 249.631 421.206 249.181 420.307C248.28 419.408 246.48 417.16 246.93 415.812C246.93 414.463 248.731 408.17 248.731 408.17L260.885 411.766Z" fill="#524B45"/>
<path d="M278.441 332.199C277.991 336.695 271.689 362.318 269.888 369.96C268.087 378.051 262.685 410.867 261.785 412.665C260.885 414.463 259.534 415.362 254.132 414.463C250.981 414.013 249.18 412.665 248.28 411.316C247.83 410.417 247.38 409.518 247.83 409.069C248.28 407.72 245.579 387.491 246.029 378.95C246.479 370.409 250.081 363.666 250.081 361.868C250.081 360.07 246.929 339.841 245.579 335.346C244.228 330.851 244.679 320.961 244.679 320.961L251.881 305.677L252.782 303.879C252.782 303.879 276.19 313.319 276.19 314.218C275.29 315.567 278.891 327.704 278.441 332.199Z" fill="#2B4396"/>
<path d="M247.83 409.518C248.28 408.169 245.579 387.941 246.029 379.4C246.479 370.859 250.081 364.116 250.081 362.318C250.081 360.519 246.929 340.291 245.579 335.795C244.228 331.3 244.679 321.41 244.679 321.41L251.881 306.126C251.431 311.521 250.531 315.117 249.63 320.062C247.83 328.603 252.782 356.923 252.331 361.418C251.881 365.914 246.929 379.4 248.28 387.491C249.18 392.885 250.081 409.069 248.28 411.766C247.83 410.867 247.38 409.968 247.83 409.518Z" fill="#6C8FC2"/>
<path d="M245.129 319.613C245.129 320.962 245.579 331.75 259.984 333.549C264.036 333.998 268.087 333.998 271.689 333.099C278.891 332.2 284.744 329.503 287.895 327.705C288.345 327.255 289.245 326.806 289.696 326.806C290.146 326.806 290.146 326.356 290.146 326.356C291.496 325.008 293.297 322.31 294.647 320.512C295.548 319.164 295.998 317.815 295.998 317.815C295.998 317.815 294.197 305.228 293.747 289.944C293.747 282.752 292.847 274.66 291.946 267.468C291.946 265.22 291.496 263.422 291.496 261.624C291.496 260.275 291.046 258.927 291.046 258.028C291.046 257.578 291.046 257.578 291.046 257.129C290.596 255.331 290.596 253.982 290.596 253.533V253.083C290.596 253.083 286.995 236.001 285.644 233.304C284.744 231.506 280.692 227.909 276.19 225.662C274.84 224.763 273.489 224.313 272.139 223.864C266.737 222.066 259.534 220.717 254.582 229.258C249.63 237.349 246.479 244.542 246.479 256.679C246.479 263.422 246.929 272.862 247.38 280.504C247.38 281.853 247.38 283.201 247.83 284.55C247.83 286.798 247.83 288.146 247.83 289.045C247.83 290.843 247.83 292.192 247.83 292.641C246.479 296.238 245.129 318.265 245.129 319.613Z" fill="#172B6F"/>
<path d="M244.229 327.705C248.73 333.1 257.283 336.246 267.637 335.797C268.988 335.797 270.338 335.797 271.689 335.347C279.342 333.999 287.445 330.852 291.496 327.705C292.397 327.256 292.847 326.357 293.297 325.907C293.747 325.008 294.197 324.559 294.647 323.66C295.998 320.063 295.548 315.119 295.548 315.119L293.297 271.065L291.046 267.019L286.094 257.579C286.094 257.579 284.294 236.002 282.493 233.304C281.142 230.607 275.29 225.662 275.29 225.662L268.538 223.864C268.538 223.864 276.191 233.304 277.991 236.451C278.892 237.8 279.792 241.396 281.142 245.442C282.943 250.836 284.294 257.129 284.744 257.579C284.744 257.129 282.943 253.983 281.142 250.386C278.892 245.891 276.191 241.396 274.39 240.946C271.239 239.598 264.036 238.699 260.885 238.699C257.734 238.699 252.782 240.047 250.081 241.845C247.38 243.644 246.029 253.533 246.029 254.882C246.029 255.781 246.479 270.166 246.93 280.055C246.93 280.954 245.579 308.376 245.579 310.174C245.129 311.972 243.778 327.256 244.229 327.705ZM283.393 265.67C282.493 271.065 280.692 282.753 280.242 287.248C279.792 288.596 279.792 289.495 279.792 289.495L276.191 294.44C276.191 294.44 275.74 304.779 269.438 305.678C263.136 307.027 255.933 307.926 253.232 303.88C250.531 299.835 249.18 282.753 249.18 282.753L248.28 282.303C248.28 269.716 248.73 249.937 249.631 248.588C250.981 246.79 255.033 245.442 255.033 245.442C255.033 245.442 262.685 241.396 270.789 243.194C275.29 244.093 279.342 249.038 281.593 254.432C282.943 258.478 283.843 262.973 283.393 265.67Z" fill="#2B4396"/>
<path d="M279.342 221.168C277.991 224.315 276.191 227.012 276.191 228.361C276.191 229.709 277.091 234.205 277.091 234.205C277.091 234.205 277.991 238.25 274.39 237.801C270.789 237.351 263.586 235.553 260.435 233.305C257.283 231.058 256.383 228.361 256.383 227.462C256.383 227.012 256.383 226.563 256.833 226.113C257.283 225.214 257.734 224.315 258.184 222.517C258.634 218.921 253.682 208.132 253.682 208.132C253.682 208.132 258.184 193.297 266.287 198.692C273.49 203.187 279.342 213.976 279.792 219.37C279.342 220.269 279.342 220.719 279.342 221.168Z" fill="#FAC5A8"/>
<path d="M279.342 221.168C277.991 224.314 276.19 227.012 276.19 228.36C276.19 229.709 277.091 234.204 277.091 234.204C277.091 234.204 277.991 238.25 274.39 237.8C270.788 237.351 263.586 235.553 260.434 233.305C257.283 231.057 256.383 228.36 256.383 227.461C256.383 227.012 256.383 226.562 256.833 226.112C256.833 226.562 256.833 227.012 256.833 227.012C256.833 228.36 259.084 229.709 261.335 231.507C263.135 233.305 268.087 235.103 269.438 235.553C270.338 236.002 273.94 236.452 273.94 236.452C273.94 236.452 274.39 230.608 274.39 229.259C274.39 227.911 275.74 224.764 275.74 224.764C275.74 224.764 275.29 223.865 273.94 223.865C272.589 223.865 266.287 219.37 266.287 219.37C268.538 217.571 274.84 218.021 279.792 219.37C279.342 220.269 279.342 220.718 279.342 221.168Z" fill="#F8D1BC"/>
<path d="M284.744 220.27C284.744 220.27 284.744 221.619 282.943 222.068C281.142 222.518 278.441 222.967 275.74 222.518C273.49 222.068 265.837 220.27 264.036 218.472C262.235 216.674 255.933 206.784 256.383 204.087C256.833 201.39 253.682 191.051 258.184 188.803C262.686 186.555 270.789 184.757 274.84 189.253C278.892 193.748 280.692 199.592 280.692 199.592C280.692 199.592 280.692 201.839 280.692 202.738C280.692 203.637 284.744 206.784 284.744 207.234L284.294 208.582C284.294 209.032 283.393 209.481 283.393 209.481L284.294 213.078L283.843 213.977L284.744 215.325L284.294 216.674L284.744 220.27Z" fill="#FAC5A8"/>
<path d="M283.393 207.231C283.393 207.231 279.792 209.928 278.892 209.479C278.441 209.029 279.342 206.781 279.342 206.781C279.342 206.781 277.991 203.185 278.441 202.736C278.441 202.286 283.393 206.781 283.393 207.231Z" fill="#FFD4BD"/>
<path d="M274.39 191.496C274.39 191.496 267.187 192.395 266.287 193.744C265.837 194.643 266.287 200.037 265.837 202.285C265.386 204.532 264.936 207.679 264.936 209.028C264.936 210.376 268.087 213.523 270.338 213.973C272.589 214.422 275.74 212.624 276.191 210.826C276.641 209.028 273.489 208.578 271.689 208.578C269.888 208.578 268.988 208.578 268.087 208.129C267.187 207.679 266.737 204.982 267.187 203.633C268.087 201.835 272.139 199.588 272.589 199.588C273.039 199.588 275.29 199.138 276.191 198.689C278.892 198.239 275.74 191.496 274.39 191.496Z" fill="#FFD4BD"/>
<path d="M264.486 196.894C264.486 196.894 265.837 201.839 265.837 203.187C265.837 204.087 265.387 209.031 265.387 209.031L263.586 210.38C263.586 210.38 259.534 206.334 257.734 207.683C255.933 209.481 257.734 216.673 257.734 217.572C257.284 218.022 257.284 219.371 257.284 219.371C257.284 219.371 247.38 208.132 246.029 200.041C244.679 191.949 253.232 186.555 256.833 184.307C259.985 182.06 266.287 183.408 270.789 185.206C275.29 187.004 276.641 190.151 276.191 190.601C275.741 191.5 264.936 192.399 264.486 192.848C264.036 192.848 264.486 196.894 264.486 196.894Z" fill="#4A2727"/>
<path d="M359.472 287.695C359.472 287.695 359.472 288.145 359.022 288.145C357.671 288.145 354.07 286.796 354.07 286.796L350.018 285.448L353.62 288.145L356.771 289.943L357.221 290.392H353.62L349.118 289.493C349.118 289.493 345.066 287.695 343.716 287.246C342.365 286.796 334.713 282.301 334.713 282.301C334.713 282.301 325.709 285.448 322.108 286.347C318.507 287.246 300.95 290.842 297.349 290.392C293.747 290.392 290.596 288.145 289.696 287.695C288.795 287.246 272.139 277.356 272.139 277.356C272.139 277.356 272.139 276.457 271.689 275.558C271.239 273.31 271.239 269.265 272.589 266.118C273.94 262.971 282.043 265.219 286.094 267.017C287.445 267.466 288.345 268.365 288.345 268.365C288.795 269.265 296.898 275.558 297.349 275.558C297.799 276.007 301.85 276.007 308.153 276.007C314.455 276.007 332.462 274.659 333.362 274.659C334.262 274.209 341.015 271.962 341.015 271.962L346.867 270.164C346.867 270.164 349.118 269.714 350.469 270.164C350.919 270.164 350.919 270.164 350.919 270.164C351.369 270.613 351.369 271.063 350.919 271.962C350.469 272.861 347.768 273.76 347.768 273.76V274.209L346.417 275.108C346.417 275.108 346.417 277.806 346.417 278.255C346.417 278.705 351.369 282.75 351.369 282.75C351.819 282.75 354.52 284.548 356.771 285.448C358.572 285.897 359.922 287.246 359.472 287.695Z" fill="#FAC5A8"/>
<path d="M287.445 266.568C288.795 267.017 289.696 267.916 289.696 267.916C290.146 268.816 298.249 275.109 298.699 275.109C299.149 275.558 303.201 275.558 309.503 275.558C315.805 275.558 333.812 274.21 334.712 274.21L335.163 276.008C335.163 276.008 325.709 275.558 323.458 276.008C321.207 276.458 299.149 276.008 299.149 276.008L297.799 275.558C297.799 275.558 291.046 269.715 287.895 268.366C287.445 268.366 287.445 267.467 287.445 266.568Z" fill="#F8D1BC"/>
<path d="M345.066 277.807C345.066 277.807 343.716 275.559 343.716 275.109C344.166 274.21 346.867 273.311 346.867 273.311L350.468 272.412C350.468 272.412 352.269 271.513 352.269 270.165C352.719 270.614 352.719 271.064 352.269 271.963C351.819 272.862 349.118 273.761 349.118 273.761L347.767 274.21L346.417 275.109C346.417 275.109 346.417 277.807 346.417 278.256C346.417 278.706 351.369 282.751 351.369 282.751L349.118 281.403L345.066 277.807Z" fill="#F8D1BC"/>
<path d="M354.07 289.496L356.771 289.046L357.221 289.496H354.07L349.568 289.046C349.568 289.046 345.517 287.248 344.166 286.799C342.816 286.349 335.163 281.854 335.163 281.854C335.163 281.854 326.159 285 322.558 285.9C318.957 286.799 301.4 290.395 297.799 289.945C294.197 289.945 291.046 287.698 290.146 287.248C289.245 286.799 272.589 276.909 272.589 276.909C272.589 276.909 272.589 276.01 272.139 275.111C272.589 275.56 273.49 276.01 274.39 276.459C274.39 276.459 288.795 286.349 293.297 287.698C298.249 289.046 298.249 288.597 305.452 287.248C312.654 285.9 321.658 284.101 326.61 282.753C331.561 280.955 335.613 280.056 335.613 280.056C335.613 280.056 339.664 283.652 340.565 284.101C341.465 284.551 344.166 286.349 344.166 286.349L349.568 288.597L354.07 289.496Z" fill="#F8D1BC"/>
<path d="M359.472 287.696C359.472 287.696 359.472 288.145 359.022 288.145C357.671 288.145 354.07 286.796 354.07 286.796L350.018 285.448L353.62 288.145L356.771 289.943H353.169L349.118 289.044L344.616 286.796L349.568 289.044L352.719 289.943L353.169 289.494L348.668 286.796L345.066 284.549H346.417L350.919 286.347L354.52 287.696L357.221 288.595C358.571 287.696 359.022 287.696 359.472 287.696Z" fill="#F8D1BC"/>
<path d="M291.046 267.471C291.046 267.471 290.596 270.617 287.445 272.415C284.293 274.214 275.74 280.507 274.39 280.057C273.039 279.608 260.885 270.168 257.733 266.572C254.132 262.975 254.132 252.636 260.885 249.49C268.087 246.343 272.589 245.893 277.541 251.288C281.592 256.682 291.046 267.471 291.046 267.471Z" fill="#203581"/>
<path d="M263.585 213.976C263.585 213.976 263.585 215.774 261.335 215.774C259.084 215.774 255.482 211.728 255.032 209.481C254.132 207.682 255.482 205.435 257.733 205.884C259.534 206.783 261.785 209.481 261.785 210.38C261.785 211.279 263.585 213.976 263.585 213.976Z" fill="#FFD4BD"/>
<path d="M516.131 505.268C516.131 505.268 517.932 506.167 518.382 507.965C518.832 510.213 517.932 511.112 517.932 511.561C517.932 511.561 514.78 514.708 511.179 513.809C508.028 512.91 506.227 512.011 505.327 510.213C503.976 508.864 502.626 505.717 501.275 505.268C499.925 504.818 494.073 501.672 493.172 500.773C492.272 499.873 494.973 497.176 494.973 497.176L505.777 499.873L516.131 505.268Z" fill="#3E362F"/>
<path d="M513.88 496.275C513.88 496.275 517.031 503.917 517.481 505.266C517.931 506.614 517.031 508.862 515.681 509.311C514.78 509.761 510.279 511.11 507.578 509.311C504.877 507.064 503.526 504.816 501.275 503.018C499.024 501.22 495.423 500.321 494.973 498.972C494.072 497.624 495.873 491.78 495.873 491.78L506.227 492.679L513.88 496.275Z" fill="#524B45"/>
<path d="M515.231 497.623C515.231 497.623 512.98 499.871 508.028 498.972C507.127 498.972 506.227 498.522 505.327 498.073C501.725 496.274 499.024 492.678 498.574 490.88C498.124 488.632 495.423 452.221 495.423 450.423C495.423 448.624 494.973 420.754 494.973 420.754C494.973 420.754 497.674 415.809 499.475 412.213C499.925 410.864 500.825 409.965 500.825 409.515C502.176 406.818 517.481 404.121 517.481 404.121L519.732 408.167C519.732 408.167 519.732 417.157 516.581 425.698C513.43 434.239 512.529 446.377 512.98 454.019C513.43 461.211 514.33 468.853 514.78 480.541C515.231 492.229 515.231 497.623 515.231 497.623Z" fill="#2A5294"/>
<path d="M504.877 498.076C501.275 496.278 498.574 492.682 498.124 490.884C497.674 488.636 494.973 452.224 494.973 450.426C494.973 448.628 494.523 420.757 494.523 420.757C494.523 420.757 497.224 415.813 499.025 412.216C500.825 414.913 503.076 418.06 505.777 422.106C505.777 422.106 503.977 425.253 503.526 432.895C503.076 440.537 503.076 449.977 503.076 452.224C503.076 454.472 505.777 462.564 505.327 469.306C505.777 474.701 505.327 488.187 504.877 498.076Z" fill="#6C8FC2"/>
<path d="M473.365 522.799L471.114 523.698L470.664 526.396C470.664 526.396 470.664 527.744 472.014 529.542C473.365 531.34 476.516 533.588 479.667 534.487C483.268 535.386 486.87 535.386 486.87 535.386L489.121 536.735L489.571 538.083C489.571 538.083 495.873 541.23 498.574 541.68C501.275 542.129 503.976 538.982 504.426 538.083C505.327 537.184 505.327 534.487 504.876 534.038C504.426 533.588 497.674 532.689 497.674 532.689L484.169 530.891L473.365 522.799Z" fill="#3E362F"/>
<path d="M488.671 520.55L479.217 519.651C479.217 519.651 473.815 520.101 472.465 521.899C471.114 523.697 471.564 524.147 471.564 525.046C472.014 528.192 476.966 531.339 477.867 532.238C479.217 532.688 490.021 535.385 490.021 535.385C490.021 535.385 497.224 539.431 499.475 538.981C501.726 538.532 504.877 537.633 505.777 535.834C506.677 534.036 504.877 531.789 504.877 531.789L498.574 528.192L488.671 520.55Z" fill="#524B45"/>
<path d="M471.564 420.306C471.564 423.003 471.564 425.701 472.014 428.847C472.915 437.388 479.667 469.754 480.568 478.295C481.468 486.836 484.169 519.203 485.069 521.45C485.519 522.349 485.97 523.248 487.32 524.597C489.121 526.395 491.372 528.193 494.073 529.092C498.124 530.441 503.076 529.991 503.076 529.092C503.076 528.193 506.227 498.524 503.526 482.791C500.825 467.057 502.626 430.645 502.626 430.645L503.076 426.6C503.076 426.6 504.877 425.701 506.677 423.003C507.128 422.554 507.128 422.104 507.578 421.205C508.478 419.407 509.378 417.16 509.378 414.462C510.729 405.472 488.671 394.683 488.671 394.683L474.265 409.068L472.915 410.417L472.465 410.866C472.465 410.866 472.465 411.316 472.465 412.664C472.465 413.563 472.465 414.462 472.465 415.361C471.564 417.16 471.564 418.508 471.564 420.306Z" fill="#2B4396"/>
<path d="M471.564 360.966C470.213 362.315 464.811 369.957 463.011 370.856C461.21 371.755 458.509 373.104 456.708 373.104C455.808 373.104 454.908 372.205 453.557 370.856C452.207 369.507 450.856 368.159 450.856 366.81V366.361C451.306 363.664 454.007 358.719 455.358 356.471C455.808 355.572 457.159 354.673 458.059 353.324C459.86 351.526 462.11 350.178 462.11 350.178C462.11 350.178 467.512 354.673 470.213 358.269C471.114 359.168 472.014 360.517 471.564 360.966Z" fill="#FAC5A8"/>
<path d="M451.757 341.19C451.757 341.19 453.107 343.438 450.406 344.337C447.705 345.236 445.904 343.887 445.904 343.887C445.904 343.887 442.753 340.291 442.753 339.392C442.753 338.493 440.953 334.447 440.953 334.447C440.953 334.447 439.152 333.099 439.602 331.75C440.052 330.851 440.953 330.402 442.303 331.301C443.654 332.2 444.554 333.998 444.554 334.447C444.554 334.897 445.904 337.144 445.904 337.144C445.904 337.144 449.506 338.044 451.757 341.19Z" fill="#FAC5A8"/>
<path d="M480.567 294.888C480.567 294.888 474.715 287.246 473.365 287.246C472.014 286.797 469.763 284.549 468.863 283.65C467.963 282.751 467.963 280.953 467.963 280.953L465.262 277.806C465.262 277.806 461.66 276.457 461.66 275.109C461.66 273.76 462.56 273.311 463.911 273.76C465.262 274.21 470.213 276.907 470.213 276.907L471.114 276.457L470.213 271.063C470.213 271.063 467.062 262.972 467.062 262.072C467.062 261.173 467.963 260.724 468.413 261.173C468.863 261.173 469.763 262.522 469.763 262.522L471.564 265.669L472.914 266.118L474.265 268.366C474.265 268.366 477.866 275.558 477.866 277.356C478.316 279.155 486.419 294.439 486.419 294.439L480.567 294.888Z" fill="#FAC5A8"/>
<path d="M469.314 345.683C471.114 355.573 473.815 368.609 473.815 370.407V370.857C473.365 375.802 472.015 401.874 472.015 403.672C472.015 405.471 471.564 410.865 471.564 410.865C471.564 410.865 472.015 411.764 472.465 413.113C472.915 413.562 473.365 414.012 473.815 414.911C474.716 415.81 475.616 416.709 476.516 418.057C479.217 420.305 483.719 423.002 490.021 423.452C496.324 424.351 502.626 423.002 508.028 420.755C515.681 417.608 521.083 413.113 521.533 411.314C521.983 408.617 521.083 387.489 520.633 375.802C520.633 375.352 520.633 375.352 520.633 375.352C520.633 373.105 520.633 371.306 520.633 369.958C521.083 362.765 524.684 333.996 524.684 333.996C524.684 333.996 527.385 317.812 520.633 312.868C513.88 307.923 496.774 314.666 496.774 314.666C496.774 314.666 484.169 321.858 481.468 323.207C481.018 323.656 480.568 323.656 479.667 324.106L479.217 324.555L476.966 325.904L475.166 327.253C471.564 329.5 467.963 332.197 467.063 333.546C467.063 334.445 467.963 339.39 469.314 345.683Z" fill="#172B6F"/>
<path fill-rule="evenodd" clip-rule="evenodd" d="M519.022 350.04L512.465 350.741L502.936 329.888L509.493 329.186L519.022 350.04ZM511.201 350.876L504.644 351.578L497.105 334.886L503.662 334.185L511.201 350.876ZM503.251 351.757L492.112 352.948L495.752 335.183L503.251 351.757ZM496.144 338.847C496.719 340.074 497.935 342.924 499.045 345.523L499.058 345.554C500.01 347.783 500.881 349.822 501.198 350.488L493.877 351.271C494.012 350.652 494.306 348.949 494.647 346.967L494.648 346.957C495.164 343.96 495.79 340.328 496.144 338.847Z" fill="#D0D8F3"/>
<path fill-rule="evenodd" clip-rule="evenodd" d="M517.817 352.897L517.517 352.927L517.597 353.719L517.485 353.731L517.406 352.938L517.107 352.968L517.096 352.859L517.814 352.787L517.825 352.896L517.817 352.897ZM489.678 359.524C489.843 361.172 490.881 362.126 492.439 361.97C492.978 361.916 493.549 361.748 493.954 361.386L493.94 360.909C493.816 361.05 493.265 361.593 492.504 361.669C491.391 361.78 490.52 360.939 490.375 359.491C490.248 358.216 490.777 357.031 492.078 356.901C492.806 356.828 493.379 357.286 493.495 357.412L493.545 357.398C493.56 357.194 493.583 356.998 493.633 356.8C493.131 356.63 492.588 356.555 492.075 356.607C490.585 356.756 489.509 357.83 489.678 359.524ZM498.4 361.272L498.398 361.272L498.397 361.272C498.338 361.283 498.281 361.293 498.224 361.298C497.955 360.691 497.626 359.997 497.276 359.342L495.478 359.522C495.455 359.611 495.431 359.7 495.408 359.789C495.248 360.389 495.089 360.988 494.98 361.623L494.922 361.624C494.846 361.624 494.782 361.625 494.713 361.632C494.664 361.636 494.621 361.646 494.579 361.655L494.578 361.655C494.54 361.663 494.503 361.671 494.467 361.675L496.148 356.199L496.311 356.183L498.96 361.225C498.894 361.231 498.833 361.233 498.773 361.234C498.714 361.235 498.657 361.237 498.598 361.242C498.528 361.249 498.463 361.261 498.4 361.272ZM501.547 358.919L501.543 358.915L501.542 358.914L501.54 358.913L501.539 358.911L501.538 358.91L501.536 358.909L501.535 358.908L501.533 358.906L501.532 358.905C501.276 358.659 501.021 358.414 500.771 358.164L501.322 357.456L502.759 355.656C502.71 355.661 502.663 355.671 502.616 355.68L502.615 355.68L502.613 355.681C502.57 355.689 502.527 355.698 502.487 355.702C502.391 355.712 502.31 355.712 502.223 355.712L502.202 355.712L500.657 357.799C500.63 357.831 500.6 357.867 500.568 357.907C500.49 358.003 500.4 358.114 500.316 358.201C500.246 358.272 500.154 358.309 500.141 358.264L499.909 355.942C499.852 355.947 499.801 355.957 499.751 355.967L499.749 355.967C499.701 355.977 499.653 355.986 499.602 355.991C499.5 356.001 499.396 356.002 499.292 356.004L499.808 361.149C499.854 361.144 499.904 361.135 499.954 361.125C500.007 361.115 500.062 361.105 500.114 361.1C500.201 361.091 500.296 361.089 500.398 361.088L500.424 361.087L500.161 358.464C500.158 358.428 500.246 358.447 500.283 358.471L502.016 360.238C502.218 360.438 502.394 360.651 502.572 360.872C502.635 360.866 502.698 360.855 502.762 360.844C502.828 360.833 502.894 360.821 502.964 360.814C503.065 360.804 503.167 360.801 503.285 360.796L503.351 360.794L503.347 360.758L502.698 360.059C502.327 359.667 501.937 359.292 501.547 358.919ZM506.149 360.597C504.592 360.753 503.554 359.799 503.389 358.15C503.219 356.456 504.296 355.383 505.785 355.234C506.298 355.182 506.842 355.257 507.343 355.427C507.294 355.625 507.27 355.821 507.256 356.025L507.205 356.039C507.089 355.913 506.516 355.455 505.788 355.528C504.488 355.658 503.958 356.842 504.086 358.117C504.231 359.565 505.102 360.407 506.214 360.296C506.976 360.219 507.527 359.677 507.651 359.536L507.664 360.013C507.259 360.375 506.688 360.543 506.149 360.597ZM508.301 355.929C508.39 355.782 508.861 355.22 509.588 355.147C510.778 355.028 511.521 355.892 511.73 357.021L509.77 357.217C509.668 357.227 509.565 357.228 509.462 357.23L509.46 357.23C509.355 357.231 509.249 357.232 509.141 357.243C509.144 357.269 509.151 357.299 509.158 357.331C509.166 357.364 509.174 357.4 509.177 357.433C509.18 357.457 509.179 357.486 509.179 357.517C509.178 357.556 509.177 357.599 509.181 357.644C509.283 357.634 509.384 357.614 509.486 357.595L509.487 357.595L509.489 357.595L509.491 357.594C509.593 357.575 509.696 357.555 509.802 357.545L511.771 357.348C511.915 358.787 511.229 359.793 510.117 359.905C509.355 359.981 508.716 359.558 508.558 359.445L508.64 359.915C509.116 360.189 509.701 360.241 510.24 360.187C511.798 360.031 512.626 358.89 512.46 357.242C512.292 355.557 511.022 354.709 509.533 354.858C509.011 354.911 508.493 355.091 508.045 355.357C508.132 355.541 508.195 355.737 508.249 355.925L508.301 355.929ZM515.76 359.634C514.203 359.79 513.165 358.836 512.999 357.188C512.83 355.494 513.907 354.42 515.396 354.271C515.909 354.22 516.453 354.294 516.954 354.465C516.905 354.663 516.881 354.858 516.867 355.062L516.816 355.076C516.7 354.95 516.127 354.492 515.399 354.565C514.099 354.695 513.569 355.88 513.696 357.155C513.841 358.603 514.712 359.445 515.825 359.333C516.587 359.257 517.137 358.714 517.262 358.573L517.275 359.05C516.862 359.413 516.291 359.581 515.76 359.634ZM497.142 359.043L495.584 359.199L496.162 357.2L497.142 359.043ZM518.709 353.608L518.82 353.597L518.73 352.695L518.576 352.711L518.412 353.233L518.14 352.754L517.986 352.77L518.076 353.671L518.179 353.661L518.101 352.887L518.385 353.392L518.453 353.385L518.632 352.834L518.709 353.608Z" fill="#D0D8F3"/>
<path d="M471.564 415.809C472.014 416.259 472.464 416.708 473.365 417.607C476.966 421.204 484.619 425.699 495.423 424.8C499.925 424.35 503.526 423.451 506.677 422.552C512.529 420.754 516.581 418.057 519.282 415.809C523.333 412.213 521.533 401.424 521.533 397.828C521.533 394.681 520.182 379.847 520.182 375.801C520.182 375.352 520.182 375.352 520.182 375.352L518.832 370.407C518.832 370.407 519.282 357.82 521.083 343.435C522.883 329.5 520.632 318.262 517.481 314.665C513.88 311.069 512.079 311.519 506.227 312.418C510.729 313.317 514.33 316.913 515.681 326.803C517.031 336.692 514.78 369.058 514.78 369.058L502.175 374.902C502.175 374.902 503.976 341.637 497.674 332.646C491.371 323.656 480.117 325.454 480.117 325.454L479.667 325.903L477.416 327.252L475.615 328.601C475.615 328.601 480.567 329.05 489.121 334.894C497.674 340.738 494.973 376.251 494.973 376.251C494.973 376.251 494.973 376.7 490.471 376.7C487.32 376.7 480.567 374.453 476.516 373.104C474.715 372.654 473.365 372.205 473.365 372.205L471.564 386.59C471.564 386.59 471.114 388.838 470.664 397.379C470.213 405.92 468.863 412.663 471.564 415.809Z" fill="#2B4396"/>
<path d="M473.365 370.41V370.859C473.365 370.859 474.716 371.309 476.516 371.758C476.516 369.511 476.516 367.263 476.516 365.015C476.516 364.566 480.568 347.034 480.568 347.034L474.265 337.145C474.265 337.145 472.014 340.741 469.313 345.686C471.114 355.575 473.815 368.612 473.365 370.41Z" fill="#0F2262"/>
<path d="M471.564 415.813C468.863 412.667 470.213 405.924 470.664 397.383C471.114 388.842 471.564 386.594 471.564 386.594L473.365 370.86C473.365 370.86 474.715 371.31 476.516 371.759C476.516 373.558 476.516 375.805 476.066 377.603C475.615 379.401 475.615 381.199 475.165 382.998C474.715 384.346 474.265 385.245 474.265 386.594C474.265 390.64 474.265 394.685 473.815 399.181C473.365 402.777 472.464 406.823 472.464 410.419C472.464 411.318 472.464 412.217 472.464 413.566C472.464 414.015 472.464 414.465 472.464 414.465C472.464 415.364 472.914 418.061 473.365 418.96C473.815 428.4 475.165 439.638 475.165 439.638L483.268 469.757C483.268 469.757 483.719 495.38 484.169 500.774C484.169 504.37 485.969 516.508 487.32 524.15C486.42 523.251 485.519 521.902 485.069 521.003C484.169 518.755 481.468 486.389 480.567 477.848C479.667 469.307 472.914 436.941 472.014 428.4C471.564 425.253 471.564 422.556 471.564 419.859C471.564 418.51 471.564 417.162 471.564 415.813Z" fill="#6C8FC2"/>
<path d="M458.509 357.373C458.509 357.373 458.509 357.823 458.509 358.722C456.258 359.171 453.557 359.621 453.557 359.621C453.557 359.621 453.557 352.878 453.557 352.428C453.557 351.979 452.657 345.685 452.657 345.685L453.107 343.887L454.007 342.089C454.007 342.089 456.708 342.539 457.609 341.64L458.509 342.089C458.509 342.089 458.059 343.887 457.609 344.786C457.158 345.685 457.609 346.584 457.609 347.034C457.609 347.484 458.059 350.181 458.059 352.878C458.509 355.575 458.509 357.373 458.509 357.373Z" fill="#FAC5A8"/>
<path d="M480.117 338.942C480.117 338.942 482.368 344.786 478.767 352.428C475.165 360.52 472.464 366.364 471.114 365.914C469.763 365.465 466.162 366.364 462.561 363.217C458.959 360.07 457.159 357.373 456.708 354.226C456.708 351.529 459.86 346.135 461.66 341.64C463.461 337.144 465.712 333.548 468.413 332.2C471.114 330.851 478.317 335.346 480.117 338.942Z" fill="#203581"/>
<path d="M508.028 317.815C507.577 318.264 506.227 320.063 499.474 321.411C494.072 322.31 488.22 321.861 486.42 321.861C485.969 321.861 485.519 321.861 485.519 321.861C485.519 321.861 485.069 316.916 485.069 316.466C485.069 315.567 483.719 312.87 483.719 312.87C483.719 312.87 481.017 311.971 480.567 311.072C480.117 310.173 477.416 304.329 477.416 304.329L476.066 300.283C476.066 299.834 474.715 294.439 474.715 294.439C474.715 294.439 474.715 293.99 474.265 288.596C473.815 283.651 476.966 279.605 476.966 279.605L483.719 283.651L497.674 292.641C497.674 292.641 503.976 300.283 503.526 303.88C503.076 307.026 503.976 307.476 505.327 311.072C506.677 314.219 508.028 313.32 508.478 313.769C509.378 313.769 508.928 317.365 508.028 317.815Z" fill="#FAC5A8"/>
<path d="M486.42 321.861C485.97 321.861 485.519 321.861 485.519 321.861C485.519 321.861 485.069 316.917 485.069 316.467C485.069 315.568 483.719 312.871 483.719 312.871C483.719 312.871 481.018 311.972 480.568 311.073C480.568 311.073 482.818 311.972 484.169 312.421C485.069 312.421 485.519 315.568 485.519 315.568C485.519 315.568 486.42 318.715 486.42 321.861Z" fill="#F8D1BC"/>
<path d="M480.568 296.687C480.568 296.687 483.269 295.788 485.52 299.384C487.77 302.531 490.021 306.577 490.471 307.026C490.471 307.476 494.073 308.824 494.973 308.824C495.423 308.824 501.276 308.824 501.276 308.824L504.427 307.026C504.427 307.026 506.678 299.384 507.128 296.687C507.578 293.54 509.379 282.302 506.227 277.357C503.076 271.963 492.722 269.715 487.77 270.615C482.819 271.514 477.867 275.11 476.516 276.908C475.166 278.706 475.166 286.798 475.616 288.146C475.616 289.495 476.966 293.541 476.966 293.541L478.317 295.788L478.767 299.834L480.118 300.283C479.217 300.283 479.217 296.687 480.568 296.687Z" fill="#4A2727"/>
<path d="M483.719 306.126C483.719 306.126 485.969 305.677 485.519 303.879C485.519 302.08 483.268 298.035 481.468 298.035C479.667 298.035 482.368 303.879 483.719 306.126Z" fill="#F8D1BC"/>
<path d="M484.169 302.079C484.169 302.079 484.619 306.125 483.269 306.125C482.368 306.125 481.018 303.877 481.018 302.978C481.018 302.529 479.217 299.382 480.117 298.033C481.018 296.685 483.269 299.831 483.269 299.831L484.169 302.079Z" fill="#FFD4BD"/>
</svg>
