<?xml version="1.0" encoding="UTF-8" standalone="no"?>
<svg
   xmlns:dc="http://purl.org/dc/elements/1.1/"
   xmlns:cc="http://creativecommons.org/ns#"
   xmlns:rdf="http://www.w3.org/1999/02/22-rdf-syntax-ns#"
   xmlns:svg="http://www.w3.org/2000/svg"
   xmlns="http://www.w3.org/2000/svg"
   xmlns:sodipodi="http://sodipodi.sourceforge.net/DTD/sodipodi-0.dtd"
   xmlns:inkscape="http://www.inkscape.org/namespaces/inkscape"
   width="397.616"
   height="341.17099"
   viewBox="0 0 397.616 341.17099"
   version="1.1"
   id="svg1923"
   sodipodi:docname="5-sm.svg"
   style="fill:none"
   inkscape:version="0.92.3 (2405546, 2018-03-11)">
  <metadata
     id="metadata1929">
    <rdf:RDF>
      <cc:Work
         rdf:about="">
        <dc:format>image/svg+xml</dc:format>
        <dc:type
           rdf:resource="http://purl.org/dc/dcmitype/StillImage" />
        <dc:title></dc:title>
      </cc:Work>
    </rdf:RDF>
  </metadata>
  <defs
     id="defs1927" />
  <sodipodi:namedview
     pagecolor="#ffffff"
     bordercolor="#666666"
     borderopacity="1"
     objecttolerance="10"
     gridtolerance="10"
     guidetolerance="10"
     inkscape:pageopacity="0"
     inkscape:pageshadow="2"
     inkscape:window-width="1920"
     inkscape:window-height="996"
     id="namedview1925"
     showgrid="false"
     fit-margin-top="0"
     fit-margin-left="0"
     fit-margin-right="0"
     fit-margin-bottom="0"
     inkscape:zoom="2.0673317"
     inkscape:cx="143.53458"
     inkscape:cy="140.671"
     inkscape:window-x="-8"
     inkscape:window-y="-8"
     inkscape:window-maximized="1"
     inkscape:current-layer="svg1923" />
  <path
     d="M 140.55,40.0479 V 178.542 l 101.196,64.755 5.622,-2.995 V 101.809 Z M 243.246,233.939 144.673,177.044 V 46.4111 l 98.573,56.8949 z"
     id="path1375"
     inkscape:connector-curvature="0"
     style="fill:#8c4a29" />
  <path
     d="M 230.877,53.15 C 220.758,36.6805 207.265,23.2054 194.147,15.345 h -0.375 -0.375 c -13.118,-7.48618 -26.611,-9.35772 -36.73,-4.4917 -10.495,4.866 -16.492,20.2126 -16.492,28.4474 v 2.9944 l 4.123,2.2459 c 0,-1.123 0,-2.6202 0,-3.7431 1.874,-23.9557 22.113,-32.56478 44.227,-22.4585 1.499,0.7486 3.373,1.4973 4.872,2.6202 0,0 0,0 0.375,0 0,0 0,0 0.375,0 23.987,13.8494 47.225,48.66 49.099,76.733 0,1.123 0,2.6204 0,3.7434 l 4.123,2.246 v -2.995 c 0,-8.2347 -5.997,-30.6931 -16.492,-47.537 z"
     id="path1377"
     inkscape:connector-curvature="0"
     style="fill:#8c4a29" />
  <path
     d="m 142.049,47.9102 98.572,56.8948 v 130.633 l -98.572,-56.894 z"
     id="path1379"
     inkscape:connector-curvature="0"
     style="fill:#b96b39" />
  <path
     d="m 239.122,105.93 v 121.275 l -2.249,1.498 -44.976,-147.4775 2.624,-1.123 z"
     id="path1381"
     inkscape:connector-curvature="0"
     style="fill:#8c4a29" />
  <path
     d="M 193.022,78.9791 V 200.629 l -2.624,1.123 -44.601,-147.1029 2.248,-1.4972 z"
     id="path1383"
     inkscape:connector-curvature="0"
     style="fill:#8c4a29" />
  <path
     d="m 236.873,107.052 v 121.65 L 191.897,202.875 V 81.2251 Z"
     id="path1385"
     inkscape:connector-curvature="0"
     style="fill:#e09257" />
  <path
     d="M 196.02,90.2095 V 198.384 l 35.981,20.962 v -2.621 L 198.269,197.261 V 91.7067 Z"
     id="path1387"
     inkscape:connector-curvature="0"
     style="fill:#8c4a29" />
  <path
     d="M 198.269,91.7051 V 197.26 l 33.732,19.464 V 111.169 Z"
     id="path1389"
     inkscape:connector-curvature="0"
     style="fill:#62a6bd" />
  <path
     d="m 220.382,192.395 v 17.592 l 11.619,6.738 v -17.592 z"
     id="path1391"
     inkscape:connector-curvature="0"
     style="fill:#c2e6f2" />
  <path
     d="m 200.518,181.166 v 17.218 l 8.621,4.866 2.998,1.871 v -17.218 z"
     id="path1393"
     inkscape:connector-curvature="0"
     style="fill:#c2e6f2" />
  <path
     d="m 220.382,106.677 v 17.218 l 11.619,6.737 v -17.218 z"
     id="path1395"
     inkscape:connector-curvature="0"
     style="fill:#c2e6f2" />
  <path
     d="m 200.518,95.0752 v 17.5928 l 6.747,3.743 4.872,2.994 v -17.592 z"
     id="path1397"
     inkscape:connector-curvature="0"
     style="fill:#c2e6f2" />
  <path
     d="m 232.001,113.414 -11.619,-6.737 v 17.218 l 11.619,6.737 z"
     id="path1399"
     inkscape:connector-curvature="0"
     style="fill:#e0f7ff" />
  <path
     d="m 212.137,101.813 -11.619,-6.7378 v 11.6038 l 6.747,9.732 4.872,2.994 z"
     id="path1401"
     inkscape:connector-curvature="0"
     style="fill:#e0f7ff" />
  <path
     d="m 220.382,133.255 v 49.783 l 11.619,6.363 v -49.409 z"
     id="path1403"
     inkscape:connector-curvature="0"
     style="fill:#c2e6f2" />
  <path
     d="m 232.001,139.992 -11.619,-6.737 v 1.497 l 11.619,16.47 z"
     id="path1405"
     inkscape:connector-curvature="0"
     style="fill:#e0f7ff" />
  <path
     d="m 200.518,121.649 v 49.783 l 11.619,6.738 v -49.783 z"
     id="path1407"
     inkscape:connector-curvature="0"
     style="fill:#c2e6f2" />
  <path
     d="m 215.885,101.812 v 108.175 l 2.623,-1.123 V 103.309 Z"
     id="path1409"
     inkscape:connector-curvature="0"
     style="fill:#8c4a29" />
  <path
     d="M 232.001,138.121 196.02,117.16 v -4.492 l 35.981,20.587 z"
     id="path1411"
     inkscape:connector-curvature="0"
     style="fill:#e09257" />
  <path
     d="M 232.001,196.884 196.02,176.297 v -4.866 l 35.981,20.961 z"
     id="path1413"
     inkscape:connector-curvature="0"
     style="fill:#e09257" />
  <path
     d="m 232.001,192.394 -35.981,-20.962 2.249,-1.122 33.732,19.089 z"
     id="path1415"
     inkscape:connector-curvature="0"
     style="fill:#8c4a29" />
  <path
     d="m 232.001,133.254 -35.981,-20.587 2.249,-1.498 33.732,19.464 z"
     id="path1417"
     inkscape:connector-curvature="0"
     style="fill:#8c4a29" />
  <path
     d="m 215.885,101.437 v 108.549 l -3.748,-2.246 V 99.1909 Z"
     id="path1419"
     inkscape:connector-curvature="0"
     style="fill:#e09257" />
  <path
     d="M 190.398,80.4781 V 201.754 L 145.797,175.927 V 54.6509 Z"
     id="path1421"
     inkscape:connector-curvature="0"
     style="fill:#e09257" />
  <path
     d="M 240.622,102.56 142.049,45.6657 c 0,-1.1229 0,-2.6202 0,-3.7431 1.874,-25.8272 25.112,-33.68768 49.099,-20.2126 0,0 0,0 0.375,0 23.987,13.8494 47.225,48.66 49.099,76.733 0,1.872 0,2.995 0,4.117 z"
     id="path1423"
     inkscape:connector-curvature="0"
     style="fill:#b96b39" />
  <path
     d="m 149.919,41.5476 c 1.5,-8.9834 5.997,-15.3467 13.119,-18.7154 8.62,-3.7431 19.864,-2.2459 30.733,4.1174 10.869,6.3632 22.114,17.5924 30.359,31.4418 7.121,11.6035 11.619,23.2071 13.118,33.6877 l -2.249,1.4972 z"
     id="path1425"
     inkscape:connector-curvature="0"
     style="fill:#8c4a29" />
  <path
     d="m 147.67,43.0456 c 1.5,-8.9834 5.997,-15.3466 13.118,-18.7154 8.621,-3.7431 19.865,-2.2458 30.734,4.1174 10.869,6.3632 22.113,17.5925 30.359,31.4418 7.121,11.6036 11.619,23.2071 13.118,33.6877 z"
     id="path1427"
     inkscape:connector-curvature="0"
     style="fill:#e09257" />
  <path
     d="m 153.293,41.1735 0.749,0.3743 27.735,15.7209 3.748,2.2459 2.249,1.1229 5.247,2.9945 1.125,0.7486 2.623,1.4972 1.5,0.7486 3.748,2.2459 9.37,5.2403 17.99,10.4806 c -1.874,-7.4862 -5.247,-15.3466 -10.119,-23.2071 -0.375,-0.7486 -0.75,-1.1229 -1.125,-1.8715 -0.375,-0.7486 -1.124,-1.4972 -1.499,-2.2459 0,-0.3743 -0.375,-0.3743 -0.375,-0.7486 -0.375,-0.7486 -1.124,-1.4972 -1.499,-2.2458 -5.247,-7.1119 -11.244,-13.1008 -17.241,-17.5925 -0.375,-0.3743 -1.124,-0.7486 -1.499,-1.1229 -0.375,-0.3743 -0.75,-0.3743 -1.125,-0.7486 -0.374,-0.3743 -0.749,-0.3743 -1.124,-0.7486 0,0 0,0 -0.375,0 -1.124,-0.3743 -1.499,-0.3743 -1.874,-0.7486 -0.375,-0.3743 -0.749,-0.3743 -1.124,-0.7487 -4.123,-2.2458 -7.871,-3.3687 -11.619,-4.1173 -2.249,-0.3743 -4.498,-0.3743 -6.746,-0.3743 -1.125,0 -1.874,0 -2.999,0.3743 -0.749,0 -1.499,0.3743 -2.249,0.3743 -1.124,0.3743 -1.874,0.7486 -2.623,1.1229 -4.873,2.2458 -8.246,5.9889 -10.12,10.8549 -0.375,0 -0.749,0.3743 -0.749,0.3743 z"
     id="path1429"
     inkscape:connector-curvature="0"
     style="fill:#c2e6f2" />
  <path
     d="m 153.667,40.7992 0.75,0.7486 27.735,15.7209 3.748,2.2459 2.249,1.1229 5.247,2.9945 1.125,0.7486 2.623,1.4972 1.499,0.7486 3.748,2.2459 9.37,5.2403 -33.357,-45.6655 c -2.249,-0.3743 -4.497,-0.3743 -6.746,-0.3743 -1.125,0 -1.874,0 -2.999,0.3743 -0.749,0 -1.499,0.3743 -2.248,0.3743 -1.125,0.3743 -1.874,0.7486 -2.624,1.1229 -4.873,2.2458 -8.246,5.9889 -10.12,10.8549 z"
     id="path1431"
     inkscape:connector-curvature="0"
     style="fill:#e0f7ff" />
  <path
     d="m 166.411,31.4425 15.367,26.2015 3.748,2.2458 -16.867,-29.196 c -0.749,0.3744 -1.499,0.3744 -2.248,0.7487 z"
     id="path1433"
     inkscape:connector-curvature="0"
     style="fill:#62a6bd" />
  <path
     d="m 197.894,66.9996 3.748,2.2458 16.117,-8.9834 c -0.375,-0.7486 -1.125,-1.4972 -1.5,-2.2458 0,-0.3743 -0.374,-0.3743 -0.374,-0.7486 z"
     id="path1435"
     inkscape:connector-curvature="0"
     style="fill:#62a6bd" />
  <path
     d="m 196.769,67.7506 3.748,1.8715 1.125,-0.7486 -3.748,-1.8715 z"
     id="path1437"
     inkscape:connector-curvature="0"
     style="fill:#c1804f" />
  <path
     d="m 194.146,35.1855 v 29.5703 l 2.624,1.4973 V 36.6828 c -0.375,-0.3743 -1.125,-0.7486 -1.5,-1.1229 -0.374,0 -0.749,-0.3744 -1.124,-0.3744 z"
     id="path1439"
     inkscape:connector-curvature="0"
     style="fill:#62a6bd" />
  <path
     d="m 217.758,59.8904 c -0.749,-1.123 -1.499,-1.8716 -2.248,-2.9945 -5.622,-7.8605 -12.369,-14.2237 -19.115,-18.7154 -0.75,-0.3743 -1.5,-1.1229 -2.249,-1.4972 0,0 0,0 -0.375,0 -0.375,-0.3743 -0.75,-0.3743 -1.124,-0.7486 -0.375,-0.3743 -0.75,-0.3743 -1.125,-0.7486 -6.371,-3.3688 -12.743,-4.866 -18.74,-4.4917 -1.124,0 -1.874,0 -2.998,0.3743 -0.75,0 -1.499,0.3743 -2.249,0.3743 -1.124,0.3743 -1.874,0.7486 -2.624,1.1229 -4.497,1.8715 -7.87,5.6146 -9.744,10.1063 l -1.874,-1.4972 c 1.874,-5.2403 5.622,-8.9834 10.494,-11.2292 0.75,-0.3744 1.874,-0.7487 2.624,-1.123 0.749,-0.3743 1.499,-0.3743 2.248,-0.3743 1.125,0 1.874,-0.3743 2.999,-0.3743 5.622,-0.3743 12.368,1.1229 18.74,4.4917 0.375,0.3743 0.749,0.3743 1.124,0.7486 0.375,0.3743 0.75,0.3743 1.125,0.7486 0,0 0,0 0.374,0 0.75,0.3743 1.5,1.123 2.249,1.4973 6.747,4.4917 13.118,11.2292 19.115,18.7153 0.75,1.123 1.499,1.8716 2.249,2.9945 0.75,1.1229 1.499,2.2459 2.249,3.3688 -0.75,0 -0.75,-0.3743 -1.125,-0.7486 z"
     id="path1441"
     inkscape:connector-curvature="0"
     style="fill:#62a6bd" />
  <path
     d="m 163.037,30.3208 c -3.373,2.2458 -5.996,5.6146 -7.496,9.732 l 72.712,41.9224 c 0.375,1.123 0.749,2.2459 0.749,3.3688 L 153.293,41.1757 c 1.874,-4.866 5.247,-8.6091 9.744,-10.8549 z"
     id="path1443"
     inkscape:connector-curvature="0"
     style="fill:#8c4a29" />
  <path
     d="m 192.647,34.064 0.375,29.9446 2.248,-1.4973 V 35.5612 c -1.124,-0.3743 -1.874,-0.7486 -2.623,-1.4972 z"
     id="path1445"
     inkscape:connector-curvature="0"
     style="fill:#8c4a29" />
  <path
     d="m 168.659,28.4471 18.74,32.5647 2.249,-1.4972 -18.365,-31.4418 c -0.75,0 -1.499,0 -2.624,0.3743 z"
     id="path1447"
     inkscape:connector-curvature="0"
     style="fill:#8c4a29" />
  <path
     d="M 150.669,64.0083 V 172.183 l 35.981,20.961 V 190.15 L 152.918,171.06 V 65.5055 Z"
     id="path1449"
     inkscape:connector-curvature="0"
     style="fill:#8c4a29" />
  <path
     d="M 152.918,65.5034 V 171.058 l 33.732,19.09 V 84.5931 Z"
     id="path1451"
     inkscape:connector-curvature="0"
     style="fill:#62a6bd" />
  <path
     d="m 175.031,166.194 v 17.592 l 11.619,6.364 v -17.219 z"
     id="path1453"
     inkscape:connector-curvature="0"
     style="fill:#c2e6f2" />
  <path
     d="m 154.792,154.964 v 17.218 l 11.619,6.738 v -17.592 z"
     id="path1455"
     inkscape:connector-curvature="0"
     style="fill:#c2e6f2" />
  <path
     d="m 175.031,80.4756 v 17.2181 l 11.619,6.7373 V 87.2131 Z"
     id="path1457"
     inkscape:connector-curvature="0"
     style="fill:#c2e6f2" />
  <path
     d="m 154.792,68.874 v 17.2182 l 11.619,6.7375 V 75.6116 Z"
     id="path1459"
     inkscape:connector-curvature="0"
     style="fill:#c2e6f2" />
  <path
     d="m 175.031,107.054 v 49.408 l 1.499,1.123 10.12,5.615 v -49.409 l -2.249,-1.123 z"
     id="path1461"
     inkscape:connector-curvature="0"
     style="fill:#c2e6f2" />
  <path
     d="m 154.792,95.4482 v 49.7828 l 11.619,6.738 v -49.783 z"
     id="path1463"
     inkscape:connector-curvature="0"
     style="fill:#c2e6f2" />
  <path
     d="M 232.001,179.67 220.382,163.2 v 19.839 l 11.619,6.363 z"
     id="path1465"
     inkscape:connector-curvature="0"
     style="fill:#e0f7ff" />
  <path
     d="m 232.001,199.133 -11.619,-6.738 v 17.592 l 11.619,6.738 z"
     id="path1467"
     inkscape:connector-curvature="0"
     style="fill:#e0f7ff" />
  <path
     d="m 212.136,151.222 -11.618,-16.096 v 36.308 l 11.618,6.738 z"
     id="path1469"
     inkscape:connector-curvature="0"
     style="fill:#e0f7ff" />
  <path
     d="m 212.136,187.903 -11.618,-6.737 v 10.106 l 8.62,11.978 2.998,1.871 z"
     id="path1471"
     inkscape:connector-curvature="0"
     style="fill:#e0f7ff" />
  <path
     d="m 175.031,107.054 v 48.285 l 1.499,2.246 10.12,5.615 v -47.912 l -2.249,-2.62 z"
     id="path1473"
     inkscape:connector-curvature="0"
     style="fill:#e0f7ff" />
  <path
     d="m 154.792,70.7451 v 15.3466 l 11.619,6.7376 v -5.6147 z"
     id="path1475"
     inkscape:connector-curvature="0"
     style="fill:#e0f7ff" />
  <path
     d="M 166.411,102.186 154.792,95.4482 V 126.89 l 11.619,16.47 z"
     id="path1477"
     inkscape:connector-curvature="0"
     style="fill:#e0f7ff" />
  <path
     d="m 186.65,165.818 -35.981,-20.587 2.249,-1.123 33.732,19.09 z"
     id="path1479"
     inkscape:connector-curvature="0"
     style="fill:#8c4a29" />
  <path
     d="M 170.533,75.6108 V 183.786 l 2.249,-1.498 V 76.7338 Z"
     id="path1481"
     inkscape:connector-curvature="0"
     style="fill:#8c4a29" />
  <path
     d="m 186.65,107.052 -35.981,-20.5865 2.249,-1.4972 33.732,19.4637 z"
     id="path1483"
     inkscape:connector-curvature="0"
     style="fill:#8c4a29" />
  <path
     d="M 186.65,111.919 150.669,90.958 v -4.4917 l 35.981,20.5867 z"
     id="path1485"
     inkscape:connector-curvature="0"
     style="fill:#e09257" />
  <path
     d="m 186.65,170.683 -35.981,-20.961 v -4.492 l 35.981,20.587 z"
     id="path1487"
     inkscape:connector-curvature="0"
     style="fill:#e09257" />
  <path
     d="M 170.533,75.2369 V 183.786 l -4.122,-2.246 V 72.6167 Z"
     id="path1489"
     inkscape:connector-curvature="0"
     style="fill:#e09257" />
  <path
     d="m 192.647,34.0622 v 29.5703 l -2.624,-1.4973 V 32.5649 c 0.375,0.3743 0.75,0.3743 1.125,0.7487 0.375,0.3743 1.124,0.7486 1.499,0.7486 z"
     id="path1491"
     inkscape:connector-curvature="0"
     style="fill:#e09257" />
  <path
     d="M 187.4,61.0135 183.652,58.7676 166.411,28.823 c 0.749,-0.3743 1.499,-0.3743 2.248,-0.3743 z"
     id="path1493"
     inkscape:connector-curvature="0"
     style="fill:#e09257" />
  <path
     d="m 216.259,57.6427 -17.241,9.732 -3.748,-2.2459 18.74,-10.8549 c 0.75,1.1229 1.5,2.2459 2.249,3.3688 z"
     id="path1495"
     inkscape:connector-curvature="0"
     style="fill:#e09257" />
  <path
     d="M 137.926,41.5464 V 180.04 l 106.819,61.761 V 103.307 Z M 240.622,235.438 142.049,178.543 V 47.9096 l 98.573,56.8944 z"
     id="path1497"
     inkscape:connector-curvature="0"
     style="fill:#8c4a29" />
  <path
     d="M 228.253,54.6486 C 218.134,38.179 204.641,24.704 191.523,16.8435 h -0.375 -0.375 c -13.118,-7.48615 -26.611,-9.35769 -36.73,-4.4917 -10.495,4.866 -16.492,20.2126 -16.492,28.4474 v 2.9945 l 4.123,2.2458 c 0,-1.1229 0,-2.6202 0,-3.7431 1.874,-23.9557 22.113,-32.56474 44.227,-22.4584 1.499,0.7486 3.373,1.4972 4.872,2.6201 0,0 0,0 0.375,0 0,0 0,0 0.375,0 23.987,13.8494 47.225,48.66 49.099,76.7331 0,1.1228 0,2.6198 0,3.7428 l 4.123,2.246 v -2.994 c 0,-8.2351 -5.997,-30.3193 -16.492,-47.5374 z"
     id="path1499"
     inkscape:connector-curvature="0"
     style="fill:#8c4a29" />
  <path
     d="M 135.303,43.0454 V 181.539 L 242.121,243.3 V 104.806 Z M 237.998,236.937 139.051,180.042 V 49.4086 l 98.573,56.8944 v 130.634 z"
     id="path1501"
     inkscape:connector-curvature="0"
     style="fill:#e09257" />
  <path
     d="M 225.63,56.1437 C 215.51,39.6742 202.017,26.1991 188.899,18.3386 h -0.374 -0.375 c -13.118,-7.4861 -26.611,-9.35767 -36.731,-4.4917 -10.494,4.866 -16.491,20.2126 -16.491,28.4474 v 2.6202 l 4.123,2.2458 c 0,-1.1229 0,-2.6202 0,-3.7431 1.874,-23.9557 22.113,-32.5647 44.226,-22.4584 1.5,0.7486 3.374,1.4972 4.873,2.6201 0,0 0,0 0.375,0 0,0 0,0 0.374,0 23.988,13.8494 47.225,48.66 49.099,76.7331 0,1.123 0,2.62 0,3.743 l 4.123,2.246 v -2.995 c 0,-7.86 -5.997,-29.9442 -16.491,-47.1623 z"
     id="path1503"
     inkscape:connector-curvature="0"
     style="fill:#e09257" />
  <path
     d="m 63.716,11.9785 98.572,56.8948 V 236.189 L 63.716,179.294 Z"
     id="path1505"
     inkscape:connector-curvature="0"
     style="fill:#b96b39" />
  <path
     d="m 63.716,11.9785 98.572,56.8948 V 236.189 L 63.716,179.294 Z"
     id="path1507"
     inkscape:connector-curvature="0"
     style="fill:#b96b39" />
  <path
     d="M 114.689,43.044 V 201.376 L 112.44,202.499 67.464,18.714 70.087,17.2168 Z"
     id="path1509"
     inkscape:connector-curvature="0"
     style="fill:#8c4a29" />
  <path
     d="M 161.164,69.6221 V 227.954 l -2.624,1.497 -44.601,-184.1588 2.249,-1.4973 z"
     id="path1511"
     inkscape:connector-curvature="0"
     style="fill:#8c4a29" />
  <path
     d="m 59.593,5.61426 -2.624,1.49723 2.624,173.67851 104.194,63.258 2.624,-1.497 V 67.375 Z M 162.288,236.188 63.715,179.293 V 11.9775 l 98.573,56.8947 z"
     id="path1513"
     inkscape:connector-curvature="0"
     style="fill:#8c4a29" />
  <path
     d="M 158.54,71.1173 V 229.449 L 113.939,203.622 V 45.29 Z"
     id="path1515"
     inkscape:connector-curvature="0"
     style="fill:#e09257" />
  <path
     d="m 118.062,54.2744 35.606,20.5869 V 220.093 l -35.606,-20.962 z"
     id="path1517"
     inkscape:connector-curvature="0"
     style="fill:#62a6bd" />
  <path
     d="m 142.424,193.141 v 17.593 l 11.244,6.363 v -17.218 l -0.375,-0.375 z"
     id="path1519"
     inkscape:connector-curvature="0"
     style="fill:#c2e6f2" />
  <path
     d="m 153.293,199.504 -10.869,-6.363 v 17.593 l 11.244,6.363 v -16.47 z"
     id="path1521"
     inkscape:connector-curvature="0"
     style="fill:#e0f7ff" />
  <path
     d="m 122.184,181.912 v 17.218 l 11.619,6.737 v -17.218 z"
     id="path1523"
     inkscape:connector-curvature="0"
     style="fill:#c2e6f2" />
  <path
     d="m 133.803,188.649 -11.619,-6.737 v 17.218 l 11.619,6.737 z"
     id="path1525"
     inkscape:connector-curvature="0"
     style="fill:#e0f7ff" />
  <path
     d="m 142.424,70.7417 v 17.2182 l 11.244,6.7375 V 77.4792 Z"
     id="path1527"
     inkscape:connector-curvature="0"
     style="fill:#c2e6f2" />
  <path
     d="m 122.184,59.1401 v 17.2182 l 11.619,6.7375 V 65.8777 Z"
     id="path1529"
     inkscape:connector-curvature="0"
     style="fill:#c2e6f2" />
  <path
     d="m 142.424,98.0654 v 85.7166 l 11.244,6.363 v -85.342 z"
     id="path1531"
     inkscape:connector-curvature="0"
     style="fill:#c2e6f2" />
  <path
     d="m 153.668,125.019 -11.244,-16.47 v 47.537 l 11.244,16.096 z"
     id="path1533"
     inkscape:connector-curvature="0"
     style="fill:#e0f7ff" />
  <path
     d="M 122.184,86.4634 V 172.18 l 11.619,6.737 V 93.2009 l -4.498,-2.6201 z"
     id="path1535"
     inkscape:connector-curvature="0"
     style="fill:#c2e6f2" />
  <path
     d="m 133.803,172.553 -11.619,-16.47 v 16.095 l 11.619,6.738 z"
     id="path1537"
     inkscape:connector-curvature="0"
     style="fill:#e0f7ff" />
  <path
     d="m 129.305,90.5808 -7.121,-4.1174 v 41.1736 l 11.619,16.47 V 96.944 Z"
     id="path1539"
     inkscape:connector-curvature="0"
     style="fill:#e0f7ff" />
  <path
     d="m 153.668,97.3185 -35.606,-20.5869 2.248,-1.4972 33.358,19.464 z"
     id="path1541"
     inkscape:connector-curvature="0"
     style="fill:#8c4a29" />
  <path
     d="m 153.668,193.14 -35.606,-20.961 2.248,-1.123 33.358,19.089 z"
     id="path1543"
     inkscape:connector-curvature="0"
     style="fill:#8c4a29" />
  <path
     d="m 137.926,65.877 v 144.857 l 2.249,-1.123 V 66.9999 Z"
     id="path1545"
     inkscape:connector-curvature="0"
     style="fill:#8c4a29" />
  <path
     d="M 118.062,54.2744 V 199.131 l 35.606,20.962 v -2.995 L 120.31,198.009 V 55.7716 Z"
     id="path1547"
     inkscape:connector-curvature="0"
     style="fill:#8c4a29" />
  <path
     d="M 153.668,102.186 118.062,81.2246 v -4.4917 l 35.606,20.5869 z"
     id="path1549"
     inkscape:connector-curvature="0"
     style="fill:#e09257" />
  <path
     d="m 153.668,197.635 -35.606,-20.587 v -4.866 l 35.606,20.961 z"
     id="path1551"
     inkscape:connector-curvature="0"
     style="fill:#e09257" />
  <path
     d="M 137.927,65.5035 V 210.735 l -4.123,-2.246 V 62.8833 Z"
     id="path1553"
     inkscape:connector-curvature="0"
     style="fill:#e09257" />
  <path
     d="M 112.44,44.5421 V 202.5 L 67.464,176.673 V 18.7148 Z"
     id="path1555"
     inkscape:connector-curvature="0"
     style="fill:#e09257" />
  <path
     d="m 72.336,28.0732 35.981,20.587 V 193.892 L 72.336,172.93 Z"
     id="path1557"
     inkscape:connector-curvature="0"
     style="fill:#62a6bd" />
  <path
     d="m 96.699,166.94 v 17.218 l 9.744,5.989 1.874,0.749 v -17.219 z"
     id="path1559"
     inkscape:connector-curvature="0"
     style="fill:#c2e6f2" />
  <path
     d="M 108.317,173.677 96.699,166.94 v 9.358 l 9.744,13.849 1.874,0.749 z"
     id="path1561"
     inkscape:connector-curvature="0"
     style="fill:#e0f7ff" />
  <path
     d="m 76.834,155.71 v 17.219 l 11.619,6.737 v -17.592 l -2.624,-1.498 z"
     id="path1563"
     inkscape:connector-curvature="0"
     style="fill:#c2e6f2" />
  <path
     d="m 88.453,162.077 -2.624,-1.497 2.624,3.743 z"
     id="path1565"
     inkscape:connector-curvature="0"
     style="fill:#e0f7ff" />
  <path
     d="m 96.699,44.5439 v 17.2182 l 11.618,6.7375 V 51.2815 Z"
     id="path1567"
     inkscape:connector-curvature="0"
     style="fill:#c2e6f2" />
  <path
     d="M 108.317,61.0135 96.699,44.5439 v 17.2182 l 11.618,6.7375 z"
     id="path1569"
     inkscape:connector-curvature="0"
     style="fill:#e0f7ff" />
  <path
     d="m 76.834,32.938 v 17.2181 l 11.619,6.7376 V 39.6755 Z"
     id="path1571"
     inkscape:connector-curvature="0"
     style="fill:#c2e6f2" />
  <path
     d="m 76.834,32.938 v 17.2181 l 11.619,6.7376 V 39.6755 Z"
     id="path1573"
     inkscape:connector-curvature="0"
     style="fill:#e0f7ff" />
  <path
     d="M 96.699,71.8682 V 157.21 l 11.618,6.738 V 78.6057 Z"
     id="path1575"
     inkscape:connector-curvature="0"
     style="fill:#c2e6f2" />
  <path
     d="M 108.317,78.6057 96.699,71.8682 v 19.8383 l 11.618,16.4695 z"
     id="path1577"
     inkscape:connector-curvature="0"
     style="fill:#e0f7ff" />
  <path
     d="m 108.317,136.621 -11.618,-16.47 v 37.057 l 11.618,6.737 z"
     id="path1579"
     inkscape:connector-curvature="0"
     style="fill:#e0f7ff" />
  <path
     d="m 76.834,60.2617 v 85.7163 l 11.619,6.738 V 66.9993 Z"
     id="path1581"
     inkscape:connector-curvature="0"
     style="fill:#c2e6f2" />
  <path
     d="M 88.453,66.9993 76.834,60.2617 v 3.3688 L 88.453,80.1 Z"
     id="path1583"
     inkscape:connector-curvature="0"
     style="fill:#e0f7ff" />
  <path
     d="m 76.834,92.0781 v 53.8999 l 11.619,6.738 v -44.543 z"
     id="path1585"
     inkscape:connector-curvature="0"
     style="fill:#e0f7ff" />
  <path
     d="m 108.317,166.566 -35.981,-20.587 2.249,-1.498 33.732,19.464 z"
     id="path1587"
     inkscape:connector-curvature="0"
     style="fill:#8c4a29" />
  <path
     d="m 108.317,71.1173 -35.981,-20.5869 2.249,-1.4972 33.732,19.464 z"
     id="path1589"
     inkscape:connector-curvature="0"
     style="fill:#8c4a29" />
  <path
     d="M 72.336,28.0732 V 172.93 l 35.981,20.587 v -2.62 L 74.585,171.807 V 29.5705 Z"
     id="path1591"
     inkscape:connector-curvature="0"
     style="fill:#8c4a29" />
  <path
     d="M 92.2,39.6748 V 184.532 l 2.624,-1.497 V 40.7977 Z"
     id="path1593"
     inkscape:connector-curvature="0"
     style="fill:#8c4a29" />
  <path
     d="M 108.317,75.6099 72.336,55.0229 v -4.4917 l 35.981,20.587 z"
     id="path1595"
     inkscape:connector-curvature="0"
     style="fill:#e09257" />
  <path
     d="M 108.317,171.433 72.336,150.472 v -4.492 l 35.981,20.587 z"
     id="path1597"
     inkscape:connector-curvature="0"
     style="fill:#e09257" />
  <path
     d="m 92.2,38.927 v 145.606 l -3.748,-2.246 V 36.6812 Z"
     id="path1599"
     inkscape:connector-curvature="0"
     style="fill:#e09257" />
  <path
     d="M 56.969,7.11328 V 182.289 L 163.787,244.05 V 68.874 Z M 159.665,237.687 61.092,180.792 V 13.4765 l 98.573,56.8948 z"
     id="path1601"
     inkscape:connector-curvature="0"
     style="fill:#e09257" />
  <path
     d="M 72.336,179.292 49.098,165.817 v 18.716 l 11.619,16.469 11.619,6.738 z"
     id="path1603"
     inkscape:connector-curvature="0"
     style="fill:#e0f7ff" />
  <path
     d="m 41.227,161.328 -14.242,-8.235 14.242,20.213 z"
     id="path1605"
     inkscape:connector-curvature="0"
     style="fill:#e0f7ff" />
  <path
     d="M 2.623,0 0,1.49723 2.623,181.539 l 80.208,49.409 2.623,-1.497 V 47.9114 Z M 79.832,218.97 8.62,178.17 V 10.4806 l 71.212,40.7995 z"
     id="path1607"
     inkscape:connector-curvature="0"
     style="fill:#0d0d0c" />
  <path
     d="M 79.832,51.2795 8.62,10.48 v 167.69 l 71.212,40.799 z"
     id="path1609"
     inkscape:connector-curvature="0"
     style="fill:#424242" />
  <path
     d="M 73.461,55.3967 14.991,21.709 v 72.6157 l 58.47,33.6873 z"
     id="path1611"
     inkscape:connector-curvature="0"
     style="fill:#62a6bd" />
  <path
     d="m 50.223,45.29 v 28.4474 l 17.241,9.732 5.997,3.7431 V 58.7651 Z"
     id="path1613"
     inkscape:connector-curvature="0"
     style="fill:#c2e6f2" />
  <path
     d="M 19.114,27.3237 V 55.7711 L 42.352,69.2462 V 40.7988 l -8.995,-5.2403 z"
     id="path1615"
     inkscape:connector-curvature="0"
     style="fill:#c2e6f2" />
  <path
     d="M 67.464,83.4723 50.223,59.5166 v 14.2237 z"
     id="path1617"
     inkscape:connector-curvature="0"
     style="fill:#e0f7ff" />
  <path
     d="M 19.114,27.3237 V 55.7711 L 42.352,69.2462 V 48.285 L 33.357,35.5585 Z"
     id="path1619"
     inkscape:connector-curvature="0"
     style="fill:#e0f7ff" />
  <path
     d="m 50.223,83.8462 v 28.4478 l 6.746,3.743 16.492,9.357 V 97.3213 Z"
     id="path1621"
     inkscape:connector-curvature="0"
     style="fill:#c2e6f2" />
  <path
     d="m 19.114,65.877 v 28.4473 l 9.37,5.2403 13.868,7.8604 V 79.352 L 22.862,67.7485 Z"
     id="path1623"
     inkscape:connector-curvature="0"
     style="fill:#c2e6f2" />
  <path
     d="M 73.461,97.3213 50.223,83.8462 v 22.8328 l 6.746,9.358 16.492,9.357 z"
     id="path1625"
     inkscape:connector-curvature="0"
     style="fill:#e0f7ff" />
  <path
     d="M 42.352,79.3516 22.862,67.748 42.352,95.4468 Z"
     id="path1627"
     inkscape:connector-curvature="0"
     style="fill:#e0f7ff" />
  <path
     d="m 19.114,94.3238 9.37,5.2403 -9.37,-13.1007 z"
     id="path1629"
     inkscape:connector-curvature="0"
     style="fill:#e0f7ff" />
  <path
     d="m 46.1,39.3022 v 72.9898 l 2.249,-1.497 V 40.7995 Z"
     id="path1631"
     inkscape:connector-curvature="0"
     style="fill:#0d0d0c" />
  <path
     d="M 78.333,136.248 7.121,95.4487 v 83.4703 l 71.212,41.174 z"
     id="path1633"
     inkscape:connector-curvature="0"
     style="fill:#575756" />
  <path
     d="M 72.336,138.867 13.492,105.179 v 71.119 l 58.844,34.062 z"
     id="path1635"
     inkscape:connector-curvature="0"
     style="fill:#62a6bd" />
  <path
     d="m 49.098,165.817 v 28.448 l 11.619,6.737 11.619,6.738 v -28.448 z"
     id="path1637"
     inkscape:connector-curvature="0"
     style="fill:#c2e6f2" />
  <path
     d="m 17.99,147.851 v 28.447 l 23.238,13.476 v -28.448 l -14.243,-8.235 z"
     id="path1639"
     inkscape:connector-curvature="0"
     style="fill:#c2e6f2" />
  <path
     d="m 49.098,128.763 v 28.073 l 23.238,13.475 V 141.864 L 49.473,128.763 Z"
     id="path1641"
     inkscape:connector-curvature="0"
     style="fill:#c2e6f2" />
  <path
     d="m 49.473,128.763 h -0.375 v 28.073 l 23.238,13.475 v -9.357 z"
     id="path1643"
     inkscape:connector-curvature="0"
     style="fill:#e0f7ff" />
  <path
     d="m 17.99,110.794 v 28.073 l 23.238,13.475 v -28.447 z"
     id="path1645"
     inkscape:connector-curvature="0"
     style="fill:#c2e6f2" />
  <path
     d="m 17.99,110.794 v 28.073 l 23.238,13.475 v -28.447 z"
     id="path1647"
     inkscape:connector-curvature="0"
     style="fill:#e0f7ff" />
  <path
     d="m 44.601,123.148 v 71.119 l 2.249,-1.123 v -68.873 z"
     id="path1649"
     inkscape:connector-curvature="0"
     style="fill:#0d0d0c" />
  <path
     d="m 13.492,138.869 58.844,33.687 v -2.62 L 15.741,137.372 Z"
     id="path1651"
     inkscape:connector-curvature="0"
     style="fill:#0d0d0c" />
  <path
     d="m 14.991,55.7704 58.47,34.062 V 87.2122 L 17.24,54.6475 Z"
     id="path1653"
     inkscape:connector-curvature="0"
     style="fill:#0d0d0c" />
  <path
     d="m 7.121,95.4469 71.212,40.7991 v -2.62 L 9.744,93.9497 Z"
     id="path1655"
     inkscape:connector-curvature="0"
     style="fill:#0d0d0c" />
  <path
     d="m 13.492,105.179 v 71.119 l 58.844,34.062 v -2.621 L 15.741,175.175 v -68.873 z"
     id="path1657"
     inkscape:connector-curvature="0"
     style="fill:#0d0d0c" />
  <path
     d="m 14.991,21.709 v 72.6157 l 58.47,33.6873 v -2.62 L 17.24,92.8274 V 22.8319 Z"
     id="path1659"
     inkscape:connector-curvature="0"
     style="fill:#0d0d0c" />
  <path
     d="M 44.601,123.146 41.228,120.9 v 71.493 l 3.373,1.872 z"
     id="path1661"
     inkscape:connector-curvature="0"
     style="fill:#575756" />
  <path
     d="m 13.492,138.867 v 3.743 l 58.844,34.062 v -4.118 z"
     id="path1663"
     inkscape:connector-curvature="0"
     style="fill:#575756" />
  <path
     d="m 46.1,39.3022 -3.748,-1.8715 v 72.6153 l 3.748,2.246 z"
     id="path1665"
     inkscape:connector-curvature="0"
     style="fill:#424242" />
  <path
     d="m 14.991,55.7729 v 4.1174 l 58.47,34.062 v -4.1174 z"
     id="path1667"
     inkscape:connector-curvature="0"
     style="fill:#424242" />
  <path
     d="M 0,1.49854 V 183.038 l 82.831,47.911 V 49.4099 Z M 76.834,220.468 5.996,179.669 V 11.9791 L 77.209,52.7787 V 220.468 Z"
     id="path1669"
     inkscape:connector-curvature="0"
     style="fill:#616160" />
  <path
     d="m 131,199.996 139.884,-81.356 -182.128,86.54 0.797,1.196 z"
     id="path1671"
     inkscape:connector-curvature="0"
     style="fill:#9c480c" />
  <path
     d="m 370.117,176.067 -99.233,-57.427 126.732,61.814 v 1.994 z"
     id="path1673"
     inkscape:connector-curvature="0"
     style="fill:#d9af6a" />
  <path
     d="M 229.835,333.591 131,276.164 v -77.368 l 98.835,57.029 z"
     id="path1675"
     inkscape:connector-curvature="0"
     style="fill:#b76f3f" />
  <path
     d="m 131,198.796 v 77.368 l 98.835,57.427 -96.843,-58.624 z"
     id="path1677"
     inkscape:connector-curvature="0"
     style="fill:#a45823" />
  <path
     d="m 370.118,174.471 v 77.368 l -25.506,14.755 -10.761,6.381 -26.303,15.553 -14.745,8.375 -27.897,16.351 -11.159,6.381 -23.912,13.958 v -77.766 l 23.912,-13.56 11.159,-6.779 27.897,-16.351 3.587,-1.994 11.158,-6.381 26.303,-15.154 10.761,-6.381 z"
     id="path1679"
     inkscape:connector-curvature="0"
     style="fill:#d9af6a" />
  <path
     d="m 229.835,333.591 140.283,-81.754 v -1.196 l -140.283,81.754 z"
     id="path1681"
     inkscape:connector-curvature="0"
     style="fill:#b58847" />
  <path
     d="m 153.318,241.869 -17.137,-9.97 v -25.524 l 17.137,9.971 z m -15.543,-10.768 13.949,7.976 v -21.934 l -13.949,-7.976 z"
     id="path1683"
     inkscape:connector-curvature="0"
     style="fill:#8c4320" />
  <path
     d="m 141.362,229.504 5.978,3.589 v -7.178 l -5.978,-3.19 z"
     id="path1685"
     inkscape:connector-curvature="0"
     style="fill:#8c4320" />
  <path
     d="m 138.572,221.131 11.557,6.38 -5.579,-11.964 z"
     id="path1687"
     inkscape:connector-curvature="0"
     style="fill:#8c4320" />
  <path
     d="m 270.884,117.045 -20.723,11.964 -10.362,5.982 L 131,198.799 88.756,205.18 242.19,123.825 l 0.797,-0.399 7.572,-1.595 z"
     id="path1689"
     inkscape:connector-curvature="0"
     style="fill:#d9af6a" />
  <path
     d="m 397.616,180.452 -27.499,-6.38 -45.432,-25.923 -21.122,-12.362 -32.679,-18.744 27.897,6.381 7.572,4.387 24.31,13.958 z"
     id="path1691"
     inkscape:connector-curvature="0"
     style="fill:#e8c583" />
  <path
     d="m 370.117,174.47 -25.506,14.756 -10.76,6.381 -26.303,15.154 -11.159,6.381 -3.586,1.994 -27.897,16.351 -11.159,6.779 -23.912,13.56 -2.391,-1.595 -15.941,-9.173 -80.503,-46.261 139.884,-81.754 53.402,30.708 20.325,11.964 z"
     id="path1693"
     inkscape:connector-curvature="0"
     style="fill:#efd995" />
  <path
     d="m 238.204,247.451 11.159,-6.78 3.188,1.994 -11.158,6.78 z"
     id="path1695"
     inkscape:connector-curvature="0"
     style="fill:#d69985" />
  <path
     d="m 277.261,224.32 14.745,-8.375 3.188,1.994 -14.745,8.375 z"
     id="path1697"
     inkscape:connector-curvature="0"
     style="fill:#d69985" />
  <path
     d="m 318.309,200.394 10.76,-5.982 3.188,1.994 -10.76,6.38 z"
     id="path1699"
     inkscape:connector-curvature="0"
     style="fill:#d69985" />
  <path
     d="m 363.741,174.073 -12.753,7.577 -0.797,0.399 -1.594,0.797 -5.181,2.792 -1.594,1.196 -1.594,0.798 -3.587,2.393 -22.318,12.761 -1.594,0.798 -3.586,1.994 -1.595,1.196 -4.383,2.393 -1.594,1.197 -0.798,0.398 h -0.398 l -0.399,0.399 -5.18,2.792 -11.956,7.178 -10.362,6.381 -2.79,1.196 -1.594,1.197 h -0.398 l -3.189,1.994 -1.594,0.797 -1.594,1.197 -3.188,1.595 -13.152,7.976 -9.564,5.583 -1.594,0.798 -3.189,1.994 -0.797,0.399 -4.782,-2.792 -56.591,-32.702 -22.716,-13.16 -8.37,-4.786 133.508,-78.165 z"
     id="path1701"
     inkscape:connector-curvature="0"
     style="fill:#9f5939" />
  <path
     d="M 212.699,290.123 99.118,233.095 98.321,231.5 229.835,255.826 v 2.393 z"
     id="path1703"
     inkscape:connector-curvature="0"
     style="fill:#d9af6a" />
  <path
     d="M 211.902,288.527 98.321,231.499 131,198.797 l 98.835,57.028 z"
     id="path1705"
     inkscape:connector-curvature="0"
     style="fill:#e5bc71" />
  <path
     d="m 370.118,221.132 v -8.774 L 229.835,258.22 v 9.571 l 14.347,26.321 9.565,-5.583 v 31.106 l 11.159,-6.38 v -31.107 l 27.897,-16.351 v 31.107 l 14.745,-8.375 v -31.107 l 26.303,-15.154 v 30.708 l 10.761,-6.381 v -30.708 z"
     id="path1707"
     inkscape:connector-curvature="0"
     style="fill:#d69985" />
  <path
     d="m 247.371,289.722 139.883,-81.754 0.797,-0.798 -158.216,48.654 v 2.393 z"
     id="path1709"
     inkscape:connector-curvature="0"
     style="fill:#b76f3f" />
  <path
     d="m 388.051,207.174 -43.439,25.124 -11.159,6.381 -26.303,15.553 -14.347,8.375 -28.296,16.351 -11.159,6.78 -5.18,2.791 -18.333,-32.701 11.558,-6.381 11.158,-6.78 27.897,-16.351 14.746,-8.375 26.303,-15.154 10.76,-6.381 37.861,-21.934 z"
     id="path1711"
     inkscape:connector-curvature="0"
     style="fill:#fde697" />
  <path
     d="m 264.906,279.355 -11.159,6.78 -0.399,-0.399 -11.955,-36.291 11.158,-6.779 11.956,36.29 z"
     id="path1713"
     inkscape:connector-curvature="0"
     style="fill:#d69985" />
  <path
     d="m 307.548,254.628 -14.745,8.375 v -0.399 l -12.355,-36.291 14.746,-8.375 11.956,36.291 z"
     id="path1715"
     inkscape:connector-curvature="0"
     style="fill:#d69985" />
  <path
     d="m 344.612,233.096 -10.761,5.982 -0.398,-0.399 -11.956,-35.892 10.76,-6.381 12.355,35.892 z"
     id="path1717"
     inkscape:connector-curvature="0"
     style="fill:#d69985" />
  <path
     d="M 211.902,288.528 98.321,231.5 l 0.797,1.595 113.581,57.028 z"
     id="path1719"
     inkscape:connector-curvature="0"
     style="fill:#9c480c" />
  <path
     d="m 270.884,120.633 v 107.278 l -41.049,24.327 -92.459,-53.44 z"
     id="path1721"
     inkscape:connector-curvature="0"
     style="fill:#d19f66" />
  <path
     d="M 229.835,333.593 H 187.99 L 77.199,279.755 131,253.434 v 22.732 z"
     id="path1723"
     inkscape:connector-curvature="0"
     style="fill:#acb5b4" />
  <path
     d="m 263.312,341.171 -54.2,-7.577 h 20.723 l 7.174,-3.988 17.535,1.994 25.904,-14.756 -26.701,2.791 11.159,-6.38 25.107,-1.596 31.484,-18.344 -28.694,3.589 14.745,-8.375 28.694,-2.393 25.506,-14.755 -27.897,1.595 10.761,-6.381 38.258,-2.393 -7.572,7.179 z"
     id="path1725"
     inkscape:connector-curvature="0"
     style="fill:#acb5b4" />
  <path
     d="m 274.869,138.58 -3.587,-1.994 -125.537,66.999 22.717,13.16 56.192,32.702 5.181,2.792 0.399,-0.399 3.586,-1.994 1.594,-0.798 9.167,-5.583 13.55,-7.976 3.188,-1.595 1.594,-0.798 1.594,-0.797 2.79,-1.596 0.398,-0.398 1.594,-0.798 2.392,-1.595 10.361,-5.982 -19.129,-11.565 -15.941,-9.572 -13.949,-8.374 -19.926,-11.964 -1.594,-1.197 -1.594,-1.196 -1.196,-1.197 25.506,-13.958 1.594,-0.797 1.993,-1.197 33.476,-18.345 72.532,43.47 5.181,-2.792 1.594,-0.797 z"
     id="path1727"
     inkscape:connector-curvature="0"
     style="fill:#7b7f8b" />
  <path
     d="m 350.988,181.65 -0.797,0.399 -1.594,0.797 -5.181,2.792 -1.594,1.196 -1.594,0.798 -3.587,2.393 -22.318,12.762 -1.594,0.797 -3.587,1.994 -1.594,1.197 -4.384,2.392 -1.594,1.197 -0.797,0.399 h -0.398 l -0.399,0.398 -5.181,2.792 -11.956,7.178 -10.361,6.381 -2.79,1.197 -1.594,1.196 h -0.399 l -3.188,1.994 -1.594,0.798 -1.594,1.196 -3.188,1.595 -13.152,7.976 -9.565,5.583 -1.594,0.798 -3.188,1.994 -0.797,0.399 -4.782,-2.792 -56.591,-32.701 -22.717,-13.161 125.936,-69.79 z"
     id="path1729"
     inkscape:connector-curvature="0"
     style="fill:#c5c7cf" />
  <path
     d="m 276.861,208.77 17.934,5.185 -11.956,7.178 -10.361,6.381 -2.79,1.196 -1.594,1.197 h -0.399 l -22.716,-13.559 -0.797,-0.399 -3.587,-1.994 -0.398,-0.399 h -0.399 l -0.797,-0.399 v -0.399 l -1.195,-0.797 -1.594,-0.798 -0.399,-0.399 h -0.399 l -45.033,-27.118 v -0.399 l 6.376,1.595 9.963,3.191 15.543,4.386 25.107,7.578 z"
     id="path1731"
     inkscape:connector-curvature="0"
     style="fill:#9497a1" />
  <path
     d="m 307.548,206.776 -4.384,2.392 -1.594,1.197 -0.797,0.399 h -0.398 l -0.399,0.398 -5.181,2.792 -11.956,7.178 -10.361,6.381 -2.79,1.197 -1.594,1.196 -22.716,-13.559 -0.399,-0.399 -3.985,-2.393 -0.797,-0.399 -0.399,-0.398 -0.797,-0.399 -0.398,-0.399 h -0.399 l -1.594,-0.798 -0.398,-0.398 -0.399,-0.399 -45.432,-27.119 1.594,-1.196 38.657,-21.535 3.587,1.994 z"
     id="path1733"
     inkscape:connector-curvature="0"
     style="fill:#e8e9f0" />
  <path
     d="m 303.164,209.166 -1.594,1.197 -0.797,0.398 h -0.398 l -0.399,0.399 -5.181,2.792 -11.956,7.178 -10.361,6.381 -27.1,-16.351 -30.288,-17.946 -8.37,-5.184 -3.586,-2.393 -1.594,-0.798 -1.993,-1.196 10.76,-5.982 21.122,-11.565 z"
     id="path1735"
     inkscape:connector-curvature="0"
     style="fill:#62a6bd" />
  <path
     d="m 258.131,235.489 -13.152,7.976 -9.564,5.583 -1.595,0.797 -3.188,1.994 -0.797,0.399 -4.782,-2.791 -18.333,-10.768 -17.535,-9.97 -20.723,-11.964 -18.731,-11.167 v -1.994 l 13.55,3.988 6.376,1.994 19.528,5.584 16.34,4.785 14.745,4.387 z"
     id="path1737"
     inkscape:connector-curvature="0"
     style="fill:#9497a1" />
  <path
     d="m 262.913,232.696 -1.594,1.197 -3.188,1.595 -13.152,7.976 -9.565,5.583 -1.594,0.798 -70.539,-42.273 -1.595,-0.798 -1.594,-1.196 1.594,-0.798 h 0.399 l 11.159,-6.381 4.782,-2.791 10.362,-5.583 1.594,-1.197 42.244,25.523 1.594,0.798 0.399,0.399 z"
     id="path1739"
     inkscape:connector-curvature="0"
     style="fill:#fffeff" />
  <path
     d="m 320.7,185.24 15.941,4.786 -22.318,12.761 -1.594,0.798 -3.586,1.994 -1.595,1.196 -73.329,-44.266 -3.587,-1.994 v -1.994 l 7.174,1.994 6.376,1.994 6.775,1.994 3.986,1.196 z"
     id="path1741"
     inkscape:connector-curvature="0"
     style="fill:#9497a1" />
  <path
     d="m 270.884,144.161 70.938,42.672 -1.594,0.797 -3.587,2.393 -22.318,12.762 -1.594,0.797 -21.919,-12.761 -0.398,-0.399 -3.587,-2.393 -1.594,-0.797 -0.797,-0.399 -2.392,-1.197 v -0.398 l -37.86,-22.732 -1.195,-0.798 -1.993,-0.797 1.993,-1.197 21.919,-11.964 4.384,-2.791 z"
     id="path1743"
     inkscape:connector-curvature="0"
     style="fill:#fffeff" />
  <path
     d="m 262.913,232.696 -1.595,1.197 -35.469,-21.536 -29.889,-17.946 -5.978,-3.589 -7.971,4.786 -9.166,4.785 -9.166,5.185 -1.993,1.196 -1.594,-1.196 1.594,-0.798 h 0.399 l 11.159,-6.381 4.782,-2.791 10.362,-5.583 1.594,-1.197 42.244,25.523 1.594,0.798 0.399,0.399 z"
     id="path1745"
     inkscape:connector-curvature="0"
     style="fill:#9497a1" />
  <path
     d="m 303.164,209.166 -1.594,1.197 -70.141,-42.273 -1.196,0.399 -5.579,3.19 -12.354,7.178 -1.196,0.399 -9.565,5.583 -1.992,-1.196 10.76,-5.982 21.122,-11.565 z"
     id="path1747"
     inkscape:connector-curvature="0"
     style="fill:#9497a1" />
  <path
     d="m 201.539,184.839 -1.992,-1.196 31.882,-17.547 v 1.994 z"
     id="path1749"
     inkscape:connector-curvature="0"
     style="fill:#dbdce0" />
  <path
     d="m 270.883,144.162 70.939,42.671 -1.595,0.798 -5.977,-3.19 -35.868,-21.935 -27.499,-16.35 -26.303,14.755 -1.594,0.798 -1.992,-0.798 1.992,-1.196 21.919,-11.964 4.384,-2.792 z"
     id="path1751"
     inkscape:connector-curvature="0"
     style="fill:#9497a1" />
  <path
     d="m 269.688,228.707 -1.594,1.196 h -0.399 l -3.188,1.994 -1.594,0.798 -1.594,1.196 -3.189,1.595 -13.151,7.976 -9.565,5.584 -1.594,0.797 -3.188,1.994 -80.901,-48.255 40.649,-22.332 1.595,0.797 4.782,2.792 41.846,25.124 1.195,0.798 1.196,0.797 0.398,0.399 z"
     id="path1753"
     inkscape:connector-curvature="0"
     style="fill:#f4f5fa" />
  <path
     d="m 264.507,231.897 -1.594,0.798 -1.595,1.196 -3.188,1.595 -13.151,7.976 -9.565,5.584 -6.775,-4.387 -48.222,-28.714 -10.76,-6.381 -5.978,-3.988 -0.797,-0.399 -0.797,-0.398 h -0.399 l -1.594,-1.197 29.89,-16.351 43.439,25.923 1.196,0.797 1.594,0.798 z"
     id="path1755"
     inkscape:connector-curvature="0"
     style="fill:#62a6bd" />
  <path
     d="m 274.869,138.578 73.728,44.267 -5.181,2.792 -1.594,1.196 -1.594,0.798 -3.587,2.393 -22.318,12.761 -1.594,0.798 -3.587,1.994 -73.329,-43.868 -5.181,-3.191 40.65,-22.332 z"
     id="path1757"
     inkscape:connector-curvature="0"
     style="fill:#f4f5fa" />
  <path
     d="m 270.883,142.168 72.533,43.469 -1.594,1.197 -1.595,0.797 -3.586,2.393 -22.318,12.762 -25.107,-15.155 -1.993,-1.196 -1.594,-0.798 -0.797,-0.399 -0.399,-0.398 -31.483,-18.744 -1.993,-1.595 -6.377,-3.589 -0.398,-0.399 -1.196,-0.798 -1.992,-0.797 z"
     id="path1759"
     inkscape:connector-curvature="0"
     style="fill:#62a6bd" />
  <path
     d="m 264.507,231.897 -1.594,0.798 -28.694,-17.149 -0.399,-0.398 -1.594,-0.798 -42.244,-25.523 -1.594,1.196 -10.362,5.583 -4.782,2.792 -11.159,6.381 h -0.399 l -1.594,-1.197 29.89,-16.351 43.439,25.923 1.196,0.797 1.594,0.798 z"
     id="path1761"
     inkscape:connector-curvature="0"
     style="fill:#9497a1" />
  <path
     d="m 161.686,204.779 -1.594,-1.197 29.89,-16.351 v 1.596 z"
     id="path1763"
     inkscape:connector-curvature="0"
     style="fill:#dbdce0" />
  <path
     d="m 343.416,185.637 -1.594,1.197 -70.939,-42.672 -1.594,0.798 -4.384,2.791 -21.919,11.964 -1.992,-0.797 29.889,-16.75 z"
     id="path1765"
     inkscape:connector-curvature="0"
     style="fill:#9497a1" />
  <path
     d="m 242.986,159.715 -1.992,-0.797 29.889,-16.75 v 1.994 z"
     id="path1767"
     inkscape:connector-curvature="0"
     style="fill:#dbdce0" />
  <path
     d="m 261.319,233.892 -3.188,1.595 -13.152,7.976 -9.565,5.583 -6.775,-4.387 -48.222,-28.713 -10.76,-6.381 -5.978,-3.988 -0.797,-0.399 -0.797,-0.399 11.159,-6.381 4.782,-2.791 10.362,-5.584 7.572,4.387 29.89,17.946 z"
     id="path1769"
     inkscape:connector-curvature="0"
     style="fill:#c2e6f2" />
  <path
     d="m 261.318,233.894 -3.188,1.595 -13.151,7.976 -16.34,1.196 -48.222,-28.713 8.768,-0.798 36.664,-2.792 z"
     id="path1771"
     inkscape:connector-curvature="0"
     style="fill:#e0f7ff" />
  <path
     d="m 178.026,195.607 17.934,-1.197 -7.572,-4.387 z"
     id="path1773"
     inkscape:connector-curvature="0"
     style="fill:#e0f7ff" />
  <path
     d="m 334.648,184.042 5.58,3.589 -3.587,2.393 -22.318,12.762 -25.107,-15.155 -1.993,-1.196 -1.594,-0.798 -0.797,-0.399 -0.398,-0.398 -31.484,-18.744 -1.993,-1.595 -6.376,-3.589 -0.399,-0.399 -1.195,-0.798 21.919,-11.964 4.384,-2.792 29.092,17.548 z"
     id="path1775"
     inkscape:connector-curvature="0"
     style="fill:#c2e6f2" />
  <path
     d="m 334.648,184.442 -36.266,-21.934 -45.433,3.59 36.267,21.535 z"
     id="path1777"
     inkscape:connector-curvature="0"
     style="fill:#e0f7ff" />
  <path
     d="m 270.884,144.161 70.938,42.672 -1.594,0.797 -5.978,-3.19 -35.868,-21.934 -27.498,-16.351 -26.303,14.756 -0.399,-0.399 -1.195,-0.798 21.919,-11.964 4.384,-2.791 z"
     id="path1779"
     inkscape:connector-curvature="0"
     style="fill:#92c7e3" />
  <path
     d="m 300.375,210.764 -0.399,0.398 -5.181,2.792 -11.956,7.178 -10.361,6.381 -27.1,-16.351 -30.289,-17.946 -8.369,-5.184 -3.587,-2.393 -1.594,-0.797 10.761,-5.982 17.933,-10.369 34.672,20.737 29.89,18.345 z"
     id="path1781"
     inkscape:connector-curvature="0"
     style="fill:#c2e6f2" />
  <path
     d="m 300.374,210.763 -0.398,0.399 -5.181,2.792 -11.956,7.178 -10.362,6.381 -27.1,-16.351 18.333,-1.595 13.151,-0.798 16.738,-1.196 h 1.196 z"
     id="path1783"
     inkscape:connector-curvature="0"
     style="fill:#e0f7ff" />
  <path
     d="m 215.488,193.216 49.417,-3.988 -34.672,-20.737 -28.694,16.351 z"
     id="path1785"
     inkscape:connector-curvature="0"
     style="fill:#e0f7ff" />
  <path
     d="m 301.57,210.362 -0.797,0.399 h -0.398 l -0.399,0.399 -6.376,-3.589 -29.89,-17.946 -32.281,-19.542 -17.535,9.572 -10.761,5.982 -1.594,-0.798 9.565,-5.583 1.196,-0.399 7.572,-4.387 4.782,-2.791 5.579,-3.191 1.196,-0.399 z"
     id="path1787"
     inkscape:connector-curvature="0"
     style="fill:#92c7e3" />
  <path
     d="m 262.913,232.696 -1.594,1.197 -35.469,-21.536 -29.89,-17.946 -5.978,-3.589 -7.971,4.786 -9.166,4.785 -9.166,5.185 -0.797,-0.399 -0.797,-0.399 11.159,-6.381 4.782,-2.791 10.362,-5.583 1.594,-1.197 42.244,25.523 1.594,0.798 0.399,0.399 z"
     id="path1789"
     inkscape:connector-curvature="0"
     style="fill:#92c7e3" />
  <path
     d="m 288.817,192.021 h -0.797 l -8.768,-5.184 v -0.798 l 1.993,-0.797 0.797,0.399 z"
     id="path1791"
     inkscape:connector-curvature="0"
     style="fill:#c5c7cf" />
  <path
     d="m 288.817,192.02 v -0.398 l 1.992,-1.197 v 0.399 z"
     id="path1793"
     inkscape:connector-curvature="0"
     style="fill:#c5c7cf" />
  <path
     d="m 280.049,186.438 8.767,5.185 1.993,-1.197 -8.369,-5.184 z"
     id="path1795"
     inkscape:connector-curvature="0"
     style="fill:#e0f7ff" />
  <path
     d="m 288.816,192.021 v -0.399 l -8.767,-5.184 v 0.398 z"
     id="path1797"
     inkscape:connector-curvature="0"
     style="fill:#9497a1" />
  <path
     d="m 285.23,188.83 -0.797,-0.398 v -1.994 l 0.797,0.797 z"
     id="path1799"
     inkscape:connector-curvature="0"
     style="fill:#9497a1" />
  <path
     d="m 285.23,187.235 -0.797,-0.798 1.195,-0.797 1.196,0.797 z"
     id="path1801"
     inkscape:connector-curvature="0"
     style="fill:#a21b00" />
  <path
     d="m 285.23,187.235 v 1.595 l 1.195,-0.398 0.399,-1.994 z"
     id="path1803"
     inkscape:connector-curvature="0"
     style="fill:#c5c7cf" />
  <path
     d="m 293.599,181.253 -1.594,-0.797 -7.971,4.386 1.595,0.798 z"
     id="path1805"
     inkscape:connector-curvature="0"
     style="fill:#e0f7ff" />
  <path
     d="m 285.629,185.638 -1.595,-0.797 v 1.595 l 1.595,0.798 z"
     id="path1807"
     inkscape:connector-curvature="0"
     style="fill:#9497a1" />
  <path
     d="m 285.629,185.641 7.97,-4.387 -0.398,1.596 -7.572,4.386 z"
     id="path1809"
     inkscape:connector-curvature="0"
     style="fill:#c5c7cf" />
  <path
     d="m 243.385,217.144 h -0.797 l -8.768,-5.184 0.399,-0.798 1.594,-0.797 h 1.196 z"
     id="path1811"
     inkscape:connector-curvature="0"
     style="fill:#c5c7cf" />
  <path
     d="m 243.385,217.147 v -0.398 l 2.391,-1.197 v 0.399 z"
     id="path1813"
     inkscape:connector-curvature="0"
     style="fill:#c5c7cf" />
  <path
     d="m 235.016,211.164 8.369,5.583 2.391,-1.196 -8.767,-5.584 z"
     id="path1815"
     inkscape:connector-curvature="0"
     style="fill:#e0f7ff" />
  <path
     d="m 243.385,217.145 v -0.399 l -8.369,-5.583 v 0.798 z"
     id="path1817"
     inkscape:connector-curvature="0"
     style="fill:#9497a1" />
  <path
     d="m 240.196,213.957 -1.195,-0.399 v -1.994 l 1.195,0.399 z"
     id="path1819"
     inkscape:connector-curvature="0"
     style="fill:#9497a1" />
  <path
     d="m 240.196,211.963 -1.195,-0.399 1.195,-0.798 1.196,0.798 z"
     id="path1821"
     inkscape:connector-curvature="0"
     style="fill:#a21b00" />
  <path
     d="m 240.197,211.963 v 1.994 l 1.195,-0.798 v -1.595 z"
     id="path1823"
     inkscape:connector-curvature="0"
     style="fill:#c5c7cf" />
  <path
     d="m 241.791,209.967 -1.594,-0.798 -7.97,4.387 1.594,0.798 z"
     id="path1825"
     inkscape:connector-curvature="0"
     style="fill:#e0f7ff" />
  <path
     d="m 233.82,214.352 -1.594,-0.798 v 1.595 l 1.594,0.798 z"
     id="path1827"
     inkscape:connector-curvature="0"
     style="fill:#9497a1" />
  <path
     d="m 233.82,214.355 7.971,-4.387 v 1.595 l -7.971,4.387 z"
     id="path1829"
     inkscape:connector-curvature="0"
     style="fill:#c5c7cf" />
  <path
     d="m 363.741,174.469 -25.107,14.357 -11.159,6.381 -20.325,11.565 -5.978,3.589 -13.948,8.375 -27.897,16.351 -11.558,6.78 -17.934,10.368 -19.926,-11.565 2.391,-1.595 3.587,-1.994 2.79,1.595 11.955,-6.779 15.942,-9.173 -3.189,-1.595 9.565,-5.583 2.79,1.994 3.188,-1.994 12.753,-7.179 13.55,-7.976 -2.79,-1.595 10.362,-5.982 2.391,-1.595 2.79,1.994 11.956,-6.78 15.941,-9.172 -1.196,-2.792 5.181,-3.19 4.384,0.399 z"
     id="path1831"
     inkscape:connector-curvature="0"
     style="fill:#b59fa6" />
  <path
     d="m 309.939,186.436 -11.956,6.779 -2.789,-1.994 -2.392,1.595 -12.752,-0.797 -26.303,15.154 17.933,1.197 -12.753,7.178 -19.527,-1.994 1.594,-0.797 1.594,-1.197 -3.188,1.994 -17.536,9.97 -1.594,0.798 -9.166,5.583 19.528,1.994 -11.956,6.78 -2.79,-1.596 -3.586,1.994 -5.58,-0.398 -17.535,-9.97 16.34,-8.774 64.163,-35.493 h 0.398 l 5.58,-0.798 z"
     id="path1833"
     inkscape:connector-curvature="0"
     style="fill:#b59fa6" />
  <path
     d="m 386.457,124.622 -128.326,74.177 v 139.979 l 4.782,2.393 125.935,-74.576 v -4.785 l 2.392,-134.396 z m -2.789,138.783 -29.492,17.148 -3.586,1.994 -1.594,1.197 -1.595,0.797 -25.107,14.357 v -1.994 l -10.76,5.982 V 182.049 l 10.76,-5.982 v -5.583 l 61.772,-35.493 v 128.414 z m -109.596,-57.428 27.897,-15.952 1.594,-0.797 v 120.837 l -29.491,17.148 z"
     id="path1835"
     inkscape:connector-curvature="0"
     style="fill:#7b7f8b" />
  <path
     d="M 263.312,201.191 V 341.17 L 391.24,266.993 V 127.014 Z m 120.356,62.213 -29.492,17.148 V 159.715 l 26.303,-15.154 1.594,-0.798 1.595,-0.797 z m -109.596,-57.428 27.897,-15.952 1.594,-0.797 v 120.836 l -29.491,17.149 z m 37.462,-23.928 10.76,-5.982 20.724,-11.964 v 120.837 l -20.724,11.964 -10.76,5.982 z"
     id="path1837"
     inkscape:connector-curvature="0"
     style="fill:#c5c7cf" />
  <path
     d="m 343.018,173.276 v -9.172 l -20.724,11.964 -10.76,5.982 v 112.86 l -2.79,9.97 -1.594,6.78 -0.398,-0.399 V 179.657 l 15.542,-8.774 24.311,-14.357 0.797,0.399 z"
     id="path1839"
     inkscape:connector-curvature="0"
     style="fill:#9497a1" />
  <path
     d="m 306.752,179.657 0.398,0.399 40.252,-23.131 -0.797,-0.399 z"
     id="path1841"
     inkscape:connector-curvature="0"
     style="fill:#dbdce0" />
  <path
     d="m 322.294,171.28 -15.144,8.774 v 131.604 l 1.594,-0.797 38.259,-22.333 V 156.923 Z m -10.76,10.768 10.76,-5.982 20.724,-11.964 v 120.836 l -20.724,11.965 -10.76,5.982 z"
     id="path1843"
     inkscape:connector-curvature="0"
     style="fill:#e8e9f0" />
  <path
     d="m 308.744,180.851 -1.594,6.78 -0.398,1.595 -3.189,11.964 v -12.363 l -1.594,0.798 -27.897,16.351 v 109.67 l -1.594,6.381 -3.587,13.559 -1.594,-0.797 V 203.184 l 39.455,-23.13 h 0.398 z"
     id="path1845"
     inkscape:connector-curvature="0"
     style="fill:#9497a1" />
  <path
     d="m 301.969,187.632 v 1.994 l -27.897,16.351 V 324.82 l -1.594,0.797 V 204.781 Z"
     id="path1847"
     inkscape:connector-curvature="0"
     style="fill:#fffeff" />
  <path
     d="m 388.848,134.592 -5.18,20.338 v -12.362 l -1.595,0.797 -1.594,1.197 -26.303,15.154 v 109.272 l -1.594,6.779 -1.992,6.78 -1.595,6.779 -1.594,-0.797 V 156.924 l 36.267,-21.136 3.586,-1.994 z"
     id="path1849"
     inkscape:connector-curvature="0"
     style="fill:#9497a1" />
  <path
     d="m 347.401,156.924 1.594,0.798 39.853,-23.13 -1.594,-0.798 z"
     id="path1851"
     inkscape:connector-curvature="0"
     style="fill:#dbdce0" />
  <path
     d="m 382.074,141.369 v 1.994 l -1.594,1.197 -26.303,15.154 v 118.843 l -1.594,0.797 V 158.518 Z"
     id="path1853"
     inkscape:connector-curvature="0"
     style="fill:#fffeff" />
  <path
     d="m 301.969,187.632 v 120.837 l -29.491,17.148 v -1.994 l 27.897,-15.952 V 188.829 Z"
     id="path1855"
     inkscape:connector-curvature="0"
     style="fill:#9497a1" />
  <path
     d="m 343.018,164.105 v 120.837 l -31.484,18.345 v -1.994 l 29.491,-17.148 V 164.903 Z"
     id="path1857"
     inkscape:connector-curvature="0"
     style="fill:#9497a1" />
  <path
     d="m 311.534,301.292 v 1.994 l 31.484,-18.345 -1.993,-0.798 z"
     id="path1859"
     inkscape:connector-curvature="0"
     style="fill:#dbdce0" />
  <path
     d="M 382.074,141.373 V 262.21 l -29.491,17.148 v -1.994 L 380.48,261.412 V 142.569 Z"
     id="path1861"
     inkscape:connector-curvature="0"
     style="fill:#9497a1" />
  <path
     d="m 307.15,182.048 -0.398,0.399 -37.86,21.934 v 131.605 l 39.853,-23.53 V 180.852 Z m -3.586,127.617 -29.491,17.148 V 205.977 l 27.897,-15.953 1.594,-0.797 z"
     id="path1863"
     inkscape:connector-curvature="0"
     style="fill:#f4f5fa" />
  <path
     d="m 383.668,137.783 -34.672,19.94 v 131.605 l 39.853,-23.131 V 134.593 Z M 354.177,280.554 V 159.717 l 26.303,-15.154 1.594,-0.798 1.594,-0.797 v 120.836 z"
     id="path1865"
     inkscape:connector-curvature="0"
     style="fill:#f4f5fa" />
  <path
     d="m 303.564,188.828 v 120.837 l -29.491,17.148 v -1.994 L 301.97,308.468 V 189.626 Z"
     id="path1867"
     inkscape:connector-curvature="0"
     style="fill:#9497a1" />
  <path
     d="m 274.073,324.819 v 1.994 l 29.491,-17.148 -1.594,-1.197 z"
     id="path1869"
     inkscape:connector-curvature="0"
     style="fill:#dbdce0" />
  <path
     d="m 383.668,142.569 v 120.837 l -29.491,17.148 v -1.994 l 27.897,-16.351 V 143.366 Z"
     id="path1871"
     inkscape:connector-curvature="0"
     style="fill:#9497a1" />
  <path
     d="m 354.177,278.56 v 1.994 l 29.491,-17.149 -1.594,-1.196 z"
     id="path1873"
     inkscape:connector-curvature="0"
     style="fill:#dbdce0" />
  <path
     d="m 382.074,143.363 v 118.843 l -27.897,16.35 v -1.994 L 380.48,261.408 V 144.559 Z"
     id="path1875"
     inkscape:connector-curvature="0"
     style="fill:#9497a1" />
  <path
     d="m 341.025,164.9 v 119.241 l -29.491,17.149 v -1.994 l 27.897,-16.351 V 166.096 Z"
     id="path1877"
     inkscape:connector-curvature="0"
     style="fill:#9497a1" />
  <path
     d="m 301.969,189.626 v 118.843 l -27.897,16.351 v -1.994 l 26.303,-15.155 V 190.822 Z"
     id="path1879"
     inkscape:connector-curvature="0"
     style="fill:#9497a1" />
  <path
     d="m 267.297,203.184 1.594,0.798 39.853,-23.131 -1.594,-0.797 z"
     id="path1881"
     inkscape:connector-curvature="0"
     style="fill:#dbdce0" />
  <path
     d="m 350.191,222.326 -0.398,0.797 v 9.97 l 0.398,0.399 1.993,-1.196 0.398,-0.798 z"
     id="path1883"
     inkscape:connector-curvature="0"
     style="fill:#c5c7cf" />
  <path
     d="m 350.191,222.326 0.399,0.399 2.391,-1.196 -0.797,-0.399 z"
     id="path1885"
     inkscape:connector-curvature="0"
     style="fill:#c5c7cf" />
  <path
     d="m 350.59,232.694 v -9.97 l 2.391,-1.197 v 9.97 z"
     id="path1887"
     inkscape:connector-curvature="0"
     style="fill:#fdfdfe" />
  <path
     d="m 350.191,222.326 0.399,0.398 v 9.971 l -0.399,-0.399 z"
     id="path1889"
     inkscape:connector-curvature="0"
     style="fill:#9497a1" />
  <path
     d="m 350.989,226.711 v 1.596 l 1.594,0.797 v -1.196 z"
     id="path1891"
     inkscape:connector-curvature="0"
     style="fill:#9497a1" />
  <path
     d="m 352.583,227.91 v 1.196 l 1.594,-0.797 v -1.197 z"
     id="path1893"
     inkscape:connector-curvature="0"
     style="fill:#a21b00" />
  <path
     d="m 352.583,227.909 -1.594,-1.197 1.196,-0.399 1.992,0.798 z"
     id="path1895"
     inkscape:connector-curvature="0"
     style="fill:#c5c7cf" />
  <path
     d="m 361.749,223.922 v 1.596 l -7.572,4.785 v -1.595 z"
     id="path1897"
     inkscape:connector-curvature="0"
     style="fill:#fdfdfe" />
  <path
     d="m 354.177,228.706 v 1.595 l -1.594,-1.197 v -1.595 z"
     id="path1899"
     inkscape:connector-curvature="0"
     style="fill:#9497a1" />
  <path
     d="m 354.177,228.707 7.572,-4.785 -1.196,-0.798 -7.97,4.387 z"
     id="path1901"
     inkscape:connector-curvature="0"
     style="fill:#c5c7cf" />
  <path
     d="m 305.556,248.248 -0.797,0.798 v 9.97 l 0.797,0.398 1.993,-1.196 v -0.798 z"
     id="path1903"
     inkscape:connector-curvature="0"
     style="fill:#c5c7cf" />
  <path
     d="m 305.556,248.249 0.398,0.398 1.993,-1.196 -0.398,-0.399 z"
     id="path1905"
     inkscape:connector-curvature="0"
     style="fill:#c5c7cf" />
  <path
     d="m 305.955,258.616 v -9.97 l 1.992,-1.196 v 9.97 z"
     id="path1907"
     inkscape:connector-curvature="0"
     style="fill:#fdfdfe" />
  <path
     d="m 305.556,248.248 0.398,0.399 v 9.97 l -0.398,-0.399 z"
     id="path1909"
     inkscape:connector-curvature="0"
     style="fill:#9497a1" />
  <path
     d="m 306.354,252.632 v 1.595 l 1.594,0.798 v -1.197 z"
     id="path1911"
     inkscape:connector-curvature="0"
     style="fill:#9497a1" />
  <path
     d="m 307.948,253.83 v 1.197 l 1.196,-0.798 v -1.196 z"
     id="path1913"
     inkscape:connector-curvature="0"
     style="fill:#a21b00" />
  <path
     d="m 307.948,253.83 -1.594,-1.196 1.195,-0.399 1.595,0.797 z"
     id="path1915"
     inkscape:connector-curvature="0"
     style="fill:#c5c7cf" />
  <path
     d="m 310.737,253.43 v 1.595 l -7.97,4.786 v -1.595 z"
     id="path1917"
     inkscape:connector-curvature="0"
     style="fill:#fdfdfe" />
  <path
     d="m 302.767,258.216 v 1.595 l -1.594,-0.797 v -1.596 z"
     id="path1919"
     inkscape:connector-curvature="0"
     style="fill:#9497a1" />
  <path
     d="m 302.767,258.216 7.97,-4.786 -1.594,-0.798 -7.97,4.786 z"
     id="path1921"
     inkscape:connector-curvature="0"
     style="fill:#c5c7cf" />
</svg>
