<svg width="598" height="491" viewBox="0 0 598 491" fill="none" xmlns="http://www.w3.org/2000/svg">
<path d="M3.6 490.788L31.0235 474.923L58.4471 490.788H60.6706L32.0824 474.289L61.3059 457.366L90.7412 474.395L62.4706 490.788H64.6941L91.9059 475.029L119.118 490.788H121.341L92.9647 474.395L122.188 457.472L151.624 474.5L123.459 490.788H125.682L152.788 475.135L179.894 490.788H182.118L153.953 474.5L183.176 457.578L212.612 474.606L184.659 490.788H186.882L213.776 475.347L240.671 490.788H242.894L214.941 474.712L244.165 457.789L273.6 474.818L245.859 490.788H248.082L274.765 475.452L301.447 490.788H303.671L275.824 474.818L305.047 457.895L334.482 474.923L306.847 490.788H309.071L335.541 475.558L362.012 490.788H364.235L336.6 474.923L365.824 458.001L395.259 475.029L367.835 490.788H370.059L396.318 475.664L422.577 490.788H424.8L397.376 475.029L426.6 458.107L456.035 475.135L428.824 490.788H431.047L457.2 475.77L483.353 490.788H485.577L458.365 475.135L487.588 458.212L517.024 475.241L490.024 490.788H492.247L518.188 475.875L544.129 490.788H546.353L519.353 475.241L548.576 458.318L575.682 473.972V472.702L549.635 457.684L575.682 442.665V441.395L548.576 457.049L519.141 440.02L548.365 423.098L575.682 438.857V437.588L549.424 422.463L575.682 407.339V406.069L548.576 421.934L519.141 404.906L548.365 387.983L575.894 403.848V402.579L549.424 387.349L575.894 372.118V370.849L548.365 386.714L518.929 369.686L548.153 352.763L575.894 368.734V367.465L549.318 352.128L575.894 336.792V335.523L548.153 351.494L518.824 334.677L548.047 317.754L576 333.831V332.562L549.212 317.12L576 301.678V300.408L548.047 316.485L518.612 299.457L547.835 282.534L575.894 298.716V297.447L548.894 281.899L576 266.457V265.188L547.941 281.37L518.506 264.342L547.729 247.419L576 263.707V262.438L548.788 246.785L576 231.131V229.862L547.729 246.15L518.294 229.122L547.518 212.199L576 228.593V227.324L548.576 211.564L576 195.911V194.642L547.518 211.036L518.082 194.007L547.306 177.085L576 193.796V192.526L548.471 176.661L576 160.796V159.527L547.306 176.027L517.871 158.998L547.094 142.076L576 158.787V157.518L548.259 141.547L576 125.47V124.201L547.094 140.807L517.659 123.778L546.882 106.855L576 123.672V122.403L548.047 106.327L571.129 93H568.906L546.882 105.692L524.859 93H522.635L545.718 106.327L516.494 123.249L487.059 106.221L510.035 93H507.812L486 105.586L464.188 93H461.965L484.835 106.221L455.612 123.144L426.176 106.115L448.835 93H446.612L425.012 105.48L403.412 93H401.188L423.953 106.115L394.729 123.038L365.294 106.009L387.741 93H385.518L364.129 105.375L342.741 93H340.518L363.071 106.009L333.847 122.932L304.412 105.904L326.647 93H324.424L303.141 105.269L281.965 93H279.741L302.082 105.904L272.859 122.826L243.424 105.798L265.553 93H263.329L242.259 105.163L221.188 93H218.965L241.094 105.798L211.871 122.72L182.435 105.692L204.353 93H202.129L181.271 105.057L160.518 93H158.294L180.212 105.692L150.988 122.615L121.553 105.586L143.259 93H141.035L120.388 104.952L99.7412 93H97.5177L119.329 105.586L90 122.403L60.5647 105.48L82.1647 93H79.9412L59.5059 104.846L38.9647 93H36.7412L58.3412 105.48L29.1176 122.403L0 105.586V106.855L27.9529 123.038L0 139.114V140.383L29.1176 123.567L58.5529 140.595L29.3294 157.518L0 140.595V141.864L28.1647 158.152L0 174.335V176.873L28.3765 193.267L0 209.555V211.882L28.5882 228.381L0 244.881V246.996L28.8 263.602L0 280.101V282.005L28.9059 298.716L0 315.322V317.014L29.1176 333.831L0 350.648V352.023L29.3294 368.945L0.105882 385.868H0V387.243H0.105882L29.5412 404.271L0.317647 421.194L0 420.771V422.357L0.211765 422.252L29.6471 439.28L0.423529 456.203L0 455.885V457.684L0.423529 457.472L29.8588 474.5L1.27059 491H3.6V490.788ZM31.8706 439.174L61.0941 422.252L90.5294 439.28L61.3059 456.203L31.8706 439.174ZM212.824 299.668L242.259 316.697L213.035 333.619L183.6 316.591L212.824 299.668ZM182.435 315.85L153 298.822L182.224 281.899L211.659 298.928L182.435 315.85ZM213.988 299.033L243.212 282.111L272.647 299.139L243.424 316.062L213.988 299.033ZM273.812 299.774L303.247 316.802L274.024 333.725L244.588 316.697L273.812 299.774ZM274.871 299.139L304.094 282.217L333.529 299.245L304.306 316.168L274.871 299.139ZM334.694 299.88L364.129 316.908L334.906 333.831L305.471 316.802L334.694 299.88ZM335.753 299.245L364.977 282.322L394.412 299.351L365.294 316.168L335.753 299.245ZM395.682 299.985L425.118 317.014L395.894 333.936L366.353 316.802L395.682 299.985ZM366.141 281.688L395.365 264.765L424.8 281.794L395.577 298.716L366.141 281.688ZM365.082 281.053L335.647 264.025L364.871 247.102L394.306 264.13L365.082 281.053ZM363.918 281.688L334.694 298.61L305.259 281.582L334.482 264.659L363.918 281.688ZM304.094 280.947L274.659 263.919L303.882 246.996L333.318 264.025L304.094 280.947ZM303.035 281.582L273.812 298.505L244.376 281.476L273.6 264.554L303.035 281.582ZM243.212 280.842L213.776 263.813L243 246.891L272.435 263.919L243.212 280.842ZM242.153 281.476L212.929 298.399L183.494 281.37L212.718 264.448L242.153 281.476ZM182.329 280.736L152.894 263.707L182.118 246.785L211.553 263.813L182.329 280.736ZM181.165 281.37L151.941 298.293L122.506 281.265L151.729 264.342L181.165 281.37ZM181.376 316.485L152.153 333.408L122.718 316.379L151.941 299.457L181.376 316.485ZM181.588 351.6L152.365 368.522L122.824 351.494L152.047 334.571L181.588 351.6ZM153.212 334.042L182.435 317.12L211.871 334.148L182.647 351.071L153.212 334.042ZM213.035 334.783L242.471 351.811L213.247 368.734L183.812 351.705L213.035 334.783ZM214.094 334.148L243.318 317.225L272.753 334.254L243.529 351.176L214.094 334.148ZM273.918 334.888L303.353 351.917L274.129 368.839L244.694 351.811L273.918 334.888ZM275.082 334.254L304.306 317.331L333.741 334.36L304.518 351.282L275.082 334.254ZM334.906 334.994L364.341 352.023L335.118 368.945L305.682 351.917L334.906 334.994ZM335.965 334.36L365.188 317.437L394.624 334.465L365.4 351.388L335.965 334.36ZM395.788 335.1L425.224 352.128L396 369.051L366.565 352.023L395.788 335.1ZM396.953 334.465L426.176 317.543L455.612 334.571L426.388 351.494L396.953 334.465ZM396.741 299.351L425.965 282.428L455.4 299.457L426.176 316.379L396.741 299.351ZM396.529 264.13L425.753 247.208L455.188 264.236L425.965 281.159L396.529 264.13ZM425.859 246.044L396.424 229.016L425.647 212.093L455.082 229.122L425.859 246.044ZM424.694 246.679L395.471 263.602L366.035 246.573L395.259 229.651L424.694 246.679ZM364.871 245.939L335.435 228.91L364.659 211.988L394.094 229.016L364.871 245.939ZM363.812 246.573L334.588 263.496L305.153 246.467L334.376 229.545L363.812 246.573ZM303.988 245.833L274.553 228.804L303.776 211.882L333.212 228.91L303.988 245.833ZM302.824 246.467L273.6 263.39L244.165 246.362L273.388 229.439L302.824 246.467ZM243 245.727L213.565 228.699L242.788 211.776L272.224 228.804L243 245.727ZM241.941 246.362L212.718 263.284L183.176 246.256L212.4 229.333L241.941 246.362ZM182.118 245.621L152.682 228.593L181.906 211.67L211.341 228.699L182.118 245.621ZM180.953 246.256L151.729 263.179L122.294 246.15L151.518 229.227L180.953 246.256ZM121.129 245.516L91.6941 228.487L120.918 211.564L150.353 228.593L121.129 245.516ZM121.129 246.785L150.565 263.813L121.341 280.736L91.9059 263.707L121.129 246.785ZM121.341 281.899L150.776 298.928L121.553 315.85L92.1177 298.716L121.341 281.899ZM150.988 334.042L121.765 350.965L92.3294 333.936L121.553 317.014L150.988 334.042ZM151.2 369.157L121.976 386.079L92.4353 369.051L121.659 352.128L151.2 369.157ZM152.259 369.791L181.694 386.82L152.471 403.742L123.035 386.714L152.259 369.791ZM153.424 369.157L182.647 352.234L212.082 369.263L182.859 386.185L153.424 369.157ZM213.247 369.897L242.682 386.926L213.459 403.848L184.024 386.82L213.247 369.897ZM214.306 369.263L243.529 352.34L272.965 369.368L243.741 386.291L214.306 369.263ZM274.129 370.003L303.565 387.031L274.341 403.954L244.906 386.926L274.129 370.003ZM275.294 369.368L304.518 352.446L333.953 369.474L304.729 386.397L275.294 369.368ZM335.118 370.109L364.553 387.137L335.329 404.06L305.788 387.031L335.118 370.109ZM336.176 369.474L365.4 352.551L394.835 369.58L365.612 386.503L336.176 369.474ZM396 370.214L425.435 387.243L396.212 404.166L366.776 387.137L396 370.214ZM397.165 369.58L426.388 352.657L455.824 369.686L426.6 386.608L397.165 369.58ZM456.988 370.32L486.424 387.349L457.2 404.271L427.765 387.243L456.988 370.32ZM427.447 352.128L456.671 335.206L486.106 352.234L456.882 369.157L427.447 352.128ZM427.341 316.908L456.565 299.985L486 317.014L456.776 333.936L427.341 316.908ZM427.129 281.794L456.353 264.871L485.788 281.899L456.565 298.822L427.129 281.794ZM456.353 263.602L426.918 246.573L456.141 229.651L485.577 246.679L456.353 263.602ZM456.141 228.487L426.706 211.564L455.929 194.642L485.365 211.67L456.141 228.487ZM425.647 210.93L396.212 193.901L425.435 176.979L454.871 194.007L425.647 210.93ZM424.482 211.564L395.259 228.487L365.824 211.459L395.047 194.536L424.482 211.564ZM364.659 210.824L335.224 193.796L364.447 176.873L393.882 193.901L364.659 210.824ZM363.6 211.459L334.376 228.381L304.941 211.353L334.165 194.43L363.6 211.459ZM303.776 210.718L274.341 193.69L303.565 176.767L333 193.796L303.776 210.718ZM302.612 211.353L273.388 228.276L243.953 211.247L273.176 194.324L302.612 211.353ZM242.788 210.507L213.353 193.478L242.576 176.556L272.118 193.69L242.788 210.507ZM241.729 211.141L212.506 228.064L183.071 211.036L212.294 194.113L241.729 211.141ZM181.906 210.401L152.471 193.478L181.694 176.556L211.129 193.584L181.906 210.401ZM180.847 211.036L151.624 227.958L122.188 210.93L151.412 194.007L180.847 211.036ZM120.918 210.295L91.4824 193.373L120.706 176.45L150.247 193.478L120.918 210.295ZM119.859 210.93L90.6353 227.853L61.2 210.824L90.4235 193.901L119.859 210.93ZM90.6353 229.122L120.071 246.15L90.8471 263.073L61.4118 246.044L90.6353 229.122ZM120.282 281.265L91.0588 298.187L61.6235 281.159L90.8471 264.236L120.282 281.265ZM120.388 316.379L91.1647 333.302L61.7294 316.273L90.9529 299.351L120.388 316.379ZM120.6 351.494L91.3765 368.416L61.9412 351.388L91.1647 334.465L120.6 351.494ZM120.812 386.714L91.5882 403.637L62.1529 386.608L91.3765 369.686L120.812 386.714ZM121.024 421.829L91.8 438.751L62.3647 421.723L91.5882 404.8L121.024 421.829ZM92.6471 404.166L121.871 387.243L151.306 404.271L122.082 421.194L92.6471 404.166ZM152.471 404.906L181.906 421.934L152.682 438.857L123.247 421.829L152.471 404.906ZM153.635 404.271L182.859 387.349L212.294 404.377L183.071 421.3L153.635 404.271ZM213.459 405.012L242.894 422.04L213.671 438.963L184.129 421.934L213.459 405.012ZM214.518 404.377L243.741 387.454L273.176 404.483L243.953 421.406L214.518 404.377ZM274.341 405.117L303.776 422.146L274.553 439.069L245.118 422.04L274.341 405.117ZM275.4 404.483L304.624 387.56L334.059 404.589L304.835 421.511L275.4 404.483ZM335.224 405.223L364.659 422.252L335.435 439.174L306 422.146L335.224 405.223ZM336.388 404.589L365.612 387.666L395.047 404.694L365.824 421.617L336.388 404.589ZM396.212 405.329L425.647 422.357L396.424 439.28L366.988 422.252L396.212 405.329ZM397.271 404.694L426.494 387.772L455.929 404.8L426.706 421.723L397.271 404.694ZM457.094 405.435L486.529 422.463L457.306 439.386L427.871 422.357L457.094 405.435ZM458.259 404.8L487.482 387.877L516.918 404.906L487.694 421.829L458.259 404.8ZM458.047 369.686L487.271 352.763L516.706 369.791L487.482 386.714L458.047 369.686ZM457.835 334.571L487.059 317.648L516.494 334.677L487.271 351.6L457.835 334.571ZM457.624 299.457L486.847 282.534L516.282 299.562L487.059 316.485L457.624 299.457ZM457.518 264.236L486.741 247.314L516.177 264.342L486.953 281.265L457.518 264.236ZM486.741 246.15L457.306 229.122L486.529 212.199L515.965 229.227L486.741 246.15ZM486.529 211.036L457.094 194.007L486.318 177.085L515.753 194.113L486.529 211.036ZM456.882 158.893L486.106 141.97L515.647 158.998L486.424 175.921L456.882 158.893ZM485.259 176.45L456.035 193.373L426.6 176.344L455.824 159.421L485.259 176.45ZM425.435 175.71L396 158.787L425.224 141.864L454.659 158.893L425.435 175.71ZM424.376 176.344L395.153 193.267L365.718 176.238L394.941 159.316L424.376 176.344ZM364.447 175.604L335.012 158.575L364.235 141.653L393.671 158.681L364.447 175.604ZM363.388 176.238L334.165 193.161L304.729 176.133L333.953 159.21L363.388 176.238ZM303.565 175.498L274.129 158.575L303.353 141.653L332.788 158.681L303.565 175.498ZM302.506 176.133L273.282 193.055L243.847 176.027L273.071 159.104L302.506 176.133ZM242.682 175.392L213.247 158.364L242.471 141.441L271.906 158.575L242.682 175.392ZM241.518 176.027L212.294 192.95L182.859 175.921L212.082 158.998L241.518 176.027ZM181.694 175.286L152.259 158.258L181.482 141.335L210.918 158.364L181.694 175.286ZM180.635 175.921L151.412 192.844L121.976 175.815L151.2 158.893L180.635 175.921ZM120.812 175.181L91.2706 158.258L120.494 141.335L149.929 158.364L120.812 175.181ZM119.647 175.815L90.4235 192.738L60.9882 175.71L90.2118 158.787L119.647 175.815ZM89.2588 193.373L60.0353 210.295L30.6 193.267L59.8235 176.344L89.2588 193.373ZM60.0353 211.459L89.4706 228.487L60.2471 245.41L30.8118 228.381L60.0353 211.459ZM60.2471 246.679L89.6824 263.707L60.4588 280.63L31.0235 263.602L60.2471 246.679ZM60.4588 281.794L89.8941 298.822L60.6706 315.745L31.2353 298.716L60.4588 281.794ZM90.1059 333.936L60.8824 350.859L31.4471 333.831L60.6706 316.908L90.1059 333.936ZM90.2118 369.051L60.9882 385.974L31.5529 368.945L60.7765 352.023L90.2118 369.051ZM90.4235 404.166L61.2 421.088L31.7647 404.06L60.9882 387.137L90.4235 404.166ZM91.9059 473.866L62.4706 456.837L91.6941 439.915L121.129 456.943L91.9059 473.866ZM92.8588 439.28L122.082 422.357L151.518 439.386L122.294 456.309L92.8588 439.28ZM152.894 473.972L123.459 456.943L152.682 440.02L182.118 457.049L152.894 473.972ZM153.741 439.386L182.965 422.463L212.4 439.492L183.176 456.414L153.741 439.386ZM213.776 474.077L184.341 457.049L213.565 440.126L243 457.155L213.776 474.077ZM214.729 439.492L243.953 422.569L273.388 439.597L244.165 456.52L214.729 439.492ZM274.765 474.183L245.329 457.155L274.553 440.232L303.988 457.26L274.765 474.183ZM275.612 439.703L304.835 422.78L334.271 439.809L305.047 456.732L275.612 439.703ZM335.647 474.289L306.212 457.26L335.435 440.338L364.871 457.366L335.647 474.289ZM336.6 439.809L365.824 422.886L395.259 439.915L366.035 456.837L336.6 439.809ZM396.635 474.395L367.2 457.366L396.424 440.444L425.859 457.472L396.635 474.395ZM426.918 456.837L397.482 439.915L426.706 422.992L456.141 440.02L426.918 456.837ZM457.518 474.5L428.082 457.472L457.306 440.549L486.741 457.578L457.518 474.5ZM487.906 456.943L458.471 440.02L487.694 423.098L517.129 440.126L487.906 456.943ZM547.729 457.684L518.506 474.606L489.071 457.578L518.294 440.655L547.729 457.684ZM547.518 422.569L518.294 439.492L488.859 422.463L518.082 405.541L547.518 422.569ZM547.306 387.454L518.082 404.377L488.647 387.349L517.871 370.426L547.306 387.454ZM547.094 352.34L517.871 369.263L488.435 352.234L517.659 335.311L547.094 352.34ZM546.988 317.12L517.765 334.042L488.329 317.014L517.553 300.091L546.988 317.12ZM546.777 282.005L517.553 298.928L488.118 281.899L517.341 264.977L546.777 282.005ZM546.565 246.891L517.341 263.813L487.906 246.785L517.129 229.862L546.565 246.891ZM546.353 211.776L517.129 228.699L487.694 211.67L516.918 194.748L546.353 211.776ZM546.141 176.556L516.918 193.478L487.482 176.45L516.706 159.633L546.141 176.556ZM546.035 141.441L516.812 158.364L487.376 141.335L516.6 124.413L546.035 141.441ZM486 106.855L515.435 123.884L486.212 140.807L456.776 123.778L486 106.855ZM485.047 141.335L455.824 158.258L426.388 141.23L455.612 124.307L485.047 141.335ZM425.012 106.75L454.447 123.778L425.224 140.701L395.788 123.672L425.012 106.75ZM424.165 141.23L394.941 158.152L365.506 141.124L394.729 124.201L424.165 141.23ZM364.129 106.644L393.565 123.672L364.341 140.595L334.906 123.567L364.129 106.644ZM333.741 124.095L363.176 141.124L333.953 158.047L304.518 141.018L333.741 124.095ZM303.141 106.538L332.577 123.567L303.353 140.489L273.918 123.461L303.141 106.538ZM272.859 123.99L302.294 141.018L273.071 157.941L243.529 140.912L272.859 123.99ZM242.259 106.432L271.694 123.461L242.471 140.383L213.035 123.355L242.259 106.432ZM211.871 123.884L241.306 140.912L212.082 157.835L182.647 140.807L211.871 123.884ZM181.376 106.327L210.812 123.355L181.588 140.278L152.153 123.249L181.376 106.327ZM150.988 123.778L180.424 140.807L151.2 157.729L121.765 140.701L150.988 123.778ZM120.388 106.221L149.824 123.249L120.6 140.172L91.1647 123.038L120.388 106.221ZM90 123.672L119.435 140.701L90.2118 157.623L60.7765 140.595L90 123.672ZM30.1765 122.932L59.4 106.009L88.9412 123.038L59.7177 139.96L30.1765 122.932ZM59.6118 141.23L89.0471 158.258L59.8235 175.181L30.3882 158.047L59.6118 141.23ZM0 175.604L29.2235 158.681L58.6588 175.71L29.4353 192.632L0 175.604ZM0.211765 210.718L29.4353 193.796L58.8706 210.824L29.6471 227.747L0.211765 210.718ZM0.423529 245.939L29.6471 229.016L59.0824 246.044L29.8588 262.967L0.423529 245.939ZM0.635294 281.053L29.8588 264.13L59.2941 281.159L30.0706 298.082L0.635294 281.053ZM0.741176 316.168L29.9647 299.245L59.4 316.273L30.1765 333.196L0.741176 316.168ZM0.952941 351.282L30.1765 334.36L59.6118 351.388L30.3882 368.311L0.952941 351.282ZM1.16471 386.503L30.3882 369.58L59.8235 386.608L30.6 403.531L1.16471 386.503ZM1.37647 421.617L30.6 404.694L60.0353 421.723L30.8118 438.645L1.37647 421.617ZM1.58824 456.732L30.8118 439.809L60.2471 456.837L31.0235 473.76L1.58824 456.732Z" fill="#F2F2F3"/>
<path d="M307.372 163.042L168.475 243.052L459.103 411L598 330.989L307.372 163.042Z" fill="#ACB5B4"/>
<path d="M333.415 261.924L412.3 307.591V337.406L333.415 292.117V261.924Z" fill="#1D1309"/>
<path d="M397.202 339.67L411.168 328.726L453.441 358.541L456.083 325.706L420.981 305.326H407.771L393.805 315.516L397.202 339.67Z" fill="#1D1309"/>
<path d="M346.626 298.91L400.222 329.858V304.949L346.626 274.378V298.91Z" fill="#1D1309"/>
<path d="M209.239 218.143L223.581 243.052L225.846 246.826L241.321 270.225C241.321 270.225 249.624 265.319 256.041 261.545C256.796 261.167 257.173 260.79 257.928 260.412C261.325 258.148 263.59 253.242 263.59 246.826C263.59 244.939 263.59 243.429 263.212 241.542C262.08 235.503 259.815 229.465 256.418 223.804C252.644 217.765 247.737 212.481 242.076 209.462C236.792 206.443 231.885 205.688 228.11 207.198C227.356 207.575 226.601 207.953 225.846 208.707C219.807 212.104 209.239 218.143 209.239 218.143Z" fill="#151B1F"/>
<path d="M220.939 244.182L225.468 246.824L239.811 255.127L263.212 241.54C262.08 235.501 259.815 229.463 256.418 223.802L223.581 242.672L220.939 244.182Z" fill="#151B1F"/>
<path d="M261.325 248.335C261.325 234.749 251.512 217.765 239.434 210.972L261.325 248.335Z" fill="#151B1F"/>
<path d="M237.547 212.103C231.13 208.329 225.468 208.329 221.317 210.971C221.317 210.971 220.939 211.348 220.562 211.348C224.336 209.461 229.62 209.838 235.282 213.235C247.36 220.028 257.173 237.012 257.173 250.599C257.173 257.015 254.909 261.543 251.512 263.808C251.889 263.43 252.644 263.053 253.021 263.053C256.796 260.789 259.438 255.882 259.438 249.089C259.438 235.502 249.625 218.896 237.547 212.103Z" fill="#242726"/>
<path d="M233.772 214.37C227.356 210.596 221.694 210.596 217.542 213.238C217.542 213.238 217.165 213.615 216.787 213.615C220.562 211.728 225.846 212.105 231.507 215.502C243.585 222.295 253.399 239.279 253.399 252.866C253.399 259.282 251.134 263.811 247.737 266.075C248.115 265.698 248.87 265.32 249.247 265.32C253.021 263.056 255.664 258.149 255.664 251.356C255.286 237.769 245.473 221.163 233.772 214.37Z" fill="#242726"/>
<path d="M229.62 216.632C223.204 212.857 217.542 212.857 213.39 215.499C213.39 215.499 213.013 215.877 212.635 215.877C216.41 213.99 221.694 214.367 227.356 217.764C239.434 224.557 249.247 241.541 249.247 255.127C249.247 261.543 246.982 266.072 243.585 268.337C243.963 267.959 244.718 267.582 245.095 267.582C248.87 265.317 251.512 260.411 251.512 253.618C251.512 240.031 241.698 223.425 229.62 216.632Z" fill="#242726"/>
<path d="M203.577 231.351C203.577 244.938 213.39 261.921 225.468 268.715C237.546 275.508 247.36 270.224 247.36 256.26C247.36 242.673 237.546 225.69 225.468 218.897C213.39 212.103 203.577 217.764 203.577 231.351Z" fill="#585B5D"/>
<path d="M204.332 232.485C204.332 246.072 213.768 262.3 225.468 269.094C237.169 275.887 246.605 270.603 246.605 257.016C246.605 243.43 237.169 227.201 225.468 220.408C213.768 213.237 204.332 218.898 204.332 232.485Z" fill="#3A3E40"/>
<path d="M224.713 267.963C236.791 274.756 246.605 269.472 246.605 255.508C246.605 246.828 242.453 236.638 236.414 228.712C242.83 236.638 246.982 247.205 246.982 256.263C246.982 269.85 237.169 275.511 225.091 268.717C220.939 266.075 216.787 262.679 213.39 258.15C216.787 262.301 220.561 265.698 224.713 267.963Z" fill="#151B1F"/>
<path d="M207.729 233.995C207.729 244.94 215.655 258.526 225.091 264.187C234.904 269.849 242.453 265.32 242.453 254.375C242.453 243.43 234.527 229.843 225.091 224.182C215.655 218.521 207.729 223.05 207.729 233.995Z" fill="#575E66"/>
<path d="M211.88 236.259C211.88 244.562 217.919 255.129 225.091 259.281C232.639 263.433 238.301 260.036 238.301 251.733C238.301 243.43 232.262 232.862 225.091 228.711C217.919 224.559 211.88 227.956 211.88 236.259Z" fill="#6C7277"/>
<path d="M211.88 236.259C211.88 244.562 217.919 255.129 225.091 259.281C232.639 263.433 238.301 260.036 238.301 251.733C238.301 243.43 232.262 232.862 225.091 228.711C217.919 224.559 211.88 227.956 211.88 236.259ZM213.39 236.636C213.39 228.711 219.052 225.692 225.846 229.466C232.639 233.24 238.301 243.052 238.301 250.978C238.301 258.904 232.639 261.923 225.846 258.149C219.052 254.375 213.39 244.562 213.39 236.636Z" fill="#A5A9B2"/>
<path d="M215.655 237.392C215.655 244.185 220.561 252.865 226.601 256.262C232.262 259.659 236.791 257.394 237.546 251.356C237.546 250.978 237.546 250.224 237.546 249.846C237.546 245.317 235.282 239.656 231.885 235.505C230.375 233.618 228.488 231.73 226.601 230.598C220.561 227.579 215.655 230.221 215.655 237.392Z" fill="#2C3D4F"/>
<path d="M227.733 233.615C223.959 231.351 219.429 231.351 216.41 233.238C217.92 229.086 222.071 227.954 226.601 230.973C231.13 233.615 235.282 239.276 236.792 244.938C234.904 240.409 231.507 235.88 227.733 233.615Z" fill="#0F2237"/>
<path d="M221.316 238.902C221.316 244.186 225.091 250.602 229.62 253.244C233.394 255.131 236.414 254.376 237.546 251.357C237.546 250.979 237.546 250.225 237.546 249.847C237.546 245.318 235.282 239.657 231.885 235.506C231.13 234.751 230.375 234.373 229.62 233.619C225.091 231.354 221.316 233.619 221.316 238.902Z" fill="#260E08"/>
<path d="M236.037 246.073V246.45C236.037 247.582 235.659 248.337 235.282 249.092C234.15 251.356 231.885 251.734 228.865 250.224C225.091 247.96 221.694 242.676 221.694 238.147C221.694 235.882 222.449 233.995 223.959 233.618C225.091 233.241 226.223 233.241 227.356 233.995C227.733 233.995 228.111 234.373 228.488 234.373C231.507 236.26 234.15 239.657 234.904 243.431C235.282 244.185 235.282 244.94 235.282 245.695C236.037 245.318 236.037 245.695 236.037 246.073Z" fill="#3D454B"/>
<path d="M235.659 246.449V246.826C235.659 247.958 235.282 248.713 234.904 249.468C233.772 251.732 231.507 252.11 228.488 250.6C224.713 248.336 221.316 243.052 221.316 238.523C221.316 236.258 222.071 234.371 223.581 233.994C224.713 233.617 225.846 233.617 226.978 234.371C227.355 234.371 227.733 234.749 228.11 234.749C231.13 236.636 233.772 240.033 234.527 243.807C234.904 244.561 234.904 245.316 234.904 246.071C235.659 245.694 235.659 246.071 235.659 246.449Z" fill="#7E8386"/>
<path d="M231.507 244.184L233.394 247.581L231.885 248.713L225.468 236.259L226.601 235.504L231.507 244.184Z" fill="#3D454B"/>
<path d="M228.865 242.676L231.884 248.714L230.375 249.092L223.958 237.392L225.468 236.26L228.865 242.676Z" fill="#C6C9CA"/>
<path d="M233.395 243.053C233.395 243.808 233.017 244.563 232.64 244.94C231.885 245.318 230.753 246.072 230.753 246.072L226.223 238.147C226.223 238.147 227.356 237.769 227.733 237.015C228.488 236.637 229.243 236.637 230.375 237.015C231.885 238.524 233.395 241.166 233.395 243.053Z" fill="#6C7277"/>
<path d="M231.507 244.185C231.507 246.072 229.998 247.204 228.11 246.072C226.223 244.94 224.713 242.675 224.713 240.411C224.713 238.146 226.223 237.391 228.11 238.524C229.998 239.656 231.507 242.298 231.507 244.185Z" fill="#C6C9CA"/>
<path d="M229.62 243.05C229.62 243.428 229.62 243.805 229.243 243.805C228.865 244.183 228.488 244.183 228.488 244.183L226.601 240.786C226.601 240.786 226.978 240.409 227.355 240.409C227.733 240.031 228.11 240.031 228.488 240.409C229.243 241.163 229.62 242.296 229.62 243.05Z" fill="#6C7277"/>
<path d="M228.865 243.807C228.865 244.561 228.11 244.939 227.355 244.561C226.6 244.184 225.845 243.052 225.845 242.297C225.845 241.542 226.6 241.165 227.355 241.542C228.488 241.542 228.865 242.674 228.865 243.807Z" fill="#D6D8D9"/>
<path d="M406.261 331.367L420.604 356.276L422.869 360.05L438.344 383.45C438.344 383.45 446.647 378.543 453.064 374.769C453.819 374.392 454.196 374.014 454.951 373.637C458.348 371.373 460.612 366.466 460.612 360.05C460.612 358.163 460.612 356.654 460.235 354.767C459.103 348.728 456.838 342.689 453.441 337.028C449.667 330.99 444.76 325.706 439.098 322.687C433.814 319.667 428.908 318.913 425.133 320.422C424.378 320.8 423.623 321.177 422.869 321.932C416.83 325.706 406.261 331.367 406.261 331.367Z" fill="#151B1F"/>
<path d="M418.339 357.787L422.868 360.429L437.211 368.732L460.612 355.145C459.48 349.106 457.215 343.068 453.818 337.407L420.981 356.277L418.339 357.787Z" fill="#151B1F"/>
<path d="M458.348 361.937C458.348 348.351 448.535 331.367 436.457 324.574L458.348 361.937Z" fill="#242726"/>
<path d="M434.569 325.327C428.153 321.553 422.491 321.553 418.339 324.195C418.339 324.195 417.962 324.572 417.584 324.572C421.359 322.685 426.643 323.062 432.305 326.459C444.383 333.252 454.196 350.236 454.196 363.823C454.196 370.239 451.931 374.768 448.534 377.032C448.912 376.655 449.667 376.277 450.044 376.277C453.819 374.013 456.461 369.106 456.461 362.313C456.461 349.104 446.647 332.498 434.569 325.327Z" fill="#242726"/>
<path d="M430.795 327.594C424.378 323.82 418.717 323.82 414.565 326.462C414.565 326.462 414.187 326.84 413.81 326.84C417.584 324.953 422.869 325.33 428.53 328.727C440.608 335.52 450.422 352.503 450.422 366.09C450.422 372.506 448.157 377.035 444.76 379.3C445.137 378.922 445.892 378.545 446.27 378.545C450.044 376.28 452.686 371.374 452.686 364.581C452.686 351.371 442.873 334.765 430.795 327.594Z" fill="#242726"/>
<path d="M427.02 329.858C420.604 326.084 414.942 326.084 410.791 328.725C410.791 328.725 410.413 329.103 410.036 329.103C413.81 327.216 419.094 327.593 424.756 330.99C436.834 337.783 446.647 354.767 446.647 368.353C446.647 374.769 444.383 379.298 440.986 381.563C441.363 381.185 442.118 380.808 442.495 380.808C446.27 378.544 448.912 373.637 448.912 366.844C448.534 353.634 438.721 337.028 427.02 329.858Z" fill="#242726"/>
<path d="M400.977 344.955C400.977 358.542 410.79 375.525 422.868 382.319C434.947 389.112 444.76 383.828 444.76 369.864C444.76 355.9 434.947 339.294 422.868 332.501C410.413 325.707 400.977 331.368 400.977 344.955Z" fill="#585B5D"/>
<path d="M401.354 345.708C401.354 359.295 410.79 375.523 422.491 382.317C434.192 389.11 443.628 383.826 443.628 370.24C443.628 356.653 434.192 340.424 422.491 333.631C410.79 326.837 401.354 332.499 401.354 345.708Z" fill="#3A3E40"/>
<path d="M421.736 381.563C433.814 388.357 443.627 383.073 443.627 369.109C443.627 360.428 439.476 350.238 433.437 342.312C439.853 350.238 444.005 360.806 444.005 369.863C444.005 383.45 434.191 389.111 422.113 382.318C417.962 379.676 413.81 376.279 410.413 371.75C414.187 375.902 417.962 379.299 421.736 381.563Z" fill="#242726"/>
<path d="M405.129 347.595C405.129 358.54 413.055 372.127 422.491 377.788C432.304 383.449 439.853 378.92 439.853 367.975C439.853 357.031 431.927 343.444 422.491 337.783C412.678 331.744 405.129 336.273 405.129 347.595Z" fill="#575E66"/>
<path d="M409.281 349.859C409.281 358.162 415.32 368.729 422.491 372.881C430.04 377.032 435.701 373.636 435.701 365.333C435.701 357.03 429.662 346.462 422.491 342.311C415.32 337.782 409.281 341.178 409.281 349.859Z" fill="#6C7277"/>
<path d="M409.281 349.859C409.281 358.162 415.32 368.729 422.491 372.881C430.04 377.032 435.701 373.636 435.701 365.333C435.701 357.03 429.662 346.462 422.491 342.311C415.32 337.782 409.281 341.178 409.281 349.859ZM410.413 350.236C410.413 342.311 416.074 339.291 422.868 343.066C429.662 346.84 435.324 356.652 435.324 364.578C435.324 372.503 429.662 375.523 422.868 371.749C416.074 367.597 410.413 358.162 410.413 350.236Z" fill="#A5A9B2"/>
<path d="M413.055 350.615C413.055 357.408 417.962 366.089 424.001 369.486C429.662 372.882 434.191 370.618 434.946 364.579C434.946 364.202 434.946 363.447 434.946 363.07C434.946 358.541 432.682 352.88 429.285 348.728C427.775 346.841 425.888 344.954 424.001 343.822C417.962 340.802 413.055 343.822 413.055 350.615Z" fill="#2C3D4F"/>
<path d="M424.756 347.219C420.982 344.955 416.452 344.955 413.433 346.842C414.943 342.69 419.094 341.558 423.624 344.577C428.153 347.219 432.305 352.88 433.815 358.542C432.305 353.635 428.908 349.484 424.756 347.219Z" fill="#0F2237"/>
<path d="M418.717 352.124C418.717 357.408 422.491 363.824 427.02 366.465C430.795 368.352 433.814 367.598 434.946 364.578C434.946 364.201 434.946 363.446 434.946 363.069C434.946 358.54 432.682 352.879 429.285 348.727C428.53 347.972 427.775 347.595 427.02 346.84C422.491 344.953 418.717 346.84 418.717 352.124Z" fill="#260E08"/>
<path d="M433.437 359.673V360.051C433.437 361.183 433.059 361.938 432.682 362.692C431.55 364.957 429.285 365.334 426.266 363.825C422.491 361.56 419.094 356.276 419.094 351.748C419.094 349.483 419.849 347.596 421.359 347.219C422.491 346.841 423.624 346.841 424.756 347.596C425.133 347.596 425.511 347.973 425.888 347.973C428.908 349.86 431.55 353.257 432.305 357.031C432.682 357.786 432.682 358.541 432.682 359.296C433.059 358.918 433.437 359.296 433.437 359.673Z" fill="#3D454B"/>
<path d="M432.682 360.049V360.427C432.682 361.559 432.304 362.314 431.927 363.068C430.795 365.333 428.53 365.71 425.51 364.201C421.736 361.936 418.339 356.652 418.339 352.124C418.339 349.859 419.094 347.972 420.604 347.595C421.736 347.217 422.868 347.217 424.001 347.972C424.378 347.972 424.756 348.349 425.133 348.349C428.152 350.236 430.795 353.633 431.549 357.407C431.927 358.162 431.927 358.917 431.927 359.672C432.682 359.294 432.682 359.672 432.682 360.049Z" fill="#7E8386"/>
<path d="M428.53 357.786L430.417 361.183L428.907 361.938L422.491 349.861L424 349.106L428.53 357.786Z" fill="#3D454B"/>
<path d="M426.265 356.277L428.907 361.938L427.775 362.693L421.359 350.616L422.491 349.861L426.265 356.277Z" fill="#C6C9CA"/>
<path d="M430.417 356.653C430.417 357.408 430.04 358.163 429.662 358.54C428.907 358.918 427.775 359.672 427.775 359.672L423.246 351.747C423.246 351.747 424.378 351.369 424.756 350.992C425.51 350.615 426.265 350.615 427.398 350.992C428.907 352.124 430.417 354.389 430.417 356.653Z" fill="#6C7277"/>
<path d="M428.53 357.785C428.53 359.672 427.02 360.805 425.133 359.672C423.246 358.54 421.736 356.276 421.736 354.011C421.736 351.747 423.246 350.992 425.133 352.124C427.02 353.256 428.53 355.521 428.53 357.785Z" fill="#C6C9CA"/>
<path d="M427.02 356.654C427.02 357.032 427.02 357.409 426.643 357.409C426.265 357.787 425.888 357.787 425.888 357.787L423.623 354.767C423.623 354.767 424.001 354.39 424.378 354.39C424.756 354.013 425.133 354.013 425.51 354.39C426.265 354.767 427.02 355.9 427.02 356.654Z" fill="#6C7277"/>
<path d="M426.265 357.031C426.265 357.786 425.51 358.163 424.756 357.786C424.001 357.409 423.246 356.276 423.246 355.522C423.246 354.767 424.001 354.389 424.756 354.767C425.51 355.144 426.265 356.276 426.265 357.031Z" fill="#D6D8D9"/>
<path d="M177.533 207.197L202.067 193.232V187.194L177.533 201.158V207.197Z" fill="#150B01"/>
<path d="M272.635 59.4009L168.874 121.52L196.482 154.419L272.635 109.786V59.4009Z" fill="#E0E4EA"/>
<path d="M274.346 59.4473L489.864 183.993V231.918L274.346 107.373V59.4473Z" fill="#C0C8D4"/>
<path d="M177.534 201.158L153 187.194L195.651 163.417L220.184 177.382L177.534 201.158Z" fill="#787879"/>
<path d="M169.23 198.897L177.911 203.803L197.916 199.652V193.613L169.23 177.007V198.897Z" fill="#2D241B"/>
<path d="M220.562 195.122L357.949 274.378V292.493L220.562 213.237V195.122Z" fill="#2D241B"/>
<path d="M275.667 107.562L168.475 169.457L383.992 294.002L491.185 232.107L275.667 107.562Z" fill="#787879"/>
<path d="M275.667 107.562L483.259 232.107L383.992 288.718L168.475 169.457L383.992 294.002L491.185 232.107L275.667 107.562Z" fill="#878787"/>
<path d="M271.893 148.7V155.494L422.114 242.675V236.259L271.893 148.7Z" fill="#D24827"/>
<path d="M422.114 236.258V242.674L431.172 237.768V230.975L422.114 236.258Z" fill="#A21B00"/>
<path d="M422.114 236.26L271.893 148.701L280.574 143.795L431.172 230.977L422.114 236.26Z" fill="#F27B5A"/>
<path d="M400.6 76.6145L446.27 208.331L439.476 204.556L395.693 73.5952L394.938 73.2178L400.6 76.2371V76.6145Z" fill="#FF9C1A"/>
<path d="M278.309 5.66137L323.602 137.755L317.185 133.981L273.025 2.64209H272.648L277.932 5.66137H278.309Z" fill="#FF9C1A"/>
<path d="M336.812 39.6276L382.105 171.344L375.688 167.57L331.528 36.6084L331.151 36.231L336.435 39.2502L336.812 39.6276Z" fill="#FF9C1A"/>
<path d="M263.212 2.64187L265.854 148.699V153.983L402.864 235.126L408.148 232.484V80.3883L268.496 0L263.212 2.64187ZM271.138 10.9449L338.322 49.8181V55.8567L350.023 62.65V194.366L338.322 187.573V189.837L311.146 173.986L309.259 172.854L307.372 171.721L303.598 169.457L271.138 150.964V10.9449ZM390.786 220.03L358.704 201.537V69.8208L360.591 70.953L391.163 88.6913V220.03H390.786Z" fill="#7B7F8B"/>
<path d="M263.212 2.64355V154.74L402.864 235.128V83.4093L263.212 2.64355ZM271.138 19.2496L273.025 20.3818L274.912 21.514L303.598 38.1201V169.836L271.138 150.966V19.2496ZM390.786 220.032L358.704 201.539V69.8225L360.591 70.9547L391.163 88.693V220.032H390.786ZM350.023 194.368L338.322 187.574L315.676 174.365V43.0264L338.322 56.2358L350.023 63.0291V194.368Z" fill="#C5C7CF"/>
<path d="M315.675 53.2172V43.0271L338.322 55.8591L350.022 62.6525V185.311L353.042 196.256L354.552 203.426L355.307 203.049V60.0106L338.322 50.1979L311.524 34.7241L311.146 35.1015L315.675 53.2172Z" fill="#9497A1"/>
<path d="M355.307 60.0106L354.552 60.388L311.146 35.1015L311.524 34.7241L355.307 60.0106Z" fill="#DBDCE0"/>
<path d="M311.146 35.1011V178.139L353.042 202.294L354.929 203.426V60.3875L338.699 50.9523L311.146 35.1011ZM350.022 194.368L338.322 187.575L315.675 174.365V43.0267L338.322 56.236L350.022 63.0294V194.368Z" fill="#E8E9F0"/>
<path d="M353.042 61.142L354.552 68.3128L355.307 70.1999L358.704 83.0318V69.8225L360.591 70.9547L390.786 88.3155V207.954L392.673 214.748L396.448 229.844L398.335 228.712V85.2963L355.307 60.3872H354.552L353.042 61.142Z" fill="#9497A1"/>
<path d="M360.591 68.6904V70.9549L390.786 88.3157V217.767L392.673 218.9V87.1835L360.591 68.6904Z" fill="#FFFEFF"/>
<path d="M265.476 10.9462L271.138 32.836V19.2492L273.025 20.3814L274.912 21.5137L303.597 38.1197V157.381L305.485 164.552L307.372 171.723L309.259 179.271L311.146 178.139V35.1004L271.138 12.0784L267.363 9.81396L265.476 10.9462Z" fill="#9497A1"/>
<path d="M311.146 35.1004L309.259 36.2327L265.476 10.9462L267.363 9.81396L311.146 35.1004Z" fill="#DBDCE0"/>
<path d="M273.025 18.1182V20.3826L274.912 21.5149L303.597 38.1209V167.572L305.485 168.705V36.9887L273.025 18.1182Z" fill="#FFFEFF"/>
<path d="M360.591 68.6904V200.406L392.673 218.9V216.635L362.101 199.274V69.8227L360.591 68.6904Z" fill="#9497A1"/>
<path d="M315.676 43.0269V174.365L350.022 194.368V192.104L317.563 173.611V44.1591L315.676 43.0269Z" fill="#9497A1"/>
<path d="M350.022 192.102V194.367L315.676 174.364L317.563 173.609L350.022 192.102Z" fill="#DBDCE0"/>
<path d="M273.025 18.1182V149.834L305.485 168.327V166.44L274.913 148.702V19.2504L273.025 18.1182Z" fill="#9497A1"/>
<path d="M353.042 61.1426V204.181L396.825 229.467V86.429L355.684 62.6522L355.307 62.2748L353.042 61.1426ZM358.704 69.823L360.591 70.9552L391.164 88.6935V220.41L359.081 201.916V69.823H358.704Z" fill="#F4F5FA"/>
<path d="M253.021 159.645V166.438L403.242 253.62V247.204L253.021 159.645Z" fill="#D24827"/>
<path d="M403.242 247.203V253.619L412.3 248.713V241.919L403.242 247.203Z" fill="#A21B00"/>
<path d="M403.242 247.205L253.021 159.646L262.08 154.74L412.3 241.921L403.242 247.205Z" fill="#F27B5A"/>
<path d="M265.477 10.9478V153.986L308.882 179.273V36.2342L271.138 14.3444L265.477 10.9478ZM271.138 150.967V19.2508L273.026 20.383L274.913 21.5152L303.598 38.1213V169.837L271.138 150.967Z" fill="#F4F5FA"/>
<path d="M358.704 69.8242V201.163L390.786 220.033V217.769L360.591 200.408V70.9564L358.704 69.8242Z" fill="#9497A1"/>
<path d="M390.786 217.769V220.033L358.704 201.163L360.591 200.408L390.786 217.769Z" fill="#DBDCE0"/>
<path d="M271.138 19.252V150.968L303.598 169.461V167.574L273.025 149.836V20.3842L271.138 19.252Z" fill="#9497A1"/>
<path d="M303.598 167.571V169.458L271.138 150.965L273.025 149.833L303.598 167.571Z" fill="#DBDCE0"/>
<path d="M273.025 20.3818V149.833L303.598 167.572V165.307L274.913 148.701V21.5141L273.025 20.3818Z" fill="#9497A1"/>
<path d="M317.563 44.1582V173.61L350.023 192.103V189.838L319.45 172.478V44.913L317.563 44.1582Z" fill="#9497A1"/>
<path d="M344.361 268.341L383.237 241.922L384.747 236.261L388.144 227.958L388.899 218.9L390.786 215.504L387.767 213.617L384.747 216.259L383.615 224.562L379.463 233.242L377.953 238.903L339.077 265.322L344.361 268.341Z" fill="#AAADB0"/>
<path d="M280.574 231.353L324.734 207.954L326.244 202.293L329.641 193.99L330.773 184.932L332.661 181.912L329.264 180.025L326.244 182.667L325.112 190.593L321.338 199.273L319.828 204.934L275.29 228.334L280.574 231.353Z" fill="#AAADB0"/>
<path d="M221.694 197.388L268.496 175.499L270.006 169.837L273.403 161.534L274.535 152.477L276.422 149.08L273.025 147.57L270.006 149.835L268.874 158.138L265.099 166.818L263.589 172.479L216.787 194.747L221.694 197.388Z" fill="#AAADB0"/>
<path d="M360.591 70.9556V200.407L390.786 217.768V215.504L362.101 199.275V71.7104L360.591 70.9556Z" fill="#9497A1"/>
<path d="M398.335 85.2953L396.448 86.4275L353.042 61.1411L354.552 60.3862L398.335 85.2953Z" fill="#DBDCE0"/>
<path d="M308.127 106.43L308.504 107.185V118.13L307.749 118.507L305.862 117.375L305.485 116.243L308.127 106.43Z" fill="#C5C7CF"/>
<path d="M308.127 106.43L307.372 106.807L305.107 105.297L305.485 104.92L308.127 106.43Z" fill="#C5C7CF"/>
<path d="M307.372 117.75V106.805L305.107 105.295V116.24L307.372 117.75Z" fill="#FDFDFE"/>
<path d="M308.127 106.43L307.372 106.808V117.752L308.127 117.375V106.43Z" fill="#9497A1"/>
<path d="M306.995 111.336V112.846L305.107 113.978V112.469L306.995 111.336Z" fill="#9497A1"/>
<path d="M305.107 112.467V113.977L303.598 113.222V111.712L305.107 112.467Z" fill="#A21B00"/>
<path d="M305.107 112.468L306.995 111.336L305.485 110.581L303.598 111.713L305.107 112.468Z" fill="#C5C7CF"/>
<path d="M295.294 108.314V109.824L303.598 114.73V113.22L295.294 108.314Z" fill="#FDFDFE"/>
<path d="M303.597 113.22V114.729L305.485 113.974V112.087L303.597 113.22Z" fill="#9497A1"/>
<path d="M303.598 113.221L295.294 108.315L296.804 107.183L305.485 112.089L303.598 113.221Z" fill="#C5C7CF"/>
<path d="M356.817 134.738L357.194 135.493V146.437L356.439 146.815L354.552 145.683L354.175 144.55L356.817 134.738Z" fill="#C5C7CF"/>
<path d="M356.817 134.736H356.062L353.797 133.604L354.175 133.227L356.817 134.736Z" fill="#C5C7CF"/>
<path d="M356.062 145.68V134.735L353.797 133.603V144.548L356.062 145.68Z" fill="#FDFDFE"/>
<path d="M356.817 134.738H356.062V145.683H356.817V134.738Z" fill="#9497A1"/>
<path d="M355.685 139.643V140.775L353.798 141.907V140.397L355.685 139.643Z" fill="#9497A1"/>
<path d="M353.798 140.397V141.907L352.665 141.152V139.643L353.798 140.397Z" fill="#A21B00"/>
<path d="M353.798 140.396L355.685 139.641L354.175 138.886L352.665 139.641L353.798 140.396Z" fill="#C5C7CF"/>
<path d="M351.155 140.398V142.285L359.459 147.192V145.305L351.155 140.398Z" fill="#FDFDFE"/>
<path d="M359.459 145.303V147.19L360.968 146.058V144.548L359.459 145.303Z" fill="#9497A1"/>
<path d="M359.459 145.304L351.155 140.397L352.665 139.643L360.969 144.549L359.459 145.304Z" fill="#C5C7CF"/>
<path d="M394.561 78.8804L344.361 268.34L337.945 264.566L389.654 75.8611L394.938 73.2192L400.6 76.2385L394.561 78.8804Z" fill="#FF9C1A"/>
<path d="M330.773 41.8936L280.574 231.353L273.78 227.579L325.867 38.8743L331.151 36.2324L336.435 39.2517L330.773 41.8936Z" fill="#FF9C1A"/>
<path d="M272.271 8.3047L221.694 197.387L215.277 193.99L266.986 5.28542L272.648 2.64355L277.932 5.66283L272.271 8.3047Z" fill="#FF9C1A"/>
<path d="M168.475 169.458L383.992 294.004V301.929L168.475 177.384V169.458Z" fill="#3D3B36"/>
<path d="M168.475 121.704L383.992 246.249V294.174L168.475 169.629V121.704Z" fill="#C0C8D4"/>
<path fill-rule="evenodd" clip-rule="evenodd" d="M247.899 178.203L247.401 177.904L247.354 179.681L247.169 179.57L247.216 177.793L246.718 177.495L246.724 177.25L247.92 177.966L247.914 178.211L247.899 178.203ZM197.979 163.073L194.433 160.95L190.916 143.914L194.462 146.037L197.979 163.073ZM193.75 160.54L190.204 158.417L187.436 144.816L190.981 146.939L193.75 160.54ZM189.449 157.985L183.425 154.379L186.692 144.474L189.449 157.985ZM186.627 146.965C186.842 147.973 187.277 150.268 187.674 152.361L187.679 152.386C188.019 154.18 188.331 155.822 188.45 156.371L184.491 154.001C184.609 153.659 184.893 152.687 185.223 151.557C185.723 149.842 186.328 147.771 186.627 146.965ZM200.231 158.243C200.135 161.938 201.625 165.215 204.217 166.767C205.114 167.304 206.089 167.639 206.834 167.359L206.918 166.332C206.683 166.481 205.658 166.966 204.391 166.207C202.539 165.099 201.298 162.261 201.382 159.015C201.457 156.157 202.591 154.285 204.755 155.581C205.966 156.306 206.804 157.969 206.967 158.378L207.053 158.409C207.122 157.994 207.204 157.608 207.33 157.247C206.545 156.28 205.67 155.465 204.815 154.953C202.337 153.47 200.33 154.445 200.231 158.243ZM214.158 172.492C214.053 172.44 213.958 172.393 213.863 172.336C213.558 170.722 213.173 168.854 212.743 167.041L209.752 165.25C209.694 165.411 209.635 165.571 209.577 165.732C209.182 166.811 208.787 167.888 208.466 169.104L208.371 169.035C208.245 168.944 208.14 168.867 208.025 168.799C207.944 168.75 207.871 168.717 207.801 168.686C207.733 168.656 207.672 168.629 207.611 168.592L211.593 159.012L211.864 159.174L215.087 173.069C214.979 173.004 214.878 172.933 214.778 172.863C214.682 172.795 214.588 172.729 214.49 172.67C214.373 172.6 214.264 172.545 214.158 172.492ZM219.849 171.307L219.834 171.274C219.462 170.429 219.098 169.601 218.743 168.768L219.806 167.933L222.565 165.852C222.485 165.804 222.405 165.767 222.326 165.731C222.247 165.694 222.176 165.661 222.109 165.62C221.95 165.525 221.816 165.427 221.673 165.323L221.64 165.298L218.637 167.854C218.586 167.89 218.528 167.932 218.467 167.976C218.317 168.086 218.145 168.212 217.989 168.296C217.857 168.362 217.699 168.329 217.687 168.219L217.823 163.013C217.73 162.957 217.643 162.915 217.558 162.875C217.474 162.835 217.393 162.797 217.31 162.747C217.139 162.644 216.968 162.522 216.798 162.399L216.496 173.934C216.573 173.98 216.657 174.02 216.742 174.061C216.832 174.104 216.923 174.148 217.01 174.2C217.155 174.286 217.311 174.398 217.479 174.517L217.522 174.548L217.675 168.668C217.678 168.586 217.818 168.733 217.874 168.828L220.324 174.671C220.611 175.34 220.854 176.004 221.096 176.688C221.201 176.751 221.306 176.804 221.413 176.858C221.524 176.914 221.636 176.97 221.752 177.039C221.921 177.14 222.089 177.256 222.283 177.39L222.392 177.464L222.394 177.382L221.484 175.116C220.963 173.836 220.406 172.57 219.849 171.307ZM227.029 180.428C224.437 178.876 222.947 175.598 223.043 171.903C223.143 168.106 225.15 167.13 227.627 168.614C228.482 169.126 229.357 169.94 230.142 170.908C230.017 171.268 229.934 171.654 229.865 172.069L229.779 172.039C229.617 171.63 228.778 169.967 227.567 169.242C225.403 167.946 224.269 169.817 224.195 172.675C224.11 175.922 225.352 178.759 227.203 179.868C228.47 180.627 229.495 180.142 229.731 179.992L229.646 181.02C228.901 181.3 227.926 180.965 227.029 180.428ZM231.602 173.13C231.781 172.926 232.68 172.303 233.89 173.028C235.869 174.213 236.897 176.944 236.987 179.59L233.726 177.637C233.557 177.535 233.388 177.414 233.218 177.291C233.042 177.165 232.868 177.04 232.689 176.932C232.687 176.991 232.692 177.063 232.697 177.138C232.702 177.22 232.708 177.304 232.706 177.378C232.704 177.433 232.697 177.493 232.689 177.559C232.679 177.64 232.668 177.73 232.665 177.831C232.834 177.932 233.004 178.013 233.175 178.095C233.356 178.182 233.53 178.266 233.707 178.372L236.982 180.333C236.898 183.558 235.547 184.865 233.696 183.756C232.429 182.997 231.475 181.327 231.24 180.896L231.269 181.992C231.991 183.15 232.939 183.966 233.836 184.504C236.427 186.056 238.041 184.637 238.137 180.942C238.236 177.165 236.342 173.832 233.864 172.349C232.996 171.829 232.105 171.586 231.309 171.607C231.412 172.104 231.472 172.596 231.517 173.058L231.602 173.13ZM243.02 190.004C240.429 188.452 238.938 185.174 239.034 181.479C239.134 177.682 241.141 176.706 243.619 178.19C244.473 178.702 245.348 179.516 246.133 180.484C246.008 180.844 245.925 181.23 245.857 181.645L245.77 181.614C245.608 181.206 244.769 179.542 243.558 178.817C241.395 177.522 240.26 179.393 240.186 182.251C240.101 185.497 241.343 188.335 243.194 189.444C244.461 190.203 245.486 189.718 245.722 189.568L245.637 190.596C244.878 190.867 243.904 190.533 243.02 190.004ZM212.59 166.245L209.998 164.693L211.393 161.152L212.59 166.245ZM249.205 180.789L249.391 180.9L249.443 178.879L249.187 178.725L248.802 179.635L248.461 178.29L248.205 178.137L248.152 180.158L248.323 180.26L248.368 178.525L248.722 179.939L248.835 180.008L249.251 179.054L249.205 180.789ZM183.409 157.21L249.527 196.803L249.521 197.036L183.403 157.443L183.409 157.21Z" fill="#2057AC"/>
<path d="M183.529 162.614L183.442 165.933L183.077 165.715L183.116 164.219L181.831 163.449L181.792 164.945L181.425 164.725L181.512 161.406L181.879 161.626L181.84 163.091L183.125 163.861L183.164 162.395L183.529 162.614ZM186.225 164.228L186.138 167.548L185.773 167.329L185.832 165.045C185.834 164.976 185.837 164.904 185.842 164.83C185.846 164.754 185.854 164.677 185.865 164.6C185.841 164.661 185.817 164.716 185.793 164.765C185.768 164.815 185.744 164.857 185.72 164.893L184.56 166.446C184.542 166.474 184.518 166.496 184.489 166.511C184.461 166.527 184.429 166.524 184.393 166.503L184.121 166.339L184.207 163.02L184.574 163.24L184.515 165.524C184.513 165.593 184.509 165.665 184.504 165.74C184.5 165.814 184.492 165.891 184.482 165.971C184.505 165.91 184.528 165.854 184.553 165.805C184.577 165.754 184.602 165.71 184.626 165.675L185.787 164.123C185.805 164.095 185.828 164.073 185.856 164.057C185.885 164.041 185.917 164.044 185.952 164.065L186.225 164.228ZM190.078 169.907L189.836 169.762C189.782 169.73 189.736 169.687 189.698 169.632C189.661 169.577 189.632 169.516 189.61 169.449L189.047 167.946C189.016 167.863 188.982 167.795 188.944 167.744C188.906 167.692 188.857 167.647 188.798 167.612L188.518 167.444L188.479 168.949L188.134 168.743L188.173 167.238L187.895 167.071C187.836 167.036 187.786 167.021 187.745 167.026C187.705 167.03 187.669 167.056 187.637 167.102L187.013 167.893C186.989 167.933 186.957 167.958 186.917 167.967C186.878 167.975 186.833 167.964 186.78 167.932L186.537 167.786L187.282 166.782C187.321 166.719 187.363 166.676 187.408 166.653C187.454 166.629 187.506 166.622 187.565 166.632C187.517 166.579 187.476 166.521 187.443 166.458C187.409 166.394 187.377 166.32 187.346 166.235L186.683 164.503L186.968 164.673C187.006 164.696 187.04 164.73 187.072 164.775C187.104 164.82 187.13 164.87 187.148 164.927L187.707 166.405C187.741 166.494 187.776 166.56 187.813 166.604C187.852 166.649 187.896 166.687 187.946 166.717L188.183 166.859L188.221 165.423L188.565 165.63L188.528 167.065L188.766 167.208C188.817 167.238 188.861 167.254 188.899 167.255C188.939 167.257 188.977 167.234 189.014 167.188L189.632 166.414C189.653 166.381 189.68 166.362 189.712 166.356C189.746 166.35 189.781 166.358 189.818 166.38L190.104 166.551L189.373 167.45C189.339 167.494 189.303 167.528 189.268 167.551C189.233 167.573 189.19 167.581 189.14 167.575C189.197 167.636 189.247 167.704 189.29 167.78C189.333 167.856 189.372 167.947 189.406 168.054L190.078 169.907ZM192.013 170.659L192.001 171.058L190.474 170.144L190.56 166.824L192.087 167.739L192.077 168.139L190.917 167.444L190.89 168.496L191.823 169.055L191.813 169.441L190.879 168.882L190.851 169.964L192.013 170.659ZM194.092 169.331L192.966 168.657L192.89 171.591L192.523 171.371L192.609 168.051L194.102 168.945L194.092 169.331ZM196.663 172.164C196.656 172.412 196.62 172.623 196.555 172.795C196.492 172.967 196.404 173.096 196.293 173.182C196.181 173.267 196.05 173.307 195.898 173.3C195.746 173.294 195.578 173.236 195.395 173.126C195.213 173.017 195.048 172.876 194.899 172.702C194.751 172.529 194.626 172.336 194.522 172.122C194.42 171.907 194.341 171.679 194.287 171.437C194.233 171.193 194.21 170.947 194.216 170.699C194.223 170.453 194.258 170.243 194.323 170.071C194.388 169.898 194.476 169.769 194.586 169.683C194.697 169.597 194.829 169.557 194.981 169.563C195.134 169.569 195.302 169.626 195.484 169.735C195.667 169.845 195.832 169.987 195.98 170.161C196.127 170.334 196.253 170.528 196.356 170.744C196.46 170.958 196.538 171.186 196.591 171.429C196.645 171.673 196.669 171.918 196.663 172.164ZM196.289 171.94C196.294 171.743 196.278 171.554 196.242 171.373C196.206 171.192 196.153 171.024 196.081 170.87C196.011 170.717 195.924 170.579 195.82 170.458C195.718 170.337 195.602 170.238 195.473 170.16C195.343 170.083 195.225 170.042 195.119 170.038C195.013 170.034 194.922 170.064 194.844 170.129C194.767 170.194 194.706 170.293 194.662 170.426C194.618 170.56 194.594 170.725 194.588 170.922C194.583 171.121 194.599 171.311 194.634 171.492C194.67 171.672 194.724 171.838 194.796 171.992C194.867 172.146 194.954 172.284 195.057 172.405C195.16 172.525 195.277 172.623 195.406 172.701C195.535 172.778 195.653 172.819 195.758 172.825C195.865 172.829 195.957 172.799 196.033 172.733C196.11 172.668 196.17 172.57 196.215 172.438C196.259 172.305 196.283 172.139 196.289 171.94ZM197.935 172.976C198.028 173.031 198.109 173.064 198.18 173.073C198.252 173.083 198.312 173.073 198.36 173.042C198.41 173.011 198.448 172.962 198.474 172.894C198.5 172.826 198.515 172.741 198.517 172.641C198.522 172.439 198.48 172.252 198.389 172.08C198.299 171.909 198.16 171.767 197.97 171.653L197.589 171.425L197.554 172.748L197.935 172.976ZM197.98 171.267C198.138 171.362 198.274 171.469 198.39 171.588C198.505 171.707 198.6 171.835 198.674 171.972C198.748 172.107 198.802 172.25 198.835 172.399C198.87 172.55 198.885 172.703 198.881 172.859C198.877 173.014 198.853 173.146 198.81 173.253C198.766 173.358 198.704 173.435 198.624 173.482C198.544 173.529 198.445 173.545 198.327 173.527C198.21 173.509 198.076 173.454 197.925 173.364L197.544 173.136L197.512 174.359L197.147 174.14L197.233 170.82L197.98 171.267ZM201.632 175.14C201.625 175.388 201.59 175.598 201.525 175.771C201.461 175.942 201.373 176.071 201.262 176.158C201.15 176.243 201.019 176.282 200.867 176.276C200.715 176.269 200.547 176.211 200.364 176.102C200.182 175.993 200.017 175.852 199.868 175.678C199.721 175.505 199.595 175.312 199.491 175.098C199.389 174.883 199.311 174.655 199.257 174.413C199.203 174.169 199.179 173.923 199.185 173.675C199.192 173.428 199.227 173.219 199.292 173.046C199.357 172.874 199.445 172.745 199.555 172.659C199.667 172.572 199.798 172.532 199.95 172.539C200.104 172.545 200.271 172.602 200.453 172.711C200.636 172.82 200.801 172.962 200.949 173.137C201.096 173.31 201.222 173.504 201.326 173.719C201.429 173.933 201.507 174.162 201.56 174.405C201.614 174.648 201.638 174.893 201.632 175.14ZM201.258 174.916C201.263 174.719 201.248 174.529 201.212 174.348C201.176 174.167 201.122 174 201.051 173.846C200.98 173.692 200.893 173.555 200.789 173.433C200.687 173.313 200.571 173.213 200.442 173.136C200.313 173.059 200.194 173.018 200.088 173.013C199.982 173.01 199.891 173.04 199.814 173.105C199.736 173.17 199.676 173.269 199.632 173.402C199.587 173.535 199.563 173.701 199.558 173.898C199.552 174.097 199.568 174.287 199.604 174.468C199.64 174.647 199.693 174.814 199.765 174.968C199.836 175.122 199.923 175.259 200.026 175.38C200.13 175.5 200.246 175.599 200.375 175.676C200.505 175.754 200.622 175.795 200.728 175.801C200.834 175.805 200.926 175.774 201.002 175.709C201.079 175.644 201.14 175.546 201.184 175.414C201.228 175.281 201.253 175.115 201.258 174.916ZM203.592 177.607L203.658 175.06L202.88 174.593C202.856 174.949 202.828 175.258 202.796 175.52C202.765 175.782 202.729 176.005 202.69 176.189C202.651 176.374 202.609 176.524 202.565 176.64C202.52 176.756 202.473 176.845 202.423 176.908L203.592 177.607ZM204.357 178.065L204.33 179.11C204.329 179.153 204.317 179.182 204.294 179.195C204.272 179.208 204.244 179.204 204.209 179.184L203.991 179.053L204.012 178.251L202.07 177.088L202.053 177.747C202.052 177.79 202.04 177.818 202.018 177.831C201.995 177.845 201.967 177.841 201.933 177.82L201.715 177.69L201.746 176.502L202.003 176.656C202.038 176.653 202.073 176.637 202.109 176.607C202.145 176.575 202.18 176.521 202.214 176.447C202.249 176.37 202.282 176.268 202.313 176.139C202.345 176.012 202.376 175.85 202.404 175.654C202.432 175.457 202.458 175.222 202.482 174.952C202.506 174.68 202.528 174.363 202.546 174.002L204.036 174.894L203.959 177.827L204.357 178.065ZM206.474 179.002C206.495 179.014 206.512 179.036 206.526 179.066L206.665 179.365C206.56 179.465 206.434 179.516 206.286 179.517C206.14 179.518 205.965 179.458 205.761 179.336C205.583 179.229 205.422 179.091 205.279 178.92C205.137 178.751 205.017 178.561 204.918 178.349C204.82 178.139 204.745 177.913 204.695 177.671C204.644 177.43 204.622 177.184 204.629 176.935C204.635 176.685 204.67 176.474 204.734 176.3C204.799 176.128 204.887 175.999 204.997 175.913C205.107 175.827 205.237 175.787 205.387 175.792C205.538 175.798 205.703 175.855 205.883 175.962C206.058 176.067 206.212 176.199 206.346 176.357C206.48 176.516 206.596 176.689 206.693 176.877L206.567 177.034C206.559 177.046 206.548 177.054 206.535 177.057C206.523 177.061 206.508 177.057 206.488 177.046C206.467 177.033 206.441 177.003 206.412 176.956C206.385 176.909 206.347 176.854 206.3 176.79C206.254 176.725 206.197 176.657 206.128 176.586C206.059 176.514 205.972 176.448 205.868 176.385C205.746 176.312 205.633 176.274 205.529 176.272C205.426 176.268 205.336 176.298 205.259 176.363C205.183 176.427 205.122 176.526 205.077 176.661C205.033 176.794 205.008 176.96 205.003 177.159C204.997 177.36 205.014 177.553 205.052 177.735C205.09 177.918 205.145 178.086 205.217 178.24C205.288 178.394 205.373 178.529 205.473 178.647C205.572 178.764 205.68 178.858 205.796 178.927C205.867 178.97 205.931 179.002 205.987 179.025C206.045 179.047 206.097 179.061 206.145 179.066C206.193 179.071 206.239 179.069 206.283 179.059C206.326 179.047 206.369 179.028 206.411 179.002C206.421 178.997 206.431 178.994 206.441 178.994C206.452 178.993 206.462 178.995 206.474 179.002ZM209.087 181.29L208.759 181.094C208.723 181.072 208.692 181.04 208.668 180.999C208.645 180.959 208.623 180.907 208.602 180.845L208.014 179.286C208 179.246 207.985 179.211 207.97 179.182C207.955 179.151 207.939 179.124 207.921 179.101C207.903 179.076 207.883 179.055 207.86 179.036C207.839 179.017 207.813 178.999 207.783 178.981L207.493 178.807L207.454 180.312L207.088 180.093L207.175 176.774L207.541 176.993L207.503 178.428L207.752 178.577C207.802 178.607 207.845 178.623 207.881 178.624C207.918 178.624 207.954 178.603 207.989 178.56L208.639 177.789C208.658 177.759 208.68 177.74 208.706 177.731C208.733 177.72 208.765 177.726 208.802 177.748L209.11 177.933L208.349 178.853C208.319 178.891 208.285 178.918 208.248 178.933C208.21 178.946 208.17 178.951 208.126 178.946C208.187 179.005 208.238 179.072 208.279 179.149C208.321 179.224 208.361 179.317 208.399 179.429L209.087 181.29ZM211.584 179.414L211.497 182.733L211.131 182.514L211.191 180.23C211.193 180.161 211.196 180.089 211.2 180.015C211.204 179.939 211.212 179.863 211.224 179.785C211.2 179.846 211.176 179.901 211.151 179.951C211.127 180 211.102 180.043 211.078 180.078L209.919 181.631C209.901 181.659 209.877 181.681 209.848 181.696C209.819 181.712 209.787 181.709 209.752 181.688L209.479 181.525L209.566 178.205L209.933 178.425L209.873 180.709C209.872 180.779 209.868 180.851 209.863 180.926C209.858 181 209.851 181.077 209.841 181.157C209.863 181.095 209.887 181.04 209.911 180.99C209.936 180.939 209.96 180.896 209.984 180.86L211.145 179.309C211.164 179.28 211.187 179.258 211.215 179.242C211.243 179.226 211.275 179.229 211.311 179.25L211.584 179.414ZM214.279 181.028L214.193 184.347L213.827 184.129L213.887 181.845C213.889 181.775 213.892 181.704 213.896 181.629C213.9 181.554 213.908 181.477 213.919 181.399C213.896 181.46 213.872 181.515 213.847 181.565C213.823 181.614 213.798 181.657 213.774 181.693L212.615 183.245C212.597 183.273 212.573 183.295 212.543 183.31C212.515 183.326 212.483 183.324 212.448 183.302L212.175 183.139L212.262 179.82L212.629 180.04L212.569 182.323C212.567 182.393 212.564 182.465 212.558 182.54C212.554 182.614 212.547 182.691 212.537 182.771C212.559 182.709 212.583 182.654 212.607 182.604C212.632 182.553 212.656 182.51 212.68 182.474L213.841 180.923C213.859 180.895 213.883 180.873 213.911 180.857C213.939 180.841 213.971 180.843 214.007 180.865L214.279 181.028ZM213.294 179.987C213.34 180.015 213.378 180.031 213.41 180.038C213.442 180.043 213.468 180.036 213.487 180.018C213.507 179.999 213.522 179.968 213.531 179.925C213.541 179.881 213.548 179.823 213.55 179.75L213.747 179.869C213.77 179.882 213.787 179.907 213.799 179.942C213.811 179.977 213.816 180.012 213.815 180.046C213.813 180.123 213.8 180.184 213.774 180.23C213.75 180.275 213.714 180.305 213.669 180.32C213.623 180.333 213.568 180.331 213.503 180.314C213.44 180.298 213.368 180.266 213.288 180.218C213.208 180.17 213.136 180.116 213.073 180.057C213.01 179.997 212.957 179.934 212.914 179.868C212.87 179.799 212.837 179.729 212.815 179.656C212.794 179.582 212.784 179.506 212.786 179.429C212.787 179.395 212.794 179.368 212.807 179.348C212.821 179.328 212.839 179.325 212.862 179.338L213.059 179.457C213.057 179.529 213.059 179.592 213.066 179.646C213.074 179.7 213.087 179.747 213.104 179.789C213.123 179.83 213.147 179.866 213.178 179.899C213.21 179.93 213.248 179.96 213.294 179.987ZM218.146 185.029C218.14 185.277 218.104 185.487 218.039 185.66C217.975 185.831 217.888 185.961 217.776 186.047C217.665 186.132 217.533 186.172 217.381 186.165C217.229 186.159 217.061 186.101 216.878 185.991C216.697 185.882 216.531 185.741 216.382 185.567C216.235 185.394 216.109 185.201 216.006 184.987C215.903 184.772 215.825 184.544 215.771 184.302C215.717 184.058 215.693 183.812 215.7 183.564C215.706 183.318 215.742 183.108 215.807 182.936C215.871 182.763 215.959 182.634 216.069 182.548C216.181 182.462 216.313 182.422 216.465 182.428C216.618 182.434 216.785 182.491 216.967 182.6C217.15 182.71 217.315 182.852 217.463 183.026C217.611 183.199 217.736 183.393 217.84 183.609C217.944 183.822 218.022 184.051 218.075 184.294C218.129 184.537 218.152 184.783 218.146 185.029ZM217.772 184.805C217.777 184.608 217.762 184.419 217.726 184.238C217.69 184.056 217.636 183.889 217.565 183.735C217.494 183.582 217.407 183.444 217.304 183.323C217.201 183.202 217.085 183.103 216.956 183.025C216.827 182.948 216.709 182.907 216.602 182.902C216.496 182.899 216.405 182.929 216.328 182.994C216.251 183.059 216.19 183.158 216.146 183.291C216.102 183.425 216.077 183.59 216.072 183.787C216.067 183.986 216.082 184.176 216.118 184.357C216.154 184.537 216.208 184.703 216.279 184.857C216.351 185.011 216.438 185.149 216.54 185.269C216.644 185.39 216.76 185.488 216.89 185.566C217.019 185.643 217.136 185.684 217.242 185.69C217.349 185.694 217.44 185.664 217.516 185.598C217.593 185.533 217.654 185.435 217.698 185.303C217.742 185.17 217.767 185.004 217.772 184.805ZM220.629 188.202L220.301 188.005C220.265 187.983 220.234 187.952 220.21 187.911C220.186 187.87 220.164 187.819 220.144 187.756L219.556 186.197C219.542 186.157 219.527 186.123 219.511 186.093C219.497 186.063 219.481 186.036 219.463 186.013C219.445 185.988 219.425 185.966 219.402 185.948C219.38 185.929 219.355 185.91 219.325 185.892L219.035 185.719L218.996 187.224L218.63 187.005L218.717 183.685L219.082 183.904L219.045 185.34L219.294 185.489C219.344 185.519 219.387 185.534 219.423 185.536C219.46 185.536 219.496 185.514 219.531 185.471L220.18 184.7C220.2 184.671 220.222 184.652 220.248 184.642C220.275 184.632 220.307 184.637 220.343 184.659L220.652 184.844L219.891 185.764C219.861 185.803 219.827 185.829 219.79 185.844C219.752 185.858 219.711 185.862 219.667 185.858C219.729 185.917 219.78 185.984 219.821 186.06C219.863 186.135 219.903 186.229 219.94 186.341L220.629 188.202ZM223.249 188.085C223.243 188.333 223.207 188.543 223.142 188.716C223.078 188.887 222.991 189.017 222.879 189.103C222.768 189.188 222.636 189.228 222.484 189.221C222.332 189.215 222.165 189.157 221.982 189.047C221.8 188.938 221.635 188.797 221.486 188.623C221.338 188.45 221.212 188.257 221.109 188.043C221.006 187.828 220.928 187.6 220.874 187.358C220.82 187.114 220.796 186.868 220.803 186.62C220.809 186.373 220.845 186.164 220.91 185.992C220.975 185.819 221.062 185.69 221.173 185.604C221.284 185.518 221.416 185.478 221.568 185.484C221.721 185.49 221.889 185.547 222.07 185.656C222.253 185.765 222.419 185.907 222.566 186.082C222.714 186.255 222.84 186.449 222.943 186.664C223.047 186.878 223.125 187.107 223.178 187.35C223.232 187.593 223.256 187.839 223.249 188.085ZM222.875 187.861C222.88 187.664 222.865 187.475 222.829 187.293C222.793 187.112 222.739 186.945 222.668 186.791C222.598 186.638 222.511 186.5 222.407 186.379C222.304 186.258 222.189 186.159 222.059 186.081C221.93 186.004 221.812 185.963 221.705 185.958C221.6 185.955 221.508 185.985 221.431 186.05C221.354 186.115 221.293 186.214 221.249 186.347C221.205 186.48 221.18 186.646 221.175 186.843C221.17 187.042 221.185 187.232 221.221 187.413C221.257 187.593 221.311 187.759 221.382 187.913C221.454 188.067 221.541 188.205 221.643 188.325C221.747 188.445 221.864 188.544 221.993 188.622C222.122 188.699 222.239 188.74 222.345 188.746C222.452 188.75 222.543 188.72 222.619 188.654C222.697 188.589 222.757 188.491 222.801 188.359C222.845 188.226 222.87 188.06 222.875 187.861ZM225.838 187.949L225.751 191.269L225.386 191.05L225.425 189.554L224.14 188.785L224.1 190.28L223.733 190.061L223.82 186.741L224.187 186.961L224.149 188.427L225.434 189.196L225.472 187.731L225.838 187.949ZM228.533 189.564L228.447 192.883L228.081 192.664L228.12 191.169L226.835 190.399L226.796 191.895L226.429 191.675L226.516 188.356L226.883 188.575L226.845 190.041L228.13 190.81L228.168 189.345L228.533 189.564ZM229.959 193.392C230.051 193.447 230.13 193.481 230.196 193.492C230.262 193.503 230.316 193.496 230.359 193.472C230.401 193.445 230.433 193.403 230.453 193.345C230.474 193.287 230.486 193.217 230.488 193.134C230.49 193.046 230.483 192.961 230.465 192.88C230.448 192.8 230.42 192.723 230.38 192.651C230.342 192.58 230.29 192.512 230.225 192.448C230.161 192.383 230.082 192.322 229.99 192.267L229.53 191.992L229.5 193.117L229.959 193.392ZM230 191.876C230.152 191.967 230.282 192.069 230.391 192.181C230.5 192.291 230.588 192.408 230.657 192.531C230.727 192.654 230.777 192.781 230.808 192.912C230.839 193.042 230.853 193.171 230.85 193.301C230.846 193.453 230.822 193.58 230.78 193.682C230.738 193.782 230.678 193.853 230.601 193.896C230.524 193.939 230.431 193.952 230.321 193.935C230.211 193.916 230.087 193.865 229.948 193.782L229.125 193.289L229.212 189.97L229.577 190.189L229.54 191.601L230 191.876ZM231.619 194.783L231.252 194.563L231.339 191.244L231.706 191.464L231.619 194.783ZM234.401 193.077L234.314 196.397L233.948 196.178L234.008 193.894C234.01 193.824 234.013 193.753 234.017 193.679C234.022 193.603 234.03 193.526 234.041 193.448C234.017 193.509 233.993 193.565 233.968 193.614C233.944 193.664 233.92 193.706 233.895 193.742L232.736 195.294C232.718 195.323 232.694 195.344 232.665 195.36C232.636 195.376 232.605 195.373 232.569 195.352L232.296 195.188L232.383 191.869L232.75 192.089L232.691 194.373C232.689 194.442 232.685 194.514 232.679 194.589C232.675 194.663 232.668 194.74 232.658 194.82C232.68 194.759 232.704 194.703 232.729 194.654C232.753 194.603 232.777 194.559 232.802 194.524L233.962 192.972C233.981 192.944 234.004 192.922 234.032 192.906C234.061 192.89 234.092 192.893 234.128 192.914L234.401 193.077ZM233.415 192.036C233.461 192.064 233.5 192.081 233.531 192.087C233.563 192.092 233.589 192.086 233.608 192.067C233.629 192.048 233.643 192.017 233.652 191.974C233.663 191.93 233.669 191.872 233.671 191.8L233.868 191.918C233.891 191.931 233.908 191.956 233.92 191.991C233.932 192.027 233.937 192.061 233.937 192.095C233.934 192.172 233.921 192.233 233.895 192.279C233.871 192.324 233.836 192.354 233.79 192.369C233.744 192.382 233.69 192.381 233.625 192.364C233.561 192.348 233.49 192.316 233.409 192.267C233.329 192.22 233.258 192.166 233.194 192.106C233.132 192.046 233.079 191.983 233.035 191.917C232.992 191.848 232.959 191.778 232.936 191.705C232.915 191.631 232.905 191.556 232.907 191.478C232.908 191.445 232.915 191.418 232.929 191.397C232.942 191.377 232.96 191.374 232.983 191.388L233.18 191.506C233.178 191.578 233.181 191.641 233.187 191.695C233.195 191.749 233.208 191.796 233.225 191.838C233.244 191.879 233.269 191.916 233.299 191.948C233.331 191.98 233.37 192.009 233.415 192.036ZM235.865 194.268C235.962 194.214 236.073 194.195 236.199 194.21C236.327 194.226 236.469 194.28 236.625 194.374C236.754 194.451 236.868 194.541 236.97 194.646C237.072 194.749 237.158 194.861 237.228 194.979C237.298 195.098 237.351 195.221 237.387 195.349C237.424 195.477 237.44 195.604 237.437 195.729C237.432 195.892 237.399 196.019 237.336 196.11C237.274 196.2 237.188 196.249 237.076 196.257C237.137 196.331 237.192 196.408 237.241 196.489C237.29 196.571 237.331 196.654 237.365 196.74C237.4 196.825 237.426 196.911 237.444 196.998C237.462 197.085 237.471 197.169 237.468 197.253C237.465 197.399 237.441 197.524 237.397 197.628C237.354 197.73 237.293 197.806 237.212 197.855C237.133 197.903 237.037 197.921 236.923 197.91C236.81 197.897 236.681 197.847 236.537 197.76C236.361 197.655 236.201 197.52 236.059 197.355C235.917 197.19 235.798 197.011 235.7 196.818L235.811 196.645C235.821 196.632 235.833 196.624 235.848 196.621C235.864 196.617 235.88 196.621 235.897 196.631C235.922 196.646 235.951 196.681 235.985 196.735C236.018 196.79 236.06 196.853 236.111 196.926C236.161 196.996 236.222 197.07 236.293 197.147C236.365 197.225 236.454 197.295 236.558 197.357C236.733 197.462 236.87 197.49 236.969 197.442C237.067 197.391 237.119 197.267 237.125 197.07C237.127 196.987 237.116 196.903 237.093 196.819C237.071 196.735 237.037 196.655 236.993 196.578C236.948 196.501 236.894 196.43 236.829 196.365C236.765 196.298 236.691 196.241 236.609 196.193L236.269 195.99L236.28 195.585L236.601 195.777C236.672 195.82 236.736 195.848 236.795 195.861C236.856 195.874 236.908 195.872 236.951 195.856C236.994 195.838 237.028 195.805 237.052 195.757C237.078 195.708 237.092 195.644 237.094 195.564C237.096 195.491 237.087 195.418 237.065 195.344C237.045 195.271 237.014 195.201 236.973 195.134C236.933 195.066 236.882 195.002 236.821 194.942C236.761 194.881 236.692 194.827 236.614 194.781C236.524 194.727 236.447 194.694 236.382 194.682C236.319 194.669 236.264 194.665 236.219 194.67C236.173 194.675 236.135 194.681 236.105 194.689C236.075 194.697 236.051 194.694 236.03 194.682C236.01 194.67 235.995 194.655 235.983 194.635C235.97 194.615 235.959 194.589 235.948 194.555L235.865 194.268ZM239.303 198.128L238.972 196.622C238.96 196.571 238.948 196.514 238.936 196.45C238.925 196.386 238.914 196.318 238.903 196.245C238.889 196.304 238.874 196.358 238.859 196.407C238.845 196.455 238.831 196.497 238.817 196.534L238.42 197.599L239.303 198.128ZM239.995 199.799L239.712 199.629C239.68 199.61 239.654 199.584 239.634 199.55C239.615 199.516 239.601 199.48 239.592 199.44L239.394 198.539L238.31 197.89L238.072 198.529C238.062 198.553 238.046 198.571 238.023 198.582C238.002 198.593 237.976 198.59 237.945 198.571L237.662 198.401L238.73 195.67L239.101 195.892L239.995 199.799ZM241.255 200.156C241.348 200.212 241.427 200.245 241.493 200.254C241.56 200.265 241.615 200.257 241.658 200.231C241.701 200.205 241.734 200.164 241.755 200.106C241.776 200.047 241.788 199.975 241.79 199.892C241.794 199.727 241.756 199.572 241.673 199.428C241.591 199.282 241.462 199.156 241.284 199.049L240.77 198.741L240.741 199.848L241.255 200.156ZM240.807 197.306L240.779 198.392L241.199 198.644C241.379 198.751 241.513 198.783 241.603 198.737C241.693 198.692 241.741 198.585 241.745 198.419C241.75 198.229 241.712 198.066 241.631 197.93C241.55 197.794 241.421 197.673 241.244 197.567L240.807 197.306ZM241.254 197.181C241.409 197.274 241.541 197.373 241.649 197.479C241.759 197.585 241.849 197.698 241.917 197.816C241.987 197.934 242.036 198.056 242.067 198.184C242.098 198.311 242.112 198.442 242.109 198.578C242.107 198.658 242.095 198.73 242.075 198.793C242.055 198.856 242.025 198.908 241.985 198.95C241.946 198.991 241.897 199.02 241.839 199.036C241.78 199.053 241.712 199.055 241.633 199.042C241.988 199.352 242.161 199.711 242.15 200.119C242.146 200.261 242.124 200.379 242.081 200.473C242.04 200.565 241.981 200.632 241.904 200.672C241.827 200.712 241.734 200.723 241.624 200.704C241.514 200.685 241.39 200.634 241.252 200.551L240.365 200.02L240.452 196.701L241.254 197.181ZM245.001 201.11C244.994 201.359 244.959 201.569 244.894 201.741C244.83 201.913 244.742 202.042 244.631 202.129C244.519 202.214 244.388 202.253 244.236 202.246C244.084 202.24 243.916 202.182 243.733 202.072C243.551 201.963 243.386 201.822 243.237 201.648C243.09 201.476 242.964 201.282 242.86 201.068C242.758 200.854 242.68 200.625 242.625 200.383C242.572 200.139 242.548 199.893 242.554 199.645C242.561 199.399 242.596 199.189 242.661 199.017C242.726 198.845 242.814 198.715 242.924 198.63C243.036 198.543 243.168 198.503 243.319 198.509C243.472 198.515 243.64 198.572 243.822 198.681C244.005 198.791 244.17 198.933 244.318 199.107C244.466 199.28 244.591 199.474 244.695 199.69C244.798 199.904 244.876 200.132 244.929 200.375C244.984 200.619 245.007 200.864 245.001 201.11ZM244.627 200.886C244.632 200.689 244.616 200.5 244.581 200.319C244.545 200.138 244.491 199.97 244.42 199.816C244.349 199.663 244.262 199.525 244.159 199.404C244.056 199.283 243.94 199.184 243.811 199.107C243.682 199.029 243.564 198.988 243.457 198.984C243.351 198.98 243.26 199.011 243.182 199.075C243.106 199.141 243.045 199.239 243 199.373C242.957 199.506 242.932 199.671 242.927 199.868C242.922 200.067 242.937 200.257 242.973 200.438C243.009 200.618 243.063 200.785 243.134 200.939C243.205 201.093 243.292 201.23 243.395 201.351C243.499 201.471 243.615 201.57 243.744 201.647C243.873 201.724 243.991 201.766 244.097 201.771C244.203 201.775 244.295 201.745 244.371 201.679C244.448 201.614 244.509 201.516 244.553 201.385C244.597 201.251 244.621 201.085 244.627 200.886ZM246.961 203.578L247.028 201.031L246.249 200.564C246.225 200.92 246.197 201.228 246.165 201.491C246.134 201.752 246.098 201.975 246.059 202.159C246.02 202.345 245.979 202.495 245.934 202.611C245.889 202.726 245.842 202.815 245.792 202.878L246.961 203.578ZM247.726 204.036L247.699 205.081C247.698 205.124 247.686 205.152 247.663 205.165C247.641 205.179 247.613 205.175 247.578 205.154L247.36 205.024L247.381 204.222L245.439 203.059L245.422 203.717C245.421 203.761 245.409 203.789 245.387 203.802C245.364 203.815 245.336 203.811 245.301 203.791L245.084 203.661L245.115 202.472L245.372 202.627C245.407 202.624 245.442 202.608 245.478 202.577C245.514 202.545 245.549 202.492 245.583 202.417C245.618 202.341 245.651 202.238 245.682 202.11C245.714 201.982 245.745 201.82 245.773 201.624C245.801 201.427 245.827 201.193 245.85 200.922C245.875 200.65 245.897 200.334 245.916 199.973L247.405 200.864L247.328 203.798L247.726 204.036Z" fill="#2057AC"/>
<path fill-rule="evenodd" clip-rule="evenodd" d="M308.755 234.869C307.766 233.464 307.096 231.929 306.744 230.263C306.392 228.597 306.408 226.961 306.791 225.355C307.174 223.75 307.848 222.494 308.814 221.588C309.779 220.682 310.931 220.199 312.27 220.138C313.608 220.077 315.003 220.466 316.453 221.303C317.902 222.14 319.119 223.259 320.101 224.66C321.084 226.06 321.754 227.596 322.112 229.266C322.47 230.936 322.458 232.574 322.075 234.179C321.692 235.785 321.014 237.039 320.042 237.941C319.07 238.843 317.918 239.326 316.586 239.39C315.254 239.455 313.863 239.069 312.413 238.232C310.964 237.395 309.744 236.274 308.755 234.869ZM315.577 235.629C316.348 235.568 317.018 235.25 317.587 234.674C318.156 234.098 318.561 233.303 318.803 232.29C319.044 231.277 319.071 230.263 318.881 229.249C318.692 228.235 318.317 227.314 317.758 226.486C317.199 225.658 316.507 225.006 315.683 224.53C314.858 224.053 314.06 223.845 313.289 223.906C312.518 223.966 311.848 224.284 311.279 224.86C310.71 225.436 310.305 226.231 310.063 227.244C309.822 228.258 309.795 229.271 309.985 230.285C310.174 231.299 310.549 232.22 311.108 233.048C311.667 233.877 312.359 234.529 313.183 235.005C314.008 235.481 314.806 235.689 315.577 235.629ZM329.597 240.331L327.362 239.041L325.789 245.635L322.576 243.78L326.482 227.412L329.694 229.267L328.115 235.884L330.43 237.22L335.68 232.723L339.092 234.693L332.637 239.958L335.326 251.141L331.655 249.021L329.597 240.331ZM353.996 243.298L350.091 259.666L346.859 257.799L348.46 251.089L342.115 247.425L340.514 254.136L337.281 252.27L341.187 235.902L344.419 237.768L342.879 244.222L349.224 247.885L350.764 241.432L353.996 243.298ZM363.877 263.634L357.392 259.891L355.319 262.684L352.006 260.771L362.137 247.998L365.329 249.841L367.669 269.814L364.277 267.856L363.877 263.634ZM363.546 260.171L362.826 252.626L359.116 257.613L363.546 260.171Z" fill="#2057AC"/>
<path fill-rule="evenodd" clip-rule="evenodd" d="M276.039 202.382C275.578 201.727 275.266 201.012 275.103 200.236C274.939 199.46 274.946 198.698 275.125 197.95C275.303 197.202 275.617 196.617 276.067 196.195C276.516 195.773 277.053 195.548 277.676 195.52C278.3 195.492 278.949 195.673 279.625 196.063C280.3 196.452 280.866 196.974 281.324 197.626C281.782 198.279 282.094 198.994 282.261 199.772C282.428 200.549 282.422 201.312 282.243 202.06C282.065 202.808 281.749 203.392 281.297 203.812C280.844 204.232 280.307 204.457 279.687 204.488C279.066 204.518 278.419 204.338 277.743 203.948C277.068 203.558 276.5 203.036 276.039 202.382ZM279.217 202.735C279.576 202.707 279.888 202.559 280.153 202.291C280.418 202.022 280.607 201.652 280.719 201.18C280.832 200.708 280.844 200.236 280.756 199.764C280.668 199.292 280.493 198.863 280.233 198.477C279.972 198.091 279.65 197.787 279.266 197.566C278.882 197.344 278.51 197.247 278.151 197.275C277.792 197.303 277.48 197.451 277.215 197.72C276.95 197.988 276.761 198.358 276.649 198.83C276.536 199.302 276.524 199.774 276.612 200.246C276.7 200.719 276.875 201.148 277.135 201.533C277.395 201.919 277.718 202.223 278.102 202.445C278.486 202.667 278.858 202.763 279.217 202.735ZM285.747 204.926L284.706 204.325L283.973 207.396L282.477 206.532L284.296 198.908L285.792 199.772L285.057 202.854L286.135 203.477L288.58 201.382L290.169 202.299L287.163 204.752L288.416 209.961L286.705 208.973L285.747 204.926ZM297.112 206.307L295.293 213.931L293.787 213.062L294.533 209.936L291.578 208.23L290.832 211.356L289.326 210.486L291.145 202.863L292.651 203.732L291.934 206.738L294.889 208.444L295.606 205.438L297.112 206.307ZM301.714 215.78L298.694 214.036L297.728 215.337L296.185 214.446L300.903 208.497L302.39 209.355L303.48 218.658L301.9 217.746L301.714 215.78ZM301.56 214.167L301.224 210.652L299.496 212.975L301.56 214.167Z" fill="#2057AC"/>
<path fill-rule="evenodd" clip-rule="evenodd" d="M279.245 221.246C278.919 220.783 278.697 220.276 278.581 219.726C278.465 219.176 278.47 218.636 278.597 218.106C278.723 217.575 278.946 217.161 279.265 216.862C279.583 216.563 279.963 216.403 280.405 216.383C280.847 216.363 281.308 216.491 281.786 216.768C282.265 217.044 282.666 217.413 282.991 217.876C283.315 218.338 283.536 218.845 283.655 219.397C283.773 219.948 283.769 220.489 283.642 221.019C283.516 221.549 283.292 221.963 282.971 222.26C282.651 222.558 282.27 222.718 281.83 222.739C281.391 222.76 280.932 222.633 280.453 222.356C279.974 222.08 279.572 221.71 279.245 221.246ZM281.497 221.497C281.752 221.477 281.973 221.372 282.161 221.182C282.349 220.992 282.482 220.729 282.562 220.395C282.642 220.06 282.651 219.726 282.588 219.391C282.526 219.056 282.402 218.752 282.217 218.479C282.033 218.205 281.804 217.99 281.532 217.833C281.26 217.676 280.996 217.607 280.742 217.627C280.487 217.647 280.266 217.752 280.078 217.942C279.891 218.132 279.757 218.395 279.677 218.729C279.597 219.064 279.589 219.398 279.651 219.733C279.714 220.068 279.837 220.372 280.022 220.645C280.206 220.919 280.435 221.134 280.707 221.291C280.979 221.448 281.243 221.517 281.497 221.497ZM286.126 223.049L285.388 222.624L284.868 224.8L283.808 224.188L285.097 218.785L286.158 219.397L285.636 221.581L286.401 222.023L288.134 220.538L289.26 221.188L287.129 222.926L288.017 226.618L286.805 225.918L286.126 223.049ZM294.181 224.029L292.891 229.432L291.824 228.816L292.353 226.601L290.258 225.392L289.73 227.607L288.663 226.991L289.952 221.587L291.019 222.204L290.511 224.334L292.605 225.543L293.114 223.413L294.181 224.029ZM297.443 230.743L295.302 229.507L294.617 230.429L293.524 229.797L296.868 225.581L297.922 226.189L298.694 232.783L297.575 232.136L297.443 230.743ZM297.333 229.599L297.096 227.108L295.871 228.755L297.333 229.599Z" fill="#2057AC"/>
<path d="M177.534 207.197L153 193.232V187.194L177.534 201.158V207.197Z" fill="#322920"/>
<path d="M486.998 188.988L384.02 246.063V294.07L486.998 234.373V188.988Z" fill="#E0E4EA"/>
<path d="M400.222 224.937L393.805 286.833V337.783L397.202 339.67L401.354 322.309C402.864 318.535 408.148 317.78 413.055 318.913C414.565 319.29 416.452 320.045 417.961 320.8L427.775 326.461C432.304 329.103 436.833 334.386 439.475 340.047L441.74 344.576C441.74 344.954 442.118 345.331 442.118 345.709C443.627 348.728 445.137 352.502 445.137 355.144L445.892 367.598L449.289 369.485L472.313 381.563L477.597 379.675L479.107 367.598L479.484 365.711L480.239 343.822L481.371 341.557L477.597 322.687L462.499 256.262L458.725 249.846L404.374 218.521L401.732 221.541L400.222 224.937Z" fill="#9AA7BB"/>
<path d="M442.118 345.709C443.627 348.729 445.137 352.503 445.137 355.145L445.892 367.599L449.289 369.486L472.313 381.563L477.597 379.676L479.107 367.599C477.974 366.844 476.842 365.712 475.71 364.957L442.118 345.709Z" fill="#261D14"/>
<path d="M445.892 367.598L472.69 381.562L477.597 380.052L474.2 375.524L445.892 359.295V367.598Z" fill="#8595AD"/>
<path d="M456.083 353.635L450.421 357.409V358.918L448.157 360.428L445.515 355.144C445.137 352.502 443.628 348.728 442.495 345.709C442.495 345.332 442.118 344.954 442.118 344.577L439.853 340.048C437.211 334.009 432.682 329.103 428.153 326.461L417.962 320.8C416.452 320.045 414.565 319.29 412.678 318.536H412.3H411.923C409.658 318.158 407.771 318.158 405.884 318.536L400.6 312.12L389.654 298.91L394.183 294.004L422.491 309.1C422.491 309.1 439.853 321.177 446.27 329.858C450.421 335.519 453.818 344.577 455.328 350.238C455.706 352.88 456.083 353.635 456.083 353.635Z" fill="#D5DAE2"/>
<path d="M480.239 343.822L469.671 335.896L393.805 286.455L400.222 224.937L401.732 221.541L404.374 218.521L458.725 249.846L462.499 256.262L477.219 322.687L481.371 341.557L480.239 343.822Z" fill="#C0C8D4"/>
<path d="M401.732 221.541L462.5 256.262L458.725 249.846L404.374 218.521L401.732 221.541Z" fill="#F7F6F5"/>
<path d="M403.996 234.374L401.354 261.547C401.354 262.679 401.732 263.812 402.864 264.189L407.771 267.208C408.903 267.963 410.413 267.208 410.413 265.699L413.055 238.525C413.055 237.393 412.677 236.261 411.545 235.883L406.638 233.241C405.506 232.109 403.996 232.864 403.996 234.374Z" fill="#322920"/>
<path d="M408.526 266.452H408.148L403.242 263.433C402.487 263.056 402.109 262.301 402.109 261.546L404.751 234.372C404.751 233.618 405.129 233.618 405.506 233.618H405.884H406.261L411.168 236.26C411.923 236.637 412.3 237.392 412.3 238.147L409.658 265.32C409.281 266.075 408.903 266.452 408.526 266.452Z" fill="#4D5258"/>
<path d="M402.864 222.295L460.235 257.772L473.445 319.667L476.087 327.215L478.352 342.689L480.239 343.821L481.371 341.557L477.219 322.686L475.332 319.667L462.499 256.262L402.864 222.295Z" fill="#E0E4EA"/>
<path d="M423.623 243.431C421.736 242.298 419.849 243.431 419.471 245.695C418.717 252.488 416.075 269.849 417.584 272.491C419.094 274.756 437.589 291.362 444.382 301.552C445.515 303.061 461.745 312.497 461.745 312.497L460.612 298.155C460.612 298.155 454.196 264.943 452.686 260.791C451.176 257.772 432.682 248.337 423.623 243.431Z" fill="#322920"/>
<path d="M459.857 309.476C453.063 305.702 446.269 301.551 445.515 300.419C440.985 293.248 430.794 283.435 424.378 277.019C421.736 274.755 419.471 272.113 419.094 271.358C417.962 269.094 419.849 253.62 420.604 248.336C420.604 247.204 420.981 246.449 420.981 245.694C420.981 244.939 421.358 244.185 422.113 244.185C422.491 244.185 422.491 244.185 422.868 244.562C424.755 245.694 427.397 247.204 430.417 248.714C437.588 252.488 450.421 259.658 451.554 261.545C453.063 264.565 457.593 289.096 459.48 298.532L459.857 309.476Z" fill="#4D5258"/>
<path d="M468.916 355.142L456.083 347.217L453.441 340.423C453.441 340.423 451.931 321.175 414.942 299.286L410.413 296.266V295.889L415.697 233.994L416.829 234.371L455.705 255.883L459.48 268.715L461.367 275.886L469.671 317.779L471.18 338.536L468.916 355.142ZM457.215 346.084L468.161 352.878L469.671 338.159L468.161 317.779L459.857 275.886L457.97 268.715L454.196 256.638L416.829 235.881L411.545 295.134L415.697 297.776C452.309 319.666 454.573 338.159 454.951 340.046L457.215 346.084Z" fill="#ABABAB"/>
<path d="M471.935 368.729L475.71 370.994L479.107 374.013L481.371 382.316L478.729 384.958L472.69 381.561L470.426 379.297L471.935 368.729Z" fill="#8595AD"/>
<path d="M449.667 369.863L446.27 367.976V365.712L445.515 355.521C445.137 352.88 443.628 349.105 442.495 346.086C442.495 345.709 442.118 345.331 442.118 344.954L439.853 340.425C437.211 334.386 432.682 329.48 428.153 326.838L417.962 320.8C417.207 320.422 416.452 320.045 415.697 319.668C414.565 319.29 413.81 318.913 412.678 318.535H412.3H411.923C409.658 318.158 407.771 318.158 405.884 318.535C403.997 318.913 402.487 320.045 401.354 321.932L397.203 339.67L394.938 338.161C394.938 338.161 396.825 318.158 397.958 314.006C398.335 312.874 399.09 312.497 400.6 312.119C404.751 310.987 412.678 312.497 413.055 312.497C413.055 312.497 423.246 318.535 433.437 328.725C444.005 339.293 447.779 358.918 447.779 358.918L449.667 369.863Z" fill="#261D14"/>
<path d="M404.374 218.521L402.864 222.296L401.732 225.692L396.07 287.965L395.693 295.136L391.541 300.042V307.59L389.276 306.458V299.287L393.806 294.003V286.455L400.222 224.937L401.732 221.541L404.374 218.521Z" fill="#C1C9D5"/>
<path d="M413.055 312.875V318.914H412.678H412.3H411.923C409.658 318.536 407.771 318.536 405.884 318.914C403.996 319.291 402.487 320.424 401.354 322.311L397.203 339.671L389.276 335.143V299.289L413.055 312.875Z" fill="#261D14"/>
<path d="M449.667 369.862L446.27 367.975V365.711L445.515 355.521C445.137 352.879 443.628 349.105 442.495 346.085C442.495 345.708 442.118 345.331 442.118 344.953L439.853 340.424C437.211 334.386 432.682 329.479 428.153 326.838L417.962 320.799C417.207 320.422 416.452 320.044 415.697 319.667L413.055 318.157L400.6 312.119L389.276 306.457V298.909L412.678 312.496C412.678 312.496 422.868 318.534 433.059 328.725C443.628 339.292 447.402 358.917 447.402 358.917L449.667 369.862Z" fill="#6E819E"/>
<path d="M449.289 275.134L445.892 275.511C443.25 275.888 440.985 279.285 440.985 283.059V303.817C440.985 307.591 443.25 309.855 445.892 309.478L450.421 308.723C453.063 308.346 454.196 305.326 454.196 301.552V280.795C454.196 277.021 451.931 274.756 449.289 275.134Z" fill="#484038"/>
<path d="M447.402 313.628L468.161 304.947L467.406 303.06L449.289 309.854V272.868L461.744 266.829L460.612 264.942L447.402 271.735V313.628Z" fill="#3E362E"/>
<path d="M576.109 201.539L572.712 205.313C570.07 208.71 567.805 214.371 567.805 218.145L570.07 238.525C570.07 242.299 572.334 242.299 574.977 238.902L578.373 234.751C581.016 231.354 582.148 227.203 582.148 223.806L581.016 201.539C581.016 198.142 579.128 198.142 576.109 201.539Z" fill="#484038"/>
<path d="M568.183 252.867L577.618 242.299L573.467 197.388L556.482 210.597L557.237 212.484L571.202 200.784L575.354 241.167L567.05 251.357L568.183 252.867Z" fill="#3E362E"/>
<path d="M477.597 380.049L479.484 366.085L586.677 304.19L584.79 318.154L477.597 380.049Z" fill="#8595AD"/>
<path d="M587.432 282.301L586.677 304.191L551.198 328.345C544.404 333.251 536.855 337.403 529.306 341.177L479.484 366.086L480.239 344.196L487.788 339.667L579.506 286.83L587.432 282.301Z" fill="#261D14"/>
<path d="M502.131 276.262L504.395 277.771L508.547 260.411C510.812 255.127 518.738 255.504 524.777 259.278L534.59 264.94C539.12 267.581 543.649 272.865 546.291 278.526L548.556 283.055C548.556 283.433 548.933 283.81 548.933 284.187C550.443 287.207 551.952 290.981 551.952 293.623L553.085 305.7L556.482 307.587L554.595 296.642C554.595 296.642 551.198 277.017 540.252 266.449C529.684 256.259 519.87 250.221 519.87 250.221C519.87 250.221 505.905 247.579 504.773 251.73C504.018 256.259 502.131 276.262 502.131 276.262Z" fill="#322920"/>
<path d="M500.998 239.654V275.508L504.395 277.395L508.547 260.034C510.057 256.26 514.963 255.506 520.247 256.638V250.599L500.998 239.654Z" fill="#322920"/>
<path d="M579.883 292.869L554.217 311.362C545.159 317.778 535.345 323.816 525.154 328.345L487.788 346.083V339.667L579.505 286.83L579.883 292.869Z" fill="#A5A9B2"/>
<path d="M588.186 279.66L587.054 281.925L554.972 304.947C545.913 311.363 536.1 317.401 525.909 321.93L479.862 343.443H479.484L480.616 341.178L476.842 322.308L584.412 264.187L588.186 279.66Z" fill="#E0E4EA"/>
<path d="M588.187 279.662L587.054 281.927L554.972 304.949C545.914 311.365 536.1 317.403 525.909 321.932L479.862 343.444L480.617 341.18C480.617 341.18 525.909 321.555 542.517 310.61C559.501 300.42 587.809 280.04 588.187 279.662Z" fill="#9AA7BB"/>
<path d="M586.299 307.212L551.953 330.234C545.536 334.385 539.12 338.159 532.326 341.934L480.239 368.352L476.087 365.333L471.936 368.73L475.71 370.617L479.484 374.013L481.372 382.316L478.729 384.581L529.306 358.54C538.742 353.633 548.178 347.972 557.237 341.934L587.432 321.176L590.074 318.912V309.854L586.299 306.457V307.212Z" fill="#E9E5E2"/>
<path d="M499.111 163.797L404.374 218.521L458.725 249.846L462.5 256.262L475.332 250.979C505.15 239.279 532.326 222.673 556.482 201.915L556.859 201.538L553.085 195.122L499.111 163.797Z" fill="#E9E5E2"/>
<path d="M419.094 209.085L473.068 238.146V238.523L471.181 240.033L418.717 210.217L419.094 209.085Z" fill="#C0C8D4"/>
<path d="M420.981 208.33L473.068 238.145L471.558 238.9L419.094 209.084L420.981 208.33Z" fill="#F7F6F5"/>
<path d="M431.928 201.914L485.524 230.975V231.352L483.637 232.862L431.173 203.046L431.928 201.914Z" fill="#C0C8D4"/>
<path d="M433.437 201.159L485.524 230.974L484.014 231.729L431.927 201.914L433.437 201.159Z" fill="#F7F6F5"/>
<path d="M444.383 194.745L497.979 223.805L498.356 224.183L496.092 225.692L443.628 195.877L444.383 194.745Z" fill="#C0C8D4"/>
<path d="M445.892 193.989L497.979 223.805L496.469 224.559L444.383 194.744L445.892 193.989Z" fill="#F7F6F5"/>
<path d="M456.838 187.573L510.434 216.634L510.812 217.011L508.547 218.521L456.461 188.705L456.838 187.573Z" fill="#C0C8D4"/>
<path d="M458.348 186.818L510.434 216.633L508.925 217.388L456.838 187.573L458.348 186.818Z" fill="#F7F6F5"/>
<path d="M469.294 180.404L522.89 209.464L523.267 209.842L521.003 211.351L468.916 181.536L469.294 180.404Z" fill="#C0C8D4"/>
<path d="M470.803 179.648L522.89 209.464L521.38 210.219L469.294 180.403L470.803 179.648Z" fill="#F7F6F5"/>
<path d="M481.749 173.232L535.345 202.293L535.723 202.67L533.458 204.18L481.372 174.365L481.749 173.232Z" fill="#C0C8D4"/>
<path d="M483.259 172.477L535.345 202.292L533.836 203.047L481.749 173.232L483.259 172.477Z" fill="#F7F6F5"/>
<path d="M499.111 163.796L550.065 195.121C550.065 195.121 532.326 212.105 510.812 223.427C489.298 234.749 459.858 247.204 459.858 247.204L404.751 218.143L458.725 249.846L464.009 251.355L517.606 226.446L551.952 200.405L553.462 195.499L499.111 163.796Z" fill="#F7F6F5"/>
<path d="M553.462 195.12L553.085 195.498C528.929 216.255 501.376 232.861 471.936 244.561L458.725 249.845L462.5 256.261L475.333 250.977C505.15 239.277 532.326 222.671 556.482 201.913L556.859 201.536L553.462 195.12Z" fill="#F7F6F5"/>
<path d="M557.237 201.538L556.859 201.915C532.703 222.673 505.15 239.279 475.71 250.978L462.5 256.262L475.333 319.667L477.22 323.064L536.855 298.909L584.79 264.942L582.148 262.301L557.237 201.538Z" fill="#C2CAD6"/>
<path d="M475.333 319.666L535.723 290.983L582.525 261.922L585.167 264.564L561.388 281.548C545.536 292.87 528.174 302.305 509.679 309.853L477.22 323.063L475.333 319.666Z" fill="#322920"/>
<path d="M557.237 201.538L582.525 261.923L562.144 275.887C545.536 287.21 527.797 296.645 509.302 304.948L475.333 319.667L462.5 256.262L475.333 250.978C505.15 239.279 532.326 222.673 556.482 201.915L557.237 201.538Z" fill="#322920"/>
<path d="M582.902 261.546L557.236 201.538L556.104 203.047L582.147 262.301L584.412 264.942L585.167 264.565L582.902 261.546Z" fill="#E0E4EA"/>
<path d="M580.638 261.169L561.011 274.378C544.404 285.7 526.664 295.135 508.547 303.061L476.087 317.025L473.823 305.326L466.274 267.207L464.387 257.017L476.087 252.488C496.846 244.185 516.473 233.618 534.968 220.786C541.007 216.634 547.046 212.105 552.707 207.199C553.84 206.067 555.349 204.935 556.482 204.18L561.388 215.879L580.638 261.169Z" fill="#4D5258"/>
<path d="M569.315 252.489L561.011 247.583L553.462 238.902L544.404 229.467L534.213 220.409C540.252 216.258 546.291 211.729 551.953 206.822L555.35 210.219L567.805 238.902L568.56 243.054L569.315 252.489Z" fill="#9FB8B9"/>
<path d="M486.656 341.935V346.841L480.239 349.483V344.954L486.656 341.935Z" fill="#FFB639"/>
<path d="M587.432 283.057L587.054 288.718L580.638 292.492V287.586L587.432 283.057Z" fill="#FFB639"/>
<path d="M492.317 350.237V354.766C492.317 355.899 491.562 356.653 490.808 357.031L485.901 359.295C484.769 359.673 483.259 358.918 483.259 357.786V353.257C483.259 352.124 484.014 351.37 484.769 350.992L489.675 348.728H490.053C491.185 347.973 492.695 348.728 492.317 350.237Z" fill="#8595AD"/>
<path d="M503.263 345.33V349.859C503.263 350.991 502.508 351.746 501.753 352.123L496.469 354.765C495.337 355.52 493.827 354.388 493.827 353.255V348.726C493.827 347.594 494.582 346.839 495.337 346.462L500.243 344.197H500.621C501.753 343.065 503.263 343.82 503.263 345.33Z" fill="#8595AD"/>
<path d="M574.977 303.438V307.59C574.977 308.344 574.599 309.477 573.844 309.854L569.315 312.873C568.183 313.628 566.295 312.873 566.295 311.364V307.212C566.295 306.457 566.673 305.325 567.428 304.948L571.957 301.928C573.089 301.174 574.977 302.306 574.977 303.438Z" fill="#8595AD"/>
<path d="M584.412 297.023V301.175C584.412 301.93 584.035 303.062 583.28 303.439L578.751 306.459C577.618 307.213 575.731 306.459 575.731 304.949V300.797C575.731 300.043 576.109 298.91 576.864 298.533L581.393 295.514C582.903 294.381 584.412 295.514 584.412 297.023Z" fill="#8595AD"/>
<path d="M489.675 348.727V353.256C489.675 354.388 488.92 355.143 488.166 355.52L483.259 357.785V353.256C483.259 352.124 484.014 351.369 484.769 350.992L489.675 348.727Z" fill="#E0E4EA"/>
<path d="M500.243 343.822V348.351C500.243 349.483 499.488 350.238 498.734 350.615L493.827 352.88V348.351C493.827 347.218 494.582 346.464 495.337 346.086L500.243 343.822Z" fill="#E0E4EA"/>
<path d="M571.957 301.926V306.078C571.957 306.833 571.58 307.965 570.825 308.342L566.295 311.362V307.21C566.295 306.455 566.673 305.323 567.428 304.946L571.957 301.926Z" fill="#E0E4EA"/>
<path d="M581.77 295.134V299.286C581.77 300.041 581.393 301.173 580.638 301.55L576.109 304.57V300.418C576.109 299.663 576.486 298.531 577.241 298.154L581.77 295.134Z" fill="#E0E4EA"/>
<path d="M479.107 374.012L528.551 347.971C541.384 341.178 553.84 334.007 565.918 325.704L589.696 309.475V318.533L544.026 349.103L481.372 382.315L479.107 374.012Z" fill="#AAB5C6"/>
<path d="M542.139 342.689C557.614 333.631 589.696 311.742 589.696 311.742V309.854L565.918 326.083C553.84 334.009 541.384 341.557 528.551 348.35L479.107 374.392L480.994 382.695L480.239 375.146C480.617 375.146 526.664 351.37 542.139 342.689Z" fill="#F7F6F5"/>
<path d="M481.371 382.316L478.729 384.58L529.306 358.539C538.742 353.632 548.178 347.971 557.236 341.933L587.432 321.175L590.074 318.911L544.404 349.481L481.371 382.316Z" fill="#607594"/>
<path d="M586.677 301.172L585.167 301.927V292.492L587.054 290.605L586.677 301.172Z" fill="#AAB5C6"/>
<path d="M505.15 340.048V345.709L525.532 335.897C535.722 330.99 545.536 324.952 554.594 318.159L564.785 310.61L565.163 304.949L554.972 312.497C545.158 320.046 534.213 326.462 523.267 331.368L505.15 340.048Z" fill="#655E57"/>
<path d="M530.061 328.725V332.121L541.384 325.705V322.309L530.061 328.725Z" fill="#DCDB48"/>
<path d="M504.773 348.35V350.237L525.154 340.424C535.345 335.518 545.159 329.479 554.217 322.686L564.408 315.138L564.785 312.873L554.595 320.421C544.781 327.969 533.835 334.385 522.89 339.292L504.773 348.35Z" fill="#A5A9B2"/>
<path d="M561.388 215.878L546.291 227.578C529.684 238.9 511.944 248.335 493.827 256.261L466.274 267.583L464.387 257.393L476.087 252.864C496.846 244.561 516.473 233.994 534.968 221.162C541.007 217.01 547.046 212.481 552.707 207.575C553.84 206.443 555.349 205.31 556.482 204.556L561.388 215.878Z" fill="#322920"/>
<path d="M480.239 343.821V344.576V349.482L479.484 366.088L476.465 364.201C475.332 363.447 474.577 361.937 474.577 360.427L475.71 343.066C475.71 342.312 476.465 341.934 477.219 342.312L480.239 343.821Z" fill="#322920"/>
<path d="M480.239 344.955V349.861L477.597 347.974C476.842 347.596 476.465 346.842 476.465 345.709V344.2C476.465 343.445 477.597 342.69 478.352 343.445L480.239 344.955Z" fill="#FF4800"/>
<path d="M480.994 351.368L479.862 351.745L477.975 350.99C477.597 350.613 476.842 350.99 476.842 351.745C476.465 354.764 476.087 361.18 476.465 361.935C476.842 362.69 479.484 364.2 479.862 364.2C479.862 364.2 482.127 363.445 482.127 362.69C482.127 361.935 482.504 355.897 482.504 352.877C482.127 351.745 481.372 351.368 480.994 351.368Z" fill="#AAB5C6"/>
<path d="M580.638 261.168L561.011 274.377C544.404 285.7 526.664 295.135 508.547 303.061L476.088 317.025L473.823 305.325L531.949 277.774L564.786 256.262L580.638 261.168Z" fill="#737F82"/>
<path d="M525.154 243.431L526.664 244.941L531.193 242.676H533.081L534.59 245.318L534.213 247.205L528.551 251.357L518.361 256.263L516.851 255.886L515.719 252.489L517.228 250.224L523.267 246.828L521.38 245.318L523.267 243.431H525.154Z" fill="#737F82"/>
</svg>
