<svg width="116" height="276" viewBox="0 0 116 276" fill="none" xmlns="http://www.w3.org/2000/svg">
<path d="M37.6367 156.655L54.2082 147.106V160.026L45.782 172.102L37.6367 176.877V156.655Z" fill="white"/>
<path d="M59.8259 143.735L69.9373 137.837L59.8259 152.16V143.735Z" fill="white"/>
<path d="M28.0869 62.8492V192.323L30.053 193.446L87.0702 158.059L89.0363 29.7084L87.0702 28.585L28.0869 62.8492ZM32.3 65.3769L82.8571 36.168V155.812L32.3 185.021V65.3769Z" fill="#7B7F8B"/>
<path d="M32.3005 65.3769L82.8576 35.8872V155.531L32.3005 184.74V65.3769Z" fill="#F4F5FA"/>
<path d="M36.7939 68.1857L78.644 44.0322V95.9903L36.7939 120.144V68.1857Z" fill="#62A6BD"/>
<path d="M53.0846 60.8833V81.1048L41.007 88.407L36.7939 90.6539V70.4323L53.0846 60.8833Z" fill="#71B9D1"/>
<path d="M75.2734 48.2446V68.4661L58.7019 78.0152V57.7937L65.162 54.1426L75.2734 48.2446Z" fill="#71B9D1"/>
<path d="M41.0071 88.4076L53.0846 70.9946V81.1054L41.0071 88.4076Z" fill="#89C8DE"/>
<path d="M75.2734 48.2446V68.4661L58.7019 78.0152V63.1299L65.162 54.1426L75.2734 48.2446Z" fill="#89C8DE"/>
<path d="M53.0846 88.4067V108.628L48.5906 111.437L36.7939 118.177V97.9558L53.0846 88.4067Z" fill="#71B9D1"/>
<path d="M75.2734 75.4878V95.7093L68.5324 99.6413L58.7019 105.258V85.0368L72.7455 77.1729L75.2734 75.4878Z" fill="#71B9D1"/>
<path d="M36.7939 97.9558L53.0846 88.4067V104.696L48.5906 111.437L36.7939 118.177V97.9558Z" fill="#89C8DE"/>
<path d="M58.7019 85.0363L72.7455 77.1724L58.7019 96.8322V85.0363Z" fill="#89C8DE"/>
<path d="M75.2737 95.7093L68.5327 99.6412L75.2737 90.373V95.7093Z" fill="#89C8DE"/>
<path d="M56.4553 56.6709V108.629L54.77 107.786V57.7943L56.4553 56.6709Z" fill="#7B7F8B"/>
<path d="M37.6367 127.728L79.4867 103.574V154.409L37.6367 178.562V127.728Z" fill="#62A6BD"/>
<path d="M54.2082 147.106V167.328L45.782 172.102L37.6367 176.877V156.655L54.2082 147.106Z" fill="#89C8DE"/>
<path d="M76.3974 134.187V154.408L59.8259 163.957V143.736L69.9373 137.838L76.3974 134.187Z" fill="#89C8DE"/>
<path d="M54.2082 120.425V140.647L37.6367 150.196V129.974L53.9273 120.425H54.2082Z" fill="#71B9D1"/>
<path d="M53.9273 120.425H54.2082V140.647L37.6367 150.196V143.455L53.9273 120.425Z" fill="#89C8DE"/>
<path d="M76.3974 107.505V127.727L59.8259 137.276V117.054L76.3974 107.505Z" fill="#FFFFFC"/>
<path d="M76.3974 107.505V127.727L59.8259 137.276V117.054L76.3974 107.505Z" fill="#89C8DE"/>
<path d="M57.2978 116.492V167.326L55.6125 166.484V117.334L57.2978 116.492Z" fill="#7B7F8B"/>
<path d="M79.4867 127.726L37.6367 151.879V149.913L77.8015 126.603L79.4867 127.726Z" fill="#7D7160"/>
<path d="M78.644 68.4661L36.7939 92.6196V90.6536L76.9587 67.6235L78.644 68.4661Z" fill="#7B7F8B"/>
<path d="M79.4867 103.574V154.409L37.6367 178.562V176.877L77.8015 153.566V104.417L79.4867 103.574Z" fill="#7B7F8B"/>
<path d="M78.644 44.0322V95.9903L36.7939 120.144V118.178L76.9587 94.8669V44.8748L78.644 44.0322Z" fill="#7B7F8B"/>
<path d="M57.2981 116.493L59.8259 114.808V165.924L57.2981 167.328V116.493Z" fill="#F4F5FA"/>
<path d="M79.4867 127.727V130.535L37.6367 154.689V151.88L79.4867 127.727Z" fill="#F4F5FA"/>
<path d="M56.4551 56.6714L58.7021 55.2671V107.225L56.4551 108.629V56.6714Z" fill="#F4F5FA"/>
<path d="M78.644 68.4668V71.2753L36.7939 95.4288V92.6203L78.644 68.4668Z" fill="#F4F5FA"/>
<path d="M30.053 63.9722V193.446L89.0362 159.463V29.708L30.053 63.9722ZM34.2661 66.4999L84.8231 37.2911V156.935L34.2661 185.863V66.4999Z" fill="#F4F5FA"/>
<path d="M104.203 0.5L-0.000244141 60.8837V270.401L9.26855 275.737L111.225 214.792L113.472 5.83623L104.203 0.5ZM89.0364 159.183L30.0531 193.447V65.9391L89.3172 31.6748V159.183H89.0364Z" fill="#665D47"/>
<path d="M9.26855 65.9387V275.456L-0.000244141 270.401V60.8833L9.26855 65.9387Z" fill="#474536"/>
<path d="M9.26855 65.9388V275.456L113.472 215.072V5.83594L9.26855 65.9388ZM30.0531 65.9388L89.3173 31.6745V158.902L30.0531 193.447V65.9388Z" fill="#827C5A"/>
<path d="M97.4626 26.8999V163.957L89.0364 159.182V31.9553L97.4626 26.8999Z" fill="#474536"/>
<path d="M30.053 197.939L53.3654 188.109L36.513 201.871V206.927L30.053 203.275V197.939Z" fill="#9497A1"/>
<path d="M36.5134 201.873L96.3393 163.396L99.7098 165.361V170.698L36.5134 206.928V201.873Z" fill="#C5C7CF"/>
<path d="M89.0361 159.183L99.7093 165.361L36.5129 201.872L29.772 197.941L30.0528 193.447L89.0361 159.183Z" fill="#DBDCE0"/>
<path d="M97.4624 26.8999L89.3171 38.4149L30.053 72.3983V65.9387L97.4624 26.8999Z" fill="#89836E"/>
<path d="M108.416 269.277C98.305 275.175 82.2953 274.894 72.1839 269.277C62.0725 263.379 62.0725 254.111 72.1839 248.213C82.2953 242.315 98.305 242.596 108.416 248.213C118.528 254.392 118.528 263.66 108.416 269.277Z" fill="#ACB5B4"/>
<path d="M56.4551 90.3726L48.3098 95.9897C48.3098 95.9897 45.7819 98.5174 44.9393 98.7983C44.3776 99.0791 41.5688 110.875 41.5688 111.437C41.5688 111.998 42.9732 133.905 42.9732 133.905C42.9732 133.905 56.4551 146.824 57.2977 147.948C58.4212 149.071 62.3534 157.216 62.3534 157.216L58.7021 176.876L62.9152 186.706L61.2299 192.884L56.1742 195.693C56.1742 195.693 55.6125 215.353 56.4551 217.881C57.2977 220.408 58.1403 247.37 58.1403 247.37L78.3632 235.574L77.5205 197.097L75.8353 174.629C75.8353 174.629 88.1937 142.612 88.1937 141.769C88.1937 141.207 88.1937 121.267 88.1937 121.267L77.2397 98.7983L75.2736 90.3726L79.4867 88.4067L80.0484 84.1938L69.937 88.6875L67.1283 90.3726L68.8135 95.7089L71.9031 101.326L76.9588 109.752C76.9588 109.752 77.2397 124.075 77.5205 124.075C77.5205 124.075 72.184 118.177 72.184 117.616C71.9031 117.054 63.7578 114.807 63.7578 114.807L59.2638 123.233L54.2081 120.705L51.3994 103.573L68.5326 94.3046L67.1283 90.3726H56.4551Z" fill="#89836E"/>
<path d="M96.9015 136.153L100.834 136.995C100.834 136.995 100.272 134.187 98.8676 132.221C97.4632 129.974 96.3397 126.884 96.3397 126.884C96.3397 126.884 92.6884 125.761 91.284 127.165C90.1606 128.289 89.5988 133.344 89.8797 134.467C90.1606 135.591 95.2163 138.68 95.2163 138.68C95.4971 138.119 96.9015 136.153 96.9015 136.153Z" fill="#21367C"/>
<path d="M78.6444 80.5435L44.3779 99.0798V103.574L46.344 104.416L80.6105 85.8797V81.1052L78.6444 80.5435Z" fill="#FF971A"/>
<path d="M67.6899 90.9346L64.6003 92.6197V94.024L67.6899 92.3388V90.9346Z" fill="#1C130B"/>
<path d="M67.4093 91.4961L65.1624 92.6195V93.7429L67.4093 92.3387V91.4961Z" fill="#54AE0B"/>
<path d="M80.6105 81.9477L47.1867 100.203L46.344 104.416L44.3779 103.574V99.0798L78.6444 80.5435L80.6105 81.1052V81.9477Z" fill="#1C130B"/>
<path d="M89.5984 244.281C89.5984 244.281 89.0367 244.562 89.0367 245.404C89.0367 245.966 88.7558 246.528 89.0367 246.808C89.3176 247.089 90.7219 249.617 91.8454 249.898C92.9689 250.179 95.2159 251.021 95.2159 251.021L96.9011 252.706L97.182 254.111C97.182 254.111 98.3055 255.796 99.9907 256.077C101.676 256.638 104.485 255.515 104.766 254.953C105.046 254.392 105.046 252.426 104.766 251.583C104.485 250.46 91.2837 246.247 89.5984 244.281Z" fill="#3E362F"/>
<path d="M104.485 248.493C104.485 248.493 105.046 251.583 104.765 252.425C104.204 252.987 103.08 254.391 101.114 254.391C99.1479 254.391 98.3053 253.549 96.901 252.425C95.4966 251.302 96.3392 250.179 93.5305 249.336C90.7218 248.493 89.3174 245.966 89.5983 245.123C89.5983 244.281 90.4409 244 90.7218 243.719C91.2835 243.438 94.3731 243.157 94.654 243.157C94.9348 243.157 103.08 246.527 103.08 246.527L104.485 248.493Z" fill="#524B45"/>
<path d="M103.361 247.089C103.361 247.089 102.799 249.336 100.271 249.055C99.1476 249.055 98.0242 248.493 97.1815 247.651C95.7772 246.527 94.6537 245.123 94.6537 244.281C94.6537 242.876 92.9684 230.8 91.5641 226.587C90.1597 222.374 87.0701 211.702 85.9466 207.208C85.3849 204.118 84.2614 198.782 85.104 194.569C85.3849 192.884 86.2275 191.199 87.351 190.076C91.2832 186.425 97.4624 183.897 97.4624 183.897C97.4624 183.897 98.8668 185.301 99.4285 190.637C99.9903 195.974 98.8668 199.344 98.8668 200.467C98.8668 201.591 99.9903 216.476 100.833 218.442C101.395 220.408 102.518 223.217 102.518 230.519C102.518 237.259 103.361 247.089 103.361 247.089Z" fill="#2B4396"/>
<path d="M96.901 247.652C95.4967 246.529 94.3732 245.125 94.3732 244.282C94.3732 242.878 92.6879 230.801 91.2836 226.588C89.8792 222.375 86.7896 211.703 85.6661 207.209C85.1044 204.12 83.9809 198.784 84.8235 194.571C87.3514 196.256 88.194 198.222 88.194 198.222C88.194 198.222 87.9131 209.737 89.3175 214.231C90.7218 218.724 92.4071 222.375 93.5305 226.027C94.9349 229.958 95.7775 241.473 96.0584 244.001C96.6201 245.405 96.901 246.529 96.901 247.652Z" fill="#445EB6"/>
<path d="M69.6565 257.763L69.0947 258.605V260.571C69.0947 260.571 70.2182 263.38 73.3078 263.942C76.6783 264.503 79.7679 264.503 80.3296 264.784C81.1722 265.065 82.2957 266.469 84.5427 266.75C86.7897 267.031 88.1941 266.75 88.7558 265.907C89.3176 265.065 90.1602 264.222 90.1602 263.661C90.1602 263.099 90.1602 261.976 89.3175 261.414C88.7558 260.852 80.6105 261.133 80.6105 261.133L69.6565 257.763Z" fill="#3E362F"/>
<path d="M79.7678 254.673C79.7678 254.673 75.5547 254.673 75.2738 254.673C74.9929 254.673 70.499 255.235 69.9372 255.796C69.3755 256.358 68.252 257.762 68.8137 259.167C69.6564 260.571 71.0607 262.256 73.3077 262.818C75.5547 263.379 79.4869 263.379 79.7678 263.66C80.0486 263.66 84.5426 265.626 86.5087 264.784C88.4748 264.222 89.0366 262.256 89.0366 261.975C89.0366 261.694 87.6322 256.077 87.6322 256.077L79.7678 254.673Z" fill="#524B45"/>
<path d="M91.5642 194.851C91.0025 199.063 86.7894 201.591 86.7894 201.591C86.7894 201.591 86.5085 211.14 86.5085 215.072C86.2276 218.723 87.9129 229.396 88.4746 234.732C89.3172 240.068 88.4746 256.919 88.4746 256.919C88.4746 256.919 85.385 258.885 83.4189 258.885C81.7337 258.605 80.3293 257.2 79.4867 256.639C79.2058 256.358 79.2058 256.358 79.2058 256.358C79.2058 256.358 78.0823 251.864 76.9588 245.404C75.8354 238.945 75.8354 233.608 75.2736 230.519C74.7119 227.43 68.5327 207.489 67.6901 202.434C67.4092 201.31 67.4092 199.625 67.4092 197.94C67.4092 196.255 67.4092 194.289 67.6901 192.604C67.6901 191.199 67.9709 190.076 67.9709 189.233C67.9709 188.11 68.2518 187.548 68.2518 187.548L69.6562 187.268L70.4988 186.987L88.7555 183.055C88.7555 183.055 91.0025 187.829 91.5642 192.042C91.5642 192.323 91.5642 192.604 91.5642 192.604C91.8451 193.165 91.8451 194.008 91.5642 194.851Z" fill="#2B4396"/>
<path d="M101.232 140.334C101.232 142.581 101.232 145.39 100.39 147.075C99.828 148.198 99.2662 149.322 98.7045 150.445C98.1427 152.13 97.3001 154.096 96.7384 158.028C95.8957 162.241 96.1766 165.05 96.4575 167.016C96.7384 168.42 96.7384 169.262 97.0192 169.824C97.3001 171.509 97.3001 177.126 97.3001 177.407C97.3001 177.407 97.8618 179.654 98.4236 181.901C98.7045 183.305 98.9853 184.99 98.9853 185.833C98.9853 186.394 98.7045 186.956 98.4236 187.518C97.3001 188.922 95.334 190.607 92.2444 191.731C89.9974 192.573 87.1887 193.416 84.0991 193.416C78.4816 193.697 73.7068 192.012 70.8981 190.326C70.8981 190.326 70.8981 190.326 70.6172 190.326C69.7746 189.765 69.2128 189.484 68.932 188.922C68.3702 188.36 68.0894 188.08 68.0894 187.799C68.0894 186.675 68.932 183.024 68.6511 174.879C68.6511 173.475 68.6511 172.352 68.6511 171.228C68.3702 167.858 68.3702 164.488 68.3702 161.398C68.3702 159.432 68.3702 157.466 68.3702 155.781C68.3702 155.501 68.3702 155.22 68.3702 154.658C68.932 149.883 69.2128 147.637 69.2128 147.637L72.3024 141.739L74.8303 137.526L77.9199 136.122C77.9199 136.122 79.0434 136.122 80.4477 135.56C81.2904 135.279 82.4139 134.998 83.2565 134.717C85.2226 133.875 88.8739 131.347 93.087 131.909C97.3001 132.47 100.671 135.279 101.513 136.402C101.232 137.526 101.232 138.93 101.232 140.334Z" fill="#172B6F"/>
<path fill-rule="evenodd" clip-rule="evenodd" d="M95.8766 153.74L92.182 153.967L87.3681 142.032L91.0628 141.805L95.8766 153.74ZM91.4698 154.011L87.775 154.238L83.9714 144.686L87.6661 144.46L91.4698 154.011ZM86.9896 154.303L80.7131 154.688L83.205 144.818L86.9896 154.303ZM83.3318 146.883C83.6229 147.586 84.2329 149.215 84.7893 150.701L84.796 150.718C85.2731 151.992 85.7097 153.158 85.8704 153.539L81.7454 153.793C81.8369 153.449 82.0446 152.501 82.2862 151.398L82.2873 151.393C82.6528 149.725 83.0956 147.705 83.3318 146.883Z" fill="#D0D8F3"/>
<path fill-rule="evenodd" clip-rule="evenodd" d="M96.2468 155.572L96.0796 155.581L96.1038 156.023L96.0418 156.026L96.0176 155.585L95.8507 155.594L95.8473 155.533L96.2481 155.511L96.2515 155.572L96.2468 155.572ZM80.4624 158.543C80.5127 159.462 81.0647 160.017 81.9331 159.97C82.2337 159.954 82.5549 159.875 82.7885 159.684L82.7932 159.419C82.7207 159.494 82.4014 159.781 81.9767 159.805C81.3564 159.839 80.8942 159.349 80.8501 158.542C80.8112 157.831 81.135 157.187 81.8602 157.148C82.2658 157.125 82.5724 157.394 82.6339 157.467L82.6622 157.46C82.6752 157.347 82.6932 157.24 82.7256 157.131C82.4517 157.024 82.152 156.969 81.8657 156.984C81.0354 157.03 80.4108 157.598 80.4624 158.543ZM85.2592 159.732L85.2584 159.733L85.2574 159.733C85.2247 159.737 85.1926 159.741 85.1607 159.743C85.0271 159.399 84.862 159.005 84.6837 158.633L83.6817 158.688C83.6664 158.737 83.651 158.786 83.6357 158.834C83.5323 159.163 83.429 159.491 83.3523 159.842L83.3202 159.84C83.2778 159.839 83.2422 159.837 83.2038 159.839C83.1767 159.841 83.1523 159.845 83.1291 159.849L83.1283 159.849C83.107 159.853 83.0864 159.856 83.066 159.857L84.137 156.86L84.2276 156.855L85.5711 159.72C85.5347 159.722 85.5006 159.721 85.4671 159.721C85.4348 159.72 85.403 159.719 85.3701 159.721C85.331 159.723 85.2945 159.728 85.2592 159.732ZM87.0651 158.506L87.0631 158.503L87.0626 158.503L87.0621 158.502L87.0616 158.502L87.0611 158.501L87.0607 158.501L87.0602 158.5L87.0597 158.5L87.0592 158.499L87.0587 158.499L87.0582 158.498L87.0577 158.498L87.0572 158.497C86.9214 158.355 86.7858 158.212 86.6533 158.067L86.9772 157.688L87.8195 156.725C87.7927 156.727 87.766 156.731 87.7399 156.735L87.739 156.735L87.7383 156.735C87.7142 156.739 87.69 156.742 87.6674 156.744C87.6143 156.747 87.5691 156.745 87.5207 156.743L87.5094 156.742L86.599 157.861C86.5833 157.878 86.5658 157.898 86.5471 157.919C86.5013 157.971 86.4487 158.03 86.4002 158.076C86.3592 158.114 86.3075 158.132 86.3013 158.107L86.2306 156.812C86.1992 156.814 86.1704 156.818 86.1422 156.822L86.1415 156.822C86.1142 156.826 86.0874 156.83 86.0593 156.832C86.0021 156.835 85.9446 156.833 85.887 156.831L86.0438 159.7C86.0695 159.698 86.0973 159.694 86.1257 159.69C86.1553 159.686 86.1859 159.682 86.215 159.68C86.2634 159.677 86.3162 159.679 86.373 159.68L86.3873 159.681L86.3074 158.218C86.3063 158.198 86.3549 158.211 86.3748 158.225L87.2922 159.249C87.3991 159.366 87.4919 159.488 87.585 159.615C87.6202 159.613 87.6553 159.609 87.691 159.605C87.7278 159.6 87.7652 159.595 87.804 159.593C87.8605 159.59 87.9172 159.591 87.9827 159.591L88.0192 159.592L88.0181 159.571L87.6754 159.167C87.4795 158.94 87.2722 158.723 87.0651 158.506ZM89.5773 159.552C88.7088 159.6 88.1568 159.044 88.1066 158.125C88.055 157.181 88.6796 156.612 89.5099 156.567C89.7962 156.551 90.0959 156.606 90.3698 156.713C90.3374 156.822 90.3194 156.93 90.3064 157.042L90.278 157.049C90.2166 156.976 89.91 156.708 89.5044 156.73C88.7791 156.769 88.4554 157.414 88.4942 158.124C88.5383 158.932 89.0006 159.421 89.6209 159.387C90.0456 159.364 90.3649 159.076 90.4373 159.001L90.4327 159.266C90.199 159.457 89.8779 159.536 89.5773 159.552ZM90.8888 157.016C90.9419 156.936 91.2174 156.636 91.623 156.614C92.2862 156.578 92.6772 157.076 92.7645 157.708L91.6717 157.767C91.615 157.771 91.5581 157.769 91.5005 157.767L91.4997 157.767C91.4413 157.765 91.3822 157.763 91.3222 157.766C91.323 157.781 91.3262 157.798 91.3294 157.815C91.333 157.834 91.3366 157.854 91.3376 157.872C91.3384 157.886 91.3373 157.902 91.3361 157.919C91.3347 157.941 91.3331 157.964 91.3344 157.99C91.3911 157.986 91.4475 157.978 91.5045 157.97L91.5056 157.97L91.5065 157.97L91.5076 157.97C91.5648 157.962 91.6225 157.953 91.6817 157.95L92.7792 157.89C92.823 158.693 92.4171 159.234 91.7968 159.268C91.3721 159.291 91.0281 159.04 90.9431 158.973L90.9767 159.236C91.2345 159.401 91.5575 159.444 91.8581 159.428C92.7266 159.38 93.2148 158.768 93.1646 157.849C93.1133 156.909 92.4301 156.407 91.5998 156.452C91.3088 156.468 91.0168 156.556 90.761 156.692C90.805 156.796 90.835 156.907 90.8599 157.012L90.8888 157.016ZM94.9358 159.259C94.0675 159.307 93.5153 158.751 93.4651 157.832C93.4135 156.888 94.0382 156.319 94.8685 156.274C95.1547 156.258 95.4544 156.313 95.7284 156.42C95.696 156.529 95.6778 156.637 95.665 156.75L95.6365 156.756C95.5753 156.683 95.2686 156.415 94.8629 156.437C94.1377 156.477 93.8139 157.121 93.8527 157.832C93.8969 158.639 94.3591 159.128 94.9795 159.094C95.4041 159.071 95.7234 158.784 95.7959 158.708L95.7912 158.973C95.5528 159.165 95.2318 159.243 94.9358 159.259ZM84.617 158.464L83.7486 158.511L84.1195 157.416L84.617 158.464ZM96.7241 155.989L96.7861 155.986L96.7586 155.483L96.6728 155.488L96.5688 155.773L96.4294 155.501L96.3435 155.506L96.371 156.008L96.4283 156.005L96.4047 155.574L96.5496 155.861L96.5878 155.859L96.7005 155.557L96.7241 155.989Z" fill="#D0D8F3"/>
<path d="M75.5544 165.362C75.5544 165.362 83.138 174.068 84.5424 174.911C85.9467 175.753 82.8571 172.102 82.8571 172.102L75.5544 165.362Z" fill="#243981"/>
<path d="M72.4651 165.922C72.4651 165.922 76.6782 175.752 78.3634 177.999C80.0487 179.965 85.3852 186.144 85.3852 186.144L78.3634 175.471L72.4651 165.922Z" fill="#243981"/>
<path d="M96.3395 157.778C94.9351 164.799 96.3395 167.889 96.6204 169.855C96.9012 171.54 96.9012 177.157 96.9012 177.438C96.9012 177.438 97.463 179.684 98.0247 181.931V187.548C97.463 184.74 96.6204 178.28 96.6204 178.28L95.4969 181.65L92.1264 186.706C92.1264 186.425 94.6543 176.876 94.9351 175.752C94.9351 174.629 94.6543 169.574 94.6543 169.574L92.969 170.978C92.969 170.978 88.7559 173.506 89.3177 172.944C90.1603 172.382 92.969 168.731 92.969 168.731L94.3734 163.114L91.8455 164.518L94.3734 161.991L96.0586 154.408L98.0247 150.476C97.7439 151.88 96.9012 154.127 96.3395 157.778Z" fill="#243981"/>
<path d="M98.3052 182.494C98.3052 183.336 98.5861 186.706 98.5861 186.706C98.5861 186.706 98.5861 186.706 97.4626 188.391C96.9009 189.234 94.6539 190.919 91.5643 192.323C89.0364 193.447 85.666 194.289 82.5764 194.57C77.5207 194.57 72.1841 193.447 69.6562 192.604C68.5327 192.323 67.971 192.043 67.971 192.043C67.971 192.043 67.6901 191.481 67.4093 189.234C67.1284 186.987 67.4093 183.617 67.4093 183.336C67.4093 183.055 67.6901 170.979 67.6901 170.979C67.6901 170.979 67.6901 170.979 67.6901 171.259C67.971 172.383 69.9371 177.157 70.4989 176.876C71.3415 176.596 76.9589 175.753 76.9589 175.753L82.2955 170.136C82.2955 170.136 81.4529 151.88 82.2955 145.702C82.8572 139.523 77.2398 136.433 77.2398 136.433L78.925 135.591L79.4868 135.872L81.7338 136.995C81.7338 136.995 84.5425 138.961 84.8234 141.208C85.1042 143.455 84.8234 144.016 84.2616 149.914C83.6999 155.812 85.1042 165.361 85.1042 165.361L90.4408 163.676C90.4408 163.676 93.2495 149.914 94.0921 147.387C94.9348 144.578 96.62 138.961 96.3391 137.276C96.0583 135.591 91.2834 134.187 91.2834 134.187V132.501C91.2834 132.501 97.4626 134.748 98.3052 136.153C99.1479 137.557 98.5861 140.365 96.62 146.263C94.373 152.161 92.9687 163.676 92.9687 163.676L94.9348 164.8C94.9348 164.8 95.2156 165.642 95.7774 166.766C96.0583 167.608 96.3391 168.732 96.62 169.293C96.9009 170.417 96.9009 176.315 96.9009 176.315C96.9009 176.315 98.3052 181.651 98.3052 182.494Z" fill="#2B4396"/>
<path d="M76.3972 230.519C75.5546 218.161 70.7797 210.859 69.6562 202.153C69.3754 199.344 69.0945 196.536 69.0945 193.727C69.0945 193.446 69.0945 193.165 69.3754 192.885C69.6562 192.042 69.6562 191.199 69.6562 190.357C69.9371 189.233 69.9371 188.11 69.9371 186.987C69.9371 186.425 69.9371 185.582 70.218 185.021C70.218 182.493 70.7797 179.684 70.218 177.157C69.6562 177.438 67.6901 172.382 67.4093 171.54V171.259V183.336C67.4093 183.616 67.1284 186.987 67.4093 189.233C67.6901 191.48 67.971 192.042 67.971 192.042C67.6901 195.131 67.6901 199.063 67.971 201.591C68.5327 206.646 74.7119 226.306 75.5546 229.676C76.1163 232.766 76.1163 238.102 77.2398 244.562C78.3633 251.021 79.4868 255.515 79.4868 255.515C79.4868 255.515 79.4868 255.515 79.7677 255.796C78.6442 249.617 76.9589 238.664 76.3972 230.519Z" fill="#445EB6"/>
<path d="M70.218 139.241C70.218 139.241 67.1284 143.173 64.6006 144.016C64.0388 144.297 63.4771 144.297 63.1962 144.016C60.6684 142.892 56.1744 138.961 53.0848 135.871C49.9952 132.782 45.5012 127.445 44.9395 126.884C44.3778 126.322 44.6586 120.705 45.2204 115.93C45.5012 111.156 47.4674 99.9218 47.7482 99.6409C47.7482 99.3601 48.0291 96.5515 48.31 95.9898C48.31 95.709 48.5908 95.4281 49.1526 94.8664C49.4335 94.3047 49.9952 94.0238 50.557 93.4621C51.3996 92.6196 54.2083 91.777 54.2083 91.4961C54.4892 91.2153 56.4553 89.811 56.4553 89.811V88.9684C56.4553 88.9684 57.017 88.4067 57.2979 88.4067C57.5788 88.4067 58.1405 88.6876 58.4214 88.9684L58.7023 89.2493C58.7023 89.2493 58.7023 88.9684 58.9831 88.6876C59.264 88.4067 60.1066 88.6876 60.3875 88.9684C60.6684 89.2493 60.3875 90.9344 60.9492 90.6536C61.2301 90.3727 62.0727 90.9344 62.0727 90.9344C62.3536 91.2153 62.0727 92.3387 62.0727 92.3387C62.0727 92.3387 62.0727 92.3387 62.3536 92.6196C62.6345 92.9004 62.3536 94.3047 62.3536 94.5855C62.3536 94.8664 60.6684 97.6749 60.1066 97.9558C59.5449 98.5175 57.8596 98.7984 56.7362 98.7984C55.6127 99.0792 54.2083 99.9218 54.2083 100.203C54.2083 100.483 53.6466 107.224 53.6466 110.875C53.6466 114.526 55.6127 123.794 55.6127 124.075C55.6127 124.356 58.9831 127.165 60.1066 127.726C61.2301 128.288 65.1623 131.658 65.1623 131.658L66.8476 133.624L70.218 139.241Z" fill="#FAC5A8"/>
<path d="M85.666 110.314C85.666 110.314 82.0147 112.28 81.1721 113.123C80.3294 113.966 78.9251 115.932 78.9251 115.932C78.9251 115.932 77.5207 115.932 77.2398 116.212C76.959 116.493 77.2398 119.021 77.2398 119.021C77.2398 119.021 76.1164 121.268 75.5546 122.953C74.9929 124.357 74.9929 125.2 75.5546 126.042C76.1164 126.604 77.2398 128.289 77.8016 128.57C78.3633 128.851 80.3294 129.132 81.1721 128.57C82.2956 127.727 83.9808 126.604 84.5425 126.042C85.1043 125.481 92.9687 123.515 93.2496 120.706C93.8113 118.178 91.5644 110.876 85.666 110.314Z" fill="#FAC5A8"/>
<path d="M93.5305 136.995C93.5305 137.275 91.8452 139.241 89.8791 139.241C88.1939 139.241 83.1382 136.995 82.0147 136.995C80.8912 136.995 78.9251 136.152 78.9251 136.152C78.9251 136.152 79.4868 135.029 79.4868 133.905C79.4868 132.782 78.9251 129.973 78.9251 129.973L77.2399 128.007C76.959 127.726 76.959 127.446 76.959 127.165C77.5207 125.199 82.0147 120.705 82.0147 120.705L88.4748 121.267C88.7556 121.267 91.5644 131.097 91.2835 132.782C91.2835 134.467 92.407 134.748 92.407 134.748C92.407 134.748 93.2496 136.152 93.5305 136.995Z" fill="#FAC5A8"/>
<path d="M87.632 118.739C87.0702 119.02 86.2276 118.178 85.1041 117.335C83.6998 116.212 82.2954 114.807 82.2954 114.807C82.2954 114.807 77.8014 103.292 76.678 101.607C75.8353 99.922 73.8692 97.6752 73.8692 97.3943C73.5884 97.1135 72.7457 96.2709 72.7457 96.2709C72.7457 96.2709 71.0605 94.0241 70.7796 93.4624C70.4988 92.9007 70.7796 90.0921 70.7796 90.0921C70.7796 90.0921 69.937 87.5644 69.937 87.0027C69.937 86.441 70.7796 86.441 71.0605 86.441C71.3414 86.441 73.5884 90.9347 73.5884 90.9347L75.2736 92.9007L74.431 90.0921C74.431 90.0921 72.184 88.1261 72.184 87.5644C72.184 87.0027 72.4649 87.0027 72.7457 87.0027H73.5884C73.5884 87.0027 74.1501 86.1602 74.431 86.1602C74.7118 86.1602 75.5545 86.1602 75.5545 86.1602C75.5545 86.1602 77.8014 87.8453 78.0823 87.8453C78.3632 87.8453 79.2058 89.8113 78.9249 91.2155C78.9249 91.4964 78.9249 91.7772 78.9249 92.0581C78.9249 93.1815 78.6441 94.5858 78.6441 94.5858C78.6441 94.8666 85.9468 104.416 88.7555 108.629C89.3172 109.471 89.5981 110.314 89.879 110.594C90.4407 113.403 88.7555 118.458 87.632 118.739Z" fill="#FAC5A8"/>
<path d="M81.1719 109.471C82.0145 110.875 83.6998 114.526 85.1041 117.335C83.6998 116.211 82.2954 114.807 82.2954 114.807C82.2954 114.807 77.8014 103.292 76.6779 101.607C75.8353 99.9217 73.8692 97.6749 73.8692 97.394C73.5883 97.1132 72.7457 96.2706 72.7457 96.2706C72.7457 96.2706 71.0605 94.0238 70.7796 93.462C70.4987 92.9003 70.7796 90.0918 70.7796 90.0918C70.7796 90.0918 71.0605 92.0578 71.0605 93.1812C71.0605 94.0238 72.7457 95.428 72.7457 95.428L73.5883 95.9897L75.2736 96.2706C75.2736 96.2706 76.1162 95.7089 76.1162 95.428C76.1162 95.428 76.6779 95.1472 76.9588 95.1472C77.2397 95.1472 77.8014 94.5855 77.8014 94.5855C77.8014 94.5855 78.3632 93.7429 78.3632 93.462C78.3632 93.1812 78.9249 92.3386 78.9249 92.3386C78.9249 93.4621 78.6441 94.8663 78.6441 94.8663C78.6441 95.1472 85.9467 104.696 88.7555 108.909L83.138 101.045L78.6441 95.9897L77.5206 96.8323L76.1162 97.394C75.8353 97.394 74.431 97.6749 74.431 97.6749L75.2736 98.2366C75.2736 98.2366 80.0484 107.505 81.1719 109.471Z" fill="#F8D1BC"/>
<path d="M77.8017 92.6199L76.6782 89.8114L73.5886 87.5645L73.8695 87.2837C73.8695 87.2837 77.5208 89.5305 77.5208 89.8114C77.5208 90.0922 77.8017 92.6199 77.8017 92.6199Z" fill="#F8D1BC"/>
<path d="M78.0827 91.2163L77.8018 88.9695L75.2739 86.7227L75.5548 87.0035L78.3635 88.6886L78.0827 91.2163Z" fill="#FAC5A8"/>
<path d="M70.78 90.373L72.4653 93.4624L72.7461 94.5859H72.4653L71.3418 92.9007L70.78 90.373Z" fill="#F8D1BC"/>
<path d="M66.2859 133.905C65.1624 132.501 55.6127 125.479 55.6127 125.199C55.6127 124.918 54.7701 124.637 53.6466 120.143C52.5231 115.65 53.0849 103.854 53.0849 103.854C53.0849 103.854 52.5231 99.36 53.0849 99.36C53.6466 99.36 55.3319 99.0791 55.3319 99.0791L59.8258 97.9557L60.1067 97.1131L59.8258 96.2706L58.9832 95.9897L61.2302 93.7429L61.7919 92.3386C61.7919 92.3386 61.7919 90.9343 61.511 90.9343C61.2302 90.9343 60.6684 90.6535 60.6684 90.6535L60.3876 91.7769L58.4214 94.0237L58.1406 94.3046L60.1067 91.496L60.3876 89.5301C60.3876 89.5301 60.1067 88.6875 59.5449 88.6875C58.9832 88.6875 58.7023 88.9684 58.7023 88.9684L58.4214 90.6535L55.8936 93.7429V93.462L57.8597 90.9343L58.1406 89.2492L58.4214 89.5301C58.4214 89.5301 58.4214 89.2492 58.7023 88.9684C58.9832 88.6875 59.8258 88.9684 60.1067 89.2492C60.3876 89.5301 60.1067 91.2152 60.6684 90.9343C60.9493 90.6535 61.7919 91.2152 61.7919 91.2152C62.0728 91.496 61.7919 92.6195 61.7919 92.6195C61.7919 92.6195 61.7919 92.6195 62.0728 92.9003C62.3537 93.1812 62.0728 94.5854 62.0728 94.8663C62.0728 95.1471 60.3876 97.9557 59.8258 98.2365C59.2641 98.7983 57.5788 99.0791 56.4553 99.0791C55.3319 99.36 53.9275 100.203 53.9275 100.483C53.9275 100.764 53.3657 107.505 53.3657 111.156C53.3657 114.807 55.3319 124.075 55.3319 124.356C55.3319 124.637 58.7023 127.445 59.8258 128.007C60.9493 128.569 64.8815 131.939 64.8815 131.939L66.2859 133.905Z" fill="#F8D1BC"/>
<path d="M64.6006 144.017C64.0388 144.298 63.4771 144.298 63.1962 144.017C60.6684 142.893 56.1744 138.961 53.0848 135.872C49.9952 132.783 45.5012 127.446 44.9395 126.885C44.3778 126.323 44.6586 120.706 45.2204 115.931C45.5012 111.157 47.4674 99.9226 47.7482 99.6417C47.7482 99.3609 48.0291 96.5523 48.31 95.9906C48.31 95.7098 48.5908 95.4289 49.1526 94.8672C48.5908 95.9906 48.31 97.6757 48.31 97.6757C48.31 97.6757 47.4674 100.203 46.6247 105.54C45.7821 111.157 45.2204 124.357 45.2204 125.48C45.2204 127.165 47.7482 129.131 52.8039 134.468C56.7361 138.961 62.6345 142.612 64.6006 144.017Z" fill="#F8D1BC"/>
<path d="M93.5305 136.995C93.5305 137.276 91.8452 139.242 89.8791 139.242C88.1939 139.242 83.1382 136.995 82.0147 136.995C80.8912 136.995 78.9251 136.153 78.9251 136.153C78.9251 136.153 79.4868 135.029 79.4868 133.906C79.4868 132.783 78.9251 129.974 78.9251 129.974L77.2399 128.008C76.959 127.727 76.959 127.446 76.959 127.166C77.2399 127.446 77.8016 128.008 78.0825 128.851L79.4868 130.536L80.8912 135.029C80.8912 135.029 83.4191 137.557 84.2617 137.557C85.1043 137.557 87.3513 138.681 89.3174 138.4C91.2835 138.681 92.6879 137.557 93.5305 136.995Z" fill="#F8D1BC"/>
<path d="M71.6225 147.949C71.6225 147.949 70.2181 154.409 70.499 159.183C70.7799 163.958 69.8291 174.047 70.3908 177.137C69.8291 177.418 67.863 172.362 67.5821 171.52C67.3012 168.149 67.6903 164.519 67.6903 161.43C67.9711 159.464 67.6903 157.779 67.6903 155.813C67.6903 155.532 67.6903 155.251 67.6903 154.689C68.252 149.915 68.5329 147.668 68.5329 147.668L71.6225 141.77C74.1503 141.489 76.1164 141.489 76.3973 141.489C76.9591 142.051 71.6225 147.949 71.6225 147.949Z" fill="#344991"/>
<path d="M94.654 111.437C94.654 111.437 91.8452 110.313 89.0365 109.471C86.2278 108.909 84.8234 109.752 84.2617 110.313C83.6999 110.875 83.1382 114.526 83.1382 114.526C83.1382 114.526 80.6103 118.177 80.6103 118.739C80.6103 119.02 80.3295 121.548 80.3295 121.548L80.0486 123.794L80.6103 124.356C80.6103 124.356 81.7338 122.952 83.1382 123.514C84.8234 124.075 85.3852 129.973 85.3852 130.254C85.3852 130.535 87.0704 133.344 87.0704 133.344C87.3513 133.344 91.0026 133.905 92.1261 133.063C93.2496 132.22 99.4288 127.165 100.552 123.233C101.395 119.582 98.3053 113.684 94.654 111.437Z" fill="#4A2727"/>
<path d="M53.3659 99.3605C53.3659 99.3605 52.5233 98.7988 51.6807 98.7988C50.8381 98.7988 49.9955 98.7988 49.9955 98.7988L49.7146 101.607C49.7146 101.607 50.2763 102.731 51.119 103.012C52.5233 103.573 53.3659 103.012 53.3659 103.292C53.6468 103.292 53.6468 103.292 53.6468 103.292L54.2086 100.765C53.9277 100.765 53.6468 99.6414 53.3659 99.3605Z" fill="#3E362F"/>
<path d="M50.8376 99.0793C50.8376 99.0793 50.2759 99.3601 50.2759 100.484C50.2759 101.607 51.1185 102.73 51.9611 102.73C52.8037 103.011 53.6464 102.73 53.9272 101.888C54.2081 101.045 54.2081 99.641 53.0846 99.0793C51.9611 98.7984 51.3994 98.7984 50.8376 99.0793Z" fill="#AEABA8"/>
<path d="M49.9954 98.7988C49.9954 98.7988 48.0293 98.7988 47.7485 98.7988C47.4676 98.7988 46.625 99.0797 46.3441 99.3605C46.0632 99.6414 46.0632 101.046 46.0632 101.046C46.0632 101.327 46.9059 101.607 46.9059 101.607L47.1867 100.765C47.1867 100.765 48.0293 100.765 48.5911 101.046C48.872 101.327 49.7146 101.607 49.7146 101.607L50.2763 99.6414L49.9954 98.7988Z" fill="#3E362F"/>
<path d="M77.2397 136.433C77.2397 136.433 74.7118 135.31 71.3413 134.467C67.9709 133.624 63.7578 130.816 63.7578 130.816C63.7578 130.816 61.2299 133.624 60.9491 136.995C60.6682 140.365 60.9491 144.578 61.5108 145.139C62.0725 145.701 67.4091 149.071 68.2517 149.914C69.0944 150.757 75.8353 151.037 77.5205 146.263C79.2058 141.769 79.4866 138.399 77.2397 136.433Z" fill="#21367C"/>
<path d="M82.8574 125.48C82.8574 125.48 83.1383 126.604 82.2957 127.165C81.7339 127.727 79.7678 127.727 79.7678 127.165C79.7678 126.604 80.3296 125.199 80.6104 124.918C80.8913 124.357 81.4531 123.795 82.0148 124.357C82.8574 124.918 82.8574 125.48 82.8574 125.48Z" fill="#FFD4BD"/>
</svg>
