<svg width="240" height="209" viewBox="0 0 240 209" fill="none" xmlns="http://www.w3.org/2000/svg">
<path d="M91.341 209L2.98665 155.982L16.0498 149.562L0.374023 140.766L15.0997 132.682L16.5248 135.297L6.31181 140.766L22.4626 149.8L9.16195 156.219L91.341 205.672L183.02 152.178L184.446 154.793L91.341 209Z" fill="#352C23"/>
<path d="M200.121 147.898C209.147 153.128 223.872 153.128 232.898 147.898C241.923 142.667 242.161 134.108 232.898 128.877C223.872 123.647 209.147 123.647 200.121 128.877C191.096 134.108 191.096 142.667 200.121 147.898Z" fill="#ACB5B4"/>
<path d="M190.621 74.6705C190.858 74.9083 190.858 74.9083 190.858 74.9083V75.3838C191.096 75.6215 191.808 75.146 191.808 75.146C191.808 75.146 191.808 75.146 192.283 75.3838C192.758 75.3838 193.233 74.9083 193.233 74.4328C193.233 73.9573 194.184 73.4818 194.184 73.4818C194.184 73.4818 194.659 73.4818 195.134 73.4818C195.371 73.4818 196.084 73.7195 196.084 73.7195C196.084 73.7195 195.134 74.9083 194.896 75.3838V75.6215C194.896 75.8593 195.134 75.8593 195.371 75.8593C195.609 75.8593 197.509 73.9573 197.509 73.9573L199.646 74.195C199.646 74.195 200.359 74.9083 200.596 75.146C200.834 75.3838 201.309 76.5725 201.309 76.8103C201.309 77.048 201.546 77.2858 201.784 77.5236C202.021 77.7613 202.259 77.9991 202.496 78.2368C202.734 78.2368 202.971 78.2368 203.209 77.9991C203.209 77.9991 203.209 77.9991 203.209 77.7613C203.446 77.5236 202.971 75.3838 202.971 74.9083C202.971 74.4328 203.209 73.7195 203.209 72.5308C203.209 71.5798 203.921 69.9155 203.921 69.9155C203.921 69.6778 203.684 69.44 203.684 69.44C202.259 67.538 200.121 68.7268 199.884 68.7268C199.646 68.7268 199.171 69.2023 198.934 70.1533C198.696 70.8665 198.221 71.1043 197.984 71.1043C197.746 71.1043 195.846 71.5798 195.846 71.5798L193.233 72.293C193.233 72.5308 193.233 72.5308 193.233 72.5308C193.233 72.5308 190.621 74.4328 190.621 74.6705Z" fill="#FAC5A8"/>
<path d="M195.134 75.8599C195.134 76.0976 195.371 76.0976 195.609 76.0976C195.846 76.0976 197.746 74.1956 197.746 74.1956L199.884 74.4334C199.884 74.4334 200.596 75.1466 200.834 75.3844C201.071 75.6221 201.546 76.8109 201.546 77.0486C201.546 77.2864 201.784 77.5241 202.021 77.7619C201.784 77.2864 201.784 77.0486 201.784 77.0486C201.784 77.0486 201.071 74.6711 200.834 74.1956C200.834 73.7201 200.121 73.2446 199.884 73.2446C199.646 73.2446 198.696 73.4824 197.984 73.9579C197.271 74.4334 196.084 75.6221 195.609 75.8599C195.371 75.8599 195.134 75.8599 195.134 75.8599Z" fill="#FAC5A8"/>
<path d="M190.621 74.909L190.858 75.1467C190.858 74.6712 191.808 73.958 192.046 73.7202C191.808 73.7202 190.858 74.4335 190.621 74.909Z" fill="#FAC5A8"/>
<path d="M190.858 74.9082V75.3837C191.096 75.6214 191.808 75.1459 191.808 75.1459C191.808 75.1459 191.808 75.1459 192.283 75.3837C192.758 75.3837 193.233 74.9082 193.233 74.4327C193.233 73.9572 194.183 73.4817 194.183 73.4817C194.183 73.4817 194.658 73.4817 195.133 73.4817C195.371 73.4817 196.083 73.7194 196.083 73.7194L197.033 72.2929C197.033 72.2929 196.083 72.2929 195.846 72.2929C195.608 72.2929 194.183 73.0062 193.946 73.2439C193.708 73.4817 193.233 74.1949 192.996 74.4327C192.996 74.9082 192.758 74.9082 192.521 75.1459C192.283 75.1459 191.808 75.1459 191.808 75.1459L192.046 74.1949L193.946 72.0552L192.283 73.4817L191.333 74.6704V75.3837C191.333 75.3837 190.858 75.6214 190.858 74.9082Z" fill="#FAC5A8"/>
<path d="M201.309 51.8461C201.546 53.2726 202.971 54.4613 203.921 55.4123C204.159 55.6501 204.396 55.6501 204.396 55.8878C204.872 56.3633 206.059 56.8388 206.772 57.0766C207.484 57.3143 208.197 57.3143 208.197 57.0766C208.434 56.8388 209.147 53.9858 209.859 50.6573C211.047 45.9023 212.234 40.1963 212.234 39.9585C212.234 39.483 210.097 31.875 207.722 32.3505C205.347 33.0637 203.684 42.8115 203.209 44.4758C202.734 46.3778 201.309 51.8461 201.309 51.8461Z" fill="#203581"/>
<path d="M198.458 69.4403C198.458 69.4403 201.071 68.0138 202.259 68.7271C202.734 68.9648 203.209 69.2026 203.446 69.6781C203.921 70.1536 204.159 70.6291 204.159 71.1046C204.159 72.0556 207.721 62.7833 207.721 62.7833L207.009 57.315C207.009 57.315 206.534 55.8885 205.346 54.462C205.109 54.2243 204.871 53.9865 204.634 53.7488C203.921 53.0355 202.734 52.56 201.309 52.3223C200.596 57.0773 200.121 63.4966 199.884 64.4476C199.646 65.1608 198.458 69.4403 198.458 69.4403Z" fill="#203581"/>
<path d="M203.921 136.011C203.921 136.011 202.971 136.249 202.971 136.724C202.971 137.2 203.446 138.389 204.159 138.864C204.872 139.102 206.059 139.577 207.959 139.102C209.859 138.626 211.759 137.438 212.709 136.011C213.659 134.585 215.56 134.347 215.797 134.347C216.035 134.347 219.597 132.683 220.072 132.207C220.547 131.732 219.36 129.592 219.36 129.592L211.997 132.445L203.921 136.011Z" fill="#3E362F"/>
<path d="M203.209 135.773C203.209 135.773 202.734 139.102 206.059 138.864C209.384 138.626 212.472 135.298 213.66 134.584C214.61 133.871 218.885 132.445 219.36 131.494C219.835 130.543 219.36 129.592 218.41 129.116C217.46 128.64 214.372 127.927 214.372 127.927C214.372 127.927 207.484 131.256 207.484 131.494C207.484 131.018 203.209 134.584 203.209 135.773Z" fill="#524B45"/>
<path d="M213.897 129.592C215.084 129.83 217.222 129.354 218.41 128.879C218.647 128.641 219.122 128.641 219.122 128.403C219.597 127.69 220.072 111.048 220.547 110.097C221.022 109.146 220.31 93.6917 220.31 93.6917L216.509 86.5592L214.134 81.8042C214.134 81.8042 207.247 74.6716 207.484 81.5664C207.484 88.4612 208.197 91.3142 208.909 93.9295C209.384 96.5447 210.334 104.628 210.572 105.341C210.809 106.293 212.947 126.501 212.947 126.977C212.947 127.69 212.472 129.117 213.897 129.592Z" fill="#2B4396"/>
<path d="M218.647 128.878C218.885 128.64 219.36 128.64 219.36 128.402C219.835 127.689 220.31 111.046 220.785 110.095C221.26 109.144 220.547 93.6906 220.547 93.6906L216.747 86.5581C216.272 86.5581 216.035 86.5581 216.035 86.5581L217.222 98.4457C217.222 98.4457 217.46 104.865 218.647 109.382C219.597 113.899 217.935 120.319 218.172 122.696C217.935 123.885 218.41 126.976 218.647 128.878Z" fill="#445EB6"/>
<path d="M217.697 142.429C217.697 142.429 216.985 142.905 216.985 143.618C216.985 144.331 217.46 145.044 217.46 145.044C217.46 145.044 219.122 146.471 221.735 145.758C224.585 145.282 226.248 143.38 226.485 142.191C226.723 141.003 228.385 136.485 228.385 136.485C228.385 136.485 229.098 135.534 229.098 135.297C229.098 135.059 228.623 133.632 228.385 133.632C228.148 133.632 221.497 136.248 221.497 136.248L217.697 142.429Z" fill="#3E362F"/>
<path d="M217.222 143.619C217.222 143.619 217.46 145.521 220.785 145.283C224.347 145.045 226.247 142.905 226.722 141.003C227.198 139.101 227.673 136.486 228.148 135.773C228.623 135.06 228.623 134.109 228.148 133.395C227.91 132.682 226.96 130.305 226.96 130.305C226.96 130.305 221.972 130.305 221.022 133.633C220.072 136.962 217.222 141.241 217.222 141.954C216.985 142.668 217.222 143.619 217.222 143.619Z" fill="#524B45"/>
<path d="M220.31 108.907C221.26 114.375 221.022 130.78 221.022 130.78C221.022 130.78 222.447 132.682 224.348 132.445C225.298 132.207 226.485 131.731 227.198 131.256C227.673 130.78 228.148 130.542 228.148 130.067C228.148 129.354 230.285 120.081 230.76 116.04C231.235 111.998 230.285 108.432 230.285 107.005C230.285 105.579 232.66 91.5513 233.135 88.9361C233.373 86.3208 232.898 80.6148 232.898 80.6148C232.898 80.6148 232.66 80.6148 231.948 80.6148C227.673 80.1393 211.522 78.7128 211.284 81.5658C211.047 84.8943 212.472 88.2228 213.897 89.1738C215.322 90.1248 217.46 90.3626 217.46 90.3626C217.46 90.3626 219.36 103.439 220.31 108.907Z" fill="#2B4396"/>
<path d="M227.435 131.017C227.91 130.542 228.385 130.304 228.385 129.829C228.385 129.115 230.523 119.843 230.998 115.801C231.473 111.76 230.523 108.193 230.523 106.767C230.523 105.34 232.898 91.313 233.373 88.6978C233.61 86.0825 233.135 80.3765 233.135 80.3765C233.135 80.3765 232.898 80.3765 232.185 80.3765C232.423 82.5162 232.66 86.558 232.423 88.2223C231.948 90.8375 228.623 102.725 229.81 109.144C230.998 115.564 229.573 116.752 228.86 121.507C227.91 125.074 227.435 129.115 227.435 131.017Z" fill="#445EB6"/>
<path d="M207.247 81.0903C207.722 82.0413 209.384 84.8944 210.809 84.8944C212.234 84.8944 215.085 86.0831 215.797 86.0831C216.51 86.0831 223.635 86.7964 227.673 85.3699C231.71 84.1811 234.085 80.6148 234.085 80.1393C234.085 79.6638 233.373 70.3915 233.373 70.3915C233.373 70.1538 231.948 63.0213 231.948 60.6437C232.185 58.0285 235.273 39.9594 234.561 38.7707C233.61 37.5819 229.81 34.0156 227.435 31.8759C225.06 29.7361 221.497 28.5474 221.497 28.5474C221.497 28.5474 215.085 28.7851 211.997 30.4494C208.909 32.1136 207.722 31.6381 206.059 34.2534C204.634 37.1064 204.397 45.6654 205.109 49.4695C205.347 51.1337 205.822 54.2245 206.059 57.3152C206.297 60.6437 206.534 63.9723 206.534 65.8743C206.297 68.4895 206.772 74.1956 207.009 77.7618C207.009 79.6638 207.247 80.8526 207.247 81.0903Z" fill="#172B6F"/>
<path fill-rule="evenodd" clip-rule="evenodd" d="M217.729 49.1396L215.661 48.7471L214.68 41.4941L216.748 41.8866L217.729 49.1396ZM215.262 48.6715L213.194 48.2789L212.436 42.4816L214.504 42.8741L215.262 48.6715ZM212.752 48.2048L209.239 47.538L211.995 42.447L212.752 48.2048ZM211.775 43.6027C211.837 44.0309 211.945 45.0141 212.044 45.911L212.045 45.9217C212.13 46.6907 212.207 47.3943 212.242 47.6271L209.933 47.1889C210.032 47.0123 210.279 46.519 210.567 45.945L210.568 45.9423C211.003 45.0742 211.53 44.0225 211.775 43.6027Z" fill="#ACB9E8"/>
<path fill-rule="evenodd" clip-rule="evenodd" d="M219.905 51.0265L219.773 51.0005L219.705 51.3486L219.656 51.339L219.724 50.9908L219.593 50.9649L219.602 50.9168L219.918 50.9792L219.909 51.0272L219.905 51.0265ZM207.048 50.2106C206.905 50.9349 207.224 51.476 207.908 51.611C208.145 51.6578 208.41 51.6602 208.63 51.558L208.686 51.3529C208.615 51.397 208.31 51.5572 207.975 51.4911C207.486 51.3947 207.224 50.923 207.349 50.2867C207.46 49.7265 207.839 49.2899 208.41 49.4027C208.73 49.4658 208.915 49.7351 208.949 49.8041L208.972 49.8045C209.004 49.7195 209.04 49.6391 209.086 49.561C208.895 49.4234 208.673 49.3214 208.447 49.2769C207.793 49.1478 207.195 49.4663 207.048 50.2106ZM210.541 52.0849L210.54 52.0848L210.539 52.0847C210.513 52.0815 210.487 52.0784 210.462 52.0734C210.426 51.7795 210.376 51.4411 210.311 51.1165L209.521 50.9606C209.5 50.9956 209.478 51.0305 209.456 51.0655C209.311 51.3005 209.166 51.5353 209.037 51.7922L209.012 51.7849C208.979 51.7752 208.952 51.7671 208.922 51.7611C208.9 51.7569 208.881 51.7552 208.862 51.7537L208.861 51.7536C208.844 51.7522 208.827 51.7508 208.811 51.7476L210.237 49.6301L210.308 49.6442L210.786 52.1372C210.757 52.1316 210.73 52.1242 210.705 52.117C210.68 52.11 210.655 52.1031 210.629 52.098C210.598 52.092 210.569 52.0884 210.541 52.0849ZM212.187 51.4888L212.186 51.4868L212.186 51.4863L212.186 51.4858L212.185 51.4853L212.185 51.4848L212.185 51.4843L212.184 51.4838L212.184 51.4833L212.184 51.4828L212.184 51.4823L212.183 51.4818L212.183 51.4813L212.183 51.4809C212.105 51.3431 212.028 51.2055 211.954 51.0665L212.281 50.8358L213.126 50.2543C213.105 50.2501 213.083 50.248 213.062 50.246L213.062 50.2459L213.061 50.2459C213.042 50.244 213.022 50.242 213.004 50.2385C212.962 50.2303 212.928 50.2198 212.89 50.2086L212.882 50.206L211.953 50.8957C211.937 50.9059 211.919 50.9177 211.901 50.9304C211.855 50.9614 211.802 50.9969 211.756 51.0232C211.716 51.0445 211.672 51.0483 211.673 51.0276L211.874 50.0072C211.849 50.0023 211.826 49.9998 211.803 49.9974L211.803 49.9974C211.781 49.9951 211.759 49.9928 211.737 49.9884C211.692 49.9795 211.648 49.9666 211.603 49.9537L211.157 52.2147C211.177 52.2187 211.2 52.2211 211.223 52.2236C211.246 52.2262 211.271 52.2289 211.294 52.2334C211.332 52.2409 211.373 52.2525 211.417 52.265L211.428 52.2681L211.655 51.1156C211.658 51.0996 211.694 51.119 211.706 51.134L212.217 52.112C212.277 52.2236 212.325 52.337 212.372 52.4544C212.399 52.4598 212.428 52.4634 212.456 52.467C212.486 52.4707 212.516 52.4745 212.546 52.4805C212.591 52.4893 212.635 52.501 212.686 52.5144L212.714 52.5219L212.717 52.5059L212.531 52.124C212.423 51.9086 212.305 51.6985 212.187 51.4888ZM213.933 52.7998C213.248 52.6648 212.929 52.1237 213.072 51.3994C213.219 50.6551 213.817 50.3365 214.472 50.4657C214.697 50.5102 214.919 50.6122 215.111 50.7498C215.064 50.8279 215.029 50.9082 214.996 50.9933L214.973 50.9929C214.94 50.9239 214.755 50.6546 214.435 50.5915C213.863 50.4787 213.484 50.9153 213.374 51.4755C213.248 52.1118 213.511 52.5835 213.999 52.6799C214.334 52.746 214.639 52.5858 214.71 52.5417L214.654 52.7468C214.435 52.849 214.17 52.8466 213.933 52.7998ZM215.454 51.0879C215.511 51.0367 215.785 50.8579 216.105 50.921C216.627 51.0241 216.833 51.4887 216.775 51.9971L215.914 51.8271C215.869 51.8183 215.826 51.8056 215.781 51.7927L215.781 51.7926C215.736 51.7795 215.69 51.7663 215.643 51.757C215.64 51.7685 215.64 51.7822 215.639 51.7965C215.638 51.8119 215.637 51.828 215.634 51.8425C215.632 51.8533 215.628 51.8654 215.623 51.8787C215.618 51.895 215.612 51.9132 215.608 51.933C215.653 51.9418 215.698 51.9467 215.744 51.9517L215.745 51.9518L215.746 51.9518L215.747 51.952C215.793 51.9569 215.839 51.962 215.886 51.9712L216.751 52.1419C216.626 52.7741 216.203 53.1148 215.714 53.0183C215.38 52.9523 215.162 52.689 215.109 52.6203L215.083 52.8314C215.251 53.01 215.493 53.1078 215.73 53.1545C216.415 53.2896 216.916 52.9103 217.058 52.186C217.205 51.4457 216.773 50.9198 216.119 50.7907C215.889 50.7454 215.645 50.7554 215.419 50.8107C215.433 50.9006 215.434 50.9924 215.433 51.0794L215.454 51.0879ZM218.156 53.6332C217.472 53.4981 217.152 52.957 217.295 52.2327C217.442 51.4884 218.04 51.1699 218.695 51.299C218.92 51.3435 219.142 51.4456 219.334 51.5832C219.287 51.6613 219.252 51.7416 219.22 51.8267L219.196 51.8262C219.163 51.7573 218.978 51.4879 218.658 51.4248C218.087 51.3121 217.707 51.7486 217.597 52.3088C217.471 52.9451 217.734 53.4168 218.223 53.5133C218.557 53.5793 218.862 53.4191 218.934 53.375L218.877 53.5801C218.654 53.6816 218.389 53.6792 218.156 53.6332ZM210.293 50.9715L209.608 50.8364L210.113 50.0589L210.293 50.9715ZM220.193 51.4451L220.242 51.4547L220.321 51.0586L220.253 51.0452L220.115 51.2468L220.061 51.0074L219.993 50.994L219.915 51.3902L219.96 51.3991L220.027 51.0589L220.083 51.3111L220.113 51.317L220.261 51.1049L220.193 51.4451Z" fill="#D0D8F3"/>
<path d="M228.385 32.826C228.385 32.826 223.873 32.5882 220.547 38.532C217.222 44.7135 217.46 61.3561 217.46 61.3561L208.672 58.0276C208.672 58.0276 207.959 48.0421 208.672 41.6228C209.384 35.4412 215.56 29.022 215.56 29.022L211.047 30.6862C211.047 30.6862 206.297 37.8188 206.059 41.8605C205.822 45.9023 206.534 57.7898 206.534 57.7898L206.059 58.2653C206.059 58.2653 206.059 68.0131 206.059 69.9151C206.059 71.8172 206.297 80.1384 207.247 82.0404C208.434 84.1802 208.909 85.8445 216.747 86.7955C224.348 87.7465 230.998 86.32 233.136 82.7537C234.086 80.1384 234.086 80.1384 234.086 80.1384C234.086 80.1384 234.086 73.7192 233.611 69.9151C233.136 66.3489 232.661 57.5521 232.661 57.5521C232.661 57.5521 227.673 63.2581 226.248 63.9714C224.823 64.6846 220.547 60.6429 220.547 60.6429C220.547 60.6429 220.547 40.1963 224.348 37.1055C228.148 34.0147 230.048 34.4902 230.048 34.4902L228.385 32.826Z" fill="#2B4396"/>
<path d="M207.959 59.6929C207.247 59.6929 206.534 58.9796 206.534 58.2663C206.534 57.5531 207.009 56.8398 207.722 56.8398C208.434 56.8398 209.147 57.5531 209.147 58.2663C209.147 58.9796 208.672 59.6929 207.959 59.6929Z" fill="#F2AD4A"/>
<path d="M219.122 63.4971C218.41 63.4971 217.697 62.7838 217.697 62.0706C217.697 61.3573 218.172 60.644 218.885 60.644C219.597 60.644 220.31 61.3573 220.31 62.0706C220.31 62.7838 219.835 63.4971 219.122 63.4971Z" fill="#F2AD4A"/>
<path d="M213.659 32.3508C213.659 32.3508 213.184 35.6793 215.084 36.3926C216.985 37.1058 221.26 35.4415 222.922 34.015C224.585 32.5885 225.535 32.3508 225.297 31.162C225.06 30.211 223.635 29.7355 222.922 28.0713C222.21 26.1693 222.21 23.554 221.497 22.1275C220.785 20.9387 213.422 24.0295 213.184 25.9315C213.184 28.0713 213.659 32.3508 213.659 32.3508Z" fill="#FAC5A8"/>
<path d="M197.034 78.9509C197.034 78.9509 197.271 78.9509 197.034 78.9509C197.271 78.9509 199.409 76.8111 199.409 76.8111L201.309 75.6223L200.121 76.5733L199.171 77.7621C199.171 77.7621 198.459 79.4264 198.221 80.1396C198.221 80.6151 198.459 80.8529 198.934 80.8529H199.171C199.409 80.8529 200.121 79.1886 200.121 79.1886C200.121 79.1886 200.596 78.2376 202.021 77.2866C203.209 76.3356 203.684 76.3356 203.921 76.5733L202.496 78.4753C202.496 78.4753 200.596 80.8529 200.359 81.5661C200.121 82.0416 200.359 82.2794 200.834 82.2794C201.071 82.2794 201.071 82.2794 201.309 82.2794C201.784 82.2794 203.684 79.4263 203.921 79.1886C204.159 78.9508 205.584 77.5243 205.822 77.2866L205.584 78.2376L205.347 78.7131C205.347 78.7131 203.921 80.3774 203.684 81.3284C203.446 82.2794 203.921 82.5171 204.396 82.2794L204.634 82.0416C204.872 81.8039 205.109 81.3284 205.109 81.0906L207.247 78.2376C207.247 78.2376 208.434 77.7621 208.909 77.5243C209.384 77.2866 210.809 76.0978 210.809 76.0978C212.234 75.3846 212.709 74.4336 212.947 73.9581C213.422 72.2938 210.572 71.5806 210.572 71.5806C210.572 71.5806 207.959 72.2938 207.247 72.5316C206.534 72.5316 202.021 73.4826 201.784 73.7203C201.546 73.7203 198.696 75.1468 198.696 75.3846C198.459 75.3846 196.796 77.5243 196.796 77.5243C196.796 77.5243 196.559 78.4754 196.559 78.7131C196.559 78.7131 196.796 78.9509 197.034 78.9509Z" fill="#FAC5A8"/>
<path d="M204.872 81.3283C204.872 81.3283 204.872 81.566 204.634 82.0415C204.872 81.8038 205.109 81.3283 205.109 81.0905L207.247 78.2375C207.247 78.2375 208.434 77.762 208.909 77.5243C209.384 77.2865 210.809 76.0978 210.809 76.0978C212.234 75.3845 212.709 74.4335 212.947 73.958C212.234 74.4335 211.522 75.1468 210.334 76.0978L208.672 77.5243C208.672 77.5243 207.247 77.9998 207.009 78.2375L204.872 81.3283Z" fill="#FAC5A8"/>
<path d="M201.546 81.8036C201.309 81.8036 201.309 82.0413 201.071 82.0413C201.309 82.0413 201.309 82.0413 201.546 82.0413C202.021 82.0413 203.921 79.1883 204.159 78.9505C204.396 78.7128 205.822 77.2863 206.059 77.0485L205.822 77.9995L206.534 77.0485C206.534 77.0485 206.297 76.8108 206.059 77.0485C205.822 77.2863 204.159 78.9505 204.159 79.1883C204.159 79.426 201.784 81.8036 201.546 81.8036Z" fill="#FAC5A8"/>
<path d="M198.934 80.8532H199.171C199.409 80.8532 200.121 79.1889 200.121 79.1889C200.121 79.1889 200.596 78.2379 202.021 77.2869C203.209 76.3359 203.684 76.3359 203.922 76.5737C203.684 76.5737 203.209 76.3359 202.972 76.3359C202.972 76.3359 201.071 77.5247 200.359 78.4757C199.646 79.4267 199.171 80.3777 199.171 80.6155C199.171 80.6155 199.171 80.8532 198.934 80.8532Z" fill="#FAC5A8"/>
<path d="M197.034 78.9499C197.034 78.9499 197.271 78.9499 197.034 78.9499C197.271 78.9499 199.409 76.8101 199.409 76.8101L201.309 75.6214L202.496 74.9081L203.684 74.4326C203.684 74.4326 202.496 74.6704 202.021 74.9081C201.546 75.1459 199.171 76.5724 199.171 76.5724C198.696 76.8101 197.509 78.4744 197.034 78.9499Z" fill="#FAC5A8"/>
<path d="M202.971 73.9581C202.971 73.9581 202.971 76.0979 202.971 76.5734C202.971 76.8112 203.209 77.5244 203.209 77.7622C203.209 77.7622 203.209 77.7622 203.209 77.5244C203.446 77.2867 202.971 75.1469 202.971 74.6714C202.971 74.1959 203.209 73.4826 203.209 72.2939C203.209 71.3429 203.921 69.6786 203.921 69.6786C203.921 69.4409 203.684 69.2031 203.684 69.2031C203.684 69.9164 203.446 71.1051 203.209 71.5806C202.971 72.2939 202.971 73.7204 202.971 73.9581Z" fill="#FAC5A8"/>
<path d="M236.698 61.5947C236.698 61.8325 236.698 61.8325 236.46 62.0702C236.46 62.0702 236.46 61.8325 236.698 61.5947C236.46 61.8325 236.46 61.5947 236.698 61.5947Z" fill="#FAC5A8"/>
<path d="M219.36 31.6382C219.36 31.6382 216.272 35.9177 214.372 36.3932C212.472 36.8687 210.572 35.4422 210.097 34.7289C209.384 33.7779 211.047 31.4004 211.047 31.4004C211.047 31.4004 218.885 29.2606 219.36 31.6382Z" fill="#F8D1BC"/>
<path d="M225.297 63.2581C225.297 63.2581 228.623 66.5866 231.473 68.0131C231.71 68.2509 231.948 68.2509 232.185 68.4886C232.66 68.7264 232.898 68.7264 233.373 68.4886C233.373 68.4886 233.373 68.4886 233.61 68.4886C233.61 68.4886 233.61 68.4886 233.848 68.4886L234.085 68.2509L234.323 68.0131L234.56 67.7754L235.748 65.6356V65.3978L235.985 64.4468V64.2091V63.9713C235.985 63.7336 236.223 63.4958 236.223 63.2581V63.0203V62.7826V62.5448V62.3071C236.223 62.0693 236.223 61.8316 236.461 61.8316C236.698 60.8806 236.936 59.6918 236.936 58.7408C236.936 58.5031 236.936 58.2653 236.936 58.2653C237.173 57.3143 237.173 56.3633 237.173 55.4123C237.173 55.1746 237.173 55.1745 237.173 55.1745C237.173 54.9368 237.173 54.4613 237.173 54.2235C236.936 48.5175 235.748 40.9095 234.323 39.9585C232.898 39.0075 229.81 38.7697 227.435 41.385C225.297 44.0003 225.772 50.4195 225.297 54.2235C225.06 56.8388 225.297 63.2581 225.297 63.2581Z" fill="#203581"/>
<path d="M207.009 72.294C207.009 72.294 207.722 72.0563 208.909 73.9583C209.622 74.9093 209.859 75.8603 209.859 76.3358C209.859 77.049 209.859 77.2868 209.859 77.2868C209.859 77.2868 229.573 70.392 233.373 68.2522C233.373 68.2522 233.61 68.2522 233.61 68.0145C233.61 67.0635 233.135 66.1125 232.185 65.3992C230.285 63.4972 226.722 62.3085 225.06 63.0217C222.922 64.2105 215.084 69.2033 207.009 72.294Z" fill="#203581"/>
<path d="M212.472 34.9661C212.472 34.9661 214.134 35.2039 214.609 34.9661C215.084 34.7284 219.122 31.8754 219.835 31.1621C220.547 30.4489 220.547 28.7846 220.547 28.5469C220.547 28.3091 220.785 24.0296 219.835 21.8898C218.885 19.7501 218.41 16.1838 216.509 15.4706C214.372 14.5196 207.009 15.4706 207.009 20.2256C207.247 25.2183 207.722 24.9806 208.197 26.6449C208.434 28.0714 208.672 29.0224 209.147 30.2111C209.859 31.3999 211.284 34.4906 212.472 34.9661Z" fill="#FAC5A8"/>
<path d="M216.509 20.7015C216.509 20.7015 217.46 23.7922 217.697 24.2677C217.935 24.7432 218.885 25.2187 218.885 25.4565C218.885 25.6942 219.122 26.1697 219.122 26.1697L219.835 25.932C219.835 25.932 220.072 23.3167 221.022 24.2677C221.972 25.2187 222.685 27.834 222.685 27.834C222.685 27.834 223.635 23.3167 223.872 21.8902C224.11 20.4637 224.585 16.6597 221.972 12.6179C219.36 8.57616 211.047 9.76492 208.909 13.3312C207.009 16.4219 207.009 18.0862 207.009 19.5127C207.009 20.9392 207.247 20.7015 207.247 20.7015C207.247 20.7015 207.959 21.4147 211.284 21.177C214.372 21.177 216.272 19.9882 216.509 20.7015Z" fill="#4A2727"/>
<path d="M220.547 26.1701C220.547 26.1701 220.31 27.3588 221.26 27.1211C221.972 27.1211 223.397 25.2191 223.16 23.317C222.922 21.6528 221.26 22.6038 221.022 23.0793C220.785 23.5548 220.785 24.7436 220.785 24.9813C220.547 25.4568 220.547 26.1701 220.547 26.1701Z" fill="#FFD4BD"/>
<path d="M210.572 26.8825C210.572 26.8825 210.097 29.4977 210.097 29.7355C210.097 29.9732 211.522 29.7355 211.759 29.4977C211.997 29.26 210.572 26.1692 210.572 26.8825Z" fill="#FFD4BD"/>
<path d="M210.097 21.652C210.097 21.652 209.859 24.505 210.097 25.2182C210.334 25.6937 216.035 25.456 216.035 25.6937C216.035 25.9315 216.747 27.1202 216.51 27.8335C216.272 28.5467 213.184 29.0222 213.184 29.26C213.184 29.4977 214.847 31.3997 215.322 31.162C215.797 30.9242 218.41 29.26 218.41 27.8335C218.41 26.407 218.172 25.456 217.935 25.2182C217.697 24.9805 216.985 24.505 216.51 23.7917C216.035 23.0785 216.035 21.1765 215.322 21.1765C214.609 20.9387 212.472 21.652 210.097 21.652Z" fill="#FFD4BD"/>
<path d="M190.146 158.358H148.581L127.68 146.946L130.055 131.968L180.645 130.066L190.146 158.358Z" fill="#ACB5B4"/>
<path d="M207.959 148.135L190.146 158.358V104.864L207.959 94.4033V148.135Z" fill="#95938F"/>
<path d="M155.232 138.387L190.146 158.359V104.865L155.232 84.6558V138.387Z" fill="#7A746E"/>
<path d="M207.959 94.4037L190.146 104.865L160.457 87.7467L155.232 84.6559L160.219 81.8029L173.283 74.4326L207.959 94.4037Z" fill="#F7F7F6"/>
<path d="M150.481 85.6082L191.571 109.146V94.405L150.481 70.6299V85.6082Z" fill="#8C8782"/>
<path d="M212.709 89.8864L191.571 94.4037L156.657 74.1949L150.481 70.6286L156.419 67.3001L171.857 66.1113L212.709 89.8864Z" fill="#E1E1DC"/>
<path d="M193.946 80.3775L185.396 80.6153L178.745 76.8113L176.608 75.6225L185.158 75.3848L193.946 80.3775Z" fill="#FF862A"/>
<path d="M180.17 72.2937L169.957 73.007L163.307 69.203L173.282 68.252L180.17 72.2937Z" fill="#8C8782"/>
<path d="M174.945 64.21C174.945 64.21 172.095 65.8742 170.432 67.5385C169.007 69.2027 168.77 69.6782 168.77 69.6782H171.145C171.145 69.6782 173.52 66.112 174.945 65.3987C176.37 64.6855 176.37 64.6855 176.37 64.6855L174.945 64.21Z" fill="#322920"/>
<path d="M178.983 66.8257C178.983 66.8257 176.133 68.4899 174.47 70.1542C173.045 71.8185 172.807 72.294 172.807 72.294H175.182C175.182 72.294 177.558 68.7277 178.983 68.0144C180.408 67.3012 180.408 67.3012 180.408 67.3012L178.983 66.8257Z" fill="#322920"/>
<path d="M172.332 63.7345L179.458 68.014L182.308 68.2518L182.783 66.5875L173.995 61.8325L172.57 62.5458L172.332 63.7345Z" fill="#CC1F15"/>
<path d="M186.346 79.1877C184.683 78.95 182.783 77.999 182.308 77.2857C182.308 77.048 182.308 77.048 182.308 77.048L182.545 76.097C182.783 75.6215 183.258 76.3347 184.683 76.5725C186.346 76.8102 187.296 76.8102 187.771 77.7612C187.771 77.999 188.958 77.999 188.958 77.999L188.721 78.95C188.483 79.4255 187.533 79.4255 186.346 79.1877Z" fill="#CC1F15"/>
<path d="M186.583 78.2378C184.92 78.0001 183.02 77.0491 182.545 76.3358C182.07 75.6226 183.258 75.1471 184.92 75.6226C186.583 75.8603 188.483 76.8113 188.958 77.5246C189.433 78.2378 188.483 78.7133 186.583 78.2378Z" fill="#FF2C2A"/>
<path d="M193.233 82.2791L196.796 84.6566H199.884V83.4679L196.559 81.3281H193.708L193.233 82.2791Z" fill="#8C8782"/>
<path d="M193.708 81.3281L197.271 83.4679H199.884L196.559 81.3281H193.708Z" fill="#AAA6A2"/>
<path d="M199.646 85.8455L203.209 87.9852L206.297 88.223L206.534 86.7965L202.971 84.8945L200.121 84.6567L199.646 85.8455Z" fill="#8C8782"/>
<path d="M200.121 84.6567L203.684 86.7965H206.534L202.971 84.8945L200.121 84.6567Z" fill="#AAA6A2"/>
<path d="M188.246 82.5174L191.808 84.6571L194.896 84.8949V83.4684L191.333 81.5664L188.721 81.3286L188.246 82.5174Z" fill="#8C8782"/>
<path d="M188.721 81.3281L192.283 83.4679H194.896L191.333 81.5659L188.721 81.3281Z" fill="#AAA6A2"/>
<path d="M194.658 86.0833L198.221 88.223L201.309 88.4608L201.546 87.0343L197.984 85.1323L195.133 84.8945L194.658 86.0833Z" fill="#8C8782"/>
<path d="M195.134 84.8945L198.696 87.0343H201.546L197.984 85.1323L195.134 84.8945Z" fill="#AAA6A2"/>
<path d="M212.709 97.0192L191.571 109.145V94.404L197.509 90.8377L212.709 89.8867V97.0192Z" fill="#ADABA8"/>
<path d="M153.331 161.925L80.6529 204.245L6.07422 159.786L77.5652 118.179L153.331 161.925Z" fill="#ACB5B4"/>
<path d="M22.2254 159.072L19.3752 160.736V148.135L22.2254 146.233V159.072Z" fill="#827C5A"/>
<path d="M16.7625 159.31L19.3751 160.737V148.136L16.7625 146.472V159.31Z" fill="#474536"/>
<path d="M89.4409 197.826L86.3533 199.49V186.889L89.4409 185.225V197.826Z" fill="#827C5A"/>
<path d="M83.7405 198.064L86.3531 199.491V186.89L83.7405 185.463V198.064Z" fill="#474536"/>
<path d="M148.819 163.114L145.731 165.016V152.177L148.819 150.513V163.114Z" fill="#827C5A"/>
<path d="M143.118 163.352L145.731 165.017V152.178L143.118 150.751V163.352Z" fill="#474536"/>
<path d="M37.4257 6.67383V130.304L21.0374 139.577V16.1839L37.4257 6.67383Z" fill="#D8CFB6"/>
<path d="M10.3494 133.395L21.0374 139.577V16.184L10.3494 10.0024V133.395Z" fill="#B28B64"/>
<path d="M37.4259 6.67371L21.0376 16.1838L15.0998 12.6175L10.3496 10.0022L14.8623 7.38697L26.7379 0.492188L37.4259 6.67371Z" fill="#F7F7F6"/>
<path d="M39.0882 63.9723L37.4257 64.9233L21.0374 74.6711V19.9884L22.6999 17.6108L37.4257 58.7418L39.0882 63.9723Z" fill="#A26F4A"/>
<path d="M46.4511 57.5525L31.9629 65.8738V23.0786L46.4511 14.7573V57.5525Z" fill="#E8E8E8"/>
<path d="M37.6632 43.0507C37.9007 44.2394 37.1881 45.6659 36.2381 46.1414C35.288 46.6169 34.338 46.1414 34.1005 44.9527C33.863 43.7639 34.5755 42.3374 35.5255 41.8619C36.7131 41.3864 37.6632 41.8619 37.6632 43.0507Z" fill="#689B31"/>
<path d="M36.713 43.2887C36.713 44.002 36.4755 44.953 35.763 45.1907C35.0505 45.6662 34.5754 45.1907 34.5754 44.4775C34.5754 43.7642 34.813 42.8132 35.5255 42.5755C36.0005 42.3377 36.713 42.5755 36.713 43.2887Z" fill="#86C95A"/>
<path d="M44.3133 21.1776L34.1003 26.8836V26.1704L44.3133 20.4644V21.1776Z" fill="#8C8782"/>
<path d="M44.3133 24.2679L34.1003 29.974V29.4985L44.3133 23.5547V24.2679Z" fill="#8C8782"/>
<path d="M44.3133 27.5961L34.1003 33.3021V32.5888L44.3133 26.8828V27.5961Z" fill="#8C8782"/>
<path d="M44.3133 30.6879L34.1003 36.6316V35.9184L44.3133 29.9746V30.6879Z" fill="#8C8782"/>
<path d="M22.7 60.406L31.9629 65.8743V23.0791L22.7 17.6108V60.406Z" fill="#8C8782"/>
<path d="M46.4514 14.7583L31.9632 23.0796L26.7379 19.9888L22.7002 17.6113L26.5004 15.2338L36.9509 9.29004L46.4514 14.7583Z" fill="#F7F7F6"/>
<path d="M25.5503 101.775L22.4626 103.677V61.1193L25.5503 59.4551V101.775Z" fill="#E8E8E8"/>
<path d="M19.6125 102.012L22.4627 103.676V61.1184L19.6125 59.6919V102.012Z" fill="#8C8782"/>
<path d="M25.5506 59.4548L22.4629 61.119L20.8004 60.4058L19.6128 59.6925L20.8004 58.9793L22.938 57.7905L25.5506 59.4548Z" fill="#F7F7F6"/>
<path d="M73.29 76.5731L70.2024 78.4751V36.1554L73.29 34.2534V76.5731Z" fill="#E8E8E8"/>
<path d="M67.3523 76.8094L70.2024 78.4737V36.154L67.3523 34.4897V76.8094Z" fill="#8C8782"/>
<path d="M73.2901 34.2526L70.2024 36.1546L68.5399 35.2036L67.3523 34.4904L68.5399 33.7771L70.6775 32.5884L73.2901 34.2526Z" fill="#F7F7F6"/>
<path d="M86.5907 187.84L12.2495 144.807V116.99L86.5907 160.023V187.84Z" fill="#2B4CB9"/>
<path d="M86.5907 168.82L12.2495 125.787V116.99L86.5907 160.023V168.82Z" fill="#4A5FA1"/>
<path d="M153.331 121.033V148.85L86.5906 187.841V160.024L153.331 121.033Z" fill="#D9AF6A"/>
<path d="M153.331 121.033V148.85L86.5906 187.841V160.024L153.331 121.033Z" fill="#4163D2"/>
<path d="M153.331 121.033V130.067L86.5906 168.821V160.024L153.331 121.033Z" fill="#5D73BD"/>
<path d="M153.332 121.032L86.5909 160.024L12.2498 116.991L78.753 77.9995L153.332 121.032Z" fill="#EFD995"/>
<path d="M87.7782 164.302L6.07422 117.228V109.382L87.7782 156.694V164.302Z" fill="#5B5450"/>
<path d="M164.97 111.759V119.367L87.7783 164.302V156.694L164.97 111.759Z" fill="#95938F"/>
<path d="M164.97 111.76L87.7782 156.695L6.07422 109.382L83.028 64.4473L164.97 111.76Z" fill="#818181"/>
<path d="M82.3155 73.9574L77.5653 73.0063L15.5747 108.669L83.503 147.66H88.0158L75.1901 137.437L25.0752 108.669L82.3155 73.9574Z" fill="#736D6A"/>
<path d="M22.7 110.095L88.0157 147.898L149.769 112.235V109.382L84.6905 72.7686L82.5529 73.9573L22.7 107.242V110.095ZM84.6905 75.6216L99.8912 84.4184L101.554 85.3694L102.504 86.0826L103.454 86.5581L116.28 93.9284L115.329 94.4039L120.792 97.4947L67.3521 128.402L61.8894 125.312L59.5143 126.738L27.9252 108.669L84.6905 75.6216ZM87.3031 138.863L73.0524 130.542L72.1024 130.067L125.543 99.1589L140.743 107.956L87.3031 138.863Z" fill="#7B7F8B"/>
<path d="M82.7906 78.2373L94.9037 85.3698L44.3137 115.089L46.9263 119.13L101.317 90.1248L116.28 98.6839L64.0272 128.403L68.5399 130.543L122.455 101.061L136.231 109.383L85.4032 138.864L87.7784 142.668L140.506 108.907L85.1657 75.3843L82.7906 78.2373Z" fill="#736D6A"/>
<path d="M88.0157 144.807L149.769 109.144L84.453 71.3418L22.7 107.004L88.0157 144.807ZM84.6905 75.6213L99.8912 84.4181L46.4511 115.326L33.1505 107.718L32.2004 107.242L31.2504 106.529L84.6905 75.6213ZM87.3031 138.863L73.0524 130.542L72.1024 130.066L125.543 99.1587L140.743 107.955L87.3031 138.863ZM67.3521 128.402L61.8894 125.311L51.2014 119.13L104.641 88.2221L115.329 94.4036L120.792 97.4944L67.3521 128.402Z" fill="#C5C7CF"/>
<path d="M55.4767 116.752L51.2015 119.13L61.8895 125.311L67.3523 128.402L116.992 99.6343L122.217 98.2078L125.543 97.2568V97.4946L67.3523 131.255L59.5144 126.738L46.9263 119.368V119.13L55.4767 116.752Z" fill="#9497A1"/>
<path d="M67.3523 131.255V131.017L46.9263 119.13V119.368L67.3523 131.255Z" fill="#DBDCE0"/>
<path d="M59.7519 126.5L67.3523 131.017L125.305 97.2567L124.355 96.7812L104.879 85.3691L46.9263 119.13L59.7519 126.5ZM67.3523 128.402L61.8895 125.311L51.2015 119.13L104.642 88.2222L115.33 94.4037L120.792 97.4944L67.3523 128.402Z" fill="#E8E9F0"/>
<path d="M67.3523 129.829L70.6775 128.878L71.6275 128.64L77.5653 126.976L72.1025 130.304L73.0526 130.78L87.3033 138.863L135.756 110.809L139.081 109.858L145.969 107.956V109.144L87.7783 142.667L67.5898 131.017H67.3523V129.829Z" fill="#9497A1"/>
<path d="M72.1025 131.255L73.0526 130.78L87.3033 138.863L139.793 108.431L140.506 108.907L87.3033 139.814L72.1025 131.255Z" fill="#FFFEFF"/>
<path d="M26.5002 106.291L36.7132 103.438L31.2505 106.529L32.2005 107.242L32.9131 107.718L46.4512 115.326L94.6661 87.271L97.9912 86.32L101.554 85.369L104.879 84.418V85.369L46.9262 119.13L28.1628 108.431L26.5002 107.242V106.291Z" fill="#9497A1"/>
<path d="M46.9262 119.131V118.18L26.5002 106.292V107.243L46.9262 119.131Z" fill="#DBDCE0"/>
<path d="M31.2505 107.718L32.2005 107.242L32.9131 107.718L46.4512 115.326L98.9413 84.8936L99.6538 85.3691L46.4512 116.277L31.2505 107.718Z" fill="#FFFEFF"/>
<path d="M72.1025 131.256L125.543 100.348L140.506 108.907L139.793 109.62L125.543 101.299L73.0526 131.731L72.1025 131.256Z" fill="#9497A1"/>
<path d="M51.2014 119.13L104.642 88.2227L120.555 97.4949L119.842 97.9704L104.642 89.1737L52.1515 119.606L51.2014 119.13Z" fill="#9497A1"/>
<path d="M119.842 97.9704L120.555 97.4949L104.642 88.2227V89.1737L119.842 97.9704Z" fill="#DBDCE0"/>
<path d="M31.2505 107.717L84.6906 76.8096L99.6538 85.3686L98.9413 85.8441L84.6906 77.7606L32.2005 108.193L31.2505 107.717Z" fill="#9497A1"/>
<path d="M68.3023 130.304L68.5399 130.541L87.7783 141.716L145.731 107.955L125.305 96.0674L67.3523 129.828L68.3023 130.304ZM125.543 99.3959L140.743 108.193L87.3033 139.1L73.0526 130.779L72.1025 130.304L125.543 99.3959Z" fill="#F4F5FA"/>
<path d="M29.1129 107.956L46.9262 118.179L104.879 84.4183L84.4531 72.5308L26.5002 106.291L29.1129 107.956ZM99.6538 84.4183L46.2137 115.326L32.9131 107.718L31.963 107.242L31.2505 106.529L84.6906 75.6215L99.6538 84.4183Z" fill="#F4F5FA"/>
<path d="M31.2505 106.529L84.6906 75.6211L31.2505 106.529Z" fill="#62A6BD"/>
<path d="M72.1025 130.304L125.543 99.3965L140.506 107.956L139.793 108.431L125.543 100.347L73.0526 130.78L72.1025 130.304Z" fill="#9497A1"/>
<path d="M139.793 108.431L140.506 107.956L125.543 99.3965V100.347L139.793 108.431Z" fill="#DBDCE0"/>
<path d="M31.2505 106.529L84.6906 75.6211L99.6538 84.4179L98.9413 84.8934L84.6906 76.8098L32.2005 107.242L31.2505 106.529Z" fill="#9497A1"/>
<path d="M98.9414 84.8934L99.6539 84.4179L84.6907 75.6211V76.8098L98.9414 84.8934Z" fill="#DBDCE0"/>
<path d="M32.2004 107.242L84.6905 76.8096L98.9412 84.8931L97.9912 85.3686L84.6905 77.7606L32.913 107.717L32.2004 107.242Z" fill="#9497A1"/>
<path d="M52.1514 119.605L104.641 89.1733L119.842 97.9701L118.892 98.4456L104.641 90.3621L52.8639 120.081L52.1514 119.605Z" fill="#9497A1"/>
<path d="M73.0525 130.78L125.543 100.348L139.793 108.432L138.843 109.145L125.543 101.299L73.765 131.256L73.0525 130.78Z" fill="#9497A1"/>
<path d="M87.7783 142.668V141.717L67.3523 129.829V131.018L87.7783 142.668Z" fill="#DBDCE0"/>
<path d="M75.1899 101.061H75.665L79.9402 98.4456V98.2079L78.9901 97.4946L78.5151 97.7324L75.1899 101.061Z" fill="#C5C7CF"/>
<path d="M75.19 101.061V100.823L74.0024 100.11V100.348L75.19 101.061Z" fill="#C5C7CF"/>
<path d="M79.4652 98.2074L75.19 100.823L74.0024 100.109L78.5152 97.4941L79.4652 98.2074Z" fill="#FDFDFE"/>
<path d="M75.1899 101.061V100.823L79.4651 98.2075V98.4453L75.1899 101.061Z" fill="#9497A1"/>
<path d="M76.8528 99.3973L77.5653 99.1595V98.2085L76.8528 98.4463V99.3973Z" fill="#9497A1"/>
<path d="M76.8527 98.4457L77.5652 98.2079L76.8527 97.7324L76.1401 98.2079L76.8527 98.4457Z" fill="#A21B00"/>
<path d="M76.8527 98.4463V99.3973L76.1401 99.1595V98.2085L76.8527 98.4463Z" fill="#C5C7CF"/>
<path d="M72.8152 95.5922L73.5277 95.1167L77.5654 97.4942L76.8529 97.732L72.8152 95.5922Z" fill="#FDFDFE"/>
<path d="M76.8528 97.7319L77.5653 97.4941V98.2074L76.8528 98.6829V97.7319Z" fill="#9497A1"/>
<path d="M76.8526 97.7325L72.8149 95.5928V96.306L76.8526 98.6835V97.7325Z" fill="#C5C7CF"/>
<path d="M97.9912 114.136H98.4662L102.979 111.521V111.283L101.791 110.808H101.316L97.9912 114.136Z" fill="#C5C7CF"/>
<path d="M97.9913 114.136V113.898L96.8037 113.185V113.661L97.9913 114.136Z" fill="#C5C7CF"/>
<path d="M102.504 111.283L97.9913 113.898L96.8037 113.185L101.316 110.807L102.504 111.283Z" fill="#FDFDFE"/>
<path d="M97.9912 114.136V113.898L102.504 111.283V111.759L97.9912 114.136Z" fill="#9497A1"/>
<path d="M99.6541 112.71L100.367 112.234V111.283L99.6541 111.759V112.71Z" fill="#9497A1"/>
<path d="M99.654 111.759L100.367 111.283L99.654 111.045L99.179 111.283L99.654 111.759Z" fill="#A21B00"/>
<path d="M99.654 111.759V112.71L99.179 112.234V111.283L99.654 111.759Z" fill="#C5C7CF"/>
<path d="M98.9414 110.57L99.6539 110.095L103.692 112.472L102.979 112.948L98.9414 110.57Z" fill="#FDFDFE"/>
<path d="M102.979 112.948L103.692 112.472V113.185L102.979 113.661V112.948Z" fill="#9497A1"/>
<path d="M102.979 112.948L98.9414 110.57V111.521L102.979 113.661V112.948Z" fill="#C5C7CF"/>
<path d="M88.491 98.6814H87.3035C86.591 97.7304 85.6409 97.0171 84.4534 96.0661C78.9906 92.9754 70.2027 92.9754 64.9774 96.0661C63.7898 96.7794 62.8398 97.4926 62.1273 98.4436H60.9397V101.772C60.9397 103.912 62.3648 105.814 64.9774 107.478C70.4402 110.569 79.2281 110.569 84.4534 107.478C87.066 105.814 88.491 103.912 88.491 101.772V98.6814Z" fill="#736D6A"/>
<path d="M84.4534 104.388C78.9906 107.479 70.2027 107.479 64.9774 104.388C59.5147 101.297 59.5147 96.3043 64.9774 92.9758C70.4402 89.885 79.2281 89.885 84.4534 92.9758C89.9162 96.3043 89.9162 101.297 84.4534 104.388Z" fill="#D6D6D6"/>
<path d="M83.0282 96.542H82.3157C81.8406 96.0665 81.3656 95.591 80.6531 95.1155C77.3279 93.2135 72.1027 93.2135 69.015 95.1155C68.3025 95.591 67.8275 96.0665 67.3524 96.542H66.6399V98.444C66.6399 99.6327 67.3524 100.821 69.015 101.772C72.3402 103.675 77.5654 103.675 80.6531 101.772C82.3157 100.821 83.0282 99.6327 83.0282 98.444V96.542Z" fill="#736D6A"/>
<path d="M80.6532 99.8706C77.328 101.773 72.1028 101.773 69.0151 99.8706C65.6899 97.9686 65.6899 94.8779 69.0151 93.2136C72.3403 91.3116 77.5655 91.3116 80.6532 93.2136C83.7408 94.8779 83.7408 97.9686 80.6532 99.8706Z" fill="#E7E7E7"/>
<path d="M66.6401 93.2144L63.3149 95.1164V81.5646L66.6401 79.6626V93.2144Z" fill="#E8E8E8"/>
<path d="M60.7021 93.4512L63.3148 95.1155V81.5637L60.7021 79.8994V93.4512Z" fill="#8C8782"/>
<path d="M66.6399 79.6618L63.3148 81.5638L61.8897 80.6128L60.7021 79.8996L61.8897 79.1863L63.7898 77.9976L66.6399 79.6618Z" fill="#F7F7F6"/>
<path d="M42.8887 100.108L45.5013 101.535L107.492 67.5364L105.117 66.1099L42.8887 100.108Z" fill="#FCCC45"/>
<path d="M45.5012 101.536V103.438L107.492 69.6769V67.5371L45.5012 101.536Z" fill="#A64900"/>
<path d="M42.8887 100.108V102.248L45.5013 103.436V101.534L42.8887 100.108Z" fill="#CE7400"/>
<path d="M104.879 68.2501L100.604 70.8654V65.6348L104.879 63.2573V68.2501Z" fill="#E8E8E8"/>
<path d="M59.2771 46.8526L100.604 70.8655V65.635L59.2771 41.8599V46.8526Z" fill="#8C8782"/>
<path d="M104.88 63.2575L100.605 65.635L61.6527 43.0486L59.2776 41.8599L61.6527 40.4334L63.5528 39.2446L104.88 63.2575Z" fill="#F7F7F6"/>
<path d="M44.5513 84.6558L49.539 87.271L94.9037 62.5449L90.1535 59.6919L44.5513 84.6558Z" fill="#F7F7F6"/>
<path d="M49.5391 87.272V91.076L94.9038 66.3499V62.5459L49.5391 87.272Z" fill="#E8E8E8"/>
<path d="M44.5513 84.6562V88.4603L49.539 91.0755V87.2715L44.5513 84.6562Z" fill="#CE7400"/>
<path d="M57.8521 93.4517L53.5769 95.8292V90.8364L57.8521 88.2212V93.4517Z" fill="#E8E8E8"/>
<path d="M12.2498 72.0538L53.5768 95.8289V90.8361L12.2498 66.8232V72.0538Z" fill="#8C8782"/>
<path d="M57.8522 88.2214L53.577 90.8367L14.3876 68.2503L12.25 66.8238L14.3876 65.635L16.5252 64.4463L57.8522 88.2214Z" fill="#F7F7F6"/>
<path d="M78.2778 96.543L74.9526 98.2072V84.6554L78.2778 82.7534V96.543Z" fill="#E8E8E8"/>
<path d="M72.3401 96.7813L74.9527 98.2078V84.656L72.3401 82.9917V96.7813Z" fill="#8C8782"/>
<path d="M78.2779 82.7532L74.9527 84.6552L73.5276 83.7042L72.3401 82.9909L73.2901 82.5154L75.4277 81.3267L78.2779 82.7532Z" fill="#F7F7F6"/>
<path d="M81.1281 85.8444L74.7153 89.6484V79.4252L81.1281 75.8589V85.8444Z" fill="#E8E8E8"/>
<path d="M59.7522 80.8518L74.7154 89.6485V79.4252L59.7522 70.8662V80.8518Z" fill="#8C8782"/>
<path d="M81.1282 75.8583L74.7154 79.4246L61.8898 72.0543L59.7522 70.8655L61.8898 69.439L65.9275 67.0615L81.1282 75.8583Z" fill="#F7F7F6"/>
<path d="M72.5778 73.2433L69.2527 75.1453V70.1525L72.5778 68.2505V73.2433Z" fill="#E8E8E8"/>
<path d="M66.6399 73.4806L69.2525 75.1448V70.152L66.6399 68.4878V73.4806Z" fill="#8C8782"/>
<path d="M72.5777 68.2502L69.2525 70.1522L67.8275 69.2012L66.6399 68.4879L67.5899 67.7747L69.7275 66.5859L72.5777 68.2502Z" fill="#F7F7F6"/>
<path d="M42.8887 79.4247L45.5013 80.8512L107.492 46.8528L105.117 45.4263L42.8887 79.4247Z" fill="#FCCC45"/>
<path d="M45.5012 80.8514V82.7534L107.492 48.755V46.853L45.5012 80.8514Z" fill="#A64900"/>
<path d="M42.8887 79.4238V81.3258L45.5013 82.7523V80.8503L42.8887 79.4238Z" fill="#CE7400"/>
<path d="M73.7654 70.3902L69.4902 72.7677V67.775L73.7654 65.3975V70.3902Z" fill="#E8E8E8"/>
<path d="M60.7021 67.7745L69.4901 72.7673V67.7745L60.7021 62.7817V67.7745Z" fill="#8C8782"/>
<path d="M73.7653 65.397L69.4901 67.7745L62.8398 63.9705L60.7021 62.7818L62.8398 61.3553L64.9774 60.1665L73.7653 65.397Z" fill="#F7F7F6"/>
</svg>
