<svg width="224" height="369" viewBox="0 0 224 369" fill="none" xmlns="http://www.w3.org/2000/svg">
<path d="M29.3188 -0.000488281L18.7587 6.02529L21.4741 231.992L212.462 344.674L223.022 338.648V112.079L29.3188 -0.000488281ZM167.506 241.633L71.2576 186.196V63.8727L167.506 119.611V241.633Z" fill="#665D47"/>
<path d="M18.7587 6.02539V232.896L212.462 344.975V117.803L18.7587 6.02539ZM71.2576 63.8728L167.506 119.611V241.633L71.2576 186.196V63.8728Z" fill="#827C5A"/>
<path d="M61.6024 58.1475V191.618L71.2574 186.195V63.872L61.6024 58.1475Z" fill="#474536"/>
<path d="M212.461 117.804V344.976L223.021 338.95V112.08L212.461 117.804Z" fill="#474536"/>
<path d="M167.506 246.755L140.653 235.607L159.661 251.274V257.3L167.506 252.781V246.755Z" fill="#B57745"/>
<path d="M159.661 251.272L62.8096 191.015L59.189 193.124V199.149L159.661 257.298V251.272Z" fill="#CDA483"/>
<path d="M71.2577 186.195L59.189 193.125L159.661 251.274L167.506 246.754V241.632L71.2577 186.195Z" fill="#FFCB9E"/>
<path d="M50.1373 295.866C38.672 302.494 20.2672 302.494 9.1036 295.866C-2.36168 289.237 -2.36168 278.692 9.1036 272.064C20.5689 265.436 38.9737 265.436 50.1373 272.064C61.3008 278.692 61.3008 289.237 50.1373 295.866Z" fill="#ACB5B4"/>
<path d="M195.565 363.656C184.1 370.285 165.695 370.285 154.532 363.656C143.066 357.028 143.066 346.483 154.532 339.855C165.997 333.226 184.402 333.226 195.565 339.855C206.729 346.483 206.729 357.028 195.565 363.656Z" fill="#ACB5B4"/>
<path d="M66.43 147.932C66.1283 148.836 61.3008 154.259 61.3008 154.862C60.9991 155.163 58.8871 162.394 57.3785 165.708C55.8699 169.022 52.551 177.157 49.2321 177.458C45.9132 177.76 42.896 175.952 40.1806 174.747C37.4651 173.542 34.4479 169.926 34.4479 169.926C33.2411 167.516 33.8445 166.311 35.3531 165.407C36.56 164.804 37.7668 164.503 38.9737 164.202C40.1806 163.9 41.3874 163.9 41.3874 164.202C41.6892 164.503 45.9132 167.215 45.9132 167.215C45.9132 167.215 52.2493 160.285 53.4562 156.971C54.3613 154.56 55.5682 152.451 56.1716 150.945C56.4733 150.342 56.4733 150.041 56.4733 149.74C56.7751 148.535 59.1888 146.124 59.4905 145.823C59.4905 145.522 62.206 146.426 64.0163 147.028C65.8266 147.329 66.7318 147.631 66.43 147.932Z" fill="#FAC5A8"/>
<path d="M61.3009 141.606C61.3009 141.606 61.9043 142.209 61.3009 143.113C60.6974 144.318 60.094 144.921 60.094 144.921L59.4906 145.824V147.933C59.4906 147.933 59.1888 150.344 58.5854 150.946C58.2837 151.549 57.0768 151.549 56.7751 151.248C56.4734 150.946 57.0768 145.222 57.3785 144.921C57.6803 144.619 58.5854 144.017 59.1888 143.113C60.094 142.51 60.094 141.004 61.3009 141.606Z" fill="#FAC5A8"/>
<path d="M41.689 164.803C41.0856 164.501 40.4821 164.501 39.2753 164.2C40.4821 163.899 41.689 163.899 41.689 164.2C41.9907 164.501 46.2148 167.213 46.2148 167.213C46.2148 167.213 52.5509 160.283 53.7577 156.969C54.6629 154.559 55.8698 152.45 56.4732 150.943C55.8698 152.751 54.6629 156.065 54.0595 158.174C52.8526 160.886 47.4217 167.213 47.4217 167.213L47.1199 168.719L46.8182 171.13L46.2148 167.816C46.2148 167.816 44.7062 165.707 41.689 164.803Z" fill="#F8D1BC"/>
<path d="M66.43 147.933C66.1283 148.837 61.3008 154.26 61.3008 154.862C60.9991 155.164 58.8871 162.395 57.3785 165.709C55.8699 169.023 52.551 177.158 49.2321 177.459C45.9132 177.76 42.896 175.953 40.1806 174.747C37.4651 173.542 34.4479 169.927 34.4479 169.927C33.2411 167.516 33.8445 166.311 35.3531 165.407C35.3531 166.01 35.3531 166.914 35.3531 168.119C35.3531 168.119 36.2582 170.831 40.4823 173.542C44.7063 176.254 46.8184 176.254 47.7235 176.555C49.5338 176.856 50.7407 175.35 52.8527 172.036C54.9648 168.722 57.6802 162.696 58.2837 160.286C58.8871 157.875 59.7922 152.151 59.7922 152.151C59.7922 152.151 63.1111 149.74 64.318 146.728C65.8266 147.33 66.7318 147.631 66.43 147.933Z" fill="#F8D1BC"/>
<path d="M42.2927 163.901C42.2927 163.901 42.8961 166.01 40.4824 167.215C38.0686 168.42 35.9566 171.132 34.7497 171.132C33.2412 170.831 26.9051 155.465 27.8102 154.862C28.7154 154.26 28.4137 152.753 29.0171 152.753C29.6205 152.753 36.5601 158.177 37.4652 159.08C38.0686 160.286 42.2927 163.901 42.2927 163.901Z" fill="#203581"/>
<path d="M150.308 239.523C150.308 239.523 150.308 239.825 150.308 240.427C150.006 242.536 148.799 248.261 147.592 248.562H147.291C145.48 247.357 144.575 244.947 143.972 242.536C143.368 239.825 143.368 232.895 143.368 232.895L140.351 230.786C140.351 230.786 139.748 230.183 138.842 229.28C137.937 228.376 137.032 227.171 137.334 226.869C137.334 225.965 144.273 225.363 144.273 225.363L150.308 229.581L150.911 229.882C150.911 229.882 150.609 231.087 150.308 231.69C150.006 232.292 150.308 232.895 150.308 233.196C150.308 233.498 150.609 235.305 150.609 237.113C150.308 238.318 150.308 239.523 150.308 239.523Z" fill="#FAC5A8"/>
<path d="M159.057 241.933C158.152 242.837 154.532 247.959 153.325 248.561C152.118 249.164 150.308 250.068 149.101 250.068C148.497 250.068 147.894 249.465 146.989 248.561C145.178 247.356 144.273 244.946 143.67 242.536C143.066 239.824 143.066 232.894 143.066 232.894L140.049 230.785C140.049 230.785 139.446 230.183 138.541 229.279C138.541 229.279 141.558 231.388 141.859 231.689C142.161 231.99 143.971 232.593 143.971 232.593C143.971 232.593 143.971 235.606 143.971 236.51C143.971 237.414 143.971 240.728 143.67 241.632C143.67 242.536 144.877 244.946 144.877 244.946C144.877 244.946 144.877 245.247 145.178 245.548C145.782 246.452 146.989 248.26 147.29 248.863C147.894 249.766 149.704 249.766 150.609 249.465C151.514 249.164 153.928 246.754 154.532 245.548C155.135 244.645 156.342 242.536 156.342 242.536L157.85 239.824C158.756 240.728 159.359 241.632 159.057 241.933Z" fill="#F8D1BC"/>
<path d="M137.032 226.569C137.032 226.569 139.144 228.678 140.049 228.98C140.954 229.281 142.463 228.377 142.463 228.377H145.178L149.402 228.98L143.971 225.063C143.971 225.063 139.747 225.666 138.239 225.967C136.73 225.967 137.032 226.569 137.032 226.569Z" fill="#F8D1BC"/>
<path d="M87.852 189.51L66.4301 177.157L60.6974 96.1108L59.7923 81.6489L58.5854 80.7451L59.1888 90.6876L65.5249 177.76L88.4555 191.017L87.852 189.51ZM57.982 81.0463L59.1888 81.9502L57.982 81.0463ZM153.928 123.528L55.2665 66.2832L51.6459 68.9948L60.9991 177.459L61.3009 180.773L158.454 238.319L162.075 235.909L153.928 123.528ZM90.5675 192.824L87.852 191.318V189.812L66.4301 177.459L60.6974 96.4121L59.7923 81.9502L58.5854 81.0463L59.1888 90.9889L65.5249 178.061L58.5854 81.0463L57.6802 75.6232V75.0206L86.3434 91.5915L93.283 194.331L90.5675 192.824ZM96.3001 194.632L89.3606 97.6172L113.498 111.477L120.438 208.491L96.3001 194.632ZM126.774 213.613L120.438 126.541L119.834 116.598L121.041 117.201L142.463 129.554L148.799 217.53L149.403 225.062V226.569L126.774 213.613ZM57.982 81.0463L59.1888 81.9502L57.982 81.0463ZM87.852 189.51L66.4301 177.157L60.6974 96.1108L59.7923 81.6489L58.5854 80.7451L59.1888 90.6876L65.5249 177.76L88.4555 191.017L87.852 189.51Z" fill="#7B7F8B"/>
<path d="M150.609 125.938L51.6459 68.9946L59.7923 181.375L158.756 238.319L150.609 125.938ZM57.982 81.0462L59.1888 81.95L60.3957 82.5526L80.6108 94.3029L87.852 189.51V191.017L64.9215 177.76L57.982 81.0462ZM119.834 116.598L121.041 117.201L142.463 129.554L148.799 217.53L149.403 225.062V226.569L126.472 213.312L120.438 126.541L119.834 116.598ZM113.8 111.476L120.739 208.491L96.6019 194.632L89.6623 97.6171L113.8 111.476Z" fill="#C5C7CF"/>
<path d="M117.119 109.368L116.817 109.67L85.7402 91.8936L86.042 91.5923L117.119 109.368Z" fill="#DBDCE0"/>
<path d="M85.7402 91.8926L93.2832 197.645L122.852 214.818L124.058 215.421L116.515 109.669L85.7402 91.8926ZM120.74 208.491L96.6021 194.632L89.6626 97.6171L113.8 111.476L120.74 208.491Z" fill="#E8E9F0"/>
<path d="M155.135 233.198L153.928 233.801L150.609 222.954L149.101 217.833L142.764 129.856L121.041 117.202L119.834 116.6L120.437 126.542L115.61 110.574L116.817 109.67L147.592 127.446L155.135 233.198Z" fill="#9497A1"/>
<path d="M150.911 225.967L149.403 225.364L149.101 217.832L142.765 129.856L121.041 117.202V115.695L143.972 128.952L150.609 222.954L150.911 225.967Z" fill="#FFFEFF"/>
<path d="M93.283 197.343L92.0761 198.247L90.5675 192.823L88.7572 187.4L87.2486 182.278L80.9126 94.0008L60.6974 82.5518L59.4906 81.6479L60.3957 96.1098L58.8871 90.9879V90.6866L53.7579 74.7183L54.9648 74.1157L57.6803 75.6222L85.74 91.8918L93.283 194.33V197.343Z" fill="#9497A1"/>
<path d="M85.74 91.8923L84.5332 92.4948L53.7579 74.7188L54.9648 73.8149L85.74 91.8923Z" fill="#DBDCE0"/>
<path d="M89.0589 190.413L87.8521 189.509L87.2486 182.278L80.9125 94.0009L60.6974 82.5519L59.4906 81.648L59.1888 80.1416L82.1194 93.3983L88.7572 187.4L89.0589 190.413Z" fill="#FFFEFF"/>
<path d="M121.041 115.693L127.981 212.708L150.911 225.965L150.609 224.458L129.187 212.105L122.248 116.597L121.041 115.693Z" fill="#9497A1"/>
<path d="M89.3608 97.6157L96.3004 194.631L120.74 208.49L120.438 206.984L97.5072 193.727L90.8694 98.2183L89.3608 97.6157Z" fill="#9497A1"/>
<path d="M120.437 206.985L120.739 208.491L96.3 194.632L97.5069 193.728L120.437 206.985Z" fill="#DBDCE0"/>
<path d="M59.1888 80.1416L66.1284 177.157L89.0589 190.413V188.907L67.3352 176.253L60.6974 80.7442L59.1888 80.1416Z" fill="#9497A1"/>
<path d="M116.817 111.176L115.61 110.573L123.153 216.326L153.928 234.102L146.385 128.349L116.817 111.176ZM149.704 226.871L126.773 213.614L119.834 116.599L142.764 129.856L149.704 226.871Z" fill="#F4F5FA"/>
<path d="M53.7579 74.7188L61.3009 180.471L92.0761 198.247L84.5332 92.4948L53.7579 74.7188ZM87.8521 191.317L64.9215 178.061L57.982 81.0458L59.1889 81.9497L60.3957 82.5523L80.6108 94.3025L87.8521 191.317Z" fill="#F4F5FA"/>
<path d="M119.834 116.599L126.774 213.614L149.704 226.871L149.402 225.364L127.98 212.71L121.041 117.202L119.834 116.599Z" fill="#9497A1"/>
<path d="M149.402 225.363L149.704 226.87L126.773 213.613L127.98 212.709L149.402 225.363Z" fill="#DBDCE0"/>
<path d="M57.9821 81.0459L64.9216 178.061L87.8521 191.318V189.51L66.1284 177.157L59.4906 81.6485L57.9821 81.0459Z" fill="#9497A1"/>
<path d="M87.8517 189.509V191.317L64.9211 178.06L66.128 177.156L87.8517 189.509Z" fill="#DBDCE0"/>
<path d="M82.4212 194.03L83.3264 193.728L84.835 192.824L83.6281 190.414L80.0075 188.908L77.292 187.401L76.3869 184.69L78.4989 184.087L78.8006 182.882L77.5937 182.279L70.0508 184.087L74.2748 190.113L77.5937 192.824L82.4212 194.03Z" fill="#7B7F8B"/>
<path d="M59.4905 81.6489L66.1283 177.157L87.852 189.51L87.5502 188.004L67.3351 176.254L60.6973 82.5528L59.4905 81.6489Z" fill="#9497A1"/>
<path d="M90.8691 98.2192L97.5069 193.728L120.438 206.984V205.478L98.7138 192.824L92.076 99.1231L90.8691 98.2192Z" fill="#9497A1"/>
<path d="M121.041 117.203L127.981 212.711L149.403 225.365V223.558L129.187 212.109L122.55 118.107L121.041 117.203Z" fill="#9497A1"/>
<path d="M147.592 127.447L146.385 128.351L115.61 110.575L116.817 109.671L147.592 127.447Z" fill="#DBDCE0"/>
<path d="M87.5504 144.618L87.8521 145.221L88.4555 153.356H87.8521L86.6452 152.753L86.3435 151.849L87.5504 144.618Z" fill="#C5C7CF"/>
<path d="M87.5503 144.617H86.9468L85.4382 143.713L85.7399 143.412L87.5503 144.617Z" fill="#C5C7CF"/>
<path d="M87.5503 152.75L86.9468 144.615L85.4382 143.711L86.0417 151.846L87.5503 152.75Z" fill="#E0F7FF"/>
<path d="M87.5502 144.618H86.9468L87.5502 152.753L88.1536 152.452L87.5502 144.618Z" fill="#9497A1"/>
<path d="M86.9469 148.231L87.2486 149.135L86.0417 150.039L85.74 148.834L86.9469 148.231Z" fill="#9497A1"/>
<path d="M85.7401 148.832L86.0418 150.037L84.835 149.435V148.531L85.7401 148.832Z" fill="#A21B00"/>
<path d="M85.7401 148.833L86.947 148.23L86.0418 147.627L84.835 148.531L85.7401 148.833Z" fill="#C5C7CF"/>
<path d="M78.8008 146.122L79.1025 147.327L85.1369 150.942L84.8351 149.436L78.8008 146.122Z" fill="#E0F7FF"/>
<path d="M84.8354 149.438L85.1372 150.944L86.0423 150.04V148.835L84.8354 149.438Z" fill="#9497A1"/>
<path d="M84.8351 149.436L78.8008 146.122L80.0077 145.218L86.042 148.834L84.8351 149.436Z" fill="#C5C7CF"/>
<path d="M121.946 164.503L122.248 165.106L122.851 173.24L122.549 173.542L121.041 172.638L120.739 171.734L121.946 164.503Z" fill="#C5C7CF"/>
<path d="M121.946 164.504L121.644 164.805L119.834 163.6H120.437L121.946 164.504Z" fill="#C5C7CF"/>
<path d="M122.247 172.639L121.644 164.805L119.834 163.6L120.437 171.735L122.247 172.639Z" fill="#E0F7FF"/>
<path d="M121.946 164.503L121.644 164.804L122.247 172.638H122.549L121.946 164.503Z" fill="#9497A1"/>
<path d="M121.645 168.119V169.023L120.438 169.926V169.023L121.645 168.119Z" fill="#9497A1"/>
<path d="M120.438 169.021V169.925L119.532 169.322V168.418L120.438 169.021Z" fill="#A21B00"/>
<path d="M120.438 169.022L121.645 168.118L120.74 167.516L119.533 168.42L120.438 169.022Z" fill="#C5C7CF"/>
<path d="M118.325 168.722L118.627 170.229L124.662 173.543V172.338L118.325 168.722Z" fill="#E0F7FF"/>
<path d="M124.662 172.337V173.542L125.567 172.94V171.734L124.662 172.337Z" fill="#9497A1"/>
<path d="M124.662 172.337L118.326 168.721L119.533 168.119L125.567 171.734L124.662 172.337Z" fill="#C5C7CF"/>
<path d="M33.2412 273.872C33.2412 273.872 32.3361 275.077 32.0344 275.379C32.0344 275.981 31.7326 277.186 32.0344 278.09C32.3361 278.693 34.7498 279.898 35.9567 279.898C36.8619 279.898 38.6722 280.5 39.2756 280.802C39.879 281.103 41.9911 283.212 44.1031 284.417C45.9134 285.622 49.2323 286.526 50.7409 286.225C52.2495 285.924 53.1546 284.718 53.1546 284.116C53.1546 283.815 53.4563 282.007 52.8529 281.404C52.2495 280.802 43.1979 278.09 43.1979 278.09L33.2412 273.872Z" fill="#3E362F"/>
<path d="M33.2411 270.857C33.2411 270.857 32.3359 274.472 32.3359 275.677C32.3359 276.882 36.2583 278.087 38.3703 279.594C40.4823 281.1 44.1029 283.812 47.4218 284.716C50.7407 285.62 52.551 284.415 52.551 282.607C52.551 280.498 49.8356 278.389 48.6287 277.184C47.4218 275.978 40.4823 272.363 40.4823 272.363L38.3703 269.953L33.2411 270.857Z" fill="#524B45"/>
<path d="M24.7928 220.24C24.7928 221.144 24.7928 222.35 25.0946 223.253C25.0946 223.856 25.0946 224.157 25.3963 224.76C25.698 227.17 26.3014 229.58 26.3014 231.087C26.3014 235.305 29.3186 244.344 29.3186 244.344C29.3186 244.344 29.3186 248.863 29.6203 253.382C29.9221 257.6 32.3358 271.158 32.9392 272.363C33.2409 272.665 33.5427 273.267 34.4478 273.569C35.353 274.171 36.8616 274.472 38.6719 274.472C41.6891 274.472 42.5942 272.062 42.5942 272.062C42.5942 272.062 41.3873 246.754 41.6891 244.344C41.6891 242.837 41.9908 235.908 41.9908 228.375C41.9908 224.459 41.6891 220.843 41.0856 217.529C41.0856 216.926 40.7839 216.324 40.7839 215.721C40.7839 215.42 40.7839 215.119 40.7839 215.119C40.1805 211.804 38.6719 210.599 36.8616 210.298C33.8444 209.997 30.2238 212.708 27.5083 214.817C25.3963 215.721 24.7928 217.83 24.7928 220.24Z" fill="#2B4396"/>
<path d="M34.1461 273.269C33.5427 272.967 32.9392 272.365 32.6375 272.063C32.0341 271.16 29.6203 257.602 29.3186 253.082C29.0169 248.864 29.0169 244.044 29.0169 244.044C29.0169 244.044 25.9997 235.005 25.9997 230.787C25.9997 228.075 24.7928 223.857 24.7928 219.94C27.5083 220.844 29.6203 222.049 29.6203 222.049C29.6203 222.049 29.6203 229.582 29.6203 231.389C29.6203 233.197 29.6203 238.62 30.5255 242.838C31.4306 247.056 31.4306 250.973 31.4306 252.781C31.4306 253.986 33.2409 266.64 34.1461 273.269Z" fill="#6C8FC2"/>
<path d="M8.80172 277.788C8.80172 277.788 7.59485 278.089 7.89657 279.295C7.89657 280.5 7.89657 281.705 7.89657 281.705C7.89657 281.705 8.80172 282.91 9.40516 283.211C10.0086 283.513 10.612 284.115 10.612 284.115C10.612 284.115 11.5172 288.634 13.6292 290.141C15.4395 291.647 18.155 292.551 20.8704 292.25C23.5859 291.949 24.4911 290.442 24.4911 290.442C24.4911 290.442 24.7928 289.237 24.4911 288.333C24.1893 287.429 18.7584 284.718 18.7584 284.718L8.80172 277.788Z" fill="#3E362F"/>
<path d="M17.8536 275.98C17.8536 275.98 19.9657 280.499 21.4743 282.608C23.2846 284.717 24.4914 287.73 24.4914 288.935C24.4914 289.839 22.9829 291.647 19.664 291.345C16.3451 291.044 14.233 289.538 13.0262 288.031C11.8193 286.525 10.3107 282.307 10.009 281.704C9.40554 281.102 8.19867 279.595 8.50039 278.691C8.50039 277.787 9.70726 273.569 9.70726 273.569L17.8536 275.98Z" fill="#524B45"/>
<path d="M29.6204 222.651C29.3186 225.664 25.0946 242.837 23.8877 247.959C22.6808 253.382 19.0602 275.376 18.4568 276.581C17.8534 277.786 16.9482 278.389 13.3276 277.786C11.2156 277.485 10.0087 276.581 9.40526 275.677C9.10354 275.075 8.80182 274.472 9.10354 274.171C9.40526 273.267 7.59495 259.709 7.89667 253.985C8.19838 248.26 10.6121 243.741 10.6121 242.536C10.6121 241.331 8.5001 227.773 7.59495 224.76C6.68979 221.747 6.99151 215.118 6.99151 215.118L11.819 204.875L12.4224 203.669C12.4224 203.669 28.1118 209.997 28.1118 210.599C27.5083 211.503 29.9221 219.638 29.6204 222.651Z" fill="#2B4396"/>
<path d="M9.10354 274.473C9.40526 273.569 7.59495 260.011 7.89667 254.286C8.19838 248.562 10.6121 244.043 10.6121 242.837C10.6121 241.632 8.5001 228.074 7.59495 225.061C6.68979 222.048 6.99151 215.42 6.99151 215.42L11.819 205.176C11.5173 208.792 10.9138 211.202 10.3104 214.516C9.10354 220.241 12.4224 239.222 12.1207 242.235C11.819 245.248 8.5001 254.286 9.40526 259.71C10.0087 263.325 10.6121 274.171 9.40526 275.979C9.10354 275.377 8.80182 274.774 9.10354 274.473Z" fill="#6C8FC2"/>
<path d="M7.29333 214.216C7.29333 215.12 7.59505 222.351 17.25 223.556C19.9655 223.857 22.6809 223.857 25.0947 223.254C29.9222 222.652 33.8445 220.844 35.9565 219.639C36.2583 219.338 36.8617 219.036 37.1634 219.036C37.4651 219.036 37.4651 218.735 37.4651 218.735C38.3703 217.831 39.5772 216.024 40.4823 214.818C41.0857 213.915 41.3875 213.011 41.3875 213.011C41.3875 213.011 40.1806 204.575 39.8789 194.331C39.8789 189.51 39.2754 184.087 38.672 179.266C38.672 177.76 38.3703 176.555 38.3703 175.35C38.3703 174.446 38.0686 173.542 38.0686 172.939C38.0686 172.638 38.0686 172.638 38.0686 172.337C37.7668 171.132 37.7668 170.228 37.7668 169.926V169.625C37.7668 169.625 35.3531 158.176 34.448 156.368C33.8445 155.163 31.1291 152.753 28.1119 151.246C27.2067 150.644 26.3016 150.343 25.3964 150.041C21.7758 148.836 16.9483 147.932 13.6294 153.657C10.3105 159.08 8.19849 163.901 8.19849 172.035C8.19849 176.555 8.50021 182.882 8.80192 188.004C8.80192 188.908 8.80193 189.811 9.10364 190.715C9.10364 192.222 9.10364 193.126 9.10364 193.728C9.10364 194.933 9.10364 195.837 9.10364 196.138C8.19849 198.549 7.29333 213.312 7.29333 214.216Z" fill="#172B6F"/>
<path d="M6.68988 219.639C9.70706 223.255 15.4397 225.364 22.3792 225.062C23.2844 225.062 24.1895 225.062 25.0947 224.761C30.2239 223.857 35.6548 221.748 38.3703 219.639C38.9737 219.338 39.2754 218.735 39.5771 218.434C39.8789 217.831 40.1806 217.53 40.4823 216.928C41.3875 214.517 41.0857 211.203 41.0857 211.203L39.5771 181.677L38.0686 178.965L34.7497 172.638C34.7497 172.638 33.5428 158.176 32.3359 156.369C31.4308 154.561 27.5084 151.247 27.5084 151.247L22.9826 150.042C22.9826 150.042 28.1119 156.369 29.3187 158.478C29.9222 159.381 30.5256 161.792 31.4308 164.503C32.6376 168.119 33.5428 172.337 33.8445 172.638C33.8445 172.337 32.6376 170.228 31.4308 167.818C29.9222 164.805 28.1119 161.792 26.905 161.49C24.793 160.587 19.9655 159.984 17.8534 159.984C15.7414 159.984 12.4225 160.888 10.6122 162.093C8.8019 163.298 7.89675 169.927 7.89675 170.83C7.89675 171.433 8.19847 181.074 8.50018 187.703C8.50018 188.305 7.59503 206.684 7.59503 207.889C7.29331 209.094 6.38816 219.338 6.68988 219.639ZM32.9393 178.061C32.3359 181.677 31.129 189.51 30.8273 192.523C30.5256 193.427 30.5256 194.03 30.5256 194.03L28.1119 197.344C28.1119 197.344 27.8101 204.273 23.5861 204.876C19.362 205.78 14.5345 206.382 12.7242 203.671C10.9139 200.959 10.0088 189.51 10.0088 189.51L9.40534 189.209C9.40534 180.773 9.70706 167.516 10.3105 166.612C11.2156 165.407 13.9311 164.503 13.9311 164.503C13.9311 164.503 19.0603 161.792 24.4912 162.997C27.5084 163.599 30.2239 166.914 31.7325 170.529C32.6376 173.241 33.2411 176.254 32.9393 178.061Z" fill="#2B4396"/>
<path d="M30.2238 148.234C29.3186 150.343 28.1118 152.151 28.1118 153.055C28.1118 153.959 28.7152 156.972 28.7152 156.972C28.7152 156.972 29.3187 159.683 26.9049 159.382C24.4912 159.081 19.6637 157.876 17.5516 156.369C15.4396 154.863 14.8362 153.055 14.8362 152.452C14.8362 152.151 14.8362 151.85 15.1379 151.549C15.4396 150.946 15.7413 150.343 16.0431 149.138C16.3448 146.728 13.0259 139.497 13.0259 139.497C13.0259 139.497 16.0431 129.555 21.474 133.17C26.3015 136.183 30.2238 143.414 30.5255 147.029C30.2238 147.632 30.2238 147.933 30.2238 148.234Z" fill="#FAC5A8"/>
<path d="M30.2238 148.234C29.3186 150.343 28.1118 152.151 28.1118 153.055C28.1118 153.959 28.7152 156.972 28.7152 156.972C28.7152 156.972 29.3186 159.683 26.9049 159.382C24.4912 159.081 19.6637 157.876 17.5516 156.369C15.4396 154.863 14.8362 153.055 14.8362 152.452C14.8362 152.151 14.8362 151.85 15.1379 151.549C15.1379 151.85 15.1379 152.151 15.1379 152.151C15.1379 153.055 16.6465 153.959 18.1551 155.164C19.362 156.369 22.6808 157.574 23.586 157.876C24.1894 158.177 26.6032 158.478 26.6032 158.478C26.6032 158.478 26.9049 154.561 26.9049 153.658C26.9049 152.754 27.8101 150.645 27.8101 150.645C27.8101 150.645 27.5083 150.042 26.6032 150.042C25.698 150.042 21.474 147.029 21.474 147.029C22.9826 145.824 27.2066 146.125 30.5255 147.029C30.2238 147.632 30.2238 147.933 30.2238 148.234Z" fill="#F8D1BC"/>
<path d="M33.8446 147.633C33.8446 147.633 33.8446 148.537 32.6377 148.838C31.4308 149.139 29.6205 149.44 27.8102 149.139C26.3016 148.838 21.1724 147.633 19.9655 146.428C18.7587 145.222 14.5346 138.594 14.8363 136.786C15.138 134.979 13.026 128.049 16.0432 126.543C19.0604 125.036 24.4913 123.831 27.2068 126.844C29.9222 129.857 31.1291 133.773 31.1291 133.773C31.1291 133.773 31.1291 135.28 31.1291 135.882C31.1291 136.485 33.8446 138.594 33.8446 138.895L33.5428 139.799C33.5428 140.101 32.9394 140.402 32.9394 140.402L33.5428 142.812L33.2411 143.415L33.8446 144.319L33.5428 145.222L33.8446 147.633Z" fill="#FAC5A8"/>
<path d="M32.9393 138.893C32.9393 138.893 30.5256 140.701 29.9221 140.399C29.6204 140.098 30.2238 138.592 30.2238 138.592C30.2238 138.592 29.3187 136.181 29.6204 135.88C29.6204 135.579 32.9393 138.592 32.9393 138.893Z" fill="#FFD4BD"/>
<path d="M26.9049 128.347C26.9049 128.347 22.0774 128.949 21.474 129.853C21.1723 130.456 21.474 134.071 21.1723 135.578C20.8706 137.084 20.5688 139.193 20.5688 140.097C20.5688 141.001 22.6809 143.11 24.1895 143.411C25.6981 143.712 27.8101 142.507 28.1118 141.302C28.4135 140.097 26.3015 139.796 25.0946 139.796C23.8877 139.796 23.2843 139.796 22.6809 139.494C22.0774 139.193 21.7757 137.385 22.0774 136.481C22.6809 135.276 25.3963 133.77 25.6981 133.77C25.9998 133.77 27.5084 133.469 28.1118 133.167C29.9221 132.866 27.8101 128.347 26.9049 128.347Z" fill="#FFD4BD"/>
<path d="M20.2673 131.965C20.2673 131.965 21.1725 135.279 21.1725 136.183C21.1725 136.786 20.8708 140.1 20.8708 140.1L19.6639 141.004C19.6639 141.004 16.9484 138.292 15.7416 139.196C14.5347 140.401 15.7416 145.222 15.7416 145.824C15.4399 146.126 15.4399 147.029 15.4399 147.029C15.4399 147.029 8.80206 139.497 7.8969 134.074C6.99175 128.651 12.7244 125.035 15.1381 123.529C17.2502 122.022 21.4742 122.926 24.4914 124.131C27.5086 125.337 28.4137 127.446 28.112 127.747C27.8103 128.349 20.5691 128.952 20.2673 129.253C19.9656 129.253 20.2673 131.965 20.2673 131.965Z" fill="#4A2727"/>
<path d="M83.9298 192.823C83.9298 192.823 83.9298 193.124 83.6281 193.124C82.7229 193.124 80.3092 192.22 80.3092 192.22L77.5937 191.316L80.0074 193.124L82.1195 194.329L82.4212 194.631H80.0074L76.9903 194.028C76.9903 194.028 74.2748 192.823 73.3696 192.522C72.4645 192.22 67.3353 189.207 67.3353 189.207C67.3353 189.207 61.3009 191.316 58.8872 191.919C56.4734 192.522 44.7064 194.932 42.2927 194.631C39.8789 194.631 37.7669 193.124 37.1635 192.823C36.56 192.522 25.3965 185.893 25.3965 185.893C25.3965 185.893 25.3965 185.291 25.0948 184.688C24.793 183.182 24.793 180.47 25.6982 178.361C26.6033 176.252 32.0343 177.758 34.7497 178.964C35.6549 179.265 36.2583 179.867 36.2583 179.867C36.56 180.47 41.991 184.688 42.2927 184.688C42.5944 184.989 45.3099 184.989 49.5339 184.989C53.758 184.989 65.8267 184.085 66.4301 184.085C67.0336 183.784 71.5593 182.278 71.5593 182.278L75.4817 181.073C75.4817 181.073 76.9903 180.771 77.8954 181.073C78.1971 181.073 78.1971 181.073 78.1971 181.073C78.4988 181.374 78.4988 181.675 78.1971 182.278C77.8954 182.88 76.0851 183.483 76.0851 183.483V183.784L75.1799 184.387C75.1799 184.387 75.1799 186.195 75.1799 186.496C75.1799 186.797 78.4988 189.509 78.4988 189.509C78.8006 189.509 80.6109 190.714 82.1195 191.316C83.3263 191.618 84.2315 192.522 83.9298 192.823Z" fill="#FAC5A8"/>
<path d="M35.6547 178.663C36.5598 178.964 37.1633 179.566 37.1633 179.566C37.465 180.169 42.8959 184.387 43.1976 184.387C43.4993 184.688 46.2148 184.688 50.4388 184.688C54.6629 184.688 66.7316 183.785 67.3351 183.785L67.6368 184.99C67.6368 184.99 61.3007 184.688 59.7921 184.99C58.2835 185.291 43.4993 184.99 43.4993 184.99L42.5942 184.688C42.5942 184.688 38.0684 180.772 35.9564 179.868C35.6547 179.868 35.6547 179.265 35.6547 178.663Z" fill="#F8D1BC"/>
<path d="M74.2745 186.195C74.2745 186.195 73.3694 184.689 73.3694 184.387C73.6711 183.785 75.4814 183.182 75.4814 183.182L77.8952 182.58C77.8952 182.58 79.102 181.977 79.102 181.073C79.4037 181.375 79.4037 181.676 79.102 182.278C78.8003 182.881 76.99 183.484 76.99 183.484L76.0848 183.785L75.1797 184.387C75.1797 184.387 75.1797 186.195 75.1797 186.496C75.1797 186.798 78.4986 189.509 78.4986 189.509L76.99 188.605L74.2745 186.195Z" fill="#F8D1BC"/>
<path d="M80.3092 194.03L82.1195 193.729L82.4212 194.03H80.3092L77.292 193.729C77.292 193.729 74.5765 192.523 73.6714 192.222C72.7662 191.921 67.637 188.908 67.637 188.908C67.637 188.908 61.6026 191.017 59.1889 191.62C56.7752 192.222 45.0082 194.632 42.5944 194.331C40.1807 194.331 38.0686 192.825 37.4652 192.523C36.8618 192.222 25.6982 185.594 25.6982 185.594C25.6982 185.594 25.6982 184.991 25.3965 184.389C25.6982 184.69 26.3016 184.991 26.9051 185.293C26.9051 185.293 36.5601 191.921 39.5772 192.825C42.8961 193.729 42.8961 193.427 47.7236 192.523C52.5511 191.62 58.5855 190.414 61.9044 189.511C65.2233 188.305 67.9387 187.703 67.9387 187.703C67.9387 187.703 70.6542 190.113 71.2576 190.414C71.8611 190.716 73.6714 191.921 73.6714 191.921L77.292 193.427L80.3092 194.03Z" fill="#F8D1BC"/>
<path d="M83.9298 192.823C83.9298 192.823 83.9298 193.124 83.6281 193.124C82.723 193.124 80.3092 192.22 80.3092 192.22L77.5938 191.316L80.0075 193.124L82.1195 194.329H79.7058L76.9903 193.727L73.9731 192.22L77.292 193.727L79.4041 194.329L79.7058 194.028L76.6886 192.22L74.2749 190.714H75.18L78.1972 191.919L80.6109 192.823L82.4213 193.425C83.3264 192.823 83.6281 192.823 83.9298 192.823Z" fill="#F8D1BC"/>
<path d="M38.0683 179.268C38.0683 179.268 37.7666 181.377 35.6546 182.582C33.5426 183.787 27.8099 188.005 26.9048 187.704C25.9996 187.403 17.8532 181.076 15.7412 178.665C13.3275 176.255 13.3275 169.325 17.8532 167.216C22.6807 165.107 25.6979 164.806 29.0168 168.421C31.7323 172.037 38.0683 179.268 38.0683 179.268Z" fill="#203581"/>
<path d="M19.6636 143.414C19.6636 143.414 19.6636 144.619 18.155 144.619C16.6464 144.619 14.2327 141.907 13.931 140.401C13.3275 139.196 14.2327 137.689 15.7413 137.991C16.9481 138.593 18.4567 140.401 18.4567 141.004C18.4567 141.606 19.6636 143.414 19.6636 143.414Z" fill="#FFD4BD"/>
<path d="M188.928 338.648C188.928 338.648 190.135 339.25 190.436 340.456C190.738 341.962 190.135 342.565 190.135 342.866C190.135 342.866 188.023 344.975 185.609 344.372C183.497 343.77 182.29 343.167 181.687 341.962C180.781 341.058 179.876 338.949 178.971 338.648C178.066 338.347 174.144 336.238 173.54 335.635C172.937 335.032 174.747 333.225 174.747 333.225L181.988 335.032L188.928 338.648Z" fill="#3E362F"/>
<path d="M187.419 332.62C187.419 332.62 189.531 337.742 189.833 338.646C190.134 339.55 189.531 341.056 188.626 341.358C188.022 341.659 185.005 342.563 183.195 341.358C181.385 339.851 180.479 338.345 178.971 337.14C177.462 335.934 175.049 335.332 174.747 334.428C174.143 333.524 175.35 329.607 175.35 329.607L182.29 330.21L187.419 332.62Z" fill="#524B45"/>
<path d="M188.324 333.524C188.324 333.524 186.816 335.031 183.497 334.428C182.893 334.428 182.29 334.127 181.686 333.826C179.273 332.621 177.462 330.21 177.161 329.005C176.859 327.499 175.049 303.094 175.049 301.889C175.049 300.684 174.747 282.004 174.747 282.004C174.747 282.004 176.557 278.69 177.764 276.28C178.066 275.376 178.669 274.773 178.669 274.472C179.574 272.664 189.833 270.856 189.833 270.856L191.341 273.568C191.341 273.568 191.341 279.594 189.229 285.318C187.117 291.043 186.514 299.178 186.816 304.299C187.117 309.12 187.721 314.242 188.022 322.076C188.324 329.909 188.324 333.524 188.324 333.524Z" fill="#2A5294"/>
<path d="M181.385 333.828C178.971 332.623 177.161 330.212 176.859 329.007C176.557 327.501 174.747 303.096 174.747 301.891C174.747 300.686 174.445 282.006 174.445 282.006C174.445 282.006 176.256 278.692 177.462 276.282C178.669 278.089 180.178 280.199 181.988 282.91C181.988 282.91 180.781 285.019 180.48 290.141C180.178 295.263 180.178 301.59 180.178 303.096C180.178 304.603 181.988 310.026 181.687 314.545C181.988 318.161 181.687 327.2 181.385 333.828Z" fill="#6C8FC2"/>
<path d="M160.264 350.398L158.756 351.001L158.454 352.808C158.454 352.808 158.454 353.712 159.359 354.917C160.264 356.122 162.376 357.629 164.488 358.231C166.902 358.834 169.316 358.834 169.316 358.834L170.825 359.738L171.126 360.642C171.126 360.642 175.35 362.751 177.161 363.052C178.971 363.353 180.781 361.244 181.083 360.642C181.686 360.039 181.686 358.231 181.385 357.93C181.083 357.629 176.557 357.026 176.557 357.026L167.506 355.821L160.264 350.398Z" fill="#3E362F"/>
<path d="M170.523 348.891L164.187 348.288C164.187 348.288 160.566 348.589 159.661 349.795C158.756 351 159.058 351.301 159.058 351.904C159.36 354.013 162.678 356.122 163.282 356.724C164.187 357.025 171.428 358.833 171.428 358.833C171.428 358.833 176.256 361.545 177.764 361.244C179.273 360.942 181.385 360.34 181.988 359.134C182.592 357.929 181.385 356.423 181.385 356.423L177.161 354.013L170.523 348.891Z" fill="#524B45"/>
<path d="M159.058 281.704C159.058 283.511 159.058 285.319 159.359 287.428C159.963 293.153 164.489 314.845 165.092 320.57C165.695 326.294 167.506 347.987 168.109 349.494C168.411 350.096 168.713 350.699 169.618 351.603C170.825 352.808 172.333 354.013 174.144 354.616C176.859 355.519 180.178 355.218 180.178 354.616C180.178 354.013 182.29 334.128 180.48 323.583C178.669 313.038 179.876 288.633 179.876 288.633L180.178 285.922C180.178 285.922 181.385 285.319 182.592 283.511C182.893 283.21 182.893 282.909 183.195 282.306C183.798 281.101 184.402 279.595 184.402 277.787C185.307 271.761 170.523 264.53 170.523 264.53L160.868 274.172L159.963 275.075L159.661 275.377C159.661 275.377 159.661 275.678 159.661 276.582C159.661 277.184 159.661 277.787 159.661 278.39C159.058 279.595 159.058 280.499 159.058 281.704Z" fill="#2B4396"/>
<path d="M159.058 241.932C158.153 242.836 154.532 247.958 153.325 248.56C152.118 249.163 150.308 250.067 149.101 250.067C148.498 250.067 147.894 249.464 146.989 248.56C146.084 247.657 145.179 246.753 145.179 245.849V245.548C145.48 243.74 147.291 240.426 148.196 238.919C148.498 238.317 149.403 237.714 150.006 236.81C151.213 235.605 152.722 234.701 152.722 234.701C152.722 234.701 156.342 237.714 158.153 240.124C158.756 240.727 159.359 241.631 159.058 241.932Z" fill="#FAC5A8"/>
<path d="M145.782 228.678C145.782 228.678 146.687 230.184 144.877 230.787C143.067 231.389 141.86 230.485 141.86 230.485C141.86 230.485 139.748 228.075 139.748 227.472C139.748 226.87 138.541 224.158 138.541 224.158C138.541 224.158 137.334 223.254 137.636 222.35C137.937 221.748 138.541 221.447 139.446 222.049C140.351 222.652 140.954 223.857 140.954 224.158C140.954 224.459 141.86 225.966 141.86 225.966C141.86 225.966 144.273 226.568 145.782 228.678Z" fill="#FAC5A8"/>
<path d="M165.092 197.645C165.092 197.645 161.169 192.523 160.264 192.523C159.359 192.221 157.851 190.715 157.247 190.112C156.644 189.51 156.644 188.305 156.644 188.305L154.833 186.196C154.833 186.196 152.42 185.292 152.42 184.388C152.42 183.484 153.023 183.183 153.928 183.484C154.833 183.785 158.152 185.593 158.152 185.593L158.756 185.292L158.152 181.676C158.152 181.676 156.04 176.253 156.04 175.65C156.04 175.048 156.644 174.747 156.945 175.048C157.247 175.048 157.851 175.952 157.851 175.952L159.057 178.061L159.963 178.362L160.868 179.869C160.868 179.869 163.282 184.689 163.282 185.894C163.583 187.099 169.014 197.343 169.014 197.343L165.092 197.645Z" fill="#FAC5A8"/>
<path d="M157.549 231.689C158.756 238.317 160.567 247.055 160.567 248.26V248.561C160.265 251.875 159.36 269.35 159.36 270.555C159.36 271.76 159.058 275.376 159.058 275.376C159.058 275.376 159.36 275.978 159.661 276.882C159.963 277.184 160.265 277.485 160.567 278.088C161.17 278.69 161.773 279.293 162.377 280.197C164.187 281.703 167.204 283.511 171.428 283.812C175.652 284.415 179.876 283.511 183.497 282.004C188.626 279.895 192.247 276.882 192.549 275.677C192.85 273.869 192.247 259.709 191.945 251.875C191.945 251.574 191.945 251.574 191.945 251.574C191.945 250.068 191.945 248.862 191.945 247.959C192.247 243.138 194.661 223.856 194.661 223.856C194.661 223.856 196.471 213.009 191.945 209.695C187.419 206.381 175.954 210.9 175.954 210.9C175.954 210.9 167.506 215.721 165.696 216.625C165.394 216.926 165.092 216.926 164.489 217.227L164.187 217.528L162.679 218.432L161.472 219.336C159.058 220.843 156.644 222.65 156.041 223.554C156.041 224.157 156.644 227.471 157.549 231.689Z" fill="#172B6F"/>
<path fill-rule="evenodd" clip-rule="evenodd" d="M190.865 234.609L186.471 235.079L180.084 221.102L184.479 220.632L190.865 234.609ZM185.623 235.17L181.229 235.64L176.176 224.452L180.571 223.982L185.623 235.17ZM180.295 235.76L172.83 236.558L175.269 224.651L180.295 235.76ZM175.532 227.107C175.917 227.93 176.733 229.839 177.477 231.582L177.485 231.602C178.123 233.096 178.707 234.463 178.919 234.909L174.013 235.434C174.103 235.019 174.3 233.878 174.529 232.549L174.53 232.543C174.876 230.534 175.295 228.1 175.532 227.107Z" fill="#D0D8F3"/>
<path fill-rule="evenodd" clip-rule="evenodd" d="M190.058 236.524L189.857 236.544L189.91 237.075L189.836 237.083L189.783 236.552L189.582 236.572L189.575 236.499L190.056 236.45L190.064 236.524L190.058 236.524ZM171.199 240.965C171.309 242.07 172.005 242.71 173.049 242.605C173.41 242.569 173.793 242.456 174.064 242.214L174.055 241.894C173.972 241.988 173.603 242.352 173.092 242.403C172.347 242.478 171.763 241.914 171.666 240.943C171.58 240.089 171.935 239.295 172.807 239.208C173.295 239.159 173.679 239.466 173.757 239.55L173.791 239.541C173.8 239.404 173.816 239.273 173.849 239.14C173.513 239.026 173.149 238.976 172.805 239.011C171.807 239.111 171.085 239.83 171.199 240.965ZM177.044 242.137L177.043 242.137L177.042 242.138C177.003 242.144 176.964 242.151 176.926 242.155C176.746 241.748 176.526 241.283 176.291 240.844L175.086 240.964C175.07 241.024 175.054 241.084 175.039 241.144C174.932 241.545 174.825 241.947 174.752 242.373L174.713 242.373C174.662 242.373 174.619 242.374 174.573 242.378C174.54 242.382 174.511 242.388 174.484 242.394L174.483 242.394C174.457 242.399 174.432 242.405 174.408 242.407L175.535 238.737L175.644 238.726L177.419 242.106C177.376 242.11 177.334 242.111 177.294 242.112C177.255 242.113 177.217 242.114 177.177 242.117C177.13 242.122 177.086 242.13 177.044 242.137ZM179.153 240.56L179.151 240.558L179.15 240.557L179.149 240.556L179.148 240.555L179.147 240.554L179.146 240.553L179.145 240.553L179.144 240.552L179.143 240.551C178.972 240.386 178.801 240.222 178.633 240.054L179.003 239.58L179.965 238.374C179.933 238.377 179.901 238.383 179.87 238.389L179.869 238.39L179.868 238.39C179.839 238.396 179.81 238.401 179.783 238.404C179.719 238.41 179.665 238.411 179.606 238.411L179.593 238.411L178.557 239.809C178.539 239.831 178.519 239.855 178.497 239.882C178.445 239.946 178.385 240.02 178.329 240.079C178.281 240.127 178.22 240.151 178.211 240.121L178.055 238.565C178.018 238.569 177.983 238.575 177.949 238.582L177.949 238.582C177.916 238.588 177.884 238.594 177.85 238.598C177.781 238.605 177.712 238.605 177.642 238.606L177.988 242.055C178.019 242.052 178.052 242.045 178.086 242.039C178.121 242.032 178.158 242.025 178.193 242.022C178.251 242.016 178.315 242.015 178.383 242.014L178.401 242.013L178.225 240.256C178.222 240.231 178.281 240.244 178.306 240.26L179.468 241.444C179.603 241.579 179.721 241.721 179.841 241.869C179.883 241.865 179.925 241.858 179.968 241.85C180.012 241.843 180.057 241.835 180.103 241.831C180.171 241.824 180.239 241.821 180.318 241.819L180.362 241.817L180.36 241.793L179.925 241.324C179.677 241.061 179.415 240.81 179.153 240.56ZM182.238 241.685C181.194 241.789 180.498 241.15 180.388 240.045C180.274 238.91 180.996 238.19 181.994 238.09C182.338 238.056 182.702 238.106 183.038 238.22C183.005 238.353 182.989 238.484 182.98 238.62L182.946 238.63C182.868 238.545 182.484 238.238 181.996 238.287C181.124 238.375 180.769 239.168 180.855 240.023C180.952 240.993 181.536 241.558 182.281 241.483C182.792 241.432 183.161 241.068 183.244 240.973L183.253 241.293C182.982 241.536 182.599 241.648 182.238 241.685ZM183.68 238.556C183.74 238.458 184.055 238.081 184.543 238.032C185.34 237.952 185.838 238.531 185.978 239.288L184.664 239.419C184.596 239.426 184.528 239.427 184.458 239.428L184.457 239.428C184.387 239.429 184.315 239.43 184.243 239.437C184.245 239.455 184.25 239.475 184.255 239.496C184.26 239.518 184.265 239.542 184.268 239.564C184.269 239.58 184.269 239.6 184.268 239.621C184.268 239.647 184.267 239.675 184.27 239.706C184.338 239.699 184.406 239.686 184.474 239.673L184.475 239.673L184.476 239.673L184.478 239.672C184.546 239.659 184.615 239.646 184.686 239.639L186.006 239.507C186.102 240.471 185.643 241.146 184.897 241.221C184.387 241.272 183.958 240.988 183.852 240.913L183.907 241.228C184.227 241.411 184.618 241.446 184.98 241.41C186.024 241.305 186.579 240.541 186.468 239.436C186.355 238.307 185.504 237.739 184.506 237.839C184.156 237.874 183.809 237.995 183.508 238.173C183.567 238.296 183.609 238.428 183.645 238.554L183.68 238.556ZM188.679 241.039C187.636 241.144 186.94 240.505 186.829 239.4C186.716 238.265 187.437 237.545 188.435 237.445C188.78 237.411 189.144 237.46 189.48 237.575C189.447 237.707 189.431 237.839 189.421 237.975L189.387 237.985C189.309 237.9 188.925 237.593 188.438 237.642C187.566 237.729 187.211 238.523 187.296 239.378C187.394 240.348 187.977 240.912 188.723 240.838C189.233 240.787 189.603 240.423 189.686 240.328L189.695 240.648C189.418 240.891 189.035 241.004 188.679 241.039ZM176.201 240.643L175.157 240.748L175.544 239.408L176.201 240.643ZM190.656 237.001L190.731 236.993L190.67 236.389L190.567 236.399L190.457 236.749L190.274 236.429L190.171 236.439L190.232 237.043L190.3 237.036L190.248 236.517L190.439 236.856L190.485 236.851L190.604 236.482L190.656 237.001Z" fill="#D0D8F3"/>
<path d="M159.058 278.69C159.36 278.991 159.661 279.292 160.265 279.895C162.678 282.305 167.808 285.318 175.049 284.715C178.066 284.414 180.48 283.812 182.592 283.209C186.514 282.004 189.23 280.196 191.04 278.69C193.755 276.279 192.549 269.048 192.549 266.638C192.549 264.529 191.643 254.587 191.643 251.875C191.643 251.574 191.643 251.574 191.643 251.574L190.738 248.26C190.738 248.26 191.04 239.823 192.247 230.182C193.454 220.842 191.945 213.31 189.833 210.9C187.419 208.489 186.212 208.791 182.29 209.393C185.307 209.996 187.721 212.406 188.626 219.035C189.531 225.663 188.023 247.356 188.023 247.356L179.575 251.272C179.575 251.272 180.782 228.977 176.557 222.951C172.333 216.926 164.79 218.131 164.79 218.131L164.489 218.432L162.98 219.336L161.773 220.24C161.773 220.24 165.092 220.541 170.825 224.458C176.557 228.374 174.747 252.176 174.747 252.176C174.747 252.176 174.747 252.478 171.73 252.478C169.618 252.478 165.092 250.971 162.377 250.067C161.17 249.766 160.265 249.465 160.265 249.465L159.058 259.106C159.058 259.106 158.756 260.612 158.454 266.337C158.153 272.061 157.248 276.581 159.058 278.69Z" fill="#2B4396"/>
<path d="M160.265 248.262V248.563C160.265 248.563 161.17 248.864 162.377 249.166C162.377 247.659 162.377 246.153 162.377 244.646C162.377 244.345 165.092 232.595 165.092 232.595L160.868 225.966C160.868 225.966 159.359 228.377 157.549 231.691C158.756 238.319 160.566 247.057 160.265 248.262Z" fill="#0F2262"/>
<path d="M159.058 278.693C157.248 276.584 158.153 272.064 158.454 266.34C158.756 260.616 159.058 259.109 159.058 259.109L160.265 248.564C160.265 248.564 161.17 248.865 162.377 249.167C162.377 250.372 162.377 251.878 162.075 253.083C161.773 254.288 161.773 255.494 161.472 256.699C161.17 257.603 160.868 258.205 160.868 259.109C160.868 261.821 160.868 264.532 160.566 267.545C160.265 269.955 159.661 272.667 159.661 275.077C159.661 275.68 159.661 276.283 159.661 277.186C159.661 277.488 159.661 277.789 159.661 277.789C159.661 278.392 159.963 280.199 160.265 280.802C160.566 287.129 161.472 294.661 161.472 294.661L166.903 314.847C166.903 314.847 167.204 332.021 167.506 335.636C167.506 338.047 168.713 346.182 169.618 351.303C169.015 350.701 168.411 349.797 168.109 349.194C167.506 347.688 165.696 325.995 165.092 320.271C164.489 314.546 159.963 292.853 159.36 287.129C159.058 285.02 159.058 283.212 159.058 281.404C159.058 280.501 159.058 279.597 159.058 278.693Z" fill="#6C8FC2"/>
<path d="M150.308 239.524C150.308 239.524 150.308 239.825 150.308 240.428C148.799 240.729 146.989 241.031 146.989 241.031C146.989 241.031 146.989 236.511 146.989 236.21C146.989 235.909 146.385 231.691 146.385 231.691L146.687 230.485L147.29 229.28C147.29 229.28 149.101 229.582 149.704 228.979L150.308 229.28C150.308 229.28 150.006 230.485 149.704 231.088C149.402 231.691 149.704 232.293 149.704 232.594C149.704 232.896 150.006 234.703 150.006 236.511C150.308 238.319 150.308 239.524 150.308 239.524Z" fill="#FAC5A8"/>
<path d="M164.79 227.171C164.79 227.171 166.299 231.088 163.885 236.209C161.472 241.633 159.661 245.549 158.756 245.248C157.851 244.947 155.437 245.549 153.023 243.44C150.61 241.331 149.403 239.524 149.101 237.415C149.101 235.607 151.213 231.991 152.42 228.979C153.627 225.966 155.135 223.555 156.946 222.651C158.756 221.748 163.584 224.761 164.79 227.171Z" fill="#203581"/>
<path d="M183.497 213.011C183.195 213.312 182.29 214.517 177.764 215.421C174.143 216.024 170.221 215.722 169.014 215.722C168.713 215.722 168.411 215.722 168.411 215.722C168.411 215.722 168.109 212.408 168.109 212.107C168.109 211.504 167.204 209.697 167.204 209.697C167.204 209.697 165.394 209.094 165.092 208.492C164.79 207.889 162.98 203.972 162.98 203.972L162.075 201.261C162.075 200.959 161.17 197.344 161.17 197.344C161.17 197.344 161.17 197.043 160.868 193.427C160.566 190.113 162.678 187.401 162.678 187.401L167.204 190.113L176.557 196.139C176.557 196.139 180.781 201.261 180.48 203.671C180.178 205.78 180.781 206.081 181.686 208.492C182.592 210.601 183.497 209.998 183.798 210.299C184.402 210.299 184.1 212.71 183.497 213.011Z" fill="#FAC5A8"/>
<path d="M169.014 215.723C168.713 215.723 168.411 215.723 168.411 215.723C168.411 215.723 168.109 212.408 168.109 212.107C168.109 211.505 167.204 209.697 167.204 209.697C167.204 209.697 165.394 209.094 165.092 208.492C165.092 208.492 166.601 209.094 167.506 209.396C168.109 209.396 168.411 211.505 168.411 211.505C168.411 211.505 169.014 213.614 169.014 215.723Z" fill="#F8D1BC"/>
<path d="M165.092 198.85C165.092 198.85 166.903 198.248 168.411 200.658C169.92 202.767 171.428 205.479 171.73 205.78C171.73 206.081 174.144 206.985 174.747 206.985C175.049 206.985 178.971 206.985 178.971 206.985L181.083 205.78C181.083 205.78 182.592 200.658 182.894 198.85C183.195 196.741 184.402 189.209 182.29 185.895C180.178 182.28 173.239 180.773 169.92 181.376C166.601 181.978 163.282 184.389 162.377 185.594C161.472 186.799 161.472 192.222 161.773 193.126C161.773 194.03 162.679 196.741 162.679 196.741L163.584 198.248L163.885 200.959L164.791 201.261C164.187 201.261 164.187 198.85 165.092 198.85Z" fill="#4A2727"/>
<path d="M167.204 205.177C167.204 205.177 168.713 204.876 168.411 203.671C168.411 202.465 166.902 199.754 165.695 199.754C164.488 199.754 166.299 203.671 167.204 205.177Z" fill="#F8D1BC"/>
<path d="M167.506 202.464C167.506 202.464 167.807 205.176 166.902 205.176C166.299 205.176 165.394 203.669 165.394 203.067C165.394 202.765 164.187 200.656 164.79 199.753C165.394 198.849 166.902 200.958 166.902 200.958L167.506 202.464Z" fill="#FFD4BD"/>
</svg>
