<svg width="618" height="482" viewBox="0 0 618 482" fill="none" xmlns="http://www.w3.org/2000/svg">
<path d="M3.6 481.788L31.0235 465.923L58.4471 481.788H60.6706L32.0824 465.289L61.3059 448.366L90.7412 465.395L62.4706 481.788H64.6941L91.9059 466.029L119.118 481.788H121.341L92.9647 465.395L122.188 448.472L151.624 465.5L123.459 481.788H125.682L152.788 466.135L179.894 481.788H182.118L153.953 465.5L183.176 448.578L212.612 465.606L184.659 481.788H186.882L213.776 466.347L240.671 481.788H242.894L214.941 465.712L244.165 448.789L273.6 465.818L245.859 481.788H248.082L274.765 466.452L301.447 481.788H303.671L275.824 465.818L305.047 448.895L334.482 465.923L306.847 481.788H309.071L335.541 466.558L362.012 481.788H364.235L336.6 465.923L365.824 449.001L395.259 466.029L367.835 481.788H370.059L396.318 466.664L422.577 481.788H424.8L397.376 466.029L426.6 449.107L456.035 466.135L428.824 481.788H431.047L457.2 466.77L483.353 481.788H485.577L458.365 466.135L487.588 449.212L517.024 466.241L490.024 481.788H492.247L518.188 466.875L544.129 481.788H546.353L519.353 466.241L548.576 449.318L575.682 464.972V463.702L549.635 448.684L575.682 433.665V432.395L548.576 448.049L519.141 431.02L548.365 414.098L575.682 429.857V428.588L549.424 413.463L575.682 398.339V397.069L548.576 412.934L519.141 395.906L548.365 378.983L575.894 394.848V393.579L549.424 378.349L575.894 363.118V361.849L548.365 377.714L518.929 360.686L548.153 343.763L575.894 359.734V358.465L549.318 343.128L575.894 327.792V326.523L548.153 342.494L518.824 325.677L548.047 308.754L576 324.831V323.562L549.212 308.12L576 292.678V291.408L548.047 307.485L518.612 290.457L547.835 273.534L575.894 289.716V288.447L548.894 272.899L576 257.457V256.188L547.941 272.37L518.506 255.342L547.729 238.419L576 254.707V253.438L548.788 237.785L576 222.131V220.862L547.729 237.15L518.294 220.122L547.518 203.199L576 219.593V218.324L548.576 202.564L576 186.911V185.642L547.518 202.036L518.082 185.007L547.306 168.085L576 184.796V183.526L548.471 167.661L576 151.796V150.527L547.306 167.027L517.871 149.998L547.094 133.076L576 149.787V148.518L548.259 132.547L576 116.47V115.201L547.094 131.807L517.659 114.778L546.882 97.8554L576 114.672V113.403L548.047 97.3266L571.129 84H568.906L546.882 96.692L524.859 84H522.635L545.718 97.3266L516.494 114.249L487.059 97.2208L510.035 84H507.812L486 96.5862L464.188 84H461.965L484.835 97.2208L455.612 114.144L426.176 97.1151L448.835 84H446.612L425.012 96.4805L403.412 84H401.188L423.953 97.1151L394.729 114.038L365.294 97.0093L387.741 84H385.518L364.129 96.3747L342.741 84H340.518L363.071 97.0093L333.847 113.932L304.412 96.9035L326.647 84H324.424L303.141 96.2689L281.965 84H279.741L302.082 96.9035L272.859 113.826L243.424 96.7978L265.553 84H263.329L242.259 96.1632L221.188 84H218.965L241.094 96.7978L211.871 113.72L182.435 96.692L204.353 84H202.129L181.271 96.0574L160.518 84H158.294L180.212 96.692L150.988 113.615L121.553 96.5862L143.259 84H141.035L120.388 95.9516L99.7412 84H97.5177L119.329 96.5862L90 113.403L60.5647 96.4805L82.1647 84H79.9412L59.5059 95.8459L38.9647 84H36.7412L58.3412 96.4805L29.1176 113.403L0 96.5862V97.8554L27.9529 114.038L0 130.114V131.383L29.1176 114.567L58.5529 131.595L29.3294 148.518L0 131.595V132.864L28.1647 149.152L0 165.335V167.873L28.3765 184.267L0 200.555V202.882L28.5882 219.381L0 235.881V237.996L28.8 254.602L0 271.101V273.005L28.9059 289.716L0 306.322V308.014L29.1176 324.831L0 341.648V343.023L29.3294 359.945L0.105882 376.868H0V378.243H0.105882L29.5412 395.271L0.317647 412.194L0 411.771V413.357L0.211765 413.252L29.6471 430.28L0.423529 447.203L0 446.885V448.684L0.423529 448.472L29.8588 465.5L1.27059 482H3.6V481.788ZM31.8706 430.174L61.0941 413.252L90.5294 430.28L61.3059 447.203L31.8706 430.174ZM212.824 290.668L242.259 307.697L213.035 324.619L183.6 307.591L212.824 290.668ZM182.435 306.85L153 289.822L182.224 272.899L211.659 289.928L182.435 306.85ZM213.988 290.033L243.212 273.111L272.647 290.139L243.424 307.062L213.988 290.033ZM273.812 290.774L303.247 307.802L274.024 324.725L244.588 307.697L273.812 290.774ZM274.871 290.139L304.094 273.217L333.529 290.245L304.306 307.168L274.871 290.139ZM334.694 290.88L364.129 307.908L334.906 324.831L305.471 307.802L334.694 290.88ZM335.753 290.245L364.977 273.322L394.412 290.351L365.294 307.168L335.753 290.245ZM395.682 290.985L425.118 308.014L395.894 324.936L366.353 307.802L395.682 290.985ZM366.141 272.688L395.365 255.765L424.8 272.794L395.577 289.716L366.141 272.688ZM365.082 272.053L335.647 255.025L364.871 238.102L394.306 255.13L365.082 272.053ZM363.918 272.688L334.694 289.61L305.259 272.582L334.482 255.659L363.918 272.688ZM304.094 271.947L274.659 254.919L303.882 237.996L333.318 255.025L304.094 271.947ZM303.035 272.582L273.812 289.505L244.376 272.476L273.6 255.554L303.035 272.582ZM243.212 271.842L213.776 254.813L243 237.891L272.435 254.919L243.212 271.842ZM242.153 272.476L212.929 289.399L183.494 272.37L212.718 255.448L242.153 272.476ZM182.329 271.736L152.894 254.707L182.118 237.785L211.553 254.813L182.329 271.736ZM181.165 272.37L151.941 289.293L122.506 272.265L151.729 255.342L181.165 272.37ZM181.376 307.485L152.153 324.408L122.718 307.379L151.941 290.457L181.376 307.485ZM181.588 342.6L152.365 359.522L122.824 342.494L152.047 325.571L181.588 342.6ZM153.212 325.042L182.435 308.12L211.871 325.148L182.647 342.071L153.212 325.042ZM213.035 325.783L242.471 342.811L213.247 359.734L183.812 342.705L213.035 325.783ZM214.094 325.148L243.318 308.225L272.753 325.254L243.529 342.176L214.094 325.148ZM273.918 325.888L303.353 342.917L274.129 359.839L244.694 342.811L273.918 325.888ZM275.082 325.254L304.306 308.331L333.741 325.36L304.518 342.282L275.082 325.254ZM334.906 325.994L364.341 343.023L335.118 359.945L305.682 342.917L334.906 325.994ZM335.965 325.36L365.188 308.437L394.624 325.465L365.4 342.388L335.965 325.36ZM395.788 326.1L425.224 343.128L396 360.051L366.565 343.023L395.788 326.1ZM396.953 325.465L426.176 308.543L455.612 325.571L426.388 342.494L396.953 325.465ZM396.741 290.351L425.965 273.428L455.4 290.457L426.176 307.379L396.741 290.351ZM396.529 255.13L425.753 238.208L455.188 255.236L425.965 272.159L396.529 255.13ZM425.859 237.044L396.424 220.016L425.647 203.093L455.082 220.122L425.859 237.044ZM424.694 237.679L395.471 254.602L366.035 237.573L395.259 220.651L424.694 237.679ZM364.871 236.939L335.435 219.91L364.659 202.988L394.094 220.016L364.871 236.939ZM363.812 237.573L334.588 254.496L305.153 237.467L334.376 220.545L363.812 237.573ZM303.988 236.833L274.553 219.804L303.776 202.882L333.212 219.91L303.988 236.833ZM302.824 237.467L273.6 254.39L244.165 237.362L273.388 220.439L302.824 237.467ZM243 236.727L213.565 219.699L242.788 202.776L272.224 219.804L243 236.727ZM241.941 237.362L212.718 254.284L183.176 237.256L212.4 220.333L241.941 237.362ZM182.118 236.621L152.682 219.593L181.906 202.67L211.341 219.699L182.118 236.621ZM180.953 237.256L151.729 254.179L122.294 237.15L151.518 220.227L180.953 237.256ZM121.129 236.516L91.6941 219.487L120.918 202.564L150.353 219.593L121.129 236.516ZM121.129 237.785L150.565 254.813L121.341 271.736L91.9059 254.707L121.129 237.785ZM121.341 272.899L150.776 289.928L121.553 306.85L92.1177 289.716L121.341 272.899ZM150.988 325.042L121.765 341.965L92.3294 324.936L121.553 308.014L150.988 325.042ZM151.2 360.157L121.976 377.079L92.4353 360.051L121.659 343.128L151.2 360.157ZM152.259 360.791L181.694 377.82L152.471 394.742L123.035 377.714L152.259 360.791ZM153.424 360.157L182.647 343.234L212.082 360.263L182.859 377.185L153.424 360.157ZM213.247 360.897L242.682 377.926L213.459 394.848L184.024 377.82L213.247 360.897ZM214.306 360.263L243.529 343.34L272.965 360.368L243.741 377.291L214.306 360.263ZM274.129 361.003L303.565 378.031L274.341 394.954L244.906 377.926L274.129 361.003ZM275.294 360.368L304.518 343.446L333.953 360.474L304.729 377.397L275.294 360.368ZM335.118 361.109L364.553 378.137L335.329 395.06L305.788 378.031L335.118 361.109ZM336.176 360.474L365.4 343.551L394.835 360.58L365.612 377.503L336.176 360.474ZM396 361.214L425.435 378.243L396.212 395.166L366.776 378.137L396 361.214ZM397.165 360.58L426.388 343.657L455.824 360.686L426.6 377.608L397.165 360.58ZM456.988 361.32L486.424 378.349L457.2 395.271L427.765 378.243L456.988 361.32ZM427.447 343.128L456.671 326.206L486.106 343.234L456.882 360.157L427.447 343.128ZM427.341 307.908L456.565 290.985L486 308.014L456.776 324.936L427.341 307.908ZM427.129 272.794L456.353 255.871L485.788 272.899L456.565 289.822L427.129 272.794ZM456.353 254.602L426.918 237.573L456.141 220.651L485.577 237.679L456.353 254.602ZM456.141 219.487L426.706 202.564L455.929 185.642L485.365 202.67L456.141 219.487ZM425.647 201.93L396.212 184.901L425.435 167.979L454.871 185.007L425.647 201.93ZM424.482 202.564L395.259 219.487L365.824 202.459L395.047 185.536L424.482 202.564ZM364.659 201.824L335.224 184.796L364.447 167.873L393.882 184.901L364.659 201.824ZM363.6 202.459L334.376 219.381L304.941 202.353L334.165 185.43L363.6 202.459ZM303.776 201.718L274.341 184.69L303.565 167.767L333 184.796L303.776 201.718ZM302.612 202.353L273.388 219.276L243.953 202.247L273.176 185.324L302.612 202.353ZM242.788 201.507L213.353 184.478L242.576 167.556L272.118 184.69L242.788 201.507ZM241.729 202.141L212.506 219.064L183.071 202.036L212.294 185.113L241.729 202.141ZM181.906 201.401L152.471 184.478L181.694 167.556L211.129 184.584L181.906 201.401ZM180.847 202.036L151.624 218.958L122.188 201.93L151.412 185.007L180.847 202.036ZM120.918 201.295L91.4824 184.373L120.706 167.45L150.247 184.478L120.918 201.295ZM119.859 201.93L90.6353 218.853L61.2 201.824L90.4235 184.901L119.859 201.93ZM90.6353 220.122L120.071 237.15L90.8471 254.073L61.4118 237.044L90.6353 220.122ZM120.282 272.265L91.0588 289.187L61.6235 272.159L90.8471 255.236L120.282 272.265ZM120.388 307.379L91.1647 324.302L61.7294 307.273L90.9529 290.351L120.388 307.379ZM120.6 342.494L91.3765 359.416L61.9412 342.388L91.1647 325.465L120.6 342.494ZM120.812 377.714L91.5882 394.637L62.1529 377.608L91.3765 360.686L120.812 377.714ZM121.024 412.829L91.8 429.751L62.3647 412.723L91.5882 395.8L121.024 412.829ZM92.6471 395.166L121.871 378.243L151.306 395.271L122.082 412.194L92.6471 395.166ZM152.471 395.906L181.906 412.934L152.682 429.857L123.247 412.829L152.471 395.906ZM153.635 395.271L182.859 378.349L212.294 395.377L183.071 412.3L153.635 395.271ZM213.459 396.012L242.894 413.04L213.671 429.963L184.129 412.934L213.459 396.012ZM214.518 395.377L243.741 378.454L273.176 395.483L243.953 412.406L214.518 395.377ZM274.341 396.117L303.776 413.146L274.553 430.069L245.118 413.04L274.341 396.117ZM275.4 395.483L304.624 378.56L334.059 395.589L304.835 412.511L275.4 395.483ZM335.224 396.223L364.659 413.252L335.435 430.174L306 413.146L335.224 396.223ZM336.388 395.589L365.612 378.666L395.047 395.694L365.824 412.617L336.388 395.589ZM396.212 396.329L425.647 413.357L396.424 430.28L366.988 413.252L396.212 396.329ZM397.271 395.694L426.494 378.772L455.929 395.8L426.706 412.723L397.271 395.694ZM457.094 396.435L486.529 413.463L457.306 430.386L427.871 413.357L457.094 396.435ZM458.259 395.8L487.482 378.877L516.918 395.906L487.694 412.829L458.259 395.8ZM458.047 360.686L487.271 343.763L516.706 360.791L487.482 377.714L458.047 360.686ZM457.835 325.571L487.059 308.648L516.494 325.677L487.271 342.6L457.835 325.571ZM457.624 290.457L486.847 273.534L516.282 290.562L487.059 307.485L457.624 290.457ZM457.518 255.236L486.741 238.314L516.177 255.342L486.953 272.265L457.518 255.236ZM486.741 237.15L457.306 220.122L486.529 203.199L515.965 220.227L486.741 237.15ZM486.529 202.036L457.094 185.007L486.318 168.085L515.753 185.113L486.529 202.036ZM456.882 149.893L486.106 132.97L515.647 149.998L486.424 166.921L456.882 149.893ZM485.259 167.45L456.035 184.373L426.6 167.344L455.824 150.421L485.259 167.45ZM425.435 166.71L396 149.787L425.224 132.864L454.659 149.893L425.435 166.71ZM424.376 167.344L395.153 184.267L365.718 167.238L394.941 150.316L424.376 167.344ZM364.447 166.604L335.012 149.575L364.235 132.653L393.671 149.681L364.447 166.604ZM363.388 167.238L334.165 184.161L304.729 167.133L333.953 150.21L363.388 167.238ZM303.565 166.498L274.129 149.575L303.353 132.653L332.788 149.681L303.565 166.498ZM302.506 167.133L273.282 184.055L243.847 167.027L273.071 150.104L302.506 167.133ZM242.682 166.392L213.247 149.364L242.471 132.441L271.906 149.575L242.682 166.392ZM241.518 167.027L212.294 183.95L182.859 166.921L212.082 149.998L241.518 167.027ZM181.694 166.286L152.259 149.258L181.482 132.335L210.918 149.364L181.694 166.286ZM180.635 166.921L151.412 183.844L121.976 166.815L151.2 149.893L180.635 166.921ZM120.812 166.181L91.2706 149.258L120.494 132.335L149.929 149.364L120.812 166.181ZM119.647 166.815L90.4235 183.738L60.9882 166.71L90.2118 149.787L119.647 166.815ZM89.2588 184.373L60.0353 201.295L30.6 184.267L59.8235 167.344L89.2588 184.373ZM60.0353 202.459L89.4706 219.487L60.2471 236.41L30.8118 219.381L60.0353 202.459ZM60.2471 237.679L89.6824 254.707L60.4588 271.63L31.0235 254.602L60.2471 237.679ZM60.4588 272.794L89.8941 289.822L60.6706 306.745L31.2353 289.716L60.4588 272.794ZM90.1059 324.936L60.8824 341.859L31.4471 324.831L60.6706 307.908L90.1059 324.936ZM90.2118 360.051L60.9882 376.974L31.5529 359.945L60.7765 343.023L90.2118 360.051ZM90.4235 395.166L61.2 412.088L31.7647 395.06L60.9882 378.137L90.4235 395.166ZM91.9059 464.866L62.4706 447.837L91.6941 430.915L121.129 447.943L91.9059 464.866ZM92.8588 430.28L122.082 413.357L151.518 430.386L122.294 447.309L92.8588 430.28ZM152.894 464.972L123.459 447.943L152.682 431.02L182.118 448.049L152.894 464.972ZM153.741 430.386L182.965 413.463L212.4 430.492L183.176 447.414L153.741 430.386ZM213.776 465.077L184.341 448.049L213.565 431.126L243 448.155L213.776 465.077ZM214.729 430.492L243.953 413.569L273.388 430.597L244.165 447.52L214.729 430.492ZM274.765 465.183L245.329 448.155L274.553 431.232L303.988 448.26L274.765 465.183ZM275.612 430.703L304.835 413.78L334.271 430.809L305.047 447.732L275.612 430.703ZM335.647 465.289L306.212 448.26L335.435 431.338L364.871 448.366L335.647 465.289ZM336.6 430.809L365.824 413.886L395.259 430.915L366.035 447.837L336.6 430.809ZM396.635 465.395L367.2 448.366L396.424 431.444L425.859 448.472L396.635 465.395ZM426.918 447.837L397.482 430.915L426.706 413.992L456.141 431.02L426.918 447.837ZM457.518 465.5L428.082 448.472L457.306 431.549L486.741 448.578L457.518 465.5ZM487.906 447.943L458.471 431.02L487.694 414.098L517.129 431.126L487.906 447.943ZM547.729 448.684L518.506 465.606L489.071 448.578L518.294 431.655L547.729 448.684ZM547.518 413.569L518.294 430.492L488.859 413.463L518.082 396.541L547.518 413.569ZM547.306 378.454L518.082 395.377L488.647 378.349L517.871 361.426L547.306 378.454ZM547.094 343.34L517.871 360.263L488.435 343.234L517.659 326.311L547.094 343.34ZM546.988 308.12L517.765 325.042L488.329 308.014L517.553 291.091L546.988 308.12ZM546.777 273.005L517.553 289.928L488.118 272.899L517.341 255.977L546.777 273.005ZM546.565 237.891L517.341 254.813L487.906 237.785L517.129 220.862L546.565 237.891ZM546.353 202.776L517.129 219.699L487.694 202.67L516.918 185.748L546.353 202.776ZM546.141 167.556L516.918 184.478L487.482 167.45L516.706 150.633L546.141 167.556ZM546.035 132.441L516.812 149.364L487.376 132.335L516.6 115.413L546.035 132.441ZM486 97.8554L515.435 114.884L486.212 131.807L456.776 114.778L486 97.8554ZM485.047 132.335L455.824 149.258L426.388 132.23L455.612 115.307L485.047 132.335ZM425.012 97.7497L454.447 114.778L425.224 131.701L395.788 114.672L425.012 97.7497ZM424.165 132.23L394.941 149.152L365.506 132.124L394.729 115.201L424.165 132.23ZM364.129 97.6439L393.565 114.672L364.341 131.595L334.906 114.567L364.129 97.6439ZM333.741 115.095L363.176 132.124L333.953 149.047L304.518 132.018L333.741 115.095ZM303.141 97.5381L332.577 114.567L303.353 131.489L273.918 114.461L303.141 97.5381ZM272.859 114.99L302.294 132.018L273.071 148.941L243.529 131.912L272.859 114.99ZM242.259 97.4324L271.694 114.461L242.471 131.383L213.035 114.355L242.259 97.4324ZM211.871 114.884L241.306 131.912L212.082 148.835L182.647 131.807L211.871 114.884ZM181.376 97.3266L210.812 114.355L181.588 131.278L152.153 114.249L181.376 97.3266ZM150.988 114.778L180.424 131.807L151.2 148.729L121.765 131.701L150.988 114.778ZM120.388 97.2208L149.824 114.249L120.6 131.172L91.1647 114.038L120.388 97.2208ZM90 114.672L119.435 131.701L90.2118 148.623L60.7765 131.595L90 114.672ZM30.1765 113.932L59.4 97.0093L88.9412 114.038L59.7177 130.96L30.1765 113.932ZM59.6118 132.23L89.0471 149.258L59.8235 166.181L30.3882 149.047L59.6118 132.23ZM0 166.604L29.2235 149.681L58.6588 166.71L29.4353 183.632L0 166.604ZM0.211765 201.718L29.4353 184.796L58.8706 201.824L29.6471 218.747L0.211765 201.718ZM0.423529 236.939L29.6471 220.016L59.0824 237.044L29.8588 253.967L0.423529 236.939ZM0.635294 272.053L29.8588 255.13L59.2941 272.159L30.0706 289.082L0.635294 272.053ZM0.741176 307.168L29.9647 290.245L59.4 307.273L30.1765 324.196L0.741176 307.168ZM0.952941 342.282L30.1765 325.36L59.6118 342.388L30.3882 359.311L0.952941 342.282ZM1.16471 377.503L30.3882 360.58L59.8235 377.608L30.6 394.531L1.16471 377.503ZM1.37647 412.617L30.6 395.694L60.0353 412.723L30.8118 429.645L1.37647 412.617ZM1.58824 447.732L30.8118 430.809L60.2471 447.837L31.0235 464.76L1.58824 447.732Z" fill="#F2F2F3"/>
<path d="M308.318 48.2451V215.086L430.227 293.095L437 289.487V122.647L308.318 48.2451ZM432.033 281.822L313.285 213.282V55.9108L432.033 124.451V281.822Z" fill="#8C4A29"/>
<path d="M417.133 64.029C404.942 44.1885 388.688 27.9554 372.885 18.486H372.433H371.982C356.179 9.46764 339.924 7.21304 327.733 13.075C315.091 18.937 307.867 37.4247 307.867 47.3449V50.9523L312.833 53.6578C312.833 52.3051 312.833 50.5014 312.833 49.1486C315.091 20.2897 339.473 9.91856 366.112 22.0934C367.918 22.9952 370.176 23.8971 371.982 25.2498C371.982 25.2498 371.982 25.2498 372.433 25.2498C372.433 25.2498 372.433 25.2498 372.885 25.2498C401.782 41.9339 429.776 83.8695 432.033 117.689C432.033 119.041 432.033 120.845 432.033 122.198L437 124.903V121.296C437 111.376 429.776 84.3204 417.133 64.029Z" fill="#8C4A29"/>
<path d="M310.124 57.7168L428.872 126.257V283.628L310.124 215.088V57.7168Z" fill="#B96B39"/>
<path d="M427.066 127.612V273.71L424.357 275.514L370.176 97.8513L373.336 96.4985L427.066 127.612Z" fill="#8C4A29"/>
<path d="M371.53 95.1452V241.694L368.369 243.047L314.639 65.8354L317.348 64.0317L371.53 95.1452Z" fill="#8C4A29"/>
<path d="M424.357 128.964V275.513L370.176 244.4V97.8506L424.357 128.964Z" fill="#E09257"/>
<path d="M375.142 108.674V238.99L418.488 264.242V261.085L377.851 237.638V110.478L375.142 108.674Z" fill="#8C4A29"/>
<path d="M377.851 110.476V237.635L418.487 261.083V133.923L377.851 110.476Z" fill="#62A6BD"/>
<path d="M404.49 231.775V252.968L418.487 261.085V239.891L404.49 231.775Z" fill="#C2E6F2"/>
<path d="M380.561 218.247V238.989L390.945 244.851L394.558 247.106V226.364L380.561 218.247Z" fill="#C2E6F2"/>
<path d="M404.49 128.512V149.255L418.487 157.371V136.629L404.49 128.512Z" fill="#C2E6F2"/>
<path d="M380.561 114.536V135.729L388.688 140.238L394.558 143.845V122.652L380.561 114.536Z" fill="#C2E6F2"/>
<path d="M418.487 136.629L404.49 128.512V149.255L418.487 157.371V136.629Z" fill="#E0F7FF"/>
<path d="M394.558 122.652L380.561 114.536V128.514L388.688 140.238L394.558 143.845V122.652Z" fill="#E0F7FF"/>
<path d="M404.49 160.53V220.503L418.487 228.168V168.647L404.49 160.53Z" fill="#C2E6F2"/>
<path d="M418.487 168.647L404.49 160.53V162.334L418.487 182.174V168.647Z" fill="#E0F7FF"/>
<path d="M380.561 146.549V206.522L394.558 214.638V154.666L380.561 146.549Z" fill="#C2E6F2"/>
<path d="M399.073 122.651V252.967L402.233 251.615V124.455L399.073 122.651Z" fill="#8C4A29"/>
<path d="M418.488 166.392L375.142 141.141V135.729L418.488 160.53V166.392Z" fill="#E09257"/>
<path d="M418.488 237.183L375.142 212.382V206.521L418.488 231.772V237.183Z" fill="#E09257"/>
<path d="M418.488 231.773L375.142 206.522L377.851 205.169L418.488 228.166V231.773Z" fill="#8C4A29"/>
<path d="M418.488 160.529L375.142 135.728L377.851 133.924L418.488 157.372V160.529Z" fill="#8C4A29"/>
<path d="M399.073 122.199V252.966L394.557 250.261V119.494L399.073 122.199Z" fill="#E09257"/>
<path d="M368.369 96.9504V243.049L314.639 211.935V65.8369L368.369 96.9504Z" fill="#E09257"/>
<path d="M428.872 123.553L310.124 55.0131C310.124 53.6604 310.124 51.8567 310.124 50.5039C312.381 19.3904 340.375 9.92111 369.272 26.1542C369.272 26.1542 369.272 26.1542 369.724 26.1542C398.621 42.8383 426.615 84.7739 428.872 118.593C428.872 120.847 428.872 122.2 428.872 123.553Z" fill="#B96B39"/>
<path d="M319.605 50.0519C321.412 39.2299 326.83 31.5642 335.408 27.5059C345.793 22.9967 359.339 24.8004 372.433 32.466C385.527 40.1317 399.072 53.6593 409.005 70.3434C417.584 84.3219 423.002 98.3004 424.808 110.926L422.099 112.73L319.605 50.0519Z" fill="#8C4A29"/>
<path d="M316.896 51.8571C318.703 41.035 324.121 33.3694 332.7 29.3111C343.084 24.8019 356.63 26.6056 369.724 34.2712C382.818 41.9369 396.363 55.4645 406.296 72.1485C414.875 86.1271 420.293 100.106 422.1 112.731L316.896 51.8571Z" fill="#E09257"/>
<path d="M323.669 49.6011L324.572 50.052L357.984 68.9906L362.499 71.6961L365.209 73.0489L371.53 76.6563L372.884 77.5581L376.045 79.3618L377.851 80.2636L382.366 82.9692L393.654 89.282L415.327 101.908C413.069 92.8894 409.006 83.4201 403.136 73.9507C402.684 73.0489 402.233 72.598 401.781 71.6961C401.33 70.7943 400.427 69.8925 399.975 68.9906C399.975 68.5397 399.524 68.5397 399.524 68.0888C399.072 67.1869 398.169 66.2851 397.718 65.3833C391.396 56.8158 384.172 49.6011 376.948 44.19C376.496 43.7391 375.593 43.2882 375.142 42.8373C374.69 42.3863 374.239 42.3863 373.787 41.9354C373.336 41.4845 372.884 41.4845 372.433 41.0336C372.433 41.0336 372.433 41.0336 371.981 41.0336C370.627 40.5827 370.175 40.5826 369.724 40.1317C369.272 39.6808 368.821 39.6808 368.369 39.2299C363.403 36.5244 358.887 35.1716 354.372 34.2698C351.663 33.8188 348.954 33.8188 346.245 33.8188C344.89 33.8188 343.987 33.8188 342.633 34.2698C341.73 34.2698 340.827 34.7207 339.924 34.7207C338.569 35.1716 337.666 35.6225 336.763 36.0734C330.893 38.779 326.83 43.2882 324.572 49.1501C324.121 49.1501 323.669 49.6011 323.669 49.6011Z" fill="#C2E6F2"/>
<path d="M324.121 49.1501L325.024 50.052L358.436 68.9906L362.951 71.6961L365.66 73.0489L371.981 76.6563L373.336 77.5581L376.496 79.3618L378.302 80.2636L382.818 82.9692L394.105 89.282L353.921 34.2698C351.212 33.8188 348.502 33.8188 345.793 33.8188C344.439 33.8188 343.536 33.8188 342.181 34.2698C341.278 34.2698 340.375 34.7207 339.472 34.7207C338.118 35.1716 337.215 35.6225 336.312 36.0734C330.442 38.779 326.378 43.2882 324.121 49.1501Z" fill="#E0F7FF"/>
<path d="M339.472 37.8784L357.984 69.4428L362.499 72.1483L342.181 36.9766C341.278 37.4275 340.375 37.4275 339.472 37.8784Z" fill="#62A6BD"/>
<path d="M377.4 80.7137L381.915 83.4192L401.33 72.5971C400.878 71.6953 399.975 70.7934 399.524 69.8916C399.524 69.4407 399.072 69.4407 399.072 68.9897L377.4 80.7137Z" fill="#62A6BD"/>
<path d="M376.045 81.6182L380.56 83.8728L381.915 82.9709L377.399 80.7163L376.045 81.6182Z" fill="#C1804F"/>
<path d="M372.885 42.3882V78.0109L376.045 79.8146V44.1919C375.594 43.7409 374.691 43.29 374.239 42.8391C373.788 42.8391 373.336 42.3882 372.885 42.3882Z" fill="#62A6BD"/>
<path d="M401.33 72.1488C400.427 70.796 399.524 69.8942 398.621 68.5414C391.848 59.0721 383.721 51.4065 375.593 45.9954C374.69 45.5445 373.787 44.6427 372.884 44.1917C372.884 44.1917 372.884 44.1917 372.433 44.1917C371.981 43.7408 371.53 43.7408 371.078 43.2899C370.627 42.839 370.175 42.839 369.724 42.3881C362.048 38.3298 354.372 36.5261 347.148 36.977C345.793 36.977 344.89 36.977 343.536 37.4279C342.633 37.4279 341.73 37.8788 340.827 37.8788C339.472 38.3298 338.569 38.7807 337.666 39.2316C332.248 41.4862 328.184 45.9954 325.927 51.4065L323.669 49.6028C325.927 43.2899 330.442 38.7807 336.312 36.0752C337.215 35.6242 338.569 35.1733 339.472 34.7224C340.375 34.2715 341.278 34.2715 342.181 34.2715C343.536 34.2715 344.439 33.8206 345.793 33.8206C352.566 33.3696 360.693 35.1733 368.369 39.2316C368.821 39.6825 369.272 39.6825 369.724 40.1334C370.175 40.5844 370.627 40.5844 371.078 41.0353C371.078 41.0353 371.078 41.0353 371.53 41.0353C372.433 41.4862 373.336 42.3881 374.239 42.839C382.366 48.25 390.042 56.3666 397.266 65.385C398.169 66.7377 399.072 67.6396 399.975 68.9923C400.878 70.3451 401.781 71.6979 402.684 73.0506C401.781 73.0506 401.781 72.5997 401.33 72.1488Z" fill="#62A6BD"/>
<path d="M335.409 36.5273C331.345 39.2329 328.184 43.2911 326.378 48.2513L413.972 98.7543C414.424 100.107 414.875 101.46 414.875 102.813L323.669 49.604C325.927 43.7421 329.99 39.2329 335.409 36.5273Z" fill="#8C4A29"/>
<path d="M371.078 41.0366L371.53 77.1102L374.239 75.3066V42.8403C372.884 42.3894 371.981 41.9385 371.078 41.0366Z" fill="#8C4A29"/>
<path d="M342.181 34.2698L364.757 73.4998L367.466 71.6962L345.342 33.8188C344.439 33.8188 343.536 33.8188 342.181 34.2698Z" fill="#8C4A29"/>
<path d="M320.509 77.1099V207.426L363.854 232.677V229.07L323.218 206.073V78.9135L320.509 77.1099Z" fill="#8C4A29"/>
<path d="M323.218 78.9111V206.071L363.854 229.068V101.908L323.218 78.9111Z" fill="#62A6BD"/>
<path d="M349.857 200.21V221.404L363.854 229.069V208.327L349.857 200.21Z" fill="#C2E6F2"/>
<path d="M325.475 186.683V207.425L339.472 215.542V194.348L325.475 186.683Z" fill="#C2E6F2"/>
<path d="M349.857 96.9478V117.69L363.854 125.807V105.064L349.857 96.9478Z" fill="#C2E6F2"/>
<path d="M325.475 82.9712V103.714L339.472 111.83V91.0878L325.475 82.9712Z" fill="#C2E6F2"/>
<path d="M349.857 128.966V188.487L351.663 189.84L363.854 196.604V137.082L361.145 135.73L349.857 128.966Z" fill="#C2E6F2"/>
<path d="M325.475 114.985V174.957L339.472 183.074V123.101L325.475 114.985Z" fill="#C2E6F2"/>
<path d="M418.487 216.445L404.49 196.604V220.503L418.487 228.168V216.445Z" fill="#E0F7FF"/>
<path d="M418.487 239.891L404.49 231.775V252.968L418.487 261.085V239.891Z" fill="#E0F7FF"/>
<path d="M394.557 182.174L380.56 162.785V206.524L394.557 214.64V182.174Z" fill="#E0F7FF"/>
<path d="M394.557 226.364L380.56 218.247V230.422L390.945 244.851L394.557 247.106V226.364Z" fill="#E0F7FF"/>
<path d="M349.857 128.966V187.135L351.663 189.84L363.854 196.604V138.886L361.145 135.73L349.857 128.966Z" fill="#E0F7FF"/>
<path d="M325.475 85.2256V103.713L339.472 111.83V105.066L325.475 85.2256Z" fill="#E0F7FF"/>
<path d="M339.472 123.101L325.475 114.985V152.862L339.472 172.703V123.101Z" fill="#E0F7FF"/>
<path d="M363.854 199.758L320.509 174.957L323.218 173.604L363.854 196.601V199.758Z" fill="#8C4A29"/>
<path d="M344.439 91.0869V221.403L347.148 219.599V92.4397L344.439 91.0869Z" fill="#8C4A29"/>
<path d="M363.854 128.964L320.509 104.164L323.218 102.36L363.854 125.808V128.964Z" fill="#8C4A29"/>
<path d="M363.854 134.828L320.509 109.576V104.165L363.854 128.966V134.828Z" fill="#E09257"/>
<path d="M363.854 205.619L320.509 180.367V174.956L363.854 199.757V205.619Z" fill="#E09257"/>
<path d="M344.439 90.6369V221.404L339.472 218.698V87.4805L344.439 90.6369Z" fill="#E09257"/>
<path d="M371.079 41.0346V76.6573L367.918 74.8537V39.231C368.369 39.6819 368.821 39.6819 369.273 40.1328C369.724 40.5837 370.627 41.0346 371.079 41.0346Z" fill="#E09257"/>
<path d="M364.757 73.5025L360.242 70.797L339.472 34.7234C340.375 34.2725 341.278 34.2725 342.181 34.2725L364.757 73.5025Z" fill="#E09257"/>
<path d="M399.524 69.4416L378.754 81.1655L374.239 78.46L396.815 65.3833C397.718 66.7361 398.621 68.0888 399.524 69.4416Z" fill="#E09257"/>
<path d="M305.157 50.0503V216.891L433.839 291.293V124.452L305.157 50.0503ZM428.872 283.627L310.124 215.087V57.7159L428.872 126.256V283.627Z" fill="#8C4A29"/>
<path d="M413.972 65.8347C401.782 45.9942 385.527 29.761 369.724 20.2917H369.272H368.821C353.018 11.2733 336.763 9.0187 324.572 14.8807C311.93 20.7426 304.706 39.2304 304.706 49.1506V52.758L309.672 55.4635C309.672 54.1107 309.672 52.307 309.672 50.9543C311.93 22.0954 336.312 11.7242 362.951 23.8991C364.757 24.8009 367.015 25.7028 368.821 27.0555C368.821 27.0555 368.821 27.0555 369.272 27.0555C369.272 27.0555 369.272 27.0555 369.724 27.0555C398.621 43.7396 426.615 85.6751 428.872 119.494C428.872 120.847 428.872 122.651 428.872 124.003L433.839 126.709V123.102C433.839 113.181 426.615 86.577 413.972 65.8347Z" fill="#8C4A29"/>
<path d="M301.997 51.856V218.696L430.679 293.098V126.258L301.997 51.856ZM425.712 285.433L306.512 216.893V59.5216L425.26 128.061V285.433H425.712Z" fill="#E09257"/>
<path d="M410.812 67.6354C398.621 47.7949 382.367 31.5618 366.564 22.0925H366.112H365.661C349.858 13.0741 333.603 10.8195 321.412 16.6814C308.77 22.5434 301.545 41.0311 301.545 50.9514V54.1078L306.512 56.8134C306.512 55.4606 306.512 53.6569 306.512 52.3041C308.77 23.4453 333.151 13.0741 359.791 25.2489C361.597 26.1508 363.855 27.0526 365.661 28.4054C365.661 28.4054 365.661 28.4054 366.112 28.4054C366.112 28.4054 366.112 28.4054 366.564 28.4054C395.461 45.0894 423.454 87.025 425.712 120.844C425.712 122.197 425.712 124 425.712 125.353L430.679 128.059V124.451C430.679 114.982 423.455 88.3778 410.812 67.6354Z" fill="#E09257"/>
<path d="M215.758 14.4302L334.506 82.9701V284.531L215.758 215.992V14.4302Z" fill="#B96B39"/>
<path d="M215.758 14.4302L334.506 82.9701V284.531L215.758 215.992V14.4302Z" fill="#B96B39"/>
<path d="M277.164 51.8542V242.594L274.455 243.946L220.273 22.5444L223.433 20.7407L277.164 51.8542Z" fill="#8C4A29"/>
<path d="M333.151 83.8723V274.612L329.991 276.415L276.26 54.5625L278.969 52.7588L333.151 83.8723Z" fill="#8C4A29"/>
<path d="M210.791 6.76367L207.63 8.56735L210.791 217.794L336.312 294L339.473 292.196V81.1655L210.791 6.76367ZM334.506 284.531L215.757 215.991V14.4293L334.506 82.9692V284.531Z" fill="#8C4A29"/>
<path d="M329.991 85.6731V276.412L276.26 245.299V54.5596L329.991 85.6731Z" fill="#E09257"/>
<path d="M281.227 65.3833L324.121 90.1839V265.141L281.227 239.889V65.3833Z" fill="#62A6BD"/>
<path d="M310.575 232.673V253.866L324.121 261.532V240.789L323.669 240.338L310.575 232.673Z" fill="#C2E6F2"/>
<path d="M323.669 240.338L310.575 232.673V253.866L324.121 261.532V241.691L323.669 240.338Z" fill="#E0F7FF"/>
<path d="M286.193 219.146V239.888L300.19 248.004V227.262L286.193 219.146Z" fill="#C2E6F2"/>
<path d="M300.19 227.262L286.193 219.146V239.888L300.19 248.004V227.262Z" fill="#E0F7FF"/>
<path d="M310.575 85.2212V105.964L324.121 114.08V93.3378L310.575 85.2212Z" fill="#C2E6F2"/>
<path d="M286.193 71.2446V91.987L300.19 100.104V79.3612L286.193 71.2446Z" fill="#C2E6F2"/>
<path d="M310.575 118.138V221.398L324.121 229.064V126.254L310.575 118.138Z" fill="#C2E6F2"/>
<path d="M324.121 150.608L310.575 130.767V188.034L324.121 207.424V150.608Z" fill="#E0F7FF"/>
<path d="M286.193 104.161V207.421L300.19 215.538V112.277L294.772 109.121L286.193 104.161Z" fill="#C2E6F2"/>
<path d="M300.19 207.871L286.193 188.03V207.42L300.19 215.536V207.871Z" fill="#E0F7FF"/>
<path d="M294.772 109.121L286.193 104.161V153.762L300.19 173.602V116.786L294.772 109.121Z" fill="#E0F7FF"/>
<path d="M324.121 117.238L281.227 92.437L283.936 90.6333L324.121 114.081V117.238Z" fill="#8C4A29"/>
<path d="M324.121 232.671L281.227 207.42L283.936 206.067L324.121 229.064V232.671Z" fill="#8C4A29"/>
<path d="M305.157 79.3604V253.866L307.867 252.514V80.7131L305.157 79.3604Z" fill="#8C4A29"/>
<path d="M281.227 65.3833V239.889L324.121 265.141V261.534L283.936 238.537V67.187L281.227 65.3833Z" fill="#8C4A29"/>
<path d="M324.121 123.101L281.227 97.8495V92.4385L324.121 117.239V123.101Z" fill="#E09257"/>
<path d="M324.121 238.086L281.227 213.285V207.423L324.121 232.675V238.086Z" fill="#E09257"/>
<path d="M305.158 78.9104V253.867L300.191 251.162V75.7539L305.158 78.9104Z" fill="#E09257"/>
<path d="M274.455 53.6594V243.948L220.273 212.834V22.5459L274.455 53.6594Z" fill="#E09257"/>
<path d="M226.143 33.8188L269.488 58.6195V233.577L226.143 208.325V33.8188Z" fill="#62A6BD"/>
<path d="M255.491 201.109V221.851L267.231 229.066L269.488 229.968V209.225L255.491 201.109Z" fill="#C2E6F2"/>
<path d="M269.488 209.225L255.491 201.109V212.382L267.231 229.066L269.488 229.968V209.225Z" fill="#E0F7FF"/>
<path d="M231.561 187.581V208.323L245.558 216.44V195.247L242.397 193.443L231.561 187.581Z" fill="#C2E6F2"/>
<path d="M245.558 195.25L242.397 193.447L245.558 197.956V195.25Z" fill="#E0F7FF"/>
<path d="M255.491 53.6611V74.4035L269.488 82.52V61.7777L255.491 53.6611Z" fill="#C2E6F2"/>
<path d="M269.488 73.5016L255.491 53.6611V74.4035L269.488 82.52V73.5016Z" fill="#E0F7FF"/>
<path d="M231.561 39.6802V60.4225L245.558 68.5391V47.7967L231.561 39.6802Z" fill="#C2E6F2"/>
<path d="M231.561 39.6802V60.4225L245.558 68.5391V47.7967L231.561 39.6802Z" fill="#E0F7FF"/>
<path d="M255.491 86.5776V189.387L269.488 197.504V94.6942L255.491 86.5776Z" fill="#C2E6F2"/>
<path d="M269.488 94.6942L255.491 86.5776V110.476L269.488 130.317V94.6942Z" fill="#E0F7FF"/>
<path d="M269.488 164.584L255.491 144.744V189.385L269.488 197.501V164.584Z" fill="#E0F7FF"/>
<path d="M231.561 72.5962V175.857L245.558 183.973V80.7128L231.561 72.5962Z" fill="#C2E6F2"/>
<path d="M245.558 80.7128L231.561 72.5962V76.6545L245.558 96.495V80.7128Z" fill="#E0F7FF"/>
<path d="M231.561 110.925V175.857L245.558 183.974V130.314L231.561 110.925Z" fill="#E0F7FF"/>
<path d="M269.488 200.658L226.143 175.857L228.852 174.054L269.488 197.502V200.658Z" fill="#8C4A29"/>
<path d="M269.488 85.6731L226.143 60.8725L228.852 59.0688L269.488 82.5167V85.6731Z" fill="#8C4A29"/>
<path d="M226.143 33.8188V208.325L269.488 233.126V229.969L228.852 206.972V35.6225L226.143 33.8188Z" fill="#8C4A29"/>
<path d="M250.073 47.7959V222.302L253.233 220.498V49.1487L250.073 47.7959Z" fill="#8C4A29"/>
<path d="M269.488 91.0857L226.143 66.2851V60.874L269.488 85.6746V91.0857Z" fill="#E09257"/>
<path d="M269.488 206.521L226.143 181.27V175.859L269.488 200.66V206.521Z" fill="#E09257"/>
<path d="M250.073 46.895V222.303L245.557 219.597V44.1895L250.073 46.895Z" fill="#E09257"/>
<path d="M207.63 8.56934V219.6L336.312 294.002V82.9712L207.63 8.56934ZM331.345 286.336L212.597 217.796V16.235L331.345 84.7749V286.336Z" fill="#E09257"/>
<path d="M226.142 215.99L198.148 199.757V222.303L212.145 242.143L226.142 250.26V215.99Z" fill="#E0F7FF"/>
<path d="M188.666 194.348L171.509 184.428L188.666 208.778V194.348Z" fill="#E0F7FF"/>
<path d="M142.161 0L139 1.80368L142.161 218.696L238.785 278.218L241.945 276.414V57.7178L142.161 0ZM235.173 263.788L149.385 214.638V12.6258L235.173 61.7761V263.788Z" fill="#0D0D0C"/>
<path d="M235.173 61.7753L149.385 12.625V214.637L235.173 263.788V61.7753Z" fill="#424242"/>
<path d="M227.497 66.7352L157.061 26.1523V113.631L227.497 154.214V66.7352Z" fill="#62A6BD"/>
<path d="M199.503 54.5596V88.8295L220.273 100.553L227.497 105.063V70.7927L199.503 54.5596Z" fill="#C2E6F2"/>
<path d="M162.027 32.9165V67.1864L190.021 83.4196V49.1496L179.185 42.8367L162.027 32.9165Z" fill="#C2E6F2"/>
<path d="M220.273 100.557L199.503 71.6982V88.8332L220.273 100.557Z" fill="#E0F7FF"/>
<path d="M162.027 32.9165V67.1864L190.021 83.4196V58.168L179.185 42.8367L162.027 32.9165Z" fill="#E0F7FF"/>
<path d="M199.503 101.008V135.278L207.63 139.787L227.497 151.06V117.241L199.503 101.008Z" fill="#C2E6F2"/>
<path d="M162.027 79.3604V113.63L173.315 119.943L190.021 129.413V95.5935L166.542 81.615L162.027 79.3604Z" fill="#C2E6F2"/>
<path d="M227.497 117.241L199.503 101.008V128.514L207.63 139.787L227.497 151.06V117.241Z" fill="#E0F7FF"/>
<path d="M190.021 95.5933L166.542 81.6147L190.021 114.983V95.5933Z" fill="#E0F7FF"/>
<path d="M162.027 113.63L173.315 119.943L162.027 104.161V113.63Z" fill="#E0F7FF"/>
<path d="M194.537 47.3467V135.276L197.246 133.472V49.1504L194.537 47.3467Z" fill="#0D0D0C"/>
<path d="M233.367 164.135L147.579 114.985V215.54L233.367 265.141V164.135Z" fill="#575756"/>
<path d="M226.142 167.29L155.254 126.707V212.382L226.142 253.416V167.29Z" fill="#62A6BD"/>
<path d="M198.148 199.757V234.027L212.145 242.143L226.142 250.26V215.99L198.148 199.757Z" fill="#C2E6F2"/>
<path d="M160.673 178.113V212.383L188.667 228.616V194.346L171.509 184.426L160.673 178.113Z" fill="#C2E6F2"/>
<path d="M198.148 155.118V188.937L226.142 205.17V170.9L198.6 155.118H198.148Z" fill="#C2E6F2"/>
<path d="M198.6 155.118H198.148V188.937L226.142 205.17V193.897L198.6 155.118Z" fill="#E0F7FF"/>
<path d="M160.673 133.471V167.29L188.667 183.523V149.253L160.673 133.471Z" fill="#C2E6F2"/>
<path d="M160.673 133.471V167.29L188.667 183.523V149.253L160.673 133.471Z" fill="#E0F7FF"/>
<path d="M192.73 148.354V234.029L195.44 232.677V149.707L192.73 148.354Z" fill="#0D0D0C"/>
<path d="M155.254 167.292L226.142 207.875V204.719L157.963 165.489L155.254 167.292Z" fill="#0D0D0C"/>
<path d="M157.061 67.1853L227.497 108.219V105.063L159.77 65.8325L157.061 67.1853Z" fill="#0D0D0C"/>
<path d="M147.579 114.983L233.367 164.133V160.977L150.739 113.179L147.579 114.983Z" fill="#0D0D0C"/>
<path d="M155.254 126.707V212.382L226.142 253.416V250.259L157.963 211.029V128.06L155.254 126.707Z" fill="#0D0D0C"/>
<path d="M157.061 26.1523V113.631L227.497 154.214V151.057L159.77 111.827V27.5051L157.061 26.1523Z" fill="#0D0D0C"/>
<path d="M192.73 148.352L188.667 145.646V231.772L192.73 234.027V148.352Z" fill="#575756"/>
<path d="M155.254 167.29V171.799L226.142 212.833V207.872L155.254 167.29Z" fill="#575756"/>
<path d="M194.537 47.3464L190.021 45.0918V132.57L194.537 135.276V47.3464Z" fill="#424242"/>
<path d="M157.061 67.189V72.1491L227.497 113.183V108.223L157.061 67.189Z" fill="#424242"/>
<path d="M139 1.80566V220.502L238.785 278.22V59.5235L139 1.80566ZM231.561 265.594L146.224 216.444V14.4314L232.012 63.5817V265.594H231.561Z" fill="#616160"/>
<path d="M296.814 240.931L465.329 142.924L245.923 247.176L246.883 248.618L296.814 240.931Z" fill="#9C480C"/>
<path d="M584.873 212.105L465.328 142.924L618 217.39V219.792L584.873 212.105Z" fill="#D9AF6A"/>
<path d="M415.878 401.872L296.813 332.69V239.487L415.878 308.188V401.872Z" fill="#B76F3F"/>
<path d="M296.813 239.487V332.69L415.878 401.872L299.214 331.249L296.813 239.487Z" fill="#A45823"/>
<path d="M584.873 210.183V303.386L554.147 321.162L541.184 328.849L509.498 347.585L491.734 357.674L458.127 377.372L444.684 385.059L415.878 401.873V308.19L444.684 291.856L458.127 283.688L491.734 263.991L496.055 261.589L509.498 253.902L541.184 235.646L554.147 227.959L584.873 210.183Z" fill="#D9AF6A"/>
<path d="M415.878 401.872L584.873 303.384V301.943L415.878 400.43V401.872Z" fill="#B58847"/>
<path d="M323.699 291.375L303.055 279.365V248.617L323.699 260.628V291.375ZM304.975 278.404L321.779 288.012V261.589L304.975 251.98V278.404Z" fill="#8C4320"/>
<path d="M309.296 276.48L316.498 280.804V272.156L309.296 268.312V276.48Z" fill="#8C4320"/>
<path d="M305.936 266.392L319.858 274.079L313.137 259.667L305.936 266.392Z" fill="#8C4320"/>
<path d="M465.329 141L440.363 155.413L427.881 162.619L296.814 239.488L245.923 247.174L430.761 149.167L431.722 148.687L440.843 146.765L465.329 141Z" fill="#D9AF6A"/>
<path d="M618 217.388L584.873 209.701L530.142 178.473L504.697 163.58L465.328 141L498.935 148.687L508.057 153.972L537.343 170.786L618 217.388Z" fill="#E8C583"/>
<path d="M584.873 210.181L554.147 227.957L541.184 235.644L509.498 253.9L496.055 261.587L491.734 263.989L458.127 283.687L444.684 291.854L415.878 308.189L412.998 306.267L393.794 295.217L296.813 239.488L465.328 141L529.662 177.993L554.147 192.406L584.873 210.181Z" fill="#EFD995"/>
<path d="M425.96 298.1L439.403 289.933L443.244 292.335L429.801 300.502L425.96 298.1Z" fill="#D69985"/>
<path d="M473.01 270.234L490.774 260.145L494.615 262.547L476.851 272.636L473.01 270.234Z" fill="#D69985"/>
<path d="M522.46 241.411L535.423 234.205L539.264 236.607L526.301 244.294L522.46 241.411Z" fill="#D69985"/>
<path d="M577.192 209.703L561.828 218.831L560.868 219.311L558.948 220.272L552.707 223.635L550.786 225.077L548.866 226.037L544.545 228.92L517.659 244.294L515.739 245.255L511.418 247.657L509.498 249.098L504.216 251.98L502.296 253.422L501.336 253.902H500.856L500.376 254.383L494.134 257.746L479.731 266.393L467.249 274.08L463.888 275.521L461.968 276.963H461.488L457.647 279.365L455.726 280.326L453.806 281.767L449.965 283.689L434.122 293.297L422.6 300.023L420.679 300.984L416.838 303.386L415.878 303.867L410.117 300.504L341.943 261.109L314.577 245.255L304.495 239.489L465.328 145.326L577.192 209.703Z" fill="#9F5939"/>
<path d="M395.234 349.506L258.406 280.805L257.446 278.883L415.878 308.189V311.072L395.234 349.506Z" fill="#D9AF6A"/>
<path d="M394.274 347.583L257.446 278.882L296.814 239.487L415.878 308.188L394.274 347.583Z" fill="#E5BC71"/>
<path d="M584.873 266.393V255.824L415.878 311.073V322.603L433.162 354.311L444.684 347.585V385.059L458.127 377.372V339.898L491.734 320.201V357.674L509.498 347.585V310.112L541.184 291.856V328.849L554.147 321.162V284.169L584.873 266.393Z" fill="#D69985"/>
<path d="M437.003 349.023L605.518 250.536L606.478 249.575L415.878 308.187V311.069L437.003 349.023Z" fill="#B76F3F"/>
<path d="M606.478 249.579L554.147 279.846L540.704 287.532L509.018 306.269L491.734 316.358L457.647 336.055L444.204 344.223L437.963 347.586L415.878 308.191L429.801 300.504L443.244 292.337L476.851 272.639L494.615 262.55L526.301 244.294L539.264 236.607L584.873 210.184L606.478 249.579Z" fill="#FDE697"/>
<path d="M458.127 336.534L444.685 344.701L444.204 344.221L429.802 300.502L443.244 292.334L457.647 336.053L458.127 336.534Z" fill="#D69985"/>
<path d="M509.498 306.746L491.734 316.835V316.355L476.851 272.636L494.615 262.547L509.017 306.266L509.498 306.746Z" fill="#D69985"/>
<path d="M554.147 280.806L541.184 288.013L540.704 287.532L526.301 244.294L539.264 236.607L554.147 279.845V280.806Z" fill="#D69985"/>
<path d="M394.274 347.584L257.446 278.883L258.406 280.805L395.234 349.506L394.274 347.584Z" fill="#9C480C"/>
<path d="M465.328 145.326V274.561L415.878 303.867L304.495 239.489L465.328 145.326Z" fill="#D19F66"/>
<path d="M415.878 401.873H365.468L232 337.015L296.813 305.307V332.691L415.878 401.873Z" fill="#ACB5B4"/>
<path d="M456.206 411.002L390.913 401.874H415.878L424.52 397.069L445.644 399.471L476.851 381.696L444.684 385.059L458.127 377.372L488.373 375.45L526.301 353.35L491.734 357.674L509.497 347.585L544.065 344.703L574.791 326.927L541.184 328.849L554.147 321.162L600.236 318.279L591.114 326.927L456.206 411.002Z" fill="#ACB5B4"/>
<path d="M470.129 166.945L465.808 164.543L314.577 245.255L341.943 261.109L409.637 300.504L415.878 303.867L416.358 303.386L420.679 300.984L422.599 300.023L433.642 293.297L449.965 283.689L453.806 281.767L455.726 280.806L457.647 279.845L461.007 277.924L461.487 277.443L463.408 276.482L466.288 274.561L478.771 267.354L455.726 253.422L436.522 241.892L419.719 231.803L395.714 217.39L393.793 215.949L391.873 214.507L390.433 213.066L421.159 196.251L423.079 195.29L425.48 193.849L465.808 171.749L553.186 224.116L559.428 220.753L561.348 219.792L470.129 166.945Z" fill="#7B7F8B"/>
<path d="M561.828 218.83L560.868 219.31L558.948 220.271L552.706 223.634L550.786 225.076L548.865 226.036L544.545 228.919L517.659 244.293L515.739 245.253L511.418 247.656L509.497 249.097L504.216 251.979L502.296 253.421L501.336 253.901H500.855L500.375 254.382L494.134 257.745L479.731 266.392L467.249 274.079L463.888 275.52L461.967 276.962H461.487L457.647 279.364L455.726 280.325L453.806 281.766L449.965 283.688L434.122 293.296L422.599 300.022L420.679 300.983L416.838 303.385L415.878 303.866L410.117 300.503L341.943 261.108L314.577 245.253L466.288 161.179L561.828 218.83Z" fill="#C5C7CF"/>
<path d="M472.529 251.501L494.134 257.747L479.731 266.394L467.248 274.081L463.888 275.523L461.967 276.964H461.487L434.122 260.629L433.161 260.149L428.84 257.747L428.36 257.266H427.88L426.92 256.786V256.306L425.48 255.345L423.559 254.384L423.079 253.903H422.599L368.348 221.234V220.754L376.029 222.676L388.032 226.519L406.756 231.804L437.002 240.932L472.529 251.501Z" fill="#9497A1"/>
<path d="M509.497 249.098L504.216 251.981L502.296 253.422L501.335 253.902H500.855L500.375 254.383L494.134 257.746L479.731 266.394L467.248 274.08L463.888 275.522L461.967 276.963L434.602 260.628L434.122 260.148L429.321 257.265L428.36 256.785L427.88 256.305L426.92 255.824L426.44 255.344H425.96L424.039 254.383L423.559 253.902L423.079 253.422L368.348 220.753L370.268 219.312L416.838 193.369L421.159 195.771L509.497 249.098Z" fill="#E8E9F0"/>
<path d="M504.216 251.978L502.296 253.419L501.336 253.9H500.856L500.375 254.38L494.134 257.743L479.731 266.391L467.249 274.078L434.602 254.38L398.114 232.761L388.032 226.515L383.711 223.633L381.791 222.672L379.39 221.231L392.353 214.024L417.798 200.092L504.216 251.978Z" fill="#62A6BD"/>
<path d="M449.965 283.688L434.122 293.296L422.599 300.022L420.679 300.983L416.838 303.385L415.878 303.866L410.117 300.503L388.032 287.531L366.908 275.52L341.943 261.108L319.378 247.656V245.253L335.701 250.058L343.383 252.46L366.908 259.186L386.592 264.951L404.356 270.236L449.965 283.688Z" fill="#9497A1"/>
<path d="M455.726 280.324L453.806 281.765L449.965 283.687L434.122 293.296L422.599 300.022L420.679 300.982L335.701 250.057L333.781 249.096L331.86 247.655L333.781 246.694H334.261L347.704 239.007L353.465 235.644L365.947 228.918L367.868 227.477L418.758 258.224L420.679 259.185L421.159 259.666L455.726 280.324Z" fill="#FFFEFF"/>
<path d="M525.341 223.155L544.545 228.92L517.659 244.294L515.739 245.255L511.418 247.657L509.498 249.098L421.159 195.771L416.838 193.368V190.966L425.48 193.368L433.162 195.771L441.323 198.173L446.124 199.614L525.341 223.155Z" fill="#9497A1"/>
<path d="M465.328 173.668L550.786 225.074L548.866 226.035L544.545 228.917L517.659 244.291L515.739 245.252L489.333 229.878L488.853 229.398L484.532 226.515L482.612 225.554L481.652 225.074L478.771 223.632V223.152L433.162 195.768L431.721 194.807L429.321 193.846L431.721 192.405L458.127 177.992L463.408 174.629L465.328 173.668Z" fill="#FFFEFF"/>
<path d="M455.726 280.324L453.806 281.765L411.077 255.822L375.069 234.203L367.868 229.879L358.266 235.644L347.224 241.409L336.181 247.655L333.781 249.096L331.86 247.655L333.781 246.694H334.261L347.704 239.007L353.465 235.644L365.947 228.918L367.868 227.477L418.758 258.224L420.679 259.185L421.159 259.666L455.726 280.324Z" fill="#9497A1"/>
<path d="M504.216 251.978L502.296 253.419L417.798 202.494L416.358 202.974L409.637 206.818L394.754 215.465L393.313 215.946L381.791 222.672L379.39 221.231L392.353 214.024L417.798 200.092L504.216 251.978Z" fill="#9497A1"/>
<path d="M381.791 222.672L379.39 221.231L417.798 200.092V202.494L381.791 222.672Z" fill="#DBDCE0"/>
<path d="M465.328 173.668L550.786 225.074L548.866 226.035L541.664 222.191L498.455 195.768L465.328 176.07L433.642 193.846L431.721 194.807L429.321 193.846L431.721 192.405L458.127 177.992L463.408 174.629L465.328 173.668Z" fill="#9497A1"/>
<path d="M463.888 275.517L461.967 276.959H461.487L457.647 279.361L455.726 280.322L453.806 281.763L449.965 283.685L434.122 293.293L422.599 300.019L420.679 300.98L416.838 303.382L319.378 245.251L368.348 218.347L370.268 219.308L376.03 222.671L426.44 252.937L427.88 253.898L429.321 254.859L429.801 255.34L463.888 275.517Z" fill="#F4F5FA"/>
<path d="M457.646 279.361L455.726 280.322L453.806 281.763L449.965 283.685L434.122 293.293L422.599 300.019L414.437 294.735L356.345 260.144L343.383 252.457L336.181 247.653L335.221 247.172L334.261 246.692H333.781L331.86 245.251L367.868 225.553L420.199 256.781L421.639 257.742L423.559 258.703L457.646 279.361Z" fill="#62A6BD"/>
<path d="M470.129 166.942L558.948 220.27L552.707 223.633L550.786 225.074L548.866 226.035L544.545 228.917L517.659 244.291L515.739 245.252L511.418 247.654L423.08 194.807L416.838 190.963L465.809 164.06L470.129 166.942Z" fill="#F4F5FA"/>
<path d="M465.328 171.266L552.706 223.633L550.786 225.074L548.866 226.035L544.545 228.917L517.659 244.291L487.413 226.035L485.012 224.594L483.092 223.633L482.132 223.152L481.652 222.672L443.724 200.092L441.323 198.17L433.642 193.846L433.162 193.366L431.721 192.405L429.321 191.444L465.328 171.266Z" fill="#62A6BD"/>
<path d="M457.646 279.361L455.726 280.322L421.159 259.664L420.679 259.183L418.758 258.222L367.868 227.475L365.947 228.916L353.465 235.642L347.704 239.005L334.261 246.692H333.781L331.86 245.251L367.868 225.553L420.199 256.781L421.639 257.742L423.559 258.703L457.646 279.361Z" fill="#9497A1"/>
<path d="M333.781 246.692L331.86 245.251L367.868 225.553V227.475L333.781 246.692Z" fill="#DBDCE0"/>
<path d="M552.706 223.633L550.786 225.074L465.328 173.668L463.408 174.629L458.127 177.992L431.721 192.405L429.321 191.444L465.328 171.266L552.706 223.633Z" fill="#9497A1"/>
<path d="M431.721 192.405L429.321 191.444L465.328 171.266V173.668L431.721 192.405Z" fill="#DBDCE0"/>
<path d="M453.806 281.764L449.965 283.686L434.121 293.294L422.599 300.02L414.437 294.735L356.345 260.145L343.383 252.458L336.181 247.654L335.221 247.173L334.261 246.693L347.704 239.006L353.465 235.643L365.947 228.917L375.069 234.202L411.077 255.821L453.806 281.764Z" fill="#C2E6F2"/>
<path d="M453.805 281.767L449.965 283.689L434.121 293.297L414.437 294.738L356.345 260.148L366.907 259.187L411.077 255.824L453.805 281.767Z" fill="#E0F7FF"/>
<path d="M353.465 235.643L375.069 234.202L365.947 228.917L353.465 235.643Z" fill="#E0F7FF"/>
<path d="M542.144 221.712L548.865 226.036L544.545 228.918L517.659 244.292L487.413 226.036L485.012 224.594L483.092 223.633L482.132 223.153L481.652 222.673L443.724 200.093L441.323 198.171L433.642 193.847L433.162 193.367L431.721 192.406L458.127 177.993L463.408 174.63L498.455 195.769L542.144 221.712Z" fill="#C2E6F2"/>
<path d="M542.144 222.194L498.455 195.771L443.724 200.094L487.413 226.037L542.144 222.194Z" fill="#E0F7FF"/>
<path d="M465.328 173.668L550.786 225.074L548.865 226.035L541.664 222.191L498.455 195.768L465.328 176.07L433.642 193.846L433.162 193.365L431.721 192.405L458.127 177.992L463.408 174.629L465.328 173.668Z" fill="#92C7E3"/>
<path d="M500.855 253.902L500.375 254.383L494.134 257.746L479.731 266.393L467.248 274.08L434.602 254.383L398.114 232.764L388.032 226.518L383.711 223.635L381.791 222.675L394.753 215.468L416.358 202.977L458.127 227.959L494.134 250.059L500.855 253.902Z" fill="#C2E6F2"/>
<path d="M500.856 253.902L500.375 254.382L494.134 257.745L479.731 266.393L467.249 274.079L434.602 254.382L456.686 252.46L472.53 251.499L492.694 250.058H494.134L500.856 253.902Z" fill="#E0F7FF"/>
<path d="M398.594 232.764L458.127 227.959L416.358 202.977L381.791 222.675L398.594 232.764Z" fill="#E0F7FF"/>
<path d="M502.296 253.419L501.336 253.899H500.855L500.375 254.38L492.694 250.056L456.686 228.437L417.798 204.896L396.674 216.426L383.711 223.632L381.791 222.672L393.313 215.946L394.753 215.465L403.875 210.18L409.637 206.817L416.358 202.974L417.798 202.494L502.296 253.419Z" fill="#92C7E3"/>
<path d="M455.726 280.324L453.806 281.765L411.077 255.822L375.069 234.203L367.868 229.879L358.266 235.644L347.223 241.409L336.181 247.655L335.221 247.175L334.261 246.694L347.704 239.007L353.465 235.644L365.947 228.918L367.868 227.477L418.758 258.224L420.679 259.185L421.159 259.666L455.726 280.324Z" fill="#92C7E3"/>
<path d="M486.933 231.324H485.972L475.41 225.078V224.117L477.811 223.156L478.771 223.637L486.933 231.324Z" fill="#C5C7CF"/>
<path d="M486.933 231.322V230.842L489.333 229.4V229.881L486.933 231.322Z" fill="#C5C7CF"/>
<path d="M476.37 224.597L486.932 230.843L489.333 229.401L479.251 223.156L476.37 224.597Z" fill="#E0F7FF"/>
<path d="M486.932 231.322V230.842L476.37 224.596V225.077L486.932 231.322Z" fill="#9497A1"/>
<path d="M482.611 227.479L481.651 226.998V224.596L482.611 225.557V227.479Z" fill="#9497A1"/>
<path d="M482.611 225.556L481.651 224.596L483.091 223.635L484.532 224.596L482.611 225.556Z" fill="#A21B00"/>
<path d="M482.611 225.557V227.479L484.051 226.998L484.531 224.596L482.611 225.557Z" fill="#C5C7CF"/>
<path d="M492.694 218.351L490.773 217.39L481.171 222.675L483.092 223.636L492.694 218.351Z" fill="#E0F7FF"/>
<path d="M483.092 223.634L481.171 222.673V224.595L483.092 225.555V223.634Z" fill="#9497A1"/>
<path d="M483.092 223.637L492.694 218.352L492.214 220.274L483.092 225.558V223.637Z" fill="#C5C7CF"/>
<path d="M432.201 261.589H431.241L420.679 255.344L421.159 254.383L423.079 253.422H424.52L432.201 261.589Z" fill="#C5C7CF"/>
<path d="M432.201 261.593V261.113L435.082 259.671V260.152L432.201 261.593Z" fill="#C5C7CF"/>
<path d="M422.119 254.385L432.201 261.111L435.082 259.669L424.52 252.943L422.119 254.385Z" fill="#E0F7FF"/>
<path d="M432.201 261.59V261.11L422.119 254.384V255.345L432.201 261.59Z" fill="#9497A1"/>
<path d="M428.36 257.749L426.92 257.269V254.867L428.36 255.347V257.749Z" fill="#9497A1"/>
<path d="M428.36 255.347L426.92 254.866L428.36 253.905L429.801 254.866L428.36 255.347Z" fill="#A21B00"/>
<path d="M428.36 255.347V257.749L429.801 256.788V254.867L428.36 255.347Z" fill="#C5C7CF"/>
<path d="M430.281 252.942L428.361 251.981L418.759 257.266L420.679 258.227L430.281 252.942Z" fill="#E0F7FF"/>
<path d="M420.679 258.225L418.758 257.264V259.186L420.679 260.147V258.225Z" fill="#9497A1"/>
<path d="M420.679 258.228L430.281 252.943V254.865L420.679 260.15V258.228Z" fill="#C5C7CF"/>
<path d="M577.192 210.18L546.945 227.475L533.503 235.162L509.018 249.094L501.816 253.418L485.013 263.507L451.406 283.205L437.483 291.372L415.878 303.863L391.873 289.931L394.754 288.009L399.075 285.607L402.435 287.529L416.838 279.361L436.042 268.312L432.202 266.39L443.724 259.664L447.085 262.066L450.926 259.664L466.289 251.016L482.612 241.408L479.251 239.486L491.734 232.279L494.615 230.358L497.975 232.76L512.378 224.593L531.582 213.543L530.142 210.18L536.383 206.336L541.664 206.817L577.192 210.18Z" fill="#B59FA6"/>
<path d="M512.378 224.595L497.975 232.763L494.614 230.361L491.734 232.282L476.37 231.321L444.684 249.578L466.288 251.019L450.925 259.667L427.4 257.264L429.321 256.304L431.241 254.862L427.4 257.264L406.276 269.275L404.355 270.236L393.313 276.962L416.838 279.364L402.435 287.531L399.074 285.61L394.753 288.012L388.032 287.531L366.908 275.521L386.592 264.951L463.888 222.193H464.368L471.089 221.232L512.378 224.595Z" fill="#B59FA6"/>
<path d="M604.557 150.13L449.965 239.489V408.119L455.727 411.002L607.438 321.162V315.397L610.319 153.493L604.557 150.13ZM601.197 317.318L565.669 337.977L561.348 340.379L559.428 341.82L557.508 342.781L527.261 360.076V357.674L514.299 364.881V219.311L527.261 212.105V205.379L601.677 162.621V317.318H601.197ZM469.169 248.137L502.776 228.92L504.697 227.959V373.528L469.169 394.187V248.137Z" fill="#7B7F8B"/>
<path d="M456.207 242.37V411L610.319 321.641V153.011L456.207 242.37ZM601.197 317.317L565.669 337.975V192.406L597.356 174.15L599.276 173.189L601.197 172.228V317.317ZM469.169 248.135L502.776 228.918L504.697 227.957V373.527L469.169 394.185V248.135ZM514.299 219.31L527.262 212.103L552.227 197.69V343.26L527.262 357.673L514.299 364.879V219.31Z" fill="#C5C7CF"/>
<path d="M552.227 208.742V197.692L527.262 212.105L514.299 219.311V355.272L510.938 367.283L509.018 375.45L508.538 374.97V216.429L527.262 205.859L556.548 188.564L557.508 189.044L552.227 208.742Z" fill="#9497A1"/>
<path d="M508.538 216.429L509.018 216.909L557.508 189.044L556.548 188.564L508.538 216.429Z" fill="#DBDCE0"/>
<path d="M527.262 206.338L509.018 216.907V375.448L510.938 374.487L557.028 347.583V189.042L527.262 206.338ZM514.299 219.309L527.262 212.103L552.227 197.69V343.26L527.262 357.672L514.299 364.879V219.309Z" fill="#E8E9F0"/>
<path d="M510.938 217.868L509.018 226.035L508.538 227.957L504.697 242.369V227.476L502.776 228.437L469.17 248.134V380.252L467.249 387.939L462.928 404.273L461.008 403.312V244.772L508.538 216.907H509.018L510.938 217.868Z" fill="#9497A1"/>
<path d="M502.777 226.037V228.439L469.17 248.136V391.304L467.249 392.264V246.695L502.777 226.037Z" fill="#FFFEFF"/>
<path d="M607.438 162.14L601.197 186.641V171.748L599.276 172.709L597.356 174.15L565.669 192.406V324.043L563.749 332.211L561.349 340.378L559.428 348.545L557.508 347.584V189.043L601.197 163.581L605.518 161.179L607.438 162.14Z" fill="#9497A1"/>
<path d="M557.508 189.043L559.428 190.004L607.438 162.14L605.518 161.179L557.508 189.043Z" fill="#DBDCE0"/>
<path d="M599.277 170.304V172.706L597.356 174.148L565.67 192.404V335.571L563.749 336.532V190.963L599.277 170.304Z" fill="#FFFEFF"/>
<path d="M502.777 226.037V371.606L467.25 392.264V389.862L500.856 370.645V227.478L502.777 226.037Z" fill="#9497A1"/>
<path d="M552.227 197.694V343.264L514.299 365.363V362.961L549.826 342.303V198.655L552.227 197.694Z" fill="#9497A1"/>
<path d="M514.299 362.959V365.361L552.227 343.262L549.826 342.301L514.299 362.959Z" fill="#DBDCE0"/>
<path d="M599.277 170.309V315.878L563.75 336.537V334.135L597.356 314.918V171.75L599.277 170.309Z" fill="#9497A1"/>
<path d="M509.018 219.309L508.538 219.79L462.928 246.213V404.754L510.938 376.409V217.868L509.018 219.309ZM504.697 373.046L469.17 393.704V248.135L502.777 228.918L504.697 227.957V373.046Z" fill="#F4F5FA"/>
<path d="M601.197 165.984L559.428 190.005V348.546L607.438 320.682V162.141L601.197 165.984ZM565.67 337.977V192.408L597.356 174.151L599.277 173.19L601.197 172.23V317.799L565.67 337.977Z" fill="#F4F5FA"/>
<path d="M504.697 227.477V373.046L469.17 393.705V391.303L502.777 371.605V228.438L504.697 227.477Z" fill="#9497A1"/>
<path d="M469.17 391.302V393.705L504.697 373.046L502.777 371.605L469.17 391.302Z" fill="#DBDCE0"/>
<path d="M601.197 171.749V317.318L565.67 337.977V335.575L599.277 315.877V172.71L601.197 171.749Z" fill="#9497A1"/>
<path d="M565.67 335.575V337.977L601.197 317.319L599.277 315.877L565.67 335.575Z" fill="#DBDCE0"/>
<path d="M599.277 172.707V315.874L565.67 335.571V333.169L597.356 314.913V174.148L599.277 172.707Z" fill="#9497A1"/>
<path d="M549.826 198.651V342.299L514.299 362.957V360.555L547.906 340.858V200.093L549.826 198.651Z" fill="#9497A1"/>
<path d="M502.776 228.438V371.606L469.169 391.303V388.901L500.856 370.645V229.88L502.776 228.438Z" fill="#9497A1"/>
<path d="M461.008 244.772L462.928 245.732L510.938 217.868L509.018 216.907L461.008 244.772Z" fill="#DBDCE0"/>
<path d="M560.868 267.83L560.388 268.791V280.802L560.868 281.282L563.269 279.841L563.749 278.88L560.868 267.83Z" fill="#C5C7CF"/>
<path d="M560.868 267.831L561.348 268.311L564.229 266.87L563.269 266.39L560.868 267.831Z" fill="#C5C7CF"/>
<path d="M561.348 280.32V268.309L564.229 266.868V278.879L561.348 280.32Z" fill="#FDFDFE"/>
<path d="M560.868 267.83L561.348 268.311V280.321L560.868 279.841V267.83Z" fill="#9497A1"/>
<path d="M561.829 273.113V275.034L563.749 275.995V274.554L561.829 273.113Z" fill="#9497A1"/>
<path d="M563.75 274.557V275.998L565.67 275.037V273.596L563.75 274.557Z" fill="#A21B00"/>
<path d="M563.749 274.555L561.829 273.114L563.269 272.634L565.67 273.595L563.749 274.555Z" fill="#C5C7CF"/>
<path d="M574.792 269.753V271.675L565.67 277.44V275.518L574.792 269.753Z" fill="#FDFDFE"/>
<path d="M565.67 275.515V277.437L563.749 275.996V274.074L565.67 275.515Z" fill="#9497A1"/>
<path d="M565.67 275.517L574.792 269.752L573.352 268.792L563.75 274.076L565.67 275.517Z" fill="#C5C7CF"/>
<path d="M507.098 299.058L506.137 300.019V312.03L507.098 312.51L509.498 311.069V310.108L507.098 299.058Z" fill="#C5C7CF"/>
<path d="M507.097 299.059L507.578 299.539L509.978 298.098L509.498 297.618L507.097 299.059Z" fill="#C5C7CF"/>
<path d="M507.578 311.548V299.537L509.978 298.096V310.107L507.578 311.548Z" fill="#FDFDFE"/>
<path d="M507.097 299.058L507.578 299.539V311.549L507.097 311.069V299.058Z" fill="#9497A1"/>
<path d="M508.058 304.34V306.262L509.979 307.222V305.781L508.058 304.34Z" fill="#9497A1"/>
<path d="M509.979 305.784V307.225L511.419 306.265V304.823L509.979 305.784Z" fill="#A21B00"/>
<path d="M509.979 305.784L508.058 304.342L509.498 303.862L511.419 304.823L509.979 305.784Z" fill="#C5C7CF"/>
<path d="M513.339 305.302V307.223L503.737 312.989V311.067L513.339 305.302Z" fill="#FDFDFE"/>
<path d="M503.737 311.067V312.989L501.817 312.028V310.106L503.737 311.067Z" fill="#9497A1"/>
<path d="M503.737 311.066L513.339 305.301L511.419 304.34L501.817 310.105L503.737 311.066Z" fill="#C5C7CF"/>
</svg>
