<svg width="69" height="112" viewBox="0 0 69 112" fill="none" xmlns="http://www.w3.org/2000/svg">
<path fill-rule="evenodd" clip-rule="evenodd" d="M2.59229 33.8594C3.19189 16.3621 17.2227 2.40393 34.3965 2.40393C51.5698 2.40393 65.6006 16.3621 66.2002 33.8594H2.59229ZM0.75 35.0262H0.572266C0.572266 15.9276 15.6934 0.403931 34.3965 0.403931C53.0991 0.403931 68.2202 15.9276 68.2202 35.0262H67.9946V110.455C67.9946 110.932 67.6079 111.319 67.1309 111.319H1.61377C1.13672 111.319 0.75 110.932 0.75 110.455V35.0262ZM2.47803 109.591V35.5873H66.2666V109.591H2.47803Z" fill="#2B4CB9"/>
<path d="M61.3067 34.3366C61.3067 19.1127 49.2584 6.77136 34.396 6.77136C19.5337 6.77136 7.48535 19.1127 7.48535 34.3366" stroke="#2B4CB9" stroke-width="2"/>
<mask id="path-3-inside-1" fill="white">
<rect x="5.46484" y="38.5742" width="57.4653" height="68.03" rx="0.863934"/>
</mask>
<rect x="5.46484" y="38.5742" width="57.4653" height="68.03" rx="0.863934" stroke="#2B4CB9" stroke-width="3.45574" mask="url(#path-3-inside-1)"/>
<mask id="path-4-inside-2" fill="white">
<rect x="9.50586" y="42.6157" width="49.0451" height="59.9473" rx="0.863934"/>
</mask>
<rect x="9.50586" y="42.6157" width="49.0451" height="59.9473" rx="0.863934" stroke="#2B4CB9" stroke-width="3.45574" mask="url(#path-4-inside-2)"/>
<rect x="34.0195" y="43.5735" width="1.53798" height="58.3108" fill="#2B4CB9"/>
<rect x="10.2471" y="73.4978" width="1.53798" height="47.5249" transform="rotate(-90 10.2471 73.4978)" fill="#2B4CB9"/>
</svg>
