<svg width="168" height="100" viewBox="0 0 168 100" fill="none" xmlns="http://www.w3.org/2000/svg">
<mask id="path-1-inside-1" fill="white">
<rect x="0.75" y="0.643677" width="111.448" height="99.3524" rx="0.863934"/>
</mask>
<rect x="0.75" y="0.643677" width="111.448" height="99.3524" rx="0.863934" stroke="#2B4CB9" stroke-width="3.45574" mask="url(#path-1-inside-1)"/>
<mask id="path-2-inside-2" fill="white">
<rect x="6.79785" y="6.69116" width="48.3803" height="87.2573" rx="0.863934"/>
</mask>
<rect x="6.79785" y="6.69116" width="48.3803" height="87.2573" rx="0.863934" stroke="#2B4CB9" stroke-width="3.45574" mask="url(#path-2-inside-2)"/>
<mask id="path-3-inside-3" fill="white">
<rect x="11.9814" y="11.8749" width="38.0131" height="76.8901" rx="0.863934"/>
</mask>
<rect x="11.9814" y="11.8749" width="38.0131" height="76.8901" rx="0.863934" stroke="#2B4CB9" stroke-width="3.45574" mask="url(#path-3-inside-3)"/>
<mask id="path-4-inside-4" fill="white">
<rect x="57.7695" y="6.69116" width="48.3803" height="87.2573" rx="0.863934"/>
</mask>
<rect x="57.7695" y="6.69116" width="48.3803" height="87.2573" rx="0.863934" stroke="#2B4CB9" stroke-width="3.45574" mask="url(#path-4-inside-4)"/>
<mask id="path-5-inside-5" fill="white">
<rect x="62.9531" y="11.8749" width="38.0131" height="76.8901" rx="0.863934"/>
</mask>
<rect x="62.9531" y="11.8749" width="38.0131" height="76.8901" rx="0.863934" stroke="#2B4CB9" stroke-width="3.45574" mask="url(#path-5-inside-5)"/>
<rect x="60.3613" y="46.4321" width="1.72787" height="8.63934" rx="0.863934" fill="#2B4CB9"/>
<path d="M166.479 1.77136H129.354C127.465 1.77355 125.654 2.52491 124.319 3.86064C122.983 5.19636 122.232 7.00737 122.229 8.89636V46.0214C122.229 46.2203 122.309 46.411 122.449 46.5517C122.59 46.6923 122.781 46.7714 122.979 46.7714H135.729C135.928 46.7714 136.119 46.6923 136.26 46.5517C136.4 46.411 136.479 46.2203 136.479 46.0214V35.4861L137.997 38.1156L141.747 44.6114C141.797 44.6966 141.863 44.7713 141.941 44.8311C142.019 44.8909 142.108 44.9348 142.203 44.9601C142.267 44.9774 142.332 44.9862 142.398 44.9864C142.529 44.986 142.659 44.9514 142.773 44.8859L153.813 38.5109C153.899 38.4617 153.974 38.3962 154.034 38.3181C154.094 38.2399 154.138 38.1508 154.163 38.0556C154.189 37.9605 154.195 37.8613 154.183 37.7636C154.17 37.6659 154.138 37.5717 154.089 37.4864L150.339 30.9906L148.821 28.3656L151.446 29.8821L157.942 33.6321C158.115 33.7316 158.319 33.7585 158.511 33.707C158.703 33.6556 158.867 33.5299 158.967 33.3576L165.342 22.3154C165.441 22.1431 165.468 21.9384 165.417 21.7463C165.365 21.5541 165.239 21.3903 165.067 21.2909L158.571 17.5409L155.945 16.0214H166.479C166.678 16.0214 166.869 15.9423 167.01 15.8017C167.15 15.661 167.229 15.4703 167.229 15.2714V2.52136C167.229 2.32245 167.15 2.13168 167.01 1.99103C166.869 1.85038 166.678 1.77136 166.479 1.77136ZM144.729 3.27136H150.729V14.5214H144.729V3.27136ZM149.924 16.0214L145.054 24.4566L139.858 21.4566L142.996 16.0214H149.924ZM137.229 3.27136H143.229V14.5214H137.229V3.27136ZM141.264 16.0214L138.559 20.7059L137.979 20.3714L133.362 17.7059L134.336 16.0214H141.264ZM130.104 17.5581L131.963 18.6306L136.104 21.0216L131.423 23.7216L131.087 23.1464L128.423 18.5309L130.104 17.5581ZM127.671 17.2304L126.739 15.6141L128.604 16.6919L127.671 17.2304ZM130.444 16.0214H132.603L132.063 16.9559L130.479 16.0416L130.444 16.0214ZM129.354 3.27136H135.729V14.5214H129.354C127.863 14.5214 126.432 13.9287 125.377 12.8738C124.322 11.8189 123.729 10.3882 123.729 8.89636C123.729 7.40452 124.322 5.97378 125.377 4.91889C126.432 3.86399 127.863 3.27136 129.354 3.27136ZM123.729 13.4024L124.809 15.2714H123.729V13.4024ZM123.729 16.7714H125.674L126.747 18.6306L127.633 20.1644L129.138 22.7714H123.729V16.7714ZM123.729 24.2714H130.005L130.497 25.1256L133.469 30.2714H123.729V24.2714ZM134.979 45.2714H123.729V39.2714H134.979V45.2714ZM134.979 37.7714H123.729V31.7714H134.334L134.979 32.8881V37.7714ZM135.189 30.2106L132.177 25.0214L137.604 21.8879L138.458 22.3806L143.604 25.3521L135.189 30.2106ZM136.383 32.3196L135.933 31.5156L140.851 28.6761L145.104 26.2214L146.223 26.8664L148.663 31.0941L143.788 33.9066L138.918 36.7191L136.383 32.3196ZM149.414 32.3909L152.414 37.5861L142.672 43.2111L139.672 38.0159L144.543 35.2034L149.414 32.3909ZM163.67 22.2134L158.045 31.9566L152.848 28.9566L155.661 24.0816L158.473 19.2066L163.67 22.2134ZM157.174 18.4634L154.362 23.3384L151.549 28.2134L147.149 25.6724L146.355 25.2149L151.656 16.0214H152.945L157.174 18.4634ZM158.229 14.5214H152.229V3.27136H158.229V14.5214ZM165.729 14.5214H159.729V3.27136H165.729V14.5214Z" fill="#2B4CB9"/>
</svg>
